<?xml version='1.0' encoding='utf-8'?>
<svg xmlns:xlink="http://www.w3.org/1999/xlink" class="pygal-chart" id="chart-03899ac2-6044-47f6-83c9-9143317e21ab" viewBox="0 0 800 600" xmlns="http://www.w3.org/2000/svg"><!--Generated with pygal 2.4.0 (etree) ©Kozea 2012-2016 on 2018-01-17--><!--http://pygal.org--><!--http://github.com/Kozea/pygal--><defs><style type="text/css">#chart-03899ac2-6044-47f6-83c9-9143317e21ab{-webkit-user-select:none;-webkit-font-smoothing:antialiased;font-family:Consolas,"Liberation Mono",Menlo,Courier,monospace}#chart-03899ac2-6044-47f6-83c9-9143317e21ab .title{font-family:Consolas,"Liberation Mono",Menlo,Courier,monospace;font-size:16px}#chart-03899ac2-6044-47f6-83c9-9143317e21ab .legends .legend text{font-family:Consolas,"Liberation Mono",Menlo,Courier,monospace;font-size:10px}#chart-03899ac2-6044-47f6-83c9-9143317e21ab .axis text{font-family:Consolas,"Liberation Mono",Menlo,Courier,monospace;font-size:10px}#chart-03899ac2-6044-47f6-83c9-9143317e21ab .axis text.major{font-family:Consolas,"Liberation Mono",Menlo,Courier,monospace;font-size:10px}#chart-03899ac2-6044-47f6-83c9-9143317e21ab .text-overlay text.value{font-family:Consolas,"Liberation Mono",Menlo,Courier,monospace;font-size:16px}#chart-03899ac2-6044-47f6-83c9-9143317e21ab .text-overlay text.label{font-family:Consolas,"Liberation Mono",Menlo,Courier,monospace;font-size:10px}#chart-03899ac2-6044-47f6-83c9-9143317e21ab .tooltip{font-family:Consolas,"Liberation Mono",Menlo,Courier,monospace;font-size:14px}#chart-03899ac2-6044-47f6-83c9-9143317e21ab text.no_data{font-family:Consolas,"Liberation Mono",Menlo,Courier,monospace;font-size:64px}
#chart-03899ac2-6044-47f6-83c9-9143317e21ab{background-color:rgba(249,249,249,1)}#chart-03899ac2-6044-47f6-83c9-9143317e21ab path,#chart-03899ac2-6044-47f6-83c9-9143317e21ab line,#chart-03899ac2-6044-47f6-83c9-9143317e21ab rect,#chart-03899ac2-6044-47f6-83c9-9143317e21ab circle{-webkit-transition:150ms;-moz-transition:150ms;transition:150ms}#chart-03899ac2-6044-47f6-83c9-9143317e21ab .graph &gt; .background{fill:rgba(249,249,249,1)}#chart-03899ac2-6044-47f6-83c9-9143317e21ab .plot &gt; .background{fill:rgba(255,255,255,1)}#chart-03899ac2-6044-47f6-83c9-9143317e21ab .graph{fill:rgba(0,0,0,.87)}#chart-03899ac2-6044-47f6-83c9-9143317e21ab text.no_data{fill:rgba(0,0,0,1)}#chart-03899ac2-6044-47f6-83c9-9143317e21ab .title{fill:rgba(0,0,0,1)}#chart-03899ac2-6044-47f6-83c9-9143317e21ab .legends .legend text{fill:rgba(0,0,0,.87)}#chart-03899ac2-6044-47f6-83c9-9143317e21ab .legends .legend:hover text{fill:rgba(0,0,0,1)}#chart-03899ac2-6044-47f6-83c9-9143317e21ab .axis .line{stroke:rgba(0,0,0,1)}#chart-03899ac2-6044-47f6-83c9-9143317e21ab .axis .guide.line{stroke:rgba(0,0,0,.54)}#chart-03899ac2-6044-47f6-83c9-9143317e21ab .axis .major.line{stroke:rgba(0,0,0,.87)}#chart-03899ac2-6044-47f6-83c9-9143317e21ab .axis text.major{fill:rgba(0,0,0,1)}#chart-03899ac2-6044-47f6-83c9-9143317e21ab .axis.y .guides:hover .guide.line,#chart-03899ac2-6044-47f6-83c9-9143317e21ab .line-graph .axis.x .guides:hover .guide.line,#chart-03899ac2-6044-47f6-83c9-9143317e21ab .stackedline-graph .axis.x .guides:hover .guide.line,#chart-03899ac2-6044-47f6-83c9-9143317e21ab .xy-graph .axis.x .guides:hover .guide.line{stroke:rgba(0,0,0,1)}#chart-03899ac2-6044-47f6-83c9-9143317e21ab .axis .guides:hover text{fill:rgba(0,0,0,1)}#chart-03899ac2-6044-47f6-83c9-9143317e21ab .reactive{fill-opacity:.7;stroke-opacity:.8}#chart-03899ac2-6044-47f6-83c9-9143317e21ab .ci{stroke:rgba(0,0,0,.87)}#chart-03899ac2-6044-47f6-83c9-9143317e21ab .reactive.active,#chart-03899ac2-6044-47f6-83c9-9143317e21ab .active .reactive{fill-opacity:.8;stroke-opacity:.9;stroke-width:4}#chart-03899ac2-6044-47f6-83c9-9143317e21ab .ci .reactive.active{stroke-width:1.5}#chart-03899ac2-6044-47f6-83c9-9143317e21ab .series text{fill:rgba(0,0,0,1)}#chart-03899ac2-6044-47f6-83c9-9143317e21ab .tooltip rect{fill:rgba(255,255,255,1);stroke:rgba(0,0,0,1);-webkit-transition:opacity 150ms;-moz-transition:opacity 150ms;transition:opacity 150ms}#chart-03899ac2-6044-47f6-83c9-9143317e21ab .tooltip .label{fill:rgba(0,0,0,.87)}#chart-03899ac2-6044-47f6-83c9-9143317e21ab .tooltip .label{fill:rgba(0,0,0,.87)}#chart-03899ac2-6044-47f6-83c9-9143317e21ab .tooltip .legend{font-size:.8em;fill:rgba(0,0,0,.54)}#chart-03899ac2-6044-47f6-83c9-9143317e21ab .tooltip .x_label{font-size:.6em;fill:rgba(0,0,0,1)}#chart-03899ac2-6044-47f6-83c9-9143317e21ab .tooltip .xlink{font-size:.5em;text-decoration:underline}#chart-03899ac2-6044-47f6-83c9-9143317e21ab .tooltip .value{font-size:1.5em}#chart-03899ac2-6044-47f6-83c9-9143317e21ab .bound{font-size:.5em}#chart-03899ac2-6044-47f6-83c9-9143317e21ab .max-value{font-size:.75em;fill:rgba(0,0,0,.54)}#chart-03899ac2-6044-47f6-83c9-9143317e21ab .map-element{fill:rgba(255,255,255,1);stroke:rgba(0,0,0,.54) !important}#chart-03899ac2-6044-47f6-83c9-9143317e21ab .map-element .reactive{fill-opacity:inherit;stroke-opacity:inherit}#chart-03899ac2-6044-47f6-83c9-9143317e21ab .color-0,#chart-03899ac2-6044-47f6-83c9-9143317e21ab .color-0 a:visited{stroke:#909090;fill:#909090}#chart-03899ac2-6044-47f6-83c9-9143317e21ab .color-1,#chart-03899ac2-6044-47f6-83c9-9143317e21ab .color-1 a:visited{stroke:#000000;fill:#000000}#chart-03899ac2-6044-47f6-83c9-9143317e21ab .color-2,#chart-03899ac2-6044-47f6-83c9-9143317e21ab .color-2 a:visited{stroke:#ff0500;fill:#ff0500}#chart-03899ac2-6044-47f6-83c9-9143317e21ab .color-3,#chart-03899ac2-6044-47f6-83c9-9143317e21ab .color-3 a:visited{stroke:#323299;fill:#323299}#chart-03899ac2-6044-47f6-83c9-9143317e21ab .color-4,#chart-03899ac2-6044-47f6-83c9-9143317e21ab .color-4 a:visited{stroke:#a3413f;fill:#a3413f}#chart-03899ac2-6044-47f6-83c9-9143317e21ab .color-5,#chart-03899ac2-6044-47f6-83c9-9143317e21ab .color-5 a:visited{stroke:#a3413f;fill:#a3413f}#chart-03899ac2-6044-47f6-83c9-9143317e21ab .color-6,#chart-03899ac2-6044-47f6-83c9-9143317e21ab .color-6 a:visited{stroke:#a3413f;fill:#a3413f}#chart-03899ac2-6044-47f6-83c9-9143317e21ab .color-7,#chart-03899ac2-6044-47f6-83c9-9143317e21ab .color-7 a:visited{stroke:#a3413f;fill:#a3413f}#chart-03899ac2-6044-47f6-83c9-9143317e21ab .color-8,#chart-03899ac2-6044-47f6-83c9-9143317e21ab .color-8 a:visited{stroke:#a3413f;fill:#a3413f}#chart-03899ac2-6044-47f6-83c9-9143317e21ab .color-9,#chart-03899ac2-6044-47f6-83c9-9143317e21ab .color-9 a:visited{stroke:#657fff;fill:#657fff}#chart-03899ac2-6044-47f6-83c9-9143317e21ab .color-10,#chart-03899ac2-6044-47f6-83c9-9143317e21ab .color-10 a:visited{stroke:#657fff;fill:#657fff}#chart-03899ac2-6044-47f6-83c9-9143317e21ab .color-11,#chart-03899ac2-6044-47f6-83c9-9143317e21ab .color-11 a:visited{stroke:#657fff;fill:#657fff}#chart-03899ac2-6044-47f6-83c9-9143317e21ab .color-12,#chart-03899ac2-6044-47f6-83c9-9143317e21ab .color-12 a:visited{stroke:#657fff;fill:#657fff}#chart-03899ac2-6044-47f6-83c9-9143317e21ab .color-13,#chart-03899ac2-6044-47f6-83c9-9143317e21ab .color-13 a:visited{stroke:#657fff;fill:#657fff}#chart-03899ac2-6044-47f6-83c9-9143317e21ab .text-overlay .color-0 text{fill:black}#chart-03899ac2-6044-47f6-83c9-9143317e21ab .text-overlay .color-1 text{fill:white}#chart-03899ac2-6044-47f6-83c9-9143317e21ab .text-overlay .color-2 text{fill:black}#chart-03899ac2-6044-47f6-83c9-9143317e21ab .text-overlay .color-3 text{fill:black}#chart-03899ac2-6044-47f6-83c9-9143317e21ab .text-overlay .color-4 text{fill:black}#chart-03899ac2-6044-47f6-83c9-9143317e21ab .text-overlay .color-5 text{fill:black}#chart-03899ac2-6044-47f6-83c9-9143317e21ab .text-overlay .color-6 text{fill:black}#chart-03899ac2-6044-47f6-83c9-9143317e21ab .text-overlay .color-7 text{fill:black}#chart-03899ac2-6044-47f6-83c9-9143317e21ab .text-overlay .color-8 text{fill:black}#chart-03899ac2-6044-47f6-83c9-9143317e21ab .text-overlay .color-9 text{fill:black}#chart-03899ac2-6044-47f6-83c9-9143317e21ab .text-overlay .color-10 text{fill:black}#chart-03899ac2-6044-47f6-83c9-9143317e21ab .text-overlay .color-11 text{fill:black}#chart-03899ac2-6044-47f6-83c9-9143317e21ab .text-overlay .color-12 text{fill:black}#chart-03899ac2-6044-47f6-83c9-9143317e21ab .text-overlay .color-13 text{fill:black}#chart-03899ac2-6044-47f6-83c9-9143317e21ab .series.serie-1{stroke-width:5}#chart-03899ac2-6044-47f6-83c9-9143317e21ab .series.serie-2{stroke-width:3}#chart-03899ac2-6044-47f6-83c9-9143317e21ab .series.serie-3{stroke-width:3}#chart-03899ac2-6044-47f6-83c9-9143317e21ab .series.serie-4{stroke-width:2;stroke-dasharray:2,2}#chart-03899ac2-6044-47f6-83c9-9143317e21ab .series.serie-5{stroke-width:2;stroke-dasharray:2,2}#chart-03899ac2-6044-47f6-83c9-9143317e21ab .series.serie-6{stroke-width:2;stroke-dasharray:2,2}#chart-03899ac2-6044-47f6-83c9-9143317e21ab .series.serie-7{stroke-width:2;stroke-dasharray:2,2}#chart-03899ac2-6044-47f6-83c9-9143317e21ab .series.serie-8{stroke-width:2;stroke-dasharray:2,2}#chart-03899ac2-6044-47f6-83c9-9143317e21ab .series.serie-9{stroke-width:2;stroke-dasharray:2,2}#chart-03899ac2-6044-47f6-83c9-9143317e21ab .series.serie-10{stroke-width:2;stroke-dasharray:2,2}#chart-03899ac2-6044-47f6-83c9-9143317e21ab .series.serie-11{stroke-width:2;stroke-dasharray:2,2}#chart-03899ac2-6044-47f6-83c9-9143317e21ab .series.serie-12{stroke-width:2;stroke-dasharray:2,2}#chart-03899ac2-6044-47f6-83c9-9143317e21ab .series.serie-13{stroke-width:2;stroke-dasharray:2,2}
#chart-03899ac2-6044-47f6-83c9-9143317e21ab text.no_data{text-anchor:middle}#chart-03899ac2-6044-47f6-83c9-9143317e21ab .guide.line{fill:none}#chart-03899ac2-6044-47f6-83c9-9143317e21ab .centered{text-anchor:middle}#chart-03899ac2-6044-47f6-83c9-9143317e21ab .title{text-anchor:middle}#chart-03899ac2-6044-47f6-83c9-9143317e21ab .legends .legend text{fill-opacity:1}#chart-03899ac2-6044-47f6-83c9-9143317e21ab .axis.x text{text-anchor:middle}#chart-03899ac2-6044-47f6-83c9-9143317e21ab .axis.x:not(.web) text[transform]{text-anchor:start}#chart-03899ac2-6044-47f6-83c9-9143317e21ab .axis.x:not(.web) text[transform].backwards{text-anchor:end}#chart-03899ac2-6044-47f6-83c9-9143317e21ab .axis.y text{text-anchor:end}#chart-03899ac2-6044-47f6-83c9-9143317e21ab .axis.y text[transform].backwards{text-anchor:start}#chart-03899ac2-6044-47f6-83c9-9143317e21ab .axis.y2 text{text-anchor:start}#chart-03899ac2-6044-47f6-83c9-9143317e21ab .axis.y2 text[transform].backwards{text-anchor:end}#chart-03899ac2-6044-47f6-83c9-9143317e21ab .axis .guide.line{stroke-dasharray:4,4}#chart-03899ac2-6044-47f6-83c9-9143317e21ab .axis .major.guide.line{stroke-dasharray:6,6}#chart-03899ac2-6044-47f6-83c9-9143317e21ab .horizontal .axis.y .guide.line,#chart-03899ac2-6044-47f6-83c9-9143317e21ab .horizontal .axis.y2 .guide.line,#chart-03899ac2-6044-47f6-83c9-9143317e21ab .vertical .axis.x .guide.line{opacity:0}#chart-03899ac2-6044-47f6-83c9-9143317e21ab .horizontal .axis.always_show .guide.line,#chart-03899ac2-6044-47f6-83c9-9143317e21ab .vertical .axis.always_show .guide.line{opacity:1 !important}#chart-03899ac2-6044-47f6-83c9-9143317e21ab .axis.y .guides:hover .guide.line,#chart-03899ac2-6044-47f6-83c9-9143317e21ab .axis.y2 .guides:hover .guide.line,#chart-03899ac2-6044-47f6-83c9-9143317e21ab .axis.x .guides:hover .guide.line{opacity:1}#chart-03899ac2-6044-47f6-83c9-9143317e21ab .axis .guides:hover text{opacity:1}#chart-03899ac2-6044-47f6-83c9-9143317e21ab .nofill{fill:none}#chart-03899ac2-6044-47f6-83c9-9143317e21ab .subtle-fill{fill-opacity:.2}#chart-03899ac2-6044-47f6-83c9-9143317e21ab .dot{stroke-width:1px;fill-opacity:1}#chart-03899ac2-6044-47f6-83c9-9143317e21ab .dot.active{stroke-width:5px}#chart-03899ac2-6044-47f6-83c9-9143317e21ab .dot.negative{fill:transparent}#chart-03899ac2-6044-47f6-83c9-9143317e21ab text,#chart-03899ac2-6044-47f6-83c9-9143317e21ab tspan{stroke:none !important}#chart-03899ac2-6044-47f6-83c9-9143317e21ab .series text.active{opacity:1}#chart-03899ac2-6044-47f6-83c9-9143317e21ab .tooltip rect{fill-opacity:.95;stroke-width:.5}#chart-03899ac2-6044-47f6-83c9-9143317e21ab .tooltip text{fill-opacity:1}#chart-03899ac2-6044-47f6-83c9-9143317e21ab .showable{visibility:hidden}#chart-03899ac2-6044-47f6-83c9-9143317e21ab .showable.shown{visibility:visible}#chart-03899ac2-6044-47f6-83c9-9143317e21ab .gauge-background{fill:rgba(229,229,229,1);stroke:none}#chart-03899ac2-6044-47f6-83c9-9143317e21ab .bg-lines{stroke:rgba(249,249,249,1);stroke-width:2px}</style><script type="text/javascript">window.pygal = window.pygal || {};window.pygal.config = window.pygal.config || {};window.pygal.config['03899ac2-6044-47f6-83c9-9143317e21ab'] = {"disable_xml_declaration": false, "css": ["file://style.css", "file://graph.css"], "show_y_labels": true, "show_y_guides": true, "stroke": true, "force_uri_protocol": "https", "legend_at_bottom": false, "truncate_legend": null, "tooltip_border_radius": 0, "explicit_size": false, "show_dots": false, "inverse_y_axis": false, "x_label_rotation": 60, "margin_left": null, "box_mode": "extremes", "zero": 0, "no_data_text": "No data", "show_legend": true, "legend_at_bottom_columns": null, "logarithmic": false, "order_min": null, "height": 600, "y_title": "Density", "range": [0, 0.27578580090479526], "stroke_style": null, "rounded_bars": null, "print_values_position": "center", "xrange": null, "y_label_rotation": 0, "defs": [], "y_labels_major_count": null, "no_prefix": false, "pretty_print": false, "dots_size": 2.5, "half_pie": false, "secondary_range": null, "x_labels_major_count": null, "interpolation_precision": 250, "interpolate": null, "truncate_label": null, "margin_right": null, "x_labels_major_every": 2, "x_labels": ["-8.96", "-8.76", "-8.56", "-8.36", "-8.16", "-7.96", "-7.76", "-7.56", "-7.36", "-7.16", "-6.96", "-6.76", "-6.56", "-6.36", "-6.16", "-5.96", "-5.76", "-5.56", "-5.36", "-5.16", "-4.96", "-4.76", "-4.56", "-4.36", "-4.16", "-3.96", "-3.76", "-3.56", "-3.36", "-3.16", "-2.96", "-2.76", "-2.56", "-2.36", "-2.16", "-1.96", "-1.76", "-1.56", "-1.36", "-1.16", "-0.96", "-0.76", "-0.56", "-0.36", "-0.16", "0.04", "0.24", "0.44", "0.64", "0.84", "1.04", "1.24", "1.43", "1.63", "1.83", "2.03", "2.23", "2.43", "2.63", "2.83"], "include_x_axis": false, "width": 800, "show_x_guides": false, "formatter": null, "show_minor_x_labels": false, "spacing": 10, "stack_from_top": false, "legend_box_size": 12, "strict": false, "classes": ["pygal-chart"], "js": ["//kozea.github.io/pygal.js/2.0.x/pygal-tooltips.min.js"], "show_x_labels": true, "x_title": "Observation", "print_values": false, "title": "Iteration #13", "dynamic_print_values": false, "max_scale": 16, "margin": 20, "legends": ["Data", "GMM", "i=0", "i=1", "i=0 k=0", "i=0 k=1", "i=0 k=2", "i=0 k=3", "i=0 k=4", "i=1 k=0", "i=1 k=1", "i=1 k=2", "i=1 k=3", "i=1 k=4"], "interpolation_parameters": {}, "allow_interruptions": false, "min_scale": 4, "style": {"transition": "150ms", "label_font_size": 10, "major_label_font_size": 10, "value_colors": [], "title_font_family": "Consolas, \"Liberation Mono\", Menlo, Courier, monospace", "value_font_family": "Consolas, \"Liberation Mono\", Menlo, Courier, monospace", "no_data_font_size": 64, "guide_stroke_dasharray": "4,4", "tooltip_font_size": 14, "tooltip_font_family": "Consolas, \"Liberation Mono\", Menlo, Courier, monospace", "background": "rgba(249, 249, 249, 1)", "value_label_font_family": "Consolas, \"Liberation Mono\", Menlo, Courier, monospace", "stroke_opacity_hover": ".9", "ci_colors": [], "value_font_size": 16, "plot_background": "rgba(255, 255, 255, 1)", "label_font_family": "Consolas, \"Liberation Mono\", Menlo, Courier, monospace", "foreground": "rgba(0, 0, 0, .87)", "major_label_font_family": "Consolas, \"Liberation Mono\", Menlo, Courier, monospace", "stroke_opacity": ".8", "colors": ["#909090", "#000000", "#ff0500", "#323299", "#a3413f", "#a3413f", "#a3413f", "#a3413f", "#a3413f", "#657fff", "#657fff", "#657fff", "#657fff", "#657fff"], "value_label_font_size": 10, "value_background": "rgba(229, 229, 229, 1)", "no_data_font_family": "Consolas, \"Liberation Mono\", Menlo, Courier, monospace", "legend_font_size": 10, "foreground_strong": "rgba(0, 0, 0, 1)", "legend_font_family": "Consolas, \"Liberation Mono\", Menlo, Courier, monospace", "title_font_size": 16, "foreground_subtle": "rgba(0, 0, 0, .54)", "major_guide_stroke_dasharray": "6,6", "font_family": "Consolas, \"Liberation Mono\", Menlo, Courier, monospace", "opacity_hover": ".8", "opacity": ".7"}, "margin_top": null, "x_labels_major": null, "print_zeroes": true, "y_labels": null, "fill": false, "y_labels_major_every": null, "inner_radius": 0, "margin_bottom": null, "show_only_major_dots": false, "missing_value_fill_truncation": "x", "y_labels_major": null, "tooltip_fancy_mode": true, "show_minor_y_labels": true, "print_labels": false}</script><script type="text/javascript" xlink:href="https://kozea.github.io/pygal.js/2.0.x/pygal-tooltips.min.js" /></defs><title>Iteration #13</title><g class="graph line-graph vertical"><rect class="background" height="600" width="800" x="0" y="0" /><g class="plot" transform="translate(144, 46)"><rect class="background" height="472.01923788646684" width="636.0" x="0" y="0" /><g class="axis y always_show"><g class="guides"><path class="axis major line" d="M0.000000 462.941945 h636.000000" /><text class="major" x="-5" y="466.44194485">0</text><title>0</title></g><g class="guides"><path class="guide line" d="M0.000000 430.027658 h636.000000" /><text class="" x="-5" y="433.527657724">0.02</text><title>0.02</title></g><g class="guides"><path class="guide line" d="M0.000000 397.113371 h636.000000" /><text class="" x="-5" y="400.613370598">0.04</text><title>0.04</title></g><g class="guides"><path class="guide line" d="M0.000000 364.199083 h636.000000" /><text class="" x="-5" y="367.699083472">0.06</text><title>0.06</title></g><g class="guides"><path class="guide line" d="M0.000000 331.284796 h636.000000" /><text class="" x="-5" y="334.784796346">0.08</text><title>0.08</title></g><g class="guides"><path class="guide line" d="M0.000000 298.370509 h636.000000" /><text class="" x="-5" y="301.87050922">0.1</text><title>0.1</title></g><g class="guides"><path class="guide line" d="M0.000000 265.456222 h636.000000" /><text class="" x="-5" y="268.956222094">0.12</text><title>0.12</title></g><g class="guides"><path class="guide line" d="M0.000000 232.541935 h636.000000" /><text class="" x="-5" y="236.041934968">0.14</text><title>0.14</title></g><g class="guides"><path class="guide line" d="M0.000000 199.627648 h636.000000" /><text class="" x="-5" y="203.127647841">0.16</text><title>0.16</title></g><g class="guides"><path class="guide line" d="M0.000000 166.713361 h636.000000" /><text class="" x="-5" y="170.213360715">0.18</text><title>0.18</title></g><g class="guides"><path class="guide line" d="M0.000000 133.799074 h636.000000" /><text class="" x="-5" y="137.299073589">0.2</text><title>0.2</title></g><g class="guides"><path class="guide line" d="M0.000000 100.884786 h636.000000" /><text class="" x="-5" y="104.384786463">0.22</text><title>0.22</title></g><g class="guides"><path class="guide line" d="M0.000000 67.970499 h636.000000" /><text class="" x="-5" y="71.4704993371">0.24</text><title>0.24</title></g><g class="guides"><path class="guide line" d="M0.000000 35.056212 h636.000000" /><text class="" x="-5" y="38.5562122111">0.26</text><title>0.26</title></g></g><g class="axis x"><g class="guides"><path class="major line" d="M12.230769 0.000000 v472.019238" /><text class="major" transform="rotate(60 12.230769 487.019238)" x="12.230769230769232" y="487.01923788646684">-8.96</text></g><g class="guides"><path class="major guide line" d="M32.960887 0.000000 v472.019238" /><text class="major" transform="rotate(60 32.960887 487.019238)" x="32.96088657105606" y="487.01923788646684">-8.56</text></g><g class="guides"><path class="major guide line" d="M53.691004 0.000000 v472.019238" /><text class="major" transform="rotate(60 53.691004 487.019238)" x="53.6910039113429" y="487.01923788646684">-8.16</text></g><g class="guides"><path class="major guide line" d="M74.421121 0.000000 v472.019238" /><text class="major" transform="rotate(60 74.421121 487.019238)" x="74.42112125162973" y="487.01923788646684">-7.76</text></g><g class="guides"><path class="major guide line" d="M95.151239 0.000000 v472.019238" /><text class="major" transform="rotate(60 95.151239 487.019238)" x="95.15123859191655" y="487.01923788646684">-7.36</text></g><g class="guides"><path class="major guide line" d="M115.881356 0.000000 v472.019238" /><text class="major" transform="rotate(60 115.881356 487.019238)" x="115.88135593220338" y="487.01923788646684">-6.96</text></g><g class="guides"><path class="major guide line" d="M136.611473 0.000000 v472.019238" /><text class="major" transform="rotate(60 136.611473 487.019238)" x="136.61147327249023" y="487.01923788646684">-6.56</text></g><g class="guides"><path class="major guide line" d="M157.341591 0.000000 v472.019238" /><text class="major" transform="rotate(60 157.341591 487.019238)" x="157.34159061277705" y="487.01923788646684">-6.16</text></g><g class="guides"><path class="major guide line" d="M178.071708 0.000000 v472.019238" /><text class="major" transform="rotate(60 178.071708 487.019238)" x="178.0717079530639" y="487.01923788646684">-5.76</text></g><g class="guides"><path class="major guide line" d="M198.801825 0.000000 v472.019238" /><text class="major" transform="rotate(60 198.801825 487.019238)" x="198.80182529335073" y="487.01923788646684">-5.36</text></g><g class="guides"><path class="major guide line" d="M219.531943 0.000000 v472.019238" /><text class="major" transform="rotate(60 219.531943 487.019238)" x="219.53194263363756" y="487.01923788646684">-4.96</text></g><g class="guides"><path class="major guide line" d="M240.262060 0.000000 v472.019238" /><text class="major" transform="rotate(60 240.262060 487.019238)" x="240.2620599739244" y="487.01923788646684">-4.56</text></g><g class="guides"><path class="major guide line" d="M260.992177 0.000000 v472.019238" /><text class="major" transform="rotate(60 260.992177 487.019238)" x="260.99217731421123" y="487.01923788646684">-4.16</text></g><g class="guides"><path class="major guide line" d="M281.722295 0.000000 v472.019238" /><text class="major" transform="rotate(60 281.722295 487.019238)" x="281.722294654498" y="487.01923788646684">-3.76</text></g><g class="guides"><path class="major guide line" d="M302.452412 0.000000 v472.019238" /><text class="major" transform="rotate(60 302.452412 487.019238)" x="302.4524119947849" y="487.01923788646684">-3.36</text></g><g class="guides"><path class="major guide line" d="M323.182529 0.000000 v472.019238" /><text class="major" transform="rotate(60 323.182529 487.019238)" x="323.1825293350717" y="487.01923788646684">-2.96</text></g><g class="guides"><path class="major guide line" d="M343.912647 0.000000 v472.019238" /><text class="major" transform="rotate(60 343.912647 487.019238)" x="343.91264667535853" y="487.01923788646684">-2.56</text></g><g class="guides"><path class="major guide line" d="M364.642764 0.000000 v472.019238" /><text class="major" transform="rotate(60 364.642764 487.019238)" x="364.64276401564535" y="487.01923788646684">-2.16</text></g><g class="guides"><path class="major guide line" d="M385.372881 0.000000 v472.019238" /><text class="major" transform="rotate(60 385.372881 487.019238)" x="385.37288135593224" y="487.01923788646684">-1.76</text></g><g class="guides"><path class="major guide line" d="M406.102999 0.000000 v472.019238" /><text class="major" transform="rotate(60 406.102999 487.019238)" x="406.102998696219" y="487.01923788646684">-1.36</text></g><g class="guides"><path class="major guide line" d="M426.833116 0.000000 v472.019238" /><text class="major" transform="rotate(60 426.833116 487.019238)" x="426.8331160365058" y="487.01923788646684">-0.96</text></g><g class="guides"><path class="major guide line" d="M447.563233 0.000000 v472.019238" /><text class="major" transform="rotate(60 447.563233 487.019238)" x="447.56323337679265" y="487.01923788646684">-0.56</text></g><g class="guides"><path class="major guide line" d="M468.293351 0.000000 v472.019238" /><text class="major" transform="rotate(60 468.293351 487.019238)" x="468.29335071707953" y="487.01923788646684">-0.16</text></g><g class="guides"><path class="major guide line" d="M489.023468 0.000000 v472.019238" /><text class="major" transform="rotate(60 489.023468 487.019238)" x="489.02346805736636" y="487.01923788646684">0.24</text></g><g class="guides"><path class="major guide line" d="M509.753585 0.000000 v472.019238" /><text class="major" transform="rotate(60 509.753585 487.019238)" x="509.75358539765324" y="487.01923788646684">0.64</text></g><g class="guides"><path class="major guide line" d="M530.483703 0.000000 v472.019238" /><text class="major" transform="rotate(60 530.483703 487.019238)" x="530.48370273794" y="487.01923788646684">1.04</text></g><g class="guides"><path class="major guide line" d="M551.213820 0.000000 v472.019238" /><text class="major" transform="rotate(60 551.213820 487.019238)" x="551.213820078227" y="487.01923788646684">1.43</text></g><g class="guides"><path class="major guide line" d="M571.943937 0.000000 v472.019238" /><text class="major" transform="rotate(60 571.943937 487.019238)" x="571.9439374185138" y="487.01923788646684">1.83</text></g><g class="guides"><path class="major guide line" d="M592.674055 0.000000 v472.019238" /><text class="major" transform="rotate(60 592.674055 487.019238)" x="592.6740547588006" y="487.01923788646684">2.23</text></g><g class="guides"><path class="major guide line" d="M613.404172 0.000000 v472.019238" /><text class="major" transform="rotate(60 613.404172 487.019238)" x="613.4041720990874" y="487.01923788646684">2.63</text></g></g><g class="series serie-0 color-0"><path class="line reactive" d="M12.230769 462.941945 L12.230769 462.019456 22.595828 462.941945 32.960887 461.096967 43.325945 462.019456 53.691004 459.251988 64.056063 462.019456 74.421121 458.329499 84.786180 462.019456 95.151239 458.329499 105.516297 462.019456 115.881356 448.182119 126.246415 460.174477 136.611473 457.407010 146.976532 457.407010 157.341591 451.872075 167.706649 448.182119 178.071708 454.639543 188.436767 445.414651 198.801825 442.647184 209.166884 436.189760 219.531943 437.112249 229.897001 392.832771 240.262060 396.522728 250.627119 376.227967 260.992177 355.933206 271.357236 351.320760 281.722295 325.491065 292.087353 277.521630 302.452412 283.056565 312.817471 202.800010 323.182529 188.040184 333.547588 169.590402 343.912647 123.465945 354.277705 95.791271 364.642764 67.194108 375.007823 82.876423 385.372881 60.736684 395.737940 80.108956 406.102999 29.372054 416.468057 9.077293 426.833116 70.884065 437.198175 69.039086 447.563233 41.364413 457.928292 40.441923 468.293351 91.178826 478.658409 140.993239 489.023468 214.792369 499.388527 259.071847 509.753585 321.801108 520.118644 364.235608 530.483703 408.515086 540.848761 430.654825 551.213820 448.182119 561.578879 455.562032 571.943937 458.329499 582.308996 458.329499 592.674055 462.019456 603.039113 462.941945 613.404172 462.019456 623.769231 462.941945" /></g><g class="series serie-1 color-1"><path class="line reactive nofill" d="M12.230769 462.908193 L22.595828 462.883786 32.960887 462.843665 43.325945 462.779074 53.691004 462.677246 64.056063 462.520062 74.421121 462.282525 84.786180 461.931151 95.151239 461.422469 105.516297 460.701905 115.881356 459.703412 126.246415 458.350261 136.611473 456.557427 146.976532 454.235905 157.341591 451.299083 167.706649 447.670828 178.071708 443.294173 188.436767 438.138163 198.801825 432.198466 209.166884 425.485017 219.531943 417.988374 229.897001 409.618363 240.262060 400.117532 250.627119 388.970442 260.992177 375.354309 271.357236 358.194416 281.722295 336.379912 292.087353 309.147430 302.452412 276.554718 312.817471 239.870167 323.182529 201.643565 333.547588 165.265101 343.912647 134.020903 354.277705 109.963140 364.642764 93.126172 375.007823 81.609172 385.372881 72.850116 395.737940 65.655762 406.102999 60.982935 416.468057 59.539875 426.833116 58.620820 437.198175 53.862047 447.563233 45.924603 457.928292 43.910021 468.293351 60.068919 478.658409 100.759036 489.023468 162.093814 499.388527 232.774850 509.753585 300.360634 520.118644 356.257462 530.483703 397.320482 540.848761 424.676059 551.213820 441.516043 561.578879 451.273955 571.943937 456.692929 582.308996 459.624385 592.674055 461.188920 603.039113 462.019347 613.404172 462.459159 623.769231 462.691499" /></g><g class="series serie-2 color-2"><path class="line reactive nofill" d="M12.230769 462.941945 L22.595828 462.941945 32.960887 462.941945 43.325945 462.941945 53.691004 462.941945 64.056063 462.941945 74.421121 462.941945 84.786180 462.941945 95.151239 462.941945 105.516297 462.941945 115.881356 462.941945 126.246415 462.941945 136.611473 462.941945 146.976532 462.941945 157.341591 462.941945 167.706649 462.941945 178.071708 462.941945 188.436767 462.941944 198.801825 462.941943 209.166884 462.941940 219.531943 462.941929 229.897001 462.941901 240.262060 462.941824 250.627119 462.941619 260.992177 462.941087 271.357236 462.939738 281.722295 462.936372 292.087353 462.928099 302.452412 462.907969 312.817471 462.859321 323.182529 462.742287 333.547588 462.462476 343.912647 461.802269 354.277705 460.283993 364.642764 456.934905 375.007823 449.967900 385.372881 436.516276 395.737940 412.753254 406.102999 374.844654 416.468057 320.956163 426.833116 253.796329 437.198175 182.234433 447.563233 120.258190 457.928292 82.692748 468.293351 79.314313 478.658409 110.581326 489.023468 167.577570 499.388527 236.133656 509.753585 302.532711 520.118644 357.686744 530.483703 398.257678 540.848761 425.282652 551.213820 441.902061 561.578879 451.515097 571.943937 456.840712 582.308996 459.713216 592.674055 461.241286 603.039113 462.049621 613.404172 462.476323 623.769231 462.701042" /></g><g class="series serie-3 color-3"><path class="line reactive nofill" d="M12.230769 462.908193 L22.595828 462.883786 32.960887 462.843665 43.325945 462.779074 53.691004 462.677246 64.056063 462.520062 74.421121 462.282525 84.786180 461.931151 95.151239 461.422469 105.516297 460.701905 115.881356 459.703412 126.246415 458.350261 136.611473 456.557427 146.976532 454.235905 157.341591 451.299083 167.706649 447.670828 178.071708 443.294174 188.436767 438.138164 198.801825 432.198468 209.166884 425.485022 219.531943 417.988390 229.897001 409.618407 240.262060 400.117653 250.627119 388.970769 260.992177 375.355167 271.357236 358.196623 281.722295 336.385485 292.087353 309.161276 302.452412 276.588694 312.817471 239.952791 323.182529 201.843223 333.547588 165.744570 343.912647 135.160578 354.277705 112.621092 364.642764 99.133212 375.007823 94.583216 385.372881 99.275785 395.737940 115.844453 406.102999 149.080226 416.468057 201.525657 426.833116 267.766435 437.198175 334.569559 447.563233 388.608358 457.928292 424.159218 468.293351 443.696551 478.658409 453.119655 489.023468 457.458189 499.388527 459.583139 509.753585 460.769868 520.118644 461.512663 530.483703 462.004748 540.848761 462.335352 551.213820 462.555928 561.578879 462.700803 571.943937 462.794162 582.308996 462.853114 592.674055 462.889579 603.039113 462.911671 613.404172 462.924781 623.769231 462.932401" /></g><g class="series serie-4 color-4"><path class="line reactive nofill" d="M12.230769 462.941945 L22.595828 462.941945 32.960887 462.941945 43.325945 462.941945 53.691004 462.941945 64.056063 462.941945 74.421121 462.941945 84.786180 462.941945 95.151239 462.941945 105.516297 462.941945 115.881356 462.941945 126.246415 462.941945 136.611473 462.941945 146.976532 462.941945 157.341591 462.941945 167.706649 462.941945 178.071708 462.941945 188.436767 462.941945 198.801825 462.941945 209.166884 462.941945 219.531943 462.941945 229.897001 462.941945 240.262060 462.941945 250.627119 462.941945 260.992177 462.941944 271.357236 462.941942 281.722295 462.941925 292.087353 462.941824 302.452412 462.941273 312.817471 462.938591 323.182529 462.926905 333.547588 462.881391 343.912647 462.723055 354.277705 462.231560 364.642764 460.872074 375.007823 457.527251 385.372881 450.224904 395.737940 436.126831 406.102999 412.178088 416.468057 376.661776 426.833116 331.283487 437.198175 282.570434 447.563233 241.087298 457.928292 217.950724 468.293351 220.049550 478.658409 246.740438 489.023468 290.165346 499.388527 338.978816 509.753585 383.090727 520.118644 416.762154 530.483703 438.964451 540.848761 451.764642 551.213820 458.264037 561.578879 461.184233 571.943937 462.348985 582.308996 462.762354 592.674055 462.893111 603.039113 462.930023 613.404172 462.939332 623.769231 462.941431" /></g><g class="series serie-5 color-5"><path class="line reactive nofill" d="M12.230769 462.941945 L22.595828 462.941945 32.960887 462.941945 43.325945 462.941945 53.691004 462.941945 64.056063 462.941945 74.421121 462.941945 84.786180 462.941945 95.151239 462.941945 105.516297 462.941945 115.881356 462.941945 126.246415 462.941945 136.611473 462.941945 146.976532 462.941945 157.341591 462.941945 167.706649 462.941945 178.071708 462.941945 188.436767 462.941945 198.801825 462.941945 209.166884 462.941945 219.531943 462.941945 229.897001 462.941945 240.262060 462.941944 250.627119 462.941942 260.992177 462.941933 271.357236 462.941887 281.722295 462.941692 292.087353 462.940923 302.452412 462.938128 312.817471 462.928788 323.182529 462.900095 333.547588 462.819083 343.912647 462.609055 354.277705 462.109512 364.642764 461.020796 375.007823 458.849939 385.372881 454.897888 395.737940 448.347836 406.102999 438.505185 416.468057 425.178359 426.833116 409.081938 437.198175 392.045712 447.563233 376.814120 457.928292 366.375250 468.293351 363.016789 478.658409 367.511737 489.023468 378.829458 499.388527 394.519490 509.753585 411.573029 520.118644 427.348852 530.483703 440.180773 540.848761 449.508510 551.213820 455.624775 561.578879 459.263513 571.943937 461.235289 582.308996 462.211155 592.674055 462.653141 603.039113 462.836609 613.404172 462.906487 623.769231 462.930929" /></g><g class="series serie-6 color-6"><path class="line reactive nofill" d="M12.230769 462.941945 L22.595828 462.941945 32.960887 462.941945 43.325945 462.941945 53.691004 462.941945 64.056063 462.941945 74.421121 462.941945 84.786180 462.941945 95.151239 462.941945 105.516297 462.941945 115.881356 462.941945 126.246415 462.941945 136.611473 462.941945 146.976532 462.941945 157.341591 462.941945 167.706649 462.941945 178.071708 462.941945 188.436767 462.941945 198.801825 462.941945 209.166884 462.941945 219.531943 462.941944 229.897001 462.941942 240.262060 462.941932 250.627119 462.941899 260.992177 462.941788 271.357236 462.941438 281.722295 462.940401 292.087353 462.937512 302.452412 462.929951 312.817471 462.911356 323.182529 462.868418 333.547588 462.775368 343.912647 462.586258 354.277705 462.226127 364.642764 461.584193 375.007823 460.514659 385.372881 458.852123 395.737940 456.447073 406.102999 453.220751 416.468057 449.228345 426.833116 444.708608 437.198175 440.093132 447.563233 435.955606 457.928292 432.901449 468.293351 431.424351 478.658409 431.775890 489.023468 433.895470 499.388527 437.427398 509.753585 441.818483 520.118644 446.459366 530.483703 450.820119 540.848761 454.539731 551.213820 457.452831 561.578879 459.562125 571.943937 460.980538 582.308996 461.869130 592.674055 462.388895 603.039113 462.673233 613.404172 462.818892 623.769231 462.888834" /></g><g class="series serie-7 color-7"><path class="line reactive nofill" d="M12.230769 462.941945 L22.595828 462.941945 32.960887 462.941945 43.325945 462.941945 53.691004 462.941945 64.056063 462.941945 74.421121 462.941945 84.786180 462.941945 95.151239 462.941945 105.516297 462.941945 115.881356 462.941945 126.246415 462.941945 136.611473 462.941945 146.976532 462.941945 157.341591 462.941945 167.706649 462.941945 178.071708 462.941945 188.436767 462.941945 198.801825 462.941944 209.166884 462.941942 219.531943 462.941937 229.897001 462.941922 240.262060 462.941881 250.627119 462.941773 260.992177 462.941500 271.357236 462.940843 281.722295 462.939331 292.087353 462.936015 302.452412 462.929073 312.817471 462.915210 323.182529 462.888818 333.547588 462.840931 343.912647 462.758181 354.277705 462.622087 364.642764 462.409261 375.007823 462.093159 385.372881 461.647919 395.737940 461.054371 406.102999 460.307546 416.468057 459.424112 426.833116 458.447406 437.198175 457.447657 447.563233 456.515749 457.928292 455.750557 468.293351 455.241997 478.658409 455.053723 489.023468 455.210036 499.388527 455.690733 509.753585 456.435395 520.118644 457.355865 530.483703 458.353349 540.848761 459.335587 551.213820 460.230043 561.578879 460.990773 571.943937 461.598768 582.308996 462.057263 592.674055 462.384428 603.039113 462.605786 613.404172 462.748014 623.769231 462.834900" /></g><g class="series serie-8 color-8"><path class="line reactive nofill" d="M12.230769 462.941945 L22.595828 462.941945 32.960887 462.941945 43.325945 462.941945 53.691004 462.941945 64.056063 462.941945 74.421121 462.941945 84.786180 462.941945 95.151239 462.941945 105.516297 462.941945 115.881356 462.941945 126.246415 462.941945 136.611473 462.941945 146.976532 462.941945 157.341591 462.941945 167.706649 462.941945 178.071708 462.941945 188.436767 462.941945 198.801825 462.941944 209.166884 462.941942 219.531943 462.941938 229.897001 462.941927 240.262060 462.941900 250.627119 462.941838 260.992177 462.941701 271.357236 462.941407 281.722295 462.940802 292.087353 462.939604 302.452412 462.937323 312.817471 462.933154 323.182529 462.925831 333.547588 462.913483 343.912647 462.893500 354.277705 462.862487 364.642764 462.816359 375.007823 462.750672 385.372881 462.661222 395.737940 462.544923 406.102999 462.400863 416.468057 462.231350 426.833116 462.042670 437.198175 461.845278 447.563233 461.653195 457.928292 461.482547 468.293351 461.349406 478.658409 461.267318 489.023468 461.245040 499.388527 461.284998 509.753585 461.382856 520.118644 461.528286 530.483703 461.706766 540.848761 461.901961 551.213820 462.098154 561.578879 462.282233 571.943937 462.444912 582.308996 462.581094 592.674055 462.689491 603.039113 462.771750 613.404172 462.831378 623.769231 462.872728" /></g><g class="series serie-9 color-9"><path class="line reactive nofill" d="M12.230769 462.941945 L22.595828 462.941945 32.960887 462.941945 43.325945 462.941945 53.691004 462.941945 64.056063 462.941945 74.421121 462.941945 84.786180 462.941945 95.151239 462.941945 105.516297 462.941945 115.881356 462.941945 126.246415 462.941945 136.611473 462.941945 146.976532 462.941945 157.341591 462.941945 167.706649 462.941945 178.071708 462.941945 188.436767 462.941945 198.801825 462.941945 209.166884 462.941945 219.531943 462.941945 229.897001 462.941945 240.262060 462.941945 250.627119 462.941945 260.992177 462.941945 271.357236 462.941945 281.722295 462.941945 292.087353 462.941939 302.452412 462.941865 312.817471 462.941081 323.182529 462.934491 333.547588 462.890736 343.912647 462.661909 354.277705 461.722931 364.642764 458.717892 375.007823 451.290626 385.372881 437.359267 395.737940 418.228096 406.102999 400.731507 416.468057 394.043469 426.833116 402.201059 437.198175 420.315631 447.563233 439.129741 457.928292 452.353150 468.293351 459.193780 478.658409 461.885818 489.023468 462.705059 499.388527 462.899650 509.753585 462.935934 520.118644 462.941265 530.483703 462.941884 540.848761 462.941940 551.213820 462.941945 561.578879 462.941945 571.943937 462.941945 582.308996 462.941945 592.674055 462.941945 603.039113 462.941945 613.404172 462.941945 623.769231 462.941945" /></g><g class="series serie-10 color-10"><path class="line reactive nofill" d="M12.230769 462.941945 L22.595828 462.941945 32.960887 462.941945 43.325945 462.941945 53.691004 462.941945 64.056063 462.941945 74.421121 462.941945 84.786180 462.941945 95.151239 462.941945 105.516297 462.941945 115.881356 462.941945 126.246415 462.941945 136.611473 462.941945 146.976532 462.941945 157.341591 462.941945 167.706649 462.941945 178.071708 462.941945 188.436767 462.941945 198.801825 462.941945 209.166884 462.941945 219.531943 462.941945 229.897001 462.941945 240.262060 462.941943 250.627119 462.941930 260.992177 462.941821 271.357236 462.941074 281.722295 462.936697 292.087353 462.914748 302.452412 462.820759 312.817471 462.477659 323.182529 461.412563 333.547588 458.610378 343.912647 452.393880 354.277705 440.856852 364.642764 423.183964 375.007823 401.403280 385.372881 381.044476 395.737940 369.230734 406.102999 370.746115 416.468057 384.953606 426.833116 406.220574 437.198175 427.471844 447.563233 443.870799 457.928292 454.125575 468.293351 459.437643 478.658409 461.744345 489.023468 462.590044 499.388527 462.853039 509.753585 462.922633 520.118644 462.938338 530.483703 462.941366 540.848761 462.941865 551.213820 462.941935 561.578879 462.941944 571.943937 462.941945 582.308996 462.941945 592.674055 462.941945 603.039113 462.941945 613.404172 462.941945 623.769231 462.941945" /></g><g class="series serie-11 color-11"><path class="line reactive nofill" d="M12.230769 462.941945 L22.595828 462.941945 32.960887 462.941945 43.325945 462.941945 53.691004 462.941945 64.056063 462.941945 74.421121 462.941945 84.786180 462.941945 95.151239 462.941945 105.516297 462.941945 115.881356 462.941945 126.246415 462.941945 136.611473 462.941945 146.976532 462.941945 157.341591 462.941945 167.706649 462.941943 178.071708 462.941937 188.436767 462.941901 198.801825 462.941728 209.166884 462.940965 219.531943 462.937906 229.897001 462.926747 240.262060 462.889766 250.627119 462.778483 260.992177 462.474702 271.357236 461.723309 281.722295 460.041870 292.087353 456.644725 302.452412 450.465448 312.817471 440.387060 323.182529 425.737681 333.547588 406.946980 343.912647 386.044943 354.277705 366.587003 364.642764 352.777172 375.007823 348.016643 385.372881 353.548141 395.737940 367.930931 406.102999 387.648123 416.468057 408.498087 426.833116 427.021426 437.198175 441.317724 447.563233 451.063967 457.928292 456.988769 468.293351 460.219500 478.658409 461.805957 489.023468 462.509439 499.388527 462.791695 509.753585 462.894319 520.118644 462.928170 530.483703 462.938310 540.848761 462.941070 551.213820 462.941753 561.578879 462.941906 571.943937 462.941938 582.308996 462.941944 592.674055 462.941945 603.039113 462.941945 613.404172 462.941945 623.769231 462.941945" /></g><g class="series serie-12 color-12"><path class="line reactive nofill" d="M12.230769 462.941945 L22.595828 462.941945 32.960887 462.941945 43.325945 462.941945 53.691004 462.941945 64.056063 462.941945 74.421121 462.941945 84.786180 462.941945 95.151239 462.941945 105.516297 462.941944 115.881356 462.941942 126.246415 462.941931 136.611473 462.941881 146.976532 462.941681 157.341591 462.940924 167.706649 462.938272 178.071708 462.929658 188.436767 462.903706 198.801825 462.831237 209.166884 462.643784 219.531943 462.194932 229.897001 461.200910 240.262060 459.167182 250.627119 455.328613 260.992177 448.657523 271.357236 438.010163 281.722295 422.461359 292.087353 401.799464 302.452412 377.032263 312.817471 350.651199 323.182529 326.405492 333.547588 308.503272 343.912647 300.437104 354.277705 303.875220 364.642764 318.099724 375.007823 340.250635 385.372881 366.262259 395.737940 392.072431 406.102999 414.615320 416.468057 432.285889 426.833116 444.851515 437.198175 453.011143 447.563233 457.870608 457.928292 460.532797 468.293351 461.877294 478.658409 462.504268 489.023468 462.774565 499.388527 462.882398 509.753585 462.922238 520.118644 462.935878 530.483703 462.940207 540.848761 462.941482 551.213820 462.941830 561.578879 462.941918 571.943937 462.941939 582.308996 462.941944 592.674055 462.941945 603.039113 462.941945 613.404172 462.941945 623.769231 462.941945" /></g><g class="series serie-13 color-13"><path class="line reactive nofill" d="M12.230769 462.908193 L22.595828 462.883786 32.960887 462.843665 43.325945 462.779074 53.691004 462.677246 64.056063 462.520062 74.421121 462.282525 84.786180 461.931151 95.151239 461.422469 105.516297 460.701905 115.881356 459.703415 126.246415 458.350276 136.611473 456.557490 146.976532 454.236169 157.341591 451.300104 167.706649 447.674502 178.071708 443.306468 188.436767 438.176446 198.801825 432.309392 209.166884 425.784163 219.531943 418.739441 229.897001 411.374639 240.262060 403.944596 250.627119 396.747577 260.992177 390.106955 271.357236 384.347911 281.722295 379.771394 292.087353 376.628180 302.452412 375.096139 312.817471 375.263571 323.182529 377.120775 333.547588 380.560983 343.912647 385.390522 354.277705 391.346866 364.642764 398.122239 375.007823 405.389812 385.372881 412.829420 395.737940 420.150040 406.102999 427.106941 416.468057 433.512385 426.833116 439.239641 437.198175 444.220996 447.563233 448.441023 457.928292 451.926707 468.293351 454.736113 478.658409 456.947046 489.023468 458.646862 499.388527 459.924136 509.753585 460.862524 520.118644 461.536792 530.483703 462.010761 540.848761 462.336775 551.213820 462.556244 561.578879 462.700869 571.943937 462.794175 582.308996 462.853117 592.674055 462.889579 603.039113 462.911671 613.404172 462.924781 623.769231 462.932401" /></g></g><g class="titles"><text class="title plot_title" x="400.0" y="26">Iteration #13</text><text class="title" x="462.0" y="580.0">Observation</text><text class="title" transform="rotate(-90 64.000000 282.009619)" x="64.0" y="308.0096189432334">Density</text></g><g class="plot overlay" transform="translate(144, 46)"><g class="series serie-0 color-0" /><g class="series serie-1 color-1" /><g class="series serie-2 color-2" /><g class="series serie-3 color-3" /><g class="series serie-4 color-4" /><g class="series serie-5 color-5" /><g class="series serie-6 color-6" /><g class="series serie-7 color-7" /><g class="series serie-8 color-8" /><g class="series serie-9 color-9" /><g class="series serie-10 color-10" /><g class="series serie-11 color-11" /><g class="series serie-12 color-12" /><g class="series serie-13 color-13" /></g><g class="plot text-overlay" transform="translate(144, 46)"><g class="series serie-0 color-0" /><g class="series serie-1 color-1" /><g class="series serie-2 color-2" /><g class="series serie-3 color-3" /><g class="series serie-4 color-4" /><g class="series serie-5 color-5" /><g class="series serie-6 color-6" /><g class="series serie-7 color-7" /><g class="series serie-8 color-8" /><g class="series serie-9 color-9" /><g class="series serie-10 color-10" /><g class="series serie-11 color-11" /><g class="series serie-12 color-12" /><g class="series serie-13 color-13" /></g><g class="plot tooltip-overlay" transform="translate(144, 46)"><g class="tooltip" style="opacity: 0" transform="translate(0 0)"><rect class="tooltip-box" height="0" rx="0" ry="0" width="0" /><g class="text" /></g></g><g class="legends" transform="translate(10, 56)"><g class="legend reactive activate-serie" id="activate-serie-0"><rect class="color-0 reactive" height="12" width="12" x="0.0" y="0.0" /><text x="17.0" y="9.0">Data</text></g><g class="legend reactive activate-serie" id="activate-serie-1"><rect class="color-1 reactive" height="12" width="12" x="0.0" y="18.0" /><text x="17.0" y="27.0">GMM</text></g><g class="legend reactive activate-serie" id="activate-serie-2"><rect class="color-2 reactive" height="12" width="12" x="0.0" y="36.0" /><text x="17.0" y="45.0">i=0</text></g><g class="legend reactive activate-serie" id="activate-serie-3"><rect class="color-3 reactive" height="12" width="12" x="0.0" y="54.0" /><text x="17.0" y="63.0">i=1</text></g><g class="legend reactive activate-serie" id="activate-serie-4"><rect class="color-4 reactive" height="12" width="12" x="0.0" y="72.0" /><text x="17.0" y="81.0">i=0 k=0</text></g><g class="legend reactive activate-serie" id="activate-serie-5"><rect class="color-5 reactive" height="12" width="12" x="0.0" y="90.0" /><text x="17.0" y="99.0">i=0 k=1</text></g><g class="legend reactive activate-serie" id="activate-serie-6"><rect class="color-6 reactive" height="12" width="12" x="0.0" y="108.0" /><text x="17.0" y="117.0">i=0 k=2</text></g><g class="legend reactive activate-serie" id="activate-serie-7"><rect class="color-7 reactive" height="12" width="12" x="0.0" y="126.0" /><text x="17.0" y="135.0">i=0 k=3</text></g><g class="legend reactive activate-serie" id="activate-serie-8"><rect class="color-8 reactive" height="12" width="12" x="0.0" y="144.0" /><text x="17.0" y="153.0">i=0 k=4</text></g><g class="legend reactive activate-serie" id="activate-serie-9"><rect class="color-9 reactive" height="12" width="12" x="0.0" y="162.0" /><text x="17.0" y="171.0">i=1 k=0</text></g><g class="legend reactive activate-serie" id="activate-serie-10"><rect class="color-10 reactive" height="12" width="12" x="0.0" y="180.0" /><text x="17.0" y="189.0">i=1 k=1</text></g><g class="legend reactive activate-serie" id="activate-serie-11"><rect class="color-11 reactive" height="12" width="12" x="0.0" y="198.0" /><text x="17.0" y="207.0">i=1 k=2</text></g><g class="legend reactive activate-serie" id="activate-serie-12"><rect class="color-12 reactive" height="12" width="12" x="0.0" y="216.0" /><text x="17.0" y="225.0">i=1 k=3</text></g><g class="legend reactive activate-serie" id="activate-serie-13"><rect class="color-13 reactive" height="12" width="12" x="0.0" y="234.0" /><text x="17.0" y="243.0">i=1 k=4</text></g></g><g class="legends" transform="translate(790, 56)" /></g></svg>