<?xml version='1.0' encoding='utf-8'?>
<svg xmlns:xlink="http://www.w3.org/1999/xlink" class="pygal-chart" id="chart-ef17b77f-2bdf-4709-91c6-d1609c2affd1" viewBox="0 0 800 600" xmlns="http://www.w3.org/2000/svg"><!--Generated with pygal 2.4.0 (etree) ©Kozea 2012-2016 on 2018-01-17--><!--http://pygal.org--><!--http://github.com/Kozea/pygal--><defs><style type="text/css">#chart-ef17b77f-2bdf-4709-91c6-d1609c2affd1{-webkit-user-select:none;-webkit-font-smoothing:antialiased;font-family:Consolas,"Liberation Mono",Menlo,Courier,monospace}#chart-ef17b77f-2bdf-4709-91c6-d1609c2affd1 .title{font-family:Consolas,"Liberation Mono",Menlo,Courier,monospace;font-size:16px}#chart-ef17b77f-2bdf-4709-91c6-d1609c2affd1 .legends .legend text{font-family:Consolas,"Liberation Mono",Menlo,Courier,monospace;font-size:10px}#chart-ef17b77f-2bdf-4709-91c6-d1609c2affd1 .axis text{font-family:Consolas,"Liberation Mono",Menlo,Courier,monospace;font-size:10px}#chart-ef17b77f-2bdf-4709-91c6-d1609c2affd1 .axis text.major{font-family:Consolas,"Liberation Mono",Menlo,Courier,monospace;font-size:10px}#chart-ef17b77f-2bdf-4709-91c6-d1609c2affd1 .text-overlay text.value{font-family:Consolas,"Liberation Mono",Menlo,Courier,monospace;font-size:16px}#chart-ef17b77f-2bdf-4709-91c6-d1609c2affd1 .text-overlay text.label{font-family:Consolas,"Liberation Mono",Menlo,Courier,monospace;font-size:10px}#chart-ef17b77f-2bdf-4709-91c6-d1609c2affd1 .tooltip{font-family:Consolas,"Liberation Mono",Menlo,Courier,monospace;font-size:14px}#chart-ef17b77f-2bdf-4709-91c6-d1609c2affd1 text.no_data{font-family:Consolas,"Liberation Mono",Menlo,Courier,monospace;font-size:64px}
#chart-ef17b77f-2bdf-4709-91c6-d1609c2affd1{background-color:rgba(249,249,249,1)}#chart-ef17b77f-2bdf-4709-91c6-d1609c2affd1 path,#chart-ef17b77f-2bdf-4709-91c6-d1609c2affd1 line,#chart-ef17b77f-2bdf-4709-91c6-d1609c2affd1 rect,#chart-ef17b77f-2bdf-4709-91c6-d1609c2affd1 circle{-webkit-transition:150ms;-moz-transition:150ms;transition:150ms}#chart-ef17b77f-2bdf-4709-91c6-d1609c2affd1 .graph &gt; .background{fill:rgba(249,249,249,1)}#chart-ef17b77f-2bdf-4709-91c6-d1609c2affd1 .plot &gt; .background{fill:rgba(255,255,255,1)}#chart-ef17b77f-2bdf-4709-91c6-d1609c2affd1 .graph{fill:rgba(0,0,0,.87)}#chart-ef17b77f-2bdf-4709-91c6-d1609c2affd1 text.no_data{fill:rgba(0,0,0,1)}#chart-ef17b77f-2bdf-4709-91c6-d1609c2affd1 .title{fill:rgba(0,0,0,1)}#chart-ef17b77f-2bdf-4709-91c6-d1609c2affd1 .legends .legend text{fill:rgba(0,0,0,.87)}#chart-ef17b77f-2bdf-4709-91c6-d1609c2affd1 .legends .legend:hover text{fill:rgba(0,0,0,1)}#chart-ef17b77f-2bdf-4709-91c6-d1609c2affd1 .axis .line{stroke:rgba(0,0,0,1)}#chart-ef17b77f-2bdf-4709-91c6-d1609c2affd1 .axis .guide.line{stroke:rgba(0,0,0,.54)}#chart-ef17b77f-2bdf-4709-91c6-d1609c2affd1 .axis .major.line{stroke:rgba(0,0,0,.87)}#chart-ef17b77f-2bdf-4709-91c6-d1609c2affd1 .axis text.major{fill:rgba(0,0,0,1)}#chart-ef17b77f-2bdf-4709-91c6-d1609c2affd1 .axis.y .guides:hover .guide.line,#chart-ef17b77f-2bdf-4709-91c6-d1609c2affd1 .line-graph .axis.x .guides:hover .guide.line,#chart-ef17b77f-2bdf-4709-91c6-d1609c2affd1 .stackedline-graph .axis.x .guides:hover .guide.line,#chart-ef17b77f-2bdf-4709-91c6-d1609c2affd1 .xy-graph .axis.x .guides:hover .guide.line{stroke:rgba(0,0,0,1)}#chart-ef17b77f-2bdf-4709-91c6-d1609c2affd1 .axis .guides:hover text{fill:rgba(0,0,0,1)}#chart-ef17b77f-2bdf-4709-91c6-d1609c2affd1 .reactive{fill-opacity:.7;stroke-opacity:.8}#chart-ef17b77f-2bdf-4709-91c6-d1609c2affd1 .ci{stroke:rgba(0,0,0,.87)}#chart-ef17b77f-2bdf-4709-91c6-d1609c2affd1 .reactive.active,#chart-ef17b77f-2bdf-4709-91c6-d1609c2affd1 .active .reactive{fill-opacity:.8;stroke-opacity:.9;stroke-width:4}#chart-ef17b77f-2bdf-4709-91c6-d1609c2affd1 .ci .reactive.active{stroke-width:1.5}#chart-ef17b77f-2bdf-4709-91c6-d1609c2affd1 .series text{fill:rgba(0,0,0,1)}#chart-ef17b77f-2bdf-4709-91c6-d1609c2affd1 .tooltip rect{fill:rgba(255,255,255,1);stroke:rgba(0,0,0,1);-webkit-transition:opacity 150ms;-moz-transition:opacity 150ms;transition:opacity 150ms}#chart-ef17b77f-2bdf-4709-91c6-d1609c2affd1 .tooltip .label{fill:rgba(0,0,0,.87)}#chart-ef17b77f-2bdf-4709-91c6-d1609c2affd1 .tooltip .label{fill:rgba(0,0,0,.87)}#chart-ef17b77f-2bdf-4709-91c6-d1609c2affd1 .tooltip .legend{font-size:.8em;fill:rgba(0,0,0,.54)}#chart-ef17b77f-2bdf-4709-91c6-d1609c2affd1 .tooltip .x_label{font-size:.6em;fill:rgba(0,0,0,1)}#chart-ef17b77f-2bdf-4709-91c6-d1609c2affd1 .tooltip .xlink{font-size:.5em;text-decoration:underline}#chart-ef17b77f-2bdf-4709-91c6-d1609c2affd1 .tooltip .value{font-size:1.5em}#chart-ef17b77f-2bdf-4709-91c6-d1609c2affd1 .bound{font-size:.5em}#chart-ef17b77f-2bdf-4709-91c6-d1609c2affd1 .max-value{font-size:.75em;fill:rgba(0,0,0,.54)}#chart-ef17b77f-2bdf-4709-91c6-d1609c2affd1 .map-element{fill:rgba(255,255,255,1);stroke:rgba(0,0,0,.54) !important}#chart-ef17b77f-2bdf-4709-91c6-d1609c2affd1 .map-element .reactive{fill-opacity:inherit;stroke-opacity:inherit}#chart-ef17b77f-2bdf-4709-91c6-d1609c2affd1 .color-0,#chart-ef17b77f-2bdf-4709-91c6-d1609c2affd1 .color-0 a:visited{stroke:#909090;fill:#909090}#chart-ef17b77f-2bdf-4709-91c6-d1609c2affd1 .color-1,#chart-ef17b77f-2bdf-4709-91c6-d1609c2affd1 .color-1 a:visited{stroke:#000000;fill:#000000}#chart-ef17b77f-2bdf-4709-91c6-d1609c2affd1 .color-2,#chart-ef17b77f-2bdf-4709-91c6-d1609c2affd1 .color-2 a:visited{stroke:#ff0500;fill:#ff0500}#chart-ef17b77f-2bdf-4709-91c6-d1609c2affd1 .color-3,#chart-ef17b77f-2bdf-4709-91c6-d1609c2affd1 .color-3 a:visited{stroke:#323299;fill:#323299}#chart-ef17b77f-2bdf-4709-91c6-d1609c2affd1 .color-4,#chart-ef17b77f-2bdf-4709-91c6-d1609c2affd1 .color-4 a:visited{stroke:#a3413f;fill:#a3413f}#chart-ef17b77f-2bdf-4709-91c6-d1609c2affd1 .color-5,#chart-ef17b77f-2bdf-4709-91c6-d1609c2affd1 .color-5 a:visited{stroke:#a3413f;fill:#a3413f}#chart-ef17b77f-2bdf-4709-91c6-d1609c2affd1 .color-6,#chart-ef17b77f-2bdf-4709-91c6-d1609c2affd1 .color-6 a:visited{stroke:#a3413f;fill:#a3413f}#chart-ef17b77f-2bdf-4709-91c6-d1609c2affd1 .color-7,#chart-ef17b77f-2bdf-4709-91c6-d1609c2affd1 .color-7 a:visited{stroke:#a3413f;fill:#a3413f}#chart-ef17b77f-2bdf-4709-91c6-d1609c2affd1 .color-8,#chart-ef17b77f-2bdf-4709-91c6-d1609c2affd1 .color-8 a:visited{stroke:#a3413f;fill:#a3413f}#chart-ef17b77f-2bdf-4709-91c6-d1609c2affd1 .color-9,#chart-ef17b77f-2bdf-4709-91c6-d1609c2affd1 .color-9 a:visited{stroke:#657fff;fill:#657fff}#chart-ef17b77f-2bdf-4709-91c6-d1609c2affd1 .color-10,#chart-ef17b77f-2bdf-4709-91c6-d1609c2affd1 .color-10 a:visited{stroke:#657fff;fill:#657fff}#chart-ef17b77f-2bdf-4709-91c6-d1609c2affd1 .color-11,#chart-ef17b77f-2bdf-4709-91c6-d1609c2affd1 .color-11 a:visited{stroke:#657fff;fill:#657fff}#chart-ef17b77f-2bdf-4709-91c6-d1609c2affd1 .color-12,#chart-ef17b77f-2bdf-4709-91c6-d1609c2affd1 .color-12 a:visited{stroke:#657fff;fill:#657fff}#chart-ef17b77f-2bdf-4709-91c6-d1609c2affd1 .color-13,#chart-ef17b77f-2bdf-4709-91c6-d1609c2affd1 .color-13 a:visited{stroke:#657fff;fill:#657fff}#chart-ef17b77f-2bdf-4709-91c6-d1609c2affd1 .text-overlay .color-0 text{fill:black}#chart-ef17b77f-2bdf-4709-91c6-d1609c2affd1 .text-overlay .color-1 text{fill:white}#chart-ef17b77f-2bdf-4709-91c6-d1609c2affd1 .text-overlay .color-2 text{fill:black}#chart-ef17b77f-2bdf-4709-91c6-d1609c2affd1 .text-overlay .color-3 text{fill:black}#chart-ef17b77f-2bdf-4709-91c6-d1609c2affd1 .text-overlay .color-4 text{fill:black}#chart-ef17b77f-2bdf-4709-91c6-d1609c2affd1 .text-overlay .color-5 text{fill:black}#chart-ef17b77f-2bdf-4709-91c6-d1609c2affd1 .text-overlay .color-6 text{fill:black}#chart-ef17b77f-2bdf-4709-91c6-d1609c2affd1 .text-overlay .color-7 text{fill:black}#chart-ef17b77f-2bdf-4709-91c6-d1609c2affd1 .text-overlay .color-8 text{fill:black}#chart-ef17b77f-2bdf-4709-91c6-d1609c2affd1 .text-overlay .color-9 text{fill:black}#chart-ef17b77f-2bdf-4709-91c6-d1609c2affd1 .text-overlay .color-10 text{fill:black}#chart-ef17b77f-2bdf-4709-91c6-d1609c2affd1 .text-overlay .color-11 text{fill:black}#chart-ef17b77f-2bdf-4709-91c6-d1609c2affd1 .text-overlay .color-12 text{fill:black}#chart-ef17b77f-2bdf-4709-91c6-d1609c2affd1 .text-overlay .color-13 text{fill:black}#chart-ef17b77f-2bdf-4709-91c6-d1609c2affd1 .series.serie-1{stroke-width:5}#chart-ef17b77f-2bdf-4709-91c6-d1609c2affd1 .series.serie-2{stroke-width:3}#chart-ef17b77f-2bdf-4709-91c6-d1609c2affd1 .series.serie-3{stroke-width:3}#chart-ef17b77f-2bdf-4709-91c6-d1609c2affd1 .series.serie-4{stroke-width:2;stroke-dasharray:2,2}#chart-ef17b77f-2bdf-4709-91c6-d1609c2affd1 .series.serie-5{stroke-width:2;stroke-dasharray:2,2}#chart-ef17b77f-2bdf-4709-91c6-d1609c2affd1 .series.serie-6{stroke-width:2;stroke-dasharray:2,2}#chart-ef17b77f-2bdf-4709-91c6-d1609c2affd1 .series.serie-7{stroke-width:2;stroke-dasharray:2,2}#chart-ef17b77f-2bdf-4709-91c6-d1609c2affd1 .series.serie-8{stroke-width:2;stroke-dasharray:2,2}#chart-ef17b77f-2bdf-4709-91c6-d1609c2affd1 .series.serie-9{stroke-width:2;stroke-dasharray:2,2}#chart-ef17b77f-2bdf-4709-91c6-d1609c2affd1 .series.serie-10{stroke-width:2;stroke-dasharray:2,2}#chart-ef17b77f-2bdf-4709-91c6-d1609c2affd1 .series.serie-11{stroke-width:2;stroke-dasharray:2,2}#chart-ef17b77f-2bdf-4709-91c6-d1609c2affd1 .series.serie-12{stroke-width:2;stroke-dasharray:2,2}#chart-ef17b77f-2bdf-4709-91c6-d1609c2affd1 .series.serie-13{stroke-width:2;stroke-dasharray:2,2}
#chart-ef17b77f-2bdf-4709-91c6-d1609c2affd1 text.no_data{text-anchor:middle}#chart-ef17b77f-2bdf-4709-91c6-d1609c2affd1 .guide.line{fill:none}#chart-ef17b77f-2bdf-4709-91c6-d1609c2affd1 .centered{text-anchor:middle}#chart-ef17b77f-2bdf-4709-91c6-d1609c2affd1 .title{text-anchor:middle}#chart-ef17b77f-2bdf-4709-91c6-d1609c2affd1 .legends .legend text{fill-opacity:1}#chart-ef17b77f-2bdf-4709-91c6-d1609c2affd1 .axis.x text{text-anchor:middle}#chart-ef17b77f-2bdf-4709-91c6-d1609c2affd1 .axis.x:not(.web) text[transform]{text-anchor:start}#chart-ef17b77f-2bdf-4709-91c6-d1609c2affd1 .axis.x:not(.web) text[transform].backwards{text-anchor:end}#chart-ef17b77f-2bdf-4709-91c6-d1609c2affd1 .axis.y text{text-anchor:end}#chart-ef17b77f-2bdf-4709-91c6-d1609c2affd1 .axis.y text[transform].backwards{text-anchor:start}#chart-ef17b77f-2bdf-4709-91c6-d1609c2affd1 .axis.y2 text{text-anchor:start}#chart-ef17b77f-2bdf-4709-91c6-d1609c2affd1 .axis.y2 text[transform].backwards{text-anchor:end}#chart-ef17b77f-2bdf-4709-91c6-d1609c2affd1 .axis .guide.line{stroke-dasharray:4,4}#chart-ef17b77f-2bdf-4709-91c6-d1609c2affd1 .axis .major.guide.line{stroke-dasharray:6,6}#chart-ef17b77f-2bdf-4709-91c6-d1609c2affd1 .horizontal .axis.y .guide.line,#chart-ef17b77f-2bdf-4709-91c6-d1609c2affd1 .horizontal .axis.y2 .guide.line,#chart-ef17b77f-2bdf-4709-91c6-d1609c2affd1 .vertical .axis.x .guide.line{opacity:0}#chart-ef17b77f-2bdf-4709-91c6-d1609c2affd1 .horizontal .axis.always_show .guide.line,#chart-ef17b77f-2bdf-4709-91c6-d1609c2affd1 .vertical .axis.always_show .guide.line{opacity:1 !important}#chart-ef17b77f-2bdf-4709-91c6-d1609c2affd1 .axis.y .guides:hover .guide.line,#chart-ef17b77f-2bdf-4709-91c6-d1609c2affd1 .axis.y2 .guides:hover .guide.line,#chart-ef17b77f-2bdf-4709-91c6-d1609c2affd1 .axis.x .guides:hover .guide.line{opacity:1}#chart-ef17b77f-2bdf-4709-91c6-d1609c2affd1 .axis .guides:hover text{opacity:1}#chart-ef17b77f-2bdf-4709-91c6-d1609c2affd1 .nofill{fill:none}#chart-ef17b77f-2bdf-4709-91c6-d1609c2affd1 .subtle-fill{fill-opacity:.2}#chart-ef17b77f-2bdf-4709-91c6-d1609c2affd1 .dot{stroke-width:1px;fill-opacity:1}#chart-ef17b77f-2bdf-4709-91c6-d1609c2affd1 .dot.active{stroke-width:5px}#chart-ef17b77f-2bdf-4709-91c6-d1609c2affd1 .dot.negative{fill:transparent}#chart-ef17b77f-2bdf-4709-91c6-d1609c2affd1 text,#chart-ef17b77f-2bdf-4709-91c6-d1609c2affd1 tspan{stroke:none !important}#chart-ef17b77f-2bdf-4709-91c6-d1609c2affd1 .series text.active{opacity:1}#chart-ef17b77f-2bdf-4709-91c6-d1609c2affd1 .tooltip rect{fill-opacity:.95;stroke-width:.5}#chart-ef17b77f-2bdf-4709-91c6-d1609c2affd1 .tooltip text{fill-opacity:1}#chart-ef17b77f-2bdf-4709-91c6-d1609c2affd1 .showable{visibility:hidden}#chart-ef17b77f-2bdf-4709-91c6-d1609c2affd1 .showable.shown{visibility:visible}#chart-ef17b77f-2bdf-4709-91c6-d1609c2affd1 .gauge-background{fill:rgba(229,229,229,1);stroke:none}#chart-ef17b77f-2bdf-4709-91c6-d1609c2affd1 .bg-lines{stroke:rgba(249,249,249,1);stroke-width:2px}</style><script type="text/javascript">window.pygal = window.pygal || {};window.pygal.config = window.pygal.config || {};window.pygal.config['ef17b77f-2bdf-4709-91c6-d1609c2affd1'] = {"disable_xml_declaration": false, "css": ["file://style.css", "file://graph.css"], "show_y_labels": true, "show_y_guides": true, "stroke": true, "force_uri_protocol": "https", "legend_at_bottom": false, "truncate_legend": null, "tooltip_border_radius": 0, "explicit_size": false, "show_dots": false, "inverse_y_axis": false, "x_label_rotation": 60, "margin_left": null, "box_mode": "extremes", "zero": 0, "no_data_text": "No data", "show_legend": true, "legend_at_bottom_columns": null, "logarithmic": false, "order_min": null, "height": 600, "y_title": "Density", "range": [0, 0.27578580090479526], "stroke_style": null, "rounded_bars": null, "print_values_position": "center", "xrange": null, "y_label_rotation": 0, "defs": [], "y_labels_major_count": null, "no_prefix": false, "pretty_print": false, "dots_size": 2.5, "half_pie": false, "secondary_range": null, "x_labels_major_count": null, "interpolation_precision": 250, "interpolate": null, "truncate_label": null, "margin_right": null, "x_labels_major_every": 2, "x_labels": ["-8.96", "-8.76", "-8.56", "-8.36", "-8.16", "-7.96", "-7.76", "-7.56", "-7.36", "-7.16", "-6.96", "-6.76", "-6.56", "-6.36", "-6.16", "-5.96", "-5.76", "-5.56", "-5.36", "-5.16", "-4.96", "-4.76", "-4.56", "-4.36", "-4.16", "-3.96", "-3.76", "-3.56", "-3.36", "-3.16", "-2.96", "-2.76", "-2.56", "-2.36", "-2.16", "-1.96", "-1.76", "-1.56", "-1.36", "-1.16", "-0.96", "-0.76", "-0.56", "-0.36", "-0.16", "0.04", "0.24", "0.44", "0.64", "0.84", "1.04", "1.24", "1.43", "1.63", "1.83", "2.03", "2.23", "2.43", "2.63", "2.83"], "include_x_axis": false, "width": 800, "show_x_guides": false, "formatter": null, "show_minor_x_labels": false, "spacing": 10, "stack_from_top": false, "legend_box_size": 12, "strict": false, "classes": ["pygal-chart"], "js": ["//kozea.github.io/pygal.js/2.0.x/pygal-tooltips.min.js"], "show_x_labels": true, "x_title": "Observation", "print_values": false, "title": "Iteration #6", "dynamic_print_values": false, "max_scale": 16, "margin": 20, "legends": ["Data", "GMM", "i=0", "i=1", "i=0 k=0", "i=0 k=1", "i=0 k=2", "i=0 k=3", "i=0 k=4", "i=1 k=0", "i=1 k=1", "i=1 k=2", "i=1 k=3", "i=1 k=4"], "interpolation_parameters": {}, "allow_interruptions": false, "min_scale": 4, "style": {"transition": "150ms", "label_font_size": 10, "major_label_font_size": 10, "value_colors": [], "title_font_family": "Consolas, \"Liberation Mono\", Menlo, Courier, monospace", "value_font_family": "Consolas, \"Liberation Mono\", Menlo, Courier, monospace", "no_data_font_size": 64, "guide_stroke_dasharray": "4,4", "tooltip_font_size": 14, "tooltip_font_family": "Consolas, \"Liberation Mono\", Menlo, Courier, monospace", "background": "rgba(249, 249, 249, 1)", "value_label_font_family": "Consolas, \"Liberation Mono\", Menlo, Courier, monospace", "stroke_opacity_hover": ".9", "ci_colors": [], "value_font_size": 16, "plot_background": "rgba(255, 255, 255, 1)", "label_font_family": "Consolas, \"Liberation Mono\", Menlo, Courier, monospace", "foreground": "rgba(0, 0, 0, .87)", "major_label_font_family": "Consolas, \"Liberation Mono\", Menlo, Courier, monospace", "stroke_opacity": ".8", "colors": ["#909090", "#000000", "#ff0500", "#323299", "#a3413f", "#a3413f", "#a3413f", "#a3413f", "#a3413f", "#657fff", "#657fff", "#657fff", "#657fff", "#657fff"], "value_label_font_size": 10, "value_background": "rgba(229, 229, 229, 1)", "no_data_font_family": "Consolas, \"Liberation Mono\", Menlo, Courier, monospace", "legend_font_size": 10, "foreground_strong": "rgba(0, 0, 0, 1)", "legend_font_family": "Consolas, \"Liberation Mono\", Menlo, Courier, monospace", "title_font_size": 16, "foreground_subtle": "rgba(0, 0, 0, .54)", "major_guide_stroke_dasharray": "6,6", "font_family": "Consolas, \"Liberation Mono\", Menlo, Courier, monospace", "opacity_hover": ".8", "opacity": ".7"}, "margin_top": null, "x_labels_major": null, "print_zeroes": true, "y_labels": null, "fill": false, "y_labels_major_every": null, "inner_radius": 0, "margin_bottom": null, "show_only_major_dots": false, "missing_value_fill_truncation": "x", "y_labels_major": null, "tooltip_fancy_mode": true, "show_minor_y_labels": true, "print_labels": false}</script><script type="text/javascript" xlink:href="https://kozea.github.io/pygal.js/2.0.x/pygal-tooltips.min.js" /></defs><title>Iteration #6</title><g class="graph line-graph vertical"><rect class="background" height="600" width="800" x="0" y="0" /><g class="plot" transform="translate(144, 46)"><rect class="background" height="472.01923788646684" width="636.0" x="0" y="0" /><g class="axis y always_show"><g class="guides"><path class="axis major line" d="M0.000000 462.941945 h636.000000" /><text class="major" x="-5" y="466.44194485">0</text><title>0</title></g><g class="guides"><path class="guide line" d="M0.000000 430.027658 h636.000000" /><text class="" x="-5" y="433.527657724">0.02</text><title>0.02</title></g><g class="guides"><path class="guide line" d="M0.000000 397.113371 h636.000000" /><text class="" x="-5" y="400.613370598">0.04</text><title>0.04</title></g><g class="guides"><path class="guide line" d="M0.000000 364.199083 h636.000000" /><text class="" x="-5" y="367.699083472">0.06</text><title>0.06</title></g><g class="guides"><path class="guide line" d="M0.000000 331.284796 h636.000000" /><text class="" x="-5" y="334.784796346">0.08</text><title>0.08</title></g><g class="guides"><path class="guide line" d="M0.000000 298.370509 h636.000000" /><text class="" x="-5" y="301.87050922">0.1</text><title>0.1</title></g><g class="guides"><path class="guide line" d="M0.000000 265.456222 h636.000000" /><text class="" x="-5" y="268.956222094">0.12</text><title>0.12</title></g><g class="guides"><path class="guide line" d="M0.000000 232.541935 h636.000000" /><text class="" x="-5" y="236.041934968">0.14</text><title>0.14</title></g><g class="guides"><path class="guide line" d="M0.000000 199.627648 h636.000000" /><text class="" x="-5" y="203.127647841">0.16</text><title>0.16</title></g><g class="guides"><path class="guide line" d="M0.000000 166.713361 h636.000000" /><text class="" x="-5" y="170.213360715">0.18</text><title>0.18</title></g><g class="guides"><path class="guide line" d="M0.000000 133.799074 h636.000000" /><text class="" x="-5" y="137.299073589">0.2</text><title>0.2</title></g><g class="guides"><path class="guide line" d="M0.000000 100.884786 h636.000000" /><text class="" x="-5" y="104.384786463">0.22</text><title>0.22</title></g><g class="guides"><path class="guide line" d="M0.000000 67.970499 h636.000000" /><text class="" x="-5" y="71.4704993371">0.24</text><title>0.24</title></g><g class="guides"><path class="guide line" d="M0.000000 35.056212 h636.000000" /><text class="" x="-5" y="38.5562122111">0.26</text><title>0.26</title></g></g><g class="axis x"><g class="guides"><path class="major line" d="M12.230769 0.000000 v472.019238" /><text class="major" transform="rotate(60 12.230769 487.019238)" x="12.230769230769232" y="487.01923788646684">-8.96</text></g><g class="guides"><path class="major guide line" d="M32.960887 0.000000 v472.019238" /><text class="major" transform="rotate(60 32.960887 487.019238)" x="32.96088657105606" y="487.01923788646684">-8.56</text></g><g class="guides"><path class="major guide line" d="M53.691004 0.000000 v472.019238" /><text class="major" transform="rotate(60 53.691004 487.019238)" x="53.6910039113429" y="487.01923788646684">-8.16</text></g><g class="guides"><path class="major guide line" d="M74.421121 0.000000 v472.019238" /><text class="major" transform="rotate(60 74.421121 487.019238)" x="74.42112125162973" y="487.01923788646684">-7.76</text></g><g class="guides"><path class="major guide line" d="M95.151239 0.000000 v472.019238" /><text class="major" transform="rotate(60 95.151239 487.019238)" x="95.15123859191655" y="487.01923788646684">-7.36</text></g><g class="guides"><path class="major guide line" d="M115.881356 0.000000 v472.019238" /><text class="major" transform="rotate(60 115.881356 487.019238)" x="115.88135593220338" y="487.01923788646684">-6.96</text></g><g class="guides"><path class="major guide line" d="M136.611473 0.000000 v472.019238" /><text class="major" transform="rotate(60 136.611473 487.019238)" x="136.61147327249023" y="487.01923788646684">-6.56</text></g><g class="guides"><path class="major guide line" d="M157.341591 0.000000 v472.019238" /><text class="major" transform="rotate(60 157.341591 487.019238)" x="157.34159061277705" y="487.01923788646684">-6.16</text></g><g class="guides"><path class="major guide line" d="M178.071708 0.000000 v472.019238" /><text class="major" transform="rotate(60 178.071708 487.019238)" x="178.0717079530639" y="487.01923788646684">-5.76</text></g><g class="guides"><path class="major guide line" d="M198.801825 0.000000 v472.019238" /><text class="major" transform="rotate(60 198.801825 487.019238)" x="198.80182529335073" y="487.01923788646684">-5.36</text></g><g class="guides"><path class="major guide line" d="M219.531943 0.000000 v472.019238" /><text class="major" transform="rotate(60 219.531943 487.019238)" x="219.53194263363756" y="487.01923788646684">-4.96</text></g><g class="guides"><path class="major guide line" d="M240.262060 0.000000 v472.019238" /><text class="major" transform="rotate(60 240.262060 487.019238)" x="240.2620599739244" y="487.01923788646684">-4.56</text></g><g class="guides"><path class="major guide line" d="M260.992177 0.000000 v472.019238" /><text class="major" transform="rotate(60 260.992177 487.019238)" x="260.99217731421123" y="487.01923788646684">-4.16</text></g><g class="guides"><path class="major guide line" d="M281.722295 0.000000 v472.019238" /><text class="major" transform="rotate(60 281.722295 487.019238)" x="281.722294654498" y="487.01923788646684">-3.76</text></g><g class="guides"><path class="major guide line" d="M302.452412 0.000000 v472.019238" /><text class="major" transform="rotate(60 302.452412 487.019238)" x="302.4524119947849" y="487.01923788646684">-3.36</text></g><g class="guides"><path class="major guide line" d="M323.182529 0.000000 v472.019238" /><text class="major" transform="rotate(60 323.182529 487.019238)" x="323.1825293350717" y="487.01923788646684">-2.96</text></g><g class="guides"><path class="major guide line" d="M343.912647 0.000000 v472.019238" /><text class="major" transform="rotate(60 343.912647 487.019238)" x="343.91264667535853" y="487.01923788646684">-2.56</text></g><g class="guides"><path class="major guide line" d="M364.642764 0.000000 v472.019238" /><text class="major" transform="rotate(60 364.642764 487.019238)" x="364.64276401564535" y="487.01923788646684">-2.16</text></g><g class="guides"><path class="major guide line" d="M385.372881 0.000000 v472.019238" /><text class="major" transform="rotate(60 385.372881 487.019238)" x="385.37288135593224" y="487.01923788646684">-1.76</text></g><g class="guides"><path class="major guide line" d="M406.102999 0.000000 v472.019238" /><text class="major" transform="rotate(60 406.102999 487.019238)" x="406.102998696219" y="487.01923788646684">-1.36</text></g><g class="guides"><path class="major guide line" d="M426.833116 0.000000 v472.019238" /><text class="major" transform="rotate(60 426.833116 487.019238)" x="426.8331160365058" y="487.01923788646684">-0.96</text></g><g class="guides"><path class="major guide line" d="M447.563233 0.000000 v472.019238" /><text class="major" transform="rotate(60 447.563233 487.019238)" x="447.56323337679265" y="487.01923788646684">-0.56</text></g><g class="guides"><path class="major guide line" d="M468.293351 0.000000 v472.019238" /><text class="major" transform="rotate(60 468.293351 487.019238)" x="468.29335071707953" y="487.01923788646684">-0.16</text></g><g class="guides"><path class="major guide line" d="M489.023468 0.000000 v472.019238" /><text class="major" transform="rotate(60 489.023468 487.019238)" x="489.02346805736636" y="487.01923788646684">0.24</text></g><g class="guides"><path class="major guide line" d="M509.753585 0.000000 v472.019238" /><text class="major" transform="rotate(60 509.753585 487.019238)" x="509.75358539765324" y="487.01923788646684">0.64</text></g><g class="guides"><path class="major guide line" d="M530.483703 0.000000 v472.019238" /><text class="major" transform="rotate(60 530.483703 487.019238)" x="530.48370273794" y="487.01923788646684">1.04</text></g><g class="guides"><path class="major guide line" d="M551.213820 0.000000 v472.019238" /><text class="major" transform="rotate(60 551.213820 487.019238)" x="551.213820078227" y="487.01923788646684">1.43</text></g><g class="guides"><path class="major guide line" d="M571.943937 0.000000 v472.019238" /><text class="major" transform="rotate(60 571.943937 487.019238)" x="571.9439374185138" y="487.01923788646684">1.83</text></g><g class="guides"><path class="major guide line" d="M592.674055 0.000000 v472.019238" /><text class="major" transform="rotate(60 592.674055 487.019238)" x="592.6740547588006" y="487.01923788646684">2.23</text></g><g class="guides"><path class="major guide line" d="M613.404172 0.000000 v472.019238" /><text class="major" transform="rotate(60 613.404172 487.019238)" x="613.4041720990874" y="487.01923788646684">2.63</text></g></g><g class="series serie-0 color-0"><path class="line reactive" d="M12.230769 462.941945 L12.230769 462.019456 22.595828 462.941945 32.960887 461.096967 43.325945 462.019456 53.691004 459.251988 64.056063 462.019456 74.421121 458.329499 84.786180 462.019456 95.151239 458.329499 105.516297 462.019456 115.881356 448.182119 126.246415 460.174477 136.611473 457.407010 146.976532 457.407010 157.341591 451.872075 167.706649 448.182119 178.071708 454.639543 188.436767 445.414651 198.801825 442.647184 209.166884 436.189760 219.531943 437.112249 229.897001 392.832771 240.262060 396.522728 250.627119 376.227967 260.992177 355.933206 271.357236 351.320760 281.722295 325.491065 292.087353 277.521630 302.452412 283.056565 312.817471 202.800010 323.182529 188.040184 333.547588 169.590402 343.912647 123.465945 354.277705 95.791271 364.642764 67.194108 375.007823 82.876423 385.372881 60.736684 395.737940 80.108956 406.102999 29.372054 416.468057 9.077293 426.833116 70.884065 437.198175 69.039086 447.563233 41.364413 457.928292 40.441923 468.293351 91.178826 478.658409 140.993239 489.023468 214.792369 499.388527 259.071847 509.753585 321.801108 520.118644 364.235608 530.483703 408.515086 540.848761 430.654825 551.213820 448.182119 561.578879 455.562032 571.943937 458.329499 582.308996 458.329499 592.674055 462.019456 603.039113 462.941945 613.404172 462.019456 623.769231 462.941945" /></g><g class="series serie-1 color-1"><path class="line reactive nofill" d="M12.230769 462.921875 L22.595828 462.906005 32.960887 462.878895 43.325945 462.833589 53.691004 462.759521 64.056063 462.641074 74.421121 462.455827 84.786180 462.172517 95.151239 461.748894 105.516297 461.129708 115.881356 460.245224 126.246415 459.010767 136.611473 457.327892 146.976532 455.087761 157.341591 452.177153 167.706649 448.487156 178.071708 443.923872 188.436767 438.419261 198.801825 431.938611 209.166884 424.479034 219.531943 416.051865 229.897001 406.642327 240.262060 396.145018 250.627119 384.285537 260.992177 370.556170 271.357236 354.210337 281.722295 334.364108 292.087353 310.230052 302.452412 281.454540 312.817471 248.458736 323.182529 212.631704 333.547588 176.235280 343.912647 141.978030 354.277705 112.372123 364.642764 89.123361 375.007823 72.827990 385.372881 63.096593 395.737940 58.911343 406.102999 58.768357 416.468057 60.406626 426.833116 60.799920 437.198175 57.611188 447.563233 52.084011 457.928292 50.928069 468.293351 64.211426 478.658409 99.455206 489.023468 156.196065 499.388527 225.490753 509.753585 294.636675 520.118644 353.235733 530.483703 396.551202 540.848761 425.122186 551.213820 442.322050 561.578879 451.996898 571.943937 457.203260 582.308996 459.940982 592.674055 461.370073 603.039113 462.117221 613.404172 462.509527 623.769231 462.716134" /></g><g class="series serie-2 color-2"><path class="line reactive nofill" d="M12.230769 462.941945 L22.595828 462.941945 32.960887 462.941945 43.325945 462.941945 53.691004 462.941945 64.056063 462.941945 74.421121 462.941945 84.786180 462.941945 95.151239 462.941945 105.516297 462.941945 115.881356 462.941945 126.246415 462.941945 136.611473 462.941945 146.976532 462.941945 157.341591 462.941945 167.706649 462.941945 178.071708 462.941944 188.436767 462.941944 198.801825 462.941941 209.166884 462.941936 219.531943 462.941921 229.897001 462.941885 240.262060 462.941799 250.627119 462.941596 260.992177 462.941129 271.357236 462.940076 281.722295 462.937742 292.087353 462.932653 302.452412 462.921693 312.817471 462.898294 323.182529 462.848487 333.547588 462.742006 343.912647 462.511602 354.277705 462.004870 364.642764 460.877453 375.007823 458.381473 385.372881 453.020818 395.737940 442.160356 406.102999 421.932996 416.468057 388.060219 426.833116 338.079238 437.198175 274.524233 447.563233 207.124629 457.928292 151.472024 468.293351 123.331045 478.658409 131.232575 489.023468 172.140242 499.388527 233.244108 509.753585 298.480546 520.118644 355.264378 530.483703 397.702238 540.848761 425.808631 551.213820 442.739478 561.578879 452.250258 571.943937 457.355065 582.308996 460.030343 592.674055 461.421657 603.039113 462.146403 613.404172 462.525701 623.769231 462.724917" /></g><g class="series serie-3 color-3"><path class="line reactive nofill" d="M12.230769 462.921875 L22.595828 462.906005 32.960887 462.878895 43.325945 462.833589 53.691004 462.759521 64.056063 462.641074 74.421121 462.455827 84.786180 462.172517 95.151239 461.748894 105.516297 461.129708 115.881356 460.245224 126.246415 459.010767 136.611473 457.327892 146.976532 455.087761 157.341591 452.177153 167.706649 448.487157 178.071708 443.923872 188.436767 438.419262 198.801825 431.938614 209.166884 424.479043 219.531943 416.051888 229.897001 406.642386 240.262060 396.145164 250.627119 384.285886 260.992177 370.556985 271.357236 354.212206 281.722295 334.368310 292.087353 310.239344 302.452412 281.474792 312.817471 248.502387 323.182529 212.725161 333.547588 176.435219 343.912647 142.408373 354.277705 113.309198 364.642764 91.187853 375.007823 77.388462 385.372881 73.017720 395.737940 79.692932 406.102999 99.777306 416.468057 135.288352 426.833116 185.662628 437.198175 246.028901 447.563233 307.901327 457.928292 362.397990 468.293351 403.822325 478.658409 431.164576 489.023468 446.997768 499.388527 455.188589 509.753585 459.098073 520.118644 460.913300 530.483703 461.790909 540.848761 462.255499 551.213820 462.524517 561.578879 462.688584 571.943937 462.790140 582.308996 462.852584 592.674055 462.890360 603.039113 462.912763 613.404172 462.925771 623.769231 462.933163" /></g><g class="series serie-4 color-4"><path class="line reactive nofill" d="M12.230769 462.941945 L22.595828 462.941945 32.960887 462.941945 43.325945 462.941945 53.691004 462.941945 64.056063 462.941945 74.421121 462.941945 84.786180 462.941945 95.151239 462.941945 105.516297 462.941945 115.881356 462.941945 126.246415 462.941945 136.611473 462.941945 146.976532 462.941945 157.341591 462.941945 167.706649 462.941945 178.071708 462.941945 188.436767 462.941945 198.801825 462.941945 209.166884 462.941945 219.531943 462.941945 229.897001 462.941945 240.262060 462.941945 250.627119 462.941945 260.992177 462.941945 271.357236 462.941945 281.722295 462.941945 292.087353 462.941943 302.452412 462.941929 312.817471 462.941831 323.182529 462.941222 333.547588 462.937903 343.912647 462.922010 354.277705 462.855291 364.642764 462.609925 375.007823 461.820627 385.372881 459.603950 395.737940 454.183356 406.102999 442.684983 416.468057 421.646115 426.833116 388.737529 437.198175 345.412958 447.563233 298.863355 457.928292 261.035343 468.293351 243.943612 478.658409 253.567930 489.023468 286.502194 499.388527 331.884477 509.753585 377.135720 520.118644 413.423443 530.483703 437.753121 540.848761 451.648148 551.213820 458.478566 561.578879 461.387128 571.943937 462.464541 582.308996 462.812738 592.674055 462.911122 603.039113 462.935464 613.404172 462.940744 623.769231 462.941749" /></g><g class="series serie-5 color-5"><path class="line reactive nofill" d="M12.230769 462.941945 L22.595828 462.941945 32.960887 462.941945 43.325945 462.941945 53.691004 462.941945 64.056063 462.941945 74.421121 462.941945 84.786180 462.941945 95.151239 462.941945 105.516297 462.941945 115.881356 462.941945 126.246415 462.941945 136.611473 462.941945 146.976532 462.941945 157.341591 462.941945 167.706649 462.941945 178.071708 462.941945 188.436767 462.941945 198.801825 462.941945 209.166884 462.941945 219.531943 462.941945 229.897001 462.941945 240.262060 462.941945 250.627119 462.941945 260.992177 462.941945 271.357236 462.941943 281.722295 462.941933 292.087353 462.941882 302.452412 462.941644 312.817471 462.940638 323.182529 462.936755 333.547588 462.923133 343.912647 462.879706 354.277705 462.753992 364.642764 462.423848 375.007823 461.638351 385.372881 459.948006 395.737940 456.665508 406.102999 450.931666 416.468057 441.964013 426.833116 429.496121 437.198175 414.268646 447.563233 398.285873 457.928292 384.545294 468.293351 376.174791 478.658409 375.285702 489.023468 382.110563 499.388527 394.904686 509.753585 410.668241 520.118644 426.282204 530.483703 439.474535 540.848761 449.229636 551.213820 455.628438 561.578879 459.381450 571.943937 461.359732 582.308996 462.300161 592.674055 462.704325 603.039113 462.861639 613.404172 462.917172 623.769231 462.934969" /></g><g class="series serie-6 color-6"><path class="line reactive nofill" d="M12.230769 462.941945 L22.595828 462.941945 32.960887 462.941945 43.325945 462.941945 53.691004 462.941945 64.056063 462.941945 74.421121 462.941945 84.786180 462.941945 95.151239 462.941945 105.516297 462.941945 115.881356 462.941945 126.246415 462.941945 136.611473 462.941945 146.976532 462.941945 157.341591 462.941945 167.706649 462.941945 178.071708 462.941945 188.436767 462.941945 198.801825 462.941945 209.166884 462.941945 219.531943 462.941945 229.897001 462.941944 240.262060 462.941943 250.627119 462.941936 260.992177 462.941913 271.357236 462.941829 281.722295 462.941556 292.087353 462.940716 302.452412 462.938298 312.817471 462.931779 323.182529 462.915329 333.547588 462.876497 343.912647 462.790785 354.277705 462.614035 364.642764 462.273827 375.007823 461.663359 385.372881 460.643756 395.737940 459.062047 406.102999 456.789699 416.468057 453.779194 426.833116 450.124635 437.198175 446.101764 447.563233 442.160516 457.928292 438.854934 468.293351 436.719739 478.658409 436.129628 489.023468 437.191882 499.388527 439.714520 509.753585 443.262962 520.118644 447.282258 530.483703 451.237730 540.848761 454.725568 551.213820 457.524466 561.578879 459.586942 571.943937 460.990450 582.308996 461.875789 592.674055 462.394862 603.039113 462.678273 613.404172 462.822586 623.769231 462.891196" /></g><g class="series serie-7 color-7"><path class="line reactive nofill" d="M12.230769 462.941945 L22.595828 462.941945 32.960887 462.941945 43.325945 462.941945 53.691004 462.941945 64.056063 462.941945 74.421121 462.941945 84.786180 462.941945 95.151239 462.941945 105.516297 462.941945 115.881356 462.941945 126.246415 462.941945 136.611473 462.941945 146.976532 462.941945 157.341591 462.941945 167.706649 462.941945 178.071708 462.941945 188.436767 462.941945 198.801825 462.941944 209.166884 462.941943 219.531943 462.941940 229.897001 462.941929 240.262060 462.941900 250.627119 462.941822 260.992177 462.941624 271.357236 462.941144 281.722295 462.940031 292.087353 462.937573 302.452412 462.932389 312.817471 462.921962 323.182529 462.901964 333.547588 462.865414 343.912647 462.801790 354.277705 462.696377 364.642764 462.530298 375.007823 462.281753 385.372881 461.928951 395.737940 461.454864 406.102999 460.853355 416.468057 460.135456 426.833116 459.333962 437.198175 458.504256 447.563233 457.719903 457.928292 457.062787 468.293351 456.609359 478.658409 456.416077 489.023468 456.507863 499.388527 456.872819 509.753585 457.464767 520.118644 458.212842 530.483703 459.035408 540.848761 459.854522 551.213820 460.607457 561.578879 461.253144 571.943937 461.773102 582.308996 462.167973 592.674055 462.451618 603.039113 462.644753 613.404172 462.769607 623.769231 462.846333" /></g><g class="series serie-8 color-8"><path class="line reactive nofill" d="M12.230769 462.941945 L22.595828 462.941945 32.960887 462.941945 43.325945 462.941945 53.691004 462.941945 64.056063 462.941945 74.421121 462.941945 84.786180 462.941945 95.151239 462.941945 105.516297 462.941945 115.881356 462.941945 126.246415 462.941945 136.611473 462.941945 146.976532 462.941945 157.341591 462.941945 167.706649 462.941945 178.071708 462.941944 188.436767 462.941944 198.801825 462.941942 209.166884 462.941937 219.531943 462.941927 229.897001 462.941902 240.262060 462.941846 250.627119 462.941728 260.992177 462.941483 271.357236 462.940995 281.722295 462.940057 292.087353 462.938318 302.452412 462.935212 312.817471 462.929864 323.182529 462.920997 333.547588 462.906839 343.912647 462.885089 354.277705 462.852955 364.642764 462.807335 375.007823 462.745163 385.372881 462.663934 395.737940 462.562359 406.102999 462.441073 416.468057 462.303220 426.833116 462.154770 437.198175 462.004387 447.563233 461.862762 457.928292 461.741445 468.293351 461.651323 478.658409 461.601016 489.023468 461.595519 499.388527 461.635386 509.753585 461.716635 520.118644 461.831410 530.483703 461.969222 540.848761 462.118536 551.213820 462.268330 561.578879 462.409373 571.943937 462.535020 582.308996 462.641461 592.674055 462.727509 603.039113 462.794053 613.404172 462.843372 623.769231 462.878449" /></g><g class="series serie-9 color-9"><path class="line reactive nofill" d="M12.230769 462.941945 L22.595828 462.941945 32.960887 462.941945 43.325945 462.941945 53.691004 462.941945 64.056063 462.941945 74.421121 462.941945 84.786180 462.941945 95.151239 462.941945 105.516297 462.941945 115.881356 462.941945 126.246415 462.941945 136.611473 462.941945 146.976532 462.941945 157.341591 462.941945 167.706649 462.941945 178.071708 462.941945 188.436767 462.941945 198.801825 462.941945 209.166884 462.941945 219.531943 462.941945 229.897001 462.941945 240.262060 462.941945 250.627119 462.941945 260.992177 462.941944 271.357236 462.941940 281.722295 462.941900 292.087353 462.941616 302.452412 462.939871 312.817471 462.930656 323.182529 462.888940 333.547588 462.727264 343.912647 462.191892 354.277705 460.681403 364.642764 457.064954 375.007823 449.761827 385.372881 437.443980 395.737940 420.390563 406.102999 401.686633 416.468057 386.875037 426.833116 381.458441 437.198175 387.647046 447.563233 402.923693 457.928292 421.673030 468.293351 438.463451 478.658409 450.417219 489.023468 457.413872 499.388527 460.837192 509.753585 462.250670 520.118644 462.746096 530.483703 462.894080 540.848761 462.931854 551.213820 462.940110 561.578879 462.941657 571.943937 462.941906 582.308996 462.941940 592.674055 462.941944 603.039113 462.941945 613.404172 462.941945 623.769231 462.941945" /></g><g class="series serie-10 color-10"><path class="line reactive nofill" d="M12.230769 462.941945 L22.595828 462.941945 32.960887 462.941945 43.325945 462.941945 53.691004 462.941945 64.056063 462.941945 74.421121 462.941945 84.786180 462.941945 95.151239 462.941945 105.516297 462.941945 115.881356 462.941945 126.246415 462.941945 136.611473 462.941945 146.976532 462.941945 157.341591 462.941945 167.706649 462.941945 178.071708 462.941945 188.436767 462.941945 198.801825 462.941945 209.166884 462.941945 219.531943 462.941944 229.897001 462.941936 240.262060 462.941891 250.627119 462.941640 260.992177 462.940400 271.357236 462.934926 281.722295 462.913408 292.087353 462.838101 302.452412 462.603729 312.817471 461.956033 323.182529 460.369688 333.547588 456.935422 343.912647 450.388456 354.277705 439.459775 364.642764 423.628191 375.007823 404.032724 385.372881 383.936953 395.737940 368.109210 406.102999 361.060639 416.468057 364.978687 426.833116 378.634792 437.198175 398.004063 447.563233 418.174295 457.928292 435.319446 468.293351 447.687580 478.658409 455.402181 489.023468 459.606499 499.388527 461.621311 509.753585 462.473947 520.118644 462.793510 530.483703 462.899808 540.848761 462.931239 551.213820 462.939510 561.578879 462.941449 571.943937 462.941855 582.308996 462.941930 592.674055 462.941943 603.039113 462.941945 613.404172 462.941945 623.769231 462.941945" /></g><g class="series serie-11 color-11"><path class="line reactive nofill" d="M12.230769 462.941945 L22.595828 462.941945 32.960887 462.941945 43.325945 462.941945 53.691004 462.941945 64.056063 462.941945 74.421121 462.941945 84.786180 462.941945 95.151239 462.941945 105.516297 462.941945 115.881356 462.941945 126.246415 462.941945 136.611473 462.941945 146.976532 462.941945 157.341591 462.941944 167.706649 462.941940 178.071708 462.941922 188.436767 462.941841 198.801825 462.941501 209.166884 462.940194 219.531943 462.935566 229.897001 462.920495 240.262060 462.875352 250.627119 462.751073 260.992177 462.436861 271.357236 461.708007 281.722295 460.158835 292.087353 457.146662 302.452412 451.800892 312.817471 443.168375 323.182529 430.541483 333.547588 413.927441 343.912647 394.486927 354.277705 374.675986 364.642764 357.869587 375.007823 347.466141 385.372881 345.776166 395.737940 353.188577 406.102999 368.025338 416.468057 387.158590 426.833116 407.080427 437.198175 424.926602 447.563233 439.057653 457.928292 449.088011 468.293351 455.523017 478.658409 459.274054 489.023468 461.267777 499.388527 462.236458 509.753585 462.667480 520.118644 462.843364 530.483703 462.909256 540.848761 462.931937 551.213820 462.939116 561.578879 462.941207 571.943937 462.941767 582.308996 462.941905 592.674055 462.941937 603.039113 462.941943 613.404172 462.941945 623.769231 462.941945" /></g><g class="series serie-12 color-12"><path class="line reactive nofill" d="M12.230769 462.941945 L22.595828 462.941945 32.960887 462.941945 43.325945 462.941945 53.691004 462.941945 64.056063 462.941945 74.421121 462.941945 84.786180 462.941945 95.151239 462.941945 105.516297 462.941944 115.881356 462.941941 126.246415 462.941929 136.611473 462.941877 146.976532 462.941677 157.341591 462.940964 167.706649 462.938585 178.071708 462.931175 188.436767 462.909666 198.801825 462.851478 209.166884 462.704842 219.531943 462.360840 229.897001 461.610129 240.262060 460.087606 250.627119 457.221381 260.992177 452.220733 271.357236 444.152209 281.722295 432.147720 292.087353 415.747635 302.452412 395.305342 312.817471 372.296557 323.182529 349.341139 333.547588 329.807974 343.912647 317.037630 354.277705 313.415102 364.642764 319.643338 375.007823 334.520797 385.372881 355.319488 395.737940 378.600500 406.102999 401.133055 416.468057 420.584220 426.833116 435.797180 437.198175 446.674800 447.563233 453.825860 457.928292 458.164704 468.293351 460.600857 478.658409 461.869117 489.023468 462.482203 499.388527 462.757711 509.753585 462.872905 520.118644 462.917751 530.483703 462.934017 540.848761 462.939515 551.213820 462.941249 561.578879 462.941758 571.943937 462.941898 582.308996 462.941934 592.674055 462.941942 603.039113 462.941944 613.404172 462.941945 623.769231 462.941945" /></g><g class="series serie-13 color-13"><path class="line reactive nofill" d="M12.230769 462.921875 L22.595828 462.906005 32.960887 462.878895 43.325945 462.833589 53.691004 462.759521 64.056063 462.641074 74.421121 462.455827 84.786180 462.172518 95.151239 461.748894 105.516297 461.129709 115.881356 460.245227 126.246415 459.010783 136.611473 457.327960 146.976532 455.088029 157.341591 452.178134 167.706649 448.490521 178.071708 443.934665 188.436767 438.451645 198.801825 432.029525 209.166884 424.717897 219.531943 416.639373 229.897001 407.995660 240.262060 399.066149 250.627119 390.197626 260.992177 381.784826 271.357236 374.242904 281.722295 367.974226 292.087353 363.333111 302.452412 360.592738 312.817471 359.918545 323.182529 361.351691 333.547588 364.804897 343.912647 370.071248 354.277705 376.844713 364.642764 384.749562 375.007823 393.374751 385.372881 402.308913 395.737940 411.171861 406.102999 419.639420 416.468057 427.459598 426.833116 434.459568 437.198175 440.544169 447.563233 445.687605 457.928292 449.920579 468.293351 453.315198 478.658409 455.969786 489.023468 457.995196 499.388527 459.503697 509.753585 460.600849 520.118644 461.380358 530.483703 461.921528 540.848761 462.288733 551.213820 462.532312 561.578879 462.690292 571.943937 462.790494 582.308996 462.852654 592.674055 462.890374 603.039113 462.912766 613.404172 462.925771 623.769231 462.933163" /></g></g><g class="titles"><text class="title plot_title" x="400.0" y="26">Iteration #6</text><text class="title" x="462.0" y="580.0">Observation</text><text class="title" transform="rotate(-90 64.000000 282.009619)" x="64.0" y="308.0096189432334">Density</text></g><g class="plot overlay" transform="translate(144, 46)"><g class="series serie-0 color-0" /><g class="series serie-1 color-1" /><g class="series serie-2 color-2" /><g class="series serie-3 color-3" /><g class="series serie-4 color-4" /><g class="series serie-5 color-5" /><g class="series serie-6 color-6" /><g class="series serie-7 color-7" /><g class="series serie-8 color-8" /><g class="series serie-9 color-9" /><g class="series serie-10 color-10" /><g class="series serie-11 color-11" /><g class="series serie-12 color-12" /><g class="series serie-13 color-13" /></g><g class="plot text-overlay" transform="translate(144, 46)"><g class="series serie-0 color-0" /><g class="series serie-1 color-1" /><g class="series serie-2 color-2" /><g class="series serie-3 color-3" /><g class="series serie-4 color-4" /><g class="series serie-5 color-5" /><g class="series serie-6 color-6" /><g class="series serie-7 color-7" /><g class="series serie-8 color-8" /><g class="series serie-9 color-9" /><g class="series serie-10 color-10" /><g class="series serie-11 color-11" /><g class="series serie-12 color-12" /><g class="series serie-13 color-13" /></g><g class="plot tooltip-overlay" transform="translate(144, 46)"><g class="tooltip" style="opacity: 0" transform="translate(0 0)"><rect class="tooltip-box" height="0" rx="0" ry="0" width="0" /><g class="text" /></g></g><g class="legends" transform="translate(10, 56)"><g class="legend reactive activate-serie" id="activate-serie-0"><rect class="color-0 reactive" height="12" width="12" x="0.0" y="0.0" /><text x="17.0" y="9.0">Data</text></g><g class="legend reactive activate-serie" id="activate-serie-1"><rect class="color-1 reactive" height="12" width="12" x="0.0" y="18.0" /><text x="17.0" y="27.0">GMM</text></g><g class="legend reactive activate-serie" id="activate-serie-2"><rect class="color-2 reactive" height="12" width="12" x="0.0" y="36.0" /><text x="17.0" y="45.0">i=0</text></g><g class="legend reactive activate-serie" id="activate-serie-3"><rect class="color-3 reactive" height="12" width="12" x="0.0" y="54.0" /><text x="17.0" y="63.0">i=1</text></g><g class="legend reactive activate-serie" id="activate-serie-4"><rect class="color-4 reactive" height="12" width="12" x="0.0" y="72.0" /><text x="17.0" y="81.0">i=0 k=0</text></g><g class="legend reactive activate-serie" id="activate-serie-5"><rect class="color-5 reactive" height="12" width="12" x="0.0" y="90.0" /><text x="17.0" y="99.0">i=0 k=1</text></g><g class="legend reactive activate-serie" id="activate-serie-6"><rect class="color-6 reactive" height="12" width="12" x="0.0" y="108.0" /><text x="17.0" y="117.0">i=0 k=2</text></g><g class="legend reactive activate-serie" id="activate-serie-7"><rect class="color-7 reactive" height="12" width="12" x="0.0" y="126.0" /><text x="17.0" y="135.0">i=0 k=3</text></g><g class="legend reactive activate-serie" id="activate-serie-8"><rect class="color-8 reactive" height="12" width="12" x="0.0" y="144.0" /><text x="17.0" y="153.0">i=0 k=4</text></g><g class="legend reactive activate-serie" id="activate-serie-9"><rect class="color-9 reactive" height="12" width="12" x="0.0" y="162.0" /><text x="17.0" y="171.0">i=1 k=0</text></g><g class="legend reactive activate-serie" id="activate-serie-10"><rect class="color-10 reactive" height="12" width="12" x="0.0" y="180.0" /><text x="17.0" y="189.0">i=1 k=1</text></g><g class="legend reactive activate-serie" id="activate-serie-11"><rect class="color-11 reactive" height="12" width="12" x="0.0" y="198.0" /><text x="17.0" y="207.0">i=1 k=2</text></g><g class="legend reactive activate-serie" id="activate-serie-12"><rect class="color-12 reactive" height="12" width="12" x="0.0" y="216.0" /><text x="17.0" y="225.0">i=1 k=3</text></g><g class="legend reactive activate-serie" id="activate-serie-13"><rect class="color-13 reactive" height="12" width="12" x="0.0" y="234.0" /><text x="17.0" y="243.0">i=1 k=4</text></g></g><g class="legends" transform="translate(790, 56)" /></g></svg>