<?xml version='1.0' encoding='utf-8'?>
<svg xmlns:xlink="http://www.w3.org/1999/xlink" class="pygal-chart" id="chart-2faba1b3-fb66-4e19-a7aa-f49571d821a3" viewBox="0 0 800 600" xmlns="http://www.w3.org/2000/svg"><!--Generated with pygal 2.4.0 (etree) ©Kozea 2012-2016 on 2018-02-06--><!--http://pygal.org--><!--http://github.com/Kozea/pygal--><defs><style type="text/css">#chart-2faba1b3-fb66-4e19-a7aa-f49571d821a3{-webkit-user-select:none;-webkit-font-smoothing:antialiased;font-family:Consolas,"Liberation Mono",Menlo,Courier,monospace}#chart-2faba1b3-fb66-4e19-a7aa-f49571d821a3 .title{font-family:Consolas,"Liberation Mono",Menlo,Courier,monospace;font-size:16px}#chart-2faba1b3-fb66-4e19-a7aa-f49571d821a3 .legends .legend text{font-family:Consolas,"Liberation Mono",Menlo,Courier,monospace;font-size:10px}#chart-2faba1b3-fb66-4e19-a7aa-f49571d821a3 .axis text{font-family:Consolas,"Liberation Mono",Menlo,Courier,monospace;font-size:10px}#chart-2faba1b3-fb66-4e19-a7aa-f49571d821a3 .axis text.major{font-family:Consolas,"Liberation Mono",Menlo,Courier,monospace;font-size:10px}#chart-2faba1b3-fb66-4e19-a7aa-f49571d821a3 .text-overlay text.value{font-family:Consolas,"Liberation Mono",Menlo,Courier,monospace;font-size:16px}#chart-2faba1b3-fb66-4e19-a7aa-f49571d821a3 .text-overlay text.label{font-family:Consolas,"Liberation Mono",Menlo,Courier,monospace;font-size:10px}#chart-2faba1b3-fb66-4e19-a7aa-f49571d821a3 .tooltip{font-family:Consolas,"Liberation Mono",Menlo,Courier,monospace;font-size:14px}#chart-2faba1b3-fb66-4e19-a7aa-f49571d821a3 text.no_data{font-family:Consolas,"Liberation Mono",Menlo,Courier,monospace;font-size:64px}
#chart-2faba1b3-fb66-4e19-a7aa-f49571d821a3{background-color:rgba(249,249,249,1)}#chart-2faba1b3-fb66-4e19-a7aa-f49571d821a3 path,#chart-2faba1b3-fb66-4e19-a7aa-f49571d821a3 line,#chart-2faba1b3-fb66-4e19-a7aa-f49571d821a3 rect,#chart-2faba1b3-fb66-4e19-a7aa-f49571d821a3 circle{-webkit-transition:150ms;-moz-transition:150ms;transition:150ms}#chart-2faba1b3-fb66-4e19-a7aa-f49571d821a3 .graph &gt; .background{fill:rgba(249,249,249,1)}#chart-2faba1b3-fb66-4e19-a7aa-f49571d821a3 .plot &gt; .background{fill:rgba(255,255,255,1)}#chart-2faba1b3-fb66-4e19-a7aa-f49571d821a3 .graph{fill:rgba(0,0,0,.87)}#chart-2faba1b3-fb66-4e19-a7aa-f49571d821a3 text.no_data{fill:rgba(0,0,0,1)}#chart-2faba1b3-fb66-4e19-a7aa-f49571d821a3 .title{fill:rgba(0,0,0,1)}#chart-2faba1b3-fb66-4e19-a7aa-f49571d821a3 .legends .legend text{fill:rgba(0,0,0,.87)}#chart-2faba1b3-fb66-4e19-a7aa-f49571d821a3 .legends .legend:hover text{fill:rgba(0,0,0,1)}#chart-2faba1b3-fb66-4e19-a7aa-f49571d821a3 .axis .line{stroke:rgba(0,0,0,1)}#chart-2faba1b3-fb66-4e19-a7aa-f49571d821a3 .axis .guide.line{stroke:rgba(0,0,0,.54)}#chart-2faba1b3-fb66-4e19-a7aa-f49571d821a3 .axis .major.line{stroke:rgba(0,0,0,.87)}#chart-2faba1b3-fb66-4e19-a7aa-f49571d821a3 .axis text.major{fill:rgba(0,0,0,1)}#chart-2faba1b3-fb66-4e19-a7aa-f49571d821a3 .axis.y .guides:hover .guide.line,#chart-2faba1b3-fb66-4e19-a7aa-f49571d821a3 .line-graph .axis.x .guides:hover .guide.line,#chart-2faba1b3-fb66-4e19-a7aa-f49571d821a3 .stackedline-graph .axis.x .guides:hover .guide.line,#chart-2faba1b3-fb66-4e19-a7aa-f49571d821a3 .xy-graph .axis.x .guides:hover .guide.line{stroke:rgba(0,0,0,1)}#chart-2faba1b3-fb66-4e19-a7aa-f49571d821a3 .axis .guides:hover text{fill:rgba(0,0,0,1)}#chart-2faba1b3-fb66-4e19-a7aa-f49571d821a3 .reactive{fill-opacity:.7;stroke-opacity:.8}#chart-2faba1b3-fb66-4e19-a7aa-f49571d821a3 .ci{stroke:rgba(0,0,0,.87)}#chart-2faba1b3-fb66-4e19-a7aa-f49571d821a3 .reactive.active,#chart-2faba1b3-fb66-4e19-a7aa-f49571d821a3 .active .reactive{fill-opacity:.8;stroke-opacity:.9;stroke-width:4}#chart-2faba1b3-fb66-4e19-a7aa-f49571d821a3 .ci .reactive.active{stroke-width:1.5}#chart-2faba1b3-fb66-4e19-a7aa-f49571d821a3 .series text{fill:rgba(0,0,0,1)}#chart-2faba1b3-fb66-4e19-a7aa-f49571d821a3 .tooltip rect{fill:rgba(255,255,255,1);stroke:rgba(0,0,0,1);-webkit-transition:opacity 150ms;-moz-transition:opacity 150ms;transition:opacity 150ms}#chart-2faba1b3-fb66-4e19-a7aa-f49571d821a3 .tooltip .label{fill:rgba(0,0,0,.87)}#chart-2faba1b3-fb66-4e19-a7aa-f49571d821a3 .tooltip .label{fill:rgba(0,0,0,.87)}#chart-2faba1b3-fb66-4e19-a7aa-f49571d821a3 .tooltip .legend{font-size:.8em;fill:rgba(0,0,0,.54)}#chart-2faba1b3-fb66-4e19-a7aa-f49571d821a3 .tooltip .x_label{font-size:.6em;fill:rgba(0,0,0,1)}#chart-2faba1b3-fb66-4e19-a7aa-f49571d821a3 .tooltip .xlink{font-size:.5em;text-decoration:underline}#chart-2faba1b3-fb66-4e19-a7aa-f49571d821a3 .tooltip .value{font-size:1.5em}#chart-2faba1b3-fb66-4e19-a7aa-f49571d821a3 .bound{font-size:.5em}#chart-2faba1b3-fb66-4e19-a7aa-f49571d821a3 .max-value{font-size:.75em;fill:rgba(0,0,0,.54)}#chart-2faba1b3-fb66-4e19-a7aa-f49571d821a3 .map-element{fill:rgba(255,255,255,1);stroke:rgba(0,0,0,.54) !important}#chart-2faba1b3-fb66-4e19-a7aa-f49571d821a3 .map-element .reactive{fill-opacity:inherit;stroke-opacity:inherit}#chart-2faba1b3-fb66-4e19-a7aa-f49571d821a3 .color-0,#chart-2faba1b3-fb66-4e19-a7aa-f49571d821a3 .color-0 a:visited{stroke:#909090;fill:#909090}#chart-2faba1b3-fb66-4e19-a7aa-f49571d821a3 .color-1,#chart-2faba1b3-fb66-4e19-a7aa-f49571d821a3 .color-1 a:visited{stroke:#000000;fill:#000000}#chart-2faba1b3-fb66-4e19-a7aa-f49571d821a3 .color-2,#chart-2faba1b3-fb66-4e19-a7aa-f49571d821a3 .color-2 a:visited{stroke:#ff0500;fill:#ff0500}#chart-2faba1b3-fb66-4e19-a7aa-f49571d821a3 .color-3,#chart-2faba1b3-fb66-4e19-a7aa-f49571d821a3 .color-3 a:visited{stroke:#323299;fill:#323299}#chart-2faba1b3-fb66-4e19-a7aa-f49571d821a3 .color-4,#chart-2faba1b3-fb66-4e19-a7aa-f49571d821a3 .color-4 a:visited{stroke:#a3413f;fill:#a3413f}#chart-2faba1b3-fb66-4e19-a7aa-f49571d821a3 .color-5,#chart-2faba1b3-fb66-4e19-a7aa-f49571d821a3 .color-5 a:visited{stroke:#a3413f;fill:#a3413f}#chart-2faba1b3-fb66-4e19-a7aa-f49571d821a3 .color-6,#chart-2faba1b3-fb66-4e19-a7aa-f49571d821a3 .color-6 a:visited{stroke:#657fff;fill:#657fff}#chart-2faba1b3-fb66-4e19-a7aa-f49571d821a3 .color-7,#chart-2faba1b3-fb66-4e19-a7aa-f49571d821a3 .color-7 a:visited{stroke:#657fff;fill:#657fff}#chart-2faba1b3-fb66-4e19-a7aa-f49571d821a3 .text-overlay .color-0 text{fill:black}#chart-2faba1b3-fb66-4e19-a7aa-f49571d821a3 .text-overlay .color-1 text{fill:white}#chart-2faba1b3-fb66-4e19-a7aa-f49571d821a3 .text-overlay .color-2 text{fill:black}#chart-2faba1b3-fb66-4e19-a7aa-f49571d821a3 .text-overlay .color-3 text{fill:black}#chart-2faba1b3-fb66-4e19-a7aa-f49571d821a3 .text-overlay .color-4 text{fill:black}#chart-2faba1b3-fb66-4e19-a7aa-f49571d821a3 .text-overlay .color-5 text{fill:black}#chart-2faba1b3-fb66-4e19-a7aa-f49571d821a3 .text-overlay .color-6 text{fill:black}#chart-2faba1b3-fb66-4e19-a7aa-f49571d821a3 .text-overlay .color-7 text{fill:black}#chart-2faba1b3-fb66-4e19-a7aa-f49571d821a3 .series.serie-1{stroke-width:5}#chart-2faba1b3-fb66-4e19-a7aa-f49571d821a3 .series.serie-2{stroke-width:3}#chart-2faba1b3-fb66-4e19-a7aa-f49571d821a3 .series.serie-3{stroke-width:3}#chart-2faba1b3-fb66-4e19-a7aa-f49571d821a3 .series.serie-4{stroke-width:2;stroke-dasharray:2,2}#chart-2faba1b3-fb66-4e19-a7aa-f49571d821a3 .series.serie-5{stroke-width:2;stroke-dasharray:2,2}#chart-2faba1b3-fb66-4e19-a7aa-f49571d821a3 .series.serie-6{stroke-width:2;stroke-dasharray:2,2}#chart-2faba1b3-fb66-4e19-a7aa-f49571d821a3 .series.serie-7{stroke-width:2;stroke-dasharray:2,2}
#chart-2faba1b3-fb66-4e19-a7aa-f49571d821a3 text.no_data{text-anchor:middle}#chart-2faba1b3-fb66-4e19-a7aa-f49571d821a3 .guide.line{fill:none}#chart-2faba1b3-fb66-4e19-a7aa-f49571d821a3 .centered{text-anchor:middle}#chart-2faba1b3-fb66-4e19-a7aa-f49571d821a3 .title{text-anchor:middle}#chart-2faba1b3-fb66-4e19-a7aa-f49571d821a3 .legends .legend text{fill-opacity:1}#chart-2faba1b3-fb66-4e19-a7aa-f49571d821a3 .axis.x text{text-anchor:middle}#chart-2faba1b3-fb66-4e19-a7aa-f49571d821a3 .axis.x:not(.web) text[transform]{text-anchor:start}#chart-2faba1b3-fb66-4e19-a7aa-f49571d821a3 .axis.x:not(.web) text[transform].backwards{text-anchor:end}#chart-2faba1b3-fb66-4e19-a7aa-f49571d821a3 .axis.y text{text-anchor:end}#chart-2faba1b3-fb66-4e19-a7aa-f49571d821a3 .axis.y text[transform].backwards{text-anchor:start}#chart-2faba1b3-fb66-4e19-a7aa-f49571d821a3 .axis.y2 text{text-anchor:start}#chart-2faba1b3-fb66-4e19-a7aa-f49571d821a3 .axis.y2 text[transform].backwards{text-anchor:end}#chart-2faba1b3-fb66-4e19-a7aa-f49571d821a3 .axis .guide.line{stroke-dasharray:4,4}#chart-2faba1b3-fb66-4e19-a7aa-f49571d821a3 .axis .major.guide.line{stroke-dasharray:6,6}#chart-2faba1b3-fb66-4e19-a7aa-f49571d821a3 .horizontal .axis.y .guide.line,#chart-2faba1b3-fb66-4e19-a7aa-f49571d821a3 .horizontal .axis.y2 .guide.line,#chart-2faba1b3-fb66-4e19-a7aa-f49571d821a3 .vertical .axis.x .guide.line{opacity:0}#chart-2faba1b3-fb66-4e19-a7aa-f49571d821a3 .horizontal .axis.always_show .guide.line,#chart-2faba1b3-fb66-4e19-a7aa-f49571d821a3 .vertical .axis.always_show .guide.line{opacity:1 !important}#chart-2faba1b3-fb66-4e19-a7aa-f49571d821a3 .axis.y .guides:hover .guide.line,#chart-2faba1b3-fb66-4e19-a7aa-f49571d821a3 .axis.y2 .guides:hover .guide.line,#chart-2faba1b3-fb66-4e19-a7aa-f49571d821a3 .axis.x .guides:hover .guide.line{opacity:1}#chart-2faba1b3-fb66-4e19-a7aa-f49571d821a3 .axis .guides:hover text{opacity:1}#chart-2faba1b3-fb66-4e19-a7aa-f49571d821a3 .nofill{fill:none}#chart-2faba1b3-fb66-4e19-a7aa-f49571d821a3 .subtle-fill{fill-opacity:.2}#chart-2faba1b3-fb66-4e19-a7aa-f49571d821a3 .dot{stroke-width:1px;fill-opacity:1}#chart-2faba1b3-fb66-4e19-a7aa-f49571d821a3 .dot.active{stroke-width:5px}#chart-2faba1b3-fb66-4e19-a7aa-f49571d821a3 .dot.negative{fill:transparent}#chart-2faba1b3-fb66-4e19-a7aa-f49571d821a3 text,#chart-2faba1b3-fb66-4e19-a7aa-f49571d821a3 tspan{stroke:none !important}#chart-2faba1b3-fb66-4e19-a7aa-f49571d821a3 .series text.active{opacity:1}#chart-2faba1b3-fb66-4e19-a7aa-f49571d821a3 .tooltip rect{fill-opacity:.95;stroke-width:.5}#chart-2faba1b3-fb66-4e19-a7aa-f49571d821a3 .tooltip text{fill-opacity:1}#chart-2faba1b3-fb66-4e19-a7aa-f49571d821a3 .showable{visibility:hidden}#chart-2faba1b3-fb66-4e19-a7aa-f49571d821a3 .showable.shown{visibility:visible}#chart-2faba1b3-fb66-4e19-a7aa-f49571d821a3 .gauge-background{fill:rgba(229,229,229,1);stroke:none}#chart-2faba1b3-fb66-4e19-a7aa-f49571d821a3 .bg-lines{stroke:rgba(249,249,249,1);stroke-width:2px}</style><script type="text/javascript">window.pygal = window.pygal || {};window.pygal.config = window.pygal.config || {};window.pygal.config['2faba1b3-fb66-4e19-a7aa-f49571d821a3'] = {"height": 600, "margin": 20, "no_data_text": "No data", "min_scale": 4, "tooltip_border_radius": 0, "print_zeroes": true, "margin_left": null, "tooltip_fancy_mode": true, "stack_from_top": false, "title": "Iteration #2", "y_labels_major_count": null, "fill": false, "stroke_style": null, "print_values": false, "y_labels_major_every": null, "dots_size": 2.5, "x_labels_major_count": null, "legend_box_size": 12, "legends": ["Data", "GMM", "i=0", "i=1", "i=0 k=0", "i=0 k=1", "i=1 k=0", "i=1 k=1"], "pretty_print": false, "print_labels": false, "range": [0, 0.27578580090479526], "y_label_rotation": 0, "margin_bottom": null, "x_labels_major_every": 2, "include_x_axis": false, "legend_at_bottom": false, "zero": 0, "show_legend": true, "y_labels": null, "strict": false, "box_mode": "extremes", "show_minor_y_labels": true, "show_minor_x_labels": false, "secondary_range": null, "show_dots": false, "order_min": null, "margin_top": null, "truncate_legend": null, "spacing": 10, "classes": ["pygal-chart"], "margin_right": null, "allow_interruptions": false, "interpolation_parameters": {}, "max_scale": 16, "js": ["//kozea.github.io/pygal.js/2.0.x/pygal-tooltips.min.js"], "css": ["file://style.css", "file://graph.css"], "truncate_label": null, "show_y_labels": true, "show_only_major_dots": false, "x_title": "Observation", "x_label_rotation": 60, "formatter": null, "disable_xml_declaration": false, "legend_at_bottom_columns": null, "stroke": true, "print_values_position": "center", "y_title": "Density", "y_labels_major": null, "inner_radius": 0, "defs": [], "dynamic_print_values": false, "half_pie": false, "interpolation_precision": 250, "logarithmic": false, "rounded_bars": null, "x_labels_major": null, "show_x_guides": false, "missing_value_fill_truncation": "x", "x_labels": ["-8.96", "-8.76", "-8.56", "-8.36", "-8.16", "-7.96", "-7.76", "-7.56", "-7.36", "-7.16", "-6.96", "-6.76", "-6.56", "-6.36", "-6.16", "-5.96", "-5.76", "-5.56", "-5.36", "-5.16", "-4.96", "-4.76", "-4.56", "-4.36", "-4.16", "-3.96", "-3.76", "-3.56", "-3.36", "-3.16", "-2.96", "-2.76", "-2.56", "-2.36", "-2.16", "-1.96", "-1.76", "-1.56", "-1.36", "-1.16", "-0.96", "-0.76", "-0.56", "-0.36", "-0.16", "0.04", "0.24", "0.44", "0.64", "0.84", "1.04", "1.24", "1.43", "1.63", "1.83", "2.03", "2.23", "2.43", "2.63", "2.83"], "no_prefix": false, "width": 800, "force_uri_protocol": "https", "inverse_y_axis": false, "show_y_guides": true, "xrange": null, "show_x_labels": true, "interpolate": null, "style": {"major_label_font_size": 10, "guide_stroke_dasharray": "4,4", "major_label_font_family": "Consolas, \"Liberation Mono\", Menlo, Courier, monospace", "transition": "150ms", "background": "rgba(249, 249, 249, 1)", "foreground_strong": "rgba(0, 0, 0, 1)", "plot_background": "rgba(255, 255, 255, 1)", "value_font_family": "Consolas, \"Liberation Mono\", Menlo, Courier, monospace", "stroke_opacity": ".8", "ci_colors": [], "foreground_subtle": "rgba(0, 0, 0, .54)", "value_font_size": 16, "title_font_family": "Consolas, \"Liberation Mono\", Menlo, Courier, monospace", "title_font_size": 16, "tooltip_font_size": 14, "colors": ["#909090", "#000000", "#ff0500", "#323299", "#a3413f", "#a3413f", "#657fff", "#657fff"], "opacity": ".7", "label_font_family": "Consolas, \"Liberation Mono\", Menlo, Courier, monospace", "value_label_font_family": "Consolas, \"Liberation Mono\", Menlo, Courier, monospace", "foreground": "rgba(0, 0, 0, .87)", "stroke_opacity_hover": ".9", "value_label_font_size": 10, "font_family": "Consolas, \"Liberation Mono\", Menlo, Courier, monospace", "legend_font_size": 10, "tooltip_font_family": "Consolas, \"Liberation Mono\", Menlo, Courier, monospace", "no_data_font_size": 64, "major_guide_stroke_dasharray": "6,6", "opacity_hover": ".8", "legend_font_family": "Consolas, \"Liberation Mono\", Menlo, Courier, monospace", "value_colors": [], "label_font_size": 10, "no_data_font_family": "Consolas, \"Liberation Mono\", Menlo, Courier, monospace", "value_background": "rgba(229, 229, 229, 1)"}, "explicit_size": false}</script><script type="text/javascript" xlink:href="https://kozea.github.io/pygal.js/2.0.x/pygal-tooltips.min.js" /></defs><title>Iteration #2</title><g class="graph line-graph vertical"><rect class="background" height="600" width="800" x="0" y="0" /><g class="plot" transform="translate(144, 46)"><rect class="background" height="472.01923788646684" width="636.0" x="0" y="0" /><g class="axis y always_show"><g class="guides"><path class="axis major line" d="M0.000000 462.941945 h636.000000" /><text class="major" x="-5" y="466.44194485">0</text><title>0</title></g><g class="guides"><path class="guide line" d="M0.000000 430.027658 h636.000000" /><text class="" x="-5" y="433.527657724">0.02</text><title>0.02</title></g><g class="guides"><path class="guide line" d="M0.000000 397.113371 h636.000000" /><text class="" x="-5" y="400.613370598">0.04</text><title>0.04</title></g><g class="guides"><path class="guide line" d="M0.000000 364.199083 h636.000000" /><text class="" x="-5" y="367.699083472">0.06</text><title>0.06</title></g><g class="guides"><path class="guide line" d="M0.000000 331.284796 h636.000000" /><text class="" x="-5" y="334.784796346">0.08</text><title>0.08</title></g><g class="guides"><path class="guide line" d="M0.000000 298.370509 h636.000000" /><text class="" x="-5" y="301.87050922">0.1</text><title>0.1</title></g><g class="guides"><path class="guide line" d="M0.000000 265.456222 h636.000000" /><text class="" x="-5" y="268.956222094">0.12</text><title>0.12</title></g><g class="guides"><path class="guide line" d="M0.000000 232.541935 h636.000000" /><text class="" x="-5" y="236.041934968">0.14</text><title>0.14</title></g><g class="guides"><path class="guide line" d="M0.000000 199.627648 h636.000000" /><text class="" x="-5" y="203.127647841">0.16</text><title>0.16</title></g><g class="guides"><path class="guide line" d="M0.000000 166.713361 h636.000000" /><text class="" x="-5" y="170.213360715">0.18</text><title>0.18</title></g><g class="guides"><path class="guide line" d="M0.000000 133.799074 h636.000000" /><text class="" x="-5" y="137.299073589">0.2</text><title>0.2</title></g><g class="guides"><path class="guide line" d="M0.000000 100.884786 h636.000000" /><text class="" x="-5" y="104.384786463">0.22</text><title>0.22</title></g><g class="guides"><path class="guide line" d="M0.000000 67.970499 h636.000000" /><text class="" x="-5" y="71.4704993371">0.24</text><title>0.24</title></g><g class="guides"><path class="guide line" d="M0.000000 35.056212 h636.000000" /><text class="" x="-5" y="38.5562122111">0.26</text><title>0.26</title></g></g><g class="axis x"><g class="guides"><path class="major line" d="M12.230769 0.000000 v472.019238" /><text class="major" transform="rotate(60 12.230769 487.019238)" x="12.230769230769232" y="487.01923788646684">-8.96</text></g><g class="guides"><path class="major guide line" d="M32.960887 0.000000 v472.019238" /><text class="major" transform="rotate(60 32.960887 487.019238)" x="32.96088657105606" y="487.01923788646684">-8.56</text></g><g class="guides"><path class="major guide line" d="M53.691004 0.000000 v472.019238" /><text class="major" transform="rotate(60 53.691004 487.019238)" x="53.6910039113429" y="487.01923788646684">-8.16</text></g><g class="guides"><path class="major guide line" d="M74.421121 0.000000 v472.019238" /><text class="major" transform="rotate(60 74.421121 487.019238)" x="74.42112125162973" y="487.01923788646684">-7.76</text></g><g class="guides"><path class="major guide line" d="M95.151239 0.000000 v472.019238" /><text class="major" transform="rotate(60 95.151239 487.019238)" x="95.15123859191655" y="487.01923788646684">-7.36</text></g><g class="guides"><path class="major guide line" d="M115.881356 0.000000 v472.019238" /><text class="major" transform="rotate(60 115.881356 487.019238)" x="115.88135593220338" y="487.01923788646684">-6.96</text></g><g class="guides"><path class="major guide line" d="M136.611473 0.000000 v472.019238" /><text class="major" transform="rotate(60 136.611473 487.019238)" x="136.61147327249023" y="487.01923788646684">-6.56</text></g><g class="guides"><path class="major guide line" d="M157.341591 0.000000 v472.019238" /><text class="major" transform="rotate(60 157.341591 487.019238)" x="157.34159061277705" y="487.01923788646684">-6.16</text></g><g class="guides"><path class="major guide line" d="M178.071708 0.000000 v472.019238" /><text class="major" transform="rotate(60 178.071708 487.019238)" x="178.0717079530639" y="487.01923788646684">-5.76</text></g><g class="guides"><path class="major guide line" d="M198.801825 0.000000 v472.019238" /><text class="major" transform="rotate(60 198.801825 487.019238)" x="198.80182529335073" y="487.01923788646684">-5.36</text></g><g class="guides"><path class="major guide line" d="M219.531943 0.000000 v472.019238" /><text class="major" transform="rotate(60 219.531943 487.019238)" x="219.53194263363756" y="487.01923788646684">-4.96</text></g><g class="guides"><path class="major guide line" d="M240.262060 0.000000 v472.019238" /><text class="major" transform="rotate(60 240.262060 487.019238)" x="240.2620599739244" y="487.01923788646684">-4.56</text></g><g class="guides"><path class="major guide line" d="M260.992177 0.000000 v472.019238" /><text class="major" transform="rotate(60 260.992177 487.019238)" x="260.99217731421123" y="487.01923788646684">-4.16</text></g><g class="guides"><path class="major guide line" d="M281.722295 0.000000 v472.019238" /><text class="major" transform="rotate(60 281.722295 487.019238)" x="281.722294654498" y="487.01923788646684">-3.76</text></g><g class="guides"><path class="major guide line" d="M302.452412 0.000000 v472.019238" /><text class="major" transform="rotate(60 302.452412 487.019238)" x="302.4524119947849" y="487.01923788646684">-3.36</text></g><g class="guides"><path class="major guide line" d="M323.182529 0.000000 v472.019238" /><text class="major" transform="rotate(60 323.182529 487.019238)" x="323.1825293350717" y="487.01923788646684">-2.96</text></g><g class="guides"><path class="major guide line" d="M343.912647 0.000000 v472.019238" /><text class="major" transform="rotate(60 343.912647 487.019238)" x="343.91264667535853" y="487.01923788646684">-2.56</text></g><g class="guides"><path class="major guide line" d="M364.642764 0.000000 v472.019238" /><text class="major" transform="rotate(60 364.642764 487.019238)" x="364.64276401564535" y="487.01923788646684">-2.16</text></g><g class="guides"><path class="major guide line" d="M385.372881 0.000000 v472.019238" /><text class="major" transform="rotate(60 385.372881 487.019238)" x="385.37288135593224" y="487.01923788646684">-1.76</text></g><g class="guides"><path class="major guide line" d="M406.102999 0.000000 v472.019238" /><text class="major" transform="rotate(60 406.102999 487.019238)" x="406.102998696219" y="487.01923788646684">-1.36</text></g><g class="guides"><path class="major guide line" d="M426.833116 0.000000 v472.019238" /><text class="major" transform="rotate(60 426.833116 487.019238)" x="426.8331160365058" y="487.01923788646684">-0.96</text></g><g class="guides"><path class="major guide line" d="M447.563233 0.000000 v472.019238" /><text class="major" transform="rotate(60 447.563233 487.019238)" x="447.56323337679265" y="487.01923788646684">-0.56</text></g><g class="guides"><path class="major guide line" d="M468.293351 0.000000 v472.019238" /><text class="major" transform="rotate(60 468.293351 487.019238)" x="468.29335071707953" y="487.01923788646684">-0.16</text></g><g class="guides"><path class="major guide line" d="M489.023468 0.000000 v472.019238" /><text class="major" transform="rotate(60 489.023468 487.019238)" x="489.02346805736636" y="487.01923788646684">0.24</text></g><g class="guides"><path class="major guide line" d="M509.753585 0.000000 v472.019238" /><text class="major" transform="rotate(60 509.753585 487.019238)" x="509.75358539765324" y="487.01923788646684">0.64</text></g><g class="guides"><path class="major guide line" d="M530.483703 0.000000 v472.019238" /><text class="major" transform="rotate(60 530.483703 487.019238)" x="530.48370273794" y="487.01923788646684">1.04</text></g><g class="guides"><path class="major guide line" d="M551.213820 0.000000 v472.019238" /><text class="major" transform="rotate(60 551.213820 487.019238)" x="551.213820078227" y="487.01923788646684">1.43</text></g><g class="guides"><path class="major guide line" d="M571.943937 0.000000 v472.019238" /><text class="major" transform="rotate(60 571.943937 487.019238)" x="571.9439374185138" y="487.01923788646684">1.83</text></g><g class="guides"><path class="major guide line" d="M592.674055 0.000000 v472.019238" /><text class="major" transform="rotate(60 592.674055 487.019238)" x="592.6740547588006" y="487.01923788646684">2.23</text></g><g class="guides"><path class="major guide line" d="M613.404172 0.000000 v472.019238" /><text class="major" transform="rotate(60 613.404172 487.019238)" x="613.4041720990874" y="487.01923788646684">2.63</text></g></g><g class="series serie-0 color-0"><path class="line reactive" d="M12.230769 462.941945 L12.230769 462.019456 22.595828 462.941945 32.960887 461.096967 43.325945 462.019456 53.691004 459.251988 64.056063 462.019456 74.421121 458.329499 84.786180 462.019456 95.151239 458.329499 105.516297 462.019456 115.881356 448.182119 126.246415 460.174477 136.611473 457.407010 146.976532 457.407010 157.341591 451.872075 167.706649 448.182119 178.071708 454.639543 188.436767 445.414651 198.801825 442.647184 209.166884 436.189760 219.531943 437.112249 229.897001 392.832771 240.262060 396.522728 250.627119 376.227967 260.992177 355.933206 271.357236 351.320760 281.722295 325.491065 292.087353 277.521630 302.452412 283.056565 312.817471 202.800010 323.182529 188.040184 333.547588 169.590402 343.912647 123.465945 354.277705 95.791271 364.642764 67.194108 375.007823 82.876423 385.372881 60.736684 395.737940 80.108956 406.102999 29.372054 416.468057 9.077293 426.833116 70.884065 437.198175 69.039086 447.563233 41.364413 457.928292 40.441923 468.293351 91.178826 478.658409 140.993239 489.023468 214.792369 499.388527 259.071847 509.753585 321.801108 520.118644 364.235608 530.483703 408.515086 540.848761 430.654825 551.213820 448.182119 561.578879 455.562032 571.943937 458.329499 582.308996 458.329499 592.674055 462.019456 603.039113 462.941945 613.404172 462.019456 623.769231 462.941945" /></g><g class="series serie-1 color-1"><path class="line reactive nofill" d="M12.230769 462.935211 L22.595828 462.929106 32.960887 462.917996 43.325945 462.898235 53.691004 462.863885 64.056063 462.805546 74.421121 462.708739 84.786180 462.551804 95.151239 462.303297 105.516297 461.918944 115.881356 461.338378 126.246415 460.481981 136.611473 459.248327 146.976532 457.512802 157.341591 455.127963 167.706649 451.926008 178.071708 447.723350 188.436767 442.326811 198.801825 435.540452 209.166884 427.171944 219.531943 417.037805 229.897001 404.968132 240.262060 390.813323 250.627119 374.457096 260.992177 355.840664 271.357236 335.000709 281.722295 312.118044 292.087353 287.565123 302.452412 261.931436 312.817471 236.001112 323.182529 210.661654 333.547588 186.740458 343.912647 164.795444 354.277705 144.920959 364.642764 126.656394 375.007823 109.085425 385.372881 91.173212 395.737940 72.304284 406.102999 52.874571 416.468057 34.702499 426.833116 21.014943 437.198175 15.873987 447.563233 23.124842 457.928292 45.179152 468.293351 82.078865 478.658409 131.223236 489.023468 187.892630 499.388527 246.382137 509.753585 301.325918 520.118644 348.759540 530.483703 386.629390 540.848761 414.711790 551.213820 434.117570 561.578879 446.647021 571.943937 454.222877 582.308996 458.521755 592.674055 460.815912 603.039113 461.969921 613.404172 462.518448 623.769231 462.765534" /></g><g class="series serie-2 color-2"><path class="line reactive nofill" d="M12.230769 462.941945 L22.595828 462.941945 32.960887 462.941945 43.325945 462.941945 53.691004 462.941945 64.056063 462.941945 74.421121 462.941945 84.786180 462.941945 95.151239 462.941945 105.516297 462.941945 115.881356 462.941945 126.246415 462.941945 136.611473 462.941945 146.976532 462.941944 157.341591 462.941942 167.706649 462.941935 178.071708 462.941909 188.436767 462.941828 198.801825 462.941578 209.166884 462.940847 219.531943 462.938815 229.897001 462.933438 240.262060 462.919894 250.627119 462.887412 260.992177 462.813232 271.357236 462.651862 281.722295 462.317342 292.087353 461.656188 302.452412 460.409685 312.817471 458.166775 323.182529 454.313630 333.547588 447.993348 343.912647 438.098633 354.277705 423.329676 364.642764 402.353724 375.007823 374.093784 385.372881 338.141935 395.737940 295.233950 406.102999 247.648231 416.468057 199.336991 426.833116 155.608846 437.198175 122.293314 447.563233 104.515212 457.928292 105.413173 468.293351 125.238922 478.658409 161.190712 489.023468 208.076782 499.388527 259.587155 509.753585 309.730635 520.118644 353.973334 530.483703 389.788073 540.848761 416.584644 551.213820 435.206677 561.578879 447.269416 571.943937 454.572999 582.308996 458.715875 592.674055 460.922066 603.039113 462.027186 613.404172 462.548913 623.769231 462.781506" /></g><g class="series serie-3 color-3"><path class="line reactive nofill" d="M12.230769 462.935211 L22.595828 462.929106 32.960887 462.917996 43.325945 462.898235 53.691004 462.863885 64.056063 462.805546 74.421121 462.708739 84.786180 462.551804 95.151239 462.303297 105.516297 461.918944 115.881356 461.338378 126.246415 460.481981 136.611473 459.248327 146.976532 457.512803 157.341591 455.127966 167.706649 451.926018 178.071708 447.723386 188.436767 442.326928 198.801825 435.540820 209.166884 427.173042 219.531943 417.040935 229.897001 404.976639 240.262060 390.835374 250.627119 374.511629 260.992177 355.969378 271.357236 335.290791 281.722295 312.742647 292.087353 288.850879 302.452412 264.463697 312.817471 240.776282 323.182529 219.289968 333.547588 201.689055 343.912647 189.638756 354.277705 184.533228 364.642764 187.244615 375.007823 197.933586 385.372881 215.973222 395.737940 240.012279 406.102999 268.168285 416.468057 298.307452 426.833116 328.348041 437.198175 356.522618 447.563233 381.551574 457.928292 402.707924 468.293351 419.781888 478.658409 432.974469 489.023468 442.757793 499.388527 449.736927 509.753585 454.537228 520.118644 457.728151 530.483703 459.783261 540.848761 461.069091 551.213820 461.852838 561.578879 462.319550 571.943937 462.591823 582.308996 462.747825 592.674055 462.835791 603.039113 462.884680 613.404172 462.911480 623.769231 462.925972" /></g><g class="series serie-4 color-4"><path class="line reactive nofill" d="M12.230769 462.941945 L22.595828 462.941945 32.960887 462.941945 43.325945 462.941945 53.691004 462.941945 64.056063 462.941945 74.421121 462.941945 84.786180 462.941945 95.151239 462.941945 105.516297 462.941945 115.881356 462.941945 126.246415 462.941945 136.611473 462.941945 146.976532 462.941944 157.341591 462.941942 167.706649 462.941935 178.071708 462.941909 188.436767 462.941828 198.801825 462.941578 209.166884 462.940849 219.531943 462.938824 229.897001 462.933476 240.262060 462.920041 250.627119 462.887954 260.992177 462.815109 271.357236 462.657967 281.722295 462.335972 292.087353 461.709562 302.452412 460.553245 312.817471 458.529274 323.182529 455.172943 333.547588 449.905691 343.912647 442.093953 354.277705 431.165926 364.642764 416.782712 375.007823 399.035960 385.372881 378.618504 395.737940 356.899690 406.102999 335.845492 416.468057 317.760288 426.833116 304.884880 437.198175 298.943428 447.563233 300.764754 457.928292 310.092640 468.293351 325.644957 478.658409 345.402837 489.023468 367.039955 499.388527 388.366356 509.753585 407.671927 520.118644 423.902255 530.483703 436.660638 540.848761 446.079855 551.213820 452.630971 561.578879 456.932812 571.943937 459.604241 582.308996 461.175062 592.674055 462.050507 603.039113 462.513299 613.404172 462.745505 623.769231 462.856145" /></g><g class="series serie-5 color-5"><path class="line reactive nofill" d="M12.230769 462.941945 L22.595828 462.941945 32.960887 462.941945 43.325945 462.941945 53.691004 462.941945 64.056063 462.941945 74.421121 462.941945 84.786180 462.941945 95.151239 462.941945 105.516297 462.941945 115.881356 462.941945 126.246415 462.941945 136.611473 462.941945 146.976532 462.941945 157.341591 462.941945 167.706649 462.941945 178.071708 462.941945 188.436767 462.941945 198.801825 462.941944 209.166884 462.941943 219.531943 462.941936 229.897001 462.941907 240.262060 462.941798 250.627119 462.941403 260.992177 462.940067 271.357236 462.935840 281.722295 462.923315 292.087353 462.888571 302.452412 462.798385 312.817471 462.579446 323.182529 462.082633 333.547588 461.029602 343.912647 458.946624 354.277705 455.105694 364.642764 448.512957 375.007823 437.999769 385.372881 422.465375 395.737940 401.276204 406.102999 374.744683 416.468057 344.518648 426.833116 313.665912 437.198175 286.291831 447.563233 266.692403 457.928292 258.262478 468.293351 262.535910 478.658409 278.729820 489.023468 303.978772 499.388527 334.162744 509.753585 365.000653 520.118644 393.013024 530.483703 416.069381 540.848761 433.446734 551.213820 445.517651 561.578879 453.278549 571.943937 457.910703 582.308996 460.482758 592.674055 461.813504 603.039113 462.455832 613.404172 462.745353 623.769231 462.867306" /></g><g class="series serie-6 color-6"><path class="line reactive nofill" d="M12.230769 462.935211 L22.595828 462.929106 32.960887 462.917996 43.325945 462.898235 53.691004 462.863887 64.056063 462.805553 74.421121 462.708759 84.786180 462.551867 95.151239 462.303476 105.516297 461.919440 115.881356 461.339702 126.246415 460.485374 136.611473 459.256688 146.976532 457.532610 157.341591 455.173078 167.706649 452.024801 178.071708 447.931344 188.436767 442.747833 198.801825 436.359859 209.166884 428.705315 219.531943 419.796933 229.897001 409.742412 240.262060 398.758551 250.627119 387.175802 260.992177 375.430407 271.357236 364.042674 281.722295 353.581945 292.087353 344.621020 302.452412 337.684876 312.817471 333.199949 323.182529 331.450790 333.547588 332.550186 343.912647 336.427129 354.277705 342.834406 364.642764 351.374680 375.007823 361.541247 385.372881 372.767653 395.737940 384.479439 406.102999 396.141517 416.468057 407.295944 426.833116 417.586827 437.198175 426.771297 447.563233 434.717597 457.928292 441.392843 468.293351 446.843939 478.658409 451.175301 489.023468 454.526622 499.388527 457.053148 509.753585 458.909949 520.118644 460.240780 530.483703 461.171347 540.848761 461.806343 551.213820 462.229305 561.578879 462.504370 571.943937 462.679057 582.308996 462.787409 592.674055 462.853061 603.039113 462.891924 613.404172 462.914401 623.769231 462.927105" /></g><g class="series serie-7 color-7"><path class="line reactive nofill" d="M12.230769 462.941945 L22.595828 462.941945 32.960887 462.941945 43.325945 462.941944 53.691004 462.941943 64.056063 462.941938 74.421121 462.941924 84.786180 462.941883 95.151239 462.941766 105.516297 462.941448 115.881356 462.940621 126.246415 462.938552 136.611473 462.933584 146.976532 462.922138 157.341591 462.896833 167.706649 462.843163 178.071708 462.733987 188.436767 462.521039 198.801825 462.122906 209.166884 461.409672 219.531943 460.185946 229.897001 458.176171 240.262060 455.018767 250.627119 450.277771 260.992177 443.480915 271.357236 434.190062 281.722295 422.102647 292.087353 407.171804 302.452412 389.720766 312.817471 370.518277 323.182529 350.781123 333.547588 332.080814 343.912647 316.153572 354.277705 304.640767 364.642764 298.811880 375.007823 299.334284 385.372881 306.147514 395.737940 318.474785 406.102999 334.968713 416.468057 353.953453 426.833116 373.703159 437.198175 392.693266 447.563233 409.775922 457.928292 424.257026 468.293351 435.879894 478.658409 444.741113 489.023468 451.173116 499.388527 455.625724 509.753585 458.569223 520.118644 460.429316 530.483703 461.553859 540.848761 462.204693 551.213820 462.565478 561.578879 462.757125 571.943937 462.854711 582.308996 462.902360 592.674055 462.924675 603.039113 462.934701 613.404172 462.939024 623.769231 462.940812" /></g></g><g class="titles"><text class="title plot_title" x="400.0" y="26">Iteration #2</text><text class="title" x="462.0" y="580.0">Observation</text><text class="title" transform="rotate(-90 64.000000 282.009619)" x="64.0" y="308.0096189432334">Density</text></g><g class="plot overlay" transform="translate(144, 46)"><g class="series serie-0 color-0" /><g class="series serie-1 color-1" /><g class="series serie-2 color-2" /><g class="series serie-3 color-3" /><g class="series serie-4 color-4" /><g class="series serie-5 color-5" /><g class="series serie-6 color-6" /><g class="series serie-7 color-7" /></g><g class="plot text-overlay" transform="translate(144, 46)"><g class="series serie-0 color-0" /><g class="series serie-1 color-1" /><g class="series serie-2 color-2" /><g class="series serie-3 color-3" /><g class="series serie-4 color-4" /><g class="series serie-5 color-5" /><g class="series serie-6 color-6" /><g class="series serie-7 color-7" /></g><g class="plot tooltip-overlay" transform="translate(144, 46)"><g class="tooltip" style="opacity: 0" transform="translate(0 0)"><rect class="tooltip-box" height="0" rx="0" ry="0" width="0" /><g class="text" /></g></g><g class="legends" transform="translate(10, 56)"><g class="legend reactive activate-serie" id="activate-serie-0"><rect class="color-0 reactive" height="12" width="12" x="0.0" y="0.0" /><text x="17.0" y="9.0">Data</text></g><g class="legend reactive activate-serie" id="activate-serie-1"><rect class="color-1 reactive" height="12" width="12" x="0.0" y="18.0" /><text x="17.0" y="27.0">GMM</text></g><g class="legend reactive activate-serie" id="activate-serie-2"><rect class="color-2 reactive" height="12" width="12" x="0.0" y="36.0" /><text x="17.0" y="45.0">i=0</text></g><g class="legend reactive activate-serie" id="activate-serie-3"><rect class="color-3 reactive" height="12" width="12" x="0.0" y="54.0" /><text x="17.0" y="63.0">i=1</text></g><g class="legend reactive activate-serie" id="activate-serie-4"><rect class="color-4 reactive" height="12" width="12" x="0.0" y="72.0" /><text x="17.0" y="81.0">i=0 k=0</text></g><g class="legend reactive activate-serie" id="activate-serie-5"><rect class="color-5 reactive" height="12" width="12" x="0.0" y="90.0" /><text x="17.0" y="99.0">i=0 k=1</text></g><g class="legend reactive activate-serie" id="activate-serie-6"><rect class="color-6 reactive" height="12" width="12" x="0.0" y="108.0" /><text x="17.0" y="117.0">i=1 k=0</text></g><g class="legend reactive activate-serie" id="activate-serie-7"><rect class="color-7 reactive" height="12" width="12" x="0.0" y="126.0" /><text x="17.0" y="135.0">i=1 k=1</text></g></g><g class="legends" transform="translate(790, 56)" /></g></svg>