<?xml version='1.0' encoding='utf-8'?>
<svg xmlns:xlink="http://www.w3.org/1999/xlink" class="pygal-chart" id="chart-cde12ae6-9eb0-46f8-bf4a-b376d9dd8e85" viewBox="0 0 800 600" xmlns="http://www.w3.org/2000/svg"><!--Generated with pygal 2.4.0 (etree) ©Kozea 2012-2016 on 2018-02-07--><!--http://pygal.org--><!--http://github.com/Kozea/pygal--><defs><style type="text/css">#chart-cde12ae6-9eb0-46f8-bf4a-b376d9dd8e85{-webkit-user-select:none;-webkit-font-smoothing:antialiased;font-family:Consolas,"Liberation Mono",Menlo,Courier,monospace}#chart-cde12ae6-9eb0-46f8-bf4a-b376d9dd8e85 .title{font-family:Consolas,"Liberation Mono",Menlo,Courier,monospace;font-size:16px}#chart-cde12ae6-9eb0-46f8-bf4a-b376d9dd8e85 .legends .legend text{font-family:Consolas,"Liberation Mono",Menlo,Courier,monospace;font-size:10px}#chart-cde12ae6-9eb0-46f8-bf4a-b376d9dd8e85 .axis text{font-family:Consolas,"Liberation Mono",Menlo,Courier,monospace;font-size:10px}#chart-cde12ae6-9eb0-46f8-bf4a-b376d9dd8e85 .axis text.major{font-family:Consolas,"Liberation Mono",Menlo,Courier,monospace;font-size:10px}#chart-cde12ae6-9eb0-46f8-bf4a-b376d9dd8e85 .text-overlay text.value{font-family:Consolas,"Liberation Mono",Menlo,Courier,monospace;font-size:16px}#chart-cde12ae6-9eb0-46f8-bf4a-b376d9dd8e85 .text-overlay text.label{font-family:Consolas,"Liberation Mono",Menlo,Courier,monospace;font-size:10px}#chart-cde12ae6-9eb0-46f8-bf4a-b376d9dd8e85 .tooltip{font-family:Consolas,"Liberation Mono",Menlo,Courier,monospace;font-size:14px}#chart-cde12ae6-9eb0-46f8-bf4a-b376d9dd8e85 text.no_data{font-family:Consolas,"Liberation Mono",Menlo,Courier,monospace;font-size:64px}
#chart-cde12ae6-9eb0-46f8-bf4a-b376d9dd8e85{background-color:rgba(249,249,249,1)}#chart-cde12ae6-9eb0-46f8-bf4a-b376d9dd8e85 path,#chart-cde12ae6-9eb0-46f8-bf4a-b376d9dd8e85 line,#chart-cde12ae6-9eb0-46f8-bf4a-b376d9dd8e85 rect,#chart-cde12ae6-9eb0-46f8-bf4a-b376d9dd8e85 circle{-webkit-transition:150ms;-moz-transition:150ms;transition:150ms}#chart-cde12ae6-9eb0-46f8-bf4a-b376d9dd8e85 .graph &gt; .background{fill:rgba(249,249,249,1)}#chart-cde12ae6-9eb0-46f8-bf4a-b376d9dd8e85 .plot &gt; .background{fill:rgba(255,255,255,1)}#chart-cde12ae6-9eb0-46f8-bf4a-b376d9dd8e85 .graph{fill:rgba(0,0,0,.87)}#chart-cde12ae6-9eb0-46f8-bf4a-b376d9dd8e85 text.no_data{fill:rgba(0,0,0,1)}#chart-cde12ae6-9eb0-46f8-bf4a-b376d9dd8e85 .title{fill:rgba(0,0,0,1)}#chart-cde12ae6-9eb0-46f8-bf4a-b376d9dd8e85 .legends .legend text{fill:rgba(0,0,0,.87)}#chart-cde12ae6-9eb0-46f8-bf4a-b376d9dd8e85 .legends .legend:hover text{fill:rgba(0,0,0,1)}#chart-cde12ae6-9eb0-46f8-bf4a-b376d9dd8e85 .axis .line{stroke:rgba(0,0,0,1)}#chart-cde12ae6-9eb0-46f8-bf4a-b376d9dd8e85 .axis .guide.line{stroke:rgba(0,0,0,.54)}#chart-cde12ae6-9eb0-46f8-bf4a-b376d9dd8e85 .axis .major.line{stroke:rgba(0,0,0,.87)}#chart-cde12ae6-9eb0-46f8-bf4a-b376d9dd8e85 .axis text.major{fill:rgba(0,0,0,1)}#chart-cde12ae6-9eb0-46f8-bf4a-b376d9dd8e85 .axis.y .guides:hover .guide.line,#chart-cde12ae6-9eb0-46f8-bf4a-b376d9dd8e85 .line-graph .axis.x .guides:hover .guide.line,#chart-cde12ae6-9eb0-46f8-bf4a-b376d9dd8e85 .stackedline-graph .axis.x .guides:hover .guide.line,#chart-cde12ae6-9eb0-46f8-bf4a-b376d9dd8e85 .xy-graph .axis.x .guides:hover .guide.line{stroke:rgba(0,0,0,1)}#chart-cde12ae6-9eb0-46f8-bf4a-b376d9dd8e85 .axis .guides:hover text{fill:rgba(0,0,0,1)}#chart-cde12ae6-9eb0-46f8-bf4a-b376d9dd8e85 .reactive{fill-opacity:.7;stroke-opacity:.8}#chart-cde12ae6-9eb0-46f8-bf4a-b376d9dd8e85 .ci{stroke:rgba(0,0,0,.87)}#chart-cde12ae6-9eb0-46f8-bf4a-b376d9dd8e85 .reactive.active,#chart-cde12ae6-9eb0-46f8-bf4a-b376d9dd8e85 .active .reactive{fill-opacity:.8;stroke-opacity:.9;stroke-width:4}#chart-cde12ae6-9eb0-46f8-bf4a-b376d9dd8e85 .ci .reactive.active{stroke-width:1.5}#chart-cde12ae6-9eb0-46f8-bf4a-b376d9dd8e85 .series text{fill:rgba(0,0,0,1)}#chart-cde12ae6-9eb0-46f8-bf4a-b376d9dd8e85 .tooltip rect{fill:rgba(255,255,255,1);stroke:rgba(0,0,0,1);-webkit-transition:opacity 150ms;-moz-transition:opacity 150ms;transition:opacity 150ms}#chart-cde12ae6-9eb0-46f8-bf4a-b376d9dd8e85 .tooltip .label{fill:rgba(0,0,0,.87)}#chart-cde12ae6-9eb0-46f8-bf4a-b376d9dd8e85 .tooltip .label{fill:rgba(0,0,0,.87)}#chart-cde12ae6-9eb0-46f8-bf4a-b376d9dd8e85 .tooltip .legend{font-size:.8em;fill:rgba(0,0,0,.54)}#chart-cde12ae6-9eb0-46f8-bf4a-b376d9dd8e85 .tooltip .x_label{font-size:.6em;fill:rgba(0,0,0,1)}#chart-cde12ae6-9eb0-46f8-bf4a-b376d9dd8e85 .tooltip .xlink{font-size:.5em;text-decoration:underline}#chart-cde12ae6-9eb0-46f8-bf4a-b376d9dd8e85 .tooltip .value{font-size:1.5em}#chart-cde12ae6-9eb0-46f8-bf4a-b376d9dd8e85 .bound{font-size:.5em}#chart-cde12ae6-9eb0-46f8-bf4a-b376d9dd8e85 .max-value{font-size:.75em;fill:rgba(0,0,0,.54)}#chart-cde12ae6-9eb0-46f8-bf4a-b376d9dd8e85 .map-element{fill:rgba(255,255,255,1);stroke:rgba(0,0,0,.54) !important}#chart-cde12ae6-9eb0-46f8-bf4a-b376d9dd8e85 .map-element .reactive{fill-opacity:inherit;stroke-opacity:inherit}#chart-cde12ae6-9eb0-46f8-bf4a-b376d9dd8e85 .color-0,#chart-cde12ae6-9eb0-46f8-bf4a-b376d9dd8e85 .color-0 a:visited{stroke:#909090;fill:#909090}#chart-cde12ae6-9eb0-46f8-bf4a-b376d9dd8e85 .color-1,#chart-cde12ae6-9eb0-46f8-bf4a-b376d9dd8e85 .color-1 a:visited{stroke:#000000;fill:#000000}#chart-cde12ae6-9eb0-46f8-bf4a-b376d9dd8e85 .color-2,#chart-cde12ae6-9eb0-46f8-bf4a-b376d9dd8e85 .color-2 a:visited{stroke:#ff0500;fill:#ff0500}#chart-cde12ae6-9eb0-46f8-bf4a-b376d9dd8e85 .color-3,#chart-cde12ae6-9eb0-46f8-bf4a-b376d9dd8e85 .color-3 a:visited{stroke:#323299;fill:#323299}#chart-cde12ae6-9eb0-46f8-bf4a-b376d9dd8e85 .color-4,#chart-cde12ae6-9eb0-46f8-bf4a-b376d9dd8e85 .color-4 a:visited{stroke:#a3413f;fill:#a3413f}#chart-cde12ae6-9eb0-46f8-bf4a-b376d9dd8e85 .color-5,#chart-cde12ae6-9eb0-46f8-bf4a-b376d9dd8e85 .color-5 a:visited{stroke:#a3413f;fill:#a3413f}#chart-cde12ae6-9eb0-46f8-bf4a-b376d9dd8e85 .color-6,#chart-cde12ae6-9eb0-46f8-bf4a-b376d9dd8e85 .color-6 a:visited{stroke:#657fff;fill:#657fff}#chart-cde12ae6-9eb0-46f8-bf4a-b376d9dd8e85 .color-7,#chart-cde12ae6-9eb0-46f8-bf4a-b376d9dd8e85 .color-7 a:visited{stroke:#657fff;fill:#657fff}#chart-cde12ae6-9eb0-46f8-bf4a-b376d9dd8e85 .text-overlay .color-0 text{fill:black}#chart-cde12ae6-9eb0-46f8-bf4a-b376d9dd8e85 .text-overlay .color-1 text{fill:white}#chart-cde12ae6-9eb0-46f8-bf4a-b376d9dd8e85 .text-overlay .color-2 text{fill:black}#chart-cde12ae6-9eb0-46f8-bf4a-b376d9dd8e85 .text-overlay .color-3 text{fill:black}#chart-cde12ae6-9eb0-46f8-bf4a-b376d9dd8e85 .text-overlay .color-4 text{fill:black}#chart-cde12ae6-9eb0-46f8-bf4a-b376d9dd8e85 .text-overlay .color-5 text{fill:black}#chart-cde12ae6-9eb0-46f8-bf4a-b376d9dd8e85 .text-overlay .color-6 text{fill:black}#chart-cde12ae6-9eb0-46f8-bf4a-b376d9dd8e85 .text-overlay .color-7 text{fill:black}#chart-cde12ae6-9eb0-46f8-bf4a-b376d9dd8e85 .series.serie-1{stroke-width:5}#chart-cde12ae6-9eb0-46f8-bf4a-b376d9dd8e85 .series.serie-2{stroke-width:3}#chart-cde12ae6-9eb0-46f8-bf4a-b376d9dd8e85 .series.serie-3{stroke-width:3}#chart-cde12ae6-9eb0-46f8-bf4a-b376d9dd8e85 .series.serie-4{stroke-width:2;stroke-dasharray:2,2}#chart-cde12ae6-9eb0-46f8-bf4a-b376d9dd8e85 .series.serie-5{stroke-width:2;stroke-dasharray:2,2}#chart-cde12ae6-9eb0-46f8-bf4a-b376d9dd8e85 .series.serie-6{stroke-width:2;stroke-dasharray:2,2}#chart-cde12ae6-9eb0-46f8-bf4a-b376d9dd8e85 .series.serie-7{stroke-width:2;stroke-dasharray:2,2}
#chart-cde12ae6-9eb0-46f8-bf4a-b376d9dd8e85 text.no_data{text-anchor:middle}#chart-cde12ae6-9eb0-46f8-bf4a-b376d9dd8e85 .guide.line{fill:none}#chart-cde12ae6-9eb0-46f8-bf4a-b376d9dd8e85 .centered{text-anchor:middle}#chart-cde12ae6-9eb0-46f8-bf4a-b376d9dd8e85 .title{text-anchor:middle}#chart-cde12ae6-9eb0-46f8-bf4a-b376d9dd8e85 .legends .legend text{fill-opacity:1}#chart-cde12ae6-9eb0-46f8-bf4a-b376d9dd8e85 .axis.x text{text-anchor:middle}#chart-cde12ae6-9eb0-46f8-bf4a-b376d9dd8e85 .axis.x:not(.web) text[transform]{text-anchor:start}#chart-cde12ae6-9eb0-46f8-bf4a-b376d9dd8e85 .axis.x:not(.web) text[transform].backwards{text-anchor:end}#chart-cde12ae6-9eb0-46f8-bf4a-b376d9dd8e85 .axis.y text{text-anchor:end}#chart-cde12ae6-9eb0-46f8-bf4a-b376d9dd8e85 .axis.y text[transform].backwards{text-anchor:start}#chart-cde12ae6-9eb0-46f8-bf4a-b376d9dd8e85 .axis.y2 text{text-anchor:start}#chart-cde12ae6-9eb0-46f8-bf4a-b376d9dd8e85 .axis.y2 text[transform].backwards{text-anchor:end}#chart-cde12ae6-9eb0-46f8-bf4a-b376d9dd8e85 .axis .guide.line{stroke-dasharray:4,4}#chart-cde12ae6-9eb0-46f8-bf4a-b376d9dd8e85 .axis .major.guide.line{stroke-dasharray:6,6}#chart-cde12ae6-9eb0-46f8-bf4a-b376d9dd8e85 .horizontal .axis.y .guide.line,#chart-cde12ae6-9eb0-46f8-bf4a-b376d9dd8e85 .horizontal .axis.y2 .guide.line,#chart-cde12ae6-9eb0-46f8-bf4a-b376d9dd8e85 .vertical .axis.x .guide.line{opacity:0}#chart-cde12ae6-9eb0-46f8-bf4a-b376d9dd8e85 .horizontal .axis.always_show .guide.line,#chart-cde12ae6-9eb0-46f8-bf4a-b376d9dd8e85 .vertical .axis.always_show .guide.line{opacity:1 !important}#chart-cde12ae6-9eb0-46f8-bf4a-b376d9dd8e85 .axis.y .guides:hover .guide.line,#chart-cde12ae6-9eb0-46f8-bf4a-b376d9dd8e85 .axis.y2 .guides:hover .guide.line,#chart-cde12ae6-9eb0-46f8-bf4a-b376d9dd8e85 .axis.x .guides:hover .guide.line{opacity:1}#chart-cde12ae6-9eb0-46f8-bf4a-b376d9dd8e85 .axis .guides:hover text{opacity:1}#chart-cde12ae6-9eb0-46f8-bf4a-b376d9dd8e85 .nofill{fill:none}#chart-cde12ae6-9eb0-46f8-bf4a-b376d9dd8e85 .subtle-fill{fill-opacity:.2}#chart-cde12ae6-9eb0-46f8-bf4a-b376d9dd8e85 .dot{stroke-width:1px;fill-opacity:1}#chart-cde12ae6-9eb0-46f8-bf4a-b376d9dd8e85 .dot.active{stroke-width:5px}#chart-cde12ae6-9eb0-46f8-bf4a-b376d9dd8e85 .dot.negative{fill:transparent}#chart-cde12ae6-9eb0-46f8-bf4a-b376d9dd8e85 text,#chart-cde12ae6-9eb0-46f8-bf4a-b376d9dd8e85 tspan{stroke:none !important}#chart-cde12ae6-9eb0-46f8-bf4a-b376d9dd8e85 .series text.active{opacity:1}#chart-cde12ae6-9eb0-46f8-bf4a-b376d9dd8e85 .tooltip rect{fill-opacity:.95;stroke-width:.5}#chart-cde12ae6-9eb0-46f8-bf4a-b376d9dd8e85 .tooltip text{fill-opacity:1}#chart-cde12ae6-9eb0-46f8-bf4a-b376d9dd8e85 .showable{visibility:hidden}#chart-cde12ae6-9eb0-46f8-bf4a-b376d9dd8e85 .showable.shown{visibility:visible}#chart-cde12ae6-9eb0-46f8-bf4a-b376d9dd8e85 .gauge-background{fill:rgba(229,229,229,1);stroke:none}#chart-cde12ae6-9eb0-46f8-bf4a-b376d9dd8e85 .bg-lines{stroke:rgba(249,249,249,1);stroke-width:2px}</style><script type="text/javascript">window.pygal = window.pygal || {};window.pygal.config = window.pygal.config || {};window.pygal.config['cde12ae6-9eb0-46f8-bf4a-b376d9dd8e85'] = {"y_labels": null, "no_prefix": false, "margin": 20, "css": ["file://style.css", "file://graph.css"], "show_minor_x_labels": false, "no_data_text": "No data", "inner_radius": 0, "truncate_label": null, "margin_right": null, "dynamic_print_values": false, "defs": [], "range": [0, 0.27578580090479526], "margin_top": null, "height": 600, "print_values_position": "center", "allow_interruptions": false, "show_legend": true, "interpolation_parameters": {}, "min_scale": 4, "x_title": "Observation", "y_label_rotation": 0, "dots_size": 2.5, "style": {"value_background": "rgba(229, 229, 229, 1)", "legend_font_size": 10, "foreground": "rgba(0, 0, 0, .87)", "background": "rgba(249, 249, 249, 1)", "value_colors": [], "stroke_opacity_hover": ".9", "label_font_family": "Consolas, \"Liberation Mono\", Menlo, Courier, monospace", "major_guide_stroke_dasharray": "6,6", "font_family": "Consolas, \"Liberation Mono\", Menlo, Courier, monospace", "label_font_size": 10, "foreground_subtle": "rgba(0, 0, 0, .54)", "opacity": ".7", "value_label_font_size": 10, "guide_stroke_dasharray": "4,4", "title_font_size": 16, "major_label_font_family": "Consolas, \"Liberation Mono\", Menlo, Courier, monospace", "stroke_opacity": ".8", "colors": ["#909090", "#000000", "#ff0500", "#323299", "#a3413f", "#a3413f", "#657fff", "#657fff"], "opacity_hover": ".8", "value_font_family": "Consolas, \"Liberation Mono\", Menlo, Courier, monospace", "foreground_strong": "rgba(0, 0, 0, 1)", "tooltip_font_size": 14, "no_data_font_size": 64, "legend_font_family": "Consolas, \"Liberation Mono\", Menlo, Courier, monospace", "tooltip_font_family": "Consolas, \"Liberation Mono\", Menlo, Courier, monospace", "value_label_font_family": "Consolas, \"Liberation Mono\", Menlo, Courier, monospace", "title_font_family": "Consolas, \"Liberation Mono\", Menlo, Courier, monospace", "ci_colors": [], "major_label_font_size": 10, "plot_background": "rgba(255, 255, 255, 1)", "no_data_font_family": "Consolas, \"Liberation Mono\", Menlo, Courier, monospace", "value_font_size": 16, "transition": "150ms"}, "x_labels_major_count": null, "tooltip_fancy_mode": true, "zero": 0, "stack_from_top": false, "explicit_size": false, "print_labels": false, "show_x_guides": false, "x_label_rotation": 60, "legend_at_bottom_columns": null, "width": 800, "x_labels": ["-8.96", "-8.76", "-8.56", "-8.36", "-8.16", "-7.96", "-7.76", "-7.56", "-7.36", "-7.16", "-6.96", "-6.76", "-6.56", "-6.36", "-6.16", "-5.96", "-5.76", "-5.56", "-5.36", "-5.16", "-4.96", "-4.76", "-4.56", "-4.36", "-4.16", "-3.96", "-3.76", "-3.56", "-3.36", "-3.16", "-2.96", "-2.76", "-2.56", "-2.36", "-2.16", "-1.96", "-1.76", "-1.56", "-1.36", "-1.16", "-0.96", "-0.76", "-0.56", "-0.36", "-0.16", "0.04", "0.24", "0.44", "0.64", "0.84", "1.04", "1.24", "1.43", "1.63", "1.83", "2.03", "2.23", "2.43", "2.63", "2.83"], "force_uri_protocol": "https", "rounded_bars": null, "missing_value_fill_truncation": "x", "stroke": true, "box_mode": "extremes", "xrange": null, "js": ["//kozea.github.io/pygal.js/2.0.x/pygal-tooltips.min.js"], "order_min": null, "margin_bottom": null, "fill": false, "logarithmic": false, "strict": false, "truncate_legend": null, "disable_xml_declaration": false, "max_scale": 16, "show_x_labels": true, "tooltip_border_radius": 0, "x_labels_major": null, "secondary_range": null, "classes": ["pygal-chart"], "y_labels_major": null, "print_values": false, "show_minor_y_labels": true, "y_labels_major_count": null, "y_title": "Density", "interpolate": null, "show_y_labels": true, "x_labels_major_every": 2, "print_zeroes": true, "pretty_print": false, "legend_box_size": 12, "show_only_major_dots": false, "interpolation_precision": 250, "spacing": 10, "show_y_guides": true, "margin_left": null, "inverse_y_axis": false, "show_dots": false, "legend_at_bottom": false, "formatter": null, "title": "Iteration #10", "y_labels_major_every": null, "include_x_axis": false, "legends": ["Data", "GMM", "i=0", "i=1", "i=0 k=0", "i=0 k=1", "i=1 k=0", "i=1 k=1"], "stroke_style": null, "half_pie": false}</script><script type="text/javascript" xlink:href="https://kozea.github.io/pygal.js/2.0.x/pygal-tooltips.min.js" /></defs><title>Iteration #10</title><g class="graph line-graph vertical"><rect class="background" height="600" width="800" x="0" y="0" /><g class="plot" transform="translate(144, 46)"><rect class="background" height="472.01923788646684" width="636.0" x="0" y="0" /><g class="axis y always_show"><g class="guides"><path class="axis major line" d="M0.000000 462.941945 h636.000000" /><text class="major" x="-5" y="466.44194485">0</text><title>0</title></g><g class="guides"><path class="guide line" d="M0.000000 430.027658 h636.000000" /><text class="" x="-5" y="433.527657724">0.02</text><title>0.02</title></g><g class="guides"><path class="guide line" d="M0.000000 397.113371 h636.000000" /><text class="" x="-5" y="400.613370598">0.04</text><title>0.04</title></g><g class="guides"><path class="guide line" d="M0.000000 364.199083 h636.000000" /><text class="" x="-5" y="367.699083472">0.06</text><title>0.06</title></g><g class="guides"><path class="guide line" d="M0.000000 331.284796 h636.000000" /><text class="" x="-5" y="334.784796346">0.08</text><title>0.08</title></g><g class="guides"><path class="guide line" d="M0.000000 298.370509 h636.000000" /><text class="" x="-5" y="301.87050922">0.1</text><title>0.1</title></g><g class="guides"><path class="guide line" d="M0.000000 265.456222 h636.000000" /><text class="" x="-5" y="268.956222094">0.12</text><title>0.12</title></g><g class="guides"><path class="guide line" d="M0.000000 232.541935 h636.000000" /><text class="" x="-5" y="236.041934968">0.14</text><title>0.14</title></g><g class="guides"><path class="guide line" d="M0.000000 199.627648 h636.000000" /><text class="" x="-5" y="203.127647841">0.16</text><title>0.16</title></g><g class="guides"><path class="guide line" d="M0.000000 166.713361 h636.000000" /><text class="" x="-5" y="170.213360715">0.18</text><title>0.18</title></g><g class="guides"><path class="guide line" d="M0.000000 133.799074 h636.000000" /><text class="" x="-5" y="137.299073589">0.2</text><title>0.2</title></g><g class="guides"><path class="guide line" d="M0.000000 100.884786 h636.000000" /><text class="" x="-5" y="104.384786463">0.22</text><title>0.22</title></g><g class="guides"><path class="guide line" d="M0.000000 67.970499 h636.000000" /><text class="" x="-5" y="71.4704993371">0.24</text><title>0.24</title></g><g class="guides"><path class="guide line" d="M0.000000 35.056212 h636.000000" /><text class="" x="-5" y="38.5562122111">0.26</text><title>0.26</title></g></g><g class="axis x"><g class="guides"><path class="major line" d="M12.230769 0.000000 v472.019238" /><text class="major" transform="rotate(60 12.230769 487.019238)" x="12.230769230769232" y="487.01923788646684">-8.96</text></g><g class="guides"><path class="major guide line" d="M32.960887 0.000000 v472.019238" /><text class="major" transform="rotate(60 32.960887 487.019238)" x="32.96088657105606" y="487.01923788646684">-8.56</text></g><g class="guides"><path class="major guide line" d="M53.691004 0.000000 v472.019238" /><text class="major" transform="rotate(60 53.691004 487.019238)" x="53.6910039113429" y="487.01923788646684">-8.16</text></g><g class="guides"><path class="major guide line" d="M74.421121 0.000000 v472.019238" /><text class="major" transform="rotate(60 74.421121 487.019238)" x="74.42112125162973" y="487.01923788646684">-7.76</text></g><g class="guides"><path class="major guide line" d="M95.151239 0.000000 v472.019238" /><text class="major" transform="rotate(60 95.151239 487.019238)" x="95.15123859191655" y="487.01923788646684">-7.36</text></g><g class="guides"><path class="major guide line" d="M115.881356 0.000000 v472.019238" /><text class="major" transform="rotate(60 115.881356 487.019238)" x="115.88135593220338" y="487.01923788646684">-6.96</text></g><g class="guides"><path class="major guide line" d="M136.611473 0.000000 v472.019238" /><text class="major" transform="rotate(60 136.611473 487.019238)" x="136.61147327249023" y="487.01923788646684">-6.56</text></g><g class="guides"><path class="major guide line" d="M157.341591 0.000000 v472.019238" /><text class="major" transform="rotate(60 157.341591 487.019238)" x="157.34159061277705" y="487.01923788646684">-6.16</text></g><g class="guides"><path class="major guide line" d="M178.071708 0.000000 v472.019238" /><text class="major" transform="rotate(60 178.071708 487.019238)" x="178.0717079530639" y="487.01923788646684">-5.76</text></g><g class="guides"><path class="major guide line" d="M198.801825 0.000000 v472.019238" /><text class="major" transform="rotate(60 198.801825 487.019238)" x="198.80182529335073" y="487.01923788646684">-5.36</text></g><g class="guides"><path class="major guide line" d="M219.531943 0.000000 v472.019238" /><text class="major" transform="rotate(60 219.531943 487.019238)" x="219.53194263363756" y="487.01923788646684">-4.96</text></g><g class="guides"><path class="major guide line" d="M240.262060 0.000000 v472.019238" /><text class="major" transform="rotate(60 240.262060 487.019238)" x="240.2620599739244" y="487.01923788646684">-4.56</text></g><g class="guides"><path class="major guide line" d="M260.992177 0.000000 v472.019238" /><text class="major" transform="rotate(60 260.992177 487.019238)" x="260.99217731421123" y="487.01923788646684">-4.16</text></g><g class="guides"><path class="major guide line" d="M281.722295 0.000000 v472.019238" /><text class="major" transform="rotate(60 281.722295 487.019238)" x="281.722294654498" y="487.01923788646684">-3.76</text></g><g class="guides"><path class="major guide line" d="M302.452412 0.000000 v472.019238" /><text class="major" transform="rotate(60 302.452412 487.019238)" x="302.4524119947849" y="487.01923788646684">-3.36</text></g><g class="guides"><path class="major guide line" d="M323.182529 0.000000 v472.019238" /><text class="major" transform="rotate(60 323.182529 487.019238)" x="323.1825293350717" y="487.01923788646684">-2.96</text></g><g class="guides"><path class="major guide line" d="M343.912647 0.000000 v472.019238" /><text class="major" transform="rotate(60 343.912647 487.019238)" x="343.91264667535853" y="487.01923788646684">-2.56</text></g><g class="guides"><path class="major guide line" d="M364.642764 0.000000 v472.019238" /><text class="major" transform="rotate(60 364.642764 487.019238)" x="364.64276401564535" y="487.01923788646684">-2.16</text></g><g class="guides"><path class="major guide line" d="M385.372881 0.000000 v472.019238" /><text class="major" transform="rotate(60 385.372881 487.019238)" x="385.37288135593224" y="487.01923788646684">-1.76</text></g><g class="guides"><path class="major guide line" d="M406.102999 0.000000 v472.019238" /><text class="major" transform="rotate(60 406.102999 487.019238)" x="406.102998696219" y="487.01923788646684">-1.36</text></g><g class="guides"><path class="major guide line" d="M426.833116 0.000000 v472.019238" /><text class="major" transform="rotate(60 426.833116 487.019238)" x="426.8331160365058" y="487.01923788646684">-0.96</text></g><g class="guides"><path class="major guide line" d="M447.563233 0.000000 v472.019238" /><text class="major" transform="rotate(60 447.563233 487.019238)" x="447.56323337679265" y="487.01923788646684">-0.56</text></g><g class="guides"><path class="major guide line" d="M468.293351 0.000000 v472.019238" /><text class="major" transform="rotate(60 468.293351 487.019238)" x="468.29335071707953" y="487.01923788646684">-0.16</text></g><g class="guides"><path class="major guide line" d="M489.023468 0.000000 v472.019238" /><text class="major" transform="rotate(60 489.023468 487.019238)" x="489.02346805736636" y="487.01923788646684">0.24</text></g><g class="guides"><path class="major guide line" d="M509.753585 0.000000 v472.019238" /><text class="major" transform="rotate(60 509.753585 487.019238)" x="509.75358539765324" y="487.01923788646684">0.64</text></g><g class="guides"><path class="major guide line" d="M530.483703 0.000000 v472.019238" /><text class="major" transform="rotate(60 530.483703 487.019238)" x="530.48370273794" y="487.01923788646684">1.04</text></g><g class="guides"><path class="major guide line" d="M551.213820 0.000000 v472.019238" /><text class="major" transform="rotate(60 551.213820 487.019238)" x="551.213820078227" y="487.01923788646684">1.43</text></g><g class="guides"><path class="major guide line" d="M571.943937 0.000000 v472.019238" /><text class="major" transform="rotate(60 571.943937 487.019238)" x="571.9439374185138" y="487.01923788646684">1.83</text></g><g class="guides"><path class="major guide line" d="M592.674055 0.000000 v472.019238" /><text class="major" transform="rotate(60 592.674055 487.019238)" x="592.6740547588006" y="487.01923788646684">2.23</text></g><g class="guides"><path class="major guide line" d="M613.404172 0.000000 v472.019238" /><text class="major" transform="rotate(60 613.404172 487.019238)" x="613.4041720990874" y="487.01923788646684">2.63</text></g></g><g class="series serie-0 color-0"><path class="line reactive" d="M12.230769 462.941945 L12.230769 462.019456 22.595828 462.941945 32.960887 461.096967 43.325945 462.019456 53.691004 459.251988 64.056063 462.019456 74.421121 458.329499 84.786180 462.019456 95.151239 458.329499 105.516297 462.019456 115.881356 448.182119 126.246415 460.174477 136.611473 457.407010 146.976532 457.407010 157.341591 451.872075 167.706649 448.182119 178.071708 454.639543 188.436767 445.414651 198.801825 442.647184 209.166884 436.189760 219.531943 437.112249 229.897001 392.832771 240.262060 396.522728 250.627119 376.227967 260.992177 355.933206 271.357236 351.320760 281.722295 325.491065 292.087353 277.521630 302.452412 283.056565 312.817471 202.800010 323.182529 188.040184 333.547588 169.590402 343.912647 123.465945 354.277705 95.791271 364.642764 67.194108 375.007823 82.876423 385.372881 60.736684 395.737940 80.108956 406.102999 29.372054 416.468057 9.077293 426.833116 70.884065 437.198175 69.039086 447.563233 41.364413 457.928292 40.441923 468.293351 91.178826 478.658409 140.993239 489.023468 214.792369 499.388527 259.071847 509.753585 321.801108 520.118644 364.235608 530.483703 408.515086 540.848761 430.654825 551.213820 448.182119 561.578879 455.562032 571.943937 458.329499 582.308996 458.329499 592.674055 462.019456 603.039113 462.941945 613.404172 462.019456 623.769231 462.941945" /></g><g class="series serie-1 color-1"><path class="line reactive nofill" d="M12.230769 462.921299 L22.595828 462.905214 32.960887 462.877889 43.325945 462.832442 53.691004 462.758451 64.056063 462.640541 74.421121 462.456651 84.786180 462.176010 95.151239 461.756969 105.516297 461.144907 115.881356 460.270565 126.246415 459.049302 136.611473 457.381826 146.976532 455.157017 157.341591 452.257371 167.706649 448.567360 178.071708 443.984568 188.436767 438.432675 198.801825 431.874088 209.166884 424.317912 219.531943 415.815815 229.897001 406.434532 240.262060 396.191373 250.627119 384.943397 260.992177 372.239513 271.357236 357.183181 281.722295 338.404256 292.087353 314.271204 302.452412 283.438636 312.817471 245.679661 323.182529 202.721201 333.547588 158.603332 343.912647 119.099556 354.277705 90.075942 364.642764 75.245244 375.007823 74.281663 385.372881 82.343125 395.737940 91.540863 406.102999 93.990920 416.468057 85.237412 426.833116 66.517801 437.198175 44.755041 447.563233 30.148821 457.928292 32.338586 468.293351 56.779463 478.658409 102.853899 489.023468 164.387061 499.388527 232.103311 509.753585 296.765038 520.118644 351.655998 530.483703 393.639126 540.848761 422.809769 551.213820 441.323839 561.578879 452.100280 571.943937 457.871503 582.308996 460.723838 592.674055 462.029363 603.039113 462.585412 613.404172 462.807484 623.769231 462.891721" /></g><g class="series serie-2 color-2"><path class="line reactive nofill" d="M12.230769 462.941945 L22.595828 462.941945 32.960887 462.941945 43.325945 462.941945 53.691004 462.941945 64.056063 462.941945 74.421121 462.941945 84.786180 462.941945 95.151239 462.941945 105.516297 462.941945 115.881356 462.941945 126.246415 462.941945 136.611473 462.941945 146.976532 462.941945 157.341591 462.941945 167.706649 462.941945 178.071708 462.941945 188.436767 462.941945 198.801825 462.941945 209.166884 462.941944 219.531943 462.941943 229.897001 462.941935 240.262060 462.941897 250.627119 462.941736 260.992177 462.941098 271.357236 462.938749 281.722295 462.930710 292.087353 462.905161 302.452412 462.829751 312.817471 462.623169 323.182529 462.098196 333.547588 460.861573 343.912647 458.163973 354.277705 452.721123 364.642764 442.579927 375.007823 425.168110 385.372881 397.699595 395.737940 358.045439 406.102999 305.976845 416.468057 244.383193 426.833116 179.825667 437.198175 121.828222 447.563233 80.754419 457.928292 64.832568 468.293351 77.477796 478.658409 116.100635 489.023468 172.970206 499.388527 237.738418 509.753585 300.495472 520.118644 354.127513 530.483703 395.266029 540.848761 423.867899 551.213820 442.001339 561.578879 452.526411 571.943937 458.134495 582.308996 460.883009 592.674055 462.123812 603.039113 462.640353 613.404172 462.838812 623.769231 462.909231" /></g><g class="series serie-3 color-3"><path class="line reactive nofill" d="M12.230769 462.921299 L22.595828 462.905214 32.960887 462.877889 43.325945 462.832442 53.691004 462.758451 64.056063 462.640541 74.421121 462.456651 84.786180 462.176010 95.151239 461.756969 105.516297 461.144907 115.881356 460.270565 126.246415 459.049302 136.611473 457.381826 146.976532 455.157017 157.341591 452.257371 167.706649 448.567360 178.071708 443.984568 188.436767 438.432675 198.801825 431.874089 209.166884 424.317912 219.531943 415.815817 229.897001 406.434542 240.262060 396.191421 250.627119 384.943606 260.992177 372.240360 271.357236 357.186378 281.722295 338.415491 292.087353 314.307988 302.452412 283.550829 312.817471 245.998437 323.182529 203.564951 333.547588 160.683703 343.912647 123.877527 354.277705 100.296764 364.642764 95.607262 375.007823 112.055498 385.372881 147.585475 395.737940 196.437368 406.102999 250.956020 416.468057 303.796164 426.833116 349.634078 437.198175 385.868764 447.563233 412.336348 457.928292 430.447963 468.293351 442.243612 478.658409 449.695208 489.023468 454.358799 499.388527 457.306837 509.753585 459.211511 520.118644 460.470430 530.483703 461.315041 540.848761 461.883815 551.213820 462.264445 561.578879 462.515814 571.943937 462.678952 582.308996 462.782773 592.674055 462.847496 603.039113 462.887004 613.404172 462.910617 623.769231 462.924434" /></g><g class="series serie-4 color-4"><path class="line reactive nofill" d="M12.230769 462.941945 L22.595828 462.941945 32.960887 462.941945 43.325945 462.941945 53.691004 462.941945 64.056063 462.941945 74.421121 462.941945 84.786180 462.941945 95.151239 462.941945 105.516297 462.941945 115.881356 462.941945 126.246415 462.941945 136.611473 462.941945 146.976532 462.941945 157.341591 462.941945 167.706649 462.941945 178.071708 462.941945 188.436767 462.941945 198.801825 462.941945 209.166884 462.941944 219.531943 462.941943 229.897001 462.941935 240.262060 462.941901 250.627119 462.941759 260.992177 462.941205 271.357236 462.939205 281.722295 462.932514 292.087353 462.911768 302.452412 462.852187 312.817471 462.693753 323.182529 462.303965 333.547588 461.417425 343.912647 459.555326 354.277705 455.948257 364.642764 449.515754 375.007823 438.980882 385.372881 423.189300 395.737940 401.631752 406.102999 375.038475 416.468057 345.780140 426.833116 317.773313 437.198175 295.730422 447.563233 283.895246 457.928292 284.715098 468.293351 298.016895 478.658409 321.066637 489.023468 349.484316 499.388527 378.595402 509.753585 404.650133 520.118644 425.491712 530.483703 440.574922 540.848761 450.523462 551.213820 456.532276 561.578879 459.866490 571.943937 461.570148 582.308996 462.373122 592.674055 462.722679 603.039113 462.863372 613.404172 462.915770 623.769231 462.933839" /></g><g class="series serie-5 color-5"><path class="line reactive nofill" d="M12.230769 462.941945 L22.595828 462.941945 32.960887 462.941945 43.325945 462.941945 53.691004 462.941945 64.056063 462.941945 74.421121 462.941945 84.786180 462.941945 95.151239 462.941945 105.516297 462.941945 115.881356 462.941945 126.246415 462.941945 136.611473 462.941945 146.976532 462.941945 157.341591 462.941945 167.706649 462.941945 178.071708 462.941945 188.436767 462.941945 198.801825 462.941945 209.166884 462.941945 219.531943 462.941945 229.897001 462.941944 240.262060 462.941940 250.627119 462.941922 260.992177 462.941838 271.357236 462.941489 281.722295 462.940141 292.087353 462.935337 302.452412 462.919510 312.817471 462.871361 323.182529 462.736175 333.547588 462.386094 343.912647 461.550592 354.277705 459.714811 364.642764 456.006118 375.007823 449.129173 385.372881 437.452240 395.737940 419.355632 406.102999 393.880315 416.468057 361.544998 426.833116 324.994299 437.198175 289.039746 447.563233 259.801117 457.928292 243.059415 468.293351 242.402846 478.658409 257.975944 489.023468 286.427836 499.388527 322.084961 509.753585 358.787284 520.118644 391.577746 530.483703 417.633052 540.848761 436.286382 551.213820 448.411007 561.578879 455.601865 571.943937 459.506292 582.308996 461.451832 592.674055 462.343078 603.039113 462.718925 613.404172 462.864986 623.769231 462.917337" /></g><g class="series serie-6 color-6"><path class="line reactive nofill" d="M12.230769 462.921299 L22.595828 462.905214 32.960887 462.877889 43.325945 462.832442 53.691004 462.758451 64.056063 462.640541 74.421121 462.456651 84.786180 462.176010 95.151239 461.756969 105.516297 461.144907 115.881356 460.270565 126.246415 459.049302 136.611473 457.381829 146.976532 455.157035 157.341591 452.257454 167.706649 448.567717 178.071708 443.985989 188.436767 438.437926 198.801825 431.892102 209.166884 424.375290 219.531943 415.985524 229.897001 406.900609 240.262060 397.379909 250.627119 387.757700 260.992177 378.427348 271.357236 369.816777 281.722295 362.357024 292.087353 356.446961 302.452412 352.418124 312.817471 350.503950 323.182529 350.817383 333.547588 353.339841 343.912647 357.923039 354.277705 364.303425 364.642764 372.127262 375.007823 380.983056 385.372881 390.437186 395.737940 400.068474 406.102999 409.497962 416.468057 418.411128 426.833116 426.571135 437.198175 433.822992 447.563233 440.089694 457.928292 445.362195 468.293351 449.685506 478.658409 453.143176 489.023468 455.842137 499.388527 457.899372 509.753585 459.431290 520.118644 460.546122 530.483703 461.339247 540.848761 461.891002 551.213820 462.266427 561.578879 462.516322 571.943937 462.679073 582.308996 462.782800 592.674055 462.847501 603.039113 462.887006 613.404172 462.910617 623.769231 462.924434" /></g><g class="series serie-7 color-7"><path class="line reactive nofill" d="M12.230769 462.941945 L22.595828 462.941945 32.960887 462.941945 43.325945 462.941945 53.691004 462.941945 64.056063 462.941945 74.421121 462.941945 84.786180 462.941945 95.151239 462.941945 105.516297 462.941945 115.881356 462.941945 126.246415 462.941944 136.611473 462.941941 146.976532 462.941927 157.341591 462.941861 167.706649 462.941588 178.071708 462.940524 188.436767 462.936694 198.801825 462.923932 209.166884 462.884567 219.531943 462.772238 229.897001 462.475878 240.262060 461.753456 250.627119 460.127851 260.992177 456.754957 271.357236 450.311546 281.722295 439.000412 292.087353 420.802972 302.452412 394.074650 312.817471 358.436432 323.182529 315.689513 333.547588 270.285807 343.912647 228.896433 354.277705 198.935284 364.642764 186.421945 375.007823 194.014387 385.372881 220.090235 395.737940 259.310838 406.102999 304.400003 416.468057 348.326981 426.833116 386.004888 437.198175 414.987716 447.563233 435.188599 457.928292 448.027713 468.293351 455.500050 478.658409 459.493977 489.023468 461.458607 499.388527 462.349410 509.753585 462.722166 520.118644 462.866252 530.483703 462.917739 540.848761 462.934757 551.213820 462.939963 561.578879 462.941438 571.943937 462.941824 582.308996 462.941918 592.674055 462.941939 603.039113 462.941944 613.404172 462.941945 623.769231 462.941945" /></g></g><g class="titles"><text class="title plot_title" x="400.0" y="26">Iteration #10</text><text class="title" x="462.0" y="580.0">Observation</text><text class="title" transform="rotate(-90 64.000000 282.009619)" x="64.0" y="308.0096189432334">Density</text></g><g class="plot overlay" transform="translate(144, 46)"><g class="series serie-0 color-0" /><g class="series serie-1 color-1" /><g class="series serie-2 color-2" /><g class="series serie-3 color-3" /><g class="series serie-4 color-4" /><g class="series serie-5 color-5" /><g class="series serie-6 color-6" /><g class="series serie-7 color-7" /></g><g class="plot text-overlay" transform="translate(144, 46)"><g class="series serie-0 color-0" /><g class="series serie-1 color-1" /><g class="series serie-2 color-2" /><g class="series serie-3 color-3" /><g class="series serie-4 color-4" /><g class="series serie-5 color-5" /><g class="series serie-6 color-6" /><g class="series serie-7 color-7" /></g><g class="plot tooltip-overlay" transform="translate(144, 46)"><g class="tooltip" style="opacity: 0" transform="translate(0 0)"><rect class="tooltip-box" height="0" rx="0" ry="0" width="0" /><g class="text" /></g></g><g class="legends" transform="translate(10, 56)"><g class="legend reactive activate-serie" id="activate-serie-0"><rect class="color-0 reactive" height="12" width="12" x="0.0" y="0.0" /><text x="17.0" y="9.0">Data</text></g><g class="legend reactive activate-serie" id="activate-serie-1"><rect class="color-1 reactive" height="12" width="12" x="0.0" y="18.0" /><text x="17.0" y="27.0">GMM</text></g><g class="legend reactive activate-serie" id="activate-serie-2"><rect class="color-2 reactive" height="12" width="12" x="0.0" y="36.0" /><text x="17.0" y="45.0">i=0</text></g><g class="legend reactive activate-serie" id="activate-serie-3"><rect class="color-3 reactive" height="12" width="12" x="0.0" y="54.0" /><text x="17.0" y="63.0">i=1</text></g><g class="legend reactive activate-serie" id="activate-serie-4"><rect class="color-4 reactive" height="12" width="12" x="0.0" y="72.0" /><text x="17.0" y="81.0">i=0 k=0</text></g><g class="legend reactive activate-serie" id="activate-serie-5"><rect class="color-5 reactive" height="12" width="12" x="0.0" y="90.0" /><text x="17.0" y="99.0">i=0 k=1</text></g><g class="legend reactive activate-serie" id="activate-serie-6"><rect class="color-6 reactive" height="12" width="12" x="0.0" y="108.0" /><text x="17.0" y="117.0">i=1 k=0</text></g><g class="legend reactive activate-serie" id="activate-serie-7"><rect class="color-7 reactive" height="12" width="12" x="0.0" y="126.0" /><text x="17.0" y="135.0">i=1 k=1</text></g></g><g class="legends" transform="translate(790, 56)" /></g></svg>