<?xml version='1.0' encoding='utf-8'?>
<svg xmlns:xlink="http://www.w3.org/1999/xlink" class="pygal-chart" id="chart-b8c783cc-d226-4e0c-9367-760af4458dec" viewBox="0 0 800 600" xmlns="http://www.w3.org/2000/svg"><!--Generated with pygal 2.4.0 (etree) ©Kozea 2012-2016 on 2017-12-19--><!--http://pygal.org--><!--http://github.com/Kozea/pygal--><defs><style type="text/css">#chart-b8c783cc-d226-4e0c-9367-760af4458dec{-webkit-user-select:none;-webkit-font-smoothing:antialiased;font-family:Consolas,"Liberation Mono",Menlo,Courier,monospace}#chart-b8c783cc-d226-4e0c-9367-760af4458dec .title{font-family:Consolas,"Liberation Mono",Menlo,Courier,monospace;font-size:16px}#chart-b8c783cc-d226-4e0c-9367-760af4458dec .legends .legend text{font-family:Consolas,"Liberation Mono",Menlo,Courier,monospace;font-size:10px}#chart-b8c783cc-d226-4e0c-9367-760af4458dec .axis text{font-family:Consolas,"Liberation Mono",Menlo,Courier,monospace;font-size:10px}#chart-b8c783cc-d226-4e0c-9367-760af4458dec .axis text.major{font-family:Consolas,"Liberation Mono",Menlo,Courier,monospace;font-size:10px}#chart-b8c783cc-d226-4e0c-9367-760af4458dec .text-overlay text.value{font-family:Consolas,"Liberation Mono",Menlo,Courier,monospace;font-size:16px}#chart-b8c783cc-d226-4e0c-9367-760af4458dec .text-overlay text.label{font-family:Consolas,"Liberation Mono",Menlo,Courier,monospace;font-size:10px}#chart-b8c783cc-d226-4e0c-9367-760af4458dec .tooltip{font-family:Consolas,"Liberation Mono",Menlo,Courier,monospace;font-size:14px}#chart-b8c783cc-d226-4e0c-9367-760af4458dec text.no_data{font-family:Consolas,"Liberation Mono",Menlo,Courier,monospace;font-size:64px}
#chart-b8c783cc-d226-4e0c-9367-760af4458dec{background-color:rgba(249,249,249,1)}#chart-b8c783cc-d226-4e0c-9367-760af4458dec path,#chart-b8c783cc-d226-4e0c-9367-760af4458dec line,#chart-b8c783cc-d226-4e0c-9367-760af4458dec rect,#chart-b8c783cc-d226-4e0c-9367-760af4458dec circle{-webkit-transition:150ms;-moz-transition:150ms;transition:150ms}#chart-b8c783cc-d226-4e0c-9367-760af4458dec .graph &gt; .background{fill:rgba(249,249,249,1)}#chart-b8c783cc-d226-4e0c-9367-760af4458dec .plot &gt; .background{fill:rgba(255,255,255,1)}#chart-b8c783cc-d226-4e0c-9367-760af4458dec .graph{fill:rgba(0,0,0,.87)}#chart-b8c783cc-d226-4e0c-9367-760af4458dec text.no_data{fill:rgba(0,0,0,1)}#chart-b8c783cc-d226-4e0c-9367-760af4458dec .title{fill:rgba(0,0,0,1)}#chart-b8c783cc-d226-4e0c-9367-760af4458dec .legends .legend text{fill:rgba(0,0,0,.87)}#chart-b8c783cc-d226-4e0c-9367-760af4458dec .legends .legend:hover text{fill:rgba(0,0,0,1)}#chart-b8c783cc-d226-4e0c-9367-760af4458dec .axis .line{stroke:rgba(0,0,0,1)}#chart-b8c783cc-d226-4e0c-9367-760af4458dec .axis .guide.line{stroke:rgba(0,0,0,.54)}#chart-b8c783cc-d226-4e0c-9367-760af4458dec .axis .major.line{stroke:rgba(0,0,0,.87)}#chart-b8c783cc-d226-4e0c-9367-760af4458dec .axis text.major{fill:rgba(0,0,0,1)}#chart-b8c783cc-d226-4e0c-9367-760af4458dec .axis.y .guides:hover .guide.line,#chart-b8c783cc-d226-4e0c-9367-760af4458dec .line-graph .axis.x .guides:hover .guide.line,#chart-b8c783cc-d226-4e0c-9367-760af4458dec .stackedline-graph .axis.x .guides:hover .guide.line,#chart-b8c783cc-d226-4e0c-9367-760af4458dec .xy-graph .axis.x .guides:hover .guide.line{stroke:rgba(0,0,0,1)}#chart-b8c783cc-d226-4e0c-9367-760af4458dec .axis .guides:hover text{fill:rgba(0,0,0,1)}#chart-b8c783cc-d226-4e0c-9367-760af4458dec .reactive{fill-opacity:.7;stroke-opacity:.8}#chart-b8c783cc-d226-4e0c-9367-760af4458dec .ci{stroke:rgba(0,0,0,.87)}#chart-b8c783cc-d226-4e0c-9367-760af4458dec .reactive.active,#chart-b8c783cc-d226-4e0c-9367-760af4458dec .active .reactive{fill-opacity:.8;stroke-opacity:.9;stroke-width:4}#chart-b8c783cc-d226-4e0c-9367-760af4458dec .ci .reactive.active{stroke-width:1.5}#chart-b8c783cc-d226-4e0c-9367-760af4458dec .series text{fill:rgba(0,0,0,1)}#chart-b8c783cc-d226-4e0c-9367-760af4458dec .tooltip rect{fill:rgba(255,255,255,1);stroke:rgba(0,0,0,1);-webkit-transition:opacity 150ms;-moz-transition:opacity 150ms;transition:opacity 150ms}#chart-b8c783cc-d226-4e0c-9367-760af4458dec .tooltip .label{fill:rgba(0,0,0,.87)}#chart-b8c783cc-d226-4e0c-9367-760af4458dec .tooltip .label{fill:rgba(0,0,0,.87)}#chart-b8c783cc-d226-4e0c-9367-760af4458dec .tooltip .legend{font-size:.8em;fill:rgba(0,0,0,.54)}#chart-b8c783cc-d226-4e0c-9367-760af4458dec .tooltip .x_label{font-size:.6em;fill:rgba(0,0,0,1)}#chart-b8c783cc-d226-4e0c-9367-760af4458dec .tooltip .xlink{font-size:.5em;text-decoration:underline}#chart-b8c783cc-d226-4e0c-9367-760af4458dec .tooltip .value{font-size:1.5em}#chart-b8c783cc-d226-4e0c-9367-760af4458dec .bound{font-size:.5em}#chart-b8c783cc-d226-4e0c-9367-760af4458dec .max-value{font-size:.75em;fill:rgba(0,0,0,.54)}#chart-b8c783cc-d226-4e0c-9367-760af4458dec .map-element{fill:rgba(255,255,255,1);stroke:rgba(0,0,0,.54) !important}#chart-b8c783cc-d226-4e0c-9367-760af4458dec .map-element .reactive{fill-opacity:inherit;stroke-opacity:inherit}#chart-b8c783cc-d226-4e0c-9367-760af4458dec .color-0,#chart-b8c783cc-d226-4e0c-9367-760af4458dec .color-0 a:visited{stroke:#909090;fill:#909090}#chart-b8c783cc-d226-4e0c-9367-760af4458dec .color-1,#chart-b8c783cc-d226-4e0c-9367-760af4458dec .color-1 a:visited{stroke:#000000;fill:#000000}#chart-b8c783cc-d226-4e0c-9367-760af4458dec .color-2,#chart-b8c783cc-d226-4e0c-9367-760af4458dec .color-2 a:visited{stroke:#ff0500;fill:#ff0500}#chart-b8c783cc-d226-4e0c-9367-760af4458dec .color-3,#chart-b8c783cc-d226-4e0c-9367-760af4458dec .color-3 a:visited{stroke:#323299;fill:#323299}#chart-b8c783cc-d226-4e0c-9367-760af4458dec .color-4,#chart-b8c783cc-d226-4e0c-9367-760af4458dec .color-4 a:visited{stroke:#a3413f;fill:#a3413f}#chart-b8c783cc-d226-4e0c-9367-760af4458dec .color-5,#chart-b8c783cc-d226-4e0c-9367-760af4458dec .color-5 a:visited{stroke:#a3413f;fill:#a3413f}#chart-b8c783cc-d226-4e0c-9367-760af4458dec .color-6,#chart-b8c783cc-d226-4e0c-9367-760af4458dec .color-6 a:visited{stroke:#a3413f;fill:#a3413f}#chart-b8c783cc-d226-4e0c-9367-760af4458dec .color-7,#chart-b8c783cc-d226-4e0c-9367-760af4458dec .color-7 a:visited{stroke:#a3413f;fill:#a3413f}#chart-b8c783cc-d226-4e0c-9367-760af4458dec .color-8,#chart-b8c783cc-d226-4e0c-9367-760af4458dec .color-8 a:visited{stroke:#a3413f;fill:#a3413f}#chart-b8c783cc-d226-4e0c-9367-760af4458dec .color-9,#chart-b8c783cc-d226-4e0c-9367-760af4458dec .color-9 a:visited{stroke:#657fff;fill:#657fff}#chart-b8c783cc-d226-4e0c-9367-760af4458dec .color-10,#chart-b8c783cc-d226-4e0c-9367-760af4458dec .color-10 a:visited{stroke:#657fff;fill:#657fff}#chart-b8c783cc-d226-4e0c-9367-760af4458dec .color-11,#chart-b8c783cc-d226-4e0c-9367-760af4458dec .color-11 a:visited{stroke:#657fff;fill:#657fff}#chart-b8c783cc-d226-4e0c-9367-760af4458dec .color-12,#chart-b8c783cc-d226-4e0c-9367-760af4458dec .color-12 a:visited{stroke:#657fff;fill:#657fff}#chart-b8c783cc-d226-4e0c-9367-760af4458dec .color-13,#chart-b8c783cc-d226-4e0c-9367-760af4458dec .color-13 a:visited{stroke:#657fff;fill:#657fff}#chart-b8c783cc-d226-4e0c-9367-760af4458dec .text-overlay .color-0 text{fill:black}#chart-b8c783cc-d226-4e0c-9367-760af4458dec .text-overlay .color-1 text{fill:white}#chart-b8c783cc-d226-4e0c-9367-760af4458dec .text-overlay .color-2 text{fill:black}#chart-b8c783cc-d226-4e0c-9367-760af4458dec .text-overlay .color-3 text{fill:black}#chart-b8c783cc-d226-4e0c-9367-760af4458dec .text-overlay .color-4 text{fill:black}#chart-b8c783cc-d226-4e0c-9367-760af4458dec .text-overlay .color-5 text{fill:black}#chart-b8c783cc-d226-4e0c-9367-760af4458dec .text-overlay .color-6 text{fill:black}#chart-b8c783cc-d226-4e0c-9367-760af4458dec .text-overlay .color-7 text{fill:black}#chart-b8c783cc-d226-4e0c-9367-760af4458dec .text-overlay .color-8 text{fill:black}#chart-b8c783cc-d226-4e0c-9367-760af4458dec .text-overlay .color-9 text{fill:black}#chart-b8c783cc-d226-4e0c-9367-760af4458dec .text-overlay .color-10 text{fill:black}#chart-b8c783cc-d226-4e0c-9367-760af4458dec .text-overlay .color-11 text{fill:black}#chart-b8c783cc-d226-4e0c-9367-760af4458dec .text-overlay .color-12 text{fill:black}#chart-b8c783cc-d226-4e0c-9367-760af4458dec .text-overlay .color-13 text{fill:black}#chart-b8c783cc-d226-4e0c-9367-760af4458dec .series.serie-1{stroke-width:5}#chart-b8c783cc-d226-4e0c-9367-760af4458dec .series.serie-2{stroke-width:3}#chart-b8c783cc-d226-4e0c-9367-760af4458dec .series.serie-3{stroke-width:3}#chart-b8c783cc-d226-4e0c-9367-760af4458dec .series.serie-4{stroke-width:2;stroke-dasharray:2,2}#chart-b8c783cc-d226-4e0c-9367-760af4458dec .series.serie-5{stroke-width:2;stroke-dasharray:2,2}#chart-b8c783cc-d226-4e0c-9367-760af4458dec .series.serie-6{stroke-width:2;stroke-dasharray:2,2}#chart-b8c783cc-d226-4e0c-9367-760af4458dec .series.serie-7{stroke-width:2;stroke-dasharray:2,2}#chart-b8c783cc-d226-4e0c-9367-760af4458dec .series.serie-8{stroke-width:2;stroke-dasharray:2,2}#chart-b8c783cc-d226-4e0c-9367-760af4458dec .series.serie-9{stroke-width:2;stroke-dasharray:2,2}#chart-b8c783cc-d226-4e0c-9367-760af4458dec .series.serie-10{stroke-width:2;stroke-dasharray:2,2}#chart-b8c783cc-d226-4e0c-9367-760af4458dec .series.serie-11{stroke-width:2;stroke-dasharray:2,2}#chart-b8c783cc-d226-4e0c-9367-760af4458dec .series.serie-12{stroke-width:2;stroke-dasharray:2,2}#chart-b8c783cc-d226-4e0c-9367-760af4458dec .series.serie-13{stroke-width:2;stroke-dasharray:2,2}
#chart-b8c783cc-d226-4e0c-9367-760af4458dec text.no_data{text-anchor:middle}#chart-b8c783cc-d226-4e0c-9367-760af4458dec .guide.line{fill:none}#chart-b8c783cc-d226-4e0c-9367-760af4458dec .centered{text-anchor:middle}#chart-b8c783cc-d226-4e0c-9367-760af4458dec .title{text-anchor:middle}#chart-b8c783cc-d226-4e0c-9367-760af4458dec .legends .legend text{fill-opacity:1}#chart-b8c783cc-d226-4e0c-9367-760af4458dec .axis.x text{text-anchor:middle}#chart-b8c783cc-d226-4e0c-9367-760af4458dec .axis.x:not(.web) text[transform]{text-anchor:start}#chart-b8c783cc-d226-4e0c-9367-760af4458dec .axis.x:not(.web) text[transform].backwards{text-anchor:end}#chart-b8c783cc-d226-4e0c-9367-760af4458dec .axis.y text{text-anchor:end}#chart-b8c783cc-d226-4e0c-9367-760af4458dec .axis.y text[transform].backwards{text-anchor:start}#chart-b8c783cc-d226-4e0c-9367-760af4458dec .axis.y2 text{text-anchor:start}#chart-b8c783cc-d226-4e0c-9367-760af4458dec .axis.y2 text[transform].backwards{text-anchor:end}#chart-b8c783cc-d226-4e0c-9367-760af4458dec .axis .guide.line{stroke-dasharray:4,4}#chart-b8c783cc-d226-4e0c-9367-760af4458dec .axis .major.guide.line{stroke-dasharray:6,6}#chart-b8c783cc-d226-4e0c-9367-760af4458dec .horizontal .axis.y .guide.line,#chart-b8c783cc-d226-4e0c-9367-760af4458dec .horizontal .axis.y2 .guide.line,#chart-b8c783cc-d226-4e0c-9367-760af4458dec .vertical .axis.x .guide.line{opacity:0}#chart-b8c783cc-d226-4e0c-9367-760af4458dec .horizontal .axis.always_show .guide.line,#chart-b8c783cc-d226-4e0c-9367-760af4458dec .vertical .axis.always_show .guide.line{opacity:1 !important}#chart-b8c783cc-d226-4e0c-9367-760af4458dec .axis.y .guides:hover .guide.line,#chart-b8c783cc-d226-4e0c-9367-760af4458dec .axis.y2 .guides:hover .guide.line,#chart-b8c783cc-d226-4e0c-9367-760af4458dec .axis.x .guides:hover .guide.line{opacity:1}#chart-b8c783cc-d226-4e0c-9367-760af4458dec .axis .guides:hover text{opacity:1}#chart-b8c783cc-d226-4e0c-9367-760af4458dec .nofill{fill:none}#chart-b8c783cc-d226-4e0c-9367-760af4458dec .subtle-fill{fill-opacity:.2}#chart-b8c783cc-d226-4e0c-9367-760af4458dec .dot{stroke-width:1px;fill-opacity:1}#chart-b8c783cc-d226-4e0c-9367-760af4458dec .dot.active{stroke-width:5px}#chart-b8c783cc-d226-4e0c-9367-760af4458dec .dot.negative{fill:transparent}#chart-b8c783cc-d226-4e0c-9367-760af4458dec text,#chart-b8c783cc-d226-4e0c-9367-760af4458dec tspan{stroke:none !important}#chart-b8c783cc-d226-4e0c-9367-760af4458dec .series text.active{opacity:1}#chart-b8c783cc-d226-4e0c-9367-760af4458dec .tooltip rect{fill-opacity:.95;stroke-width:.5}#chart-b8c783cc-d226-4e0c-9367-760af4458dec .tooltip text{fill-opacity:1}#chart-b8c783cc-d226-4e0c-9367-760af4458dec .showable{visibility:hidden}#chart-b8c783cc-d226-4e0c-9367-760af4458dec .showable.shown{visibility:visible}#chart-b8c783cc-d226-4e0c-9367-760af4458dec .gauge-background{fill:rgba(229,229,229,1);stroke:none}#chart-b8c783cc-d226-4e0c-9367-760af4458dec .bg-lines{stroke:rgba(249,249,249,1);stroke-width:2px}</style><script type="text/javascript">window.pygal = window.pygal || {};window.pygal.config = window.pygal.config || {};window.pygal.config['b8c783cc-d226-4e0c-9367-760af4458dec'] = {"css": ["file://style.css", "file://graph.css"], "include_x_axis": false, "min_scale": 4, "print_zeroes": true, "show_x_labels": true, "stroke": true, "show_minor_y_labels": true, "inner_radius": 0, "fill": false, "pretty_print": false, "js": ["//kozea.github.io/pygal.js/2.0.x/pygal-tooltips.min.js"], "x_labels": ["-8.96", "-8.76", "-8.56", "-8.36", "-8.16", "-7.96", "-7.76", "-7.56", "-7.36", "-7.16", "-6.96", "-6.76", "-6.56", "-6.36", "-6.16", "-5.96", "-5.76", "-5.56", "-5.36", "-5.16", "-4.96", "-4.76", "-4.56", "-4.36", "-4.16", "-3.96", "-3.76", "-3.56", "-3.36", "-3.16", "-2.96", "-2.76", "-2.56", "-2.36", "-2.16", "-1.96", "-1.76", "-1.56", "-1.36", "-1.16", "-0.96", "-0.76", "-0.56", "-0.36", "-0.16", "0.04", "0.24", "0.44", "0.64", "0.84", "1.04", "1.24", "1.43", "1.63", "1.83", "2.03", "2.23", "2.43", "2.63", "2.83"], "logarithmic": false, "show_minor_x_labels": false, "formatter": null, "tooltip_fancy_mode": true, "defs": [], "stroke_style": null, "spacing": 10, "show_only_major_dots": false, "half_pie": false, "show_legend": true, "dynamic_print_values": false, "max_scale": 16, "explicit_size": false, "y_label_rotation": 0, "y_labels": null, "x_labels_major": null, "margin_top": null, "interpolation_precision": 250, "xrange": null, "order_min": null, "y_title": "Density", "title": "Iteration #1", "x_label_rotation": 60, "interpolation_parameters": {}, "stack_from_top": false, "truncate_legend": null, "x_title": "Observation", "show_y_guides": true, "no_prefix": false, "print_values_position": "center", "show_y_labels": true, "classes": ["pygal-chart"], "force_uri_protocol": "https", "x_labels_major_count": null, "allow_interruptions": false, "width": 800, "height": 600, "secondary_range": null, "box_mode": "extremes", "margin_left": null, "y_labels_major": null, "margin_right": null, "zero": 0, "dots_size": 2.5, "no_data_text": "No data", "show_dots": false, "range": [0, 0.27578580090479526], "truncate_label": null, "margin_bottom": null, "y_labels_major_every": null, "show_x_guides": false, "disable_xml_declaration": false, "print_values": false, "x_labels_major_every": 2, "print_labels": false, "y_labels_major_count": null, "interpolate": null, "legend_at_bottom": false, "style": {"value_font_size": 16, "tooltip_font_family": "Consolas, \"Liberation Mono\", Menlo, Courier, monospace", "major_label_font_family": "Consolas, \"Liberation Mono\", Menlo, Courier, monospace", "value_colors": [], "value_background": "rgba(229, 229, 229, 1)", "foreground_strong": "rgba(0, 0, 0, 1)", "opacity": ".7", "font_family": "Consolas, \"Liberation Mono\", Menlo, Courier, monospace", "label_font_size": 10, "transition": "150ms", "title_font_family": "Consolas, \"Liberation Mono\", Menlo, Courier, monospace", "background": "rgba(249, 249, 249, 1)", "stroke_opacity": ".8", "no_data_font_size": 64, "value_label_font_family": "Consolas, \"Liberation Mono\", Menlo, Courier, monospace", "value_label_font_size": 10, "value_font_family": "Consolas, \"Liberation Mono\", Menlo, Courier, monospace", "plot_background": "rgba(255, 255, 255, 1)", "colors": ["#909090", "#000000", "#ff0500", "#323299", "#a3413f", "#a3413f", "#a3413f", "#a3413f", "#a3413f", "#657fff", "#657fff", "#657fff", "#657fff", "#657fff"], "legend_font_size": 10, "guide_stroke_dasharray": "4,4", "major_label_font_size": 10, "stroke_opacity_hover": ".9", "major_guide_stroke_dasharray": "6,6", "opacity_hover": ".8", "no_data_font_family": "Consolas, \"Liberation Mono\", Menlo, Courier, monospace", "title_font_size": 16, "ci_colors": [], "foreground": "rgba(0, 0, 0, .87)", "foreground_subtle": "rgba(0, 0, 0, .54)", "legend_font_family": "Consolas, \"Liberation Mono\", Menlo, Courier, monospace", "label_font_family": "Consolas, \"Liberation Mono\", Menlo, Courier, monospace", "tooltip_font_size": 14}, "strict": false, "legend_box_size": 12, "tooltip_border_radius": 0, "margin": 20, "legends": ["Data", "GMM", "i=0", "i=1", "i=0 k=0", "i=0 k=1", "i=0 k=2", "i=0 k=3", "i=0 k=4", "i=1 k=0", "i=1 k=1", "i=1 k=2", "i=1 k=3", "i=1 k=4"], "inverse_y_axis": false, "legend_at_bottom_columns": null, "rounded_bars": null, "missing_value_fill_truncation": "x"}</script><script type="text/javascript" xlink:href="https://kozea.github.io/pygal.js/2.0.x/pygal-tooltips.min.js" /></defs><title>Iteration #1</title><g class="graph line-graph vertical"><rect class="background" height="600" width="800" x="0" y="0" /><g class="plot" transform="translate(144, 46)"><rect class="background" height="472.01923788646684" width="636.0" x="0" y="0" /><g class="axis y always_show"><g class="guides"><path class="axis major line" d="M0.000000 462.941945 h636.000000" /><text class="major" x="-5" y="466.44194485">0</text><title>0</title></g><g class="guides"><path class="guide line" d="M0.000000 430.027658 h636.000000" /><text class="" x="-5" y="433.527657724">0.02</text><title>0.02</title></g><g class="guides"><path class="guide line" d="M0.000000 397.113371 h636.000000" /><text class="" x="-5" y="400.613370598">0.04</text><title>0.04</title></g><g class="guides"><path class="guide line" d="M0.000000 364.199083 h636.000000" /><text class="" x="-5" y="367.699083472">0.06</text><title>0.06</title></g><g class="guides"><path class="guide line" d="M0.000000 331.284796 h636.000000" /><text class="" x="-5" y="334.784796346">0.08</text><title>0.08</title></g><g class="guides"><path class="guide line" d="M0.000000 298.370509 h636.000000" /><text class="" x="-5" y="301.87050922">0.1</text><title>0.1</title></g><g class="guides"><path class="guide line" d="M0.000000 265.456222 h636.000000" /><text class="" x="-5" y="268.956222094">0.12</text><title>0.12</title></g><g class="guides"><path class="guide line" d="M0.000000 232.541935 h636.000000" /><text class="" x="-5" y="236.041934968">0.14</text><title>0.14</title></g><g class="guides"><path class="guide line" d="M0.000000 199.627648 h636.000000" /><text class="" x="-5" y="203.127647841">0.16</text><title>0.16</title></g><g class="guides"><path class="guide line" d="M0.000000 166.713361 h636.000000" /><text class="" x="-5" y="170.213360715">0.18</text><title>0.18</title></g><g class="guides"><path class="guide line" d="M0.000000 133.799074 h636.000000" /><text class="" x="-5" y="137.299073589">0.2</text><title>0.2</title></g><g class="guides"><path class="guide line" d="M0.000000 100.884786 h636.000000" /><text class="" x="-5" y="104.384786463">0.22</text><title>0.22</title></g><g class="guides"><path class="guide line" d="M0.000000 67.970499 h636.000000" /><text class="" x="-5" y="71.4704993371">0.24</text><title>0.24</title></g><g class="guides"><path class="guide line" d="M0.000000 35.056212 h636.000000" /><text class="" x="-5" y="38.5562122111">0.26</text><title>0.26</title></g></g><g class="axis x"><g class="guides"><path class="major line" d="M12.230769 0.000000 v472.019238" /><text class="major" transform="rotate(60 12.230769 487.019238)" x="12.230769230769232" y="487.01923788646684">-8.96</text></g><g class="guides"><path class="major guide line" d="M32.960887 0.000000 v472.019238" /><text class="major" transform="rotate(60 32.960887 487.019238)" x="32.96088657105606" y="487.01923788646684">-8.56</text></g><g class="guides"><path class="major guide line" d="M53.691004 0.000000 v472.019238" /><text class="major" transform="rotate(60 53.691004 487.019238)" x="53.6910039113429" y="487.01923788646684">-8.16</text></g><g class="guides"><path class="major guide line" d="M74.421121 0.000000 v472.019238" /><text class="major" transform="rotate(60 74.421121 487.019238)" x="74.42112125162973" y="487.01923788646684">-7.76</text></g><g class="guides"><path class="major guide line" d="M95.151239 0.000000 v472.019238" /><text class="major" transform="rotate(60 95.151239 487.019238)" x="95.15123859191655" y="487.01923788646684">-7.36</text></g><g class="guides"><path class="major guide line" d="M115.881356 0.000000 v472.019238" /><text class="major" transform="rotate(60 115.881356 487.019238)" x="115.88135593220338" y="487.01923788646684">-6.96</text></g><g class="guides"><path class="major guide line" d="M136.611473 0.000000 v472.019238" /><text class="major" transform="rotate(60 136.611473 487.019238)" x="136.61147327249023" y="487.01923788646684">-6.56</text></g><g class="guides"><path class="major guide line" d="M157.341591 0.000000 v472.019238" /><text class="major" transform="rotate(60 157.341591 487.019238)" x="157.34159061277705" y="487.01923788646684">-6.16</text></g><g class="guides"><path class="major guide line" d="M178.071708 0.000000 v472.019238" /><text class="major" transform="rotate(60 178.071708 487.019238)" x="178.0717079530639" y="487.01923788646684">-5.76</text></g><g class="guides"><path class="major guide line" d="M198.801825 0.000000 v472.019238" /><text class="major" transform="rotate(60 198.801825 487.019238)" x="198.80182529335073" y="487.01923788646684">-5.36</text></g><g class="guides"><path class="major guide line" d="M219.531943 0.000000 v472.019238" /><text class="major" transform="rotate(60 219.531943 487.019238)" x="219.53194263363756" y="487.01923788646684">-4.96</text></g><g class="guides"><path class="major guide line" d="M240.262060 0.000000 v472.019238" /><text class="major" transform="rotate(60 240.262060 487.019238)" x="240.2620599739244" y="487.01923788646684">-4.56</text></g><g class="guides"><path class="major guide line" d="M260.992177 0.000000 v472.019238" /><text class="major" transform="rotate(60 260.992177 487.019238)" x="260.99217731421123" y="487.01923788646684">-4.16</text></g><g class="guides"><path class="major guide line" d="M281.722295 0.000000 v472.019238" /><text class="major" transform="rotate(60 281.722295 487.019238)" x="281.722294654498" y="487.01923788646684">-3.76</text></g><g class="guides"><path class="major guide line" d="M302.452412 0.000000 v472.019238" /><text class="major" transform="rotate(60 302.452412 487.019238)" x="302.4524119947849" y="487.01923788646684">-3.36</text></g><g class="guides"><path class="major guide line" d="M323.182529 0.000000 v472.019238" /><text class="major" transform="rotate(60 323.182529 487.019238)" x="323.1825293350717" y="487.01923788646684">-2.96</text></g><g class="guides"><path class="major guide line" d="M343.912647 0.000000 v472.019238" /><text class="major" transform="rotate(60 343.912647 487.019238)" x="343.91264667535853" y="487.01923788646684">-2.56</text></g><g class="guides"><path class="major guide line" d="M364.642764 0.000000 v472.019238" /><text class="major" transform="rotate(60 364.642764 487.019238)" x="364.64276401564535" y="487.01923788646684">-2.16</text></g><g class="guides"><path class="major guide line" d="M385.372881 0.000000 v472.019238" /><text class="major" transform="rotate(60 385.372881 487.019238)" x="385.37288135593224" y="487.01923788646684">-1.76</text></g><g class="guides"><path class="major guide line" d="M406.102999 0.000000 v472.019238" /><text class="major" transform="rotate(60 406.102999 487.019238)" x="406.102998696219" y="487.01923788646684">-1.36</text></g><g class="guides"><path class="major guide line" d="M426.833116 0.000000 v472.019238" /><text class="major" transform="rotate(60 426.833116 487.019238)" x="426.8331160365058" y="487.01923788646684">-0.96</text></g><g class="guides"><path class="major guide line" d="M447.563233 0.000000 v472.019238" /><text class="major" transform="rotate(60 447.563233 487.019238)" x="447.56323337679265" y="487.01923788646684">-0.56</text></g><g class="guides"><path class="major guide line" d="M468.293351 0.000000 v472.019238" /><text class="major" transform="rotate(60 468.293351 487.019238)" x="468.29335071707953" y="487.01923788646684">-0.16</text></g><g class="guides"><path class="major guide line" d="M489.023468 0.000000 v472.019238" /><text class="major" transform="rotate(60 489.023468 487.019238)" x="489.02346805736636" y="487.01923788646684">0.24</text></g><g class="guides"><path class="major guide line" d="M509.753585 0.000000 v472.019238" /><text class="major" transform="rotate(60 509.753585 487.019238)" x="509.75358539765324" y="487.01923788646684">0.64</text></g><g class="guides"><path class="major guide line" d="M530.483703 0.000000 v472.019238" /><text class="major" transform="rotate(60 530.483703 487.019238)" x="530.48370273794" y="487.01923788646684">1.04</text></g><g class="guides"><path class="major guide line" d="M551.213820 0.000000 v472.019238" /><text class="major" transform="rotate(60 551.213820 487.019238)" x="551.213820078227" y="487.01923788646684">1.43</text></g><g class="guides"><path class="major guide line" d="M571.943937 0.000000 v472.019238" /><text class="major" transform="rotate(60 571.943937 487.019238)" x="571.9439374185138" y="487.01923788646684">1.83</text></g><g class="guides"><path class="major guide line" d="M592.674055 0.000000 v472.019238" /><text class="major" transform="rotate(60 592.674055 487.019238)" x="592.6740547588006" y="487.01923788646684">2.23</text></g><g class="guides"><path class="major guide line" d="M613.404172 0.000000 v472.019238" /><text class="major" transform="rotate(60 613.404172 487.019238)" x="613.4041720990874" y="487.01923788646684">2.63</text></g></g><g class="series serie-0 color-0"><path class="line reactive" d="M12.230769 462.941945 L12.230769 462.019456 22.595828 462.941945 32.960887 461.096967 43.325945 462.019456 53.691004 459.251988 64.056063 462.019456 74.421121 458.329499 84.786180 462.019456 95.151239 458.329499 105.516297 462.019456 115.881356 448.182119 126.246415 460.174477 136.611473 457.407010 146.976532 457.407010 157.341591 451.872075 167.706649 448.182119 178.071708 454.639543 188.436767 445.414651 198.801825 442.647184 209.166884 436.189760 219.531943 437.112249 229.897001 392.832771 240.262060 396.522728 250.627119 376.227967 260.992177 355.933206 271.357236 351.320760 281.722295 325.491065 292.087353 277.521630 302.452412 283.056565 312.817471 202.800010 323.182529 188.040184 333.547588 169.590402 343.912647 123.465945 354.277705 95.791271 364.642764 67.194108 375.007823 82.876423 385.372881 60.736684 395.737940 80.108956 406.102999 29.372054 416.468057 9.077293 426.833116 70.884065 437.198175 69.039086 447.563233 41.364413 457.928292 40.441923 468.293351 91.178826 478.658409 140.993239 489.023468 214.792369 499.388527 259.071847 509.753585 321.801108 520.118644 364.235608 530.483703 408.515086 540.848761 430.654825 551.213820 448.182119 561.578879 455.562032 571.943937 458.329499 582.308996 458.329499 592.674055 462.019456 603.039113 462.941945 613.404172 462.019456 623.769231 462.941945" /></g><g class="series serie-1 color-1"><path class="line reactive nofill" d="M12.230769 462.923352 L22.595828 462.909921 32.960887 462.887708 43.325945 462.851630 53.691004 462.794083 64.056063 462.703935 74.421121 462.565235 84.786180 462.355621 95.151239 462.044410 105.516297 461.590414 115.881356 460.939524 126.246415 460.022198 136.611473 458.750977 146.976532 457.018250 157.341591 454.694483 167.706649 451.627168 178.071708 447.640761 188.436767 442.537853 198.801825 436.101856 209.166884 428.101449 219.531943 418.297106 229.897001 406.450049 240.262060 392.334118 250.627119 375.751103 260.992177 356.550135 271.357236 334.651613 281.722295 310.075664 292.087353 282.974287 302.452412 253.664907 312.817471 222.661287 323.182529 190.695790 333.547588 158.725539 343.912647 127.914606 354.277705 99.585927 364.642764 75.140317 375.007823 55.945782 385.372881 43.207254 395.737940 37.833350 406.102999 40.320882 416.468057 50.677935 426.833116 68.401659 437.198175 92.518016 447.563233 121.679464 457.928292 154.305669 468.293351 188.744543 478.658409 223.428179 489.023468 257.001067 499.388527 288.405282 509.753585 316.916943 520.118644 342.137639 530.483703 363.951470 540.848761 382.461843 551.213820 397.921989 561.578879 410.670396 571.943937 421.078183 582.308996 429.511234 592.674055 436.306617 603.039113 441.760734 613.404172 446.125904 623.769231 449.612180" /></g><g class="series serie-2 color-2"><path class="line reactive nofill" d="M12.230769 462.941345 L22.595828 462.941054 32.960887 462.940631 43.325945 462.940018 53.691004 462.939134 64.056063 462.937866 74.421121 462.936057 84.786180 462.933486 95.151239 462.929849 105.516297 462.924723 115.881356 462.917521 126.246415 462.907433 136.611473 462.893331 146.976532 462.873654 157.341591 462.846227 167.706649 462.808015 178.071708 462.754784 188.436767 462.680613 198.801825 462.577238 209.166884 462.433171 219.531943 462.232542 229.897001 461.953658 240.262060 461.567276 250.627119 461.034686 260.992177 460.305788 271.357236 459.317485 281.722295 457.992876 292.087353 456.241849 302.452412 453.963798 312.817471 451.053117 323.182529 447.407939 333.547588 442.942191 343.912647 437.600397 354.277705 431.373923 364.642764 424.316590 375.007823 416.556986 385.372881 408.304617 395.737940 399.847345 406.102999 391.538553 416.468057 383.773942 426.833116 376.959706 437.198175 371.475557 447.563233 367.637423 457.928292 365.665102 468.293351 365.659708 478.658409 367.594310 489.023468 371.319042 499.388527 376.579627 509.753585 383.046194 520.118644 390.347802 530.483703 398.107652 540.848761 405.974379 551.213820 413.646041 561.578879 420.885011 571.943937 427.523632 582.308996 433.461848 592.674055 438.658908 603.039113 443.121551 613.404172 446.890964 623.769231 450.030326" /></g><g class="series serie-3 color-3"><path class="line reactive nofill" d="M12.230769 462.923952 L22.595828 462.910811 32.960887 462.889022 43.325945 462.853557 53.691004 462.796894 64.056063 462.708014 74.421121 462.571123 84.786180 462.364080 95.151239 462.056506 105.516297 461.607636 115.881356 460.963947 126.246415 460.056710 136.611473 458.799590 146.976532 457.086540 157.341591 454.790201 167.706649 451.761098 178.071708 447.827921 188.436767 442.799185 198.801825 436.466562 209.166884 428.610223 219.531943 419.006508 229.897001 407.438335 240.262060 393.708787 250.627119 377.658362 260.992177 359.186293 271.357236 338.276072 281.722295 315.024733 292.087353 289.674383 302.452412 262.643054 312.817471 234.550115 323.182529 206.229797 333.547588 178.725293 343.912647 153.256154 354.277705 131.153949 364.642764 113.765672 375.007823 102.330741 385.372881 97.844582 395.737940 100.927950 406.102999 111.724274 416.468057 129.845937 426.833116 154.383898 437.198175 183.984403 447.563233 216.983985 457.928292 251.582512 468.293351 286.026780 478.658409 318.775813 489.023468 348.623970 499.388527 374.767600 509.753585 396.812694 520.118644 414.731782 530.483703 428.785763 540.848761 439.429409 551.213820 447.217892 561.578879 452.727329 571.943937 456.496495 582.308996 458.991331 592.674055 460.589654 603.039113 461.581128 613.404172 462.176885 623.769231 462.523799" /></g><g class="series serie-4 color-4"><path class="line reactive nofill" d="M12.230769 462.941945 L22.595828 462.941945 32.960887 462.941945 43.325945 462.941945 53.691004 462.941945 64.056063 462.941944 74.421121 462.941944 84.786180 462.941942 95.151239 462.941937 105.516297 462.941926 115.881356 462.941901 126.246415 462.941843 136.611473 462.941718 146.976532 462.941450 157.341591 462.940894 167.706649 462.939768 178.071708 462.937552 188.436767 462.933305 198.801825 462.925385 209.166884 462.911008 219.531943 462.885619 229.897001 462.842000 240.262060 462.769109 250.627119 462.650650 260.992177 462.463476 271.357236 462.175999 281.722295 461.746953 292.087353 461.124944 302.452412 460.249367 312.817471 459.053247 323.182529 457.468471 333.547588 455.433588 343.912647 452.903889 354.277705 449.862862 364.642764 446.333542 375.007823 442.387706 385.372881 438.150729 395.737940 433.800090 406.102999 429.556322 416.468057 425.666341 426.833116 422.380556 437.198175 419.926553 447.563233 418.483132 457.928292 418.158781 468.293351 418.978208 478.658409 420.879225 489.023468 423.720550 499.388527 427.299160 509.753585 431.374229 520.118644 435.693758 530.483703 440.019814 540.848761 444.148981 551.213820 447.925798 561.578879 451.248441 571.943937 454.067244 582.308996 456.377686 592.674055 458.209990 603.039113 459.617505 613.404172 460.665699 623.769231 461.422997" /></g><g class="series serie-5 color-5"><path class="line reactive nofill" d="M12.230769 462.941945 L22.595828 462.941945 32.960887 462.941944 43.325945 462.941943 53.691004 462.941941 64.056063 462.941936 74.421121 462.941926 84.786180 462.941906 95.151239 462.941864 105.516297 462.941783 115.881356 462.941625 126.246415 462.941326 136.611473 462.940770 146.976532 462.939760 157.341591 462.937961 167.706649 462.934823 178.071708 462.929460 188.436767 462.920488 198.801825 462.905789 209.166884 462.882212 219.531943 462.845187 229.897001 462.788277 240.262060 462.702664 250.627119 462.576636 260.992177 462.395130 271.357236 462.139441 281.722295 461.787212 292.087353 461.312862 302.452412 460.688575 312.817471 459.885975 323.182529 458.878512 333.547588 457.644523 343.912647 456.170779 354.277705 454.456204 364.642764 452.515327 375.007823 450.380934 385.372881 448.105387 395.737940 445.760126 406.102999 443.433057 416.468057 441.223770 426.833116 439.236858 437.198175 437.573889 447.563233 436.324875 457.928292 435.560225 468.293351 435.324175 478.658409 435.630547 489.023468 436.461416 499.388527 437.768839 509.753585 439.479441 520.118644 441.501226 530.483703 443.731751 540.848761 446.066643 551.213820 448.407489 561.578879 450.668303 571.943937 452.780031 582.308996 454.692875 592.674055 456.376534 603.039113 457.818687 613.404172 459.022199 623.769231 460.001608" /></g><g class="series serie-6 color-6"><path class="line reactive nofill" d="M12.230769 462.941939 L22.595828 462.941933 32.960887 462.941923 43.325945 462.941904 53.691004 462.941869 64.056063 462.941809 74.421121 462.941703 84.786180 462.941522 95.151239 462.941215 105.516297 462.940703 115.881356 462.939865 126.246415 462.938510 136.611473 462.936354 146.976532 462.932977 157.341591 462.927769 167.706649 462.919861 178.071708 462.908036 188.436767 462.890634 198.801825 462.865421 209.166884 462.829470 219.531943 462.779017 229.897001 462.709344 240.262060 462.614675 250.627119 462.488129 260.992177 462.321746 271.357236 462.106610 281.722295 461.833105 292.087353 461.491319 302.452412 461.071608 312.817471 460.565309 323.182529 459.965597 333.547588 459.268419 343.912647 458.473456 354.277705 457.585009 364.642764 456.612720 375.007823 455.572024 385.372881 454.484223 395.737940 453.376124 406.102999 452.279194 416.468057 451.228232 426.833116 450.259642 437.198175 449.409386 447.563233 448.710795 457.928292 448.192412 468.293351 447.876054 478.658409 447.775297 489.023468 447.894504 499.388527 448.228515 509.753585 448.763015 520.118644 449.475553 530.483703 450.337107 540.848761 451.314038 551.213820 452.370264 561.578879 453.469440 571.943937 454.576985 582.308996 455.661782 592.674055 456.697460 603.039113 457.663204 613.404172 458.544075 623.769231 459.330902" /></g><g class="series serie-7 color-7"><path class="line reactive nofill" d="M12.230769 462.941852 L22.595828 462.941793 32.960887 462.941700 43.325945 462.941555 53.691004 462.941331 64.056063 462.940988 74.421121 462.940470 84.786180 462.939694 95.151239 462.938547 105.516297 462.936871 115.881356 462.934449 126.246415 462.930988 136.611473 462.926099 146.976532 462.919275 157.341591 462.909856 167.706649 462.897010 178.071708 462.879693 188.436767 462.856620 198.801825 462.826245 209.166884 462.786729 219.531943 462.735939 229.897001 462.671445 240.262060 462.590549 250.627119 462.490329 260.992177 462.367718 271.357236 462.219608 281.722295 462.042988 292.087353 461.835116 302.452412 461.593713 312.817471 461.317179 323.182529 461.004812 333.547588 460.657027 343.912647 460.275553 354.277705 459.863581 364.642764 459.425870 375.007823 458.968760 385.372881 458.500116 395.737940 458.029165 406.102999 457.566244 416.468057 457.122449 426.833116 456.709220 437.198175 456.337855 447.563233 456.019008 457.928292 455.762181 468.293351 455.575256 478.658409 455.464092 489.023468 455.432223 499.388527 455.480667 509.753585 455.607876 520.118644 455.809817 530.483703 456.080183 540.848761 456.410721 551.213820 456.791650 561.578879 457.212143 571.943937 457.660829 582.308996 458.126302 592.674055 458.597592 603.039113 459.064564 613.404172 459.518258 623.769231 459.951112" /></g><g class="series serie-8 color-8"><path class="line reactive nofill" d="M12.230769 462.941445 L22.595828 462.941219 32.960887 462.940899 43.325945 462.940451 53.691004 462.939827 64.056063 462.938968 74.421121 462.937794 84.786180 462.936203 95.151239 462.934065 105.516297 462.931219 115.881356 462.927462 126.246415 462.922546 136.611473 462.916169 146.976532 462.907971 157.341591 462.897525 167.706649 462.884333 178.071708 462.867822 188.436767 462.847344 198.801825 462.822177 209.166884 462.791532 219.531943 462.754559 229.897001 462.710372 240.262060 462.658059 250.627119 462.596721 260.992177 462.525496 271.357236 462.443607 281.722295 462.350398 292.087353 462.245387 302.452412 462.128314 312.817471 461.999186 323.182529 461.858327 333.547588 461.706412 343.912647 461.544500 354.277705 461.374046 364.642764 461.196911 375.007823 461.015343 385.372881 460.831942 395.737940 460.649619 406.102999 460.471516 416.468057 460.300930 426.833116 460.141210 437.198175 459.995653 447.563233 459.867392 457.928292 459.759282 468.293351 459.673794 478.658409 459.612928 489.023468 459.578128 499.388527 459.570225 509.753585 459.589412 520.118644 459.635227 530.483703 459.706576 540.848761 459.801775 551.213820 459.918620 561.578879 460.054463 571.943937 460.206322 582.308996 460.370983 592.674055 460.545112 603.039113 460.725370 613.404172 460.908514 623.769231 461.091487" /></g><g class="series serie-9 color-9"><path class="line reactive nofill" d="M12.230769 462.941945 L22.595828 462.941945 32.960887 462.941945 43.325945 462.941945 53.691004 462.941945 64.056063 462.941945 74.421121 462.941944 84.786180 462.941943 95.151239 462.941940 105.516297 462.941931 115.881356 462.941909 126.246415 462.941851 136.611473 462.941709 146.976532 462.941370 157.341591 462.940590 167.706649 462.938852 178.071708 462.935112 188.436767 462.927331 198.801825 462.911690 209.166884 462.881310 219.531943 462.824311 229.897001 462.721026 240.262060 462.540318 250.627119 462.235138 260.992177 461.737830 271.357236 460.956199 281.722295 459.771880 292.087353 458.043013 302.452412 455.613307 312.817471 452.329050 323.182529 448.064336 333.547588 442.752651 343.912647 436.420459 354.277705 429.216067 364.642764 421.425766 375.007823 413.469861 385.372881 405.874065 395.737940 399.216632 406.102999 394.057538 416.468057 390.861314 426.833116 389.928147 437.198175 391.347388 447.563233 394.983446 457.928292 400.497148 468.293351 407.397908 478.658409 415.115584 489.023468 423.077480 499.388527 430.776227 509.753585 437.817917 520.118644 443.945428 530.483703 449.037700 540.848761 453.090282 551.213820 456.184844 561.578879 458.455525 571.943937 460.058390 582.308996 461.147851 592.674055 461.861380 603.039113 462.311938 613.404172 462.586372 623.769231 462.747677" /></g><g class="series serie-10 color-10"><path class="line reactive nofill" d="M12.230769 462.941945 L22.595828 462.941945 32.960887 462.941945 43.325945 462.941944 53.691004 462.941944 64.056063 462.941942 74.421121 462.941936 84.786180 462.941921 95.151239 462.941883 105.516297 462.941788 115.881356 462.941564 126.246415 462.941044 136.611473 462.939884 146.976532 462.937372 157.341591 462.932110 167.706649 462.921442 178.071708 462.900514 188.436767 462.860792 198.801825 462.787863 209.166884 462.658373 219.531943 462.436071 229.897001 462.067187 240.262060 461.475720 250.627119 460.559735 260.992177 459.190260 271.357236 457.214782 281.722295 454.467340 292.087353 450.786630 302.452412 446.042213 312.817471 440.166849 323.182529 433.190542 333.547588 425.269700 343.912647 416.703589 354.277705 407.930876 364.642764 399.501736 375.007823 392.025664 385.372881 386.100748 395.737940 382.235334 406.102999 380.776176 416.468057 381.857124 426.833116 385.378870 437.198175 391.023995 447.563233 398.304169 457.928292 406.629766 468.293351 415.388161 478.658409 424.016405 489.023468 432.056701 499.388527 439.188081 509.753585 445.233342 520.118644 450.145151 530.483703 453.978296 540.848761 456.855897 551.213820 458.936482 561.578879 460.386675 571.943937 461.361833 582.308996 461.994824 592.674055 462.391657 603.039113 462.632031 613.404172 462.772761 623.769231 462.852420" /></g><g class="series serie-11 color-11"><path class="line reactive nofill" d="M12.230769 462.941944 L22.595828 462.941942 32.960887 462.941937 43.325945 462.941925 53.691004 462.941895 64.056063 462.941825 74.421121 462.941662 84.786180 462.941296 95.151239 462.940499 105.516297 462.938814 115.881356 462.935352 126.246415 462.928448 136.611473 462.915080 146.976532 462.889956 157.341591 462.844129 167.706649 462.763013 178.071708 462.623712 188.436767 462.391671 198.801825 462.016840 209.166884 461.429845 219.531943 460.538979 229.897001 459.229222 240.262060 457.364759 250.627119 454.796488 260.992177 451.375672 271.357236 446.973997 281.722295 441.508968 292.087353 434.971875 302.452412 427.453882 312.817471 419.164669 323.182529 410.437887 333.547588 401.718934 343.912647 393.533199 354.277705 386.436667 364.642764 380.954702 375.007823 377.518150 385.372881 376.407476 395.737940 377.714967 406.102999 381.332065 416.468057 386.964257 426.833116 394.170666 437.198175 402.420983 447.563233 411.159539 457.928292 419.865850 468.293351 428.102750 478.658409 435.546549 489.023468 441.997698 499.388527 447.374060 509.753585 451.691436 520.118644 455.037118 530.483703 457.541988 540.848761 459.355485 551.213820 460.626048 561.578879 461.487992 571.943937 462.054464 582.308996 462.415267 592.674055 462.638060 603.039113 462.771474 613.404172 462.848969 623.769231 462.892642" /></g><g class="series serie-12 color-12"><path class="line reactive nofill" d="M12.230769 462.941823 L22.595828 462.941675 32.960887 462.941362 43.325945 462.940717 53.691004 462.939419 64.056063 462.936876 74.421121 462.932011 84.786180 462.922942 95.151239 462.906454 105.516297 462.877236 115.881356 462.826766 126.246415 462.741800 136.611473 462.602414 146.976532 462.379634 157.341591 462.032797 167.706649 461.506935 178.071708 460.730700 188.436767 459.615498 198.801825 458.056703 209.166884 455.937827 219.531943 453.138414 229.897001 449.545999 240.262060 445.071884 250.627119 439.669584 260.992177 433.353874 271.357236 426.217551 281.722295 418.442520 292.087353 410.301937 302.452412 402.150948 312.817471 394.405059 323.182529 387.507231 333.547588 381.886927 343.912647 377.916220 354.277705 375.869134 364.642764 375.890385 375.007823 377.978457 385.372881 381.985787 395.737940 387.636007 406.102999 394.555451 416.468057 402.313947 426.833116 410.468703 437.198175 418.605144 447.563233 426.369619 457.928292 433.490772 468.293351 439.788566 478.658409 445.171924 489.023468 449.627493 499.388527 453.202809 509.753585 455.987230 520.118644 458.093527 530.483703 459.642184 540.848761 460.749510 551.213820 461.519836 561.578879 462.041410 571.943937 462.385233 582.308996 462.605959 592.674055 462.743986 603.039113 462.828080 613.404172 462.878006 623.769231 462.906894" /></g><g class="series serie-13 color-13"><path class="line reactive nofill" d="M12.230769 462.924075 L22.595828 462.911084 32.960887 462.889613 43.325945 462.854806 53.691004 462.799471 64.056063 462.713207 74.421121 462.581350 84.786180 462.383757 95.151239 462.093509 105.516297 461.675645 115.881356 461.086136 126.246415 460.271346 136.611473 459.168283 146.976532 457.705987 157.341591 455.808355 167.706649 453.398635 178.071708 450.405663 188.436767 446.771673 198.801825 442.461246 209.166884 437.470647 219.531943 431.836512 229.897001 425.642681 240.262060 419.023885 250.627119 412.165197 260.992177 405.296437 271.357236 398.681323 281.722295 392.601805 292.087353 387.338707 302.452412 383.150484 312.817471 380.252267 323.182529 378.797580 333.547588 378.864862 343.912647 380.450466 354.277705 383.468983 364.642764 387.760864 375.007823 393.106389 385.372881 399.244285 395.737940 405.892790 406.102999 412.770822 416.468057 419.617074 426.833116 426.205292 437.198175 432.354672 447.563233 437.934991 457.928292 442.866754 468.293351 447.117174 478.658409 450.693131 489.023468 453.632378 499.388527 455.994201 509.753585 457.850548 520.118644 459.278337 530.483703 460.353375 540.848761 461.146014 551.213820 461.718461 561.578879 462.123507 571.943937 462.404354 582.308996 462.595210 592.674055 462.722350 603.039113 462.805385 613.404172 462.858556 623.769231 462.891945" /></g></g><g class="titles"><text class="title plot_title" x="400.0" y="26">Iteration #1</text><text class="title" x="462.0" y="580.0">Observation</text><text class="title" transform="rotate(-90 64.000000 282.009619)" x="64.0" y="308.0096189432334">Density</text></g><g class="plot overlay" transform="translate(144, 46)"><g class="series serie-0 color-0" /><g class="series serie-1 color-1" /><g class="series serie-2 color-2" /><g class="series serie-3 color-3" /><g class="series serie-4 color-4" /><g class="series serie-5 color-5" /><g class="series serie-6 color-6" /><g class="series serie-7 color-7" /><g class="series serie-8 color-8" /><g class="series serie-9 color-9" /><g class="series serie-10 color-10" /><g class="series serie-11 color-11" /><g class="series serie-12 color-12" /><g class="series serie-13 color-13" /></g><g class="plot text-overlay" transform="translate(144, 46)"><g class="series serie-0 color-0" /><g class="series serie-1 color-1" /><g class="series serie-2 color-2" /><g class="series serie-3 color-3" /><g class="series serie-4 color-4" /><g class="series serie-5 color-5" /><g class="series serie-6 color-6" /><g class="series serie-7 color-7" /><g class="series serie-8 color-8" /><g class="series serie-9 color-9" /><g class="series serie-10 color-10" /><g class="series serie-11 color-11" /><g class="series serie-12 color-12" /><g class="series serie-13 color-13" /></g><g class="plot tooltip-overlay" transform="translate(144, 46)"><g class="tooltip" style="opacity: 0" transform="translate(0 0)"><rect class="tooltip-box" height="0" rx="0" ry="0" width="0" /><g class="text" /></g></g><g class="legends" transform="translate(10, 56)"><g class="legend reactive activate-serie" id="activate-serie-0"><rect class="color-0 reactive" height="12" width="12" x="0.0" y="0.0" /><text x="17.0" y="9.0">Data</text></g><g class="legend reactive activate-serie" id="activate-serie-1"><rect class="color-1 reactive" height="12" width="12" x="0.0" y="18.0" /><text x="17.0" y="27.0">GMM</text></g><g class="legend reactive activate-serie" id="activate-serie-2"><rect class="color-2 reactive" height="12" width="12" x="0.0" y="36.0" /><text x="17.0" y="45.0">i=0</text></g><g class="legend reactive activate-serie" id="activate-serie-3"><rect class="color-3 reactive" height="12" width="12" x="0.0" y="54.0" /><text x="17.0" y="63.0">i=1</text></g><g class="legend reactive activate-serie" id="activate-serie-4"><rect class="color-4 reactive" height="12" width="12" x="0.0" y="72.0" /><text x="17.0" y="81.0">i=0 k=0</text></g><g class="legend reactive activate-serie" id="activate-serie-5"><rect class="color-5 reactive" height="12" width="12" x="0.0" y="90.0" /><text x="17.0" y="99.0">i=0 k=1</text></g><g class="legend reactive activate-serie" id="activate-serie-6"><rect class="color-6 reactive" height="12" width="12" x="0.0" y="108.0" /><text x="17.0" y="117.0">i=0 k=2</text></g><g class="legend reactive activate-serie" id="activate-serie-7"><rect class="color-7 reactive" height="12" width="12" x="0.0" y="126.0" /><text x="17.0" y="135.0">i=0 k=3</text></g><g class="legend reactive activate-serie" id="activate-serie-8"><rect class="color-8 reactive" height="12" width="12" x="0.0" y="144.0" /><text x="17.0" y="153.0">i=0 k=4</text></g><g class="legend reactive activate-serie" id="activate-serie-9"><rect class="color-9 reactive" height="12" width="12" x="0.0" y="162.0" /><text x="17.0" y="171.0">i=1 k=0</text></g><g class="legend reactive activate-serie" id="activate-serie-10"><rect class="color-10 reactive" height="12" width="12" x="0.0" y="180.0" /><text x="17.0" y="189.0">i=1 k=1</text></g><g class="legend reactive activate-serie" id="activate-serie-11"><rect class="color-11 reactive" height="12" width="12" x="0.0" y="198.0" /><text x="17.0" y="207.0">i=1 k=2</text></g><g class="legend reactive activate-serie" id="activate-serie-12"><rect class="color-12 reactive" height="12" width="12" x="0.0" y="216.0" /><text x="17.0" y="225.0">i=1 k=3</text></g><g class="legend reactive activate-serie" id="activate-serie-13"><rect class="color-13 reactive" height="12" width="12" x="0.0" y="234.0" /><text x="17.0" y="243.0">i=1 k=4</text></g></g><g class="legends" transform="translate(790, 56)" /></g></svg>