<?xml version='1.0' encoding='utf-8'?>
<svg xmlns:xlink="http://www.w3.org/1999/xlink" class="pygal-chart" id="chart-a7ecb9af-4bc7-4927-82e4-ac2d5c6efc24" viewBox="0 0 800 600" xmlns="http://www.w3.org/2000/svg"><!--Generated with pygal 2.4.0 (etree) ©Kozea 2012-2016 on 2018-02-06--><!--http://pygal.org--><!--http://github.com/Kozea/pygal--><defs><style type="text/css">#chart-a7ecb9af-4bc7-4927-82e4-ac2d5c6efc24{-webkit-user-select:none;-webkit-font-smoothing:antialiased;font-family:Consolas,"Liberation Mono",Menlo,Courier,monospace}#chart-a7ecb9af-4bc7-4927-82e4-ac2d5c6efc24 .title{font-family:Consolas,"Liberation Mono",Menlo,Courier,monospace;font-size:16px}#chart-a7ecb9af-4bc7-4927-82e4-ac2d5c6efc24 .legends .legend text{font-family:Consolas,"Liberation Mono",Menlo,Courier,monospace;font-size:10px}#chart-a7ecb9af-4bc7-4927-82e4-ac2d5c6efc24 .axis text{font-family:Consolas,"Liberation Mono",Menlo,Courier,monospace;font-size:10px}#chart-a7ecb9af-4bc7-4927-82e4-ac2d5c6efc24 .axis text.major{font-family:Consolas,"Liberation Mono",Menlo,Courier,monospace;font-size:10px}#chart-a7ecb9af-4bc7-4927-82e4-ac2d5c6efc24 .text-overlay text.value{font-family:Consolas,"Liberation Mono",Menlo,Courier,monospace;font-size:16px}#chart-a7ecb9af-4bc7-4927-82e4-ac2d5c6efc24 .text-overlay text.label{font-family:Consolas,"Liberation Mono",Menlo,Courier,monospace;font-size:10px}#chart-a7ecb9af-4bc7-4927-82e4-ac2d5c6efc24 .tooltip{font-family:Consolas,"Liberation Mono",Menlo,Courier,monospace;font-size:14px}#chart-a7ecb9af-4bc7-4927-82e4-ac2d5c6efc24 text.no_data{font-family:Consolas,"Liberation Mono",Menlo,Courier,monospace;font-size:64px}
#chart-a7ecb9af-4bc7-4927-82e4-ac2d5c6efc24{background-color:rgba(249,249,249,1)}#chart-a7ecb9af-4bc7-4927-82e4-ac2d5c6efc24 path,#chart-a7ecb9af-4bc7-4927-82e4-ac2d5c6efc24 line,#chart-a7ecb9af-4bc7-4927-82e4-ac2d5c6efc24 rect,#chart-a7ecb9af-4bc7-4927-82e4-ac2d5c6efc24 circle{-webkit-transition:150ms;-moz-transition:150ms;transition:150ms}#chart-a7ecb9af-4bc7-4927-82e4-ac2d5c6efc24 .graph &gt; .background{fill:rgba(249,249,249,1)}#chart-a7ecb9af-4bc7-4927-82e4-ac2d5c6efc24 .plot &gt; .background{fill:rgba(255,255,255,1)}#chart-a7ecb9af-4bc7-4927-82e4-ac2d5c6efc24 .graph{fill:rgba(0,0,0,.87)}#chart-a7ecb9af-4bc7-4927-82e4-ac2d5c6efc24 text.no_data{fill:rgba(0,0,0,1)}#chart-a7ecb9af-4bc7-4927-82e4-ac2d5c6efc24 .title{fill:rgba(0,0,0,1)}#chart-a7ecb9af-4bc7-4927-82e4-ac2d5c6efc24 .legends .legend text{fill:rgba(0,0,0,.87)}#chart-a7ecb9af-4bc7-4927-82e4-ac2d5c6efc24 .legends .legend:hover text{fill:rgba(0,0,0,1)}#chart-a7ecb9af-4bc7-4927-82e4-ac2d5c6efc24 .axis .line{stroke:rgba(0,0,0,1)}#chart-a7ecb9af-4bc7-4927-82e4-ac2d5c6efc24 .axis .guide.line{stroke:rgba(0,0,0,.54)}#chart-a7ecb9af-4bc7-4927-82e4-ac2d5c6efc24 .axis .major.line{stroke:rgba(0,0,0,.87)}#chart-a7ecb9af-4bc7-4927-82e4-ac2d5c6efc24 .axis text.major{fill:rgba(0,0,0,1)}#chart-a7ecb9af-4bc7-4927-82e4-ac2d5c6efc24 .axis.y .guides:hover .guide.line,#chart-a7ecb9af-4bc7-4927-82e4-ac2d5c6efc24 .line-graph .axis.x .guides:hover .guide.line,#chart-a7ecb9af-4bc7-4927-82e4-ac2d5c6efc24 .stackedline-graph .axis.x .guides:hover .guide.line,#chart-a7ecb9af-4bc7-4927-82e4-ac2d5c6efc24 .xy-graph .axis.x .guides:hover .guide.line{stroke:rgba(0,0,0,1)}#chart-a7ecb9af-4bc7-4927-82e4-ac2d5c6efc24 .axis .guides:hover text{fill:rgba(0,0,0,1)}#chart-a7ecb9af-4bc7-4927-82e4-ac2d5c6efc24 .reactive{fill-opacity:.7;stroke-opacity:.8}#chart-a7ecb9af-4bc7-4927-82e4-ac2d5c6efc24 .ci{stroke:rgba(0,0,0,.87)}#chart-a7ecb9af-4bc7-4927-82e4-ac2d5c6efc24 .reactive.active,#chart-a7ecb9af-4bc7-4927-82e4-ac2d5c6efc24 .active .reactive{fill-opacity:.8;stroke-opacity:.9;stroke-width:4}#chart-a7ecb9af-4bc7-4927-82e4-ac2d5c6efc24 .ci .reactive.active{stroke-width:1.5}#chart-a7ecb9af-4bc7-4927-82e4-ac2d5c6efc24 .series text{fill:rgba(0,0,0,1)}#chart-a7ecb9af-4bc7-4927-82e4-ac2d5c6efc24 .tooltip rect{fill:rgba(255,255,255,1);stroke:rgba(0,0,0,1);-webkit-transition:opacity 150ms;-moz-transition:opacity 150ms;transition:opacity 150ms}#chart-a7ecb9af-4bc7-4927-82e4-ac2d5c6efc24 .tooltip .label{fill:rgba(0,0,0,.87)}#chart-a7ecb9af-4bc7-4927-82e4-ac2d5c6efc24 .tooltip .label{fill:rgba(0,0,0,.87)}#chart-a7ecb9af-4bc7-4927-82e4-ac2d5c6efc24 .tooltip .legend{font-size:.8em;fill:rgba(0,0,0,.54)}#chart-a7ecb9af-4bc7-4927-82e4-ac2d5c6efc24 .tooltip .x_label{font-size:.6em;fill:rgba(0,0,0,1)}#chart-a7ecb9af-4bc7-4927-82e4-ac2d5c6efc24 .tooltip .xlink{font-size:.5em;text-decoration:underline}#chart-a7ecb9af-4bc7-4927-82e4-ac2d5c6efc24 .tooltip .value{font-size:1.5em}#chart-a7ecb9af-4bc7-4927-82e4-ac2d5c6efc24 .bound{font-size:.5em}#chart-a7ecb9af-4bc7-4927-82e4-ac2d5c6efc24 .max-value{font-size:.75em;fill:rgba(0,0,0,.54)}#chart-a7ecb9af-4bc7-4927-82e4-ac2d5c6efc24 .map-element{fill:rgba(255,255,255,1);stroke:rgba(0,0,0,.54) !important}#chart-a7ecb9af-4bc7-4927-82e4-ac2d5c6efc24 .map-element .reactive{fill-opacity:inherit;stroke-opacity:inherit}#chart-a7ecb9af-4bc7-4927-82e4-ac2d5c6efc24 .color-0,#chart-a7ecb9af-4bc7-4927-82e4-ac2d5c6efc24 .color-0 a:visited{stroke:#909090;fill:#909090}#chart-a7ecb9af-4bc7-4927-82e4-ac2d5c6efc24 .color-1,#chart-a7ecb9af-4bc7-4927-82e4-ac2d5c6efc24 .color-1 a:visited{stroke:#000000;fill:#000000}#chart-a7ecb9af-4bc7-4927-82e4-ac2d5c6efc24 .color-2,#chart-a7ecb9af-4bc7-4927-82e4-ac2d5c6efc24 .color-2 a:visited{stroke:#ff0500;fill:#ff0500}#chart-a7ecb9af-4bc7-4927-82e4-ac2d5c6efc24 .color-3,#chart-a7ecb9af-4bc7-4927-82e4-ac2d5c6efc24 .color-3 a:visited{stroke:#323299;fill:#323299}#chart-a7ecb9af-4bc7-4927-82e4-ac2d5c6efc24 .color-4,#chart-a7ecb9af-4bc7-4927-82e4-ac2d5c6efc24 .color-4 a:visited{stroke:#a3413f;fill:#a3413f}#chart-a7ecb9af-4bc7-4927-82e4-ac2d5c6efc24 .color-5,#chart-a7ecb9af-4bc7-4927-82e4-ac2d5c6efc24 .color-5 a:visited{stroke:#a3413f;fill:#a3413f}#chart-a7ecb9af-4bc7-4927-82e4-ac2d5c6efc24 .color-6,#chart-a7ecb9af-4bc7-4927-82e4-ac2d5c6efc24 .color-6 a:visited{stroke:#657fff;fill:#657fff}#chart-a7ecb9af-4bc7-4927-82e4-ac2d5c6efc24 .color-7,#chart-a7ecb9af-4bc7-4927-82e4-ac2d5c6efc24 .color-7 a:visited{stroke:#657fff;fill:#657fff}#chart-a7ecb9af-4bc7-4927-82e4-ac2d5c6efc24 .text-overlay .color-0 text{fill:black}#chart-a7ecb9af-4bc7-4927-82e4-ac2d5c6efc24 .text-overlay .color-1 text{fill:white}#chart-a7ecb9af-4bc7-4927-82e4-ac2d5c6efc24 .text-overlay .color-2 text{fill:black}#chart-a7ecb9af-4bc7-4927-82e4-ac2d5c6efc24 .text-overlay .color-3 text{fill:black}#chart-a7ecb9af-4bc7-4927-82e4-ac2d5c6efc24 .text-overlay .color-4 text{fill:black}#chart-a7ecb9af-4bc7-4927-82e4-ac2d5c6efc24 .text-overlay .color-5 text{fill:black}#chart-a7ecb9af-4bc7-4927-82e4-ac2d5c6efc24 .text-overlay .color-6 text{fill:black}#chart-a7ecb9af-4bc7-4927-82e4-ac2d5c6efc24 .text-overlay .color-7 text{fill:black}#chart-a7ecb9af-4bc7-4927-82e4-ac2d5c6efc24 .series.serie-1{stroke-width:5}#chart-a7ecb9af-4bc7-4927-82e4-ac2d5c6efc24 .series.serie-2{stroke-width:3}#chart-a7ecb9af-4bc7-4927-82e4-ac2d5c6efc24 .series.serie-3{stroke-width:3}#chart-a7ecb9af-4bc7-4927-82e4-ac2d5c6efc24 .series.serie-4{stroke-width:2;stroke-dasharray:2,2}#chart-a7ecb9af-4bc7-4927-82e4-ac2d5c6efc24 .series.serie-5{stroke-width:2;stroke-dasharray:2,2}#chart-a7ecb9af-4bc7-4927-82e4-ac2d5c6efc24 .series.serie-6{stroke-width:2;stroke-dasharray:2,2}#chart-a7ecb9af-4bc7-4927-82e4-ac2d5c6efc24 .series.serie-7{stroke-width:2;stroke-dasharray:2,2}
#chart-a7ecb9af-4bc7-4927-82e4-ac2d5c6efc24 text.no_data{text-anchor:middle}#chart-a7ecb9af-4bc7-4927-82e4-ac2d5c6efc24 .guide.line{fill:none}#chart-a7ecb9af-4bc7-4927-82e4-ac2d5c6efc24 .centered{text-anchor:middle}#chart-a7ecb9af-4bc7-4927-82e4-ac2d5c6efc24 .title{text-anchor:middle}#chart-a7ecb9af-4bc7-4927-82e4-ac2d5c6efc24 .legends .legend text{fill-opacity:1}#chart-a7ecb9af-4bc7-4927-82e4-ac2d5c6efc24 .axis.x text{text-anchor:middle}#chart-a7ecb9af-4bc7-4927-82e4-ac2d5c6efc24 .axis.x:not(.web) text[transform]{text-anchor:start}#chart-a7ecb9af-4bc7-4927-82e4-ac2d5c6efc24 .axis.x:not(.web) text[transform].backwards{text-anchor:end}#chart-a7ecb9af-4bc7-4927-82e4-ac2d5c6efc24 .axis.y text{text-anchor:end}#chart-a7ecb9af-4bc7-4927-82e4-ac2d5c6efc24 .axis.y text[transform].backwards{text-anchor:start}#chart-a7ecb9af-4bc7-4927-82e4-ac2d5c6efc24 .axis.y2 text{text-anchor:start}#chart-a7ecb9af-4bc7-4927-82e4-ac2d5c6efc24 .axis.y2 text[transform].backwards{text-anchor:end}#chart-a7ecb9af-4bc7-4927-82e4-ac2d5c6efc24 .axis .guide.line{stroke-dasharray:4,4}#chart-a7ecb9af-4bc7-4927-82e4-ac2d5c6efc24 .axis .major.guide.line{stroke-dasharray:6,6}#chart-a7ecb9af-4bc7-4927-82e4-ac2d5c6efc24 .horizontal .axis.y .guide.line,#chart-a7ecb9af-4bc7-4927-82e4-ac2d5c6efc24 .horizontal .axis.y2 .guide.line,#chart-a7ecb9af-4bc7-4927-82e4-ac2d5c6efc24 .vertical .axis.x .guide.line{opacity:0}#chart-a7ecb9af-4bc7-4927-82e4-ac2d5c6efc24 .horizontal .axis.always_show .guide.line,#chart-a7ecb9af-4bc7-4927-82e4-ac2d5c6efc24 .vertical .axis.always_show .guide.line{opacity:1 !important}#chart-a7ecb9af-4bc7-4927-82e4-ac2d5c6efc24 .axis.y .guides:hover .guide.line,#chart-a7ecb9af-4bc7-4927-82e4-ac2d5c6efc24 .axis.y2 .guides:hover .guide.line,#chart-a7ecb9af-4bc7-4927-82e4-ac2d5c6efc24 .axis.x .guides:hover .guide.line{opacity:1}#chart-a7ecb9af-4bc7-4927-82e4-ac2d5c6efc24 .axis .guides:hover text{opacity:1}#chart-a7ecb9af-4bc7-4927-82e4-ac2d5c6efc24 .nofill{fill:none}#chart-a7ecb9af-4bc7-4927-82e4-ac2d5c6efc24 .subtle-fill{fill-opacity:.2}#chart-a7ecb9af-4bc7-4927-82e4-ac2d5c6efc24 .dot{stroke-width:1px;fill-opacity:1}#chart-a7ecb9af-4bc7-4927-82e4-ac2d5c6efc24 .dot.active{stroke-width:5px}#chart-a7ecb9af-4bc7-4927-82e4-ac2d5c6efc24 .dot.negative{fill:transparent}#chart-a7ecb9af-4bc7-4927-82e4-ac2d5c6efc24 text,#chart-a7ecb9af-4bc7-4927-82e4-ac2d5c6efc24 tspan{stroke:none !important}#chart-a7ecb9af-4bc7-4927-82e4-ac2d5c6efc24 .series text.active{opacity:1}#chart-a7ecb9af-4bc7-4927-82e4-ac2d5c6efc24 .tooltip rect{fill-opacity:.95;stroke-width:.5}#chart-a7ecb9af-4bc7-4927-82e4-ac2d5c6efc24 .tooltip text{fill-opacity:1}#chart-a7ecb9af-4bc7-4927-82e4-ac2d5c6efc24 .showable{visibility:hidden}#chart-a7ecb9af-4bc7-4927-82e4-ac2d5c6efc24 .showable.shown{visibility:visible}#chart-a7ecb9af-4bc7-4927-82e4-ac2d5c6efc24 .gauge-background{fill:rgba(229,229,229,1);stroke:none}#chart-a7ecb9af-4bc7-4927-82e4-ac2d5c6efc24 .bg-lines{stroke:rgba(249,249,249,1);stroke-width:2px}</style><script type="text/javascript">window.pygal = window.pygal || {};window.pygal.config = window.pygal.config || {};window.pygal.config['a7ecb9af-4bc7-4927-82e4-ac2d5c6efc24'] = {"height": 600, "margin": 20, "no_data_text": "No data", "min_scale": 4, "tooltip_border_radius": 0, "print_zeroes": true, "margin_left": null, "tooltip_fancy_mode": true, "stack_from_top": false, "title": "Iteration #9", "y_labels_major_count": null, "fill": false, "stroke_style": null, "print_values": false, "y_labels_major_every": null, "dots_size": 2.5, "x_labels_major_count": null, "legend_box_size": 12, "legends": ["Data", "GMM", "i=0", "i=1", "i=0 k=0", "i=0 k=1", "i=1 k=0", "i=1 k=1"], "pretty_print": false, "print_labels": false, "range": [0, 0.27578580090479526], "y_label_rotation": 0, "margin_bottom": null, "x_labels_major_every": 2, "include_x_axis": false, "legend_at_bottom": false, "zero": 0, "show_legend": true, "y_labels": null, "strict": false, "box_mode": "extremes", "show_minor_y_labels": true, "show_minor_x_labels": false, "secondary_range": null, "show_dots": false, "order_min": null, "margin_top": null, "truncate_legend": null, "spacing": 10, "classes": ["pygal-chart"], "margin_right": null, "allow_interruptions": false, "interpolation_parameters": {}, "max_scale": 16, "js": ["//kozea.github.io/pygal.js/2.0.x/pygal-tooltips.min.js"], "css": ["file://style.css", "file://graph.css"], "truncate_label": null, "show_y_labels": true, "show_only_major_dots": false, "x_title": "Observation", "x_label_rotation": 60, "formatter": null, "disable_xml_declaration": false, "legend_at_bottom_columns": null, "stroke": true, "print_values_position": "center", "y_title": "Density", "y_labels_major": null, "inner_radius": 0, "defs": [], "dynamic_print_values": false, "half_pie": false, "interpolation_precision": 250, "logarithmic": false, "rounded_bars": null, "x_labels_major": null, "show_x_guides": false, "missing_value_fill_truncation": "x", "x_labels": ["-8.96", "-8.76", "-8.56", "-8.36", "-8.16", "-7.96", "-7.76", "-7.56", "-7.36", "-7.16", "-6.96", "-6.76", "-6.56", "-6.36", "-6.16", "-5.96", "-5.76", "-5.56", "-5.36", "-5.16", "-4.96", "-4.76", "-4.56", "-4.36", "-4.16", "-3.96", "-3.76", "-3.56", "-3.36", "-3.16", "-2.96", "-2.76", "-2.56", "-2.36", "-2.16", "-1.96", "-1.76", "-1.56", "-1.36", "-1.16", "-0.96", "-0.76", "-0.56", "-0.36", "-0.16", "0.04", "0.24", "0.44", "0.64", "0.84", "1.04", "1.24", "1.43", "1.63", "1.83", "2.03", "2.23", "2.43", "2.63", "2.83"], "no_prefix": false, "width": 800, "force_uri_protocol": "https", "inverse_y_axis": false, "show_y_guides": true, "xrange": null, "show_x_labels": true, "interpolate": null, "style": {"major_label_font_size": 10, "guide_stroke_dasharray": "4,4", "major_label_font_family": "Consolas, \"Liberation Mono\", Menlo, Courier, monospace", "transition": "150ms", "background": "rgba(249, 249, 249, 1)", "foreground_strong": "rgba(0, 0, 0, 1)", "plot_background": "rgba(255, 255, 255, 1)", "value_font_family": "Consolas, \"Liberation Mono\", Menlo, Courier, monospace", "stroke_opacity": ".8", "ci_colors": [], "foreground_subtle": "rgba(0, 0, 0, .54)", "value_font_size": 16, "title_font_family": "Consolas, \"Liberation Mono\", Menlo, Courier, monospace", "title_font_size": 16, "tooltip_font_size": 14, "colors": ["#909090", "#000000", "#ff0500", "#323299", "#a3413f", "#a3413f", "#657fff", "#657fff"], "opacity": ".7", "label_font_family": "Consolas, \"Liberation Mono\", Menlo, Courier, monospace", "value_label_font_family": "Consolas, \"Liberation Mono\", Menlo, Courier, monospace", "foreground": "rgba(0, 0, 0, .87)", "stroke_opacity_hover": ".9", "value_label_font_size": 10, "font_family": "Consolas, \"Liberation Mono\", Menlo, Courier, monospace", "legend_font_size": 10, "tooltip_font_family": "Consolas, \"Liberation Mono\", Menlo, Courier, monospace", "no_data_font_size": 64, "major_guide_stroke_dasharray": "6,6", "opacity_hover": ".8", "legend_font_family": "Consolas, \"Liberation Mono\", Menlo, Courier, monospace", "value_colors": [], "label_font_size": 10, "no_data_font_family": "Consolas, \"Liberation Mono\", Menlo, Courier, monospace", "value_background": "rgba(229, 229, 229, 1)"}, "explicit_size": false}</script><script type="text/javascript" xlink:href="https://kozea.github.io/pygal.js/2.0.x/pygal-tooltips.min.js" /></defs><title>Iteration #9</title><g class="graph line-graph vertical"><rect class="background" height="600" width="800" x="0" y="0" /><g class="plot" transform="translate(144, 46)"><rect class="background" height="472.01923788646684" width="636.0" x="0" y="0" /><g class="axis y always_show"><g class="guides"><path class="axis major line" d="M0.000000 462.941945 h636.000000" /><text class="major" x="-5" y="466.44194485">0</text><title>0</title></g><g class="guides"><path class="guide line" d="M0.000000 430.027658 h636.000000" /><text class="" x="-5" y="433.527657724">0.02</text><title>0.02</title></g><g class="guides"><path class="guide line" d="M0.000000 397.113371 h636.000000" /><text class="" x="-5" y="400.613370598">0.04</text><title>0.04</title></g><g class="guides"><path class="guide line" d="M0.000000 364.199083 h636.000000" /><text class="" x="-5" y="367.699083472">0.06</text><title>0.06</title></g><g class="guides"><path class="guide line" d="M0.000000 331.284796 h636.000000" /><text class="" x="-5" y="334.784796346">0.08</text><title>0.08</title></g><g class="guides"><path class="guide line" d="M0.000000 298.370509 h636.000000" /><text class="" x="-5" y="301.87050922">0.1</text><title>0.1</title></g><g class="guides"><path class="guide line" d="M0.000000 265.456222 h636.000000" /><text class="" x="-5" y="268.956222094">0.12</text><title>0.12</title></g><g class="guides"><path class="guide line" d="M0.000000 232.541935 h636.000000" /><text class="" x="-5" y="236.041934968">0.14</text><title>0.14</title></g><g class="guides"><path class="guide line" d="M0.000000 199.627648 h636.000000" /><text class="" x="-5" y="203.127647841">0.16</text><title>0.16</title></g><g class="guides"><path class="guide line" d="M0.000000 166.713361 h636.000000" /><text class="" x="-5" y="170.213360715">0.18</text><title>0.18</title></g><g class="guides"><path class="guide line" d="M0.000000 133.799074 h636.000000" /><text class="" x="-5" y="137.299073589">0.2</text><title>0.2</title></g><g class="guides"><path class="guide line" d="M0.000000 100.884786 h636.000000" /><text class="" x="-5" y="104.384786463">0.22</text><title>0.22</title></g><g class="guides"><path class="guide line" d="M0.000000 67.970499 h636.000000" /><text class="" x="-5" y="71.4704993371">0.24</text><title>0.24</title></g><g class="guides"><path class="guide line" d="M0.000000 35.056212 h636.000000" /><text class="" x="-5" y="38.5562122111">0.26</text><title>0.26</title></g></g><g class="axis x"><g class="guides"><path class="major line" d="M12.230769 0.000000 v472.019238" /><text class="major" transform="rotate(60 12.230769 487.019238)" x="12.230769230769232" y="487.01923788646684">-8.96</text></g><g class="guides"><path class="major guide line" d="M32.960887 0.000000 v472.019238" /><text class="major" transform="rotate(60 32.960887 487.019238)" x="32.96088657105606" y="487.01923788646684">-8.56</text></g><g class="guides"><path class="major guide line" d="M53.691004 0.000000 v472.019238" /><text class="major" transform="rotate(60 53.691004 487.019238)" x="53.6910039113429" y="487.01923788646684">-8.16</text></g><g class="guides"><path class="major guide line" d="M74.421121 0.000000 v472.019238" /><text class="major" transform="rotate(60 74.421121 487.019238)" x="74.42112125162973" y="487.01923788646684">-7.76</text></g><g class="guides"><path class="major guide line" d="M95.151239 0.000000 v472.019238" /><text class="major" transform="rotate(60 95.151239 487.019238)" x="95.15123859191655" y="487.01923788646684">-7.36</text></g><g class="guides"><path class="major guide line" d="M115.881356 0.000000 v472.019238" /><text class="major" transform="rotate(60 115.881356 487.019238)" x="115.88135593220338" y="487.01923788646684">-6.96</text></g><g class="guides"><path class="major guide line" d="M136.611473 0.000000 v472.019238" /><text class="major" transform="rotate(60 136.611473 487.019238)" x="136.61147327249023" y="487.01923788646684">-6.56</text></g><g class="guides"><path class="major guide line" d="M157.341591 0.000000 v472.019238" /><text class="major" transform="rotate(60 157.341591 487.019238)" x="157.34159061277705" y="487.01923788646684">-6.16</text></g><g class="guides"><path class="major guide line" d="M178.071708 0.000000 v472.019238" /><text class="major" transform="rotate(60 178.071708 487.019238)" x="178.0717079530639" y="487.01923788646684">-5.76</text></g><g class="guides"><path class="major guide line" d="M198.801825 0.000000 v472.019238" /><text class="major" transform="rotate(60 198.801825 487.019238)" x="198.80182529335073" y="487.01923788646684">-5.36</text></g><g class="guides"><path class="major guide line" d="M219.531943 0.000000 v472.019238" /><text class="major" transform="rotate(60 219.531943 487.019238)" x="219.53194263363756" y="487.01923788646684">-4.96</text></g><g class="guides"><path class="major guide line" d="M240.262060 0.000000 v472.019238" /><text class="major" transform="rotate(60 240.262060 487.019238)" x="240.2620599739244" y="487.01923788646684">-4.56</text></g><g class="guides"><path class="major guide line" d="M260.992177 0.000000 v472.019238" /><text class="major" transform="rotate(60 260.992177 487.019238)" x="260.99217731421123" y="487.01923788646684">-4.16</text></g><g class="guides"><path class="major guide line" d="M281.722295 0.000000 v472.019238" /><text class="major" transform="rotate(60 281.722295 487.019238)" x="281.722294654498" y="487.01923788646684">-3.76</text></g><g class="guides"><path class="major guide line" d="M302.452412 0.000000 v472.019238" /><text class="major" transform="rotate(60 302.452412 487.019238)" x="302.4524119947849" y="487.01923788646684">-3.36</text></g><g class="guides"><path class="major guide line" d="M323.182529 0.000000 v472.019238" /><text class="major" transform="rotate(60 323.182529 487.019238)" x="323.1825293350717" y="487.01923788646684">-2.96</text></g><g class="guides"><path class="major guide line" d="M343.912647 0.000000 v472.019238" /><text class="major" transform="rotate(60 343.912647 487.019238)" x="343.91264667535853" y="487.01923788646684">-2.56</text></g><g class="guides"><path class="major guide line" d="M364.642764 0.000000 v472.019238" /><text class="major" transform="rotate(60 364.642764 487.019238)" x="364.64276401564535" y="487.01923788646684">-2.16</text></g><g class="guides"><path class="major guide line" d="M385.372881 0.000000 v472.019238" /><text class="major" transform="rotate(60 385.372881 487.019238)" x="385.37288135593224" y="487.01923788646684">-1.76</text></g><g class="guides"><path class="major guide line" d="M406.102999 0.000000 v472.019238" /><text class="major" transform="rotate(60 406.102999 487.019238)" x="406.102998696219" y="487.01923788646684">-1.36</text></g><g class="guides"><path class="major guide line" d="M426.833116 0.000000 v472.019238" /><text class="major" transform="rotate(60 426.833116 487.019238)" x="426.8331160365058" y="487.01923788646684">-0.96</text></g><g class="guides"><path class="major guide line" d="M447.563233 0.000000 v472.019238" /><text class="major" transform="rotate(60 447.563233 487.019238)" x="447.56323337679265" y="487.01923788646684">-0.56</text></g><g class="guides"><path class="major guide line" d="M468.293351 0.000000 v472.019238" /><text class="major" transform="rotate(60 468.293351 487.019238)" x="468.29335071707953" y="487.01923788646684">-0.16</text></g><g class="guides"><path class="major guide line" d="M489.023468 0.000000 v472.019238" /><text class="major" transform="rotate(60 489.023468 487.019238)" x="489.02346805736636" y="487.01923788646684">0.24</text></g><g class="guides"><path class="major guide line" d="M509.753585 0.000000 v472.019238" /><text class="major" transform="rotate(60 509.753585 487.019238)" x="509.75358539765324" y="487.01923788646684">0.64</text></g><g class="guides"><path class="major guide line" d="M530.483703 0.000000 v472.019238" /><text class="major" transform="rotate(60 530.483703 487.019238)" x="530.48370273794" y="487.01923788646684">1.04</text></g><g class="guides"><path class="major guide line" d="M551.213820 0.000000 v472.019238" /><text class="major" transform="rotate(60 551.213820 487.019238)" x="551.213820078227" y="487.01923788646684">1.43</text></g><g class="guides"><path class="major guide line" d="M571.943937 0.000000 v472.019238" /><text class="major" transform="rotate(60 571.943937 487.019238)" x="571.9439374185138" y="487.01923788646684">1.83</text></g><g class="guides"><path class="major guide line" d="M592.674055 0.000000 v472.019238" /><text class="major" transform="rotate(60 592.674055 487.019238)" x="592.6740547588006" y="487.01923788646684">2.23</text></g><g class="guides"><path class="major guide line" d="M613.404172 0.000000 v472.019238" /><text class="major" transform="rotate(60 613.404172 487.019238)" x="613.4041720990874" y="487.01923788646684">2.63</text></g></g><g class="series serie-0 color-0"><path class="line reactive" d="M12.230769 462.941945 L12.230769 462.019456 22.595828 462.941945 32.960887 461.096967 43.325945 462.019456 53.691004 459.251988 64.056063 462.019456 74.421121 458.329499 84.786180 462.019456 95.151239 458.329499 105.516297 462.019456 115.881356 448.182119 126.246415 460.174477 136.611473 457.407010 146.976532 457.407010 157.341591 451.872075 167.706649 448.182119 178.071708 454.639543 188.436767 445.414651 198.801825 442.647184 209.166884 436.189760 219.531943 437.112249 229.897001 392.832771 240.262060 396.522728 250.627119 376.227967 260.992177 355.933206 271.357236 351.320760 281.722295 325.491065 292.087353 277.521630 302.452412 283.056565 312.817471 202.800010 323.182529 188.040184 333.547588 169.590402 343.912647 123.465945 354.277705 95.791271 364.642764 67.194108 375.007823 82.876423 385.372881 60.736684 395.737940 80.108956 406.102999 29.372054 416.468057 9.077293 426.833116 70.884065 437.198175 69.039086 447.563233 41.364413 457.928292 40.441923 468.293351 91.178826 478.658409 140.993239 489.023468 214.792369 499.388527 259.071847 509.753585 321.801108 520.118644 364.235608 530.483703 408.515086 540.848761 430.654825 551.213820 448.182119 561.578879 455.562032 571.943937 458.329499 582.308996 458.329499 592.674055 462.019456 603.039113 462.941945 613.404172 462.019456 623.769231 462.941945" /></g><g class="series serie-1 color-1"><path class="line reactive nofill" d="M12.230769 462.921848 L22.595828 462.906159 32.960887 462.879478 43.325945 462.835057 53.691004 462.762656 64.056063 462.647149 74.421121 462.466792 84.786180 462.191206 95.151239 461.779188 105.516297 461.176587 115.881356 460.314577 126.246415 459.108819 136.611473 457.460065 146.976532 455.256825 157.341591 452.380637 167.706649 448.714253 178.071708 444.152620 188.436767 438.615750 198.801825 432.061254 209.166884 424.492204 219.531943 415.952859 229.897001 406.501056 240.262060 396.144099 250.627119 384.729745 260.992177 371.802963 271.357236 356.477006 281.722295 337.415973 292.087353 313.054625 302.452412 282.141254 312.817471 244.544948 323.182529 202.046320 333.547588 158.649164 343.912647 119.978689 354.277705 91.669823 364.642764 77.203337 375.007823 76.123185 385.372881 83.628241 395.737940 92.034548 406.102999 93.739301 416.468057 84.519755 426.833116 65.703292 437.198175 44.141852 447.563233 29.864679 457.928292 32.338988 468.293351 56.922330 478.658409 102.994446 489.023468 164.441002 499.388527 232.058749 509.753585 296.656726 520.118644 351.529870 530.483703 393.528334 540.848761 422.728028 551.213820 441.270385 561.578879 452.067972 571.943937 457.852713 582.308996 460.712942 592.674055 462.022933 603.039113 462.581554 613.404172 462.805164 623.769231 462.890345" /></g><g class="series serie-2 color-2"><path class="line reactive nofill" d="M12.230769 462.941945 L22.595828 462.941945 32.960887 462.941945 43.325945 462.941945 53.691004 462.941945 64.056063 462.941945 74.421121 462.941945 84.786180 462.941945 95.151239 462.941945 105.516297 462.941945 115.881356 462.941945 126.246415 462.941945 136.611473 462.941945 146.976532 462.941945 157.341591 462.941945 167.706649 462.941945 178.071708 462.941945 188.436767 462.941945 198.801825 462.941945 209.166884 462.941944 219.531943 462.941941 229.897001 462.941929 240.262060 462.941873 250.627119 462.941646 260.992177 462.940784 271.357236 462.937732 281.722295 462.927662 292.087353 462.896721 302.452412 462.808199 312.817471 462.572451 323.182529 461.988371 333.547588 460.643120 343.912647 457.765653 354.277705 452.057147 364.642764 441.571646 375.007823 423.780013 385.372881 395.979127 395.737940 356.146019 406.102999 304.142364 416.468057 242.886567 426.833116 178.879811 437.198175 121.509431 447.563233 80.978048 457.928292 65.394804 468.293351 78.140849 478.658409 116.676693 489.023468 173.366150 499.388527 237.951073 509.753585 300.574720 520.118644 354.134883 530.483703 395.248276 540.848761 423.849715 551.213820 441.990445 561.578879 452.522032 571.943937 458.133662 582.308996 460.883421 592.674055 462.124357 603.039113 462.640708 613.404172 462.838985 623.769231 462.909300" /></g><g class="series serie-3 color-3"><path class="line reactive nofill" d="M12.230769 462.921848 L22.595828 462.906159 32.960887 462.879478 43.325945 462.835057 53.691004 462.762656 64.056063 462.647149 74.421121 462.466792 84.786180 462.191206 95.151239 461.779188 105.516297 461.176587 115.881356 460.314577 126.246415 459.108819 136.611473 457.460065 146.976532 455.256825 157.341591 452.380637 167.706649 448.714253 178.071708 444.152620 188.436767 438.615750 198.801825 432.061254 209.166884 424.492205 219.531943 415.952862 229.897001 406.501072 240.262060 396.144170 250.627119 384.730044 260.992177 371.804123 271.357236 356.481219 281.722295 337.430256 292.087353 313.099848 302.452412 282.275000 312.817471 244.914442 323.182529 202.999894 333.547588 160.947989 343.912647 125.154981 354.277705 102.554621 364.642764 98.573636 375.007823 115.285118 385.372881 150.591059 395.737940 198.830473 406.102999 252.538882 416.468057 304.575133 426.833116 349.765426 437.198175 385.574366 447.563233 411.828576 457.928292 429.886129 468.293351 441.723426 478.658409 449.259698 489.023468 454.016797 499.388527 457.049620 509.753585 459.023951 520.118644 460.336932 530.483703 461.222003 540.848761 461.820258 551.213820 462.221885 561.578879 462.487885 571.943937 462.660996 582.308996 462.771465 592.674055 462.840521 603.039113 462.882791 613.404172 462.908124 623.769231 462.922990" /></g><g class="series serie-4 color-4"><path class="line reactive nofill" d="M12.230769 462.941945 L22.595828 462.941945 32.960887 462.941945 43.325945 462.941945 53.691004 462.941945 64.056063 462.941945 74.421121 462.941945 84.786180 462.941945 95.151239 462.941945 105.516297 462.941945 115.881356 462.941945 126.246415 462.941945 136.611473 462.941945 146.976532 462.941945 157.341591 462.941945 167.706649 462.941945 178.071708 462.941945 188.436767 462.941945 198.801825 462.941945 209.166884 462.941944 219.531943 462.941942 229.897001 462.941930 240.262060 462.941877 250.627119 462.941667 260.992177 462.940881 271.357236 462.938148 281.722295 462.929324 292.087353 462.902875 302.452412 462.829297 312.817471 462.639431 323.182529 462.185281 333.547588 461.179177 343.912647 459.117022 354.277705 455.211835 364.642764 448.391246 375.007823 437.431542 385.372881 421.285128 395.737940 399.585600 406.102999 373.192984 416.468057 344.527681 426.833116 317.424891 437.198175 296.386420 447.563233 285.384261 457.928292 286.640781 468.293351 299.897439 478.658409 322.501423 489.023468 350.270470 499.388527 378.749949 509.753585 404.346628 520.118644 424.958855 530.483703 440.009363 540.848761 450.046068 551.213820 456.187586 561.578879 459.646966 571.943937 461.444826 582.308996 462.308374 592.674055 462.692215 603.039113 462.850264 613.404172 462.910596 623.769231 462.931961" /></g><g class="series serie-5 color-5"><path class="line reactive nofill" d="M12.230769 462.941945 L22.595828 462.941945 32.960887 462.941945 43.325945 462.941945 53.691004 462.941945 64.056063 462.941945 74.421121 462.941945 84.786180 462.941945 95.151239 462.941945 105.516297 462.941945 115.881356 462.941945 126.246415 462.941945 136.611473 462.941945 146.976532 462.941945 157.341591 462.941945 167.706649 462.941945 178.071708 462.941945 188.436767 462.941945 198.801825 462.941945 209.166884 462.941945 219.531943 462.941945 229.897001 462.941944 240.262060 462.941941 250.627119 462.941924 260.992177 462.941849 271.357236 462.941529 281.722295 462.940283 292.087353 462.935791 302.452412 462.920847 312.817471 462.874965 323.182529 462.745035 333.547588 462.405888 343.912647 461.590576 354.277705 459.787257 364.642764 456.122345 375.007823 449.290416 385.372881 437.635944 395.737940 419.502364 406.102999 393.891324 416.468057 361.300831 426.833116 324.396864 437.198175 288.064955 447.563233 258.535732 457.928292 241.695968 468.293351 241.185354 478.658409 257.117215 489.023468 286.037625 499.388527 322.143069 509.753585 359.170037 520.118644 392.117972 530.483703 418.180858 540.848761 436.745592 551.213820 448.744803 561.578879 455.817011 571.943937 459.630781 582.308996 461.516993 592.674055 462.374087 603.039113 462.732389 613.404172 462.870334 623.769231 462.919284" /></g><g class="series serie-6 color-6"><path class="line reactive nofill" d="M12.230769 462.921848 L22.595828 462.906159 32.960887 462.879478 43.325945 462.835057 53.691004 462.762656 64.056063 462.647149 74.421121 462.466792 84.786180 462.191206 95.151239 461.779188 105.516297 461.176587 115.881356 460.314577 126.246415 459.108820 136.611473 457.460069 146.976532 455.256846 157.341591 452.380732 167.706649 448.714654 178.071708 444.154198 188.436767 438.621515 198.801825 432.080810 209.166884 424.553846 219.531943 416.133373 229.897001 406.992181 240.262060 397.385531 250.627119 387.645200 260.992177 378.164312 271.357236 369.373277 281.722295 361.708577 292.087353 355.577374 302.452412 351.321853 312.817471 349.187641 323.182529 349.300337 333.547588 351.653268 343.912647 356.108149 354.277705 362.408534 364.642764 370.204260 375.007823 379.083625 385.372881 388.609206 395.737940 398.353000 406.102999 407.927045 416.468057 417.006648 426.833116 425.344632 437.198175 432.776401 447.563233 439.216761 457.928292 444.650328 468.293351 449.117787 478.658409 452.700309 489.023468 455.504152 499.388527 457.646983 509.753585 459.246849 520.118644 460.414203 530.483703 461.246890 540.848761 461.827705 551.213820 462.223956 561.578879 462.488420 571.943937 462.661125 582.308996 462.771494 592.674055 462.840527 603.039113 462.882792 613.404172 462.908124 623.769231 462.922990" /></g><g class="series serie-7 color-7"><path class="line reactive nofill" d="M12.230769 462.941945 L22.595828 462.941945 32.960887 462.941945 43.325945 462.941945 53.691004 462.941945 64.056063 462.941945 74.421121 462.941945 84.786180 462.941945 95.151239 462.941945 105.516297 462.941945 115.881356 462.941945 126.246415 462.941944 136.611473 462.941941 146.976532 462.941924 157.341591 462.941850 167.706649 462.941543 178.071708 462.940366 188.436767 462.936181 198.801825 462.922389 209.166884 462.880304 219.531943 462.761434 229.897001 462.450836 240.262060 461.700585 250.627119 460.026789 260.992177 456.581757 271.357236 450.049887 281.722295 438.663623 292.087353 420.464419 302.452412 393.895092 312.817471 358.668745 323.182529 316.641501 333.547588 272.236665 343.912647 231.988777 354.277705 203.088031 364.642764 191.311320 375.007823 199.143437 385.372881 224.923799 395.737940 263.419419 406.102999 307.553782 416.468057 350.510430 426.833116 387.362739 437.198175 415.739910 447.563233 435.553760 457.928292 448.177745 468.293351 455.547583 478.658409 459.501334 489.023468 461.454590 499.388527 462.344582 509.753585 462.719047 520.118644 462.864674 530.483703 462.917058 540.848761 462.934498 551.213820 462.939875 561.578879 462.941410 571.943937 462.941817 582.308996 462.941916 592.674055 462.941939 603.039113 462.941944 613.404172 462.941945 623.769231 462.941945" /></g></g><g class="titles"><text class="title plot_title" x="400.0" y="26">Iteration #9</text><text class="title" x="462.0" y="580.0">Observation</text><text class="title" transform="rotate(-90 64.000000 282.009619)" x="64.0" y="308.0096189432334">Density</text></g><g class="plot overlay" transform="translate(144, 46)"><g class="series serie-0 color-0" /><g class="series serie-1 color-1" /><g class="series serie-2 color-2" /><g class="series serie-3 color-3" /><g class="series serie-4 color-4" /><g class="series serie-5 color-5" /><g class="series serie-6 color-6" /><g class="series serie-7 color-7" /></g><g class="plot text-overlay" transform="translate(144, 46)"><g class="series serie-0 color-0" /><g class="series serie-1 color-1" /><g class="series serie-2 color-2" /><g class="series serie-3 color-3" /><g class="series serie-4 color-4" /><g class="series serie-5 color-5" /><g class="series serie-6 color-6" /><g class="series serie-7 color-7" /></g><g class="plot tooltip-overlay" transform="translate(144, 46)"><g class="tooltip" style="opacity: 0" transform="translate(0 0)"><rect class="tooltip-box" height="0" rx="0" ry="0" width="0" /><g class="text" /></g></g><g class="legends" transform="translate(10, 56)"><g class="legend reactive activate-serie" id="activate-serie-0"><rect class="color-0 reactive" height="12" width="12" x="0.0" y="0.0" /><text x="17.0" y="9.0">Data</text></g><g class="legend reactive activate-serie" id="activate-serie-1"><rect class="color-1 reactive" height="12" width="12" x="0.0" y="18.0" /><text x="17.0" y="27.0">GMM</text></g><g class="legend reactive activate-serie" id="activate-serie-2"><rect class="color-2 reactive" height="12" width="12" x="0.0" y="36.0" /><text x="17.0" y="45.0">i=0</text></g><g class="legend reactive activate-serie" id="activate-serie-3"><rect class="color-3 reactive" height="12" width="12" x="0.0" y="54.0" /><text x="17.0" y="63.0">i=1</text></g><g class="legend reactive activate-serie" id="activate-serie-4"><rect class="color-4 reactive" height="12" width="12" x="0.0" y="72.0" /><text x="17.0" y="81.0">i=0 k=0</text></g><g class="legend reactive activate-serie" id="activate-serie-5"><rect class="color-5 reactive" height="12" width="12" x="0.0" y="90.0" /><text x="17.0" y="99.0">i=0 k=1</text></g><g class="legend reactive activate-serie" id="activate-serie-6"><rect class="color-6 reactive" height="12" width="12" x="0.0" y="108.0" /><text x="17.0" y="117.0">i=1 k=0</text></g><g class="legend reactive activate-serie" id="activate-serie-7"><rect class="color-7 reactive" height="12" width="12" x="0.0" y="126.0" /><text x="17.0" y="135.0">i=1 k=1</text></g></g><g class="legends" transform="translate(790, 56)" /></g></svg>