<?xml version='1.0' encoding='utf-8'?>
<svg xmlns:xlink="http://www.w3.org/1999/xlink" class="pygal-chart" id="chart-ad83f7ab-2417-4bfb-8d7a-6047a53d6734" viewBox="0 0 800 600" xmlns="http://www.w3.org/2000/svg"><!--Generated with pygal 2.4.0 (etree) ©Kozea 2012-2016 on 2017-12-18--><!--http://pygal.org--><!--http://github.com/Kozea/pygal--><defs><style type="text/css">#chart-ad83f7ab-2417-4bfb-8d7a-6047a53d6734{-webkit-user-select:none;-webkit-font-smoothing:antialiased;font-family:Consolas,"Liberation Mono",Menlo,Courier,monospace}#chart-ad83f7ab-2417-4bfb-8d7a-6047a53d6734 .title{font-family:Consolas,"Liberation Mono",Menlo,Courier,monospace;font-size:16px}#chart-ad83f7ab-2417-4bfb-8d7a-6047a53d6734 .legends .legend text{font-family:Consolas,"Liberation Mono",Menlo,Courier,monospace;font-size:10px}#chart-ad83f7ab-2417-4bfb-8d7a-6047a53d6734 .axis text{font-family:Consolas,"Liberation Mono",Menlo,Courier,monospace;font-size:10px}#chart-ad83f7ab-2417-4bfb-8d7a-6047a53d6734 .axis text.major{font-family:Consolas,"Liberation Mono",Menlo,Courier,monospace;font-size:10px}#chart-ad83f7ab-2417-4bfb-8d7a-6047a53d6734 .text-overlay text.value{font-family:Consolas,"Liberation Mono",Menlo,Courier,monospace;font-size:16px}#chart-ad83f7ab-2417-4bfb-8d7a-6047a53d6734 .text-overlay text.label{font-family:Consolas,"Liberation Mono",Menlo,Courier,monospace;font-size:10px}#chart-ad83f7ab-2417-4bfb-8d7a-6047a53d6734 .tooltip{font-family:Consolas,"Liberation Mono",Menlo,Courier,monospace;font-size:14px}#chart-ad83f7ab-2417-4bfb-8d7a-6047a53d6734 text.no_data{font-family:Consolas,"Liberation Mono",Menlo,Courier,monospace;font-size:64px}
#chart-ad83f7ab-2417-4bfb-8d7a-6047a53d6734{background-color:rgba(249,249,249,1)}#chart-ad83f7ab-2417-4bfb-8d7a-6047a53d6734 path,#chart-ad83f7ab-2417-4bfb-8d7a-6047a53d6734 line,#chart-ad83f7ab-2417-4bfb-8d7a-6047a53d6734 rect,#chart-ad83f7ab-2417-4bfb-8d7a-6047a53d6734 circle{-webkit-transition:150ms;-moz-transition:150ms;transition:150ms}#chart-ad83f7ab-2417-4bfb-8d7a-6047a53d6734 .graph &gt; .background{fill:rgba(249,249,249,1)}#chart-ad83f7ab-2417-4bfb-8d7a-6047a53d6734 .plot &gt; .background{fill:rgba(255,255,255,1)}#chart-ad83f7ab-2417-4bfb-8d7a-6047a53d6734 .graph{fill:rgba(0,0,0,.87)}#chart-ad83f7ab-2417-4bfb-8d7a-6047a53d6734 text.no_data{fill:rgba(0,0,0,1)}#chart-ad83f7ab-2417-4bfb-8d7a-6047a53d6734 .title{fill:rgba(0,0,0,1)}#chart-ad83f7ab-2417-4bfb-8d7a-6047a53d6734 .legends .legend text{fill:rgba(0,0,0,.87)}#chart-ad83f7ab-2417-4bfb-8d7a-6047a53d6734 .legends .legend:hover text{fill:rgba(0,0,0,1)}#chart-ad83f7ab-2417-4bfb-8d7a-6047a53d6734 .axis .line{stroke:rgba(0,0,0,1)}#chart-ad83f7ab-2417-4bfb-8d7a-6047a53d6734 .axis .guide.line{stroke:rgba(0,0,0,.54)}#chart-ad83f7ab-2417-4bfb-8d7a-6047a53d6734 .axis .major.line{stroke:rgba(0,0,0,.87)}#chart-ad83f7ab-2417-4bfb-8d7a-6047a53d6734 .axis text.major{fill:rgba(0,0,0,1)}#chart-ad83f7ab-2417-4bfb-8d7a-6047a53d6734 .axis.y .guides:hover .guide.line,#chart-ad83f7ab-2417-4bfb-8d7a-6047a53d6734 .line-graph .axis.x .guides:hover .guide.line,#chart-ad83f7ab-2417-4bfb-8d7a-6047a53d6734 .stackedline-graph .axis.x .guides:hover .guide.line,#chart-ad83f7ab-2417-4bfb-8d7a-6047a53d6734 .xy-graph .axis.x .guides:hover .guide.line{stroke:rgba(0,0,0,1)}#chart-ad83f7ab-2417-4bfb-8d7a-6047a53d6734 .axis .guides:hover text{fill:rgba(0,0,0,1)}#chart-ad83f7ab-2417-4bfb-8d7a-6047a53d6734 .reactive{fill-opacity:.7;stroke-opacity:.8}#chart-ad83f7ab-2417-4bfb-8d7a-6047a53d6734 .ci{stroke:rgba(0,0,0,.87)}#chart-ad83f7ab-2417-4bfb-8d7a-6047a53d6734 .reactive.active,#chart-ad83f7ab-2417-4bfb-8d7a-6047a53d6734 .active .reactive{fill-opacity:.8;stroke-opacity:.9;stroke-width:4}#chart-ad83f7ab-2417-4bfb-8d7a-6047a53d6734 .ci .reactive.active{stroke-width:1.5}#chart-ad83f7ab-2417-4bfb-8d7a-6047a53d6734 .series text{fill:rgba(0,0,0,1)}#chart-ad83f7ab-2417-4bfb-8d7a-6047a53d6734 .tooltip rect{fill:rgba(255,255,255,1);stroke:rgba(0,0,0,1);-webkit-transition:opacity 150ms;-moz-transition:opacity 150ms;transition:opacity 150ms}#chart-ad83f7ab-2417-4bfb-8d7a-6047a53d6734 .tooltip .label{fill:rgba(0,0,0,.87)}#chart-ad83f7ab-2417-4bfb-8d7a-6047a53d6734 .tooltip .label{fill:rgba(0,0,0,.87)}#chart-ad83f7ab-2417-4bfb-8d7a-6047a53d6734 .tooltip .legend{font-size:.8em;fill:rgba(0,0,0,.54)}#chart-ad83f7ab-2417-4bfb-8d7a-6047a53d6734 .tooltip .x_label{font-size:.6em;fill:rgba(0,0,0,1)}#chart-ad83f7ab-2417-4bfb-8d7a-6047a53d6734 .tooltip .xlink{font-size:.5em;text-decoration:underline}#chart-ad83f7ab-2417-4bfb-8d7a-6047a53d6734 .tooltip .value{font-size:1.5em}#chart-ad83f7ab-2417-4bfb-8d7a-6047a53d6734 .bound{font-size:.5em}#chart-ad83f7ab-2417-4bfb-8d7a-6047a53d6734 .max-value{font-size:.75em;fill:rgba(0,0,0,.54)}#chart-ad83f7ab-2417-4bfb-8d7a-6047a53d6734 .map-element{fill:rgba(255,255,255,1);stroke:rgba(0,0,0,.54) !important}#chart-ad83f7ab-2417-4bfb-8d7a-6047a53d6734 .map-element .reactive{fill-opacity:inherit;stroke-opacity:inherit}#chart-ad83f7ab-2417-4bfb-8d7a-6047a53d6734 .color-0,#chart-ad83f7ab-2417-4bfb-8d7a-6047a53d6734 .color-0 a:visited{stroke:#909090;fill:#909090}#chart-ad83f7ab-2417-4bfb-8d7a-6047a53d6734 .color-1,#chart-ad83f7ab-2417-4bfb-8d7a-6047a53d6734 .color-1 a:visited{stroke:#000000;fill:#000000}#chart-ad83f7ab-2417-4bfb-8d7a-6047a53d6734 .color-2,#chart-ad83f7ab-2417-4bfb-8d7a-6047a53d6734 .color-2 a:visited{stroke:#ff0500;fill:#ff0500}#chart-ad83f7ab-2417-4bfb-8d7a-6047a53d6734 .color-3,#chart-ad83f7ab-2417-4bfb-8d7a-6047a53d6734 .color-3 a:visited{stroke:#323299;fill:#323299}#chart-ad83f7ab-2417-4bfb-8d7a-6047a53d6734 .color-4,#chart-ad83f7ab-2417-4bfb-8d7a-6047a53d6734 .color-4 a:visited{stroke:#a3413f;fill:#a3413f}#chart-ad83f7ab-2417-4bfb-8d7a-6047a53d6734 .color-5,#chart-ad83f7ab-2417-4bfb-8d7a-6047a53d6734 .color-5 a:visited{stroke:#a3413f;fill:#a3413f}#chart-ad83f7ab-2417-4bfb-8d7a-6047a53d6734 .color-6,#chart-ad83f7ab-2417-4bfb-8d7a-6047a53d6734 .color-6 a:visited{stroke:#a3413f;fill:#a3413f}#chart-ad83f7ab-2417-4bfb-8d7a-6047a53d6734 .color-7,#chart-ad83f7ab-2417-4bfb-8d7a-6047a53d6734 .color-7 a:visited{stroke:#a3413f;fill:#a3413f}#chart-ad83f7ab-2417-4bfb-8d7a-6047a53d6734 .color-8,#chart-ad83f7ab-2417-4bfb-8d7a-6047a53d6734 .color-8 a:visited{stroke:#a3413f;fill:#a3413f}#chart-ad83f7ab-2417-4bfb-8d7a-6047a53d6734 .color-9,#chart-ad83f7ab-2417-4bfb-8d7a-6047a53d6734 .color-9 a:visited{stroke:#657fff;fill:#657fff}#chart-ad83f7ab-2417-4bfb-8d7a-6047a53d6734 .color-10,#chart-ad83f7ab-2417-4bfb-8d7a-6047a53d6734 .color-10 a:visited{stroke:#657fff;fill:#657fff}#chart-ad83f7ab-2417-4bfb-8d7a-6047a53d6734 .color-11,#chart-ad83f7ab-2417-4bfb-8d7a-6047a53d6734 .color-11 a:visited{stroke:#657fff;fill:#657fff}#chart-ad83f7ab-2417-4bfb-8d7a-6047a53d6734 .color-12,#chart-ad83f7ab-2417-4bfb-8d7a-6047a53d6734 .color-12 a:visited{stroke:#657fff;fill:#657fff}#chart-ad83f7ab-2417-4bfb-8d7a-6047a53d6734 .color-13,#chart-ad83f7ab-2417-4bfb-8d7a-6047a53d6734 .color-13 a:visited{stroke:#657fff;fill:#657fff}#chart-ad83f7ab-2417-4bfb-8d7a-6047a53d6734 .text-overlay .color-0 text{fill:black}#chart-ad83f7ab-2417-4bfb-8d7a-6047a53d6734 .text-overlay .color-1 text{fill:white}#chart-ad83f7ab-2417-4bfb-8d7a-6047a53d6734 .text-overlay .color-2 text{fill:black}#chart-ad83f7ab-2417-4bfb-8d7a-6047a53d6734 .text-overlay .color-3 text{fill:black}#chart-ad83f7ab-2417-4bfb-8d7a-6047a53d6734 .text-overlay .color-4 text{fill:black}#chart-ad83f7ab-2417-4bfb-8d7a-6047a53d6734 .text-overlay .color-5 text{fill:black}#chart-ad83f7ab-2417-4bfb-8d7a-6047a53d6734 .text-overlay .color-6 text{fill:black}#chart-ad83f7ab-2417-4bfb-8d7a-6047a53d6734 .text-overlay .color-7 text{fill:black}#chart-ad83f7ab-2417-4bfb-8d7a-6047a53d6734 .text-overlay .color-8 text{fill:black}#chart-ad83f7ab-2417-4bfb-8d7a-6047a53d6734 .text-overlay .color-9 text{fill:black}#chart-ad83f7ab-2417-4bfb-8d7a-6047a53d6734 .text-overlay .color-10 text{fill:black}#chart-ad83f7ab-2417-4bfb-8d7a-6047a53d6734 .text-overlay .color-11 text{fill:black}#chart-ad83f7ab-2417-4bfb-8d7a-6047a53d6734 .text-overlay .color-12 text{fill:black}#chart-ad83f7ab-2417-4bfb-8d7a-6047a53d6734 .text-overlay .color-13 text{fill:black}#chart-ad83f7ab-2417-4bfb-8d7a-6047a53d6734 .series.serie-1{stroke-width:5}#chart-ad83f7ab-2417-4bfb-8d7a-6047a53d6734 .series.serie-2{stroke-width:3}#chart-ad83f7ab-2417-4bfb-8d7a-6047a53d6734 .series.serie-3{stroke-width:3}#chart-ad83f7ab-2417-4bfb-8d7a-6047a53d6734 .series.serie-4{stroke-width:2;stroke-dasharray:2,2}#chart-ad83f7ab-2417-4bfb-8d7a-6047a53d6734 .series.serie-5{stroke-width:2;stroke-dasharray:2,2}#chart-ad83f7ab-2417-4bfb-8d7a-6047a53d6734 .series.serie-6{stroke-width:2;stroke-dasharray:2,2}#chart-ad83f7ab-2417-4bfb-8d7a-6047a53d6734 .series.serie-7{stroke-width:2;stroke-dasharray:2,2}#chart-ad83f7ab-2417-4bfb-8d7a-6047a53d6734 .series.serie-8{stroke-width:2;stroke-dasharray:2,2}#chart-ad83f7ab-2417-4bfb-8d7a-6047a53d6734 .series.serie-9{stroke-width:2;stroke-dasharray:2,2}#chart-ad83f7ab-2417-4bfb-8d7a-6047a53d6734 .series.serie-10{stroke-width:2;stroke-dasharray:2,2}#chart-ad83f7ab-2417-4bfb-8d7a-6047a53d6734 .series.serie-11{stroke-width:2;stroke-dasharray:2,2}#chart-ad83f7ab-2417-4bfb-8d7a-6047a53d6734 .series.serie-12{stroke-width:2;stroke-dasharray:2,2}#chart-ad83f7ab-2417-4bfb-8d7a-6047a53d6734 .series.serie-13{stroke-width:2;stroke-dasharray:2,2}
#chart-ad83f7ab-2417-4bfb-8d7a-6047a53d6734 text.no_data{text-anchor:middle}#chart-ad83f7ab-2417-4bfb-8d7a-6047a53d6734 .guide.line{fill:none}#chart-ad83f7ab-2417-4bfb-8d7a-6047a53d6734 .centered{text-anchor:middle}#chart-ad83f7ab-2417-4bfb-8d7a-6047a53d6734 .title{text-anchor:middle}#chart-ad83f7ab-2417-4bfb-8d7a-6047a53d6734 .legends .legend text{fill-opacity:1}#chart-ad83f7ab-2417-4bfb-8d7a-6047a53d6734 .axis.x text{text-anchor:middle}#chart-ad83f7ab-2417-4bfb-8d7a-6047a53d6734 .axis.x:not(.web) text[transform]{text-anchor:start}#chart-ad83f7ab-2417-4bfb-8d7a-6047a53d6734 .axis.x:not(.web) text[transform].backwards{text-anchor:end}#chart-ad83f7ab-2417-4bfb-8d7a-6047a53d6734 .axis.y text{text-anchor:end}#chart-ad83f7ab-2417-4bfb-8d7a-6047a53d6734 .axis.y text[transform].backwards{text-anchor:start}#chart-ad83f7ab-2417-4bfb-8d7a-6047a53d6734 .axis.y2 text{text-anchor:start}#chart-ad83f7ab-2417-4bfb-8d7a-6047a53d6734 .axis.y2 text[transform].backwards{text-anchor:end}#chart-ad83f7ab-2417-4bfb-8d7a-6047a53d6734 .axis .guide.line{stroke-dasharray:4,4}#chart-ad83f7ab-2417-4bfb-8d7a-6047a53d6734 .axis .major.guide.line{stroke-dasharray:6,6}#chart-ad83f7ab-2417-4bfb-8d7a-6047a53d6734 .horizontal .axis.y .guide.line,#chart-ad83f7ab-2417-4bfb-8d7a-6047a53d6734 .horizontal .axis.y2 .guide.line,#chart-ad83f7ab-2417-4bfb-8d7a-6047a53d6734 .vertical .axis.x .guide.line{opacity:0}#chart-ad83f7ab-2417-4bfb-8d7a-6047a53d6734 .horizontal .axis.always_show .guide.line,#chart-ad83f7ab-2417-4bfb-8d7a-6047a53d6734 .vertical .axis.always_show .guide.line{opacity:1 !important}#chart-ad83f7ab-2417-4bfb-8d7a-6047a53d6734 .axis.y .guides:hover .guide.line,#chart-ad83f7ab-2417-4bfb-8d7a-6047a53d6734 .axis.y2 .guides:hover .guide.line,#chart-ad83f7ab-2417-4bfb-8d7a-6047a53d6734 .axis.x .guides:hover .guide.line{opacity:1}#chart-ad83f7ab-2417-4bfb-8d7a-6047a53d6734 .axis .guides:hover text{opacity:1}#chart-ad83f7ab-2417-4bfb-8d7a-6047a53d6734 .nofill{fill:none}#chart-ad83f7ab-2417-4bfb-8d7a-6047a53d6734 .subtle-fill{fill-opacity:.2}#chart-ad83f7ab-2417-4bfb-8d7a-6047a53d6734 .dot{stroke-width:1px;fill-opacity:1}#chart-ad83f7ab-2417-4bfb-8d7a-6047a53d6734 .dot.active{stroke-width:5px}#chart-ad83f7ab-2417-4bfb-8d7a-6047a53d6734 .dot.negative{fill:transparent}#chart-ad83f7ab-2417-4bfb-8d7a-6047a53d6734 text,#chart-ad83f7ab-2417-4bfb-8d7a-6047a53d6734 tspan{stroke:none !important}#chart-ad83f7ab-2417-4bfb-8d7a-6047a53d6734 .series text.active{opacity:1}#chart-ad83f7ab-2417-4bfb-8d7a-6047a53d6734 .tooltip rect{fill-opacity:.95;stroke-width:.5}#chart-ad83f7ab-2417-4bfb-8d7a-6047a53d6734 .tooltip text{fill-opacity:1}#chart-ad83f7ab-2417-4bfb-8d7a-6047a53d6734 .showable{visibility:hidden}#chart-ad83f7ab-2417-4bfb-8d7a-6047a53d6734 .showable.shown{visibility:visible}#chart-ad83f7ab-2417-4bfb-8d7a-6047a53d6734 .gauge-background{fill:rgba(229,229,229,1);stroke:none}#chart-ad83f7ab-2417-4bfb-8d7a-6047a53d6734 .bg-lines{stroke:rgba(249,249,249,1);stroke-width:2px}</style><script type="text/javascript">window.pygal = window.pygal || {};window.pygal.config = window.pygal.config || {};window.pygal.config['ad83f7ab-2417-4bfb-8d7a-6047a53d6734'] = {"interpolate": null, "pretty_print": false, "x_labels_major": null, "no_data_text": "No data", "inverse_y_axis": false, "truncate_legend": null, "css": ["file://style.css", "file://graph.css"], "secondary_range": null, "formatter": null, "interpolation_precision": 250, "zero": 0, "allow_interruptions": false, "defs": [], "width": 800, "xrange": null, "margin_top": null, "y_title": "Density", "show_only_major_dots": false, "rounded_bars": null, "legends": ["Data", "GMM", "i=0", "i=1", "i=0 k=0", "i=0 k=1", "i=0 k=2", "i=0 k=3", "i=0 k=4", "i=1 k=0", "i=1 k=1", "i=1 k=2", "i=1 k=3", "i=1 k=4"], "print_values": false, "show_x_labels": true, "x_labels_major_count": null, "truncate_label": null, "x_labels": ["-8.96", "-8.76", "-8.56", "-8.36", "-8.16", "-7.96", "-7.76", "-7.56", "-7.36", "-7.16", "-6.96", "-6.76", "-6.56", "-6.36", "-6.16", "-5.96", "-5.76", "-5.56", "-5.36", "-5.16", "-4.96", "-4.76", "-4.56", "-4.36", "-4.16", "-3.96", "-3.76", "-3.56", "-3.36", "-3.16", "-2.96", "-2.76", "-2.56", "-2.36", "-2.16", "-1.96", "-1.76", "-1.56", "-1.36", "-1.16", "-0.96", "-0.76", "-0.56", "-0.36", "-0.16", "0.04", "0.24", "0.44", "0.64", "0.84", "1.04", "1.24", "1.43", "1.63", "1.83", "2.03", "2.23", "2.43", "2.63", "2.83"], "title": "Iteration #9", "show_y_guides": true, "show_x_guides": false, "fill": false, "print_zeroes": true, "show_y_labels": true, "js": ["//kozea.github.io/pygal.js/2.0.x/pygal-tooltips.min.js"], "order_min": null, "print_labels": false, "margin": 20, "inner_radius": 0, "legend_at_bottom": false, "dots_size": 2.5, "explicit_size": false, "show_minor_y_labels": true, "y_labels": null, "margin_right": null, "show_legend": true, "no_prefix": false, "style": {"foreground_strong": "rgba(0, 0, 0, 1)", "ci_colors": [], "stroke_opacity_hover": ".9", "foreground_subtle": "rgba(0, 0, 0, .54)", "opacity_hover": ".8", "label_font_family": "Consolas, \"Liberation Mono\", Menlo, Courier, monospace", "opacity": ".7", "tooltip_font_family": "Consolas, \"Liberation Mono\", Menlo, Courier, monospace", "stroke_opacity": ".8", "colors": ["#909090", "#000000", "#ff0500", "#323299", "#a3413f", "#a3413f", "#a3413f", "#a3413f", "#a3413f", "#657fff", "#657fff", "#657fff", "#657fff", "#657fff"], "transition": "150ms", "value_label_font_size": 10, "no_data_font_size": 64, "guide_stroke_dasharray": "4,4", "tooltip_font_size": 14, "major_label_font_family": "Consolas, \"Liberation Mono\", Menlo, Courier, monospace", "label_font_size": 10, "value_colors": [], "font_family": "Consolas, \"Liberation Mono\", Menlo, Courier, monospace", "major_label_font_size": 10, "legend_font_family": "Consolas, \"Liberation Mono\", Menlo, Courier, monospace", "value_font_size": 16, "legend_font_size": 10, "major_guide_stroke_dasharray": "6,6", "title_font_family": "Consolas, \"Liberation Mono\", Menlo, Courier, monospace", "plot_background": "rgba(255, 255, 255, 1)", "value_font_family": "Consolas, \"Liberation Mono\", Menlo, Courier, monospace", "background": "rgba(249, 249, 249, 1)", "foreground": "rgba(0, 0, 0, .87)", "title_font_size": 16, "value_background": "rgba(229, 229, 229, 1)", "value_label_font_family": "Consolas, \"Liberation Mono\", Menlo, Courier, monospace", "no_data_font_family": "Consolas, \"Liberation Mono\", Menlo, Courier, monospace"}, "margin_bottom": null, "tooltip_fancy_mode": true, "logarithmic": false, "missing_value_fill_truncation": "x", "spacing": 10, "max_scale": 16, "y_labels_major_count": null, "x_title": "Observation", "stroke": true, "y_label_rotation": 0, "show_dots": false, "half_pie": false, "legend_box_size": 12, "dynamic_print_values": false, "legend_at_bottom_columns": null, "disable_xml_declaration": false, "classes": ["pygal-chart"], "margin_left": null, "force_uri_protocol": "https", "x_label_rotation": 60, "print_values_position": "center", "x_labels_major_every": 2, "strict": false, "height": 600, "stack_from_top": false, "include_x_axis": false, "y_labels_major_every": null, "box_mode": "extremes", "interpolation_parameters": {}, "min_scale": 4, "show_minor_x_labels": false, "stroke_style": null, "range": [0, 0.27578580090479526], "tooltip_border_radius": 0, "y_labels_major": null}</script><script type="text/javascript" xlink:href="https://kozea.github.io/pygal.js/2.0.x/pygal-tooltips.min.js" /></defs><title>Iteration #9</title><g class="graph line-graph vertical"><rect class="background" height="600" width="800" x="0" y="0" /><g class="plot" transform="translate(144, 46)"><rect class="background" height="472.01923788646684" width="636.0" x="0" y="0" /><g class="axis y always_show"><g class="guides"><path class="axis major line" d="M0.000000 462.941945 h636.000000" /><text class="major" x="-5" y="466.44194485">0</text><title>0</title></g><g class="guides"><path class="guide line" d="M0.000000 430.027658 h636.000000" /><text class="" x="-5" y="433.527657724">0.02</text><title>0.02</title></g><g class="guides"><path class="guide line" d="M0.000000 397.113371 h636.000000" /><text class="" x="-5" y="400.613370598">0.04</text><title>0.04</title></g><g class="guides"><path class="guide line" d="M0.000000 364.199083 h636.000000" /><text class="" x="-5" y="367.699083472">0.06</text><title>0.06</title></g><g class="guides"><path class="guide line" d="M0.000000 331.284796 h636.000000" /><text class="" x="-5" y="334.784796346">0.08</text><title>0.08</title></g><g class="guides"><path class="guide line" d="M0.000000 298.370509 h636.000000" /><text class="" x="-5" y="301.87050922">0.1</text><title>0.1</title></g><g class="guides"><path class="guide line" d="M0.000000 265.456222 h636.000000" /><text class="" x="-5" y="268.956222094">0.12</text><title>0.12</title></g><g class="guides"><path class="guide line" d="M0.000000 232.541935 h636.000000" /><text class="" x="-5" y="236.041934968">0.14</text><title>0.14</title></g><g class="guides"><path class="guide line" d="M0.000000 199.627648 h636.000000" /><text class="" x="-5" y="203.127647841">0.16</text><title>0.16</title></g><g class="guides"><path class="guide line" d="M0.000000 166.713361 h636.000000" /><text class="" x="-5" y="170.213360715">0.18</text><title>0.18</title></g><g class="guides"><path class="guide line" d="M0.000000 133.799074 h636.000000" /><text class="" x="-5" y="137.299073589">0.2</text><title>0.2</title></g><g class="guides"><path class="guide line" d="M0.000000 100.884786 h636.000000" /><text class="" x="-5" y="104.384786463">0.22</text><title>0.22</title></g><g class="guides"><path class="guide line" d="M0.000000 67.970499 h636.000000" /><text class="" x="-5" y="71.4704993371">0.24</text><title>0.24</title></g><g class="guides"><path class="guide line" d="M0.000000 35.056212 h636.000000" /><text class="" x="-5" y="38.5562122111">0.26</text><title>0.26</title></g></g><g class="axis x"><g class="guides"><path class="major line" d="M12.230769 0.000000 v472.019238" /><text class="major" transform="rotate(60 12.230769 487.019238)" x="12.230769230769232" y="487.01923788646684">-8.96</text></g><g class="guides"><path class="major guide line" d="M32.960887 0.000000 v472.019238" /><text class="major" transform="rotate(60 32.960887 487.019238)" x="32.96088657105606" y="487.01923788646684">-8.56</text></g><g class="guides"><path class="major guide line" d="M53.691004 0.000000 v472.019238" /><text class="major" transform="rotate(60 53.691004 487.019238)" x="53.6910039113429" y="487.01923788646684">-8.16</text></g><g class="guides"><path class="major guide line" d="M74.421121 0.000000 v472.019238" /><text class="major" transform="rotate(60 74.421121 487.019238)" x="74.42112125162973" y="487.01923788646684">-7.76</text></g><g class="guides"><path class="major guide line" d="M95.151239 0.000000 v472.019238" /><text class="major" transform="rotate(60 95.151239 487.019238)" x="95.15123859191655" y="487.01923788646684">-7.36</text></g><g class="guides"><path class="major guide line" d="M115.881356 0.000000 v472.019238" /><text class="major" transform="rotate(60 115.881356 487.019238)" x="115.88135593220338" y="487.01923788646684">-6.96</text></g><g class="guides"><path class="major guide line" d="M136.611473 0.000000 v472.019238" /><text class="major" transform="rotate(60 136.611473 487.019238)" x="136.61147327249023" y="487.01923788646684">-6.56</text></g><g class="guides"><path class="major guide line" d="M157.341591 0.000000 v472.019238" /><text class="major" transform="rotate(60 157.341591 487.019238)" x="157.34159061277705" y="487.01923788646684">-6.16</text></g><g class="guides"><path class="major guide line" d="M178.071708 0.000000 v472.019238" /><text class="major" transform="rotate(60 178.071708 487.019238)" x="178.0717079530639" y="487.01923788646684">-5.76</text></g><g class="guides"><path class="major guide line" d="M198.801825 0.000000 v472.019238" /><text class="major" transform="rotate(60 198.801825 487.019238)" x="198.80182529335073" y="487.01923788646684">-5.36</text></g><g class="guides"><path class="major guide line" d="M219.531943 0.000000 v472.019238" /><text class="major" transform="rotate(60 219.531943 487.019238)" x="219.53194263363756" y="487.01923788646684">-4.96</text></g><g class="guides"><path class="major guide line" d="M240.262060 0.000000 v472.019238" /><text class="major" transform="rotate(60 240.262060 487.019238)" x="240.2620599739244" y="487.01923788646684">-4.56</text></g><g class="guides"><path class="major guide line" d="M260.992177 0.000000 v472.019238" /><text class="major" transform="rotate(60 260.992177 487.019238)" x="260.99217731421123" y="487.01923788646684">-4.16</text></g><g class="guides"><path class="major guide line" d="M281.722295 0.000000 v472.019238" /><text class="major" transform="rotate(60 281.722295 487.019238)" x="281.722294654498" y="487.01923788646684">-3.76</text></g><g class="guides"><path class="major guide line" d="M302.452412 0.000000 v472.019238" /><text class="major" transform="rotate(60 302.452412 487.019238)" x="302.4524119947849" y="487.01923788646684">-3.36</text></g><g class="guides"><path class="major guide line" d="M323.182529 0.000000 v472.019238" /><text class="major" transform="rotate(60 323.182529 487.019238)" x="323.1825293350717" y="487.01923788646684">-2.96</text></g><g class="guides"><path class="major guide line" d="M343.912647 0.000000 v472.019238" /><text class="major" transform="rotate(60 343.912647 487.019238)" x="343.91264667535853" y="487.01923788646684">-2.56</text></g><g class="guides"><path class="major guide line" d="M364.642764 0.000000 v472.019238" /><text class="major" transform="rotate(60 364.642764 487.019238)" x="364.64276401564535" y="487.01923788646684">-2.16</text></g><g class="guides"><path class="major guide line" d="M385.372881 0.000000 v472.019238" /><text class="major" transform="rotate(60 385.372881 487.019238)" x="385.37288135593224" y="487.01923788646684">-1.76</text></g><g class="guides"><path class="major guide line" d="M406.102999 0.000000 v472.019238" /><text class="major" transform="rotate(60 406.102999 487.019238)" x="406.102998696219" y="487.01923788646684">-1.36</text></g><g class="guides"><path class="major guide line" d="M426.833116 0.000000 v472.019238" /><text class="major" transform="rotate(60 426.833116 487.019238)" x="426.8331160365058" y="487.01923788646684">-0.96</text></g><g class="guides"><path class="major guide line" d="M447.563233 0.000000 v472.019238" /><text class="major" transform="rotate(60 447.563233 487.019238)" x="447.56323337679265" y="487.01923788646684">-0.56</text></g><g class="guides"><path class="major guide line" d="M468.293351 0.000000 v472.019238" /><text class="major" transform="rotate(60 468.293351 487.019238)" x="468.29335071707953" y="487.01923788646684">-0.16</text></g><g class="guides"><path class="major guide line" d="M489.023468 0.000000 v472.019238" /><text class="major" transform="rotate(60 489.023468 487.019238)" x="489.02346805736636" y="487.01923788646684">0.24</text></g><g class="guides"><path class="major guide line" d="M509.753585 0.000000 v472.019238" /><text class="major" transform="rotate(60 509.753585 487.019238)" x="509.75358539765324" y="487.01923788646684">0.64</text></g><g class="guides"><path class="major guide line" d="M530.483703 0.000000 v472.019238" /><text class="major" transform="rotate(60 530.483703 487.019238)" x="530.48370273794" y="487.01923788646684">1.04</text></g><g class="guides"><path class="major guide line" d="M551.213820 0.000000 v472.019238" /><text class="major" transform="rotate(60 551.213820 487.019238)" x="551.213820078227" y="487.01923788646684">1.43</text></g><g class="guides"><path class="major guide line" d="M571.943937 0.000000 v472.019238" /><text class="major" transform="rotate(60 571.943937 487.019238)" x="571.9439374185138" y="487.01923788646684">1.83</text></g><g class="guides"><path class="major guide line" d="M592.674055 0.000000 v472.019238" /><text class="major" transform="rotate(60 592.674055 487.019238)" x="592.6740547588006" y="487.01923788646684">2.23</text></g><g class="guides"><path class="major guide line" d="M613.404172 0.000000 v472.019238" /><text class="major" transform="rotate(60 613.404172 487.019238)" x="613.4041720990874" y="487.01923788646684">2.63</text></g></g><g class="series serie-0 color-0"><path class="line reactive" d="M12.230769 462.941945 L12.230769 462.019456 22.595828 462.941945 32.960887 461.096967 43.325945 462.019456 53.691004 459.251988 64.056063 462.019456 74.421121 458.329499 84.786180 462.019456 95.151239 458.329499 105.516297 462.019456 115.881356 448.182119 126.246415 460.174477 136.611473 457.407010 146.976532 457.407010 157.341591 451.872075 167.706649 448.182119 178.071708 454.639543 188.436767 445.414651 198.801825 442.647184 209.166884 436.189760 219.531943 437.112249 229.897001 392.832771 240.262060 396.522728 250.627119 376.227967 260.992177 355.933206 271.357236 351.320760 281.722295 325.491065 292.087353 277.521630 302.452412 283.056565 312.817471 202.800010 323.182529 188.040184 333.547588 169.590402 343.912647 123.465945 354.277705 95.791271 364.642764 67.194108 375.007823 82.876423 385.372881 60.736684 395.737940 80.108956 406.102999 29.372054 416.468057 9.077293 426.833116 70.884065 437.198175 69.039086 447.563233 41.364413 457.928292 40.441923 468.293351 91.178826 478.658409 140.993239 489.023468 214.792369 499.388527 259.071847 509.753585 321.801108 520.118644 364.235608 530.483703 408.515086 540.848761 430.654825 551.213820 448.182119 561.578879 455.562032 571.943937 458.329499 582.308996 458.329499 592.674055 462.019456 603.039113 462.941945 613.404172 462.019456 623.769231 462.941945" /></g><g class="series serie-1 color-1"><path class="line reactive nofill" d="M12.230769 462.863406 L22.595828 462.816321 32.960887 462.744412 43.325945 462.636602 53.691004 462.477949 64.056063 462.248802 74.421121 461.924027 84.786180 461.472385 95.151239 460.856246 105.516297 460.031795 115.881356 458.949880 126.246415 457.557602 136.611473 455.800576 146.976532 453.625551 157.341591 450.982704 167.706649 447.826439 178.071708 444.113024 188.436767 439.793037 198.801825 434.796665 209.166884 429.010753 219.531943 422.248438 229.897001 414.215319 240.262060 404.480090 250.627119 392.461531 260.992177 377.446568 271.357236 358.654621 281.722295 335.360868 292.087353 307.084500 302.452412 273.835249 312.817471 236.387944 323.182529 196.516047 333.547588 157.065433 343.912647 121.713946 354.277705 94.289451 364.642764 77.659841 375.007823 72.465540 385.372881 76.242496 395.737940 83.588452 406.102999 87.761342 416.468057 83.434461 426.833116 69.534118 437.198175 50.662716 447.563233 36.016154 457.928292 35.923908 468.293351 57.526571 478.658409 101.729534 489.023468 162.922755 499.388527 231.415226 509.753585 297.125843 520.118644 352.676507 530.483703 394.730871 540.848761 423.559602 551.213820 441.615690 561.578879 452.035586 571.943937 457.626179 582.308996 460.444313 592.674055 461.795862 603.039113 462.421658 613.404172 462.705820 623.769231 462.834182" /></g><g class="series serie-2 color-2"><path class="line reactive nofill" d="M12.230769 462.941945 L22.595828 462.941945 32.960887 462.941945 43.325945 462.941945 53.691004 462.941945 64.056063 462.941945 74.421121 462.941945 84.786180 462.941945 95.151239 462.941945 105.516297 462.941945 115.881356 462.941945 126.246415 462.941945 136.611473 462.941945 146.976532 462.941945 157.341591 462.941945 167.706649 462.941945 178.071708 462.941944 188.436767 462.941943 198.801825 462.941940 209.166884 462.941931 219.531943 462.941903 229.897001 462.941828 240.262060 462.941628 250.627119 462.941112 260.992177 462.939808 271.357236 462.936575 281.722295 462.928647 292.087353 462.909307 302.452412 462.862224 312.817471 462.748117 323.182529 462.474978 333.547588 461.836955 343.912647 460.402391 354.277705 457.338246 364.642764 451.192184 375.007823 439.727730 385.372881 420.006216 395.737940 388.961995 406.102999 344.610027 416.468057 287.683307 426.833116 223.020390 437.198175 159.734577 447.563233 109.474345 457.928292 83.004370 468.293351 86.432735 478.658409 118.896978 489.023468 172.914273 499.388527 237.202379 509.753585 300.512895 520.118644 354.701915 530.483703 395.972936 540.848761 424.337786 551.213820 442.109699 561.578879 452.350467 571.943937 457.826173 582.308996 460.570201 592.674055 461.874122 603.039113 462.469607 613.404172 462.734739 623.769231 462.851341" /></g><g class="series serie-3 color-3"><path class="line reactive nofill" d="M12.230769 462.863406 L22.595828 462.816321 32.960887 462.744412 43.325945 462.636602 53.691004 462.477949 64.056063 462.248802 74.421121 461.924027 84.786180 461.472385 95.151239 460.856246 105.516297 460.031795 115.881356 458.949880 126.246415 457.557602 136.611473 455.800576 146.976532 453.625551 157.341591 450.982704 167.706649 447.826439 178.071708 444.113025 188.436767 439.793039 198.801825 434.796670 209.166884 429.010767 219.531943 422.248480 229.897001 414.215436 240.262060 404.480406 250.627119 392.462364 260.992177 377.448705 271.357236 358.659991 281.722295 335.374166 292.087353 307.117138 302.452412 273.914970 312.817471 236.581771 323.182529 196.983013 333.547588 158.170423 343.912647 124.253500 354.277705 99.893150 364.642764 89.409602 375.007823 95.679755 385.372881 119.178225 395.737940 157.568402 406.102999 206.093260 416.468057 258.693099 426.833116 309.455673 437.198175 353.870084 447.563233 389.483754 457.928292 415.861483 468.293351 434.035781 478.658409 445.774501 489.023468 452.950427 499.388527 457.154792 509.753585 459.554892 520.118644 460.916537 530.483703 461.699879 540.848761 462.163762 551.213820 462.447937 561.578879 462.627063 571.943937 462.741952 582.308996 462.816057 592.674055 462.863685 603.039113 462.893996 613.404172 462.913025 623.769231 462.924786" /></g><g class="series serie-4 color-4"><path class="line reactive nofill" d="M12.230769 462.941945 L22.595828 462.941945 32.960887 462.941945 43.325945 462.941945 53.691004 462.941945 64.056063 462.941945 74.421121 462.941945 84.786180 462.941945 95.151239 462.941945 105.516297 462.941945 115.881356 462.941945 126.246415 462.941945 136.611473 462.941945 146.976532 462.941945 157.341591 462.941945 167.706649 462.941945 178.071708 462.941945 188.436767 462.941945 198.801825 462.941945 209.166884 462.941945 219.531943 462.941945 229.897001 462.941945 240.262060 462.941944 250.627119 462.941942 260.992177 462.941931 271.357236 462.941874 281.722295 462.941605 292.087353 462.940453 302.452412 462.935939 312.817471 462.919810 323.182529 462.867244 333.547588 462.711088 343.912647 462.288630 354.277705 461.248916 364.642764 458.924330 375.007823 454.211548 385.372881 445.569473 395.737940 431.286307 406.102999 410.121461 416.468057 382.234142 426.833116 350.016834 437.198175 318.255657 447.563233 293.185578 457.928292 280.557994 468.293351 283.506179 478.658409 301.285413 489.023468 329.577719 499.388527 362.191427 509.753585 393.244465 520.118644 418.790114 530.483703 437.330021 540.848761 449.336977 551.213820 456.324128 561.578879 459.994174 571.943937 461.739585 582.308996 462.492851 592.674055 462.788341 603.039113 462.893836 613.404172 462.928147 623.769231 462.938321" /></g><g class="series serie-5 color-5"><path class="line reactive nofill" d="M12.230769 462.941945 L22.595828 462.941945 32.960887 462.941945 43.325945 462.941945 53.691004 462.941945 64.056063 462.941945 74.421121 462.941945 84.786180 462.941945 95.151239 462.941945 105.516297 462.941945 115.881356 462.941945 126.246415 462.941945 136.611473 462.941945 146.976532 462.941945 157.341591 462.941945 167.706649 462.941945 178.071708 462.941945 188.436767 462.941945 198.801825 462.941945 209.166884 462.941945 219.531943 462.941945 229.897001 462.941945 240.262060 462.941944 250.627119 462.941941 260.992177 462.941926 271.357236 462.941855 281.722295 462.941550 292.087353 462.940349 302.452412 462.935997 312.817471 462.921535 323.182529 462.877454 333.547588 462.754291 343.912647 462.439124 354.277705 461.701241 364.642764 460.122769 375.007823 457.042983 385.372881 451.575406 395.737940 442.773143 406.102999 429.986192 416.468057 413.353370 426.833116 394.230154 437.198175 375.266060 447.563233 359.920343 457.928292 351.467403 468.293351 351.865405 478.658409 361.019874 489.023468 376.820087 499.388527 395.929141 509.753585 414.924235 520.118644 431.257628 530.483703 443.689473 540.848761 452.169162 551.213820 457.390979 561.578879 460.307989 571.943937 461.791018 582.308996 462.478833 592.674055 462.770342 603.039113 462.883390 613.404172 462.923546 623.769231 462.936621" /></g><g class="series serie-6 color-6"><path class="line reactive nofill" d="M12.230769 462.941945 L22.595828 462.941945 32.960887 462.941945 43.325945 462.941945 53.691004 462.941945 64.056063 462.941945 74.421121 462.941945 84.786180 462.941945 95.151239 462.941945 105.516297 462.941945 115.881356 462.941945 126.246415 462.941945 136.611473 462.941945 146.976532 462.941945 157.341591 462.941945 167.706649 462.941945 178.071708 462.941945 188.436767 462.941945 198.801825 462.941945 209.166884 462.941945 219.531943 462.941945 229.897001 462.941944 240.262060 462.941941 250.627119 462.941928 260.992177 462.941874 271.357236 462.941670 281.722295 462.940950 292.087353 462.938586 302.452412 462.931392 312.817471 462.911087 323.182529 462.857953 333.547588 462.729152 343.912647 462.440140 354.277705 461.840479 364.642764 460.691524 375.007823 458.662245 385.372881 455.366294 395.737940 450.459964 406.102999 443.799206 416.468057 435.615597 426.833116 426.632795 437.198175 418.035618 447.563233 411.246062 457.928292 407.548120 468.293351 407.693034 478.658409 411.650723 489.023468 418.619945 499.388527 427.292513 509.753585 436.252296 520.118644 444.342925 530.483703 450.877864 540.848761 455.658189 551.213820 458.848646 561.578879 460.800788 571.943937 461.899434 582.308996 462.469480 592.674055 462.742641 603.039113 462.863689 613.404172 462.913344 623.769231 462.932215" /></g><g class="series serie-7 color-7"><path class="line reactive nofill" d="M12.230769 462.941945 L22.595828 462.941945 32.960887 462.941945 43.325945 462.941945 53.691004 462.941945 64.056063 462.941945 74.421121 462.941945 84.786180 462.941945 95.151239 462.941945 105.516297 462.941945 115.881356 462.941945 126.246415 462.941945 136.611473 462.941945 146.976532 462.941945 157.341591 462.941945 167.706649 462.941945 178.071708 462.941945 188.436767 462.941945 198.801825 462.941945 209.166884 462.941944 219.531943 462.941943 229.897001 462.941936 240.262060 462.941913 250.627119 462.941838 260.992177 462.941600 271.357236 462.940896 281.722295 462.938940 292.087353 462.933824 302.452412 462.921245 312.817471 462.892183 323.182529 462.829119 333.547588 462.700683 343.912647 462.455382 354.277705 462.016479 364.642764 461.281773 375.007823 460.133172 385.372881 458.460157 395.737940 456.197334 406.102999 453.369266 416.468057 450.128052 426.833116 446.764881 437.198175 443.680480 447.563233 441.312274 457.928292 440.034244 468.293351 440.060466 478.658409 441.386466 489.023468 443.790469 499.388527 446.894059 509.753585 450.259458 520.118644 453.489112 530.483703 456.297013 540.848761 458.536497 551.213820 460.187331 561.578879 461.317510 571.943937 462.038473 582.308996 462.468032 592.674055 462.707493 603.039113 462.832555 613.404172 462.893808 623.769231 462.921967" /></g><g class="series serie-8 color-8"><path class="line reactive nofill" d="M12.230769 462.941945 L22.595828 462.941945 32.960887 462.941945 43.325945 462.941945 53.691004 462.941945 64.056063 462.941945 74.421121 462.941945 84.786180 462.941945 95.151239 462.941945 105.516297 462.941945 115.881356 462.941945 126.246415 462.941945 136.611473 462.941945 146.976532 462.941945 157.341591 462.941945 167.706649 462.941945 178.071708 462.941944 188.436767 462.941943 198.801825 462.941940 209.166884 462.941931 219.531943 462.941906 229.897001 462.941838 240.262060 462.941665 250.627119 462.941242 260.992177 462.940256 271.357236 462.938058 281.722295 462.933381 292.087353 462.923875 302.452412 462.905430 312.817471 462.871282 323.182529 462.810987 333.547588 462.709519 343.912647 462.546895 354.277705 462.298910 364.642764 461.939567 375.007823 461.445563 385.372881 460.802664 395.737940 460.013026 406.102999 459.101682 416.468057 458.119925 426.833116 457.143505 437.198175 456.264542 447.563233 455.577868 457.928292 455.164388 468.293351 455.075430 478.658409 455.322281 489.023468 455.873832 499.388527 456.663019 509.753585 457.600220 520.118644 458.589915 530.483703 459.546345 540.848761 460.404741 551.213820 461.126394 561.578879 461.697786 571.943937 462.125443 582.308996 462.428784 592.674055 462.633084 603.039113 462.763917 613.404172 462.843674 623.769231 462.889996" /></g><g class="series serie-9 color-9"><path class="line reactive nofill" d="M12.230769 462.941945 L22.595828 462.941945 32.960887 462.941945 43.325945 462.941945 53.691004 462.941945 64.056063 462.941945 74.421121 462.941945 84.786180 462.941945 95.151239 462.941945 105.516297 462.941945 115.881356 462.941945 126.246415 462.941945 136.611473 462.941945 146.976532 462.941945 157.341591 462.941945 167.706649 462.941944 178.071708 462.941939 188.436767 462.941915 198.801825 462.941814 209.166884 462.941410 219.531943 462.939930 229.897001 462.934939 240.262060 462.919440 250.627119 462.875173 260.992177 462.758967 271.357236 462.478821 281.722295 461.859292 292.087353 460.604315 302.452412 458.280115 312.817471 454.355147 323.182529 448.333629 333.547588 439.987689 343.912647 429.628433 354.277705 418.286775 364.642764 407.655685 375.007823 399.721608 385.372881 396.170538 395.737940 397.806350 406.102999 404.255153 416.468057 414.104100 426.833116 425.404324 437.198175 436.293546 447.563233 445.468858 457.928292 452.360078 468.293351 457.022935 478.658409 459.883998 489.023468 461.482778 499.388527 462.298851 509.753585 462.680164 520.118644 462.843522 530.483703 462.907767 540.848761 462.930983 551.213820 462.938697 561.578879 462.941056 571.943937 462.941720 582.308996 462.941892 592.674055 462.941934 603.039113 462.941943 613.404172 462.941944 623.769231 462.941945" /></g><g class="series serie-10 color-10"><path class="line reactive nofill" d="M12.230769 462.941945 L22.595828 462.941945 32.960887 462.941945 43.325945 462.941945 53.691004 462.941945 64.056063 462.941945 74.421121 462.941945 84.786180 462.941945 95.151239 462.941945 105.516297 462.941945 115.881356 462.941945 126.246415 462.941945 136.611473 462.941944 146.976532 462.941939 157.341591 462.941920 167.706649 462.941846 178.071708 462.941575 188.436767 462.940650 198.801825 462.937699 209.166884 462.928931 219.531943 462.904655 229.897001 462.842044 240.262060 462.691713 250.627119 462.355939 260.992177 461.658871 271.357236 460.315367 281.722295 457.914835 292.087353 453.946231 302.452412 447.891747 312.817471 439.400232 323.182529 428.513041 333.547588 415.866157 343.912647 402.760685 354.277705 391.011254 364.642764 382.560378 375.007823 378.959603 385.372881 380.905134 395.737940 388.018311 406.102999 398.965784 416.468057 411.867130 426.833116 424.819153 437.198175 436.337643 447.563233 445.583600 457.928292 452.352967 468.293351 456.902611 478.658409 459.721519 489.023468 461.336384 499.388527 462.193552 509.753585 462.615792 520.118644 462.809052 530.483703 462.891319 540.848761 462.923913 551.213820 462.935940 561.578879 462.940075 571.943937 462.941401 582.308996 462.941797 592.674055 462.941907 603.039113 462.941936 613.404172 462.941943 623.769231 462.941944" /></g><g class="series serie-11 color-11"><path class="line reactive nofill" d="M12.230769 462.941945 L22.595828 462.941945 32.960887 462.941945 43.325945 462.941945 53.691004 462.941945 64.056063 462.941945 74.421121 462.941945 84.786180 462.941945 95.151239 462.941944 105.516297 462.941941 115.881356 462.941930 126.246415 462.941891 136.611473 462.941761 146.976532 462.941348 157.341591 462.940108 167.706649 462.936596 178.071708 462.927210 188.436767 462.903538 198.801825 462.847219 209.166884 462.720884 219.531943 462.453812 229.897001 461.922063 240.262060 460.925688 250.627119 459.170340 260.992177 456.266335 271.357236 451.761986 281.722295 445.225610 292.087353 436.378033 302.452412 425.254680 312.817471 412.349967 323.182529 398.680106 333.547588 385.707847 343.912647 375.110615 354.277705 368.432702 364.642764 366.717911 375.007823 370.242468 385.372881 378.442190 395.737940 390.060317 406.102999 403.462744 416.468057 417.011924 426.833116 429.382668 437.198175 439.740609 447.563233 447.764528 457.928292 453.547586 468.293351 457.439941 478.658409 459.892933 489.023468 461.343191 499.388527 462.148734 509.753585 462.569570 520.118644 462.776537 530.483703 462.872424 540.848761 462.914297 551.213820 462.931541 561.578879 462.938241 571.943937 462.940697 582.308996 462.941547 592.674055 462.941825 603.039113 462.941911 613.404172 462.941936 623.769231 462.941942" /></g><g class="series serie-12 color-12"><path class="line reactive nofill" d="M12.230769 462.941945 L22.595828 462.941945 32.960887 462.941945 43.325945 462.941944 53.691004 462.941943 64.056063 462.941940 74.421121 462.941928 84.786180 462.941891 95.151239 462.941779 105.516297 462.941456 115.881356 462.940572 126.246415 462.938262 136.611473 462.932499 146.976532 462.918798 157.341591 462.887743 167.706649 462.820663 178.071708 462.682630 188.436767 462.412141 198.801825 461.907615 209.166884 461.012381 219.531943 459.502289 229.897001 457.082901 240.262060 453.405328 250.627119 448.109328 260.992177 440.897608 271.357236 431.635616 281.722295 420.458170 292.087353 407.852311 302.452412 394.680963 312.817471 382.119681 323.182529 371.500024 333.547588 364.083105 343.912647 360.814721 354.277705 362.127355 364.642764 367.846198 375.007823 377.227377 385.372881 389.116846 395.737940 402.183133 406.102999 415.159281 416.468057 427.034270 426.833116 437.157366 437.198175 445.249467 447.563233 451.341541 457.928292 455.673970 468.293351 458.590740 478.658409 460.452735 489.023468 461.581223 499.388527 462.231168 509.753585 462.587170 520.118644 462.772734 530.483703 462.864826 540.848761 462.908360 551.213820 462.927969 561.578879 462.936387 571.943937 462.939833 582.308996 462.941178 592.674055 462.941679 603.039113 462.941857 613.404172 462.941917 623.769231 462.941936" /></g><g class="series serie-13 color-13"><path class="line reactive nofill" d="M12.230769 462.863406 L22.595828 462.816321 32.960887 462.744412 43.325945 462.636603 53.691004 462.477950 64.056063 462.248807 74.421121 461.924044 84.786180 461.472439 95.151239 460.856413 105.516297 460.032287 115.881356 458.951267 126.246415 457.561339 136.611473 455.810207 146.976532 453.649301 157.341591 451.038768 167.706649 447.953169 178.071708 444.387449 188.436767 440.362574 198.801825 435.930103 209.166884 431.174941 219.531943 426.215574 229.897001 421.201269 240.262060 416.306017 250.627119 411.719363 260.992177 407.634703 271.357236 404.235980 281.722295 401.684038 292.087353 400.104028 302.452412 399.575245 312.817471 400.124524 323.182529 401.723992 333.547588 404.293405 343.912647 407.706826 354.277705 411.802845 364.642764 416.397210 375.007823 421.296477 385.372881 426.311296 395.737940 431.268071 406.102999 436.018078 416.468057 440.443454 426.833116 444.459942 437.198175 448.016600 447.563233 451.093007 457.928292 453.694662 468.293351 455.847334 478.658409 457.591096 489.023468 458.974631 499.388527 460.050266 509.753585 460.869976 520.118644 461.482472 530.483703 461.931323 540.848761 462.253988 551.213820 462.481569 561.578879 462.639083 571.943937 462.746080 582.308996 462.817423 592.674055 462.864120 603.039113 462.894129 613.404172 462.913065 623.769231 462.924797" /></g></g><g class="titles"><text class="title plot_title" x="400.0" y="26">Iteration #9</text><text class="title" x="462.0" y="580.0">Observation</text><text class="title" transform="rotate(-90 64.000000 282.009619)" x="64.0" y="308.0096189432334">Density</text></g><g class="plot overlay" transform="translate(144, 46)"><g class="series serie-0 color-0" /><g class="series serie-1 color-1" /><g class="series serie-2 color-2" /><g class="series serie-3 color-3" /><g class="series serie-4 color-4" /><g class="series serie-5 color-5" /><g class="series serie-6 color-6" /><g class="series serie-7 color-7" /><g class="series serie-8 color-8" /><g class="series serie-9 color-9" /><g class="series serie-10 color-10" /><g class="series serie-11 color-11" /><g class="series serie-12 color-12" /><g class="series serie-13 color-13" /></g><g class="plot text-overlay" transform="translate(144, 46)"><g class="series serie-0 color-0" /><g class="series serie-1 color-1" /><g class="series serie-2 color-2" /><g class="series serie-3 color-3" /><g class="series serie-4 color-4" /><g class="series serie-5 color-5" /><g class="series serie-6 color-6" /><g class="series serie-7 color-7" /><g class="series serie-8 color-8" /><g class="series serie-9 color-9" /><g class="series serie-10 color-10" /><g class="series serie-11 color-11" /><g class="series serie-12 color-12" /><g class="series serie-13 color-13" /></g><g class="plot tooltip-overlay" transform="translate(144, 46)"><g class="tooltip" style="opacity: 0" transform="translate(0 0)"><rect class="tooltip-box" height="0" rx="0" ry="0" width="0" /><g class="text" /></g></g><g class="legends" transform="translate(10, 56)"><g class="legend reactive activate-serie" id="activate-serie-0"><rect class="color-0 reactive" height="12" width="12" x="0.0" y="0.0" /><text x="17.0" y="9.0">Data</text></g><g class="legend reactive activate-serie" id="activate-serie-1"><rect class="color-1 reactive" height="12" width="12" x="0.0" y="18.0" /><text x="17.0" y="27.0">GMM</text></g><g class="legend reactive activate-serie" id="activate-serie-2"><rect class="color-2 reactive" height="12" width="12" x="0.0" y="36.0" /><text x="17.0" y="45.0">i=0</text></g><g class="legend reactive activate-serie" id="activate-serie-3"><rect class="color-3 reactive" height="12" width="12" x="0.0" y="54.0" /><text x="17.0" y="63.0">i=1</text></g><g class="legend reactive activate-serie" id="activate-serie-4"><rect class="color-4 reactive" height="12" width="12" x="0.0" y="72.0" /><text x="17.0" y="81.0">i=0 k=0</text></g><g class="legend reactive activate-serie" id="activate-serie-5"><rect class="color-5 reactive" height="12" width="12" x="0.0" y="90.0" /><text x="17.0" y="99.0">i=0 k=1</text></g><g class="legend reactive activate-serie" id="activate-serie-6"><rect class="color-6 reactive" height="12" width="12" x="0.0" y="108.0" /><text x="17.0" y="117.0">i=0 k=2</text></g><g class="legend reactive activate-serie" id="activate-serie-7"><rect class="color-7 reactive" height="12" width="12" x="0.0" y="126.0" /><text x="17.0" y="135.0">i=0 k=3</text></g><g class="legend reactive activate-serie" id="activate-serie-8"><rect class="color-8 reactive" height="12" width="12" x="0.0" y="144.0" /><text x="17.0" y="153.0">i=0 k=4</text></g><g class="legend reactive activate-serie" id="activate-serie-9"><rect class="color-9 reactive" height="12" width="12" x="0.0" y="162.0" /><text x="17.0" y="171.0">i=1 k=0</text></g><g class="legend reactive activate-serie" id="activate-serie-10"><rect class="color-10 reactive" height="12" width="12" x="0.0" y="180.0" /><text x="17.0" y="189.0">i=1 k=1</text></g><g class="legend reactive activate-serie" id="activate-serie-11"><rect class="color-11 reactive" height="12" width="12" x="0.0" y="198.0" /><text x="17.0" y="207.0">i=1 k=2</text></g><g class="legend reactive activate-serie" id="activate-serie-12"><rect class="color-12 reactive" height="12" width="12" x="0.0" y="216.0" /><text x="17.0" y="225.0">i=1 k=3</text></g><g class="legend reactive activate-serie" id="activate-serie-13"><rect class="color-13 reactive" height="12" width="12" x="0.0" y="234.0" /><text x="17.0" y="243.0">i=1 k=4</text></g></g><g class="legends" transform="translate(790, 56)" /></g></svg>