<?xml version='1.0' encoding='utf-8'?>
<svg xmlns:xlink="http://www.w3.org/1999/xlink" class="pygal-chart" id="chart-5f17fb8f-e5bb-41eb-8f60-cd9a5bfbfab0" viewBox="0 0 800 600" xmlns="http://www.w3.org/2000/svg"><!--Generated with pygal 2.4.0 (etree) ©Kozea 2012-2016 on 2018-02-07--><!--http://pygal.org--><!--http://github.com/Kozea/pygal--><defs><style type="text/css">#chart-5f17fb8f-e5bb-41eb-8f60-cd9a5bfbfab0{-webkit-user-select:none;-webkit-font-smoothing:antialiased;font-family:Consolas,"Liberation Mono",Menlo,Courier,monospace}#chart-5f17fb8f-e5bb-41eb-8f60-cd9a5bfbfab0 .title{font-family:Consolas,"Liberation Mono",Menlo,Courier,monospace;font-size:16px}#chart-5f17fb8f-e5bb-41eb-8f60-cd9a5bfbfab0 .legends .legend text{font-family:Consolas,"Liberation Mono",Menlo,Courier,monospace;font-size:10px}#chart-5f17fb8f-e5bb-41eb-8f60-cd9a5bfbfab0 .axis text{font-family:Consolas,"Liberation Mono",Menlo,Courier,monospace;font-size:10px}#chart-5f17fb8f-e5bb-41eb-8f60-cd9a5bfbfab0 .axis text.major{font-family:Consolas,"Liberation Mono",Menlo,Courier,monospace;font-size:10px}#chart-5f17fb8f-e5bb-41eb-8f60-cd9a5bfbfab0 .text-overlay text.value{font-family:Consolas,"Liberation Mono",Menlo,Courier,monospace;font-size:16px}#chart-5f17fb8f-e5bb-41eb-8f60-cd9a5bfbfab0 .text-overlay text.label{font-family:Consolas,"Liberation Mono",Menlo,Courier,monospace;font-size:10px}#chart-5f17fb8f-e5bb-41eb-8f60-cd9a5bfbfab0 .tooltip{font-family:Consolas,"Liberation Mono",Menlo,Courier,monospace;font-size:14px}#chart-5f17fb8f-e5bb-41eb-8f60-cd9a5bfbfab0 text.no_data{font-family:Consolas,"Liberation Mono",Menlo,Courier,monospace;font-size:64px}
#chart-5f17fb8f-e5bb-41eb-8f60-cd9a5bfbfab0{background-color:rgba(249,249,249,1)}#chart-5f17fb8f-e5bb-41eb-8f60-cd9a5bfbfab0 path,#chart-5f17fb8f-e5bb-41eb-8f60-cd9a5bfbfab0 line,#chart-5f17fb8f-e5bb-41eb-8f60-cd9a5bfbfab0 rect,#chart-5f17fb8f-e5bb-41eb-8f60-cd9a5bfbfab0 circle{-webkit-transition:150ms;-moz-transition:150ms;transition:150ms}#chart-5f17fb8f-e5bb-41eb-8f60-cd9a5bfbfab0 .graph &gt; .background{fill:rgba(249,249,249,1)}#chart-5f17fb8f-e5bb-41eb-8f60-cd9a5bfbfab0 .plot &gt; .background{fill:rgba(255,255,255,1)}#chart-5f17fb8f-e5bb-41eb-8f60-cd9a5bfbfab0 .graph{fill:rgba(0,0,0,.87)}#chart-5f17fb8f-e5bb-41eb-8f60-cd9a5bfbfab0 text.no_data{fill:rgba(0,0,0,1)}#chart-5f17fb8f-e5bb-41eb-8f60-cd9a5bfbfab0 .title{fill:rgba(0,0,0,1)}#chart-5f17fb8f-e5bb-41eb-8f60-cd9a5bfbfab0 .legends .legend text{fill:rgba(0,0,0,.87)}#chart-5f17fb8f-e5bb-41eb-8f60-cd9a5bfbfab0 .legends .legend:hover text{fill:rgba(0,0,0,1)}#chart-5f17fb8f-e5bb-41eb-8f60-cd9a5bfbfab0 .axis .line{stroke:rgba(0,0,0,1)}#chart-5f17fb8f-e5bb-41eb-8f60-cd9a5bfbfab0 .axis .guide.line{stroke:rgba(0,0,0,.54)}#chart-5f17fb8f-e5bb-41eb-8f60-cd9a5bfbfab0 .axis .major.line{stroke:rgba(0,0,0,.87)}#chart-5f17fb8f-e5bb-41eb-8f60-cd9a5bfbfab0 .axis text.major{fill:rgba(0,0,0,1)}#chart-5f17fb8f-e5bb-41eb-8f60-cd9a5bfbfab0 .axis.y .guides:hover .guide.line,#chart-5f17fb8f-e5bb-41eb-8f60-cd9a5bfbfab0 .line-graph .axis.x .guides:hover .guide.line,#chart-5f17fb8f-e5bb-41eb-8f60-cd9a5bfbfab0 .stackedline-graph .axis.x .guides:hover .guide.line,#chart-5f17fb8f-e5bb-41eb-8f60-cd9a5bfbfab0 .xy-graph .axis.x .guides:hover .guide.line{stroke:rgba(0,0,0,1)}#chart-5f17fb8f-e5bb-41eb-8f60-cd9a5bfbfab0 .axis .guides:hover text{fill:rgba(0,0,0,1)}#chart-5f17fb8f-e5bb-41eb-8f60-cd9a5bfbfab0 .reactive{fill-opacity:.7;stroke-opacity:.8}#chart-5f17fb8f-e5bb-41eb-8f60-cd9a5bfbfab0 .ci{stroke:rgba(0,0,0,.87)}#chart-5f17fb8f-e5bb-41eb-8f60-cd9a5bfbfab0 .reactive.active,#chart-5f17fb8f-e5bb-41eb-8f60-cd9a5bfbfab0 .active .reactive{fill-opacity:.8;stroke-opacity:.9;stroke-width:4}#chart-5f17fb8f-e5bb-41eb-8f60-cd9a5bfbfab0 .ci .reactive.active{stroke-width:1.5}#chart-5f17fb8f-e5bb-41eb-8f60-cd9a5bfbfab0 .series text{fill:rgba(0,0,0,1)}#chart-5f17fb8f-e5bb-41eb-8f60-cd9a5bfbfab0 .tooltip rect{fill:rgba(255,255,255,1);stroke:rgba(0,0,0,1);-webkit-transition:opacity 150ms;-moz-transition:opacity 150ms;transition:opacity 150ms}#chart-5f17fb8f-e5bb-41eb-8f60-cd9a5bfbfab0 .tooltip .label{fill:rgba(0,0,0,.87)}#chart-5f17fb8f-e5bb-41eb-8f60-cd9a5bfbfab0 .tooltip .label{fill:rgba(0,0,0,.87)}#chart-5f17fb8f-e5bb-41eb-8f60-cd9a5bfbfab0 .tooltip .legend{font-size:.8em;fill:rgba(0,0,0,.54)}#chart-5f17fb8f-e5bb-41eb-8f60-cd9a5bfbfab0 .tooltip .x_label{font-size:.6em;fill:rgba(0,0,0,1)}#chart-5f17fb8f-e5bb-41eb-8f60-cd9a5bfbfab0 .tooltip .xlink{font-size:.5em;text-decoration:underline}#chart-5f17fb8f-e5bb-41eb-8f60-cd9a5bfbfab0 .tooltip .value{font-size:1.5em}#chart-5f17fb8f-e5bb-41eb-8f60-cd9a5bfbfab0 .bound{font-size:.5em}#chart-5f17fb8f-e5bb-41eb-8f60-cd9a5bfbfab0 .max-value{font-size:.75em;fill:rgba(0,0,0,.54)}#chart-5f17fb8f-e5bb-41eb-8f60-cd9a5bfbfab0 .map-element{fill:rgba(255,255,255,1);stroke:rgba(0,0,0,.54) !important}#chart-5f17fb8f-e5bb-41eb-8f60-cd9a5bfbfab0 .map-element .reactive{fill-opacity:inherit;stroke-opacity:inherit}#chart-5f17fb8f-e5bb-41eb-8f60-cd9a5bfbfab0 .color-0,#chart-5f17fb8f-e5bb-41eb-8f60-cd9a5bfbfab0 .color-0 a:visited{stroke:#909090;fill:#909090}#chart-5f17fb8f-e5bb-41eb-8f60-cd9a5bfbfab0 .color-1,#chart-5f17fb8f-e5bb-41eb-8f60-cd9a5bfbfab0 .color-1 a:visited{stroke:#000000;fill:#000000}#chart-5f17fb8f-e5bb-41eb-8f60-cd9a5bfbfab0 .color-2,#chart-5f17fb8f-e5bb-41eb-8f60-cd9a5bfbfab0 .color-2 a:visited{stroke:#ff0500;fill:#ff0500}#chart-5f17fb8f-e5bb-41eb-8f60-cd9a5bfbfab0 .color-3,#chart-5f17fb8f-e5bb-41eb-8f60-cd9a5bfbfab0 .color-3 a:visited{stroke:#323299;fill:#323299}#chart-5f17fb8f-e5bb-41eb-8f60-cd9a5bfbfab0 .color-4,#chart-5f17fb8f-e5bb-41eb-8f60-cd9a5bfbfab0 .color-4 a:visited{stroke:#a3413f;fill:#a3413f}#chart-5f17fb8f-e5bb-41eb-8f60-cd9a5bfbfab0 .color-5,#chart-5f17fb8f-e5bb-41eb-8f60-cd9a5bfbfab0 .color-5 a:visited{stroke:#a3413f;fill:#a3413f}#chart-5f17fb8f-e5bb-41eb-8f60-cd9a5bfbfab0 .color-6,#chart-5f17fb8f-e5bb-41eb-8f60-cd9a5bfbfab0 .color-6 a:visited{stroke:#657fff;fill:#657fff}#chart-5f17fb8f-e5bb-41eb-8f60-cd9a5bfbfab0 .color-7,#chart-5f17fb8f-e5bb-41eb-8f60-cd9a5bfbfab0 .color-7 a:visited{stroke:#657fff;fill:#657fff}#chart-5f17fb8f-e5bb-41eb-8f60-cd9a5bfbfab0 .text-overlay .color-0 text{fill:black}#chart-5f17fb8f-e5bb-41eb-8f60-cd9a5bfbfab0 .text-overlay .color-1 text{fill:white}#chart-5f17fb8f-e5bb-41eb-8f60-cd9a5bfbfab0 .text-overlay .color-2 text{fill:black}#chart-5f17fb8f-e5bb-41eb-8f60-cd9a5bfbfab0 .text-overlay .color-3 text{fill:black}#chart-5f17fb8f-e5bb-41eb-8f60-cd9a5bfbfab0 .text-overlay .color-4 text{fill:black}#chart-5f17fb8f-e5bb-41eb-8f60-cd9a5bfbfab0 .text-overlay .color-5 text{fill:black}#chart-5f17fb8f-e5bb-41eb-8f60-cd9a5bfbfab0 .text-overlay .color-6 text{fill:black}#chart-5f17fb8f-e5bb-41eb-8f60-cd9a5bfbfab0 .text-overlay .color-7 text{fill:black}#chart-5f17fb8f-e5bb-41eb-8f60-cd9a5bfbfab0 .series.serie-1{stroke-width:5}#chart-5f17fb8f-e5bb-41eb-8f60-cd9a5bfbfab0 .series.serie-2{stroke-width:3}#chart-5f17fb8f-e5bb-41eb-8f60-cd9a5bfbfab0 .series.serie-3{stroke-width:3}#chart-5f17fb8f-e5bb-41eb-8f60-cd9a5bfbfab0 .series.serie-4{stroke-width:2;stroke-dasharray:2,2}#chart-5f17fb8f-e5bb-41eb-8f60-cd9a5bfbfab0 .series.serie-5{stroke-width:2;stroke-dasharray:2,2}#chart-5f17fb8f-e5bb-41eb-8f60-cd9a5bfbfab0 .series.serie-6{stroke-width:2;stroke-dasharray:2,2}#chart-5f17fb8f-e5bb-41eb-8f60-cd9a5bfbfab0 .series.serie-7{stroke-width:2;stroke-dasharray:2,2}
#chart-5f17fb8f-e5bb-41eb-8f60-cd9a5bfbfab0 text.no_data{text-anchor:middle}#chart-5f17fb8f-e5bb-41eb-8f60-cd9a5bfbfab0 .guide.line{fill:none}#chart-5f17fb8f-e5bb-41eb-8f60-cd9a5bfbfab0 .centered{text-anchor:middle}#chart-5f17fb8f-e5bb-41eb-8f60-cd9a5bfbfab0 .title{text-anchor:middle}#chart-5f17fb8f-e5bb-41eb-8f60-cd9a5bfbfab0 .legends .legend text{fill-opacity:1}#chart-5f17fb8f-e5bb-41eb-8f60-cd9a5bfbfab0 .axis.x text{text-anchor:middle}#chart-5f17fb8f-e5bb-41eb-8f60-cd9a5bfbfab0 .axis.x:not(.web) text[transform]{text-anchor:start}#chart-5f17fb8f-e5bb-41eb-8f60-cd9a5bfbfab0 .axis.x:not(.web) text[transform].backwards{text-anchor:end}#chart-5f17fb8f-e5bb-41eb-8f60-cd9a5bfbfab0 .axis.y text{text-anchor:end}#chart-5f17fb8f-e5bb-41eb-8f60-cd9a5bfbfab0 .axis.y text[transform].backwards{text-anchor:start}#chart-5f17fb8f-e5bb-41eb-8f60-cd9a5bfbfab0 .axis.y2 text{text-anchor:start}#chart-5f17fb8f-e5bb-41eb-8f60-cd9a5bfbfab0 .axis.y2 text[transform].backwards{text-anchor:end}#chart-5f17fb8f-e5bb-41eb-8f60-cd9a5bfbfab0 .axis .guide.line{stroke-dasharray:4,4}#chart-5f17fb8f-e5bb-41eb-8f60-cd9a5bfbfab0 .axis .major.guide.line{stroke-dasharray:6,6}#chart-5f17fb8f-e5bb-41eb-8f60-cd9a5bfbfab0 .horizontal .axis.y .guide.line,#chart-5f17fb8f-e5bb-41eb-8f60-cd9a5bfbfab0 .horizontal .axis.y2 .guide.line,#chart-5f17fb8f-e5bb-41eb-8f60-cd9a5bfbfab0 .vertical .axis.x .guide.line{opacity:0}#chart-5f17fb8f-e5bb-41eb-8f60-cd9a5bfbfab0 .horizontal .axis.always_show .guide.line,#chart-5f17fb8f-e5bb-41eb-8f60-cd9a5bfbfab0 .vertical .axis.always_show .guide.line{opacity:1 !important}#chart-5f17fb8f-e5bb-41eb-8f60-cd9a5bfbfab0 .axis.y .guides:hover .guide.line,#chart-5f17fb8f-e5bb-41eb-8f60-cd9a5bfbfab0 .axis.y2 .guides:hover .guide.line,#chart-5f17fb8f-e5bb-41eb-8f60-cd9a5bfbfab0 .axis.x .guides:hover .guide.line{opacity:1}#chart-5f17fb8f-e5bb-41eb-8f60-cd9a5bfbfab0 .axis .guides:hover text{opacity:1}#chart-5f17fb8f-e5bb-41eb-8f60-cd9a5bfbfab0 .nofill{fill:none}#chart-5f17fb8f-e5bb-41eb-8f60-cd9a5bfbfab0 .subtle-fill{fill-opacity:.2}#chart-5f17fb8f-e5bb-41eb-8f60-cd9a5bfbfab0 .dot{stroke-width:1px;fill-opacity:1}#chart-5f17fb8f-e5bb-41eb-8f60-cd9a5bfbfab0 .dot.active{stroke-width:5px}#chart-5f17fb8f-e5bb-41eb-8f60-cd9a5bfbfab0 .dot.negative{fill:transparent}#chart-5f17fb8f-e5bb-41eb-8f60-cd9a5bfbfab0 text,#chart-5f17fb8f-e5bb-41eb-8f60-cd9a5bfbfab0 tspan{stroke:none !important}#chart-5f17fb8f-e5bb-41eb-8f60-cd9a5bfbfab0 .series text.active{opacity:1}#chart-5f17fb8f-e5bb-41eb-8f60-cd9a5bfbfab0 .tooltip rect{fill-opacity:.95;stroke-width:.5}#chart-5f17fb8f-e5bb-41eb-8f60-cd9a5bfbfab0 .tooltip text{fill-opacity:1}#chart-5f17fb8f-e5bb-41eb-8f60-cd9a5bfbfab0 .showable{visibility:hidden}#chart-5f17fb8f-e5bb-41eb-8f60-cd9a5bfbfab0 .showable.shown{visibility:visible}#chart-5f17fb8f-e5bb-41eb-8f60-cd9a5bfbfab0 .gauge-background{fill:rgba(229,229,229,1);stroke:none}#chart-5f17fb8f-e5bb-41eb-8f60-cd9a5bfbfab0 .bg-lines{stroke:rgba(249,249,249,1);stroke-width:2px}</style><script type="text/javascript">window.pygal = window.pygal || {};window.pygal.config = window.pygal.config || {};window.pygal.config['5f17fb8f-e5bb-41eb-8f60-cd9a5bfbfab0'] = {"y_labels": null, "no_prefix": false, "margin": 20, "css": ["file://style.css", "file://graph.css"], "show_minor_x_labels": false, "no_data_text": "No data", "inner_radius": 0, "truncate_label": null, "margin_right": null, "dynamic_print_values": false, "defs": [], "range": [0, 0.27578580090479526], "margin_top": null, "height": 600, "print_values_position": "center", "allow_interruptions": false, "show_legend": true, "interpolation_parameters": {}, "min_scale": 4, "x_title": "Observation", "y_label_rotation": 0, "dots_size": 2.5, "style": {"value_background": "rgba(229, 229, 229, 1)", "legend_font_size": 10, "foreground": "rgba(0, 0, 0, .87)", "background": "rgba(249, 249, 249, 1)", "value_colors": [], "stroke_opacity_hover": ".9", "label_font_family": "Consolas, \"Liberation Mono\", Menlo, Courier, monospace", "major_guide_stroke_dasharray": "6,6", "font_family": "Consolas, \"Liberation Mono\", Menlo, Courier, monospace", "label_font_size": 10, "foreground_subtle": "rgba(0, 0, 0, .54)", "opacity": ".7", "value_label_font_size": 10, "guide_stroke_dasharray": "4,4", "title_font_size": 16, "major_label_font_family": "Consolas, \"Liberation Mono\", Menlo, Courier, monospace", "stroke_opacity": ".8", "colors": ["#909090", "#000000", "#ff0500", "#323299", "#a3413f", "#a3413f", "#657fff", "#657fff"], "opacity_hover": ".8", "value_font_family": "Consolas, \"Liberation Mono\", Menlo, Courier, monospace", "foreground_strong": "rgba(0, 0, 0, 1)", "tooltip_font_size": 14, "no_data_font_size": 64, "legend_font_family": "Consolas, \"Liberation Mono\", Menlo, Courier, monospace", "tooltip_font_family": "Consolas, \"Liberation Mono\", Menlo, Courier, monospace", "value_label_font_family": "Consolas, \"Liberation Mono\", Menlo, Courier, monospace", "title_font_family": "Consolas, \"Liberation Mono\", Menlo, Courier, monospace", "ci_colors": [], "major_label_font_size": 10, "plot_background": "rgba(255, 255, 255, 1)", "no_data_font_family": "Consolas, \"Liberation Mono\", Menlo, Courier, monospace", "value_font_size": 16, "transition": "150ms"}, "x_labels_major_count": null, "tooltip_fancy_mode": true, "zero": 0, "stack_from_top": false, "explicit_size": false, "print_labels": false, "show_x_guides": false, "x_label_rotation": 60, "legend_at_bottom_columns": null, "width": 800, "x_labels": ["-8.96", "-8.76", "-8.56", "-8.36", "-8.16", "-7.96", "-7.76", "-7.56", "-7.36", "-7.16", "-6.96", "-6.76", "-6.56", "-6.36", "-6.16", "-5.96", "-5.76", "-5.56", "-5.36", "-5.16", "-4.96", "-4.76", "-4.56", "-4.36", "-4.16", "-3.96", "-3.76", "-3.56", "-3.36", "-3.16", "-2.96", "-2.76", "-2.56", "-2.36", "-2.16", "-1.96", "-1.76", "-1.56", "-1.36", "-1.16", "-0.96", "-0.76", "-0.56", "-0.36", "-0.16", "0.04", "0.24", "0.44", "0.64", "0.84", "1.04", "1.24", "1.43", "1.63", "1.83", "2.03", "2.23", "2.43", "2.63", "2.83"], "force_uri_protocol": "https", "rounded_bars": null, "missing_value_fill_truncation": "x", "stroke": true, "box_mode": "extremes", "xrange": null, "js": ["//kozea.github.io/pygal.js/2.0.x/pygal-tooltips.min.js"], "order_min": null, "margin_bottom": null, "fill": false, "logarithmic": false, "strict": false, "truncate_legend": null, "disable_xml_declaration": false, "max_scale": 16, "show_x_labels": true, "tooltip_border_radius": 0, "x_labels_major": null, "secondary_range": null, "classes": ["pygal-chart"], "y_labels_major": null, "print_values": false, "show_minor_y_labels": true, "y_labels_major_count": null, "y_title": "Density", "interpolate": null, "show_y_labels": true, "x_labels_major_every": 2, "print_zeroes": true, "pretty_print": false, "legend_box_size": 12, "show_only_major_dots": false, "interpolation_precision": 250, "spacing": 10, "show_y_guides": true, "margin_left": null, "inverse_y_axis": false, "show_dots": false, "legend_at_bottom": false, "formatter": null, "title": "Iteration #1", "y_labels_major_every": null, "include_x_axis": false, "legends": ["Data", "GMM", "i=0", "i=1", "i=0 k=0", "i=0 k=1", "i=1 k=0", "i=1 k=1"], "stroke_style": null, "half_pie": false}</script><script type="text/javascript" xlink:href="https://kozea.github.io/pygal.js/2.0.x/pygal-tooltips.min.js" /></defs><title>Iteration #1</title><g class="graph line-graph vertical"><rect class="background" height="600" width="800" x="0" y="0" /><g class="plot" transform="translate(144, 46)"><rect class="background" height="472.01923788646684" width="636.0" x="0" y="0" /><g class="axis y always_show"><g class="guides"><path class="axis major line" d="M0.000000 462.941945 h636.000000" /><text class="major" x="-5" y="466.44194485">0</text><title>0</title></g><g class="guides"><path class="guide line" d="M0.000000 430.027658 h636.000000" /><text class="" x="-5" y="433.527657724">0.02</text><title>0.02</title></g><g class="guides"><path class="guide line" d="M0.000000 397.113371 h636.000000" /><text class="" x="-5" y="400.613370598">0.04</text><title>0.04</title></g><g class="guides"><path class="guide line" d="M0.000000 364.199083 h636.000000" /><text class="" x="-5" y="367.699083472">0.06</text><title>0.06</title></g><g class="guides"><path class="guide line" d="M0.000000 331.284796 h636.000000" /><text class="" x="-5" y="334.784796346">0.08</text><title>0.08</title></g><g class="guides"><path class="guide line" d="M0.000000 298.370509 h636.000000" /><text class="" x="-5" y="301.87050922">0.1</text><title>0.1</title></g><g class="guides"><path class="guide line" d="M0.000000 265.456222 h636.000000" /><text class="" x="-5" y="268.956222094">0.12</text><title>0.12</title></g><g class="guides"><path class="guide line" d="M0.000000 232.541935 h636.000000" /><text class="" x="-5" y="236.041934968">0.14</text><title>0.14</title></g><g class="guides"><path class="guide line" d="M0.000000 199.627648 h636.000000" /><text class="" x="-5" y="203.127647841">0.16</text><title>0.16</title></g><g class="guides"><path class="guide line" d="M0.000000 166.713361 h636.000000" /><text class="" x="-5" y="170.213360715">0.18</text><title>0.18</title></g><g class="guides"><path class="guide line" d="M0.000000 133.799074 h636.000000" /><text class="" x="-5" y="137.299073589">0.2</text><title>0.2</title></g><g class="guides"><path class="guide line" d="M0.000000 100.884786 h636.000000" /><text class="" x="-5" y="104.384786463">0.22</text><title>0.22</title></g><g class="guides"><path class="guide line" d="M0.000000 67.970499 h636.000000" /><text class="" x="-5" y="71.4704993371">0.24</text><title>0.24</title></g><g class="guides"><path class="guide line" d="M0.000000 35.056212 h636.000000" /><text class="" x="-5" y="38.5562122111">0.26</text><title>0.26</title></g></g><g class="axis x"><g class="guides"><path class="major line" d="M12.230769 0.000000 v472.019238" /><text class="major" transform="rotate(60 12.230769 487.019238)" x="12.230769230769232" y="487.01923788646684">-8.96</text></g><g class="guides"><path class="major guide line" d="M32.960887 0.000000 v472.019238" /><text class="major" transform="rotate(60 32.960887 487.019238)" x="32.96088657105606" y="487.01923788646684">-8.56</text></g><g class="guides"><path class="major guide line" d="M53.691004 0.000000 v472.019238" /><text class="major" transform="rotate(60 53.691004 487.019238)" x="53.6910039113429" y="487.01923788646684">-8.16</text></g><g class="guides"><path class="major guide line" d="M74.421121 0.000000 v472.019238" /><text class="major" transform="rotate(60 74.421121 487.019238)" x="74.42112125162973" y="487.01923788646684">-7.76</text></g><g class="guides"><path class="major guide line" d="M95.151239 0.000000 v472.019238" /><text class="major" transform="rotate(60 95.151239 487.019238)" x="95.15123859191655" y="487.01923788646684">-7.36</text></g><g class="guides"><path class="major guide line" d="M115.881356 0.000000 v472.019238" /><text class="major" transform="rotate(60 115.881356 487.019238)" x="115.88135593220338" y="487.01923788646684">-6.96</text></g><g class="guides"><path class="major guide line" d="M136.611473 0.000000 v472.019238" /><text class="major" transform="rotate(60 136.611473 487.019238)" x="136.61147327249023" y="487.01923788646684">-6.56</text></g><g class="guides"><path class="major guide line" d="M157.341591 0.000000 v472.019238" /><text class="major" transform="rotate(60 157.341591 487.019238)" x="157.34159061277705" y="487.01923788646684">-6.16</text></g><g class="guides"><path class="major guide line" d="M178.071708 0.000000 v472.019238" /><text class="major" transform="rotate(60 178.071708 487.019238)" x="178.0717079530639" y="487.01923788646684">-5.76</text></g><g class="guides"><path class="major guide line" d="M198.801825 0.000000 v472.019238" /><text class="major" transform="rotate(60 198.801825 487.019238)" x="198.80182529335073" y="487.01923788646684">-5.36</text></g><g class="guides"><path class="major guide line" d="M219.531943 0.000000 v472.019238" /><text class="major" transform="rotate(60 219.531943 487.019238)" x="219.53194263363756" y="487.01923788646684">-4.96</text></g><g class="guides"><path class="major guide line" d="M240.262060 0.000000 v472.019238" /><text class="major" transform="rotate(60 240.262060 487.019238)" x="240.2620599739244" y="487.01923788646684">-4.56</text></g><g class="guides"><path class="major guide line" d="M260.992177 0.000000 v472.019238" /><text class="major" transform="rotate(60 260.992177 487.019238)" x="260.99217731421123" y="487.01923788646684">-4.16</text></g><g class="guides"><path class="major guide line" d="M281.722295 0.000000 v472.019238" /><text class="major" transform="rotate(60 281.722295 487.019238)" x="281.722294654498" y="487.01923788646684">-3.76</text></g><g class="guides"><path class="major guide line" d="M302.452412 0.000000 v472.019238" /><text class="major" transform="rotate(60 302.452412 487.019238)" x="302.4524119947849" y="487.01923788646684">-3.36</text></g><g class="guides"><path class="major guide line" d="M323.182529 0.000000 v472.019238" /><text class="major" transform="rotate(60 323.182529 487.019238)" x="323.1825293350717" y="487.01923788646684">-2.96</text></g><g class="guides"><path class="major guide line" d="M343.912647 0.000000 v472.019238" /><text class="major" transform="rotate(60 343.912647 487.019238)" x="343.91264667535853" y="487.01923788646684">-2.56</text></g><g class="guides"><path class="major guide line" d="M364.642764 0.000000 v472.019238" /><text class="major" transform="rotate(60 364.642764 487.019238)" x="364.64276401564535" y="487.01923788646684">-2.16</text></g><g class="guides"><path class="major guide line" d="M385.372881 0.000000 v472.019238" /><text class="major" transform="rotate(60 385.372881 487.019238)" x="385.37288135593224" y="487.01923788646684">-1.76</text></g><g class="guides"><path class="major guide line" d="M406.102999 0.000000 v472.019238" /><text class="major" transform="rotate(60 406.102999 487.019238)" x="406.102998696219" y="487.01923788646684">-1.36</text></g><g class="guides"><path class="major guide line" d="M426.833116 0.000000 v472.019238" /><text class="major" transform="rotate(60 426.833116 487.019238)" x="426.8331160365058" y="487.01923788646684">-0.96</text></g><g class="guides"><path class="major guide line" d="M447.563233 0.000000 v472.019238" /><text class="major" transform="rotate(60 447.563233 487.019238)" x="447.56323337679265" y="487.01923788646684">-0.56</text></g><g class="guides"><path class="major guide line" d="M468.293351 0.000000 v472.019238" /><text class="major" transform="rotate(60 468.293351 487.019238)" x="468.29335071707953" y="487.01923788646684">-0.16</text></g><g class="guides"><path class="major guide line" d="M489.023468 0.000000 v472.019238" /><text class="major" transform="rotate(60 489.023468 487.019238)" x="489.02346805736636" y="487.01923788646684">0.24</text></g><g class="guides"><path class="major guide line" d="M509.753585 0.000000 v472.019238" /><text class="major" transform="rotate(60 509.753585 487.019238)" x="509.75358539765324" y="487.01923788646684">0.64</text></g><g class="guides"><path class="major guide line" d="M530.483703 0.000000 v472.019238" /><text class="major" transform="rotate(60 530.483703 487.019238)" x="530.48370273794" y="487.01923788646684">1.04</text></g><g class="guides"><path class="major guide line" d="M551.213820 0.000000 v472.019238" /><text class="major" transform="rotate(60 551.213820 487.019238)" x="551.213820078227" y="487.01923788646684">1.43</text></g><g class="guides"><path class="major guide line" d="M571.943937 0.000000 v472.019238" /><text class="major" transform="rotate(60 571.943937 487.019238)" x="571.9439374185138" y="487.01923788646684">1.83</text></g><g class="guides"><path class="major guide line" d="M592.674055 0.000000 v472.019238" /><text class="major" transform="rotate(60 592.674055 487.019238)" x="592.6740547588006" y="487.01923788646684">2.23</text></g><g class="guides"><path class="major guide line" d="M613.404172 0.000000 v472.019238" /><text class="major" transform="rotate(60 613.404172 487.019238)" x="613.4041720990874" y="487.01923788646684">2.63</text></g></g><g class="series serie-0 color-0"><path class="line reactive" d="M12.230769 462.941945 L12.230769 462.019456 22.595828 462.941945 32.960887 461.096967 43.325945 462.019456 53.691004 459.251988 64.056063 462.019456 74.421121 458.329499 84.786180 462.019456 95.151239 458.329499 105.516297 462.019456 115.881356 448.182119 126.246415 460.174477 136.611473 457.407010 146.976532 457.407010 157.341591 451.872075 167.706649 448.182119 178.071708 454.639543 188.436767 445.414651 198.801825 442.647184 209.166884 436.189760 219.531943 437.112249 229.897001 392.832771 240.262060 396.522728 250.627119 376.227967 260.992177 355.933206 271.357236 351.320760 281.722295 325.491065 292.087353 277.521630 302.452412 283.056565 312.817471 202.800010 323.182529 188.040184 333.547588 169.590402 343.912647 123.465945 354.277705 95.791271 364.642764 67.194108 375.007823 82.876423 385.372881 60.736684 395.737940 80.108956 406.102999 29.372054 416.468057 9.077293 426.833116 70.884065 437.198175 69.039086 447.563233 41.364413 457.928292 40.441923 468.293351 91.178826 478.658409 140.993239 489.023468 214.792369 499.388527 259.071847 509.753585 321.801108 520.118644 364.235608 530.483703 408.515086 540.848761 430.654825 551.213820 448.182119 561.578879 455.562032 571.943937 458.329499 582.308996 458.329499 592.674055 462.019456 603.039113 462.941945 613.404172 462.019456 623.769231 462.941945" /></g><g class="series serie-1 color-1"><path class="line reactive nofill" d="M12.230769 462.936967 L22.595828 462.932338 32.960887 462.923804 43.325945 462.908432 53.691004 462.881369 64.056063 462.834814 74.421121 462.756560 84.786180 462.628036 95.151239 462.421794 105.516297 462.098437 115.881356 461.603091 126.246415 460.861655 136.611473 459.777186 146.976532 458.226947 157.341591 456.060718 167.706649 453.101020 178.071708 449.145803 188.436767 443.974003 198.801825 437.354131 209.166884 429.055794 219.531943 418.863893 229.897001 406.595096 240.262060 392.116079 250.627119 375.362762 260.992177 356.359205 271.357236 335.233815 281.722295 312.229185 292.087353 287.700813 302.452412 262.099772 312.817471 235.936407 323.182529 209.726767 333.547588 183.930881 343.912647 158.900334 354.277705 134.858809 364.642764 111.938724 375.007823 90.285858 385.372881 70.220878 395.737940 52.416471 406.102999 38.022461 416.468057 28.663526 426.833116 26.256999 437.198175 32.652410 447.563233 49.164801 457.928292 76.132077 468.293351 112.643298 478.658409 156.545090 489.023468 204.747472 499.388527 253.751534 509.753585 300.250385 520.118644 341.639784 530.483703 376.318390 540.848761 403.736379 551.213820 424.230592 561.578879 438.735201 571.943937 448.467440 582.308996 454.665260 592.674055 458.415289 603.039113 460.573205 613.404172 461.755364 623.769231 462.372547" /></g><g class="series serie-2 color-2"><path class="line reactive nofill" d="M12.230769 462.941945 L22.595828 462.941945 32.960887 462.941945 43.325945 462.941945 53.691004 462.941945 64.056063 462.941945 74.421121 462.941945 84.786180 462.941945 95.151239 462.941945 105.516297 462.941944 115.881356 462.941943 126.246415 462.941940 136.611473 462.941930 146.976532 462.941899 157.341591 462.941814 167.706649 462.941579 178.071708 462.940967 188.436767 462.939427 198.801825 462.935709 209.166884 462.927083 219.531943 462.907854 229.897001 462.866673 240.262060 462.781920 250.627119 462.614276 260.992177 462.295490 271.357236 461.712573 281.722295 460.687324 292.087353 458.952370 302.452412 456.127023 312.817471 451.698944 323.182529 445.020760 333.547588 435.333503 343.912647 421.829901 354.277705 403.768223 364.642764 380.639522 375.007823 352.376152 385.372881 319.568260 395.737940 283.632399 406.102999 246.862148 416.468057 212.296302 426.833116 183.374290 437.198175 163.408711 447.563233 154.974598 457.928292 159.366507 468.293351 176.280485 478.658409 203.826771 489.023468 238.883820 499.388527 277.699914 509.753585 316.576663 520.118644 352.456412 530.483703 383.283974 540.848761 408.097296 551.213820 426.885658 561.578879 440.307745 571.943937 449.373892 582.308996 455.174028 592.674055 458.693506 603.039113 460.721535 613.404172 461.832522 623.769231 462.411739" /></g><g class="series serie-3 color-3"><path class="line reactive nofill" d="M12.230769 462.936967 L22.595828 462.932338 32.960887 462.923804 43.325945 462.908432 53.691004 462.881369 64.056063 462.834814 74.421121 462.756560 84.786180 462.628036 95.151239 462.421795 105.516297 462.098437 115.881356 461.603093 126.246415 460.861659 136.611473 459.777201 146.976532 458.226992 157.341591 456.060850 167.706649 453.101386 178.071708 449.146780 188.436767 443.976520 198.801825 437.360367 209.166884 429.070656 219.531943 418.897984 229.897001 406.670368 240.262060 392.276104 250.627119 375.690430 260.992177 357.005661 271.357236 336.463186 281.722295 314.483806 292.087353 291.690387 302.452412 268.914694 312.817471 247.179407 323.182529 227.647952 333.547588 211.539323 343.912647 200.012378 354.277705 194.032531 364.642764 194.241147 375.007823 200.851651 385.372881 213.594563 395.737940 231.726017 406.102999 254.102258 416.468057 279.309168 426.833116 305.824653 437.198175 332.185644 447.563233 357.132148 457.928292 379.707514 468.293351 399.304758 478.658409 415.660264 489.023468 428.805597 499.388527 438.993565 509.753585 446.615667 520.118644 452.125316 530.483703 455.976361 540.848761 458.581027 551.213820 460.286879 561.578879 461.369402 571.943937 462.035494 582.308996 462.433176 592.674055 462.663727 603.039113 462.793615 613.404172 462.864787 623.769231 462.902753" /></g><g class="series serie-4 color-4"><path class="line reactive nofill" d="M12.230769 462.941945 L22.595828 462.941945 32.960887 462.941945 43.325945 462.941945 53.691004 462.941945 64.056063 462.941945 74.421121 462.941945 84.786180 462.941945 95.151239 462.941945 105.516297 462.941944 115.881356 462.941943 126.246415 462.941940 136.611473 462.941930 146.976532 462.941899 157.341591 462.941814 167.706649 462.941580 178.071708 462.940969 188.436767 462.939434 198.801825 462.935734 209.166884 462.927168 219.531943 462.908131 229.897001 462.867530 240.262060 462.784441 250.627119 462.621330 260.992177 462.314269 271.357236 461.760131 281.722295 460.801897 292.087353 459.214947 302.452412 456.699484 312.817471 452.886213 323.182529 447.363195 333.547588 439.729942 343.912647 429.679532 354.277705 417.100745 364.642764 402.181730 375.007823 385.487967 385.372881 367.984450 395.737940 350.978598 406.102999 335.977069 416.468057 324.472991 426.833116 317.703252 437.198175 316.429893 447.563233 320.798948 457.928292 330.312887 468.293351 343.923848 478.658409 360.223505 489.023468 377.682023 499.388527 394.880284 509.753585 410.687738 520.118644 424.358494 530.483703 435.542486 540.848761 444.228920 551.213820 450.650382 561.578879 455.177126 571.943937 458.224394 582.308996 460.185413 592.674055 461.392877 603.039113 462.104726 613.404172 462.506765 623.769231 462.724395" /></g><g class="series serie-5 color-5"><path class="line reactive nofill" d="M12.230769 462.941945 L22.595828 462.941945 32.960887 462.941945 43.325945 462.941945 53.691004 462.941945 64.056063 462.941945 74.421121 462.941945 84.786180 462.941945 95.151239 462.941945 105.516297 462.941945 115.881356 462.941945 126.246415 462.941945 136.611473 462.941945 146.976532 462.941945 157.341591 462.941945 167.706649 462.941944 178.071708 462.941943 188.436767 462.941938 198.801825 462.941920 209.166884 462.941860 219.531943 462.941668 229.897001 462.941088 240.262060 462.939424 250.627119 462.934891 260.992177 462.923166 271.357236 462.894387 281.722295 462.827372 292.087353 462.679368 302.452412 462.369484 312.817471 461.754676 323.182529 460.599509 333.547588 458.545506 343.912647 455.092314 354.277705 449.609423 364.642764 441.399737 375.007823 429.830130 385.372881 414.525755 395.737940 395.595745 406.102999 373.827024 416.468057 350.765256 426.833116 328.612983 437.198175 309.920762 447.563233 297.117595 457.928292 291.995565 468.293351 295.298581 478.658409 306.545212 489.023468 324.143742 499.388527 345.761575 509.753585 368.830869 520.118644 391.039863 530.483703 410.683432 540.848761 426.810321 551.213820 439.177221 561.578879 448.072563 571.943937 454.091443 582.308996 457.930560 592.674055 460.242575 603.039113 461.558754 613.404172 462.267702 623.769231 462.629290" /></g><g class="series serie-6 color-6"><path class="line reactive nofill" d="M12.230769 462.936967 L22.595828 462.932339 32.960887 462.923809 43.325945 462.908445 53.691004 462.881405 64.056063 462.834909 74.421121 462.756801 84.786180 462.628630 95.151239 462.423212 105.516297 462.101714 115.881356 461.610434 126.246415 460.877601 136.611473 459.810744 146.976532 458.295389 157.341591 456.195999 167.706649 453.360170 178.071708 449.626965 188.436767 444.839947 198.801825 438.864860 209.166884 431.611054 219.531943 423.054795 229.897001 413.261589 240.262060 402.403980 250.627119 390.771004 260.992177 378.765932 271.357236 366.890089 281.722295 355.712367 292.087353 345.826313 302.452412 337.798945 312.817471 332.117263 323.182529 329.139440 333.547588 329.057468 343.912647 331.876671 354.277705 337.415137 364.642764 345.323142 375.007823 355.119679 385.372881 366.240807 395.737940 378.093059 406.102999 390.104931 416.468057 401.770386 426.833116 412.680103 437.198175 422.538474 447.563233 431.166592 457.928292 438.493372 468.293351 444.538121 478.658409 449.388363 489.023468 453.176512 499.388527 456.058270 509.753585 458.194711 520.118644 459.738979 530.483703 460.827699 540.848761 461.576576 551.213820 462.079292 561.578879 462.408716 571.943937 462.619480 582.308996 462.751161 592.674055 462.831513 603.039113 462.879408 613.404172 462.907297 623.769231 462.923165" /></g><g class="series serie-7 color-7"><path class="line reactive nofill" d="M12.230769 462.941944 L22.595828 462.941943 32.960887 462.941940 43.325945 462.941931 53.691004 462.941909 64.056063 462.941850 74.421121 462.941704 84.786180 462.941351 95.151239 462.940528 105.516297 462.938668 115.881356 462.934603 126.246415 462.926004 136.611473 462.908401 146.976532 462.873548 157.341591 462.806796 167.706649 462.683161 178.071708 462.461761 188.436767 462.078518 198.801825 461.437452 209.166884 460.401547 219.531943 458.785133 229.897001 456.350724 240.262060 452.814069 250.627119 447.861371 260.992177 441.181673 271.357236 432.515041 281.722295 421.713384 292.087353 408.806019 302.452412 394.057694 312.817471 378.004089 323.182529 361.450457 333.547588 345.423800 343.912647 331.077652 354.277705 319.559338 364.642764 311.859950 375.007823 308.673917 385.372881 310.295701 395.737940 316.574903 406.102999 326.939272 416.468057 340.480728 426.833116 356.086495 437.198175 372.589115 447.563233 388.907500 457.928292 404.156087 468.293351 417.708582 478.658409 429.213845 489.023468 438.571029 499.388527 445.877240 509.753585 451.362900 520.118644 455.328282 530.483703 458.090607 540.848761 459.946396 551.213820 461.149531 561.578879 461.902630 571.943937 462.357958 582.308996 462.623961 592.674055 462.774159 603.039113 462.856152 613.404172 462.899434 623.769231 462.921533" /></g></g><g class="titles"><text class="title plot_title" x="400.0" y="26">Iteration #1</text><text class="title" x="462.0" y="580.0">Observation</text><text class="title" transform="rotate(-90 64.000000 282.009619)" x="64.0" y="308.0096189432334">Density</text></g><g class="plot overlay" transform="translate(144, 46)"><g class="series serie-0 color-0" /><g class="series serie-1 color-1" /><g class="series serie-2 color-2" /><g class="series serie-3 color-3" /><g class="series serie-4 color-4" /><g class="series serie-5 color-5" /><g class="series serie-6 color-6" /><g class="series serie-7 color-7" /></g><g class="plot text-overlay" transform="translate(144, 46)"><g class="series serie-0 color-0" /><g class="series serie-1 color-1" /><g class="series serie-2 color-2" /><g class="series serie-3 color-3" /><g class="series serie-4 color-4" /><g class="series serie-5 color-5" /><g class="series serie-6 color-6" /><g class="series serie-7 color-7" /></g><g class="plot tooltip-overlay" transform="translate(144, 46)"><g class="tooltip" style="opacity: 0" transform="translate(0 0)"><rect class="tooltip-box" height="0" rx="0" ry="0" width="0" /><g class="text" /></g></g><g class="legends" transform="translate(10, 56)"><g class="legend reactive activate-serie" id="activate-serie-0"><rect class="color-0 reactive" height="12" width="12" x="0.0" y="0.0" /><text x="17.0" y="9.0">Data</text></g><g class="legend reactive activate-serie" id="activate-serie-1"><rect class="color-1 reactive" height="12" width="12" x="0.0" y="18.0" /><text x="17.0" y="27.0">GMM</text></g><g class="legend reactive activate-serie" id="activate-serie-2"><rect class="color-2 reactive" height="12" width="12" x="0.0" y="36.0" /><text x="17.0" y="45.0">i=0</text></g><g class="legend reactive activate-serie" id="activate-serie-3"><rect class="color-3 reactive" height="12" width="12" x="0.0" y="54.0" /><text x="17.0" y="63.0">i=1</text></g><g class="legend reactive activate-serie" id="activate-serie-4"><rect class="color-4 reactive" height="12" width="12" x="0.0" y="72.0" /><text x="17.0" y="81.0">i=0 k=0</text></g><g class="legend reactive activate-serie" id="activate-serie-5"><rect class="color-5 reactive" height="12" width="12" x="0.0" y="90.0" /><text x="17.0" y="99.0">i=0 k=1</text></g><g class="legend reactive activate-serie" id="activate-serie-6"><rect class="color-6 reactive" height="12" width="12" x="0.0" y="108.0" /><text x="17.0" y="117.0">i=1 k=0</text></g><g class="legend reactive activate-serie" id="activate-serie-7"><rect class="color-7 reactive" height="12" width="12" x="0.0" y="126.0" /><text x="17.0" y="135.0">i=1 k=1</text></g></g><g class="legends" transform="translate(790, 56)" /></g></svg>