<?xml version='1.0' encoding='utf-8'?>
<svg xmlns:xlink="http://www.w3.org/1999/xlink" class="pygal-chart" id="chart-8faba1eb-8030-450e-913a-5c41ac48ec66" viewBox="0 0 800 600" xmlns="http://www.w3.org/2000/svg"><!--Generated with pygal 2.4.0 (etree) ©Kozea 2012-2016 on 2017-12-19--><!--http://pygal.org--><!--http://github.com/Kozea/pygal--><defs><style type="text/css">#chart-8faba1eb-8030-450e-913a-5c41ac48ec66{-webkit-user-select:none;-webkit-font-smoothing:antialiased;font-family:Consolas,"Liberation Mono",Menlo,Courier,monospace}#chart-8faba1eb-8030-450e-913a-5c41ac48ec66 .title{font-family:Consolas,"Liberation Mono",Menlo,Courier,monospace;font-size:16px}#chart-8faba1eb-8030-450e-913a-5c41ac48ec66 .legends .legend text{font-family:Consolas,"Liberation Mono",Menlo,Courier,monospace;font-size:10px}#chart-8faba1eb-8030-450e-913a-5c41ac48ec66 .axis text{font-family:Consolas,"Liberation Mono",Menlo,Courier,monospace;font-size:10px}#chart-8faba1eb-8030-450e-913a-5c41ac48ec66 .axis text.major{font-family:Consolas,"Liberation Mono",Menlo,Courier,monospace;font-size:10px}#chart-8faba1eb-8030-450e-913a-5c41ac48ec66 .text-overlay text.value{font-family:Consolas,"Liberation Mono",Menlo,Courier,monospace;font-size:16px}#chart-8faba1eb-8030-450e-913a-5c41ac48ec66 .text-overlay text.label{font-family:Consolas,"Liberation Mono",Menlo,Courier,monospace;font-size:10px}#chart-8faba1eb-8030-450e-913a-5c41ac48ec66 .tooltip{font-family:Consolas,"Liberation Mono",Menlo,Courier,monospace;font-size:14px}#chart-8faba1eb-8030-450e-913a-5c41ac48ec66 text.no_data{font-family:Consolas,"Liberation Mono",Menlo,Courier,monospace;font-size:64px}
#chart-8faba1eb-8030-450e-913a-5c41ac48ec66{background-color:rgba(249,249,249,1)}#chart-8faba1eb-8030-450e-913a-5c41ac48ec66 path,#chart-8faba1eb-8030-450e-913a-5c41ac48ec66 line,#chart-8faba1eb-8030-450e-913a-5c41ac48ec66 rect,#chart-8faba1eb-8030-450e-913a-5c41ac48ec66 circle{-webkit-transition:150ms;-moz-transition:150ms;transition:150ms}#chart-8faba1eb-8030-450e-913a-5c41ac48ec66 .graph &gt; .background{fill:rgba(249,249,249,1)}#chart-8faba1eb-8030-450e-913a-5c41ac48ec66 .plot &gt; .background{fill:rgba(255,255,255,1)}#chart-8faba1eb-8030-450e-913a-5c41ac48ec66 .graph{fill:rgba(0,0,0,.87)}#chart-8faba1eb-8030-450e-913a-5c41ac48ec66 text.no_data{fill:rgba(0,0,0,1)}#chart-8faba1eb-8030-450e-913a-5c41ac48ec66 .title{fill:rgba(0,0,0,1)}#chart-8faba1eb-8030-450e-913a-5c41ac48ec66 .legends .legend text{fill:rgba(0,0,0,.87)}#chart-8faba1eb-8030-450e-913a-5c41ac48ec66 .legends .legend:hover text{fill:rgba(0,0,0,1)}#chart-8faba1eb-8030-450e-913a-5c41ac48ec66 .axis .line{stroke:rgba(0,0,0,1)}#chart-8faba1eb-8030-450e-913a-5c41ac48ec66 .axis .guide.line{stroke:rgba(0,0,0,.54)}#chart-8faba1eb-8030-450e-913a-5c41ac48ec66 .axis .major.line{stroke:rgba(0,0,0,.87)}#chart-8faba1eb-8030-450e-913a-5c41ac48ec66 .axis text.major{fill:rgba(0,0,0,1)}#chart-8faba1eb-8030-450e-913a-5c41ac48ec66 .axis.y .guides:hover .guide.line,#chart-8faba1eb-8030-450e-913a-5c41ac48ec66 .line-graph .axis.x .guides:hover .guide.line,#chart-8faba1eb-8030-450e-913a-5c41ac48ec66 .stackedline-graph .axis.x .guides:hover .guide.line,#chart-8faba1eb-8030-450e-913a-5c41ac48ec66 .xy-graph .axis.x .guides:hover .guide.line{stroke:rgba(0,0,0,1)}#chart-8faba1eb-8030-450e-913a-5c41ac48ec66 .axis .guides:hover text{fill:rgba(0,0,0,1)}#chart-8faba1eb-8030-450e-913a-5c41ac48ec66 .reactive{fill-opacity:.7;stroke-opacity:.8}#chart-8faba1eb-8030-450e-913a-5c41ac48ec66 .ci{stroke:rgba(0,0,0,.87)}#chart-8faba1eb-8030-450e-913a-5c41ac48ec66 .reactive.active,#chart-8faba1eb-8030-450e-913a-5c41ac48ec66 .active .reactive{fill-opacity:.8;stroke-opacity:.9;stroke-width:4}#chart-8faba1eb-8030-450e-913a-5c41ac48ec66 .ci .reactive.active{stroke-width:1.5}#chart-8faba1eb-8030-450e-913a-5c41ac48ec66 .series text{fill:rgba(0,0,0,1)}#chart-8faba1eb-8030-450e-913a-5c41ac48ec66 .tooltip rect{fill:rgba(255,255,255,1);stroke:rgba(0,0,0,1);-webkit-transition:opacity 150ms;-moz-transition:opacity 150ms;transition:opacity 150ms}#chart-8faba1eb-8030-450e-913a-5c41ac48ec66 .tooltip .label{fill:rgba(0,0,0,.87)}#chart-8faba1eb-8030-450e-913a-5c41ac48ec66 .tooltip .label{fill:rgba(0,0,0,.87)}#chart-8faba1eb-8030-450e-913a-5c41ac48ec66 .tooltip .legend{font-size:.8em;fill:rgba(0,0,0,.54)}#chart-8faba1eb-8030-450e-913a-5c41ac48ec66 .tooltip .x_label{font-size:.6em;fill:rgba(0,0,0,1)}#chart-8faba1eb-8030-450e-913a-5c41ac48ec66 .tooltip .xlink{font-size:.5em;text-decoration:underline}#chart-8faba1eb-8030-450e-913a-5c41ac48ec66 .tooltip .value{font-size:1.5em}#chart-8faba1eb-8030-450e-913a-5c41ac48ec66 .bound{font-size:.5em}#chart-8faba1eb-8030-450e-913a-5c41ac48ec66 .max-value{font-size:.75em;fill:rgba(0,0,0,.54)}#chart-8faba1eb-8030-450e-913a-5c41ac48ec66 .map-element{fill:rgba(255,255,255,1);stroke:rgba(0,0,0,.54) !important}#chart-8faba1eb-8030-450e-913a-5c41ac48ec66 .map-element .reactive{fill-opacity:inherit;stroke-opacity:inherit}#chart-8faba1eb-8030-450e-913a-5c41ac48ec66 .color-0,#chart-8faba1eb-8030-450e-913a-5c41ac48ec66 .color-0 a:visited{stroke:#909090;fill:#909090}#chart-8faba1eb-8030-450e-913a-5c41ac48ec66 .color-1,#chart-8faba1eb-8030-450e-913a-5c41ac48ec66 .color-1 a:visited{stroke:#000000;fill:#000000}#chart-8faba1eb-8030-450e-913a-5c41ac48ec66 .color-2,#chart-8faba1eb-8030-450e-913a-5c41ac48ec66 .color-2 a:visited{stroke:#ff0500;fill:#ff0500}#chart-8faba1eb-8030-450e-913a-5c41ac48ec66 .color-3,#chart-8faba1eb-8030-450e-913a-5c41ac48ec66 .color-3 a:visited{stroke:#323299;fill:#323299}#chart-8faba1eb-8030-450e-913a-5c41ac48ec66 .color-4,#chart-8faba1eb-8030-450e-913a-5c41ac48ec66 .color-4 a:visited{stroke:#a3413f;fill:#a3413f}#chart-8faba1eb-8030-450e-913a-5c41ac48ec66 .color-5,#chart-8faba1eb-8030-450e-913a-5c41ac48ec66 .color-5 a:visited{stroke:#a3413f;fill:#a3413f}#chart-8faba1eb-8030-450e-913a-5c41ac48ec66 .color-6,#chart-8faba1eb-8030-450e-913a-5c41ac48ec66 .color-6 a:visited{stroke:#a3413f;fill:#a3413f}#chart-8faba1eb-8030-450e-913a-5c41ac48ec66 .color-7,#chart-8faba1eb-8030-450e-913a-5c41ac48ec66 .color-7 a:visited{stroke:#a3413f;fill:#a3413f}#chart-8faba1eb-8030-450e-913a-5c41ac48ec66 .color-8,#chart-8faba1eb-8030-450e-913a-5c41ac48ec66 .color-8 a:visited{stroke:#a3413f;fill:#a3413f}#chart-8faba1eb-8030-450e-913a-5c41ac48ec66 .color-9,#chart-8faba1eb-8030-450e-913a-5c41ac48ec66 .color-9 a:visited{stroke:#657fff;fill:#657fff}#chart-8faba1eb-8030-450e-913a-5c41ac48ec66 .color-10,#chart-8faba1eb-8030-450e-913a-5c41ac48ec66 .color-10 a:visited{stroke:#657fff;fill:#657fff}#chart-8faba1eb-8030-450e-913a-5c41ac48ec66 .color-11,#chart-8faba1eb-8030-450e-913a-5c41ac48ec66 .color-11 a:visited{stroke:#657fff;fill:#657fff}#chart-8faba1eb-8030-450e-913a-5c41ac48ec66 .color-12,#chart-8faba1eb-8030-450e-913a-5c41ac48ec66 .color-12 a:visited{stroke:#657fff;fill:#657fff}#chart-8faba1eb-8030-450e-913a-5c41ac48ec66 .color-13,#chart-8faba1eb-8030-450e-913a-5c41ac48ec66 .color-13 a:visited{stroke:#657fff;fill:#657fff}#chart-8faba1eb-8030-450e-913a-5c41ac48ec66 .text-overlay .color-0 text{fill:black}#chart-8faba1eb-8030-450e-913a-5c41ac48ec66 .text-overlay .color-1 text{fill:white}#chart-8faba1eb-8030-450e-913a-5c41ac48ec66 .text-overlay .color-2 text{fill:black}#chart-8faba1eb-8030-450e-913a-5c41ac48ec66 .text-overlay .color-3 text{fill:black}#chart-8faba1eb-8030-450e-913a-5c41ac48ec66 .text-overlay .color-4 text{fill:black}#chart-8faba1eb-8030-450e-913a-5c41ac48ec66 .text-overlay .color-5 text{fill:black}#chart-8faba1eb-8030-450e-913a-5c41ac48ec66 .text-overlay .color-6 text{fill:black}#chart-8faba1eb-8030-450e-913a-5c41ac48ec66 .text-overlay .color-7 text{fill:black}#chart-8faba1eb-8030-450e-913a-5c41ac48ec66 .text-overlay .color-8 text{fill:black}#chart-8faba1eb-8030-450e-913a-5c41ac48ec66 .text-overlay .color-9 text{fill:black}#chart-8faba1eb-8030-450e-913a-5c41ac48ec66 .text-overlay .color-10 text{fill:black}#chart-8faba1eb-8030-450e-913a-5c41ac48ec66 .text-overlay .color-11 text{fill:black}#chart-8faba1eb-8030-450e-913a-5c41ac48ec66 .text-overlay .color-12 text{fill:black}#chart-8faba1eb-8030-450e-913a-5c41ac48ec66 .text-overlay .color-13 text{fill:black}#chart-8faba1eb-8030-450e-913a-5c41ac48ec66 .series.serie-1{stroke-width:5}#chart-8faba1eb-8030-450e-913a-5c41ac48ec66 .series.serie-2{stroke-width:3}#chart-8faba1eb-8030-450e-913a-5c41ac48ec66 .series.serie-3{stroke-width:3}#chart-8faba1eb-8030-450e-913a-5c41ac48ec66 .series.serie-4{stroke-width:2;stroke-dasharray:2,2}#chart-8faba1eb-8030-450e-913a-5c41ac48ec66 .series.serie-5{stroke-width:2;stroke-dasharray:2,2}#chart-8faba1eb-8030-450e-913a-5c41ac48ec66 .series.serie-6{stroke-width:2;stroke-dasharray:2,2}#chart-8faba1eb-8030-450e-913a-5c41ac48ec66 .series.serie-7{stroke-width:2;stroke-dasharray:2,2}#chart-8faba1eb-8030-450e-913a-5c41ac48ec66 .series.serie-8{stroke-width:2;stroke-dasharray:2,2}#chart-8faba1eb-8030-450e-913a-5c41ac48ec66 .series.serie-9{stroke-width:2;stroke-dasharray:2,2}#chart-8faba1eb-8030-450e-913a-5c41ac48ec66 .series.serie-10{stroke-width:2;stroke-dasharray:2,2}#chart-8faba1eb-8030-450e-913a-5c41ac48ec66 .series.serie-11{stroke-width:2;stroke-dasharray:2,2}#chart-8faba1eb-8030-450e-913a-5c41ac48ec66 .series.serie-12{stroke-width:2;stroke-dasharray:2,2}#chart-8faba1eb-8030-450e-913a-5c41ac48ec66 .series.serie-13{stroke-width:2;stroke-dasharray:2,2}
#chart-8faba1eb-8030-450e-913a-5c41ac48ec66 text.no_data{text-anchor:middle}#chart-8faba1eb-8030-450e-913a-5c41ac48ec66 .guide.line{fill:none}#chart-8faba1eb-8030-450e-913a-5c41ac48ec66 .centered{text-anchor:middle}#chart-8faba1eb-8030-450e-913a-5c41ac48ec66 .title{text-anchor:middle}#chart-8faba1eb-8030-450e-913a-5c41ac48ec66 .legends .legend text{fill-opacity:1}#chart-8faba1eb-8030-450e-913a-5c41ac48ec66 .axis.x text{text-anchor:middle}#chart-8faba1eb-8030-450e-913a-5c41ac48ec66 .axis.x:not(.web) text[transform]{text-anchor:start}#chart-8faba1eb-8030-450e-913a-5c41ac48ec66 .axis.x:not(.web) text[transform].backwards{text-anchor:end}#chart-8faba1eb-8030-450e-913a-5c41ac48ec66 .axis.y text{text-anchor:end}#chart-8faba1eb-8030-450e-913a-5c41ac48ec66 .axis.y text[transform].backwards{text-anchor:start}#chart-8faba1eb-8030-450e-913a-5c41ac48ec66 .axis.y2 text{text-anchor:start}#chart-8faba1eb-8030-450e-913a-5c41ac48ec66 .axis.y2 text[transform].backwards{text-anchor:end}#chart-8faba1eb-8030-450e-913a-5c41ac48ec66 .axis .guide.line{stroke-dasharray:4,4}#chart-8faba1eb-8030-450e-913a-5c41ac48ec66 .axis .major.guide.line{stroke-dasharray:6,6}#chart-8faba1eb-8030-450e-913a-5c41ac48ec66 .horizontal .axis.y .guide.line,#chart-8faba1eb-8030-450e-913a-5c41ac48ec66 .horizontal .axis.y2 .guide.line,#chart-8faba1eb-8030-450e-913a-5c41ac48ec66 .vertical .axis.x .guide.line{opacity:0}#chart-8faba1eb-8030-450e-913a-5c41ac48ec66 .horizontal .axis.always_show .guide.line,#chart-8faba1eb-8030-450e-913a-5c41ac48ec66 .vertical .axis.always_show .guide.line{opacity:1 !important}#chart-8faba1eb-8030-450e-913a-5c41ac48ec66 .axis.y .guides:hover .guide.line,#chart-8faba1eb-8030-450e-913a-5c41ac48ec66 .axis.y2 .guides:hover .guide.line,#chart-8faba1eb-8030-450e-913a-5c41ac48ec66 .axis.x .guides:hover .guide.line{opacity:1}#chart-8faba1eb-8030-450e-913a-5c41ac48ec66 .axis .guides:hover text{opacity:1}#chart-8faba1eb-8030-450e-913a-5c41ac48ec66 .nofill{fill:none}#chart-8faba1eb-8030-450e-913a-5c41ac48ec66 .subtle-fill{fill-opacity:.2}#chart-8faba1eb-8030-450e-913a-5c41ac48ec66 .dot{stroke-width:1px;fill-opacity:1}#chart-8faba1eb-8030-450e-913a-5c41ac48ec66 .dot.active{stroke-width:5px}#chart-8faba1eb-8030-450e-913a-5c41ac48ec66 .dot.negative{fill:transparent}#chart-8faba1eb-8030-450e-913a-5c41ac48ec66 text,#chart-8faba1eb-8030-450e-913a-5c41ac48ec66 tspan{stroke:none !important}#chart-8faba1eb-8030-450e-913a-5c41ac48ec66 .series text.active{opacity:1}#chart-8faba1eb-8030-450e-913a-5c41ac48ec66 .tooltip rect{fill-opacity:.95;stroke-width:.5}#chart-8faba1eb-8030-450e-913a-5c41ac48ec66 .tooltip text{fill-opacity:1}#chart-8faba1eb-8030-450e-913a-5c41ac48ec66 .showable{visibility:hidden}#chart-8faba1eb-8030-450e-913a-5c41ac48ec66 .showable.shown{visibility:visible}#chart-8faba1eb-8030-450e-913a-5c41ac48ec66 .gauge-background{fill:rgba(229,229,229,1);stroke:none}#chart-8faba1eb-8030-450e-913a-5c41ac48ec66 .bg-lines{stroke:rgba(249,249,249,1);stroke-width:2px}</style><script type="text/javascript">window.pygal = window.pygal || {};window.pygal.config = window.pygal.config || {};window.pygal.config['8faba1eb-8030-450e-913a-5c41ac48ec66'] = {"css": ["file://style.css", "file://graph.css"], "include_x_axis": false, "min_scale": 4, "print_zeroes": true, "show_x_labels": true, "stroke": true, "show_minor_y_labels": true, "inner_radius": 0, "fill": false, "pretty_print": false, "js": ["//kozea.github.io/pygal.js/2.0.x/pygal-tooltips.min.js"], "x_labels": ["-8.96", "-8.76", "-8.56", "-8.36", "-8.16", "-7.96", "-7.76", "-7.56", "-7.36", "-7.16", "-6.96", "-6.76", "-6.56", "-6.36", "-6.16", "-5.96", "-5.76", "-5.56", "-5.36", "-5.16", "-4.96", "-4.76", "-4.56", "-4.36", "-4.16", "-3.96", "-3.76", "-3.56", "-3.36", "-3.16", "-2.96", "-2.76", "-2.56", "-2.36", "-2.16", "-1.96", "-1.76", "-1.56", "-1.36", "-1.16", "-0.96", "-0.76", "-0.56", "-0.36", "-0.16", "0.04", "0.24", "0.44", "0.64", "0.84", "1.04", "1.24", "1.43", "1.63", "1.83", "2.03", "2.23", "2.43", "2.63", "2.83"], "logarithmic": false, "show_minor_x_labels": false, "formatter": null, "tooltip_fancy_mode": true, "defs": [], "stroke_style": null, "spacing": 10, "show_only_major_dots": false, "half_pie": false, "show_legend": true, "dynamic_print_values": false, "max_scale": 16, "explicit_size": false, "y_label_rotation": 0, "y_labels": null, "x_labels_major": null, "margin_top": null, "interpolation_precision": 250, "xrange": null, "order_min": null, "y_title": "Density", "title": "Iteration #6", "x_label_rotation": 60, "interpolation_parameters": {}, "stack_from_top": false, "truncate_legend": null, "x_title": "Observation", "show_y_guides": true, "no_prefix": false, "print_values_position": "center", "show_y_labels": true, "classes": ["pygal-chart"], "force_uri_protocol": "https", "x_labels_major_count": null, "allow_interruptions": false, "width": 800, "height": 600, "secondary_range": null, "box_mode": "extremes", "margin_left": null, "y_labels_major": null, "margin_right": null, "zero": 0, "dots_size": 2.5, "no_data_text": "No data", "show_dots": false, "range": [0, 0.27578580090479526], "truncate_label": null, "margin_bottom": null, "y_labels_major_every": null, "show_x_guides": false, "disable_xml_declaration": false, "print_values": false, "x_labels_major_every": 2, "print_labels": false, "y_labels_major_count": null, "interpolate": null, "legend_at_bottom": false, "style": {"value_font_size": 16, "tooltip_font_family": "Consolas, \"Liberation Mono\", Menlo, Courier, monospace", "major_label_font_family": "Consolas, \"Liberation Mono\", Menlo, Courier, monospace", "value_colors": [], "value_background": "rgba(229, 229, 229, 1)", "foreground_strong": "rgba(0, 0, 0, 1)", "opacity": ".7", "font_family": "Consolas, \"Liberation Mono\", Menlo, Courier, monospace", "label_font_size": 10, "transition": "150ms", "title_font_family": "Consolas, \"Liberation Mono\", Menlo, Courier, monospace", "background": "rgba(249, 249, 249, 1)", "stroke_opacity": ".8", "no_data_font_size": 64, "value_label_font_family": "Consolas, \"Liberation Mono\", Menlo, Courier, monospace", "value_label_font_size": 10, "value_font_family": "Consolas, \"Liberation Mono\", Menlo, Courier, monospace", "plot_background": "rgba(255, 255, 255, 1)", "colors": ["#909090", "#000000", "#ff0500", "#323299", "#a3413f", "#a3413f", "#a3413f", "#a3413f", "#a3413f", "#657fff", "#657fff", "#657fff", "#657fff", "#657fff"], "legend_font_size": 10, "guide_stroke_dasharray": "4,4", "major_label_font_size": 10, "stroke_opacity_hover": ".9", "major_guide_stroke_dasharray": "6,6", "opacity_hover": ".8", "no_data_font_family": "Consolas, \"Liberation Mono\", Menlo, Courier, monospace", "title_font_size": 16, "ci_colors": [], "foreground": "rgba(0, 0, 0, .87)", "foreground_subtle": "rgba(0, 0, 0, .54)", "legend_font_family": "Consolas, \"Liberation Mono\", Menlo, Courier, monospace", "label_font_family": "Consolas, \"Liberation Mono\", Menlo, Courier, monospace", "tooltip_font_size": 14}, "strict": false, "legend_box_size": 12, "tooltip_border_radius": 0, "margin": 20, "legends": ["Data", "GMM", "i=0", "i=1", "i=0 k=0", "i=0 k=1", "i=0 k=2", "i=0 k=3", "i=0 k=4", "i=1 k=0", "i=1 k=1", "i=1 k=2", "i=1 k=3", "i=1 k=4"], "inverse_y_axis": false, "legend_at_bottom_columns": null, "rounded_bars": null, "missing_value_fill_truncation": "x"}</script><script type="text/javascript" xlink:href="https://kozea.github.io/pygal.js/2.0.x/pygal-tooltips.min.js" /></defs><title>Iteration #6</title><g class="graph line-graph vertical"><rect class="background" height="600" width="800" x="0" y="0" /><g class="plot" transform="translate(144, 46)"><rect class="background" height="472.01923788646684" width="636.0" x="0" y="0" /><g class="axis y always_show"><g class="guides"><path class="axis major line" d="M0.000000 462.941945 h636.000000" /><text class="major" x="-5" y="466.44194485">0</text><title>0</title></g><g class="guides"><path class="guide line" d="M0.000000 430.027658 h636.000000" /><text class="" x="-5" y="433.527657724">0.02</text><title>0.02</title></g><g class="guides"><path class="guide line" d="M0.000000 397.113371 h636.000000" /><text class="" x="-5" y="400.613370598">0.04</text><title>0.04</title></g><g class="guides"><path class="guide line" d="M0.000000 364.199083 h636.000000" /><text class="" x="-5" y="367.699083472">0.06</text><title>0.06</title></g><g class="guides"><path class="guide line" d="M0.000000 331.284796 h636.000000" /><text class="" x="-5" y="334.784796346">0.08</text><title>0.08</title></g><g class="guides"><path class="guide line" d="M0.000000 298.370509 h636.000000" /><text class="" x="-5" y="301.87050922">0.1</text><title>0.1</title></g><g class="guides"><path class="guide line" d="M0.000000 265.456222 h636.000000" /><text class="" x="-5" y="268.956222094">0.12</text><title>0.12</title></g><g class="guides"><path class="guide line" d="M0.000000 232.541935 h636.000000" /><text class="" x="-5" y="236.041934968">0.14</text><title>0.14</title></g><g class="guides"><path class="guide line" d="M0.000000 199.627648 h636.000000" /><text class="" x="-5" y="203.127647841">0.16</text><title>0.16</title></g><g class="guides"><path class="guide line" d="M0.000000 166.713361 h636.000000" /><text class="" x="-5" y="170.213360715">0.18</text><title>0.18</title></g><g class="guides"><path class="guide line" d="M0.000000 133.799074 h636.000000" /><text class="" x="-5" y="137.299073589">0.2</text><title>0.2</title></g><g class="guides"><path class="guide line" d="M0.000000 100.884786 h636.000000" /><text class="" x="-5" y="104.384786463">0.22</text><title>0.22</title></g><g class="guides"><path class="guide line" d="M0.000000 67.970499 h636.000000" /><text class="" x="-5" y="71.4704993371">0.24</text><title>0.24</title></g><g class="guides"><path class="guide line" d="M0.000000 35.056212 h636.000000" /><text class="" x="-5" y="38.5562122111">0.26</text><title>0.26</title></g></g><g class="axis x"><g class="guides"><path class="major line" d="M12.230769 0.000000 v472.019238" /><text class="major" transform="rotate(60 12.230769 487.019238)" x="12.230769230769232" y="487.01923788646684">-8.96</text></g><g class="guides"><path class="major guide line" d="M32.960887 0.000000 v472.019238" /><text class="major" transform="rotate(60 32.960887 487.019238)" x="32.96088657105606" y="487.01923788646684">-8.56</text></g><g class="guides"><path class="major guide line" d="M53.691004 0.000000 v472.019238" /><text class="major" transform="rotate(60 53.691004 487.019238)" x="53.6910039113429" y="487.01923788646684">-8.16</text></g><g class="guides"><path class="major guide line" d="M74.421121 0.000000 v472.019238" /><text class="major" transform="rotate(60 74.421121 487.019238)" x="74.42112125162973" y="487.01923788646684">-7.76</text></g><g class="guides"><path class="major guide line" d="M95.151239 0.000000 v472.019238" /><text class="major" transform="rotate(60 95.151239 487.019238)" x="95.15123859191655" y="487.01923788646684">-7.36</text></g><g class="guides"><path class="major guide line" d="M115.881356 0.000000 v472.019238" /><text class="major" transform="rotate(60 115.881356 487.019238)" x="115.88135593220338" y="487.01923788646684">-6.96</text></g><g class="guides"><path class="major guide line" d="M136.611473 0.000000 v472.019238" /><text class="major" transform="rotate(60 136.611473 487.019238)" x="136.61147327249023" y="487.01923788646684">-6.56</text></g><g class="guides"><path class="major guide line" d="M157.341591 0.000000 v472.019238" /><text class="major" transform="rotate(60 157.341591 487.019238)" x="157.34159061277705" y="487.01923788646684">-6.16</text></g><g class="guides"><path class="major guide line" d="M178.071708 0.000000 v472.019238" /><text class="major" transform="rotate(60 178.071708 487.019238)" x="178.0717079530639" y="487.01923788646684">-5.76</text></g><g class="guides"><path class="major guide line" d="M198.801825 0.000000 v472.019238" /><text class="major" transform="rotate(60 198.801825 487.019238)" x="198.80182529335073" y="487.01923788646684">-5.36</text></g><g class="guides"><path class="major guide line" d="M219.531943 0.000000 v472.019238" /><text class="major" transform="rotate(60 219.531943 487.019238)" x="219.53194263363756" y="487.01923788646684">-4.96</text></g><g class="guides"><path class="major guide line" d="M240.262060 0.000000 v472.019238" /><text class="major" transform="rotate(60 240.262060 487.019238)" x="240.2620599739244" y="487.01923788646684">-4.56</text></g><g class="guides"><path class="major guide line" d="M260.992177 0.000000 v472.019238" /><text class="major" transform="rotate(60 260.992177 487.019238)" x="260.99217731421123" y="487.01923788646684">-4.16</text></g><g class="guides"><path class="major guide line" d="M281.722295 0.000000 v472.019238" /><text class="major" transform="rotate(60 281.722295 487.019238)" x="281.722294654498" y="487.01923788646684">-3.76</text></g><g class="guides"><path class="major guide line" d="M302.452412 0.000000 v472.019238" /><text class="major" transform="rotate(60 302.452412 487.019238)" x="302.4524119947849" y="487.01923788646684">-3.36</text></g><g class="guides"><path class="major guide line" d="M323.182529 0.000000 v472.019238" /><text class="major" transform="rotate(60 323.182529 487.019238)" x="323.1825293350717" y="487.01923788646684">-2.96</text></g><g class="guides"><path class="major guide line" d="M343.912647 0.000000 v472.019238" /><text class="major" transform="rotate(60 343.912647 487.019238)" x="343.91264667535853" y="487.01923788646684">-2.56</text></g><g class="guides"><path class="major guide line" d="M364.642764 0.000000 v472.019238" /><text class="major" transform="rotate(60 364.642764 487.019238)" x="364.64276401564535" y="487.01923788646684">-2.16</text></g><g class="guides"><path class="major guide line" d="M385.372881 0.000000 v472.019238" /><text class="major" transform="rotate(60 385.372881 487.019238)" x="385.37288135593224" y="487.01923788646684">-1.76</text></g><g class="guides"><path class="major guide line" d="M406.102999 0.000000 v472.019238" /><text class="major" transform="rotate(60 406.102999 487.019238)" x="406.102998696219" y="487.01923788646684">-1.36</text></g><g class="guides"><path class="major guide line" d="M426.833116 0.000000 v472.019238" /><text class="major" transform="rotate(60 426.833116 487.019238)" x="426.8331160365058" y="487.01923788646684">-0.96</text></g><g class="guides"><path class="major guide line" d="M447.563233 0.000000 v472.019238" /><text class="major" transform="rotate(60 447.563233 487.019238)" x="447.56323337679265" y="487.01923788646684">-0.56</text></g><g class="guides"><path class="major guide line" d="M468.293351 0.000000 v472.019238" /><text class="major" transform="rotate(60 468.293351 487.019238)" x="468.29335071707953" y="487.01923788646684">-0.16</text></g><g class="guides"><path class="major guide line" d="M489.023468 0.000000 v472.019238" /><text class="major" transform="rotate(60 489.023468 487.019238)" x="489.02346805736636" y="487.01923788646684">0.24</text></g><g class="guides"><path class="major guide line" d="M509.753585 0.000000 v472.019238" /><text class="major" transform="rotate(60 509.753585 487.019238)" x="509.75358539765324" y="487.01923788646684">0.64</text></g><g class="guides"><path class="major guide line" d="M530.483703 0.000000 v472.019238" /><text class="major" transform="rotate(60 530.483703 487.019238)" x="530.48370273794" y="487.01923788646684">1.04</text></g><g class="guides"><path class="major guide line" d="M551.213820 0.000000 v472.019238" /><text class="major" transform="rotate(60 551.213820 487.019238)" x="551.213820078227" y="487.01923788646684">1.43</text></g><g class="guides"><path class="major guide line" d="M571.943937 0.000000 v472.019238" /><text class="major" transform="rotate(60 571.943937 487.019238)" x="571.9439374185138" y="487.01923788646684">1.83</text></g><g class="guides"><path class="major guide line" d="M592.674055 0.000000 v472.019238" /><text class="major" transform="rotate(60 592.674055 487.019238)" x="592.6740547588006" y="487.01923788646684">2.23</text></g><g class="guides"><path class="major guide line" d="M613.404172 0.000000 v472.019238" /><text class="major" transform="rotate(60 613.404172 487.019238)" x="613.4041720990874" y="487.01923788646684">2.63</text></g></g><g class="series serie-0 color-0"><path class="line reactive" d="M12.230769 462.941945 L12.230769 462.019456 22.595828 462.941945 32.960887 461.096967 43.325945 462.019456 53.691004 459.251988 64.056063 462.019456 74.421121 458.329499 84.786180 462.019456 95.151239 458.329499 105.516297 462.019456 115.881356 448.182119 126.246415 460.174477 136.611473 457.407010 146.976532 457.407010 157.341591 451.872075 167.706649 448.182119 178.071708 454.639543 188.436767 445.414651 198.801825 442.647184 209.166884 436.189760 219.531943 437.112249 229.897001 392.832771 240.262060 396.522728 250.627119 376.227967 260.992177 355.933206 271.357236 351.320760 281.722295 325.491065 292.087353 277.521630 302.452412 283.056565 312.817471 202.800010 323.182529 188.040184 333.547588 169.590402 343.912647 123.465945 354.277705 95.791271 364.642764 67.194108 375.007823 82.876423 385.372881 60.736684 395.737940 80.108956 406.102999 29.372054 416.468057 9.077293 426.833116 70.884065 437.198175 69.039086 447.563233 41.364413 457.928292 40.441923 468.293351 91.178826 478.658409 140.993239 489.023468 214.792369 499.388527 259.071847 509.753585 321.801108 520.118644 364.235608 530.483703 408.515086 540.848761 430.654825 551.213820 448.182119 561.578879 455.562032 571.943937 458.329499 582.308996 458.329499 592.674055 462.019456 603.039113 462.941945 613.404172 462.019456 623.769231 462.941945" /></g><g class="series serie-1 color-1"><path class="line reactive nofill" d="M12.230769 462.882288 L22.595828 462.845159 32.960887 462.787604 43.325945 462.700029 53.691004 462.569240 64.056063 462.377546 74.421121 462.101849 84.786180 461.712804 95.151239 461.174213 105.516297 460.442785 115.881356 459.468416 126.246415 458.195077 136.611473 456.562258 146.976532 454.506672 157.341591 451.963610 167.706649 448.866903 178.071708 445.146080 188.436767 440.719121 198.801825 435.479421 209.166884 429.276549 219.531943 421.892250 229.897001 413.015963 240.262060 402.227598 250.627119 388.998716 260.992177 372.725293 271.357236 352.804479 281.722295 328.762410 292.087353 300.428815 302.452412 268.136416 312.817471 232.900406 323.182529 196.510465 333.547588 161.453966 343.912647 130.597977 354.277705 106.604587 364.642764 91.149335 375.007823 84.148008 385.372881 83.329123 395.737940 84.529767 406.102999 82.933106 416.468057 75.060227 426.833116 60.797922 437.198175 44.406112 447.563233 33.660898 457.928292 37.136634 468.293351 60.712137 478.658409 104.985810 489.023468 164.901433 499.388527 231.696724 509.753585 296.069017 520.118644 350.986678 530.483703 393.050372 540.848761 422.258181 551.213820 440.785939 561.578879 451.598070 571.943937 457.444436 582.308996 460.397540 592.674055 461.804590 603.039113 462.444447 613.404172 462.726030 623.769231 462.847782" /></g><g class="series serie-2 color-2"><path class="line reactive nofill" d="M12.230769 462.941945 L22.595828 462.941945 32.960887 462.941945 43.325945 462.941945 53.691004 462.941945 64.056063 462.941945 74.421121 462.941945 84.786180 462.941945 95.151239 462.941945 105.516297 462.941945 115.881356 462.941945 126.246415 462.941945 136.611473 462.941945 146.976532 462.941945 157.341591 462.941945 167.706649 462.941945 178.071708 462.941944 188.436767 462.941943 198.801825 462.941940 209.166884 462.941930 219.531943 462.941900 229.897001 462.941816 240.262060 462.941589 250.627119 462.940995 260.992177 462.939485 271.357236 462.935740 281.722295 462.926628 292.087353 462.904761 302.452412 462.852823 312.817471 462.730685 323.182529 462.447580 333.547588 461.806361 343.912647 460.403228 354.277705 457.472463 364.642764 451.695209 375.007823 441.054817 385.372881 422.905747 395.737940 394.470255 406.102999 353.890287 416.468057 301.674937 426.833116 241.971299 437.198175 182.815621 447.563233 134.720754 457.928292 107.718844 468.293351 107.945465 478.658409 135.356607 489.023468 183.744935 499.388527 243.046217 509.753585 302.757944 520.118644 354.881522 530.483703 395.314277 540.848761 423.583836 551.213820 441.572507 561.578879 452.071544 571.943937 457.732684 582.308996 460.574015 592.674055 461.912565 603.039113 462.510108 613.404172 462.765552 623.769231 462.871262" /></g><g class="series serie-3 color-3"><path class="line reactive nofill" d="M12.230769 462.882288 L22.595828 462.845159 32.960887 462.787604 43.325945 462.700029 53.691004 462.569240 64.056063 462.377546 74.421121 462.101849 84.786180 461.712804 95.151239 461.174213 105.516297 460.442785 115.881356 459.468416 126.246415 458.195077 136.611473 456.562258 146.976532 454.506672 157.341591 451.963610 167.706649 448.866903 178.071708 445.146081 188.436767 440.719123 198.801825 435.479426 209.166884 429.276564 219.531943 421.892295 229.897001 413.016092 240.262060 402.227953 250.627119 388.999665 260.992177 372.727752 271.357236 352.810684 281.722295 328.777728 292.087353 300.465999 302.452412 268.225538 312.817471 233.111666 323.182529 197.004829 333.547588 162.589549 343.912647 133.136694 354.277705 112.074069 364.642764 102.396070 375.007823 106.035136 385.372881 123.365321 395.737940 153.001456 406.102999 191.984764 416.468057 236.327235 426.833116 281.768568 437.198175 324.532437 447.563233 361.882089 457.928292 392.359736 468.293351 415.708616 478.658409 432.571148 489.023468 444.098443 499.388527 451.592452 509.753585 456.253018 520.118644 459.047100 530.483703 460.678039 540.848761 461.616290 551.213820 462.155377 561.578879 462.468471 571.943937 462.653697 582.308996 462.765470 592.674055 462.833970 603.039113 462.876283 613.404172 462.902422 623.769231 462.918465" /></g><g class="series serie-4 color-4"><path class="line reactive nofill" d="M12.230769 462.941945 L22.595828 462.941945 32.960887 462.941945 43.325945 462.941945 53.691004 462.941945 64.056063 462.941945 74.421121 462.941945 84.786180 462.941945 95.151239 462.941945 105.516297 462.941945 115.881356 462.941945 126.246415 462.941945 136.611473 462.941945 146.976532 462.941945 157.341591 462.941945 167.706649 462.941945 178.071708 462.941945 188.436767 462.941945 198.801825 462.941945 209.166884 462.941945 219.531943 462.941945 229.897001 462.941945 240.262060 462.941944 250.627119 462.941942 260.992177 462.941931 271.357236 462.941873 281.722295 462.941608 292.087353 462.940492 302.452412 462.936190 312.817471 462.921032 323.182529 462.872239 333.547588 462.728806 343.912647 462.344116 354.277705 461.403736 364.642764 459.311355 375.007823 455.081220 385.372881 447.329475 395.737940 434.497056 406.102999 415.401802 416.468057 390.056581 426.833116 360.437245 437.198175 330.699510 447.563233 306.439365 457.928292 293.041008 468.293351 293.744559 478.658409 308.375530 489.023468 333.414970 499.388527 363.371851 509.753585 392.728348 520.118644 417.522991 530.483703 435.990836 540.848761 448.271619 551.213820 455.616627 561.578879 459.586603 571.943937 461.532102 582.308996 462.398534 592.674055 462.749809 603.039113 462.879627 613.404172 462.923403 623.769231 462.936884" /></g><g class="series serie-5 color-5"><path class="line reactive nofill" d="M12.230769 462.941945 L22.595828 462.941945 32.960887 462.941945 43.325945 462.941945 53.691004 462.941945 64.056063 462.941945 74.421121 462.941945 84.786180 462.941945 95.151239 462.941945 105.516297 462.941945 115.881356 462.941945 126.246415 462.941945 136.611473 462.941945 146.976532 462.941945 157.341591 462.941945 167.706649 462.941945 178.071708 462.941945 188.436767 462.941945 198.801825 462.941945 209.166884 462.941945 219.531943 462.941945 229.897001 462.941945 240.262060 462.941944 250.627119 462.941941 260.992177 462.941926 271.357236 462.941857 281.722295 462.941565 292.087353 462.940428 302.452412 462.936352 312.817471 462.922934 323.182529 462.882360 333.547588 462.769750 343.912647 462.483098 354.277705 461.814553 364.642764 460.387820 375.007823 457.606513 385.372881 452.665155 395.737940 444.690148 406.102999 433.052761 416.468057 417.810132 426.833116 400.105475 437.198175 382.273987 447.563233 367.453541 457.928292 358.719684 468.293351 358.052779 478.658409 365.608733 489.023468 379.659826 499.388527 397.236288 509.753585 415.143470 520.118644 430.880314 530.483703 443.112185 540.848761 451.633325 551.213820 456.995437 561.578879 460.058745 571.943937 461.652960 582.308996 462.410594 592.674055 462.739981 603.039113 462.871162 613.404172 462.919071 623.769231 462.935129" /></g><g class="series serie-6 color-6"><path class="line reactive nofill" d="M12.230769 462.941945 L22.595828 462.941945 32.960887 462.941945 43.325945 462.941945 53.691004 462.941945 64.056063 462.941945 74.421121 462.941945 84.786180 462.941945 95.151239 462.941945 105.516297 462.941945 115.881356 462.941945 126.246415 462.941945 136.611473 462.941945 146.976532 462.941945 157.341591 462.941945 167.706649 462.941945 178.071708 462.941945 188.436767 462.941945 198.801825 462.941945 209.166884 462.941945 219.531943 462.941945 229.897001 462.941944 240.262060 462.941940 250.627119 462.941925 260.992177 462.941862 271.357236 462.941631 281.722295 462.940836 292.087353 462.938286 302.452412 462.930695 312.817471 462.909696 323.182529 462.855759 333.547588 462.727205 343.912647 462.443126 354.277705 461.861693 364.642764 460.760933 375.007823 458.836665 385.372881 455.737857 395.737940 451.155934 406.102999 444.965402 416.468057 437.379812 426.833116 429.054445 437.198175 421.059356 447.563233 414.682863 457.928292 411.100615 468.293351 411.023131 478.658409 414.466151 489.023468 420.745423 499.388527 428.698305 509.753585 437.033895 520.118644 444.667631 530.483703 450.924864 540.848761 455.574643 551.213820 458.731098 561.578879 460.698156 571.943937 461.827276 582.308996 462.425693 592.674055 462.719035 603.039113 462.852213 613.404172 462.908269 623.769231 462.930162" /></g><g class="series serie-7 color-7"><path class="line reactive nofill" d="M12.230769 462.941945 L22.595828 462.941945 32.960887 462.941945 43.325945 462.941945 53.691004 462.941945 64.056063 462.941945 74.421121 462.941945 84.786180 462.941945 95.151239 462.941945 105.516297 462.941945 115.881356 462.941945 126.246415 462.941945 136.611473 462.941945 146.976532 462.941945 157.341591 462.941945 167.706649 462.941945 178.071708 462.941945 188.436767 462.941945 198.801825 462.941945 209.166884 462.941944 219.531943 462.941941 229.897001 462.941932 240.262060 462.941901 250.627119 462.941800 260.992177 462.941490 271.357236 462.940601 281.722295 462.938193 292.087353 462.932058 302.452412 462.917344 312.817471 462.884151 323.182529 462.813750 333.547588 462.673470 343.912647 462.411079 354.277705 461.950849 364.642764 461.194940 375.007823 460.034437 385.372881 458.373208 395.737940 456.163663 406.102999 453.447022 416.468057 450.384204 426.833116 447.260723 437.198175 444.453661 447.563233 442.361176 457.928292 441.311030 468.293351 441.476668 478.658409 442.830356 489.023468 445.150772 499.388527 448.082209 509.753585 451.223611 520.118644 454.216874 530.483703 456.808275 540.848761 458.870767 551.213820 460.390606 561.578879 461.432336 571.943937 462.098593 582.308996 462.497107 592.674055 462.720409 603.039113 462.837777 613.404172 462.895699 623.769231 462.922560" /></g><g class="series serie-8 color-8"><path class="line reactive nofill" d="M12.230769 462.941945 L22.595828 462.941945 32.960887 462.941945 43.325945 462.941945 53.691004 462.941945 64.056063 462.941945 74.421121 462.941945 84.786180 462.941945 95.151239 462.941945 105.516297 462.941945 115.881356 462.941945 126.246415 462.941945 136.611473 462.941945 146.976532 462.941945 157.341591 462.941945 167.706649 462.941945 178.071708 462.941944 188.436767 462.941943 198.801825 462.941940 209.166884 462.941931 219.531943 462.941903 229.897001 462.941830 240.262060 462.941639 250.627119 462.941167 260.992177 462.940055 271.357236 462.937557 281.722295 462.932204 292.087353 462.921277 302.452412 462.900021 312.817471 462.860651 323.182529 462.791251 333.547588 462.674910 343.912647 462.489590 354.277705 462.209410 364.642764 461.807940 375.007823 461.263762 385.372881 460.567831 395.737940 459.731234 406.102999 458.791079 416.468057 457.811986 426.833116 456.881191 437.198175 456.096886 447.563233 455.551588 457.928292 455.314286 468.293351 455.416107 478.658409 455.843616 489.023468 456.541723 499.388527 457.425343 509.753585 458.396400 520.118644 459.361492 530.483703 460.245897 540.848761 461.001260 551.213820 461.606518 561.578879 462.063483 571.943937 462.389533 582.308996 462.609866 592.674055 462.751110 603.039113 462.837109 613.404172 462.886889 623.769231 462.914305" /></g><g class="series serie-9 color-9"><path class="line reactive nofill" d="M12.230769 462.941945 L22.595828 462.941945 32.960887 462.941945 43.325945 462.941945 53.691004 462.941945 64.056063 462.941945 74.421121 462.941945 84.786180 462.941945 95.151239 462.941945 105.516297 462.941945 115.881356 462.941945 126.246415 462.941945 136.611473 462.941944 146.976532 462.941941 157.341591 462.941931 167.706649 462.941895 178.071708 462.941768 188.436767 462.941357 198.801825 462.940102 209.166884 462.936506 219.531943 462.926819 229.897001 462.902302 240.262060 462.844042 250.627119 462.714114 260.992177 462.442348 271.357236 461.909623 281.722295 460.931931 292.087353 459.254109 302.452412 456.566177 312.817471 452.555144 323.182529 446.997127 333.547588 439.877356 343.912647 431.503554 354.277705 422.562223 364.642764 414.070547 375.007823 407.206095 385.372881 403.045243 395.737940 402.287920 406.102999 405.065112 416.468057 410.901822 426.833116 418.849894 437.198175 427.739672 447.563233 436.458801 457.928292 444.167946 468.293351 450.400936 478.658409 455.047955 489.023468 458.259754 499.388527 460.325027 509.753585 461.563722 520.118644 462.257975 530.483703 462.622097 540.848761 462.801004 551.213820 462.883423 561.578879 462.919047 571.943937 462.933503 582.308996 462.939012 592.674055 462.940985 603.039113 462.941649 613.404172 462.941859 623.769231 462.941921" /></g><g class="series serie-10 color-10"><path class="line reactive nofill" d="M12.230769 462.941945 L22.595828 462.941945 32.960887 462.941945 43.325945 462.941945 53.691004 462.941945 64.056063 462.941945 74.421121 462.941945 84.786180 462.941945 95.151239 462.941945 105.516297 462.941944 115.881356 462.941943 126.246415 462.941938 136.611473 462.941920 146.976532 462.941859 157.341591 462.941662 167.706649 462.941063 178.071708 462.939337 188.436767 462.934645 198.801825 462.922587 209.166884 462.893317 219.531943 462.826225 229.897001 462.681086 240.262060 462.384904 250.627119 461.815139 260.992177 460.782749 271.357236 459.022575 281.722295 456.202540 292.087353 451.964329 302.452412 446.003417 312.817471 438.183440 323.182529 428.660881 333.547588 417.977905 343.912647 407.074669 354.277705 397.186639 364.642764 389.628227 375.007823 385.509882 385.372881 385.471232 395.737940 389.518388 406.102999 397.022367 416.468057 406.879174 426.833116 417.775507 437.198175 428.472185 447.563233 438.022302 457.928292 445.876150 468.293351 451.870805 478.658409 456.138336 489.023468 458.981286 499.388527 460.757824 509.753585 461.800994 520.118644 462.377348 530.483703 462.677283 540.848761 462.824421 551.213820 462.892509 561.578879 462.922246 571.943937 462.934509 582.308996 462.939286 592.674055 462.941044 603.039113 462.941656 613.404172 462.941857 623.769231 462.941920" /></g><g class="series serie-11 color-11"><path class="line reactive nofill" d="M12.230769 462.941945 L22.595828 462.941945 32.960887 462.941945 43.325945 462.941945 53.691004 462.941945 64.056063 462.941945 74.421121 462.941944 84.786180 462.941943 95.151239 462.941938 105.516297 462.941920 115.881356 462.941865 126.246415 462.941697 136.611473 462.941209 146.976532 462.939866 157.341591 462.936346 167.706649 462.927576 178.071708 462.906800 188.436767 462.860023 198.801825 462.759959 209.166884 462.556671 219.531943 462.164629 229.897001 461.447357 240.262060 460.203261 250.627119 458.159408 260.992177 454.982717 271.357236 450.318450 281.722295 443.861681 292.087353 435.457607 302.452412 425.212337 312.817471 413.581916 323.182529 401.400933 333.547588 389.819623 343.912647 380.141738 354.277705 373.588976 364.642764 371.048896 375.007823 372.877694 385.372881 378.818250 395.737940 388.059443 406.102999 399.417854 416.468057 411.585768 426.833116 423.374042 437.198175 433.889046 447.563233 442.612195 457.928292 449.384723 468.293351 454.325949 478.658409 457.723557 489.023468 459.929886 499.388527 461.285082 509.753585 462.073373 520.118644 462.508013 530.483703 462.735344 540.848761 462.848202 551.213820 462.901409 561.578879 462.925240 571.943937 462.935384 582.308996 462.939489 592.674055 462.941069 603.039113 462.941647 613.404172 462.941848 623.769231 462.941915" /></g><g class="series serie-12 color-12"><path class="line reactive nofill" d="M12.230769 462.941945 L22.595828 462.941945 32.960887 462.941944 43.325945 462.941943 53.691004 462.941939 64.056063 462.941926 74.421121 462.941888 84.786180 462.941780 95.151239 462.941485 105.516297 462.940715 115.881356 462.938784 126.246415 462.934152 136.611473 462.923506 146.976532 462.900076 157.341591 462.850705 167.706649 462.751137 178.071708 462.559001 188.436767 462.204386 198.801825 461.578675 209.166884 460.523750 219.531943 458.825481 229.897001 456.217114 240.262060 452.398993 250.627119 447.079615 260.992177 440.038777 271.357236 431.206250 281.722295 420.740791 292.087353 409.087134 302.452412 396.986822 312.817471 385.425039 323.182529 375.510394 333.547588 368.304328 343.912647 364.635211 354.277705 364.941826 364.642764 369.187084 375.007823 376.865395 385.372881 387.101694 395.737940 398.815297 406.102999 410.906272 416.468057 422.420244 426.833116 432.659006 437.198175 441.223324 447.563233 447.993696 457.928292 453.068419 468.293351 456.683333 478.658409 459.134727 489.023468 460.719345 499.388527 461.696746 509.753585 462.272461 520.118644 462.596511 530.483703 462.770898 540.848761 462.860664 551.213820 462.904878 561.578879 462.925723 571.943937 462.935132 582.308996 462.939199 592.674055 462.940883 603.039113 462.941551 613.404172 462.941804 623.769231 462.941897" /></g><g class="series serie-13 color-13"><path class="line reactive nofill" d="M12.230769 462.882288 L22.595828 462.845159 32.960887 462.787605 43.325945 462.700031 53.691004 462.569246 64.056063 462.377565 74.421121 462.101906 84.786180 461.712970 95.151239 461.174680 105.516297 460.444040 115.881356 459.471658 126.246415 458.203125 136.611473 456.581458 146.976532 454.550709 157.341591 452.060745 167.706649 449.073013 178.071708 445.566954 188.436767 441.546491 198.801825 437.045881 209.166884 432.134098 219.531943 426.916921 229.897001 421.536013 240.262060 416.164533 250.627119 410.999169 260.992177 406.248941 271.357236 402.121565 281.722295 398.808565 292.087353 396.470599 302.452412 395.224564 312.817471 395.133906 323.182529 396.203273 333.547588 398.378116 343.912647 401.549301 354.277705 405.562183 364.642764 410.229096 375.007823 415.343849 385.372881 420.696683 395.737940 426.088186 406.102999 431.340939 416.468057 436.308008 426.833116 440.877897 437.198175 444.975989 447.563233 448.562874 457.928292 451.630276 468.293351 454.195373 478.658409 456.294353 489.023468 457.975950 499.388527 459.295552 509.753585 460.310247 520.118644 461.075033 530.483703 461.640196 540.848761 462.049779 551.213820 462.340938 561.578879 462.543994 571.943937 462.682949 582.308996 462.776264 592.674055 462.837769 603.039113 462.877561 613.404172 462.902833 623.769231 462.918592" /></g></g><g class="titles"><text class="title plot_title" x="400.0" y="26">Iteration #6</text><text class="title" x="462.0" y="580.0">Observation</text><text class="title" transform="rotate(-90 64.000000 282.009619)" x="64.0" y="308.0096189432334">Density</text></g><g class="plot overlay" transform="translate(144, 46)"><g class="series serie-0 color-0" /><g class="series serie-1 color-1" /><g class="series serie-2 color-2" /><g class="series serie-3 color-3" /><g class="series serie-4 color-4" /><g class="series serie-5 color-5" /><g class="series serie-6 color-6" /><g class="series serie-7 color-7" /><g class="series serie-8 color-8" /><g class="series serie-9 color-9" /><g class="series serie-10 color-10" /><g class="series serie-11 color-11" /><g class="series serie-12 color-12" /><g class="series serie-13 color-13" /></g><g class="plot text-overlay" transform="translate(144, 46)"><g class="series serie-0 color-0" /><g class="series serie-1 color-1" /><g class="series serie-2 color-2" /><g class="series serie-3 color-3" /><g class="series serie-4 color-4" /><g class="series serie-5 color-5" /><g class="series serie-6 color-6" /><g class="series serie-7 color-7" /><g class="series serie-8 color-8" /><g class="series serie-9 color-9" /><g class="series serie-10 color-10" /><g class="series serie-11 color-11" /><g class="series serie-12 color-12" /><g class="series serie-13 color-13" /></g><g class="plot tooltip-overlay" transform="translate(144, 46)"><g class="tooltip" style="opacity: 0" transform="translate(0 0)"><rect class="tooltip-box" height="0" rx="0" ry="0" width="0" /><g class="text" /></g></g><g class="legends" transform="translate(10, 56)"><g class="legend reactive activate-serie" id="activate-serie-0"><rect class="color-0 reactive" height="12" width="12" x="0.0" y="0.0" /><text x="17.0" y="9.0">Data</text></g><g class="legend reactive activate-serie" id="activate-serie-1"><rect class="color-1 reactive" height="12" width="12" x="0.0" y="18.0" /><text x="17.0" y="27.0">GMM</text></g><g class="legend reactive activate-serie" id="activate-serie-2"><rect class="color-2 reactive" height="12" width="12" x="0.0" y="36.0" /><text x="17.0" y="45.0">i=0</text></g><g class="legend reactive activate-serie" id="activate-serie-3"><rect class="color-3 reactive" height="12" width="12" x="0.0" y="54.0" /><text x="17.0" y="63.0">i=1</text></g><g class="legend reactive activate-serie" id="activate-serie-4"><rect class="color-4 reactive" height="12" width="12" x="0.0" y="72.0" /><text x="17.0" y="81.0">i=0 k=0</text></g><g class="legend reactive activate-serie" id="activate-serie-5"><rect class="color-5 reactive" height="12" width="12" x="0.0" y="90.0" /><text x="17.0" y="99.0">i=0 k=1</text></g><g class="legend reactive activate-serie" id="activate-serie-6"><rect class="color-6 reactive" height="12" width="12" x="0.0" y="108.0" /><text x="17.0" y="117.0">i=0 k=2</text></g><g class="legend reactive activate-serie" id="activate-serie-7"><rect class="color-7 reactive" height="12" width="12" x="0.0" y="126.0" /><text x="17.0" y="135.0">i=0 k=3</text></g><g class="legend reactive activate-serie" id="activate-serie-8"><rect class="color-8 reactive" height="12" width="12" x="0.0" y="144.0" /><text x="17.0" y="153.0">i=0 k=4</text></g><g class="legend reactive activate-serie" id="activate-serie-9"><rect class="color-9 reactive" height="12" width="12" x="0.0" y="162.0" /><text x="17.0" y="171.0">i=1 k=0</text></g><g class="legend reactive activate-serie" id="activate-serie-10"><rect class="color-10 reactive" height="12" width="12" x="0.0" y="180.0" /><text x="17.0" y="189.0">i=1 k=1</text></g><g class="legend reactive activate-serie" id="activate-serie-11"><rect class="color-11 reactive" height="12" width="12" x="0.0" y="198.0" /><text x="17.0" y="207.0">i=1 k=2</text></g><g class="legend reactive activate-serie" id="activate-serie-12"><rect class="color-12 reactive" height="12" width="12" x="0.0" y="216.0" /><text x="17.0" y="225.0">i=1 k=3</text></g><g class="legend reactive activate-serie" id="activate-serie-13"><rect class="color-13 reactive" height="12" width="12" x="0.0" y="234.0" /><text x="17.0" y="243.0">i=1 k=4</text></g></g><g class="legends" transform="translate(790, 56)" /></g></svg>