<?xml version='1.0' encoding='utf-8'?>
<svg xmlns:xlink="http://www.w3.org/1999/xlink" class="pygal-chart" id="chart-be2ca91a-0cfc-4325-bda0-1bb0be77008e" viewBox="0 0 800 600" xmlns="http://www.w3.org/2000/svg"><!--Generated with pygal 2.4.0 (etree) ©Kozea 2012-2016 on 2017-12-19--><!--http://pygal.org--><!--http://github.com/Kozea/pygal--><defs><style type="text/css">#chart-be2ca91a-0cfc-4325-bda0-1bb0be77008e{-webkit-user-select:none;-webkit-font-smoothing:antialiased;font-family:Consolas,"Liberation Mono",Menlo,Courier,monospace}#chart-be2ca91a-0cfc-4325-bda0-1bb0be77008e .title{font-family:Consolas,"Liberation Mono",Menlo,Courier,monospace;font-size:16px}#chart-be2ca91a-0cfc-4325-bda0-1bb0be77008e .legends .legend text{font-family:Consolas,"Liberation Mono",Menlo,Courier,monospace;font-size:10px}#chart-be2ca91a-0cfc-4325-bda0-1bb0be77008e .axis text{font-family:Consolas,"Liberation Mono",Menlo,Courier,monospace;font-size:10px}#chart-be2ca91a-0cfc-4325-bda0-1bb0be77008e .axis text.major{font-family:Consolas,"Liberation Mono",Menlo,Courier,monospace;font-size:10px}#chart-be2ca91a-0cfc-4325-bda0-1bb0be77008e .text-overlay text.value{font-family:Consolas,"Liberation Mono",Menlo,Courier,monospace;font-size:16px}#chart-be2ca91a-0cfc-4325-bda0-1bb0be77008e .text-overlay text.label{font-family:Consolas,"Liberation Mono",Menlo,Courier,monospace;font-size:10px}#chart-be2ca91a-0cfc-4325-bda0-1bb0be77008e .tooltip{font-family:Consolas,"Liberation Mono",Menlo,Courier,monospace;font-size:14px}#chart-be2ca91a-0cfc-4325-bda0-1bb0be77008e text.no_data{font-family:Consolas,"Liberation Mono",Menlo,Courier,monospace;font-size:64px}
#chart-be2ca91a-0cfc-4325-bda0-1bb0be77008e{background-color:rgba(249,249,249,1)}#chart-be2ca91a-0cfc-4325-bda0-1bb0be77008e path,#chart-be2ca91a-0cfc-4325-bda0-1bb0be77008e line,#chart-be2ca91a-0cfc-4325-bda0-1bb0be77008e rect,#chart-be2ca91a-0cfc-4325-bda0-1bb0be77008e circle{-webkit-transition:150ms;-moz-transition:150ms;transition:150ms}#chart-be2ca91a-0cfc-4325-bda0-1bb0be77008e .graph &gt; .background{fill:rgba(249,249,249,1)}#chart-be2ca91a-0cfc-4325-bda0-1bb0be77008e .plot &gt; .background{fill:rgba(255,255,255,1)}#chart-be2ca91a-0cfc-4325-bda0-1bb0be77008e .graph{fill:rgba(0,0,0,.87)}#chart-be2ca91a-0cfc-4325-bda0-1bb0be77008e text.no_data{fill:rgba(0,0,0,1)}#chart-be2ca91a-0cfc-4325-bda0-1bb0be77008e .title{fill:rgba(0,0,0,1)}#chart-be2ca91a-0cfc-4325-bda0-1bb0be77008e .legends .legend text{fill:rgba(0,0,0,.87)}#chart-be2ca91a-0cfc-4325-bda0-1bb0be77008e .legends .legend:hover text{fill:rgba(0,0,0,1)}#chart-be2ca91a-0cfc-4325-bda0-1bb0be77008e .axis .line{stroke:rgba(0,0,0,1)}#chart-be2ca91a-0cfc-4325-bda0-1bb0be77008e .axis .guide.line{stroke:rgba(0,0,0,.54)}#chart-be2ca91a-0cfc-4325-bda0-1bb0be77008e .axis .major.line{stroke:rgba(0,0,0,.87)}#chart-be2ca91a-0cfc-4325-bda0-1bb0be77008e .axis text.major{fill:rgba(0,0,0,1)}#chart-be2ca91a-0cfc-4325-bda0-1bb0be77008e .axis.y .guides:hover .guide.line,#chart-be2ca91a-0cfc-4325-bda0-1bb0be77008e .line-graph .axis.x .guides:hover .guide.line,#chart-be2ca91a-0cfc-4325-bda0-1bb0be77008e .stackedline-graph .axis.x .guides:hover .guide.line,#chart-be2ca91a-0cfc-4325-bda0-1bb0be77008e .xy-graph .axis.x .guides:hover .guide.line{stroke:rgba(0,0,0,1)}#chart-be2ca91a-0cfc-4325-bda0-1bb0be77008e .axis .guides:hover text{fill:rgba(0,0,0,1)}#chart-be2ca91a-0cfc-4325-bda0-1bb0be77008e .reactive{fill-opacity:.7;stroke-opacity:.8}#chart-be2ca91a-0cfc-4325-bda0-1bb0be77008e .ci{stroke:rgba(0,0,0,.87)}#chart-be2ca91a-0cfc-4325-bda0-1bb0be77008e .reactive.active,#chart-be2ca91a-0cfc-4325-bda0-1bb0be77008e .active .reactive{fill-opacity:.8;stroke-opacity:.9;stroke-width:4}#chart-be2ca91a-0cfc-4325-bda0-1bb0be77008e .ci .reactive.active{stroke-width:1.5}#chart-be2ca91a-0cfc-4325-bda0-1bb0be77008e .series text{fill:rgba(0,0,0,1)}#chart-be2ca91a-0cfc-4325-bda0-1bb0be77008e .tooltip rect{fill:rgba(255,255,255,1);stroke:rgba(0,0,0,1);-webkit-transition:opacity 150ms;-moz-transition:opacity 150ms;transition:opacity 150ms}#chart-be2ca91a-0cfc-4325-bda0-1bb0be77008e .tooltip .label{fill:rgba(0,0,0,.87)}#chart-be2ca91a-0cfc-4325-bda0-1bb0be77008e .tooltip .label{fill:rgba(0,0,0,.87)}#chart-be2ca91a-0cfc-4325-bda0-1bb0be77008e .tooltip .legend{font-size:.8em;fill:rgba(0,0,0,.54)}#chart-be2ca91a-0cfc-4325-bda0-1bb0be77008e .tooltip .x_label{font-size:.6em;fill:rgba(0,0,0,1)}#chart-be2ca91a-0cfc-4325-bda0-1bb0be77008e .tooltip .xlink{font-size:.5em;text-decoration:underline}#chart-be2ca91a-0cfc-4325-bda0-1bb0be77008e .tooltip .value{font-size:1.5em}#chart-be2ca91a-0cfc-4325-bda0-1bb0be77008e .bound{font-size:.5em}#chart-be2ca91a-0cfc-4325-bda0-1bb0be77008e .max-value{font-size:.75em;fill:rgba(0,0,0,.54)}#chart-be2ca91a-0cfc-4325-bda0-1bb0be77008e .map-element{fill:rgba(255,255,255,1);stroke:rgba(0,0,0,.54) !important}#chart-be2ca91a-0cfc-4325-bda0-1bb0be77008e .map-element .reactive{fill-opacity:inherit;stroke-opacity:inherit}#chart-be2ca91a-0cfc-4325-bda0-1bb0be77008e .color-0,#chart-be2ca91a-0cfc-4325-bda0-1bb0be77008e .color-0 a:visited{stroke:#909090;fill:#909090}#chart-be2ca91a-0cfc-4325-bda0-1bb0be77008e .color-1,#chart-be2ca91a-0cfc-4325-bda0-1bb0be77008e .color-1 a:visited{stroke:#000000;fill:#000000}#chart-be2ca91a-0cfc-4325-bda0-1bb0be77008e .color-2,#chart-be2ca91a-0cfc-4325-bda0-1bb0be77008e .color-2 a:visited{stroke:#ff0500;fill:#ff0500}#chart-be2ca91a-0cfc-4325-bda0-1bb0be77008e .color-3,#chart-be2ca91a-0cfc-4325-bda0-1bb0be77008e .color-3 a:visited{stroke:#323299;fill:#323299}#chart-be2ca91a-0cfc-4325-bda0-1bb0be77008e .color-4,#chart-be2ca91a-0cfc-4325-bda0-1bb0be77008e .color-4 a:visited{stroke:#a3413f;fill:#a3413f}#chart-be2ca91a-0cfc-4325-bda0-1bb0be77008e .color-5,#chart-be2ca91a-0cfc-4325-bda0-1bb0be77008e .color-5 a:visited{stroke:#a3413f;fill:#a3413f}#chart-be2ca91a-0cfc-4325-bda0-1bb0be77008e .color-6,#chart-be2ca91a-0cfc-4325-bda0-1bb0be77008e .color-6 a:visited{stroke:#a3413f;fill:#a3413f}#chart-be2ca91a-0cfc-4325-bda0-1bb0be77008e .color-7,#chart-be2ca91a-0cfc-4325-bda0-1bb0be77008e .color-7 a:visited{stroke:#a3413f;fill:#a3413f}#chart-be2ca91a-0cfc-4325-bda0-1bb0be77008e .color-8,#chart-be2ca91a-0cfc-4325-bda0-1bb0be77008e .color-8 a:visited{stroke:#a3413f;fill:#a3413f}#chart-be2ca91a-0cfc-4325-bda0-1bb0be77008e .color-9,#chart-be2ca91a-0cfc-4325-bda0-1bb0be77008e .color-9 a:visited{stroke:#657fff;fill:#657fff}#chart-be2ca91a-0cfc-4325-bda0-1bb0be77008e .color-10,#chart-be2ca91a-0cfc-4325-bda0-1bb0be77008e .color-10 a:visited{stroke:#657fff;fill:#657fff}#chart-be2ca91a-0cfc-4325-bda0-1bb0be77008e .color-11,#chart-be2ca91a-0cfc-4325-bda0-1bb0be77008e .color-11 a:visited{stroke:#657fff;fill:#657fff}#chart-be2ca91a-0cfc-4325-bda0-1bb0be77008e .color-12,#chart-be2ca91a-0cfc-4325-bda0-1bb0be77008e .color-12 a:visited{stroke:#657fff;fill:#657fff}#chart-be2ca91a-0cfc-4325-bda0-1bb0be77008e .color-13,#chart-be2ca91a-0cfc-4325-bda0-1bb0be77008e .color-13 a:visited{stroke:#657fff;fill:#657fff}#chart-be2ca91a-0cfc-4325-bda0-1bb0be77008e .text-overlay .color-0 text{fill:black}#chart-be2ca91a-0cfc-4325-bda0-1bb0be77008e .text-overlay .color-1 text{fill:white}#chart-be2ca91a-0cfc-4325-bda0-1bb0be77008e .text-overlay .color-2 text{fill:black}#chart-be2ca91a-0cfc-4325-bda0-1bb0be77008e .text-overlay .color-3 text{fill:black}#chart-be2ca91a-0cfc-4325-bda0-1bb0be77008e .text-overlay .color-4 text{fill:black}#chart-be2ca91a-0cfc-4325-bda0-1bb0be77008e .text-overlay .color-5 text{fill:black}#chart-be2ca91a-0cfc-4325-bda0-1bb0be77008e .text-overlay .color-6 text{fill:black}#chart-be2ca91a-0cfc-4325-bda0-1bb0be77008e .text-overlay .color-7 text{fill:black}#chart-be2ca91a-0cfc-4325-bda0-1bb0be77008e .text-overlay .color-8 text{fill:black}#chart-be2ca91a-0cfc-4325-bda0-1bb0be77008e .text-overlay .color-9 text{fill:black}#chart-be2ca91a-0cfc-4325-bda0-1bb0be77008e .text-overlay .color-10 text{fill:black}#chart-be2ca91a-0cfc-4325-bda0-1bb0be77008e .text-overlay .color-11 text{fill:black}#chart-be2ca91a-0cfc-4325-bda0-1bb0be77008e .text-overlay .color-12 text{fill:black}#chart-be2ca91a-0cfc-4325-bda0-1bb0be77008e .text-overlay .color-13 text{fill:black}#chart-be2ca91a-0cfc-4325-bda0-1bb0be77008e .series.serie-1{stroke-width:5}#chart-be2ca91a-0cfc-4325-bda0-1bb0be77008e .series.serie-2{stroke-width:3}#chart-be2ca91a-0cfc-4325-bda0-1bb0be77008e .series.serie-3{stroke-width:3}#chart-be2ca91a-0cfc-4325-bda0-1bb0be77008e .series.serie-4{stroke-width:2;stroke-dasharray:2,2}#chart-be2ca91a-0cfc-4325-bda0-1bb0be77008e .series.serie-5{stroke-width:2;stroke-dasharray:2,2}#chart-be2ca91a-0cfc-4325-bda0-1bb0be77008e .series.serie-6{stroke-width:2;stroke-dasharray:2,2}#chart-be2ca91a-0cfc-4325-bda0-1bb0be77008e .series.serie-7{stroke-width:2;stroke-dasharray:2,2}#chart-be2ca91a-0cfc-4325-bda0-1bb0be77008e .series.serie-8{stroke-width:2;stroke-dasharray:2,2}#chart-be2ca91a-0cfc-4325-bda0-1bb0be77008e .series.serie-9{stroke-width:2;stroke-dasharray:2,2}#chart-be2ca91a-0cfc-4325-bda0-1bb0be77008e .series.serie-10{stroke-width:2;stroke-dasharray:2,2}#chart-be2ca91a-0cfc-4325-bda0-1bb0be77008e .series.serie-11{stroke-width:2;stroke-dasharray:2,2}#chart-be2ca91a-0cfc-4325-bda0-1bb0be77008e .series.serie-12{stroke-width:2;stroke-dasharray:2,2}#chart-be2ca91a-0cfc-4325-bda0-1bb0be77008e .series.serie-13{stroke-width:2;stroke-dasharray:2,2}
#chart-be2ca91a-0cfc-4325-bda0-1bb0be77008e text.no_data{text-anchor:middle}#chart-be2ca91a-0cfc-4325-bda0-1bb0be77008e .guide.line{fill:none}#chart-be2ca91a-0cfc-4325-bda0-1bb0be77008e .centered{text-anchor:middle}#chart-be2ca91a-0cfc-4325-bda0-1bb0be77008e .title{text-anchor:middle}#chart-be2ca91a-0cfc-4325-bda0-1bb0be77008e .legends .legend text{fill-opacity:1}#chart-be2ca91a-0cfc-4325-bda0-1bb0be77008e .axis.x text{text-anchor:middle}#chart-be2ca91a-0cfc-4325-bda0-1bb0be77008e .axis.x:not(.web) text[transform]{text-anchor:start}#chart-be2ca91a-0cfc-4325-bda0-1bb0be77008e .axis.x:not(.web) text[transform].backwards{text-anchor:end}#chart-be2ca91a-0cfc-4325-bda0-1bb0be77008e .axis.y text{text-anchor:end}#chart-be2ca91a-0cfc-4325-bda0-1bb0be77008e .axis.y text[transform].backwards{text-anchor:start}#chart-be2ca91a-0cfc-4325-bda0-1bb0be77008e .axis.y2 text{text-anchor:start}#chart-be2ca91a-0cfc-4325-bda0-1bb0be77008e .axis.y2 text[transform].backwards{text-anchor:end}#chart-be2ca91a-0cfc-4325-bda0-1bb0be77008e .axis .guide.line{stroke-dasharray:4,4}#chart-be2ca91a-0cfc-4325-bda0-1bb0be77008e .axis .major.guide.line{stroke-dasharray:6,6}#chart-be2ca91a-0cfc-4325-bda0-1bb0be77008e .horizontal .axis.y .guide.line,#chart-be2ca91a-0cfc-4325-bda0-1bb0be77008e .horizontal .axis.y2 .guide.line,#chart-be2ca91a-0cfc-4325-bda0-1bb0be77008e .vertical .axis.x .guide.line{opacity:0}#chart-be2ca91a-0cfc-4325-bda0-1bb0be77008e .horizontal .axis.always_show .guide.line,#chart-be2ca91a-0cfc-4325-bda0-1bb0be77008e .vertical .axis.always_show .guide.line{opacity:1 !important}#chart-be2ca91a-0cfc-4325-bda0-1bb0be77008e .axis.y .guides:hover .guide.line,#chart-be2ca91a-0cfc-4325-bda0-1bb0be77008e .axis.y2 .guides:hover .guide.line,#chart-be2ca91a-0cfc-4325-bda0-1bb0be77008e .axis.x .guides:hover .guide.line{opacity:1}#chart-be2ca91a-0cfc-4325-bda0-1bb0be77008e .axis .guides:hover text{opacity:1}#chart-be2ca91a-0cfc-4325-bda0-1bb0be77008e .nofill{fill:none}#chart-be2ca91a-0cfc-4325-bda0-1bb0be77008e .subtle-fill{fill-opacity:.2}#chart-be2ca91a-0cfc-4325-bda0-1bb0be77008e .dot{stroke-width:1px;fill-opacity:1}#chart-be2ca91a-0cfc-4325-bda0-1bb0be77008e .dot.active{stroke-width:5px}#chart-be2ca91a-0cfc-4325-bda0-1bb0be77008e .dot.negative{fill:transparent}#chart-be2ca91a-0cfc-4325-bda0-1bb0be77008e text,#chart-be2ca91a-0cfc-4325-bda0-1bb0be77008e tspan{stroke:none !important}#chart-be2ca91a-0cfc-4325-bda0-1bb0be77008e .series text.active{opacity:1}#chart-be2ca91a-0cfc-4325-bda0-1bb0be77008e .tooltip rect{fill-opacity:.95;stroke-width:.5}#chart-be2ca91a-0cfc-4325-bda0-1bb0be77008e .tooltip text{fill-opacity:1}#chart-be2ca91a-0cfc-4325-bda0-1bb0be77008e .showable{visibility:hidden}#chart-be2ca91a-0cfc-4325-bda0-1bb0be77008e .showable.shown{visibility:visible}#chart-be2ca91a-0cfc-4325-bda0-1bb0be77008e .gauge-background{fill:rgba(229,229,229,1);stroke:none}#chart-be2ca91a-0cfc-4325-bda0-1bb0be77008e .bg-lines{stroke:rgba(249,249,249,1);stroke-width:2px}</style><script type="text/javascript">window.pygal = window.pygal || {};window.pygal.config = window.pygal.config || {};window.pygal.config['be2ca91a-0cfc-4325-bda0-1bb0be77008e'] = {"css": ["file://style.css", "file://graph.css"], "include_x_axis": false, "min_scale": 4, "print_zeroes": true, "show_x_labels": true, "stroke": true, "show_minor_y_labels": true, "inner_radius": 0, "fill": false, "pretty_print": false, "js": ["//kozea.github.io/pygal.js/2.0.x/pygal-tooltips.min.js"], "x_labels": ["-8.96", "-8.76", "-8.56", "-8.36", "-8.16", "-7.96", "-7.76", "-7.56", "-7.36", "-7.16", "-6.96", "-6.76", "-6.56", "-6.36", "-6.16", "-5.96", "-5.76", "-5.56", "-5.36", "-5.16", "-4.96", "-4.76", "-4.56", "-4.36", "-4.16", "-3.96", "-3.76", "-3.56", "-3.36", "-3.16", "-2.96", "-2.76", "-2.56", "-2.36", "-2.16", "-1.96", "-1.76", "-1.56", "-1.36", "-1.16", "-0.96", "-0.76", "-0.56", "-0.36", "-0.16", "0.04", "0.24", "0.44", "0.64", "0.84", "1.04", "1.24", "1.43", "1.63", "1.83", "2.03", "2.23", "2.43", "2.63", "2.83"], "logarithmic": false, "show_minor_x_labels": false, "formatter": null, "tooltip_fancy_mode": true, "defs": [], "stroke_style": null, "spacing": 10, "show_only_major_dots": false, "half_pie": false, "show_legend": true, "dynamic_print_values": false, "max_scale": 16, "explicit_size": false, "y_label_rotation": 0, "y_labels": null, "x_labels_major": null, "margin_top": null, "interpolation_precision": 250, "xrange": null, "order_min": null, "y_title": "Density", "title": "Iteration #12", "x_label_rotation": 60, "interpolation_parameters": {}, "stack_from_top": false, "truncate_legend": null, "x_title": "Observation", "show_y_guides": true, "no_prefix": false, "print_values_position": "center", "show_y_labels": true, "classes": ["pygal-chart"], "force_uri_protocol": "https", "x_labels_major_count": null, "allow_interruptions": false, "width": 800, "height": 600, "secondary_range": null, "box_mode": "extremes", "margin_left": null, "y_labels_major": null, "margin_right": null, "zero": 0, "dots_size": 2.5, "no_data_text": "No data", "show_dots": false, "range": [0, 0.27578580090479526], "truncate_label": null, "margin_bottom": null, "y_labels_major_every": null, "show_x_guides": false, "disable_xml_declaration": false, "print_values": false, "x_labels_major_every": 2, "print_labels": false, "y_labels_major_count": null, "interpolate": null, "legend_at_bottom": false, "style": {"value_font_size": 16, "tooltip_font_family": "Consolas, \"Liberation Mono\", Menlo, Courier, monospace", "major_label_font_family": "Consolas, \"Liberation Mono\", Menlo, Courier, monospace", "value_colors": [], "value_background": "rgba(229, 229, 229, 1)", "foreground_strong": "rgba(0, 0, 0, 1)", "opacity": ".7", "font_family": "Consolas, \"Liberation Mono\", Menlo, Courier, monospace", "label_font_size": 10, "transition": "150ms", "title_font_family": "Consolas, \"Liberation Mono\", Menlo, Courier, monospace", "background": "rgba(249, 249, 249, 1)", "stroke_opacity": ".8", "no_data_font_size": 64, "value_label_font_family": "Consolas, \"Liberation Mono\", Menlo, Courier, monospace", "value_label_font_size": 10, "value_font_family": "Consolas, \"Liberation Mono\", Menlo, Courier, monospace", "plot_background": "rgba(255, 255, 255, 1)", "colors": ["#909090", "#000000", "#ff0500", "#323299", "#a3413f", "#a3413f", "#a3413f", "#a3413f", "#a3413f", "#657fff", "#657fff", "#657fff", "#657fff", "#657fff"], "legend_font_size": 10, "guide_stroke_dasharray": "4,4", "major_label_font_size": 10, "stroke_opacity_hover": ".9", "major_guide_stroke_dasharray": "6,6", "opacity_hover": ".8", "no_data_font_family": "Consolas, \"Liberation Mono\", Menlo, Courier, monospace", "title_font_size": 16, "ci_colors": [], "foreground": "rgba(0, 0, 0, .87)", "foreground_subtle": "rgba(0, 0, 0, .54)", "legend_font_family": "Consolas, \"Liberation Mono\", Menlo, Courier, monospace", "label_font_family": "Consolas, \"Liberation Mono\", Menlo, Courier, monospace", "tooltip_font_size": 14}, "strict": false, "legend_box_size": 12, "tooltip_border_radius": 0, "margin": 20, "legends": ["Data", "GMM", "i=0", "i=1", "i=0 k=0", "i=0 k=1", "i=0 k=2", "i=0 k=3", "i=0 k=4", "i=1 k=0", "i=1 k=1", "i=1 k=2", "i=1 k=3", "i=1 k=4"], "inverse_y_axis": false, "legend_at_bottom_columns": null, "rounded_bars": null, "missing_value_fill_truncation": "x"}</script><script type="text/javascript" xlink:href="https://kozea.github.io/pygal.js/2.0.x/pygal-tooltips.min.js" /></defs><title>Iteration #12</title><g class="graph line-graph vertical"><rect class="background" height="600" width="800" x="0" y="0" /><g class="plot" transform="translate(144, 46)"><rect class="background" height="472.01923788646684" width="636.0" x="0" y="0" /><g class="axis y always_show"><g class="guides"><path class="axis major line" d="M0.000000 462.941945 h636.000000" /><text class="major" x="-5" y="466.44194485">0</text><title>0</title></g><g class="guides"><path class="guide line" d="M0.000000 430.027658 h636.000000" /><text class="" x="-5" y="433.527657724">0.02</text><title>0.02</title></g><g class="guides"><path class="guide line" d="M0.000000 397.113371 h636.000000" /><text class="" x="-5" y="400.613370598">0.04</text><title>0.04</title></g><g class="guides"><path class="guide line" d="M0.000000 364.199083 h636.000000" /><text class="" x="-5" y="367.699083472">0.06</text><title>0.06</title></g><g class="guides"><path class="guide line" d="M0.000000 331.284796 h636.000000" /><text class="" x="-5" y="334.784796346">0.08</text><title>0.08</title></g><g class="guides"><path class="guide line" d="M0.000000 298.370509 h636.000000" /><text class="" x="-5" y="301.87050922">0.1</text><title>0.1</title></g><g class="guides"><path class="guide line" d="M0.000000 265.456222 h636.000000" /><text class="" x="-5" y="268.956222094">0.12</text><title>0.12</title></g><g class="guides"><path class="guide line" d="M0.000000 232.541935 h636.000000" /><text class="" x="-5" y="236.041934968">0.14</text><title>0.14</title></g><g class="guides"><path class="guide line" d="M0.000000 199.627648 h636.000000" /><text class="" x="-5" y="203.127647841">0.16</text><title>0.16</title></g><g class="guides"><path class="guide line" d="M0.000000 166.713361 h636.000000" /><text class="" x="-5" y="170.213360715">0.18</text><title>0.18</title></g><g class="guides"><path class="guide line" d="M0.000000 133.799074 h636.000000" /><text class="" x="-5" y="137.299073589">0.2</text><title>0.2</title></g><g class="guides"><path class="guide line" d="M0.000000 100.884786 h636.000000" /><text class="" x="-5" y="104.384786463">0.22</text><title>0.22</title></g><g class="guides"><path class="guide line" d="M0.000000 67.970499 h636.000000" /><text class="" x="-5" y="71.4704993371">0.24</text><title>0.24</title></g><g class="guides"><path class="guide line" d="M0.000000 35.056212 h636.000000" /><text class="" x="-5" y="38.5562122111">0.26</text><title>0.26</title></g></g><g class="axis x"><g class="guides"><path class="major line" d="M12.230769 0.000000 v472.019238" /><text class="major" transform="rotate(60 12.230769 487.019238)" x="12.230769230769232" y="487.01923788646684">-8.96</text></g><g class="guides"><path class="major guide line" d="M32.960887 0.000000 v472.019238" /><text class="major" transform="rotate(60 32.960887 487.019238)" x="32.96088657105606" y="487.01923788646684">-8.56</text></g><g class="guides"><path class="major guide line" d="M53.691004 0.000000 v472.019238" /><text class="major" transform="rotate(60 53.691004 487.019238)" x="53.6910039113429" y="487.01923788646684">-8.16</text></g><g class="guides"><path class="major guide line" d="M74.421121 0.000000 v472.019238" /><text class="major" transform="rotate(60 74.421121 487.019238)" x="74.42112125162973" y="487.01923788646684">-7.76</text></g><g class="guides"><path class="major guide line" d="M95.151239 0.000000 v472.019238" /><text class="major" transform="rotate(60 95.151239 487.019238)" x="95.15123859191655" y="487.01923788646684">-7.36</text></g><g class="guides"><path class="major guide line" d="M115.881356 0.000000 v472.019238" /><text class="major" transform="rotate(60 115.881356 487.019238)" x="115.88135593220338" y="487.01923788646684">-6.96</text></g><g class="guides"><path class="major guide line" d="M136.611473 0.000000 v472.019238" /><text class="major" transform="rotate(60 136.611473 487.019238)" x="136.61147327249023" y="487.01923788646684">-6.56</text></g><g class="guides"><path class="major guide line" d="M157.341591 0.000000 v472.019238" /><text class="major" transform="rotate(60 157.341591 487.019238)" x="157.34159061277705" y="487.01923788646684">-6.16</text></g><g class="guides"><path class="major guide line" d="M178.071708 0.000000 v472.019238" /><text class="major" transform="rotate(60 178.071708 487.019238)" x="178.0717079530639" y="487.01923788646684">-5.76</text></g><g class="guides"><path class="major guide line" d="M198.801825 0.000000 v472.019238" /><text class="major" transform="rotate(60 198.801825 487.019238)" x="198.80182529335073" y="487.01923788646684">-5.36</text></g><g class="guides"><path class="major guide line" d="M219.531943 0.000000 v472.019238" /><text class="major" transform="rotate(60 219.531943 487.019238)" x="219.53194263363756" y="487.01923788646684">-4.96</text></g><g class="guides"><path class="major guide line" d="M240.262060 0.000000 v472.019238" /><text class="major" transform="rotate(60 240.262060 487.019238)" x="240.2620599739244" y="487.01923788646684">-4.56</text></g><g class="guides"><path class="major guide line" d="M260.992177 0.000000 v472.019238" /><text class="major" transform="rotate(60 260.992177 487.019238)" x="260.99217731421123" y="487.01923788646684">-4.16</text></g><g class="guides"><path class="major guide line" d="M281.722295 0.000000 v472.019238" /><text class="major" transform="rotate(60 281.722295 487.019238)" x="281.722294654498" y="487.01923788646684">-3.76</text></g><g class="guides"><path class="major guide line" d="M302.452412 0.000000 v472.019238" /><text class="major" transform="rotate(60 302.452412 487.019238)" x="302.4524119947849" y="487.01923788646684">-3.36</text></g><g class="guides"><path class="major guide line" d="M323.182529 0.000000 v472.019238" /><text class="major" transform="rotate(60 323.182529 487.019238)" x="323.1825293350717" y="487.01923788646684">-2.96</text></g><g class="guides"><path class="major guide line" d="M343.912647 0.000000 v472.019238" /><text class="major" transform="rotate(60 343.912647 487.019238)" x="343.91264667535853" y="487.01923788646684">-2.56</text></g><g class="guides"><path class="major guide line" d="M364.642764 0.000000 v472.019238" /><text class="major" transform="rotate(60 364.642764 487.019238)" x="364.64276401564535" y="487.01923788646684">-2.16</text></g><g class="guides"><path class="major guide line" d="M385.372881 0.000000 v472.019238" /><text class="major" transform="rotate(60 385.372881 487.019238)" x="385.37288135593224" y="487.01923788646684">-1.76</text></g><g class="guides"><path class="major guide line" d="M406.102999 0.000000 v472.019238" /><text class="major" transform="rotate(60 406.102999 487.019238)" x="406.102998696219" y="487.01923788646684">-1.36</text></g><g class="guides"><path class="major guide line" d="M426.833116 0.000000 v472.019238" /><text class="major" transform="rotate(60 426.833116 487.019238)" x="426.8331160365058" y="487.01923788646684">-0.96</text></g><g class="guides"><path class="major guide line" d="M447.563233 0.000000 v472.019238" /><text class="major" transform="rotate(60 447.563233 487.019238)" x="447.56323337679265" y="487.01923788646684">-0.56</text></g><g class="guides"><path class="major guide line" d="M468.293351 0.000000 v472.019238" /><text class="major" transform="rotate(60 468.293351 487.019238)" x="468.29335071707953" y="487.01923788646684">-0.16</text></g><g class="guides"><path class="major guide line" d="M489.023468 0.000000 v472.019238" /><text class="major" transform="rotate(60 489.023468 487.019238)" x="489.02346805736636" y="487.01923788646684">0.24</text></g><g class="guides"><path class="major guide line" d="M509.753585 0.000000 v472.019238" /><text class="major" transform="rotate(60 509.753585 487.019238)" x="509.75358539765324" y="487.01923788646684">0.64</text></g><g class="guides"><path class="major guide line" d="M530.483703 0.000000 v472.019238" /><text class="major" transform="rotate(60 530.483703 487.019238)" x="530.48370273794" y="487.01923788646684">1.04</text></g><g class="guides"><path class="major guide line" d="M551.213820 0.000000 v472.019238" /><text class="major" transform="rotate(60 551.213820 487.019238)" x="551.213820078227" y="487.01923788646684">1.43</text></g><g class="guides"><path class="major guide line" d="M571.943937 0.000000 v472.019238" /><text class="major" transform="rotate(60 571.943937 487.019238)" x="571.9439374185138" y="487.01923788646684">1.83</text></g><g class="guides"><path class="major guide line" d="M592.674055 0.000000 v472.019238" /><text class="major" transform="rotate(60 592.674055 487.019238)" x="592.6740547588006" y="487.01923788646684">2.23</text></g><g class="guides"><path class="major guide line" d="M613.404172 0.000000 v472.019238" /><text class="major" transform="rotate(60 613.404172 487.019238)" x="613.4041720990874" y="487.01923788646684">2.63</text></g></g><g class="series serie-0 color-0"><path class="line reactive" d="M12.230769 462.941945 L12.230769 462.019456 22.595828 462.941945 32.960887 461.096967 43.325945 462.019456 53.691004 459.251988 64.056063 462.019456 74.421121 458.329499 84.786180 462.019456 95.151239 458.329499 105.516297 462.019456 115.881356 448.182119 126.246415 460.174477 136.611473 457.407010 146.976532 457.407010 157.341591 451.872075 167.706649 448.182119 178.071708 454.639543 188.436767 445.414651 198.801825 442.647184 209.166884 436.189760 219.531943 437.112249 229.897001 392.832771 240.262060 396.522728 250.627119 376.227967 260.992177 355.933206 271.357236 351.320760 281.722295 325.491065 292.087353 277.521630 302.452412 283.056565 312.817471 202.800010 323.182529 188.040184 333.547588 169.590402 343.912647 123.465945 354.277705 95.791271 364.642764 67.194108 375.007823 82.876423 385.372881 60.736684 395.737940 80.108956 406.102999 29.372054 416.468057 9.077293 426.833116 70.884065 437.198175 69.039086 447.563233 41.364413 457.928292 40.441923 468.293351 91.178826 478.658409 140.993239 489.023468 214.792369 499.388527 259.071847 509.753585 321.801108 520.118644 364.235608 530.483703 408.515086 540.848761 430.654825 551.213820 448.182119 561.578879 455.562032 571.943937 458.329499 582.308996 458.329499 592.674055 462.019456 603.039113 462.941945 613.404172 462.019456 623.769231 462.941945" /></g><g class="series serie-1 color-1"><path class="line reactive nofill" d="M12.230769 462.862329 L22.595828 462.814323 32.960887 462.740897 43.325945 462.630688 53.691004 462.468371 64.056063 462.233827 74.421121 461.901371 84.786180 461.439174 95.151239 460.809046 105.516297 459.966752 115.881356 458.863014 126.246415 457.445282 136.611473 455.660194 146.976532 453.456350 157.341591 450.786662 167.706649 447.609000 178.071708 443.883381 188.436767 439.563621 198.801825 434.581577 209.166884 428.823226 219.531943 422.098100 229.897001 414.107004 240.262060 404.416894 250.627119 392.454788 260.992177 377.533225 271.357236 358.916769 281.722295 335.933427 292.087353 308.129525 302.452412 275.464708 312.817471 238.542034 323.182529 198.851209 333.547588 158.949009 343.912647 122.410483 354.277705 93.320270 364.642764 75.159076 375.007823 69.267034 385.372881 73.539347 395.737940 82.295596 406.102999 87.976171 416.468057 84.384931 426.833116 70.082054 437.198175 50.028710 447.563233 34.237394 457.928292 33.768756 468.293351 55.982982 478.658409 101.445069 489.023468 163.934388 499.388527 233.254741 509.753585 299.143733 520.118644 354.351153 530.483703 395.816591 540.848761 424.065811 551.213820 441.696772 561.578879 451.878192 571.943937 457.380310 582.308996 460.201809 592.674055 461.598335 603.039113 462.278456 613.404172 462.610354 623.769231 462.774663" /></g><g class="series serie-2 color-2"><path class="line reactive nofill" d="M12.230769 462.941945 L22.595828 462.941945 32.960887 462.941945 43.325945 462.941945 53.691004 462.941945 64.056063 462.941945 74.421121 462.941945 84.786180 462.941945 95.151239 462.941945 105.516297 462.941945 115.881356 462.941945 126.246415 462.941945 136.611473 462.941945 146.976532 462.941945 157.341591 462.941945 167.706649 462.941945 178.071708 462.941944 188.436767 462.941942 198.801825 462.941936 209.166884 462.941921 219.531943 462.941881 229.897001 462.941778 240.262060 462.941520 250.627119 462.940894 260.992177 462.939398 271.357236 462.935847 281.722295 462.927406 292.087353 462.907152 302.452412 462.857993 312.817471 462.738030 323.182529 462.447551 333.547588 461.761160 343.912647 460.204327 354.277705 456.862953 364.642764 450.154667 375.007823 437.672711 385.372881 416.315145 395.737940 382.953385 406.102999 335.754645 416.468057 275.891234 426.833116 208.878276 437.198175 144.537686 447.563233 94.962125 457.928292 70.860524 468.293351 77.761183 478.658409 113.921713 489.023468 171.034516 499.388527 237.340370 509.753585 301.552416 520.118644 355.812903 530.483703 396.726245 540.848761 424.641128 551.213820 442.062925 561.578879 452.110750 571.943937 457.526837 582.308996 460.293039 592.674055 461.654330 603.039113 462.312290 613.404172 462.630463 623.769231 462.786414" /></g><g class="series serie-3 color-3"><path class="line reactive nofill" d="M12.230769 462.862329 L22.595828 462.814323 32.960887 462.740897 43.325945 462.630688 53.691004 462.468371 64.056063 462.233827 74.421121 461.901371 84.786180 461.439174 95.151239 460.809046 105.516297 459.966752 115.881356 458.863014 126.246415 457.445282 136.611473 455.660194 146.976532 453.456350 157.341591 450.786662 167.706649 447.609000 178.071708 443.883382 188.436767 439.563624 198.801825 434.581585 209.166884 428.823250 219.531943 422.098163 229.897001 414.107171 240.262060 404.417318 250.627119 392.455839 260.992177 377.535772 271.357236 358.922868 281.722295 335.947966 292.087353 308.164317 302.452412 275.548660 312.817471 238.745949 323.182529 199.345602 333.547588 160.129793 343.912647 125.148101 354.277705 99.399263 364.642764 87.946353 375.007823 94.536268 385.372881 120.166147 395.737940 162.284156 406.102999 215.163470 416.468057 271.435642 426.833116 324.145723 437.198175 368.432969 447.563233 402.217214 457.928292 425.850177 468.293351 441.163743 478.658409 450.465302 489.023468 455.841817 499.388527 458.856316 509.753585 460.533262 520.118644 461.480195 530.483703 462.032291 540.848761 462.366628 551.213820 462.575792 561.578879 462.709387 571.943937 462.795417 582.308996 462.850715 592.674055 462.885950 603.039113 462.908111 613.404172 462.921836 623.769231 462.930193" /></g><g class="series serie-4 color-4"><path class="line reactive nofill" d="M12.230769 462.941945 L22.595828 462.941945 32.960887 462.941945 43.325945 462.941945 53.691004 462.941945 64.056063 462.941945 74.421121 462.941945 84.786180 462.941945 95.151239 462.941945 105.516297 462.941945 115.881356 462.941945 126.246415 462.941945 136.611473 462.941945 146.976532 462.941945 157.341591 462.941945 167.706649 462.941945 178.071708 462.941945 188.436767 462.941945 198.801825 462.941945 209.166884 462.941945 219.531943 462.941945 229.897001 462.941945 240.262060 462.941944 250.627119 462.941942 260.992177 462.941927 271.357236 462.941853 281.722295 462.941510 292.087353 462.940056 302.452412 462.934442 312.817471 462.914646 323.182529 462.850989 333.547588 462.664420 343.912647 462.166504 354.277705 460.957798 364.642764 458.292761 375.007823 452.965921 385.372881 443.339239 395.737940 427.668130 406.102999 404.816451 416.468057 375.230006 426.833116 341.734693 437.198175 309.559263 447.563233 285.195108 457.928292 274.314332 468.293351 279.631806 478.658409 299.807550 489.023468 329.993759 499.388527 363.722423 509.753585 395.132580 520.118644 420.503442 530.483703 438.619442 540.848761 450.176549 551.213820 456.806611 561.578879 460.241596 571.943937 461.853568 582.308996 462.540231 592.674055 462.806166 603.039113 462.899918 613.404172 462.930033 623.769231 462.938853" /></g><g class="series serie-5 color-5"><path class="line reactive nofill" d="M12.230769 462.941945 L22.595828 462.941945 32.960887 462.941945 43.325945 462.941945 53.691004 462.941945 64.056063 462.941945 74.421121 462.941945 84.786180 462.941945 95.151239 462.941945 105.516297 462.941945 115.881356 462.941945 126.246415 462.941945 136.611473 462.941945 146.976532 462.941945 157.341591 462.941945 167.706649 462.941945 178.071708 462.941945 188.436767 462.941945 198.801825 462.941945 209.166884 462.941945 219.531943 462.941945 229.897001 462.941945 240.262060 462.941944 250.627119 462.941940 260.992177 462.941920 271.357236 462.941829 281.722295 462.941443 292.087353 462.939945 302.452412 462.934596 312.817471 462.917076 323.182529 462.864424 333.547588 462.719359 343.912647 462.353250 354.277705 461.507787 364.642764 459.723713 375.007823 456.289964 385.372881 450.277148 395.737940 440.731412 406.102999 427.063532 416.468057 409.556733 426.833116 389.773769 437.198175 370.570660 447.563233 355.526867 457.928292 347.886542 468.293351 349.424583 478.658409 359.777258 489.023468 376.581803 499.388527 396.351927 509.753585 415.646597 520.118644 432.000455 530.483703 444.296295 540.848761 452.592255 551.213820 457.650301 561.578879 460.449833 571.943937 461.860865 582.308996 462.509967 592.674055 462.782952 603.039113 462.888042 613.404172 462.925112 623.769231 462.937103" /></g><g class="series serie-6 color-6"><path class="line reactive nofill" d="M12.230769 462.941945 L22.595828 462.941945 32.960887 462.941945 43.325945 462.941945 53.691004 462.941945 64.056063 462.941945 74.421121 462.941945 84.786180 462.941945 95.151239 462.941945 105.516297 462.941945 115.881356 462.941945 126.246415 462.941945 136.611473 462.941945 146.976532 462.941945 157.341591 462.941945 167.706649 462.941945 178.071708 462.941945 188.436767 462.941945 198.801825 462.941945 209.166884 462.941945 219.531943 462.941945 229.897001 462.941944 240.262060 462.941941 250.627119 462.941927 260.992177 462.941872 271.357236 462.941659 281.722295 462.940906 292.087353 462.938427 302.452412 462.930864 312.817471 462.909472 323.182529 462.853405 333.547588 462.717341 343.912647 462.411847 354.277705 461.777938 364.642764 460.563930 375.007823 458.421994 385.372881 454.948891 395.737940 449.791162 406.102999 442.811639 416.468057 434.273178 426.833116 424.955597 437.198175 416.113909 447.563233 409.233294 457.928292 405.630360 468.293351 406.043489 478.658409 410.386414 489.023468 417.777544 499.388527 426.831406 509.753585 436.080365 520.118644 444.351532 530.483703 450.971607 540.848761 455.770880 551.213820 458.945068 561.578879 460.869334 571.943937 461.942003 582.308996 462.493105 592.674055 462.754502 603.039113 462.869116 613.404172 462.915618 623.769231 462.933090" /></g><g class="series serie-7 color-7"><path class="line reactive nofill" d="M12.230769 462.941945 L22.595828 462.941945 32.960887 462.941945 43.325945 462.941945 53.691004 462.941945 64.056063 462.941945 74.421121 462.941945 84.786180 462.941945 95.151239 462.941945 105.516297 462.941945 115.881356 462.941945 126.246415 462.941945 136.611473 462.941945 146.976532 462.941945 157.341591 462.941945 167.706649 462.941945 178.071708 462.941945 188.436767 462.941945 198.801825 462.941945 209.166884 462.941944 219.531943 462.941943 229.897001 462.941937 240.262060 462.941917 250.627119 462.941849 260.992177 462.941635 271.357236 462.940995 281.722295 462.939198 292.087353 462.934458 302.452412 462.922704 312.817471 462.895317 323.182529 462.835393 333.547588 462.712350 343.912647 462.475446 354.277705 462.048172 364.642764 461.327248 375.007823 460.191252 385.372881 458.523386 395.737940 456.249164 406.102999 453.382781 416.468057 450.067733 426.833116 446.592284 437.198175 443.363227 447.563233 440.834062 457.928292 439.402434 468.293351 439.308060 478.658409 440.567092 489.023468 442.967595 499.388527 446.127888 509.753585 449.595679 520.118644 452.952660 530.483703 455.891826 540.848761 458.250076 551.213820 459.997640 561.578879 461.199709 571.943937 461.969828 582.308996 462.430478 592.674055 462.688196 603.039113 462.823237 613.404172 462.889580 623.769231 462.920163" /></g><g class="series serie-8 color-8"><path class="line reactive nofill" d="M12.230769 462.941945 L22.595828 462.941945 32.960887 462.941945 43.325945 462.941945 53.691004 462.941945 64.056063 462.941945 74.421121 462.941945 84.786180 462.941945 95.151239 462.941945 105.516297 462.941945 115.881356 462.941945 126.246415 462.941945 136.611473 462.941945 146.976532 462.941945 157.341591 462.941945 167.706649 462.941945 178.071708 462.941944 188.436767 462.941942 198.801825 462.941937 209.166884 462.941922 219.531943 462.941883 229.897001 462.941786 240.262060 462.941553 250.627119 462.941015 260.992177 462.939823 271.357236 462.937290 281.722295 462.932129 292.087353 462.922045 302.452412 462.903165 312.817471 462.869297 323.182529 462.811119 333.547588 462.715469 343.912647 462.565060 354.277705 462.339037 364.642764 462.014795 375.007823 461.571360 385.372881 460.994261 395.737940 460.281296 406.102999 459.448021 416.468057 458.531363 426.833116 457.589713 437.198175 456.698408 447.563233 455.940573 457.928292 455.394635 468.293351 455.121025 478.658409 455.151178 489.023468 455.481595 499.388527 456.074506 509.753585 456.864975 520.118644 457.772594 530.483703 458.714854 540.848761 459.619148 551.213820 460.431084 561.578879 461.118057 571.943937 461.668353 582.308996 462.087037 592.674055 462.390294 603.039113 462.599755 613.404172 462.737900 623.769231 462.824984" /></g><g class="series serie-9 color-9"><path class="line reactive nofill" d="M12.230769 462.941945 L22.595828 462.941945 32.960887 462.941945 43.325945 462.941945 53.691004 462.941945 64.056063 462.941945 74.421121 462.941945 84.786180 462.941945 95.151239 462.941945 105.516297 462.941945 115.881356 462.941945 126.246415 462.941945 136.611473 462.941945 146.976532 462.941945 157.341591 462.941945 167.706649 462.941945 178.071708 462.941945 188.436767 462.941943 198.801825 462.941934 209.166884 462.941885 219.531943 462.941652 229.897001 462.940637 240.262060 462.936642 250.627119 462.922409 260.992177 462.876554 271.357236 462.743103 281.722295 462.392639 292.087353 461.563363 302.452412 459.798803 312.817471 456.431529 323.182529 450.691083 333.547588 441.999002 343.912647 430.416599 354.277705 417.051815 364.642764 404.121297 375.007823 394.447794 385.372881 390.483282 395.737940 393.304904 406.102999 402.141962 416.468057 414.716110 426.833116 428.190792 437.198175 440.192446 447.563233 449.412263 457.928292 455.631959 468.293351 459.353894 478.658409 461.341967 489.023468 462.293785 499.388527 462.703403 509.753585 462.862190 520.118644 462.917720 530.483703 462.935260 540.848761 462.940269 551.213820 462.941563 561.578879 462.941866 571.943937 462.941930 582.308996 462.941942 592.674055 462.941944 603.039113 462.941945 613.404172 462.941945 623.769231 462.941945" /></g><g class="series serie-10 color-10"><path class="line reactive nofill" d="M12.230769 462.941945 L22.595828 462.941945 32.960887 462.941945 43.325945 462.941945 53.691004 462.941945 64.056063 462.941945 74.421121 462.941945 84.786180 462.941945 95.151239 462.941945 105.516297 462.941945 115.881356 462.941945 126.246415 462.941945 136.611473 462.941945 146.976532 462.941944 157.341591 462.941940 167.706649 462.941921 178.071708 462.941843 188.436767 462.941533 198.801825 462.940401 209.166884 462.936584 219.531943 462.924673 229.897001 462.890333 240.262060 462.798886 250.627119 462.574138 260.992177 462.064804 271.357236 461.001672 281.722295 458.960875 292.087353 455.365232 302.452412 449.566580 312.817471 441.040422 323.182529 429.676999 333.547588 416.077534 343.912647 401.700792 354.277705 388.710590 364.642764 379.482543 375.007823 375.904329 385.372881 378.747672 395.737940 387.397601 406.102999 400.068797 416.468057 414.405016 426.833116 428.186470 437.198175 439.857576 447.563233 448.720077 457.928292 454.814780 468.293351 458.634047 478.658409 460.823898 489.023468 461.976006 499.388527 462.533336 509.753585 462.781617 520.118644 462.883593 530.483703 462.922246 540.848761 462.935776 551.213820 462.940153 561.578879 462.941462 571.943937 462.941824 582.308996 462.941917 592.674055 462.941939 603.039113 462.941944 613.404172 462.941945 623.769231 462.941945" /></g><g class="series serie-11 color-11"><path class="line reactive nofill" d="M12.230769 462.941945 L22.595828 462.941945 32.960887 462.941945 43.325945 462.941945 53.691004 462.941945 64.056063 462.941945 74.421121 462.941945 84.786180 462.941945 95.151239 462.941944 105.516297 462.941942 115.881356 462.941935 126.246415 462.941908 136.611473 462.941814 146.976532 462.941503 157.341591 462.940533 167.706649 462.937687 178.071708 462.929823 188.436767 462.909366 198.801825 462.859288 209.166884 462.743978 219.531943 462.494354 229.897001 461.986635 240.262060 461.017160 250.627119 459.280985 260.992177 456.368664 271.357236 451.800434 281.722295 445.114849 292.087353 436.014713 302.452412 424.546699 312.817471 411.260125 323.182529 397.271076 333.547588 384.168047 343.912647 373.741600 354.277705 367.590926 364.642764 366.723405 375.007823 371.284699 385.372881 380.518748 395.737940 392.972774 406.102999 406.870905 416.468057 420.524441 426.833116 432.650065 437.198175 442.520712 447.563233 449.945867 457.928292 455.134350 468.293351 458.514055 478.658409 460.571384 489.023468 461.743881 499.388527 462.370357 509.753585 462.684514 520.118644 462.832495 530.483703 462.898017 540.848761 462.925301 551.213820 462.935992 561.578879 462.939935 571.943937 462.941304 582.308996 462.941752 592.674055 462.941890 603.039113 462.941930 613.404172 462.941941 623.769231 462.941944" /></g><g class="series serie-12 color-12"><path class="line reactive nofill" d="M12.230769 462.941945 L22.595828 462.941945 32.960887 462.941945 43.325945 462.941945 53.691004 462.941944 64.056063 462.941940 74.421121 462.941929 84.786180 462.941894 95.151239 462.941785 105.516297 462.941467 115.881356 462.940583 126.246415 462.938244 136.611473 462.932342 146.976532 462.918163 157.341591 462.885730 167.706649 462.815116 178.071708 462.668831 188.436767 462.380599 198.801825 461.840718 209.166884 460.879970 219.531943 459.256837 229.897001 456.655904 240.262060 452.707497 250.627119 447.037745 260.992177 439.352405 271.357236 429.546494 281.722295 417.817138 292.087353 404.744539 302.452412 391.302517 312.817471 378.771272 323.182529 368.551138 333.547588 361.909977 343.912647 359.725680 354.277705 362.295676 364.642764 369.270455 375.007823 379.731587 385.372881 392.390231 395.737940 405.846961 406.102999 418.840933 416.468057 430.428772 426.833116 440.063296 437.198175 447.575917 447.563233 453.091563 457.928292 456.914896 468.293351 459.422156 478.658409 460.979992 489.023468 461.898136 499.388527 462.411899 509.753585 462.685044 520.118644 462.823100 530.483703 462.889470 540.848761 462.919830 551.213820 462.933049 561.578879 462.938530 571.943937 462.940693 582.308996 462.941507 592.674055 462.941799 603.039113 462.941898 613.404172 462.941931 623.769231 462.941941" /></g><g class="series serie-13 color-13"><path class="line reactive nofill" d="M12.230769 462.862329 L22.595828 462.814323 32.960887 462.740897 43.325945 462.630688 53.691004 462.468372 64.056063 462.233832 74.421121 461.901387 84.786180 461.439225 95.151239 460.809207 105.516297 459.967233 115.881356 458.864385 126.246415 457.449020 136.611473 455.669928 146.976532 453.480575 157.341591 450.844294 167.706649 447.740110 178.071708 444.168721 188.436767 440.157963 198.801825 435.767024 209.166884 431.088613 219.531943 426.248426 229.897001 421.401442 240.262060 416.724912 250.627119 412.408341 260.992177 408.641125 271.357236 405.598944 281.722295 403.430245 292.087353 402.244250 302.452412 402.101840 312.817471 403.010380 323.182529 404.923085 333.547588 407.743014 343.912647 411.331208 354.277705 415.518035 364.642764 420.116434 375.007823 424.935638 385.372881 429.793994 395.737940 434.529695 406.102999 439.008652 416.468057 443.129083 426.833116 446.822879 437.198175 450.054096 447.563233 452.815223 457.928292 455.121971 468.293351 457.007371 478.658409 458.515839 489.023468 459.697788 499.388527 460.605100 509.753585 461.287677 520.118644 461.791066 530.483703 462.155078 540.848761 462.413231 551.213820 462.592814 561.578879 462.715374 571.943937 462.797445 582.308996 462.851376 592.674055 462.886157 603.039113 462.908174 613.404172 462.921854 623.769231 462.930199" /></g></g><g class="titles"><text class="title plot_title" x="400.0" y="26">Iteration #12</text><text class="title" x="462.0" y="580.0">Observation</text><text class="title" transform="rotate(-90 64.000000 282.009619)" x="64.0" y="308.0096189432334">Density</text></g><g class="plot overlay" transform="translate(144, 46)"><g class="series serie-0 color-0" /><g class="series serie-1 color-1" /><g class="series serie-2 color-2" /><g class="series serie-3 color-3" /><g class="series serie-4 color-4" /><g class="series serie-5 color-5" /><g class="series serie-6 color-6" /><g class="series serie-7 color-7" /><g class="series serie-8 color-8" /><g class="series serie-9 color-9" /><g class="series serie-10 color-10" /><g class="series serie-11 color-11" /><g class="series serie-12 color-12" /><g class="series serie-13 color-13" /></g><g class="plot text-overlay" transform="translate(144, 46)"><g class="series serie-0 color-0" /><g class="series serie-1 color-1" /><g class="series serie-2 color-2" /><g class="series serie-3 color-3" /><g class="series serie-4 color-4" /><g class="series serie-5 color-5" /><g class="series serie-6 color-6" /><g class="series serie-7 color-7" /><g class="series serie-8 color-8" /><g class="series serie-9 color-9" /><g class="series serie-10 color-10" /><g class="series serie-11 color-11" /><g class="series serie-12 color-12" /><g class="series serie-13 color-13" /></g><g class="plot tooltip-overlay" transform="translate(144, 46)"><g class="tooltip" style="opacity: 0" transform="translate(0 0)"><rect class="tooltip-box" height="0" rx="0" ry="0" width="0" /><g class="text" /></g></g><g class="legends" transform="translate(10, 56)"><g class="legend reactive activate-serie" id="activate-serie-0"><rect class="color-0 reactive" height="12" width="12" x="0.0" y="0.0" /><text x="17.0" y="9.0">Data</text></g><g class="legend reactive activate-serie" id="activate-serie-1"><rect class="color-1 reactive" height="12" width="12" x="0.0" y="18.0" /><text x="17.0" y="27.0">GMM</text></g><g class="legend reactive activate-serie" id="activate-serie-2"><rect class="color-2 reactive" height="12" width="12" x="0.0" y="36.0" /><text x="17.0" y="45.0">i=0</text></g><g class="legend reactive activate-serie" id="activate-serie-3"><rect class="color-3 reactive" height="12" width="12" x="0.0" y="54.0" /><text x="17.0" y="63.0">i=1</text></g><g class="legend reactive activate-serie" id="activate-serie-4"><rect class="color-4 reactive" height="12" width="12" x="0.0" y="72.0" /><text x="17.0" y="81.0">i=0 k=0</text></g><g class="legend reactive activate-serie" id="activate-serie-5"><rect class="color-5 reactive" height="12" width="12" x="0.0" y="90.0" /><text x="17.0" y="99.0">i=0 k=1</text></g><g class="legend reactive activate-serie" id="activate-serie-6"><rect class="color-6 reactive" height="12" width="12" x="0.0" y="108.0" /><text x="17.0" y="117.0">i=0 k=2</text></g><g class="legend reactive activate-serie" id="activate-serie-7"><rect class="color-7 reactive" height="12" width="12" x="0.0" y="126.0" /><text x="17.0" y="135.0">i=0 k=3</text></g><g class="legend reactive activate-serie" id="activate-serie-8"><rect class="color-8 reactive" height="12" width="12" x="0.0" y="144.0" /><text x="17.0" y="153.0">i=0 k=4</text></g><g class="legend reactive activate-serie" id="activate-serie-9"><rect class="color-9 reactive" height="12" width="12" x="0.0" y="162.0" /><text x="17.0" y="171.0">i=1 k=0</text></g><g class="legend reactive activate-serie" id="activate-serie-10"><rect class="color-10 reactive" height="12" width="12" x="0.0" y="180.0" /><text x="17.0" y="189.0">i=1 k=1</text></g><g class="legend reactive activate-serie" id="activate-serie-11"><rect class="color-11 reactive" height="12" width="12" x="0.0" y="198.0" /><text x="17.0" y="207.0">i=1 k=2</text></g><g class="legend reactive activate-serie" id="activate-serie-12"><rect class="color-12 reactive" height="12" width="12" x="0.0" y="216.0" /><text x="17.0" y="225.0">i=1 k=3</text></g><g class="legend reactive activate-serie" id="activate-serie-13"><rect class="color-13 reactive" height="12" width="12" x="0.0" y="234.0" /><text x="17.0" y="243.0">i=1 k=4</text></g></g><g class="legends" transform="translate(790, 56)" /></g></svg>