<?xml version='1.0' encoding='utf-8'?>
<svg xmlns:xlink="http://www.w3.org/1999/xlink" class="pygal-chart" id="chart-f7669a77-713f-4b66-9f09-abb688472975" viewBox="0 0 800 600" xmlns="http://www.w3.org/2000/svg"><!--Generated with pygal 2.4.0 (etree) ©Kozea 2012-2016 on 2018-01-17--><!--http://pygal.org--><!--http://github.com/Kozea/pygal--><defs><style type="text/css">#chart-f7669a77-713f-4b66-9f09-abb688472975{-webkit-user-select:none;-webkit-font-smoothing:antialiased;font-family:Consolas,"Liberation Mono",Menlo,Courier,monospace}#chart-f7669a77-713f-4b66-9f09-abb688472975 .title{font-family:Consolas,"Liberation Mono",Menlo,Courier,monospace;font-size:16px}#chart-f7669a77-713f-4b66-9f09-abb688472975 .legends .legend text{font-family:Consolas,"Liberation Mono",Menlo,Courier,monospace;font-size:10px}#chart-f7669a77-713f-4b66-9f09-abb688472975 .axis text{font-family:Consolas,"Liberation Mono",Menlo,Courier,monospace;font-size:10px}#chart-f7669a77-713f-4b66-9f09-abb688472975 .axis text.major{font-family:Consolas,"Liberation Mono",Menlo,Courier,monospace;font-size:10px}#chart-f7669a77-713f-4b66-9f09-abb688472975 .text-overlay text.value{font-family:Consolas,"Liberation Mono",Menlo,Courier,monospace;font-size:16px}#chart-f7669a77-713f-4b66-9f09-abb688472975 .text-overlay text.label{font-family:Consolas,"Liberation Mono",Menlo,Courier,monospace;font-size:10px}#chart-f7669a77-713f-4b66-9f09-abb688472975 .tooltip{font-family:Consolas,"Liberation Mono",Menlo,Courier,monospace;font-size:14px}#chart-f7669a77-713f-4b66-9f09-abb688472975 text.no_data{font-family:Consolas,"Liberation Mono",Menlo,Courier,monospace;font-size:64px}
#chart-f7669a77-713f-4b66-9f09-abb688472975{background-color:rgba(249,249,249,1)}#chart-f7669a77-713f-4b66-9f09-abb688472975 path,#chart-f7669a77-713f-4b66-9f09-abb688472975 line,#chart-f7669a77-713f-4b66-9f09-abb688472975 rect,#chart-f7669a77-713f-4b66-9f09-abb688472975 circle{-webkit-transition:150ms;-moz-transition:150ms;transition:150ms}#chart-f7669a77-713f-4b66-9f09-abb688472975 .graph &gt; .background{fill:rgba(249,249,249,1)}#chart-f7669a77-713f-4b66-9f09-abb688472975 .plot &gt; .background{fill:rgba(255,255,255,1)}#chart-f7669a77-713f-4b66-9f09-abb688472975 .graph{fill:rgba(0,0,0,.87)}#chart-f7669a77-713f-4b66-9f09-abb688472975 text.no_data{fill:rgba(0,0,0,1)}#chart-f7669a77-713f-4b66-9f09-abb688472975 .title{fill:rgba(0,0,0,1)}#chart-f7669a77-713f-4b66-9f09-abb688472975 .legends .legend text{fill:rgba(0,0,0,.87)}#chart-f7669a77-713f-4b66-9f09-abb688472975 .legends .legend:hover text{fill:rgba(0,0,0,1)}#chart-f7669a77-713f-4b66-9f09-abb688472975 .axis .line{stroke:rgba(0,0,0,1)}#chart-f7669a77-713f-4b66-9f09-abb688472975 .axis .guide.line{stroke:rgba(0,0,0,.54)}#chart-f7669a77-713f-4b66-9f09-abb688472975 .axis .major.line{stroke:rgba(0,0,0,.87)}#chart-f7669a77-713f-4b66-9f09-abb688472975 .axis text.major{fill:rgba(0,0,0,1)}#chart-f7669a77-713f-4b66-9f09-abb688472975 .axis.y .guides:hover .guide.line,#chart-f7669a77-713f-4b66-9f09-abb688472975 .line-graph .axis.x .guides:hover .guide.line,#chart-f7669a77-713f-4b66-9f09-abb688472975 .stackedline-graph .axis.x .guides:hover .guide.line,#chart-f7669a77-713f-4b66-9f09-abb688472975 .xy-graph .axis.x .guides:hover .guide.line{stroke:rgba(0,0,0,1)}#chart-f7669a77-713f-4b66-9f09-abb688472975 .axis .guides:hover text{fill:rgba(0,0,0,1)}#chart-f7669a77-713f-4b66-9f09-abb688472975 .reactive{fill-opacity:.7;stroke-opacity:.8}#chart-f7669a77-713f-4b66-9f09-abb688472975 .ci{stroke:rgba(0,0,0,.87)}#chart-f7669a77-713f-4b66-9f09-abb688472975 .reactive.active,#chart-f7669a77-713f-4b66-9f09-abb688472975 .active .reactive{fill-opacity:.8;stroke-opacity:.9;stroke-width:4}#chart-f7669a77-713f-4b66-9f09-abb688472975 .ci .reactive.active{stroke-width:1.5}#chart-f7669a77-713f-4b66-9f09-abb688472975 .series text{fill:rgba(0,0,0,1)}#chart-f7669a77-713f-4b66-9f09-abb688472975 .tooltip rect{fill:rgba(255,255,255,1);stroke:rgba(0,0,0,1);-webkit-transition:opacity 150ms;-moz-transition:opacity 150ms;transition:opacity 150ms}#chart-f7669a77-713f-4b66-9f09-abb688472975 .tooltip .label{fill:rgba(0,0,0,.87)}#chart-f7669a77-713f-4b66-9f09-abb688472975 .tooltip .label{fill:rgba(0,0,0,.87)}#chart-f7669a77-713f-4b66-9f09-abb688472975 .tooltip .legend{font-size:.8em;fill:rgba(0,0,0,.54)}#chart-f7669a77-713f-4b66-9f09-abb688472975 .tooltip .x_label{font-size:.6em;fill:rgba(0,0,0,1)}#chart-f7669a77-713f-4b66-9f09-abb688472975 .tooltip .xlink{font-size:.5em;text-decoration:underline}#chart-f7669a77-713f-4b66-9f09-abb688472975 .tooltip .value{font-size:1.5em}#chart-f7669a77-713f-4b66-9f09-abb688472975 .bound{font-size:.5em}#chart-f7669a77-713f-4b66-9f09-abb688472975 .max-value{font-size:.75em;fill:rgba(0,0,0,.54)}#chart-f7669a77-713f-4b66-9f09-abb688472975 .map-element{fill:rgba(255,255,255,1);stroke:rgba(0,0,0,.54) !important}#chart-f7669a77-713f-4b66-9f09-abb688472975 .map-element .reactive{fill-opacity:inherit;stroke-opacity:inherit}#chart-f7669a77-713f-4b66-9f09-abb688472975 .color-0,#chart-f7669a77-713f-4b66-9f09-abb688472975 .color-0 a:visited{stroke:#909090;fill:#909090}#chart-f7669a77-713f-4b66-9f09-abb688472975 .color-1,#chart-f7669a77-713f-4b66-9f09-abb688472975 .color-1 a:visited{stroke:#000000;fill:#000000}#chart-f7669a77-713f-4b66-9f09-abb688472975 .color-2,#chart-f7669a77-713f-4b66-9f09-abb688472975 .color-2 a:visited{stroke:#ff0500;fill:#ff0500}#chart-f7669a77-713f-4b66-9f09-abb688472975 .color-3,#chart-f7669a77-713f-4b66-9f09-abb688472975 .color-3 a:visited{stroke:#323299;fill:#323299}#chart-f7669a77-713f-4b66-9f09-abb688472975 .color-4,#chart-f7669a77-713f-4b66-9f09-abb688472975 .color-4 a:visited{stroke:#a3413f;fill:#a3413f}#chart-f7669a77-713f-4b66-9f09-abb688472975 .color-5,#chart-f7669a77-713f-4b66-9f09-abb688472975 .color-5 a:visited{stroke:#a3413f;fill:#a3413f}#chart-f7669a77-713f-4b66-9f09-abb688472975 .color-6,#chart-f7669a77-713f-4b66-9f09-abb688472975 .color-6 a:visited{stroke:#a3413f;fill:#a3413f}#chart-f7669a77-713f-4b66-9f09-abb688472975 .color-7,#chart-f7669a77-713f-4b66-9f09-abb688472975 .color-7 a:visited{stroke:#a3413f;fill:#a3413f}#chart-f7669a77-713f-4b66-9f09-abb688472975 .color-8,#chart-f7669a77-713f-4b66-9f09-abb688472975 .color-8 a:visited{stroke:#a3413f;fill:#a3413f}#chart-f7669a77-713f-4b66-9f09-abb688472975 .color-9,#chart-f7669a77-713f-4b66-9f09-abb688472975 .color-9 a:visited{stroke:#657fff;fill:#657fff}#chart-f7669a77-713f-4b66-9f09-abb688472975 .color-10,#chart-f7669a77-713f-4b66-9f09-abb688472975 .color-10 a:visited{stroke:#657fff;fill:#657fff}#chart-f7669a77-713f-4b66-9f09-abb688472975 .color-11,#chart-f7669a77-713f-4b66-9f09-abb688472975 .color-11 a:visited{stroke:#657fff;fill:#657fff}#chart-f7669a77-713f-4b66-9f09-abb688472975 .color-12,#chart-f7669a77-713f-4b66-9f09-abb688472975 .color-12 a:visited{stroke:#657fff;fill:#657fff}#chart-f7669a77-713f-4b66-9f09-abb688472975 .color-13,#chart-f7669a77-713f-4b66-9f09-abb688472975 .color-13 a:visited{stroke:#657fff;fill:#657fff}#chart-f7669a77-713f-4b66-9f09-abb688472975 .text-overlay .color-0 text{fill:black}#chart-f7669a77-713f-4b66-9f09-abb688472975 .text-overlay .color-1 text{fill:white}#chart-f7669a77-713f-4b66-9f09-abb688472975 .text-overlay .color-2 text{fill:black}#chart-f7669a77-713f-4b66-9f09-abb688472975 .text-overlay .color-3 text{fill:black}#chart-f7669a77-713f-4b66-9f09-abb688472975 .text-overlay .color-4 text{fill:black}#chart-f7669a77-713f-4b66-9f09-abb688472975 .text-overlay .color-5 text{fill:black}#chart-f7669a77-713f-4b66-9f09-abb688472975 .text-overlay .color-6 text{fill:black}#chart-f7669a77-713f-4b66-9f09-abb688472975 .text-overlay .color-7 text{fill:black}#chart-f7669a77-713f-4b66-9f09-abb688472975 .text-overlay .color-8 text{fill:black}#chart-f7669a77-713f-4b66-9f09-abb688472975 .text-overlay .color-9 text{fill:black}#chart-f7669a77-713f-4b66-9f09-abb688472975 .text-overlay .color-10 text{fill:black}#chart-f7669a77-713f-4b66-9f09-abb688472975 .text-overlay .color-11 text{fill:black}#chart-f7669a77-713f-4b66-9f09-abb688472975 .text-overlay .color-12 text{fill:black}#chart-f7669a77-713f-4b66-9f09-abb688472975 .text-overlay .color-13 text{fill:black}#chart-f7669a77-713f-4b66-9f09-abb688472975 .series.serie-1{stroke-width:5}#chart-f7669a77-713f-4b66-9f09-abb688472975 .series.serie-2{stroke-width:3}#chart-f7669a77-713f-4b66-9f09-abb688472975 .series.serie-3{stroke-width:3}#chart-f7669a77-713f-4b66-9f09-abb688472975 .series.serie-4{stroke-width:2;stroke-dasharray:2,2}#chart-f7669a77-713f-4b66-9f09-abb688472975 .series.serie-5{stroke-width:2;stroke-dasharray:2,2}#chart-f7669a77-713f-4b66-9f09-abb688472975 .series.serie-6{stroke-width:2;stroke-dasharray:2,2}#chart-f7669a77-713f-4b66-9f09-abb688472975 .series.serie-7{stroke-width:2;stroke-dasharray:2,2}#chart-f7669a77-713f-4b66-9f09-abb688472975 .series.serie-8{stroke-width:2;stroke-dasharray:2,2}#chart-f7669a77-713f-4b66-9f09-abb688472975 .series.serie-9{stroke-width:2;stroke-dasharray:2,2}#chart-f7669a77-713f-4b66-9f09-abb688472975 .series.serie-10{stroke-width:2;stroke-dasharray:2,2}#chart-f7669a77-713f-4b66-9f09-abb688472975 .series.serie-11{stroke-width:2;stroke-dasharray:2,2}#chart-f7669a77-713f-4b66-9f09-abb688472975 .series.serie-12{stroke-width:2;stroke-dasharray:2,2}#chart-f7669a77-713f-4b66-9f09-abb688472975 .series.serie-13{stroke-width:2;stroke-dasharray:2,2}
#chart-f7669a77-713f-4b66-9f09-abb688472975 text.no_data{text-anchor:middle}#chart-f7669a77-713f-4b66-9f09-abb688472975 .guide.line{fill:none}#chart-f7669a77-713f-4b66-9f09-abb688472975 .centered{text-anchor:middle}#chart-f7669a77-713f-4b66-9f09-abb688472975 .title{text-anchor:middle}#chart-f7669a77-713f-4b66-9f09-abb688472975 .legends .legend text{fill-opacity:1}#chart-f7669a77-713f-4b66-9f09-abb688472975 .axis.x text{text-anchor:middle}#chart-f7669a77-713f-4b66-9f09-abb688472975 .axis.x:not(.web) text[transform]{text-anchor:start}#chart-f7669a77-713f-4b66-9f09-abb688472975 .axis.x:not(.web) text[transform].backwards{text-anchor:end}#chart-f7669a77-713f-4b66-9f09-abb688472975 .axis.y text{text-anchor:end}#chart-f7669a77-713f-4b66-9f09-abb688472975 .axis.y text[transform].backwards{text-anchor:start}#chart-f7669a77-713f-4b66-9f09-abb688472975 .axis.y2 text{text-anchor:start}#chart-f7669a77-713f-4b66-9f09-abb688472975 .axis.y2 text[transform].backwards{text-anchor:end}#chart-f7669a77-713f-4b66-9f09-abb688472975 .axis .guide.line{stroke-dasharray:4,4}#chart-f7669a77-713f-4b66-9f09-abb688472975 .axis .major.guide.line{stroke-dasharray:6,6}#chart-f7669a77-713f-4b66-9f09-abb688472975 .horizontal .axis.y .guide.line,#chart-f7669a77-713f-4b66-9f09-abb688472975 .horizontal .axis.y2 .guide.line,#chart-f7669a77-713f-4b66-9f09-abb688472975 .vertical .axis.x .guide.line{opacity:0}#chart-f7669a77-713f-4b66-9f09-abb688472975 .horizontal .axis.always_show .guide.line,#chart-f7669a77-713f-4b66-9f09-abb688472975 .vertical .axis.always_show .guide.line{opacity:1 !important}#chart-f7669a77-713f-4b66-9f09-abb688472975 .axis.y .guides:hover .guide.line,#chart-f7669a77-713f-4b66-9f09-abb688472975 .axis.y2 .guides:hover .guide.line,#chart-f7669a77-713f-4b66-9f09-abb688472975 .axis.x .guides:hover .guide.line{opacity:1}#chart-f7669a77-713f-4b66-9f09-abb688472975 .axis .guides:hover text{opacity:1}#chart-f7669a77-713f-4b66-9f09-abb688472975 .nofill{fill:none}#chart-f7669a77-713f-4b66-9f09-abb688472975 .subtle-fill{fill-opacity:.2}#chart-f7669a77-713f-4b66-9f09-abb688472975 .dot{stroke-width:1px;fill-opacity:1}#chart-f7669a77-713f-4b66-9f09-abb688472975 .dot.active{stroke-width:5px}#chart-f7669a77-713f-4b66-9f09-abb688472975 .dot.negative{fill:transparent}#chart-f7669a77-713f-4b66-9f09-abb688472975 text,#chart-f7669a77-713f-4b66-9f09-abb688472975 tspan{stroke:none !important}#chart-f7669a77-713f-4b66-9f09-abb688472975 .series text.active{opacity:1}#chart-f7669a77-713f-4b66-9f09-abb688472975 .tooltip rect{fill-opacity:.95;stroke-width:.5}#chart-f7669a77-713f-4b66-9f09-abb688472975 .tooltip text{fill-opacity:1}#chart-f7669a77-713f-4b66-9f09-abb688472975 .showable{visibility:hidden}#chart-f7669a77-713f-4b66-9f09-abb688472975 .showable.shown{visibility:visible}#chart-f7669a77-713f-4b66-9f09-abb688472975 .gauge-background{fill:rgba(229,229,229,1);stroke:none}#chart-f7669a77-713f-4b66-9f09-abb688472975 .bg-lines{stroke:rgba(249,249,249,1);stroke-width:2px}</style><script type="text/javascript">window.pygal = window.pygal || {};window.pygal.config = window.pygal.config || {};window.pygal.config['f7669a77-713f-4b66-9f09-abb688472975'] = {"disable_xml_declaration": false, "css": ["file://style.css", "file://graph.css"], "show_y_labels": true, "show_y_guides": true, "stroke": true, "force_uri_protocol": "https", "legend_at_bottom": false, "truncate_legend": null, "tooltip_border_radius": 0, "explicit_size": false, "show_dots": false, "inverse_y_axis": false, "x_label_rotation": 60, "margin_left": null, "box_mode": "extremes", "zero": 0, "no_data_text": "No data", "show_legend": true, "legend_at_bottom_columns": null, "logarithmic": false, "order_min": null, "height": 600, "y_title": "Density", "range": [0, 0.27578580090479526], "stroke_style": null, "rounded_bars": null, "print_values_position": "center", "xrange": null, "y_label_rotation": 0, "defs": [], "y_labels_major_count": null, "no_prefix": false, "pretty_print": false, "dots_size": 2.5, "half_pie": false, "secondary_range": null, "x_labels_major_count": null, "interpolation_precision": 250, "interpolate": null, "truncate_label": null, "margin_right": null, "x_labels_major_every": 2, "x_labels": ["-8.96", "-8.76", "-8.56", "-8.36", "-8.16", "-7.96", "-7.76", "-7.56", "-7.36", "-7.16", "-6.96", "-6.76", "-6.56", "-6.36", "-6.16", "-5.96", "-5.76", "-5.56", "-5.36", "-5.16", "-4.96", "-4.76", "-4.56", "-4.36", "-4.16", "-3.96", "-3.76", "-3.56", "-3.36", "-3.16", "-2.96", "-2.76", "-2.56", "-2.36", "-2.16", "-1.96", "-1.76", "-1.56", "-1.36", "-1.16", "-0.96", "-0.76", "-0.56", "-0.36", "-0.16", "0.04", "0.24", "0.44", "0.64", "0.84", "1.04", "1.24", "1.43", "1.63", "1.83", "2.03", "2.23", "2.43", "2.63", "2.83"], "include_x_axis": false, "width": 800, "show_x_guides": false, "formatter": null, "show_minor_x_labels": false, "spacing": 10, "stack_from_top": false, "legend_box_size": 12, "strict": false, "classes": ["pygal-chart"], "js": ["//kozea.github.io/pygal.js/2.0.x/pygal-tooltips.min.js"], "show_x_labels": true, "x_title": "Observation", "print_values": false, "title": "Iteration #11", "dynamic_print_values": false, "max_scale": 16, "margin": 20, "legends": ["Data", "GMM", "i=0", "i=1", "i=0 k=0", "i=0 k=1", "i=0 k=2", "i=0 k=3", "i=0 k=4", "i=1 k=0", "i=1 k=1", "i=1 k=2", "i=1 k=3", "i=1 k=4"], "interpolation_parameters": {}, "allow_interruptions": false, "min_scale": 4, "style": {"transition": "150ms", "label_font_size": 10, "major_label_font_size": 10, "value_colors": [], "title_font_family": "Consolas, \"Liberation Mono\", Menlo, Courier, monospace", "value_font_family": "Consolas, \"Liberation Mono\", Menlo, Courier, monospace", "no_data_font_size": 64, "guide_stroke_dasharray": "4,4", "tooltip_font_size": 14, "tooltip_font_family": "Consolas, \"Liberation Mono\", Menlo, Courier, monospace", "background": "rgba(249, 249, 249, 1)", "value_label_font_family": "Consolas, \"Liberation Mono\", Menlo, Courier, monospace", "stroke_opacity_hover": ".9", "ci_colors": [], "value_font_size": 16, "plot_background": "rgba(255, 255, 255, 1)", "label_font_family": "Consolas, \"Liberation Mono\", Menlo, Courier, monospace", "foreground": "rgba(0, 0, 0, .87)", "major_label_font_family": "Consolas, \"Liberation Mono\", Menlo, Courier, monospace", "stroke_opacity": ".8", "colors": ["#909090", "#000000", "#ff0500", "#323299", "#a3413f", "#a3413f", "#a3413f", "#a3413f", "#a3413f", "#657fff", "#657fff", "#657fff", "#657fff", "#657fff"], "value_label_font_size": 10, "value_background": "rgba(229, 229, 229, 1)", "no_data_font_family": "Consolas, \"Liberation Mono\", Menlo, Courier, monospace", "legend_font_size": 10, "foreground_strong": "rgba(0, 0, 0, 1)", "legend_font_family": "Consolas, \"Liberation Mono\", Menlo, Courier, monospace", "title_font_size": 16, "foreground_subtle": "rgba(0, 0, 0, .54)", "major_guide_stroke_dasharray": "6,6", "font_family": "Consolas, \"Liberation Mono\", Menlo, Courier, monospace", "opacity_hover": ".8", "opacity": ".7"}, "margin_top": null, "x_labels_major": null, "print_zeroes": true, "y_labels": null, "fill": false, "y_labels_major_every": null, "inner_radius": 0, "margin_bottom": null, "show_only_major_dots": false, "missing_value_fill_truncation": "x", "y_labels_major": null, "tooltip_fancy_mode": true, "show_minor_y_labels": true, "print_labels": false}</script><script type="text/javascript" xlink:href="https://kozea.github.io/pygal.js/2.0.x/pygal-tooltips.min.js" /></defs><title>Iteration #11</title><g class="graph line-graph vertical"><rect class="background" height="600" width="800" x="0" y="0" /><g class="plot" transform="translate(144, 46)"><rect class="background" height="472.01923788646684" width="636.0" x="0" y="0" /><g class="axis y always_show"><g class="guides"><path class="axis major line" d="M0.000000 462.941945 h636.000000" /><text class="major" x="-5" y="466.44194485">0</text><title>0</title></g><g class="guides"><path class="guide line" d="M0.000000 430.027658 h636.000000" /><text class="" x="-5" y="433.527657724">0.02</text><title>0.02</title></g><g class="guides"><path class="guide line" d="M0.000000 397.113371 h636.000000" /><text class="" x="-5" y="400.613370598">0.04</text><title>0.04</title></g><g class="guides"><path class="guide line" d="M0.000000 364.199083 h636.000000" /><text class="" x="-5" y="367.699083472">0.06</text><title>0.06</title></g><g class="guides"><path class="guide line" d="M0.000000 331.284796 h636.000000" /><text class="" x="-5" y="334.784796346">0.08</text><title>0.08</title></g><g class="guides"><path class="guide line" d="M0.000000 298.370509 h636.000000" /><text class="" x="-5" y="301.87050922">0.1</text><title>0.1</title></g><g class="guides"><path class="guide line" d="M0.000000 265.456222 h636.000000" /><text class="" x="-5" y="268.956222094">0.12</text><title>0.12</title></g><g class="guides"><path class="guide line" d="M0.000000 232.541935 h636.000000" /><text class="" x="-5" y="236.041934968">0.14</text><title>0.14</title></g><g class="guides"><path class="guide line" d="M0.000000 199.627648 h636.000000" /><text class="" x="-5" y="203.127647841">0.16</text><title>0.16</title></g><g class="guides"><path class="guide line" d="M0.000000 166.713361 h636.000000" /><text class="" x="-5" y="170.213360715">0.18</text><title>0.18</title></g><g class="guides"><path class="guide line" d="M0.000000 133.799074 h636.000000" /><text class="" x="-5" y="137.299073589">0.2</text><title>0.2</title></g><g class="guides"><path class="guide line" d="M0.000000 100.884786 h636.000000" /><text class="" x="-5" y="104.384786463">0.22</text><title>0.22</title></g><g class="guides"><path class="guide line" d="M0.000000 67.970499 h636.000000" /><text class="" x="-5" y="71.4704993371">0.24</text><title>0.24</title></g><g class="guides"><path class="guide line" d="M0.000000 35.056212 h636.000000" /><text class="" x="-5" y="38.5562122111">0.26</text><title>0.26</title></g></g><g class="axis x"><g class="guides"><path class="major line" d="M12.230769 0.000000 v472.019238" /><text class="major" transform="rotate(60 12.230769 487.019238)" x="12.230769230769232" y="487.01923788646684">-8.96</text></g><g class="guides"><path class="major guide line" d="M32.960887 0.000000 v472.019238" /><text class="major" transform="rotate(60 32.960887 487.019238)" x="32.96088657105606" y="487.01923788646684">-8.56</text></g><g class="guides"><path class="major guide line" d="M53.691004 0.000000 v472.019238" /><text class="major" transform="rotate(60 53.691004 487.019238)" x="53.6910039113429" y="487.01923788646684">-8.16</text></g><g class="guides"><path class="major guide line" d="M74.421121 0.000000 v472.019238" /><text class="major" transform="rotate(60 74.421121 487.019238)" x="74.42112125162973" y="487.01923788646684">-7.76</text></g><g class="guides"><path class="major guide line" d="M95.151239 0.000000 v472.019238" /><text class="major" transform="rotate(60 95.151239 487.019238)" x="95.15123859191655" y="487.01923788646684">-7.36</text></g><g class="guides"><path class="major guide line" d="M115.881356 0.000000 v472.019238" /><text class="major" transform="rotate(60 115.881356 487.019238)" x="115.88135593220338" y="487.01923788646684">-6.96</text></g><g class="guides"><path class="major guide line" d="M136.611473 0.000000 v472.019238" /><text class="major" transform="rotate(60 136.611473 487.019238)" x="136.61147327249023" y="487.01923788646684">-6.56</text></g><g class="guides"><path class="major guide line" d="M157.341591 0.000000 v472.019238" /><text class="major" transform="rotate(60 157.341591 487.019238)" x="157.34159061277705" y="487.01923788646684">-6.16</text></g><g class="guides"><path class="major guide line" d="M178.071708 0.000000 v472.019238" /><text class="major" transform="rotate(60 178.071708 487.019238)" x="178.0717079530639" y="487.01923788646684">-5.76</text></g><g class="guides"><path class="major guide line" d="M198.801825 0.000000 v472.019238" /><text class="major" transform="rotate(60 198.801825 487.019238)" x="198.80182529335073" y="487.01923788646684">-5.36</text></g><g class="guides"><path class="major guide line" d="M219.531943 0.000000 v472.019238" /><text class="major" transform="rotate(60 219.531943 487.019238)" x="219.53194263363756" y="487.01923788646684">-4.96</text></g><g class="guides"><path class="major guide line" d="M240.262060 0.000000 v472.019238" /><text class="major" transform="rotate(60 240.262060 487.019238)" x="240.2620599739244" y="487.01923788646684">-4.56</text></g><g class="guides"><path class="major guide line" d="M260.992177 0.000000 v472.019238" /><text class="major" transform="rotate(60 260.992177 487.019238)" x="260.99217731421123" y="487.01923788646684">-4.16</text></g><g class="guides"><path class="major guide line" d="M281.722295 0.000000 v472.019238" /><text class="major" transform="rotate(60 281.722295 487.019238)" x="281.722294654498" y="487.01923788646684">-3.76</text></g><g class="guides"><path class="major guide line" d="M302.452412 0.000000 v472.019238" /><text class="major" transform="rotate(60 302.452412 487.019238)" x="302.4524119947849" y="487.01923788646684">-3.36</text></g><g class="guides"><path class="major guide line" d="M323.182529 0.000000 v472.019238" /><text class="major" transform="rotate(60 323.182529 487.019238)" x="323.1825293350717" y="487.01923788646684">-2.96</text></g><g class="guides"><path class="major guide line" d="M343.912647 0.000000 v472.019238" /><text class="major" transform="rotate(60 343.912647 487.019238)" x="343.91264667535853" y="487.01923788646684">-2.56</text></g><g class="guides"><path class="major guide line" d="M364.642764 0.000000 v472.019238" /><text class="major" transform="rotate(60 364.642764 487.019238)" x="364.64276401564535" y="487.01923788646684">-2.16</text></g><g class="guides"><path class="major guide line" d="M385.372881 0.000000 v472.019238" /><text class="major" transform="rotate(60 385.372881 487.019238)" x="385.37288135593224" y="487.01923788646684">-1.76</text></g><g class="guides"><path class="major guide line" d="M406.102999 0.000000 v472.019238" /><text class="major" transform="rotate(60 406.102999 487.019238)" x="406.102998696219" y="487.01923788646684">-1.36</text></g><g class="guides"><path class="major guide line" d="M426.833116 0.000000 v472.019238" /><text class="major" transform="rotate(60 426.833116 487.019238)" x="426.8331160365058" y="487.01923788646684">-0.96</text></g><g class="guides"><path class="major guide line" d="M447.563233 0.000000 v472.019238" /><text class="major" transform="rotate(60 447.563233 487.019238)" x="447.56323337679265" y="487.01923788646684">-0.56</text></g><g class="guides"><path class="major guide line" d="M468.293351 0.000000 v472.019238" /><text class="major" transform="rotate(60 468.293351 487.019238)" x="468.29335071707953" y="487.01923788646684">-0.16</text></g><g class="guides"><path class="major guide line" d="M489.023468 0.000000 v472.019238" /><text class="major" transform="rotate(60 489.023468 487.019238)" x="489.02346805736636" y="487.01923788646684">0.24</text></g><g class="guides"><path class="major guide line" d="M509.753585 0.000000 v472.019238" /><text class="major" transform="rotate(60 509.753585 487.019238)" x="509.75358539765324" y="487.01923788646684">0.64</text></g><g class="guides"><path class="major guide line" d="M530.483703 0.000000 v472.019238" /><text class="major" transform="rotate(60 530.483703 487.019238)" x="530.48370273794" y="487.01923788646684">1.04</text></g><g class="guides"><path class="major guide line" d="M551.213820 0.000000 v472.019238" /><text class="major" transform="rotate(60 551.213820 487.019238)" x="551.213820078227" y="487.01923788646684">1.43</text></g><g class="guides"><path class="major guide line" d="M571.943937 0.000000 v472.019238" /><text class="major" transform="rotate(60 571.943937 487.019238)" x="571.9439374185138" y="487.01923788646684">1.83</text></g><g class="guides"><path class="major guide line" d="M592.674055 0.000000 v472.019238" /><text class="major" transform="rotate(60 592.674055 487.019238)" x="592.6740547588006" y="487.01923788646684">2.23</text></g><g class="guides"><path class="major guide line" d="M613.404172 0.000000 v472.019238" /><text class="major" transform="rotate(60 613.404172 487.019238)" x="613.4041720990874" y="487.01923788646684">2.63</text></g></g><g class="series serie-0 color-0"><path class="line reactive" d="M12.230769 462.941945 L12.230769 462.019456 22.595828 462.941945 32.960887 461.096967 43.325945 462.019456 53.691004 459.251988 64.056063 462.019456 74.421121 458.329499 84.786180 462.019456 95.151239 458.329499 105.516297 462.019456 115.881356 448.182119 126.246415 460.174477 136.611473 457.407010 146.976532 457.407010 157.341591 451.872075 167.706649 448.182119 178.071708 454.639543 188.436767 445.414651 198.801825 442.647184 209.166884 436.189760 219.531943 437.112249 229.897001 392.832771 240.262060 396.522728 250.627119 376.227967 260.992177 355.933206 271.357236 351.320760 281.722295 325.491065 292.087353 277.521630 302.452412 283.056565 312.817471 202.800010 323.182529 188.040184 333.547588 169.590402 343.912647 123.465945 354.277705 95.791271 364.642764 67.194108 375.007823 82.876423 385.372881 60.736684 395.737940 80.108956 406.102999 29.372054 416.468057 9.077293 426.833116 70.884065 437.198175 69.039086 447.563233 41.364413 457.928292 40.441923 468.293351 91.178826 478.658409 140.993239 489.023468 214.792369 499.388527 259.071847 509.753585 321.801108 520.118644 364.235608 530.483703 408.515086 540.848761 430.654825 551.213820 448.182119 561.578879 455.562032 571.943937 458.329499 582.308996 458.329499 592.674055 462.019456 603.039113 462.941945 613.404172 462.019456 623.769231 462.941945" /></g><g class="series serie-1 color-1"><path class="line reactive nofill" d="M12.230769 462.911908 L22.595828 462.889737 32.960887 462.852976 43.325945 462.793290 53.691004 462.698414 64.056063 462.550780 74.421121 462.325920 84.786180 461.990748 95.151239 461.501904 105.516297 460.804415 115.881356 459.831068 126.246415 458.502929 136.611473 456.731462 146.976532 454.422679 157.341591 451.483479 167.706649 447.829978 178.071708 443.396795 188.436767 438.145068 198.801825 432.065032 209.166884 425.166727 219.531943 417.450669 229.897001 408.851559 240.262060 399.155837 250.627119 387.910608 260.992177 374.365089 271.357236 357.505327 281.722295 336.240377 292.087353 309.756785 302.452412 277.976752 312.817471 241.957388 323.182529 204.004668 333.547588 167.313533 343.912647 135.130277 354.277705 109.710300 364.642764 91.547113 375.007823 79.350242 385.372881 71.012599 395.737940 65.134666 406.102999 61.651198 416.468057 60.334938 426.833116 58.812231 437.198175 53.911548 447.563233 46.645696 457.928292 45.176120 468.293351 60.907295 478.658409 100.485620 489.023468 160.921393 499.388527 231.425232 509.753585 299.407670 520.118644 355.850593 530.483703 397.306964 540.848761 424.832882 551.213820 441.689051 561.578879 451.400065 571.943937 456.766336 582.308996 459.660232 592.674055 461.203372 603.039113 462.023438 613.404172 462.458996 623.769231 462.690011" /></g><g class="series serie-2 color-2"><path class="line reactive nofill" d="M12.230769 462.941945 L22.595828 462.941945 32.960887 462.941945 43.325945 462.941945 53.691004 462.941945 64.056063 462.941945 74.421121 462.941945 84.786180 462.941945 95.151239 462.941945 105.516297 462.941945 115.881356 462.941945 126.246415 462.941945 136.611473 462.941945 146.976532 462.941945 157.341591 462.941945 167.706649 462.941945 178.071708 462.941945 188.436767 462.941944 198.801825 462.941942 209.166884 462.941938 219.531943 462.941925 229.897001 462.941892 240.262060 462.941803 250.627119 462.941575 260.992177 462.941003 271.357236 462.939602 281.722295 462.936230 292.087353 462.928238 302.452412 462.909517 312.817471 462.865978 323.182529 462.764998 333.547588 462.530963 343.912647 461.990484 354.277705 460.758609 364.642764 458.030410 375.007823 452.268805 385.372881 440.883210 395.737940 420.190243 406.102999 386.130190 416.468057 336.104298 426.833116 271.628638 437.198175 200.440805 447.563233 136.112878 457.928292 94.131101 468.293351 85.735524 478.658409 112.879897 489.023468 167.451232 499.388527 235.192499 509.753585 301.750029 520.118644 357.360981 530.483703 398.287535 540.848761 425.464026 551.213820 442.089107 561.578879 451.649111 571.943937 456.918442 582.308996 459.751337 592.674055 461.256879 603.039113 462.054250 613.404172 462.476393 623.769231 462.699641" /></g><g class="series serie-3 color-3"><path class="line reactive nofill" d="M12.230769 462.911908 L22.595828 462.889737 32.960887 462.852976 43.325945 462.793290 53.691004 462.698414 64.056063 462.550780 74.421121 462.325920 84.786180 461.990748 95.151239 461.501904 105.516297 460.804415 115.881356 459.831068 126.246415 458.502929 136.611473 456.731462 146.976532 454.422679 157.341591 451.483479 167.706649 447.829978 178.071708 443.396796 188.436767 438.145069 198.801825 432.065034 209.166884 425.166734 219.531943 417.450688 229.897001 408.851612 240.262060 399.155980 250.627119 387.910979 260.992177 374.366031 271.357236 357.507670 281.722295 336.246092 292.087353 309.770492 302.452412 278.009179 312.817471 242.033355 323.182529 204.181614 333.547588 167.724514 343.912647 136.081738 354.277705 111.893636 364.642764 96.458648 375.007823 90.023382 385.372881 93.071334 395.737940 107.886368 406.102999 138.462953 416.468057 187.172585 426.833116 250.125538 437.198175 316.412688 447.563233 373.474763 457.928292 413.986964 468.293351 438.113716 478.658409 450.547668 489.023468 456.412106 499.388527 459.174677 509.753585 460.599586 520.118644 461.431557 530.483703 461.961374 540.848761 462.310801 551.213820 462.541889 561.578879 462.692898 571.943937 462.789839 582.308996 462.850839 592.674055 462.888438 603.039113 462.911133 613.404172 462.924548 623.769231 462.932315" /></g><g class="series serie-4 color-4"><path class="line reactive nofill" d="M12.230769 462.941945 L22.595828 462.941945 32.960887 462.941945 43.325945 462.941945 53.691004 462.941945 64.056063 462.941945 74.421121 462.941945 84.786180 462.941945 95.151239 462.941945 105.516297 462.941945 115.881356 462.941945 126.246415 462.941945 136.611473 462.941945 146.976532 462.941945 157.341591 462.941945 167.706649 462.941945 178.071708 462.941945 188.436767 462.941945 198.801825 462.941945 209.166884 462.941945 219.531943 462.941945 229.897001 462.941945 240.262060 462.941945 250.627119 462.941945 260.992177 462.941945 271.357236 462.941944 281.722295 462.941937 292.087353 462.941892 302.452412 462.941627 312.817471 462.940230 323.182529 462.933686 333.547588 462.906368 343.912647 462.804892 354.277705 462.469795 364.642764 461.487326 375.007823 458.934253 385.372881 453.067435 395.737940 441.184249 406.102999 420.068700 416.468057 387.391689 426.833116 343.883103 437.198175 295.152944 447.563233 251.475509 457.928292 224.602717 468.293351 222.712779 478.658409 246.404971 489.023468 288.394089 499.388527 337.115161 509.753585 381.825707 520.118644 416.177194 530.483703 438.831481 540.848761 451.825430 551.213820 458.358333 561.578879 461.251803 571.943937 462.384612 582.308996 462.777590 592.674055 462.898601 603.039113 462.931723 613.404172 462.939789 623.769231 462.941538" /></g><g class="series serie-5 color-5"><path class="line reactive nofill" d="M12.230769 462.941945 L22.595828 462.941945 32.960887 462.941945 43.325945 462.941945 53.691004 462.941945 64.056063 462.941945 74.421121 462.941945 84.786180 462.941945 95.151239 462.941945 105.516297 462.941945 115.881356 462.941945 126.246415 462.941945 136.611473 462.941945 146.976532 462.941945 157.341591 462.941945 167.706649 462.941945 178.071708 462.941945 188.436767 462.941945 198.801825 462.941945 209.166884 462.941945 219.531943 462.941945 229.897001 462.941945 240.262060 462.941945 250.627119 462.941944 260.992177 462.941938 271.357236 462.941912 281.722295 462.941793 292.087353 462.941302 302.452412 462.939446 312.817471 462.932993 323.182529 462.912397 333.547588 462.852100 343.912647 462.690275 354.277705 462.292510 364.642764 461.398090 375.007823 459.560955 385.372881 456.120941 395.737940 450.264856 406.102999 441.237055 416.468057 428.707568 426.833116 413.198701 437.198175 396.357529 447.563233 380.835377 457.928292 369.670217 468.293351 365.333147 478.658409 368.840840 489.023468 379.368693 499.388527 394.565472 509.753585 411.405684 520.118644 427.158188 530.483703 440.053000 540.848761 449.454414 551.213820 455.620346 561.578879 459.280553 571.943937 461.255185 582.308996 462.226086 592.674055 462.662067 603.039113 462.841141 613.404172 462.908498 623.769231 462.931722" /></g><g class="series serie-6 color-6"><path class="line reactive nofill" d="M12.230769 462.941945 L22.595828 462.941945 32.960887 462.941945 43.325945 462.941945 53.691004 462.941945 64.056063 462.941945 74.421121 462.941945 84.786180 462.941945 95.151239 462.941945 105.516297 462.941945 115.881356 462.941945 126.246415 462.941945 136.611473 462.941945 146.976532 462.941945 157.341591 462.941945 167.706649 462.941945 178.071708 462.941945 188.436767 462.941945 198.801825 462.941945 209.166884 462.941945 219.531943 462.941944 229.897001 462.941942 240.262060 462.941934 250.627119 462.941905 260.992177 462.941808 271.357236 462.941500 281.722295 462.940582 292.087353 462.938013 302.452412 462.931252 312.817471 462.914537 323.182529 462.875735 333.547588 462.791198 343.912647 462.618457 354.277705 462.287687 364.642764 461.694792 375.007823 460.701309 385.372881 459.147891 395.737940 456.886912 406.102999 453.834216 416.468057 450.030216 426.833116 445.689948 437.198175 441.216182 447.563233 437.155507 457.928292 434.095763 468.293351 432.528472 478.658409 432.719864 489.023468 434.636930 499.388527 437.956730 509.753585 442.155345 520.118644 446.642812 530.483703 450.896406 540.848761 454.551816 551.213820 457.433973 561.578879 459.533977 571.943937 460.954570 582.308996 461.849637 592.674055 462.376109 603.039113 462.665685 613.404172 462.814822 623.769231 462.886812" /></g><g class="series serie-7 color-7"><path class="line reactive nofill" d="M12.230769 462.941945 L22.595828 462.941945 32.960887 462.941945 43.325945 462.941945 53.691004 462.941945 64.056063 462.941945 74.421121 462.941945 84.786180 462.941945 95.151239 462.941945 105.516297 462.941945 115.881356 462.941945 126.246415 462.941945 136.611473 462.941945 146.976532 462.941945 157.341591 462.941945 167.706649 462.941945 178.071708 462.941945 188.436767 462.941945 198.801825 462.941944 209.166884 462.941942 219.531943 462.941936 229.897001 462.941919 240.262060 462.941874 250.627119 462.941755 260.992177 462.941458 271.357236 462.940752 281.722295 462.939147 292.087353 462.935661 302.452412 462.928437 312.817471 462.914147 323.182529 462.887182 333.547588 462.838670 343.912647 462.755501 354.277705 462.619733 364.642764 462.408881 375.007823 462.097718 385.372881 461.662031 395.737940 461.084376 406.102999 460.361162 416.468057 459.509527 426.833116 458.571846 437.198175 457.615658 447.563233 456.727530 457.928292 456.001006 468.293351 455.520671 478.658409 455.346013 489.023468 455.499323 499.388527 455.961017 509.753585 456.673748 520.118644 457.554108 530.483703 458.508631 540.848761 459.449859 551.213820 460.308746 561.578879 461.041197 571.943937 461.628512 582.308996 462.073117 592.674055 462.391769 603.039113 462.608433 613.404172 462.748408 623.769231 462.834432" /></g><g class="series serie-8 color-8"><path class="line reactive nofill" d="M12.230769 462.941945 L22.595828 462.941945 32.960887 462.941945 43.325945 462.941945 53.691004 462.941945 64.056063 462.941945 74.421121 462.941945 84.786180 462.941945 95.151239 462.941945 105.516297 462.941945 115.881356 462.941945 126.246415 462.941945 136.611473 462.941945 146.976532 462.941945 157.341591 462.941945 167.706649 462.941945 178.071708 462.941945 188.436767 462.941944 198.801825 462.941943 209.166884 462.941941 219.531943 462.941935 229.897001 462.941920 240.262060 462.941885 250.627119 462.941806 260.992177 462.941634 271.357236 462.941274 281.722295 462.940551 292.087353 462.939148 302.452412 462.936535 312.817471 462.931850 323.182529 462.923777 333.547588 462.910407 343.912647 462.889139 354.277705 462.856664 364.642764 462.809100 375.007823 462.742349 385.372881 462.652693 395.737940 462.537629 406.102999 462.396836 416.468057 462.233079 426.833116 462.052819 437.198175 461.866270 447.563233 461.686734 457.928292 461.529177 468.293351 461.408235 478.658409 461.335988 489.023468 461.319975 499.388527 461.361897 509.753585 461.457323 520.118644 461.596457 530.483703 461.765797 540.848761 461.950286 551.213820 462.135488 561.578879 462.309361 571.943937 462.463344 582.308996 462.592686 592.674055 462.696112 603.039113 462.775047 613.404172 462.832655 623.769231 462.872917" /></g><g class="series serie-9 color-9"><path class="line reactive nofill" d="M12.230769 462.941945 L22.595828 462.941945 32.960887 462.941945 43.325945 462.941945 53.691004 462.941945 64.056063 462.941945 74.421121 462.941945 84.786180 462.941945 95.151239 462.941945 105.516297 462.941945 115.881356 462.941945 126.246415 462.941945 136.611473 462.941945 146.976532 462.941945 157.341591 462.941945 167.706649 462.941945 178.071708 462.941945 188.436767 462.941945 198.801825 462.941945 209.166884 462.941945 219.531943 462.941945 229.897001 462.941945 240.262060 462.941945 250.627119 462.941945 260.992177 462.941945 271.357236 462.941945 281.722295 462.941943 292.087353 462.941925 302.452412 462.941730 312.817471 462.940050 323.182529 462.928323 333.547588 462.862123 343.912647 462.560741 354.277705 461.458243 364.642764 458.235512 375.007823 450.774685 385.372881 437.306002 395.737940 418.920784 406.102999 401.335045 416.468057 392.674708 426.833116 397.624068 437.198175 413.457704 447.563233 432.388694 457.928292 447.567353 468.293351 456.636649 478.658409 460.834467 489.023468 462.367860 499.388527 462.814493 509.753585 462.918884 520.118644 462.938544 530.483703 462.941536 540.848761 462.941905 551.213820 462.941942 561.578879 462.941945 571.943937 462.941945 582.308996 462.941945 592.674055 462.941945 603.039113 462.941945 613.404172 462.941945 623.769231 462.941945" /></g><g class="series serie-10 color-10"><path class="line reactive nofill" d="M12.230769 462.941945 L22.595828 462.941945 32.960887 462.941945 43.325945 462.941945 53.691004 462.941945 64.056063 462.941945 74.421121 462.941945 84.786180 462.941945 95.151239 462.941945 105.516297 462.941945 115.881356 462.941945 126.246415 462.941945 136.611473 462.941945 146.976532 462.941945 157.341591 462.941945 167.706649 462.941945 178.071708 462.941945 188.436767 462.941945 198.801825 462.941945 209.166884 462.941945 219.531943 462.941945 229.897001 462.941944 240.262060 462.941941 250.627119 462.941911 260.992177 462.941704 271.357236 462.940437 281.722295 462.933752 292.087353 462.903261 302.452412 462.783232 312.817471 462.376140 323.182529 461.189313 333.547588 458.224736 343.912647 451.910074 354.277705 440.524656 364.642764 423.360942 375.007823 402.217953 385.372881 381.994407 395.737940 369.182121 406.102999 368.579381 416.468057 380.423224 426.833116 400.240861 437.198175 421.545083 447.563233 439.193805 457.928292 451.104401 468.293351 457.814944 478.658409 461.012488 489.023468 462.311022 499.388527 462.762683 509.753585 462.897689 520.118644 462.932452 530.483703 462.940175 540.848761 462.941658 551.213820 462.941905 561.578879 462.941940 571.943937 462.941944 582.308996 462.941945 592.674055 462.941945 603.039113 462.941945 613.404172 462.941945 623.769231 462.941945" /></g><g class="series serie-11 color-11"><path class="line reactive nofill" d="M12.230769 462.941945 L22.595828 462.941945 32.960887 462.941945 43.325945 462.941945 53.691004 462.941945 64.056063 462.941945 74.421121 462.941945 84.786180 462.941945 95.151239 462.941945 105.516297 462.941945 115.881356 462.941945 126.246415 462.941945 136.611473 462.941945 146.976532 462.941945 157.341591 462.941945 167.706649 462.941943 178.071708 462.941934 188.436767 462.941887 198.801825 462.941669 209.166884 462.940747 219.531943 462.937186 229.897001 462.924634 240.262060 462.884302 250.627119 462.766238 260.992177 462.451647 271.357236 461.689506 281.722295 460.013221 292.087353 456.672552 302.452412 450.656300 312.817471 440.902752 323.182529 426.749432 333.547588 408.533403 343.912647 388.066271 354.277705 368.614146 364.642764 354.158210 375.007823 348.096564 385.372881 351.950781 395.737940 364.747125 406.102999 383.415044 416.468057 403.980944 426.833116 422.925276 437.198175 438.079586 447.563233 448.801306 457.928292 455.579518 468.293351 459.432824 478.658409 461.410854 489.023468 462.330399 499.388527 462.718340 509.753585 462.867100 520.118644 462.919012 530.483703 462.935512 540.848761 462.940293 551.213820 462.941557 561.578879 462.941861 571.943937 462.941928 582.308996 462.941942 592.674055 462.941944 603.039113 462.941945 613.404172 462.941945 623.769231 462.941945" /></g><g class="series serie-12 color-12"><path class="line reactive nofill" d="M12.230769 462.941945 L22.595828 462.941945 32.960887 462.941945 43.325945 462.941945 53.691004 462.941945 64.056063 462.941945 74.421121 462.941945 84.786180 462.941945 95.151239 462.941945 105.516297 462.941944 115.881356 462.941942 126.246415 462.941932 136.611473 462.941887 146.976532 462.941706 157.341591 462.941025 167.706649 462.938640 178.071708 462.930896 188.436767 462.907553 198.801825 462.842294 209.166884 462.673155 219.531943 462.267030 229.897001 461.364371 240.262060 459.509255 250.627119 455.988762 260.992177 449.830917 271.357236 439.927846 281.722295 425.336103 292.087353 405.738688 302.452412 381.940961 312.817471 356.168333 323.182529 331.920714 333.547588 313.275818 343.912647 303.790910 354.277705 305.398798 364.642764 317.766332 375.007823 338.406803 385.372881 363.494352 395.737940 389.015345 406.102999 411.784212 416.468057 429.986593 426.833116 443.179316 437.198175 451.909606 447.563233 457.208778 457.928292 460.168461 468.293351 461.692950 478.658409 462.418344 489.023468 462.737610 499.388527 462.867713 509.753585 462.916841 520.118644 462.934042 530.483703 462.939629 540.848761 462.941313 551.213820 462.941784 561.578879 462.941907 571.943937 462.941937 582.308996 462.941943 592.674055 462.941945 603.039113 462.941945 613.404172 462.941945 623.769231 462.941945" /></g><g class="series serie-13 color-13"><path class="line reactive nofill" d="M12.230769 462.911908 L22.595828 462.889737 32.960887 462.852976 43.325945 462.793290 53.691004 462.698414 64.056063 462.550780 74.421121 462.325920 84.786180 461.990748 95.151239 461.501904 105.516297 460.804415 115.881356 459.831071 126.246415 458.502942 136.611473 456.731520 146.976532 454.422917 157.341591 451.484400 167.706649 447.833285 178.071708 443.407856 188.436767 438.179519 198.801825 432.164961 209.166884 425.436721 219.531943 418.130362 229.897001 410.446498 240.262060 402.646316 250.627119 395.039901 260.992177 387.967598 271.357236 381.775716 281.722295 376.788851 292.087353 373.281846 302.452412 371.454735 312.817471 371.413858 323.182529 373.161612 333.547588 376.596214 343.912647 381.521521 354.277705 387.665573 364.642764 394.705431 375.007823 402.295156 385.372881 410.093572 395.737940 417.788773 406.102999 425.117050 416.468057 431.874894 426.833116 437.923797 437.198175 443.188487 447.563233 447.649958 457.928292 451.335010 468.293351 454.304128 478.658409 456.639294 489.023468 458.432995 499.388527 459.779228 509.753585 460.766851 520.118644 461.475287 530.483703 461.972301 540.848761 462.313411 551.213820 462.542481 561.578879 462.693025 571.943937 462.789864 582.308996 462.850844 592.674055 462.888439 603.039113 462.911133 613.404172 462.924548 623.769231 462.932315" /></g></g><g class="titles"><text class="title plot_title" x="400.0" y="26">Iteration #11</text><text class="title" x="462.0" y="580.0">Observation</text><text class="title" transform="rotate(-90 64.000000 282.009619)" x="64.0" y="308.0096189432334">Density</text></g><g class="plot overlay" transform="translate(144, 46)"><g class="series serie-0 color-0" /><g class="series serie-1 color-1" /><g class="series serie-2 color-2" /><g class="series serie-3 color-3" /><g class="series serie-4 color-4" /><g class="series serie-5 color-5" /><g class="series serie-6 color-6" /><g class="series serie-7 color-7" /><g class="series serie-8 color-8" /><g class="series serie-9 color-9" /><g class="series serie-10 color-10" /><g class="series serie-11 color-11" /><g class="series serie-12 color-12" /><g class="series serie-13 color-13" /></g><g class="plot text-overlay" transform="translate(144, 46)"><g class="series serie-0 color-0" /><g class="series serie-1 color-1" /><g class="series serie-2 color-2" /><g class="series serie-3 color-3" /><g class="series serie-4 color-4" /><g class="series serie-5 color-5" /><g class="series serie-6 color-6" /><g class="series serie-7 color-7" /><g class="series serie-8 color-8" /><g class="series serie-9 color-9" /><g class="series serie-10 color-10" /><g class="series serie-11 color-11" /><g class="series serie-12 color-12" /><g class="series serie-13 color-13" /></g><g class="plot tooltip-overlay" transform="translate(144, 46)"><g class="tooltip" style="opacity: 0" transform="translate(0 0)"><rect class="tooltip-box" height="0" rx="0" ry="0" width="0" /><g class="text" /></g></g><g class="legends" transform="translate(10, 56)"><g class="legend reactive activate-serie" id="activate-serie-0"><rect class="color-0 reactive" height="12" width="12" x="0.0" y="0.0" /><text x="17.0" y="9.0">Data</text></g><g class="legend reactive activate-serie" id="activate-serie-1"><rect class="color-1 reactive" height="12" width="12" x="0.0" y="18.0" /><text x="17.0" y="27.0">GMM</text></g><g class="legend reactive activate-serie" id="activate-serie-2"><rect class="color-2 reactive" height="12" width="12" x="0.0" y="36.0" /><text x="17.0" y="45.0">i=0</text></g><g class="legend reactive activate-serie" id="activate-serie-3"><rect class="color-3 reactive" height="12" width="12" x="0.0" y="54.0" /><text x="17.0" y="63.0">i=1</text></g><g class="legend reactive activate-serie" id="activate-serie-4"><rect class="color-4 reactive" height="12" width="12" x="0.0" y="72.0" /><text x="17.0" y="81.0">i=0 k=0</text></g><g class="legend reactive activate-serie" id="activate-serie-5"><rect class="color-5 reactive" height="12" width="12" x="0.0" y="90.0" /><text x="17.0" y="99.0">i=0 k=1</text></g><g class="legend reactive activate-serie" id="activate-serie-6"><rect class="color-6 reactive" height="12" width="12" x="0.0" y="108.0" /><text x="17.0" y="117.0">i=0 k=2</text></g><g class="legend reactive activate-serie" id="activate-serie-7"><rect class="color-7 reactive" height="12" width="12" x="0.0" y="126.0" /><text x="17.0" y="135.0">i=0 k=3</text></g><g class="legend reactive activate-serie" id="activate-serie-8"><rect class="color-8 reactive" height="12" width="12" x="0.0" y="144.0" /><text x="17.0" y="153.0">i=0 k=4</text></g><g class="legend reactive activate-serie" id="activate-serie-9"><rect class="color-9 reactive" height="12" width="12" x="0.0" y="162.0" /><text x="17.0" y="171.0">i=1 k=0</text></g><g class="legend reactive activate-serie" id="activate-serie-10"><rect class="color-10 reactive" height="12" width="12" x="0.0" y="180.0" /><text x="17.0" y="189.0">i=1 k=1</text></g><g class="legend reactive activate-serie" id="activate-serie-11"><rect class="color-11 reactive" height="12" width="12" x="0.0" y="198.0" /><text x="17.0" y="207.0">i=1 k=2</text></g><g class="legend reactive activate-serie" id="activate-serie-12"><rect class="color-12 reactive" height="12" width="12" x="0.0" y="216.0" /><text x="17.0" y="225.0">i=1 k=3</text></g><g class="legend reactive activate-serie" id="activate-serie-13"><rect class="color-13 reactive" height="12" width="12" x="0.0" y="234.0" /><text x="17.0" y="243.0">i=1 k=4</text></g></g><g class="legends" transform="translate(790, 56)" /></g></svg>