<?xml version='1.0' encoding='utf-8'?>
<svg xmlns:xlink="http://www.w3.org/1999/xlink" class="pygal-chart" id="chart-d9abadec-1803-4e65-96e7-b8395daf34fa" viewBox="0 0 800 600" xmlns="http://www.w3.org/2000/svg"><!--Generated with pygal 2.4.0 (etree) ©Kozea 2012-2016 on 2018-04-14--><!--http://pygal.org--><!--http://github.com/Kozea/pygal--><defs><style type="text/css">#chart-d9abadec-1803-4e65-96e7-b8395daf34fa{-webkit-user-select:none;-webkit-font-smoothing:antialiased;font-family:Consolas,"Liberation Mono",Menlo,Courier,monospace}#chart-d9abadec-1803-4e65-96e7-b8395daf34fa .title{font-family:Consolas,"Liberation Mono",Menlo,Courier,monospace;font-size:16px}#chart-d9abadec-1803-4e65-96e7-b8395daf34fa .legends .legend text{font-family:Consolas,"Liberation Mono",Menlo,Courier,monospace;font-size:10px}#chart-d9abadec-1803-4e65-96e7-b8395daf34fa .axis text{font-family:Consolas,"Liberation Mono",Menlo,Courier,monospace;font-size:10px}#chart-d9abadec-1803-4e65-96e7-b8395daf34fa .axis text.major{font-family:Consolas,"Liberation Mono",Menlo,Courier,monospace;font-size:10px}#chart-d9abadec-1803-4e65-96e7-b8395daf34fa .text-overlay text.value{font-family:Consolas,"Liberation Mono",Menlo,Courier,monospace;font-size:16px}#chart-d9abadec-1803-4e65-96e7-b8395daf34fa .text-overlay text.label{font-family:Consolas,"Liberation Mono",Menlo,Courier,monospace;font-size:10px}#chart-d9abadec-1803-4e65-96e7-b8395daf34fa .tooltip{font-family:Consolas,"Liberation Mono",Menlo,Courier,monospace;font-size:14px}#chart-d9abadec-1803-4e65-96e7-b8395daf34fa text.no_data{font-family:Consolas,"Liberation Mono",Menlo,Courier,monospace;font-size:64px}
#chart-d9abadec-1803-4e65-96e7-b8395daf34fa{background-color:rgba(249,249,249,1)}#chart-d9abadec-1803-4e65-96e7-b8395daf34fa path,#chart-d9abadec-1803-4e65-96e7-b8395daf34fa line,#chart-d9abadec-1803-4e65-96e7-b8395daf34fa rect,#chart-d9abadec-1803-4e65-96e7-b8395daf34fa circle{-webkit-transition:150ms;-moz-transition:150ms;transition:150ms}#chart-d9abadec-1803-4e65-96e7-b8395daf34fa .graph &gt; .background{fill:rgba(249,249,249,1)}#chart-d9abadec-1803-4e65-96e7-b8395daf34fa .plot &gt; .background{fill:rgba(255,255,255,1)}#chart-d9abadec-1803-4e65-96e7-b8395daf34fa .graph{fill:rgba(0,0,0,.87)}#chart-d9abadec-1803-4e65-96e7-b8395daf34fa text.no_data{fill:rgba(0,0,0,1)}#chart-d9abadec-1803-4e65-96e7-b8395daf34fa .title{fill:rgba(0,0,0,1)}#chart-d9abadec-1803-4e65-96e7-b8395daf34fa .legends .legend text{fill:rgba(0,0,0,.87)}#chart-d9abadec-1803-4e65-96e7-b8395daf34fa .legends .legend:hover text{fill:rgba(0,0,0,1)}#chart-d9abadec-1803-4e65-96e7-b8395daf34fa .axis .line{stroke:rgba(0,0,0,1)}#chart-d9abadec-1803-4e65-96e7-b8395daf34fa .axis .guide.line{stroke:rgba(0,0,0,.54)}#chart-d9abadec-1803-4e65-96e7-b8395daf34fa .axis .major.line{stroke:rgba(0,0,0,.87)}#chart-d9abadec-1803-4e65-96e7-b8395daf34fa .axis text.major{fill:rgba(0,0,0,1)}#chart-d9abadec-1803-4e65-96e7-b8395daf34fa .axis.y .guides:hover .guide.line,#chart-d9abadec-1803-4e65-96e7-b8395daf34fa .line-graph .axis.x .guides:hover .guide.line,#chart-d9abadec-1803-4e65-96e7-b8395daf34fa .stackedline-graph .axis.x .guides:hover .guide.line,#chart-d9abadec-1803-4e65-96e7-b8395daf34fa .xy-graph .axis.x .guides:hover .guide.line{stroke:rgba(0,0,0,1)}#chart-d9abadec-1803-4e65-96e7-b8395daf34fa .axis .guides:hover text{fill:rgba(0,0,0,1)}#chart-d9abadec-1803-4e65-96e7-b8395daf34fa .reactive{fill-opacity:.7;stroke-opacity:.8}#chart-d9abadec-1803-4e65-96e7-b8395daf34fa .ci{stroke:rgba(0,0,0,.87)}#chart-d9abadec-1803-4e65-96e7-b8395daf34fa .reactive.active,#chart-d9abadec-1803-4e65-96e7-b8395daf34fa .active .reactive{fill-opacity:.8;stroke-opacity:.9;stroke-width:4}#chart-d9abadec-1803-4e65-96e7-b8395daf34fa .ci .reactive.active{stroke-width:1.5}#chart-d9abadec-1803-4e65-96e7-b8395daf34fa .series text{fill:rgba(0,0,0,1)}#chart-d9abadec-1803-4e65-96e7-b8395daf34fa .tooltip rect{fill:rgba(255,255,255,1);stroke:rgba(0,0,0,1);-webkit-transition:opacity 150ms;-moz-transition:opacity 150ms;transition:opacity 150ms}#chart-d9abadec-1803-4e65-96e7-b8395daf34fa .tooltip .label{fill:rgba(0,0,0,.87)}#chart-d9abadec-1803-4e65-96e7-b8395daf34fa .tooltip .label{fill:rgba(0,0,0,.87)}#chart-d9abadec-1803-4e65-96e7-b8395daf34fa .tooltip .legend{font-size:.8em;fill:rgba(0,0,0,.54)}#chart-d9abadec-1803-4e65-96e7-b8395daf34fa .tooltip .x_label{font-size:.6em;fill:rgba(0,0,0,1)}#chart-d9abadec-1803-4e65-96e7-b8395daf34fa .tooltip .xlink{font-size:.5em;text-decoration:underline}#chart-d9abadec-1803-4e65-96e7-b8395daf34fa .tooltip .value{font-size:1.5em}#chart-d9abadec-1803-4e65-96e7-b8395daf34fa .bound{font-size:.5em}#chart-d9abadec-1803-4e65-96e7-b8395daf34fa .max-value{font-size:.75em;fill:rgba(0,0,0,.54)}#chart-d9abadec-1803-4e65-96e7-b8395daf34fa .map-element{fill:rgba(255,255,255,1);stroke:rgba(0,0,0,.54) !important}#chart-d9abadec-1803-4e65-96e7-b8395daf34fa .map-element .reactive{fill-opacity:inherit;stroke-opacity:inherit}#chart-d9abadec-1803-4e65-96e7-b8395daf34fa .color-0,#chart-d9abadec-1803-4e65-96e7-b8395daf34fa .color-0 a:visited{stroke:#909090;fill:#909090}#chart-d9abadec-1803-4e65-96e7-b8395daf34fa .color-1,#chart-d9abadec-1803-4e65-96e7-b8395daf34fa .color-1 a:visited{stroke:#000000;fill:#000000}#chart-d9abadec-1803-4e65-96e7-b8395daf34fa .color-2,#chart-d9abadec-1803-4e65-96e7-b8395daf34fa .color-2 a:visited{stroke:#ff0500;fill:#ff0500}#chart-d9abadec-1803-4e65-96e7-b8395daf34fa .color-3,#chart-d9abadec-1803-4e65-96e7-b8395daf34fa .color-3 a:visited{stroke:#323299;fill:#323299}#chart-d9abadec-1803-4e65-96e7-b8395daf34fa .color-4,#chart-d9abadec-1803-4e65-96e7-b8395daf34fa .color-4 a:visited{stroke:#a3413f;fill:#a3413f}#chart-d9abadec-1803-4e65-96e7-b8395daf34fa .color-5,#chart-d9abadec-1803-4e65-96e7-b8395daf34fa .color-5 a:visited{stroke:#a3413f;fill:#a3413f}#chart-d9abadec-1803-4e65-96e7-b8395daf34fa .color-6,#chart-d9abadec-1803-4e65-96e7-b8395daf34fa .color-6 a:visited{stroke:#657fff;fill:#657fff}#chart-d9abadec-1803-4e65-96e7-b8395daf34fa .color-7,#chart-d9abadec-1803-4e65-96e7-b8395daf34fa .color-7 a:visited{stroke:#657fff;fill:#657fff}#chart-d9abadec-1803-4e65-96e7-b8395daf34fa .text-overlay .color-0 text{fill:black}#chart-d9abadec-1803-4e65-96e7-b8395daf34fa .text-overlay .color-1 text{fill:white}#chart-d9abadec-1803-4e65-96e7-b8395daf34fa .text-overlay .color-2 text{fill:black}#chart-d9abadec-1803-4e65-96e7-b8395daf34fa .text-overlay .color-3 text{fill:black}#chart-d9abadec-1803-4e65-96e7-b8395daf34fa .text-overlay .color-4 text{fill:black}#chart-d9abadec-1803-4e65-96e7-b8395daf34fa .text-overlay .color-5 text{fill:black}#chart-d9abadec-1803-4e65-96e7-b8395daf34fa .text-overlay .color-6 text{fill:black}#chart-d9abadec-1803-4e65-96e7-b8395daf34fa .text-overlay .color-7 text{fill:black}#chart-d9abadec-1803-4e65-96e7-b8395daf34fa .series.serie-1{stroke-width:5}#chart-d9abadec-1803-4e65-96e7-b8395daf34fa .series.serie-2{stroke-width:3}#chart-d9abadec-1803-4e65-96e7-b8395daf34fa .series.serie-3{stroke-width:3}#chart-d9abadec-1803-4e65-96e7-b8395daf34fa .series.serie-4{stroke-width:2;stroke-dasharray:2,2}#chart-d9abadec-1803-4e65-96e7-b8395daf34fa .series.serie-5{stroke-width:2;stroke-dasharray:2,2}#chart-d9abadec-1803-4e65-96e7-b8395daf34fa .series.serie-6{stroke-width:2;stroke-dasharray:2,2}#chart-d9abadec-1803-4e65-96e7-b8395daf34fa .series.serie-7{stroke-width:2;stroke-dasharray:2,2}
#chart-d9abadec-1803-4e65-96e7-b8395daf34fa text.no_data{text-anchor:middle}#chart-d9abadec-1803-4e65-96e7-b8395daf34fa .guide.line{fill:none}#chart-d9abadec-1803-4e65-96e7-b8395daf34fa .centered{text-anchor:middle}#chart-d9abadec-1803-4e65-96e7-b8395daf34fa .title{text-anchor:middle}#chart-d9abadec-1803-4e65-96e7-b8395daf34fa .legends .legend text{fill-opacity:1}#chart-d9abadec-1803-4e65-96e7-b8395daf34fa .axis.x text{text-anchor:middle}#chart-d9abadec-1803-4e65-96e7-b8395daf34fa .axis.x:not(.web) text[transform]{text-anchor:start}#chart-d9abadec-1803-4e65-96e7-b8395daf34fa .axis.x:not(.web) text[transform].backwards{text-anchor:end}#chart-d9abadec-1803-4e65-96e7-b8395daf34fa .axis.y text{text-anchor:end}#chart-d9abadec-1803-4e65-96e7-b8395daf34fa .axis.y text[transform].backwards{text-anchor:start}#chart-d9abadec-1803-4e65-96e7-b8395daf34fa .axis.y2 text{text-anchor:start}#chart-d9abadec-1803-4e65-96e7-b8395daf34fa .axis.y2 text[transform].backwards{text-anchor:end}#chart-d9abadec-1803-4e65-96e7-b8395daf34fa .axis .guide.line{stroke-dasharray:4,4}#chart-d9abadec-1803-4e65-96e7-b8395daf34fa .axis .major.guide.line{stroke-dasharray:6,6}#chart-d9abadec-1803-4e65-96e7-b8395daf34fa .horizontal .axis.y .guide.line,#chart-d9abadec-1803-4e65-96e7-b8395daf34fa .horizontal .axis.y2 .guide.line,#chart-d9abadec-1803-4e65-96e7-b8395daf34fa .vertical .axis.x .guide.line{opacity:0}#chart-d9abadec-1803-4e65-96e7-b8395daf34fa .horizontal .axis.always_show .guide.line,#chart-d9abadec-1803-4e65-96e7-b8395daf34fa .vertical .axis.always_show .guide.line{opacity:1 !important}#chart-d9abadec-1803-4e65-96e7-b8395daf34fa .axis.y .guides:hover .guide.line,#chart-d9abadec-1803-4e65-96e7-b8395daf34fa .axis.y2 .guides:hover .guide.line,#chart-d9abadec-1803-4e65-96e7-b8395daf34fa .axis.x .guides:hover .guide.line{opacity:1}#chart-d9abadec-1803-4e65-96e7-b8395daf34fa .axis .guides:hover text{opacity:1}#chart-d9abadec-1803-4e65-96e7-b8395daf34fa .nofill{fill:none}#chart-d9abadec-1803-4e65-96e7-b8395daf34fa .subtle-fill{fill-opacity:.2}#chart-d9abadec-1803-4e65-96e7-b8395daf34fa .dot{stroke-width:1px;fill-opacity:1}#chart-d9abadec-1803-4e65-96e7-b8395daf34fa .dot.active{stroke-width:5px}#chart-d9abadec-1803-4e65-96e7-b8395daf34fa .dot.negative{fill:transparent}#chart-d9abadec-1803-4e65-96e7-b8395daf34fa text,#chart-d9abadec-1803-4e65-96e7-b8395daf34fa tspan{stroke:none !important}#chart-d9abadec-1803-4e65-96e7-b8395daf34fa .series text.active{opacity:1}#chart-d9abadec-1803-4e65-96e7-b8395daf34fa .tooltip rect{fill-opacity:.95;stroke-width:.5}#chart-d9abadec-1803-4e65-96e7-b8395daf34fa .tooltip text{fill-opacity:1}#chart-d9abadec-1803-4e65-96e7-b8395daf34fa .showable{visibility:hidden}#chart-d9abadec-1803-4e65-96e7-b8395daf34fa .showable.shown{visibility:visible}#chart-d9abadec-1803-4e65-96e7-b8395daf34fa .gauge-background{fill:rgba(229,229,229,1);stroke:none}#chart-d9abadec-1803-4e65-96e7-b8395daf34fa .bg-lines{stroke:rgba(249,249,249,1);stroke-width:2px}</style><script type="text/javascript">window.pygal = window.pygal || {};window.pygal.config = window.pygal.config || {};window.pygal.config['d9abadec-1803-4e65-96e7-b8395daf34fa'] = {"height": 600, "stack_from_top": false, "strict": false, "y_labels_major_every": null, "secondary_range": null, "show_dots": false, "force_uri_protocol": "https", "margin_right": null, "print_labels": false, "spacing": 10, "title": "Iteration #0", "interpolation_precision": 250, "dynamic_print_values": false, "show_y_guides": true, "x_labels_major_count": null, "stroke_style": null, "include_x_axis": false, "width": 800, "css": ["file://style.css", "file://graph.css"], "truncate_label": null, "print_zeroes": true, "no_data_text": "No data", "x_title": "Observation", "tooltip_fancy_mode": true, "xrange": null, "show_legend": true, "show_minor_x_labels": false, "range": [0, 0.27578580090479526], "show_y_labels": true, "legends": ["Data", "GMM", "i=0", "i=1", "i=0 k=0", "i=0 k=1", "i=1 k=0", "i=1 k=1"], "truncate_legend": null, "half_pie": false, "x_labels": ["-8.96", "-8.76", "-8.56", "-8.36", "-8.16", "-7.96", "-7.76", "-7.56", "-7.36", "-7.16", "-6.96", "-6.76", "-6.56", "-6.36", "-6.16", "-5.96", "-5.76", "-5.56", "-5.36", "-5.16", "-4.96", "-4.76", "-4.56", "-4.36", "-4.16", "-3.96", "-3.76", "-3.56", "-3.36", "-3.16", "-2.96", "-2.76", "-2.56", "-2.36", "-2.16", "-1.96", "-1.76", "-1.56", "-1.36", "-1.16", "-0.96", "-0.76", "-0.56", "-0.36", "-0.16", "0.04", "0.24", "0.44", "0.64", "0.84", "1.04", "1.24", "1.43", "1.63", "1.83", "2.03", "2.23", "2.43", "2.63", "2.83"], "classes": ["pygal-chart"], "legend_box_size": 12, "rounded_bars": null, "print_values_position": "center", "x_label_rotation": 60, "y_labels_major": null, "fill": false, "legend_at_bottom_columns": null, "margin": 20, "js": ["//kozea.github.io/pygal.js/2.0.x/pygal-tooltips.min.js"], "explicit_size": false, "tooltip_border_radius": 0, "margin_top": null, "interpolate": null, "stroke": true, "defs": [], "show_minor_y_labels": true, "y_labels": null, "y_label_rotation": 0, "margin_left": null, "show_only_major_dots": false, "x_labels_major_every": 2, "y_title": "Density", "legend_at_bottom": false, "style": {"opacity_hover": ".8", "foreground": "rgba(0, 0, 0, .87)", "value_label_font_size": 10, "foreground_strong": "rgba(0, 0, 0, 1)", "background": "rgba(249, 249, 249, 1)", "no_data_font_size": 64, "tooltip_font_size": 14, "foreground_subtle": "rgba(0, 0, 0, .54)", "value_colors": [], "title_font_size": 16, "major_label_font_family": "Consolas, \"Liberation Mono\", Menlo, Courier, monospace", "opacity": ".7", "value_font_family": "Consolas, \"Liberation Mono\", Menlo, Courier, monospace", "label_font_family": "Consolas, \"Liberation Mono\", Menlo, Courier, monospace", "colors": ["#909090", "#000000", "#ff0500", "#323299", "#a3413f", "#a3413f", "#657fff", "#657fff"], "value_font_size": 16, "plot_background": "rgba(255, 255, 255, 1)", "guide_stroke_dasharray": "4,4", "no_data_font_family": "Consolas, \"Liberation Mono\", Menlo, Courier, monospace", "major_label_font_size": 10, "stroke_opacity_hover": ".9", "value_background": "rgba(229, 229, 229, 1)", "stroke_opacity": ".8", "value_label_font_family": "Consolas, \"Liberation Mono\", Menlo, Courier, monospace", "title_font_family": "Consolas, \"Liberation Mono\", Menlo, Courier, monospace", "legend_font_family": "Consolas, \"Liberation Mono\", Menlo, Courier, monospace", "legend_font_size": 10, "label_font_size": 10, "transition": "150ms", "major_guide_stroke_dasharray": "6,6", "font_family": "Consolas, \"Liberation Mono\", Menlo, Courier, monospace", "ci_colors": [], "tooltip_font_family": "Consolas, \"Liberation Mono\", Menlo, Courier, monospace"}, "max_scale": 16, "missing_value_fill_truncation": "x", "interpolation_parameters": {}, "pretty_print": false, "box_mode": "extremes", "margin_bottom": null, "y_labels_major_count": null, "formatter": null, "disable_xml_declaration": false, "dots_size": 2.5, "inner_radius": 0, "min_scale": 4, "no_prefix": false, "logarithmic": false, "show_x_labels": true, "order_min": null, "inverse_y_axis": false, "zero": 0, "show_x_guides": false, "print_values": false, "x_labels_major": null, "allow_interruptions": false}</script><script type="text/javascript" xlink:href="https://kozea.github.io/pygal.js/2.0.x/pygal-tooltips.min.js" /></defs><title>Iteration #0</title><g class="graph line-graph vertical"><rect class="background" height="600" width="800" x="0" y="0" /><g class="plot" transform="translate(144, 46)"><rect class="background" height="472.01923788646684" width="636.0" x="0" y="0" /><g class="axis y always_show"><g class="guides"><path class="axis major line" d="M0.000000 462.941945 h636.000000" /><text class="major" x="-5" y="466.44194485018863">0</text><title>0</title></g><g class="guides"><path class="guide line" d="M0.000000 430.027658 h636.000000" /><text class="" x="-5" y="433.52765772410197">0.02</text><title>0.02</title></g><g class="guides"><path class="guide line" d="M0.000000 397.113371 h636.000000" /><text class="" x="-5" y="400.61337059801525">0.04</text><title>0.04</title></g><g class="guides"><path class="guide line" d="M0.000000 364.199083 h636.000000" /><text class="" x="-5" y="367.6990834719286">0.06</text><title>0.06</title></g><g class="guides"><path class="guide line" d="M0.000000 331.284796 h636.000000" /><text class="" x="-5" y="334.78479634584187">0.08</text><title>0.08</title></g><g class="guides"><path class="guide line" d="M0.000000 298.370509 h636.000000" /><text class="" x="-5" y="301.8705092197552">0.1</text><title>0.1</title></g><g class="guides"><path class="guide line" d="M0.000000 265.456222 h636.000000" /><text class="" x="-5" y="268.95622209366854">0.12</text><title>0.12</title></g><g class="guides"><path class="guide line" d="M0.000000 232.541935 h636.000000" /><text class="" x="-5" y="236.04193496758182">0.14</text><title>0.14</title></g><g class="guides"><path class="guide line" d="M0.000000 199.627648 h636.000000" /><text class="" x="-5" y="203.12764784149516">0.16</text><title>0.16</title></g><g class="guides"><path class="guide line" d="M0.000000 166.713361 h636.000000" /><text class="" x="-5" y="170.2133607154085">0.18</text><title>0.18</title></g><g class="guides"><path class="guide line" d="M0.000000 133.799074 h636.000000" /><text class="" x="-5" y="137.29907358932178">0.2</text><title>0.2</title></g><g class="guides"><path class="guide line" d="M0.000000 100.884786 h636.000000" /><text class="" x="-5" y="104.38478646323512">0.22</text><title>0.22</title></g><g class="guides"><path class="guide line" d="M0.000000 67.970499 h636.000000" /><text class="" x="-5" y="71.4704993371484">0.24</text><title>0.24</title></g><g class="guides"><path class="guide line" d="M0.000000 35.056212 h636.000000" /><text class="" x="-5" y="38.556212211061734">0.26</text><title>0.26</title></g></g><g class="axis x"><g class="guides"><path class="major line" d="M12.230769 0.000000 v472.019238" /><text class="major" transform="rotate(60 12.230769 487.019238)" x="12.230769230769232" y="487.01923788646684">-8.96</text></g><g class="guides"><path class="major guide line" d="M32.960887 0.000000 v472.019238" /><text class="major" transform="rotate(60 32.960887 487.019238)" x="32.96088657105606" y="487.01923788646684">-8.56</text></g><g class="guides"><path class="major guide line" d="M53.691004 0.000000 v472.019238" /><text class="major" transform="rotate(60 53.691004 487.019238)" x="53.6910039113429" y="487.01923788646684">-8.16</text></g><g class="guides"><path class="major guide line" d="M74.421121 0.000000 v472.019238" /><text class="major" transform="rotate(60 74.421121 487.019238)" x="74.42112125162973" y="487.01923788646684">-7.76</text></g><g class="guides"><path class="major guide line" d="M95.151239 0.000000 v472.019238" /><text class="major" transform="rotate(60 95.151239 487.019238)" x="95.15123859191655" y="487.01923788646684">-7.36</text></g><g class="guides"><path class="major guide line" d="M115.881356 0.000000 v472.019238" /><text class="major" transform="rotate(60 115.881356 487.019238)" x="115.88135593220338" y="487.01923788646684">-6.96</text></g><g class="guides"><path class="major guide line" d="M136.611473 0.000000 v472.019238" /><text class="major" transform="rotate(60 136.611473 487.019238)" x="136.61147327249023" y="487.01923788646684">-6.56</text></g><g class="guides"><path class="major guide line" d="M157.341591 0.000000 v472.019238" /><text class="major" transform="rotate(60 157.341591 487.019238)" x="157.34159061277705" y="487.01923788646684">-6.16</text></g><g class="guides"><path class="major guide line" d="M178.071708 0.000000 v472.019238" /><text class="major" transform="rotate(60 178.071708 487.019238)" x="178.0717079530639" y="487.01923788646684">-5.76</text></g><g class="guides"><path class="major guide line" d="M198.801825 0.000000 v472.019238" /><text class="major" transform="rotate(60 198.801825 487.019238)" x="198.80182529335073" y="487.01923788646684">-5.36</text></g><g class="guides"><path class="major guide line" d="M219.531943 0.000000 v472.019238" /><text class="major" transform="rotate(60 219.531943 487.019238)" x="219.53194263363756" y="487.01923788646684">-4.96</text></g><g class="guides"><path class="major guide line" d="M240.262060 0.000000 v472.019238" /><text class="major" transform="rotate(60 240.262060 487.019238)" x="240.2620599739244" y="487.01923788646684">-4.56</text></g><g class="guides"><path class="major guide line" d="M260.992177 0.000000 v472.019238" /><text class="major" transform="rotate(60 260.992177 487.019238)" x="260.99217731421123" y="487.01923788646684">-4.16</text></g><g class="guides"><path class="major guide line" d="M281.722295 0.000000 v472.019238" /><text class="major" transform="rotate(60 281.722295 487.019238)" x="281.722294654498" y="487.01923788646684">-3.76</text></g><g class="guides"><path class="major guide line" d="M302.452412 0.000000 v472.019238" /><text class="major" transform="rotate(60 302.452412 487.019238)" x="302.4524119947849" y="487.01923788646684">-3.36</text></g><g class="guides"><path class="major guide line" d="M323.182529 0.000000 v472.019238" /><text class="major" transform="rotate(60 323.182529 487.019238)" x="323.1825293350717" y="487.01923788646684">-2.96</text></g><g class="guides"><path class="major guide line" d="M343.912647 0.000000 v472.019238" /><text class="major" transform="rotate(60 343.912647 487.019238)" x="343.91264667535853" y="487.01923788646684">-2.56</text></g><g class="guides"><path class="major guide line" d="M364.642764 0.000000 v472.019238" /><text class="major" transform="rotate(60 364.642764 487.019238)" x="364.64276401564535" y="487.01923788646684">-2.16</text></g><g class="guides"><path class="major guide line" d="M385.372881 0.000000 v472.019238" /><text class="major" transform="rotate(60 385.372881 487.019238)" x="385.37288135593224" y="487.01923788646684">-1.76</text></g><g class="guides"><path class="major guide line" d="M406.102999 0.000000 v472.019238" /><text class="major" transform="rotate(60 406.102999 487.019238)" x="406.102998696219" y="487.01923788646684">-1.36</text></g><g class="guides"><path class="major guide line" d="M426.833116 0.000000 v472.019238" /><text class="major" transform="rotate(60 426.833116 487.019238)" x="426.8331160365058" y="487.01923788646684">-0.96</text></g><g class="guides"><path class="major guide line" d="M447.563233 0.000000 v472.019238" /><text class="major" transform="rotate(60 447.563233 487.019238)" x="447.56323337679265" y="487.01923788646684">-0.56</text></g><g class="guides"><path class="major guide line" d="M468.293351 0.000000 v472.019238" /><text class="major" transform="rotate(60 468.293351 487.019238)" x="468.29335071707953" y="487.01923788646684">-0.16</text></g><g class="guides"><path class="major guide line" d="M489.023468 0.000000 v472.019238" /><text class="major" transform="rotate(60 489.023468 487.019238)" x="489.02346805736636" y="487.01923788646684">0.24</text></g><g class="guides"><path class="major guide line" d="M509.753585 0.000000 v472.019238" /><text class="major" transform="rotate(60 509.753585 487.019238)" x="509.75358539765324" y="487.01923788646684">0.64</text></g><g class="guides"><path class="major guide line" d="M530.483703 0.000000 v472.019238" /><text class="major" transform="rotate(60 530.483703 487.019238)" x="530.48370273794" y="487.01923788646684">1.04</text></g><g class="guides"><path class="major guide line" d="M551.213820 0.000000 v472.019238" /><text class="major" transform="rotate(60 551.213820 487.019238)" x="551.213820078227" y="487.01923788646684">1.43</text></g><g class="guides"><path class="major guide line" d="M571.943937 0.000000 v472.019238" /><text class="major" transform="rotate(60 571.943937 487.019238)" x="571.9439374185138" y="487.01923788646684">1.83</text></g><g class="guides"><path class="major guide line" d="M592.674055 0.000000 v472.019238" /><text class="major" transform="rotate(60 592.674055 487.019238)" x="592.6740547588006" y="487.01923788646684">2.23</text></g><g class="guides"><path class="major guide line" d="M613.404172 0.000000 v472.019238" /><text class="major" transform="rotate(60 613.404172 487.019238)" x="613.4041720990874" y="487.01923788646684">2.63</text></g></g><g class="series serie-0 color-0"><path class="line reactive" d="M12.230769 462.941945 L12.230769 462.019456 22.595828 462.941945 32.960887 461.096967 43.325945 462.019456 53.691004 459.251988 64.056063 462.019456 74.421121 458.329499 84.786180 462.019456 95.151239 458.329499 105.516297 462.019456 115.881356 448.182119 126.246415 460.174477 136.611473 457.407010 146.976532 457.407010 157.341591 451.872075 167.706649 448.182119 178.071708 454.639543 188.436767 445.414651 198.801825 442.647184 209.166884 436.189760 219.531943 437.112249 229.897001 392.832771 240.262060 396.522728 250.627119 376.227967 260.992177 355.933206 271.357236 351.320760 281.722295 325.491065 292.087353 277.521630 302.452412 283.056565 312.817471 202.800010 323.182529 188.040184 333.547588 169.590402 343.912647 123.465945 354.277705 95.791271 364.642764 67.194108 375.007823 82.876423 385.372881 60.736684 395.737940 80.108956 406.102999 29.372054 416.468057 9.077293 426.833116 70.884065 437.198175 69.039086 447.563233 41.364413 457.928292 40.441923 468.293351 91.178826 478.658409 140.993239 489.023468 214.792369 499.388527 259.071847 509.753585 321.801108 520.118644 364.235608 530.483703 408.515086 540.848761 430.654825 551.213820 448.182119 561.578879 455.562032 571.943937 458.329499 582.308996 458.329499 592.674055 462.019456 603.039113 462.941945 613.404172 462.019456 623.769231 462.941945" /></g><g class="series serie-1 color-1"><path class="line reactive nofill" d="M12.230769 462.941622 L22.595828 462.941208 32.960887 462.940309 43.325945 462.938405 53.691004 462.934489 64.056063 462.926651 74.421121 462.911395 84.786180 462.882515 95.151239 462.829345 105.516297 462.734144 115.881356 462.568370 126.246415 462.287649 136.611473 461.825360 146.976532 461.085031 157.341591 459.932096 167.706649 458.186064 178.071708 455.614680 188.436767 451.932093 198.801825 446.803275 209.166884 439.856693 219.531943 430.706512 229.897001 418.984222 240.262060 404.377848 250.627119 386.674948 260.992177 365.804017 271.357236 341.868091 281.722295 315.164696 292.087353 286.187918 302.452412 255.611084 312.817471 224.251822 323.182529 193.024232 333.547588 162.884989 343.912647 134.780621 354.277705 109.602053 364.642764 88.149939 375.007823 71.111156 385.372881 59.043977 395.737940 52.367705 406.102999 51.352429 416.468057 56.106091 426.833116 66.558748 437.198175 82.446879 447.563233 103.303032 457.928292 128.457024 468.293351 157.054054 478.658409 188.092476 489.023468 220.480241 499.388527 253.104993 509.753585 284.909646 520.118644 314.963653 530.483703 342.520555 540.848761 367.054717 551.213820 388.273705 561.578879 406.106842 571.943937 420.674044 582.308996 432.241500 592.674055 441.171724 603.039113 447.874987 613.404172 452.767566 623.769231 456.240042" /></g><g class="series serie-2 color-2"><path class="line reactive nofill" d="M12.230769 462.941945 L22.595828 462.941945 32.960887 462.941944 43.325945 462.941943 53.691004 462.941940 64.056063 462.941933 74.421121 462.941914 84.786180 462.941869 95.151239 462.941763 105.516297 462.941521 115.881356 462.940984 126.246415 462.939826 136.611473 462.937394 146.976532 462.932426 157.341591 462.922557 167.706649 462.903488 178.071708 462.867652 188.436767 462.802155 198.801825 462.685738 209.166884 462.484519 219.531943 462.146341 229.897001 461.593741 240.262060 460.715900 250.627119 459.360383 260.992177 457.326114 271.357236 454.359641 281.722295 450.157278 292.087353 444.375870 302.452412 436.654574 312.817471 426.648923 323.182529 414.076542 333.547588 398.771356 343.912647 380.740343 354.277705 360.214429 364.642764 337.683700 375.007823 313.907346 385.372881 289.891017 395.737940 266.828501 406.102999 246.010295 416.468057 228.707743 426.833116 216.046649 437.198175 208.887523 447.563233 207.729926 457.928292 212.655490 468.293351 223.318512 478.658409 238.985607 489.023468 258.618190 499.388527 280.985080 509.753585 304.788483 520.118644 328.785698 530.483703 351.891133 540.848761 373.247780 551.213820 392.263276 561.578879 408.611624 571.943937 422.206479 582.308996 433.155009 592.674055 441.702261 603.039113 448.175146 613.404172 452.932983 623.769231 456.328833" /></g><g class="series serie-3 color-3"><path class="line reactive nofill" d="M12.230769 462.941622 L22.595828 462.941209 32.960887 462.940309 43.325945 462.938407 53.691004 462.934493 64.056063 462.926663 74.421121 462.911426 84.786180 462.882591 95.151239 462.829528 105.516297 462.734568 115.881356 462.569331 126.246415 462.289768 136.611473 461.829911 146.976532 461.094550 157.341591 459.951484 167.706649 458.224521 178.071708 455.688972 188.436767 452.071883 198.801825 447.059482 209.166884 440.314119 219.531943 431.502116 229.897001 420.332426 240.262060 406.603893 250.627119 390.256510 260.992177 371.419847 271.357236 350.450394 281.722295 327.949363 292.087353 304.753993 302.452412 281.898455 312.817471 260.544843 323.182529 241.889635 333.547588 227.055578 343.912647 216.982223 354.277705 212.329569 364.642764 213.408185 375.007823 220.145755 385.372881 232.094905 395.737940 248.481150 406.102999 268.284079 416.468057 290.340293 426.833116 313.454044 437.198175 336.501301 447.563233 358.515051 457.928292 378.743480 468.293351 396.677486 478.658409 412.048814 489.023468 424.803996 499.388527 435.061857 509.753585 443.063108 520.118644 449.119900 530.483703 453.571367 540.848761 456.748882 551.213820 458.952373 561.578879 460.437163 571.943937 461.409510 582.308996 462.028436 592.674055 462.411407 603.039113 462.641786 613.404172 462.776528 623.769231 462.853154" /></g><g class="series serie-4 color-4"><path class="line reactive nofill" d="M12.230769 462.941945 L22.595828 462.941945 32.960887 462.941944 43.325945 462.941943 53.691004 462.941940 64.056063 462.941933 74.421121 462.941914 84.786180 462.941870 95.151239 462.941767 105.516297 462.941532 115.881356 462.941014 126.246415 462.939898 136.611473 462.937567 146.976532 462.932828 157.341591 462.923465 167.706649 462.905485 178.071708 462.871927 188.436767 462.811064 198.801825 462.703811 209.166884 462.520207 219.531943 462.214935 229.897001 461.722072 240.262060 460.949598 250.627119 459.774622 260.992177 458.040816 271.357236 455.559902 281.722295 452.119296 292.087353 447.497683 302.452412 441.489472 312.817471 433.937527 323.182529 424.771473 333.547588 414.046601 343.912647 401.976455 354.277705 388.951230 364.642764 375.534792 375.007823 362.435638 385.372881 350.451342 395.737940 340.391253 406.102999 332.987277 416.468057 328.806179 426.833116 328.177945 437.198175 331.152757 447.563233 337.494371 457.928292 346.711115 468.293351 358.118843 478.658409 370.924692 489.023468 384.317406 499.388527 397.550105 509.753585 410.004181 520.118644 421.227717 530.483703 430.947143 540.848761 439.055515 551.213820 445.583947 561.578879 450.664030 571.943937 454.488646 582.308996 457.276886 592.674055 459.246564 603.039113 460.595607 613.404172 461.491843 623.769231 462.069610" /></g><g class="series serie-5 color-5"><path class="line reactive nofill" d="M12.230769 462.941945 L22.595828 462.941945 32.960887 462.941945 43.325945 462.941945 53.691004 462.941945 64.056063 462.941945 74.421121 462.941944 84.786180 462.941943 95.151239 462.941940 105.516297 462.941933 115.881356 462.941915 126.246415 462.941872 136.611473 462.941772 146.976532 462.941543 157.341591 462.941037 167.706649 462.939949 178.071708 462.937670 188.436767 462.933036 198.801825 462.923872 209.166884 462.906257 219.531943 462.873351 229.897001 462.813614 240.262060 462.708248 250.627119 462.527706 260.992177 462.227243 271.357236 461.741684 281.722295 460.979927 292.087353 459.820132 302.452412 458.107047 312.817471 455.653341 323.182529 452.247014 333.547588 447.666699 343.912647 441.705833 354.277705 434.205144 364.642764 425.090852 375.007823 414.413652 385.372881 402.381620 395.737940 389.379193 406.102999 375.964963 416.468057 362.843509 426.833116 350.810649 437.198175 340.676711 447.563233 333.177499 457.928292 328.886320 468.293351 328.141614 478.658409 331.002860 489.023468 337.242729 499.388527 346.376920 509.753585 357.726246 520.118644 370.499926 530.483703 383.885935 540.848761 397.134209 551.213820 409.621275 561.578879 420.889540 571.943937 430.659778 582.308996 438.820068 592.674055 445.397642 603.039113 450.521483 613.404172 454.383085 623.769231 457.201167" /></g><g class="series serie-6 color-6"><path class="line reactive nofill" d="M12.230769 462.941627 L22.595828 462.941221 32.960887 462.940341 43.325945 462.938484 53.691004 462.934676 64.056063 462.927087 74.421121 462.912382 84.786180 462.884691 95.151239 462.834016 105.516297 462.743906 115.881356 462.588242 126.246415 462.327046 136.611473 461.901435 146.976532 461.228126 157.341591 460.194303 167.706649 458.654169 178.071708 456.428953 188.436767 453.312402 198.801825 449.083728 209.166884 443.529259 219.531943 436.472764 229.897001 427.812445 240.262060 417.560322 250.627119 405.877622 260.992177 393.098459 271.357236 379.734203 281.722295 366.452866 292.087353 354.031590 302.452412 343.285311 312.817471 334.979957 323.182529 329.742698 333.547588 327.983784 343.912647 329.843457 354.277705 335.173477 364.642764 343.556648 375.007823 354.360756 385.372881 366.817259 395.737940 380.111143 406.102999 393.467451 416.468057 406.222038 426.833116 417.868348 437.198175 428.077279 447.563233 436.692181 457.928292 443.704744 468.293351 449.219390 478.658409 453.413882 489.023468 456.502464 499.388527 458.705771 509.753585 460.229423 520.118644 461.251312 530.483703 461.916289 540.848761 462.336282 551.213820 462.593819 561.578879 462.747176 571.943937 462.835878 582.308996 462.885722 592.674055 462.912936 603.039113 462.927376 613.404172 462.934823 623.769231 462.938556" /></g><g class="series serie-7 color-7"><path class="line reactive nofill" d="M12.230769 462.941940 L22.595828 462.941932 32.960887 462.941913 43.325945 462.941868 53.691004 462.941762 64.056063 462.941521 74.421121 462.940989 84.786180 462.939845 95.151239 462.937456 105.516297 462.932606 115.881356 462.923033 126.246415 462.904667 136.611473 462.870421 146.976532 462.808369 157.341591 462.699126 167.706649 462.512296 178.071708 462.201965 188.436767 461.701426 198.801825 460.917699 209.166884 459.726805 219.531943 457.971297 229.897001 455.461925 240.262060 451.985515 250.627119 447.320832 260.992177 441.263333 271.357236 433.658137 281.722295 424.438442 292.087353 413.664348 302.452412 401.555089 312.817471 388.506831 323.182529 375.088882 333.547588 362.013739 343.912647 350.080711 354.277705 340.098037 364.642764 332.793482 375.007823 328.726944 385.372881 328.219591 395.737940 331.311952 406.102999 337.758572 416.468057 347.060199 426.833116 358.527640 437.198175 371.365967 447.563233 384.764815 457.928292 397.980681 468.293351 410.400041 478.658409 421.576877 489.023468 431.243478 499.388527 439.298031 509.753585 445.775630 520.118644 450.810532 530.483703 454.597023 540.848761 457.354545 551.213820 459.300499 561.578879 460.631931 571.943937 461.515576 582.308996 462.084659 592.674055 462.440416 603.039113 462.656355 613.404172 462.783650 623.769231 462.856543" /></g></g><g class="titles"><text class="title plot_title" x="400.0" y="26">Iteration #0</text><text class="title" x="462.0" y="580.0">Observation</text><text class="title" transform="rotate(-90 64.000000 282.009619)" x="64.0" y="308.0096189432334">Density</text></g><g class="plot overlay" transform="translate(144, 46)"><g class="series serie-0 color-0" /><g class="series serie-1 color-1" /><g class="series serie-2 color-2" /><g class="series serie-3 color-3" /><g class="series serie-4 color-4" /><g class="series serie-5 color-5" /><g class="series serie-6 color-6" /><g class="series serie-7 color-7" /></g><g class="plot text-overlay" transform="translate(144, 46)"><g class="series serie-0 color-0" /><g class="series serie-1 color-1" /><g class="series serie-2 color-2" /><g class="series serie-3 color-3" /><g class="series serie-4 color-4" /><g class="series serie-5 color-5" /><g class="series serie-6 color-6" /><g class="series serie-7 color-7" /></g><g class="plot tooltip-overlay" transform="translate(144, 46)"><g class="tooltip" style="opacity: 0" transform="translate(0 0)"><rect class="tooltip-box" height="0" rx="0" ry="0" width="0" /><g class="text" /></g></g><g class="legends" transform="translate(10, 56)"><g class="legend reactive activate-serie" id="activate-serie-0"><rect class="color-0 reactive" height="12" width="12" x="0.0" y="0.0" /><text x="17.0" y="9.0">Data</text></g><g class="legend reactive activate-serie" id="activate-serie-1"><rect class="color-1 reactive" height="12" width="12" x="0.0" y="18.0" /><text x="17.0" y="27.0">GMM</text></g><g class="legend reactive activate-serie" id="activate-serie-2"><rect class="color-2 reactive" height="12" width="12" x="0.0" y="36.0" /><text x="17.0" y="45.0">i=0</text></g><g class="legend reactive activate-serie" id="activate-serie-3"><rect class="color-3 reactive" height="12" width="12" x="0.0" y="54.0" /><text x="17.0" y="63.0">i=1</text></g><g class="legend reactive activate-serie" id="activate-serie-4"><rect class="color-4 reactive" height="12" width="12" x="0.0" y="72.0" /><text x="17.0" y="81.0">i=0 k=0</text></g><g class="legend reactive activate-serie" id="activate-serie-5"><rect class="color-5 reactive" height="12" width="12" x="0.0" y="90.0" /><text x="17.0" y="99.0">i=0 k=1</text></g><g class="legend reactive activate-serie" id="activate-serie-6"><rect class="color-6 reactive" height="12" width="12" x="0.0" y="108.0" /><text x="17.0" y="117.0">i=1 k=0</text></g><g class="legend reactive activate-serie" id="activate-serie-7"><rect class="color-7 reactive" height="12" width="12" x="0.0" y="126.0" /><text x="17.0" y="135.0">i=1 k=1</text></g></g><g class="legends" transform="translate(790, 56)" /></g></svg>