<?xml version='1.0' encoding='utf-8'?>
<svg xmlns:xlink="http://www.w3.org/1999/xlink" class="pygal-chart" id="chart-f1469140-3d15-4af6-930f-e7863fc3702e" viewBox="0 0 800 600" xmlns="http://www.w3.org/2000/svg"><!--Generated with pygal 2.4.0 (etree) ©Kozea 2012-2016 on 2017-12-19--><!--http://pygal.org--><!--http://github.com/Kozea/pygal--><defs><style type="text/css">#chart-f1469140-3d15-4af6-930f-e7863fc3702e{-webkit-user-select:none;-webkit-font-smoothing:antialiased;font-family:Consolas,"Liberation Mono",Menlo,Courier,monospace}#chart-f1469140-3d15-4af6-930f-e7863fc3702e .title{font-family:Consolas,"Liberation Mono",Menlo,Courier,monospace;font-size:16px}#chart-f1469140-3d15-4af6-930f-e7863fc3702e .legends .legend text{font-family:Consolas,"Liberation Mono",Menlo,Courier,monospace;font-size:10px}#chart-f1469140-3d15-4af6-930f-e7863fc3702e .axis text{font-family:Consolas,"Liberation Mono",Menlo,Courier,monospace;font-size:10px}#chart-f1469140-3d15-4af6-930f-e7863fc3702e .axis text.major{font-family:Consolas,"Liberation Mono",Menlo,Courier,monospace;font-size:10px}#chart-f1469140-3d15-4af6-930f-e7863fc3702e .text-overlay text.value{font-family:Consolas,"Liberation Mono",Menlo,Courier,monospace;font-size:16px}#chart-f1469140-3d15-4af6-930f-e7863fc3702e .text-overlay text.label{font-family:Consolas,"Liberation Mono",Menlo,Courier,monospace;font-size:10px}#chart-f1469140-3d15-4af6-930f-e7863fc3702e .tooltip{font-family:Consolas,"Liberation Mono",Menlo,Courier,monospace;font-size:14px}#chart-f1469140-3d15-4af6-930f-e7863fc3702e text.no_data{font-family:Consolas,"Liberation Mono",Menlo,Courier,monospace;font-size:64px}
#chart-f1469140-3d15-4af6-930f-e7863fc3702e{background-color:rgba(249,249,249,1)}#chart-f1469140-3d15-4af6-930f-e7863fc3702e path,#chart-f1469140-3d15-4af6-930f-e7863fc3702e line,#chart-f1469140-3d15-4af6-930f-e7863fc3702e rect,#chart-f1469140-3d15-4af6-930f-e7863fc3702e circle{-webkit-transition:150ms;-moz-transition:150ms;transition:150ms}#chart-f1469140-3d15-4af6-930f-e7863fc3702e .graph &gt; .background{fill:rgba(249,249,249,1)}#chart-f1469140-3d15-4af6-930f-e7863fc3702e .plot &gt; .background{fill:rgba(255,255,255,1)}#chart-f1469140-3d15-4af6-930f-e7863fc3702e .graph{fill:rgba(0,0,0,.87)}#chart-f1469140-3d15-4af6-930f-e7863fc3702e text.no_data{fill:rgba(0,0,0,1)}#chart-f1469140-3d15-4af6-930f-e7863fc3702e .title{fill:rgba(0,0,0,1)}#chart-f1469140-3d15-4af6-930f-e7863fc3702e .legends .legend text{fill:rgba(0,0,0,.87)}#chart-f1469140-3d15-4af6-930f-e7863fc3702e .legends .legend:hover text{fill:rgba(0,0,0,1)}#chart-f1469140-3d15-4af6-930f-e7863fc3702e .axis .line{stroke:rgba(0,0,0,1)}#chart-f1469140-3d15-4af6-930f-e7863fc3702e .axis .guide.line{stroke:rgba(0,0,0,.54)}#chart-f1469140-3d15-4af6-930f-e7863fc3702e .axis .major.line{stroke:rgba(0,0,0,.87)}#chart-f1469140-3d15-4af6-930f-e7863fc3702e .axis text.major{fill:rgba(0,0,0,1)}#chart-f1469140-3d15-4af6-930f-e7863fc3702e .axis.y .guides:hover .guide.line,#chart-f1469140-3d15-4af6-930f-e7863fc3702e .line-graph .axis.x .guides:hover .guide.line,#chart-f1469140-3d15-4af6-930f-e7863fc3702e .stackedline-graph .axis.x .guides:hover .guide.line,#chart-f1469140-3d15-4af6-930f-e7863fc3702e .xy-graph .axis.x .guides:hover .guide.line{stroke:rgba(0,0,0,1)}#chart-f1469140-3d15-4af6-930f-e7863fc3702e .axis .guides:hover text{fill:rgba(0,0,0,1)}#chart-f1469140-3d15-4af6-930f-e7863fc3702e .reactive{fill-opacity:.7;stroke-opacity:.8}#chart-f1469140-3d15-4af6-930f-e7863fc3702e .ci{stroke:rgba(0,0,0,.87)}#chart-f1469140-3d15-4af6-930f-e7863fc3702e .reactive.active,#chart-f1469140-3d15-4af6-930f-e7863fc3702e .active .reactive{fill-opacity:.8;stroke-opacity:.9;stroke-width:4}#chart-f1469140-3d15-4af6-930f-e7863fc3702e .ci .reactive.active{stroke-width:1.5}#chart-f1469140-3d15-4af6-930f-e7863fc3702e .series text{fill:rgba(0,0,0,1)}#chart-f1469140-3d15-4af6-930f-e7863fc3702e .tooltip rect{fill:rgba(255,255,255,1);stroke:rgba(0,0,0,1);-webkit-transition:opacity 150ms;-moz-transition:opacity 150ms;transition:opacity 150ms}#chart-f1469140-3d15-4af6-930f-e7863fc3702e .tooltip .label{fill:rgba(0,0,0,.87)}#chart-f1469140-3d15-4af6-930f-e7863fc3702e .tooltip .label{fill:rgba(0,0,0,.87)}#chart-f1469140-3d15-4af6-930f-e7863fc3702e .tooltip .legend{font-size:.8em;fill:rgba(0,0,0,.54)}#chart-f1469140-3d15-4af6-930f-e7863fc3702e .tooltip .x_label{font-size:.6em;fill:rgba(0,0,0,1)}#chart-f1469140-3d15-4af6-930f-e7863fc3702e .tooltip .xlink{font-size:.5em;text-decoration:underline}#chart-f1469140-3d15-4af6-930f-e7863fc3702e .tooltip .value{font-size:1.5em}#chart-f1469140-3d15-4af6-930f-e7863fc3702e .bound{font-size:.5em}#chart-f1469140-3d15-4af6-930f-e7863fc3702e .max-value{font-size:.75em;fill:rgba(0,0,0,.54)}#chart-f1469140-3d15-4af6-930f-e7863fc3702e .map-element{fill:rgba(255,255,255,1);stroke:rgba(0,0,0,.54) !important}#chart-f1469140-3d15-4af6-930f-e7863fc3702e .map-element .reactive{fill-opacity:inherit;stroke-opacity:inherit}#chart-f1469140-3d15-4af6-930f-e7863fc3702e .color-0,#chart-f1469140-3d15-4af6-930f-e7863fc3702e .color-0 a:visited{stroke:#909090;fill:#909090}#chart-f1469140-3d15-4af6-930f-e7863fc3702e .color-1,#chart-f1469140-3d15-4af6-930f-e7863fc3702e .color-1 a:visited{stroke:#000000;fill:#000000}#chart-f1469140-3d15-4af6-930f-e7863fc3702e .color-2,#chart-f1469140-3d15-4af6-930f-e7863fc3702e .color-2 a:visited{stroke:#ff0500;fill:#ff0500}#chart-f1469140-3d15-4af6-930f-e7863fc3702e .color-3,#chart-f1469140-3d15-4af6-930f-e7863fc3702e .color-3 a:visited{stroke:#323299;fill:#323299}#chart-f1469140-3d15-4af6-930f-e7863fc3702e .color-4,#chart-f1469140-3d15-4af6-930f-e7863fc3702e .color-4 a:visited{stroke:#a3413f;fill:#a3413f}#chart-f1469140-3d15-4af6-930f-e7863fc3702e .color-5,#chart-f1469140-3d15-4af6-930f-e7863fc3702e .color-5 a:visited{stroke:#a3413f;fill:#a3413f}#chart-f1469140-3d15-4af6-930f-e7863fc3702e .color-6,#chart-f1469140-3d15-4af6-930f-e7863fc3702e .color-6 a:visited{stroke:#a3413f;fill:#a3413f}#chart-f1469140-3d15-4af6-930f-e7863fc3702e .color-7,#chart-f1469140-3d15-4af6-930f-e7863fc3702e .color-7 a:visited{stroke:#a3413f;fill:#a3413f}#chart-f1469140-3d15-4af6-930f-e7863fc3702e .color-8,#chart-f1469140-3d15-4af6-930f-e7863fc3702e .color-8 a:visited{stroke:#a3413f;fill:#a3413f}#chart-f1469140-3d15-4af6-930f-e7863fc3702e .color-9,#chart-f1469140-3d15-4af6-930f-e7863fc3702e .color-9 a:visited{stroke:#657fff;fill:#657fff}#chart-f1469140-3d15-4af6-930f-e7863fc3702e .color-10,#chart-f1469140-3d15-4af6-930f-e7863fc3702e .color-10 a:visited{stroke:#657fff;fill:#657fff}#chart-f1469140-3d15-4af6-930f-e7863fc3702e .color-11,#chart-f1469140-3d15-4af6-930f-e7863fc3702e .color-11 a:visited{stroke:#657fff;fill:#657fff}#chart-f1469140-3d15-4af6-930f-e7863fc3702e .color-12,#chart-f1469140-3d15-4af6-930f-e7863fc3702e .color-12 a:visited{stroke:#657fff;fill:#657fff}#chart-f1469140-3d15-4af6-930f-e7863fc3702e .color-13,#chart-f1469140-3d15-4af6-930f-e7863fc3702e .color-13 a:visited{stroke:#657fff;fill:#657fff}#chart-f1469140-3d15-4af6-930f-e7863fc3702e .text-overlay .color-0 text{fill:black}#chart-f1469140-3d15-4af6-930f-e7863fc3702e .text-overlay .color-1 text{fill:white}#chart-f1469140-3d15-4af6-930f-e7863fc3702e .text-overlay .color-2 text{fill:black}#chart-f1469140-3d15-4af6-930f-e7863fc3702e .text-overlay .color-3 text{fill:black}#chart-f1469140-3d15-4af6-930f-e7863fc3702e .text-overlay .color-4 text{fill:black}#chart-f1469140-3d15-4af6-930f-e7863fc3702e .text-overlay .color-5 text{fill:black}#chart-f1469140-3d15-4af6-930f-e7863fc3702e .text-overlay .color-6 text{fill:black}#chart-f1469140-3d15-4af6-930f-e7863fc3702e .text-overlay .color-7 text{fill:black}#chart-f1469140-3d15-4af6-930f-e7863fc3702e .text-overlay .color-8 text{fill:black}#chart-f1469140-3d15-4af6-930f-e7863fc3702e .text-overlay .color-9 text{fill:black}#chart-f1469140-3d15-4af6-930f-e7863fc3702e .text-overlay .color-10 text{fill:black}#chart-f1469140-3d15-4af6-930f-e7863fc3702e .text-overlay .color-11 text{fill:black}#chart-f1469140-3d15-4af6-930f-e7863fc3702e .text-overlay .color-12 text{fill:black}#chart-f1469140-3d15-4af6-930f-e7863fc3702e .text-overlay .color-13 text{fill:black}#chart-f1469140-3d15-4af6-930f-e7863fc3702e .series.serie-1{stroke-width:5}#chart-f1469140-3d15-4af6-930f-e7863fc3702e .series.serie-2{stroke-width:3}#chart-f1469140-3d15-4af6-930f-e7863fc3702e .series.serie-3{stroke-width:3}#chart-f1469140-3d15-4af6-930f-e7863fc3702e .series.serie-4{stroke-width:2;stroke-dasharray:2,2}#chart-f1469140-3d15-4af6-930f-e7863fc3702e .series.serie-5{stroke-width:2;stroke-dasharray:2,2}#chart-f1469140-3d15-4af6-930f-e7863fc3702e .series.serie-6{stroke-width:2;stroke-dasharray:2,2}#chart-f1469140-3d15-4af6-930f-e7863fc3702e .series.serie-7{stroke-width:2;stroke-dasharray:2,2}#chart-f1469140-3d15-4af6-930f-e7863fc3702e .series.serie-8{stroke-width:2;stroke-dasharray:2,2}#chart-f1469140-3d15-4af6-930f-e7863fc3702e .series.serie-9{stroke-width:2;stroke-dasharray:2,2}#chart-f1469140-3d15-4af6-930f-e7863fc3702e .series.serie-10{stroke-width:2;stroke-dasharray:2,2}#chart-f1469140-3d15-4af6-930f-e7863fc3702e .series.serie-11{stroke-width:2;stroke-dasharray:2,2}#chart-f1469140-3d15-4af6-930f-e7863fc3702e .series.serie-12{stroke-width:2;stroke-dasharray:2,2}#chart-f1469140-3d15-4af6-930f-e7863fc3702e .series.serie-13{stroke-width:2;stroke-dasharray:2,2}
#chart-f1469140-3d15-4af6-930f-e7863fc3702e text.no_data{text-anchor:middle}#chart-f1469140-3d15-4af6-930f-e7863fc3702e .guide.line{fill:none}#chart-f1469140-3d15-4af6-930f-e7863fc3702e .centered{text-anchor:middle}#chart-f1469140-3d15-4af6-930f-e7863fc3702e .title{text-anchor:middle}#chart-f1469140-3d15-4af6-930f-e7863fc3702e .legends .legend text{fill-opacity:1}#chart-f1469140-3d15-4af6-930f-e7863fc3702e .axis.x text{text-anchor:middle}#chart-f1469140-3d15-4af6-930f-e7863fc3702e .axis.x:not(.web) text[transform]{text-anchor:start}#chart-f1469140-3d15-4af6-930f-e7863fc3702e .axis.x:not(.web) text[transform].backwards{text-anchor:end}#chart-f1469140-3d15-4af6-930f-e7863fc3702e .axis.y text{text-anchor:end}#chart-f1469140-3d15-4af6-930f-e7863fc3702e .axis.y text[transform].backwards{text-anchor:start}#chart-f1469140-3d15-4af6-930f-e7863fc3702e .axis.y2 text{text-anchor:start}#chart-f1469140-3d15-4af6-930f-e7863fc3702e .axis.y2 text[transform].backwards{text-anchor:end}#chart-f1469140-3d15-4af6-930f-e7863fc3702e .axis .guide.line{stroke-dasharray:4,4}#chart-f1469140-3d15-4af6-930f-e7863fc3702e .axis .major.guide.line{stroke-dasharray:6,6}#chart-f1469140-3d15-4af6-930f-e7863fc3702e .horizontal .axis.y .guide.line,#chart-f1469140-3d15-4af6-930f-e7863fc3702e .horizontal .axis.y2 .guide.line,#chart-f1469140-3d15-4af6-930f-e7863fc3702e .vertical .axis.x .guide.line{opacity:0}#chart-f1469140-3d15-4af6-930f-e7863fc3702e .horizontal .axis.always_show .guide.line,#chart-f1469140-3d15-4af6-930f-e7863fc3702e .vertical .axis.always_show .guide.line{opacity:1 !important}#chart-f1469140-3d15-4af6-930f-e7863fc3702e .axis.y .guides:hover .guide.line,#chart-f1469140-3d15-4af6-930f-e7863fc3702e .axis.y2 .guides:hover .guide.line,#chart-f1469140-3d15-4af6-930f-e7863fc3702e .axis.x .guides:hover .guide.line{opacity:1}#chart-f1469140-3d15-4af6-930f-e7863fc3702e .axis .guides:hover text{opacity:1}#chart-f1469140-3d15-4af6-930f-e7863fc3702e .nofill{fill:none}#chart-f1469140-3d15-4af6-930f-e7863fc3702e .subtle-fill{fill-opacity:.2}#chart-f1469140-3d15-4af6-930f-e7863fc3702e .dot{stroke-width:1px;fill-opacity:1}#chart-f1469140-3d15-4af6-930f-e7863fc3702e .dot.active{stroke-width:5px}#chart-f1469140-3d15-4af6-930f-e7863fc3702e .dot.negative{fill:transparent}#chart-f1469140-3d15-4af6-930f-e7863fc3702e text,#chart-f1469140-3d15-4af6-930f-e7863fc3702e tspan{stroke:none !important}#chart-f1469140-3d15-4af6-930f-e7863fc3702e .series text.active{opacity:1}#chart-f1469140-3d15-4af6-930f-e7863fc3702e .tooltip rect{fill-opacity:.95;stroke-width:.5}#chart-f1469140-3d15-4af6-930f-e7863fc3702e .tooltip text{fill-opacity:1}#chart-f1469140-3d15-4af6-930f-e7863fc3702e .showable{visibility:hidden}#chart-f1469140-3d15-4af6-930f-e7863fc3702e .showable.shown{visibility:visible}#chart-f1469140-3d15-4af6-930f-e7863fc3702e .gauge-background{fill:rgba(229,229,229,1);stroke:none}#chart-f1469140-3d15-4af6-930f-e7863fc3702e .bg-lines{stroke:rgba(249,249,249,1);stroke-width:2px}</style><script type="text/javascript">window.pygal = window.pygal || {};window.pygal.config = window.pygal.config || {};window.pygal.config['f1469140-3d15-4af6-930f-e7863fc3702e'] = {"css": ["file://style.css", "file://graph.css"], "include_x_axis": false, "min_scale": 4, "print_zeroes": true, "show_x_labels": true, "stroke": true, "show_minor_y_labels": true, "inner_radius": 0, "fill": false, "pretty_print": false, "js": ["//kozea.github.io/pygal.js/2.0.x/pygal-tooltips.min.js"], "x_labels": ["-8.96", "-8.76", "-8.56", "-8.36", "-8.16", "-7.96", "-7.76", "-7.56", "-7.36", "-7.16", "-6.96", "-6.76", "-6.56", "-6.36", "-6.16", "-5.96", "-5.76", "-5.56", "-5.36", "-5.16", "-4.96", "-4.76", "-4.56", "-4.36", "-4.16", "-3.96", "-3.76", "-3.56", "-3.36", "-3.16", "-2.96", "-2.76", "-2.56", "-2.36", "-2.16", "-1.96", "-1.76", "-1.56", "-1.36", "-1.16", "-0.96", "-0.76", "-0.56", "-0.36", "-0.16", "0.04", "0.24", "0.44", "0.64", "0.84", "1.04", "1.24", "1.43", "1.63", "1.83", "2.03", "2.23", "2.43", "2.63", "2.83"], "logarithmic": false, "show_minor_x_labels": false, "formatter": null, "tooltip_fancy_mode": true, "defs": [], "stroke_style": null, "spacing": 10, "show_only_major_dots": false, "half_pie": false, "show_legend": true, "dynamic_print_values": false, "max_scale": 16, "explicit_size": false, "y_label_rotation": 0, "y_labels": null, "x_labels_major": null, "margin_top": null, "interpolation_precision": 250, "xrange": null, "order_min": null, "y_title": "Density", "title": "Iteration #11", "x_label_rotation": 60, "interpolation_parameters": {}, "stack_from_top": false, "truncate_legend": null, "x_title": "Observation", "show_y_guides": true, "no_prefix": false, "print_values_position": "center", "show_y_labels": true, "classes": ["pygal-chart"], "force_uri_protocol": "https", "x_labels_major_count": null, "allow_interruptions": false, "width": 800, "height": 600, "secondary_range": null, "box_mode": "extremes", "margin_left": null, "y_labels_major": null, "margin_right": null, "zero": 0, "dots_size": 2.5, "no_data_text": "No data", "show_dots": false, "range": [0, 0.27578580090479526], "truncate_label": null, "margin_bottom": null, "y_labels_major_every": null, "show_x_guides": false, "disable_xml_declaration": false, "print_values": false, "x_labels_major_every": 2, "print_labels": false, "y_labels_major_count": null, "interpolate": null, "legend_at_bottom": false, "style": {"value_font_size": 16, "tooltip_font_family": "Consolas, \"Liberation Mono\", Menlo, Courier, monospace", "major_label_font_family": "Consolas, \"Liberation Mono\", Menlo, Courier, monospace", "value_colors": [], "value_background": "rgba(229, 229, 229, 1)", "foreground_strong": "rgba(0, 0, 0, 1)", "opacity": ".7", "font_family": "Consolas, \"Liberation Mono\", Menlo, Courier, monospace", "label_font_size": 10, "transition": "150ms", "title_font_family": "Consolas, \"Liberation Mono\", Menlo, Courier, monospace", "background": "rgba(249, 249, 249, 1)", "stroke_opacity": ".8", "no_data_font_size": 64, "value_label_font_family": "Consolas, \"Liberation Mono\", Menlo, Courier, monospace", "value_label_font_size": 10, "value_font_family": "Consolas, \"Liberation Mono\", Menlo, Courier, monospace", "plot_background": "rgba(255, 255, 255, 1)", "colors": ["#909090", "#000000", "#ff0500", "#323299", "#a3413f", "#a3413f", "#a3413f", "#a3413f", "#a3413f", "#657fff", "#657fff", "#657fff", "#657fff", "#657fff"], "legend_font_size": 10, "guide_stroke_dasharray": "4,4", "major_label_font_size": 10, "stroke_opacity_hover": ".9", "major_guide_stroke_dasharray": "6,6", "opacity_hover": ".8", "no_data_font_family": "Consolas, \"Liberation Mono\", Menlo, Courier, monospace", "title_font_size": 16, "ci_colors": [], "foreground": "rgba(0, 0, 0, .87)", "foreground_subtle": "rgba(0, 0, 0, .54)", "legend_font_family": "Consolas, \"Liberation Mono\", Menlo, Courier, monospace", "label_font_family": "Consolas, \"Liberation Mono\", Menlo, Courier, monospace", "tooltip_font_size": 14}, "strict": false, "legend_box_size": 12, "tooltip_border_radius": 0, "margin": 20, "legends": ["Data", "GMM", "i=0", "i=1", "i=0 k=0", "i=0 k=1", "i=0 k=2", "i=0 k=3", "i=0 k=4", "i=1 k=0", "i=1 k=1", "i=1 k=2", "i=1 k=3", "i=1 k=4"], "inverse_y_axis": false, "legend_at_bottom_columns": null, "rounded_bars": null, "missing_value_fill_truncation": "x"}</script><script type="text/javascript" xlink:href="https://kozea.github.io/pygal.js/2.0.x/pygal-tooltips.min.js" /></defs><title>Iteration #11</title><g class="graph line-graph vertical"><rect class="background" height="600" width="800" x="0" y="0" /><g class="plot" transform="translate(144, 46)"><rect class="background" height="472.01923788646684" width="636.0" x="0" y="0" /><g class="axis y always_show"><g class="guides"><path class="axis major line" d="M0.000000 462.941945 h636.000000" /><text class="major" x="-5" y="466.44194485">0</text><title>0</title></g><g class="guides"><path class="guide line" d="M0.000000 430.027658 h636.000000" /><text class="" x="-5" y="433.527657724">0.02</text><title>0.02</title></g><g class="guides"><path class="guide line" d="M0.000000 397.113371 h636.000000" /><text class="" x="-5" y="400.613370598">0.04</text><title>0.04</title></g><g class="guides"><path class="guide line" d="M0.000000 364.199083 h636.000000" /><text class="" x="-5" y="367.699083472">0.06</text><title>0.06</title></g><g class="guides"><path class="guide line" d="M0.000000 331.284796 h636.000000" /><text class="" x="-5" y="334.784796346">0.08</text><title>0.08</title></g><g class="guides"><path class="guide line" d="M0.000000 298.370509 h636.000000" /><text class="" x="-5" y="301.87050922">0.1</text><title>0.1</title></g><g class="guides"><path class="guide line" d="M0.000000 265.456222 h636.000000" /><text class="" x="-5" y="268.956222094">0.12</text><title>0.12</title></g><g class="guides"><path class="guide line" d="M0.000000 232.541935 h636.000000" /><text class="" x="-5" y="236.041934968">0.14</text><title>0.14</title></g><g class="guides"><path class="guide line" d="M0.000000 199.627648 h636.000000" /><text class="" x="-5" y="203.127647841">0.16</text><title>0.16</title></g><g class="guides"><path class="guide line" d="M0.000000 166.713361 h636.000000" /><text class="" x="-5" y="170.213360715">0.18</text><title>0.18</title></g><g class="guides"><path class="guide line" d="M0.000000 133.799074 h636.000000" /><text class="" x="-5" y="137.299073589">0.2</text><title>0.2</title></g><g class="guides"><path class="guide line" d="M0.000000 100.884786 h636.000000" /><text class="" x="-5" y="104.384786463">0.22</text><title>0.22</title></g><g class="guides"><path class="guide line" d="M0.000000 67.970499 h636.000000" /><text class="" x="-5" y="71.4704993371">0.24</text><title>0.24</title></g><g class="guides"><path class="guide line" d="M0.000000 35.056212 h636.000000" /><text class="" x="-5" y="38.5562122111">0.26</text><title>0.26</title></g></g><g class="axis x"><g class="guides"><path class="major line" d="M12.230769 0.000000 v472.019238" /><text class="major" transform="rotate(60 12.230769 487.019238)" x="12.230769230769232" y="487.01923788646684">-8.96</text></g><g class="guides"><path class="major guide line" d="M32.960887 0.000000 v472.019238" /><text class="major" transform="rotate(60 32.960887 487.019238)" x="32.96088657105606" y="487.01923788646684">-8.56</text></g><g class="guides"><path class="major guide line" d="M53.691004 0.000000 v472.019238" /><text class="major" transform="rotate(60 53.691004 487.019238)" x="53.6910039113429" y="487.01923788646684">-8.16</text></g><g class="guides"><path class="major guide line" d="M74.421121 0.000000 v472.019238" /><text class="major" transform="rotate(60 74.421121 487.019238)" x="74.42112125162973" y="487.01923788646684">-7.76</text></g><g class="guides"><path class="major guide line" d="M95.151239 0.000000 v472.019238" /><text class="major" transform="rotate(60 95.151239 487.019238)" x="95.15123859191655" y="487.01923788646684">-7.36</text></g><g class="guides"><path class="major guide line" d="M115.881356 0.000000 v472.019238" /><text class="major" transform="rotate(60 115.881356 487.019238)" x="115.88135593220338" y="487.01923788646684">-6.96</text></g><g class="guides"><path class="major guide line" d="M136.611473 0.000000 v472.019238" /><text class="major" transform="rotate(60 136.611473 487.019238)" x="136.61147327249023" y="487.01923788646684">-6.56</text></g><g class="guides"><path class="major guide line" d="M157.341591 0.000000 v472.019238" /><text class="major" transform="rotate(60 157.341591 487.019238)" x="157.34159061277705" y="487.01923788646684">-6.16</text></g><g class="guides"><path class="major guide line" d="M178.071708 0.000000 v472.019238" /><text class="major" transform="rotate(60 178.071708 487.019238)" x="178.0717079530639" y="487.01923788646684">-5.76</text></g><g class="guides"><path class="major guide line" d="M198.801825 0.000000 v472.019238" /><text class="major" transform="rotate(60 198.801825 487.019238)" x="198.80182529335073" y="487.01923788646684">-5.36</text></g><g class="guides"><path class="major guide line" d="M219.531943 0.000000 v472.019238" /><text class="major" transform="rotate(60 219.531943 487.019238)" x="219.53194263363756" y="487.01923788646684">-4.96</text></g><g class="guides"><path class="major guide line" d="M240.262060 0.000000 v472.019238" /><text class="major" transform="rotate(60 240.262060 487.019238)" x="240.2620599739244" y="487.01923788646684">-4.56</text></g><g class="guides"><path class="major guide line" d="M260.992177 0.000000 v472.019238" /><text class="major" transform="rotate(60 260.992177 487.019238)" x="260.99217731421123" y="487.01923788646684">-4.16</text></g><g class="guides"><path class="major guide line" d="M281.722295 0.000000 v472.019238" /><text class="major" transform="rotate(60 281.722295 487.019238)" x="281.722294654498" y="487.01923788646684">-3.76</text></g><g class="guides"><path class="major guide line" d="M302.452412 0.000000 v472.019238" /><text class="major" transform="rotate(60 302.452412 487.019238)" x="302.4524119947849" y="487.01923788646684">-3.36</text></g><g class="guides"><path class="major guide line" d="M323.182529 0.000000 v472.019238" /><text class="major" transform="rotate(60 323.182529 487.019238)" x="323.1825293350717" y="487.01923788646684">-2.96</text></g><g class="guides"><path class="major guide line" d="M343.912647 0.000000 v472.019238" /><text class="major" transform="rotate(60 343.912647 487.019238)" x="343.91264667535853" y="487.01923788646684">-2.56</text></g><g class="guides"><path class="major guide line" d="M364.642764 0.000000 v472.019238" /><text class="major" transform="rotate(60 364.642764 487.019238)" x="364.64276401564535" y="487.01923788646684">-2.16</text></g><g class="guides"><path class="major guide line" d="M385.372881 0.000000 v472.019238" /><text class="major" transform="rotate(60 385.372881 487.019238)" x="385.37288135593224" y="487.01923788646684">-1.76</text></g><g class="guides"><path class="major guide line" d="M406.102999 0.000000 v472.019238" /><text class="major" transform="rotate(60 406.102999 487.019238)" x="406.102998696219" y="487.01923788646684">-1.36</text></g><g class="guides"><path class="major guide line" d="M426.833116 0.000000 v472.019238" /><text class="major" transform="rotate(60 426.833116 487.019238)" x="426.8331160365058" y="487.01923788646684">-0.96</text></g><g class="guides"><path class="major guide line" d="M447.563233 0.000000 v472.019238" /><text class="major" transform="rotate(60 447.563233 487.019238)" x="447.56323337679265" y="487.01923788646684">-0.56</text></g><g class="guides"><path class="major guide line" d="M468.293351 0.000000 v472.019238" /><text class="major" transform="rotate(60 468.293351 487.019238)" x="468.29335071707953" y="487.01923788646684">-0.16</text></g><g class="guides"><path class="major guide line" d="M489.023468 0.000000 v472.019238" /><text class="major" transform="rotate(60 489.023468 487.019238)" x="489.02346805736636" y="487.01923788646684">0.24</text></g><g class="guides"><path class="major guide line" d="M509.753585 0.000000 v472.019238" /><text class="major" transform="rotate(60 509.753585 487.019238)" x="509.75358539765324" y="487.01923788646684">0.64</text></g><g class="guides"><path class="major guide line" d="M530.483703 0.000000 v472.019238" /><text class="major" transform="rotate(60 530.483703 487.019238)" x="530.48370273794" y="487.01923788646684">1.04</text></g><g class="guides"><path class="major guide line" d="M551.213820 0.000000 v472.019238" /><text class="major" transform="rotate(60 551.213820 487.019238)" x="551.213820078227" y="487.01923788646684">1.43</text></g><g class="guides"><path class="major guide line" d="M571.943937 0.000000 v472.019238" /><text class="major" transform="rotate(60 571.943937 487.019238)" x="571.9439374185138" y="487.01923788646684">1.83</text></g><g class="guides"><path class="major guide line" d="M592.674055 0.000000 v472.019238" /><text class="major" transform="rotate(60 592.674055 487.019238)" x="592.6740547588006" y="487.01923788646684">2.23</text></g><g class="guides"><path class="major guide line" d="M613.404172 0.000000 v472.019238" /><text class="major" transform="rotate(60 613.404172 487.019238)" x="613.4041720990874" y="487.01923788646684">2.63</text></g></g><g class="series serie-0 color-0"><path class="line reactive" d="M12.230769 462.941945 L12.230769 462.019456 22.595828 462.941945 32.960887 461.096967 43.325945 462.019456 53.691004 459.251988 64.056063 462.019456 74.421121 458.329499 84.786180 462.019456 95.151239 458.329499 105.516297 462.019456 115.881356 448.182119 126.246415 460.174477 136.611473 457.407010 146.976532 457.407010 157.341591 451.872075 167.706649 448.182119 178.071708 454.639543 188.436767 445.414651 198.801825 442.647184 209.166884 436.189760 219.531943 437.112249 229.897001 392.832771 240.262060 396.522728 250.627119 376.227967 260.992177 355.933206 271.357236 351.320760 281.722295 325.491065 292.087353 277.521630 302.452412 283.056565 312.817471 202.800010 323.182529 188.040184 333.547588 169.590402 343.912647 123.465945 354.277705 95.791271 364.642764 67.194108 375.007823 82.876423 385.372881 60.736684 395.737940 80.108956 406.102999 29.372054 416.468057 9.077293 426.833116 70.884065 437.198175 69.039086 447.563233 41.364413 457.928292 40.441923 468.293351 91.178826 478.658409 140.993239 489.023468 214.792369 499.388527 259.071847 509.753585 321.801108 520.118644 364.235608 530.483703 408.515086 540.848761 430.654825 551.213820 448.182119 561.578879 455.562032 571.943937 458.329499 582.308996 458.329499 592.674055 462.019456 603.039113 462.941945 613.404172 462.019456 623.769231 462.941945" /></g><g class="series serie-1 color-1"><path class="line reactive nofill" d="M12.230769 462.862511 L22.595828 462.814690 32.960887 462.741576 43.325945 462.631869 53.691004 462.470324 64.056063 462.236922 74.421121 461.906086 84.786180 461.446098 95.151239 460.818856 105.516297 459.980164 115.881356 458.880691 126.246415 457.467703 136.611473 455.687482 146.976532 453.488093 157.341591 450.821763 167.706649 447.645649 178.071708 443.919260 188.436767 439.596452 198.801825 434.610091 209.166884 428.848467 219.531943 422.124686 229.897001 414.143588 240.262060 404.474637 250.627119 392.542585 260.992177 377.649064 271.357236 359.036623 281.722295 336.002510 292.087353 308.064625 302.452412 275.177217 312.817471 237.984439 323.182529 198.072561 333.547588 158.124201 343.912647 121.803038 354.277705 93.168396 364.642764 75.534816 375.007823 70.004872 385.372881 74.308769 395.737940 82.794602 406.102999 88.119276 416.468057 84.345965 426.833116 70.155429 437.198175 50.411681 447.563233 34.892047 457.928292 34.452544 468.293351 56.407539 478.658409 101.442103 489.023468 163.526192 499.388527 232.609980 509.753585 298.472799 520.118644 353.813340 530.483703 395.480341 540.848761 423.920254 551.213820 441.688180 561.578879 451.945055 571.943937 457.473999 582.308996 460.292602 592.674055 461.672647 603.039113 462.333146 613.404172 462.647584 623.769231 462.798455" /></g><g class="series serie-2 color-2"><path class="line reactive nofill" d="M12.230769 462.941945 L22.595828 462.941945 32.960887 462.941945 43.325945 462.941945 53.691004 462.941945 64.056063 462.941945 74.421121 462.941945 84.786180 462.941945 95.151239 462.941945 105.516297 462.941945 115.881356 462.941945 126.246415 462.941945 136.611473 462.941945 146.976532 462.941945 157.341591 462.941945 167.706649 462.941945 178.071708 462.941944 188.436767 462.941942 198.801825 462.941938 209.166884 462.941924 219.531943 462.941887 229.897001 462.941791 240.262060 462.941547 250.627119 462.940944 260.992177 462.939480 271.357236 462.935967 281.722295 462.927558 292.087353 462.907333 302.452412 462.858335 312.817471 462.739324 323.182529 462.452759 333.547588 461.779013 343.912647 460.256447 354.277705 456.995460 364.642764 450.452840 375.007823 438.272465 385.372881 417.399466 395.737940 384.720092 406.102999 338.350166 416.468057 279.325196 426.833116 212.956890 437.198175 148.861933 447.563233 99.014738 457.928292 74.158811 468.293351 80.009519 478.658409 115.090860 489.023468 171.333584 499.388527 237.105691 509.753585 301.116195 520.118644 355.411250 530.483703 396.471535 540.848761 424.546206 551.213820 442.086685 561.578879 452.198606 571.943937 457.634189 582.308996 460.392674 592.674055 461.734299 603.039113 462.370546 613.404172 462.669906 623.769231 462.811556" /></g><g class="series serie-3 color-3"><path class="line reactive nofill" d="M12.230769 462.862511 L22.595828 462.814690 32.960887 462.741576 43.325945 462.631869 53.691004 462.470324 64.056063 462.236922 74.421121 461.906086 84.786180 461.446098 95.151239 460.818856 105.516297 459.980164 115.881356 458.880691 126.246415 457.467703 136.611473 455.687482 146.976532 453.488093 157.341591 450.821763 167.706649 447.645650 178.071708 443.919261 188.436767 439.596454 198.801825 434.610098 209.166884 428.848488 219.531943 422.124744 229.897001 414.143742 240.262060 404.475035 250.627119 392.543586 260.992177 377.651529 271.357236 359.042600 281.722295 336.016897 292.087353 308.099237 302.452412 275.260828 312.817471 238.187060 323.182529 198.561746 333.547588 159.287133 343.912647 124.488536 354.277705 99.114881 364.642764 88.023921 375.007823 94.674352 385.372881 119.851248 395.737940 161.016454 406.102999 212.711055 416.468057 267.962714 426.833116 320.140485 437.198175 364.491694 447.563233 398.819253 457.928292 423.235678 468.293351 439.339965 478.658409 449.293188 489.023468 455.134553 499.388527 458.446234 509.753585 460.298549 520.118644 461.344034 530.483703 461.950751 540.848761 462.315993 551.213820 462.543439 561.578879 462.688395 571.943937 462.781754 582.308996 462.841873 592.674055 462.880293 603.039113 462.904544 613.404172 462.919623 623.769231 462.928844" /></g><g class="series serie-4 color-4"><path class="line reactive nofill" d="M12.230769 462.941945 L22.595828 462.941945 32.960887 462.941945 43.325945 462.941945 53.691004 462.941945 64.056063 462.941945 74.421121 462.941945 84.786180 462.941945 95.151239 462.941945 105.516297 462.941945 115.881356 462.941945 126.246415 462.941945 136.611473 462.941945 146.976532 462.941945 157.341591 462.941945 167.706649 462.941945 178.071708 462.941945 188.436767 462.941945 198.801825 462.941945 209.166884 462.941945 219.531943 462.941945 229.897001 462.941945 240.262060 462.941944 250.627119 462.941942 260.992177 462.941929 271.357236 462.941860 281.722295 462.941542 292.087353 462.940191 302.452412 462.934947 312.817471 462.916373 323.182529 462.856375 333.547588 462.679744 343.912647 462.206230 354.277705 461.051580 364.642764 458.494179 375.007823 453.359008 385.372881 444.035244 395.737940 428.783876 406.102999 406.431163 416.468057 377.330909 426.833116 344.176905 437.198175 312.070197 447.563233 287.437688 457.928292 275.990932 468.293351 280.582432 478.658409 300.053808 489.023468 329.709216 499.388527 363.150612 509.753585 394.497981 520.118644 419.954867 530.483703 438.218948 540.848761 449.921532 551.213820 456.662680 561.578879 460.168923 571.943937 461.820551 582.308996 462.526681 592.674055 462.801130 603.039113 462.898219 613.404172 462.929512 623.769231 462.938708" /></g><g class="series serie-5 color-5"><path class="line reactive nofill" d="M12.230769 462.941945 L22.595828 462.941945 32.960887 462.941945 43.325945 462.941945 53.691004 462.941945 64.056063 462.941945 74.421121 462.941945 84.786180 462.941945 95.151239 462.941945 105.516297 462.941945 115.881356 462.941945 126.246415 462.941945 136.611473 462.941945 146.976532 462.941945 157.341591 462.941945 167.706649 462.941945 178.071708 462.941945 188.436767 462.941945 198.801825 462.941945 209.166884 462.941945 219.531943 462.941945 229.897001 462.941945 240.262060 462.941944 250.627119 462.941940 260.992177 462.941922 271.357236 462.941837 281.722295 462.941478 292.087353 462.940074 302.452412 462.935041 312.817471 462.918484 323.182529 462.868514 333.547588 462.730253 343.912647 462.379858 354.277705 461.567329 364.642764 459.845690 375.007823 456.518475 385.372881 450.668109 395.737940 441.341211 406.102999 427.928546 416.468057 410.668921 426.833116 391.063519 437.198175 371.909318 447.563233 356.754499 457.928292 348.857388 468.293351 350.051255 478.658409 360.053412 489.023468 376.573837 499.388527 396.166403 509.753585 415.391014 520.118644 431.754614 530.483703 444.102202 540.848761 452.459820 551.213820 457.570375 561.578879 460.406637 571.943937 461.839802 582.308996 462.500656 592.674055 462.779208 603.039113 462.886670 613.404172 462.924653 623.769231 462.936962" /></g><g class="series serie-6 color-6"><path class="line reactive nofill" d="M12.230769 462.941945 L22.595828 462.941945 32.960887 462.941945 43.325945 462.941945 53.691004 462.941945 64.056063 462.941945 74.421121 462.941945 84.786180 462.941945 95.151239 462.941945 105.516297 462.941945 115.881356 462.941945 126.246415 462.941945 136.611473 462.941945 146.976532 462.941945 157.341591 462.941945 167.706649 462.941945 178.071708 462.941945 188.436767 462.941945 198.801825 462.941945 209.166884 462.941945 219.531943 462.941945 229.897001 462.941944 240.262060 462.941941 250.627119 462.941927 260.992177 462.941872 271.357236 462.941659 281.722295 462.940908 292.087353 462.938442 302.452412 462.930931 312.817471 462.909718 323.182529 462.854201 333.547588 462.719633 343.912647 462.417795 354.277705 461.791958 364.642764 460.594066 375.007823 458.481237 385.372881 455.055577 395.737940 449.967302 406.102999 443.078299 416.468057 434.643168 426.833116 425.425512 437.198175 416.659044 447.563233 409.808894 457.928292 406.180413 468.293351 406.514730 478.658409 410.742212 489.023468 418.006079 499.388527 426.945211 509.753585 436.108388 520.118644 444.327994 530.483703 450.926385 540.848761 455.724314 551.213820 458.907438 561.578879 460.843337 571.943937 461.926123 582.308996 462.484384 592.674055 462.750155 603.039113 462.867137 613.404172 462.914792 623.769231 462.932774" /></g><g class="series serie-7 color-7"><path class="line reactive nofill" d="M12.230769 462.941945 L22.595828 462.941945 32.960887 462.941945 43.325945 462.941945 53.691004 462.941945 64.056063 462.941945 74.421121 462.941945 84.786180 462.941945 95.151239 462.941945 105.516297 462.941945 115.881356 462.941945 126.246415 462.941945 136.611473 462.941945 146.976532 462.941945 157.341591 462.941945 167.706649 462.941945 178.071708 462.941945 188.436767 462.941945 198.801825 462.941945 209.166884 462.941944 219.531943 462.941943 229.897001 462.941937 240.262060 462.941915 250.627119 462.941843 260.992177 462.941617 271.357236 462.940944 281.722295 462.939065 292.087353 462.934133 302.452412 462.921958 312.817471 462.893715 323.182529 462.832183 333.547588 462.706361 343.912647 462.465071 354.277705 462.031566 364.642764 461.302851 375.007823 460.158723 385.372881 458.484827 395.737940 456.210276 406.102999 453.353376 416.468057 450.061017 426.833116 446.622593 437.198175 443.442556 447.563233 440.968332 457.928292 439.588857 468.293351 439.534743 478.658409 440.815223 489.023468 443.215583 499.388527 446.356035 509.753585 449.789880 520.118644 453.106116 530.483703 456.004647 540.848761 458.327365 551.213820 460.047027 561.578879 461.229160 571.943937 461.986223 582.308996 462.438997 592.674055 462.692327 603.039113 462.825105 613.404172 462.890366 623.769231 462.920471" /></g><g class="series serie-8 color-8"><path class="line reactive nofill" d="M12.230769 462.941945 L22.595828 462.941945 32.960887 462.941945 43.325945 462.941945 53.691004 462.941945 64.056063 462.941945 74.421121 462.941945 84.786180 462.941945 95.151239 462.941945 105.516297 462.941945 115.881356 462.941945 126.246415 462.941945 136.611473 462.941945 146.976532 462.941945 157.341591 462.941945 167.706649 462.941945 178.071708 462.941944 188.436767 462.941942 198.801825 462.941938 209.166884 462.941925 219.531943 462.941890 229.897001 462.941800 240.262060 462.941582 250.627119 462.941070 260.992177 462.939920 271.357236 462.937445 281.722295 462.932344 292.087353 462.922272 302.452412 462.903237 312.817471 462.868813 323.182529 462.809265 333.547588 462.710801 343.912647 462.555272 354.277705 462.320806 364.642764 461.983834 375.007823 461.522802 385.372881 460.923489 395.737940 460.185207 406.102999 459.326562 416.468057 458.388961 426.833116 457.436140 437.198175 456.548596 447.563233 455.813106 457.928292 455.309000 468.293351 455.094138 478.658409 455.193985 489.023468 455.596649 499.388527 456.255210 509.753585 457.096712 520.118644 458.035438 530.483703 458.987133 540.848761 459.880953 551.213820 460.666945 561.578879 461.318329 571.943937 461.829270 582.308996 462.209734 592.674055 462.479258 603.039113 462.661194 613.404172 462.778362 623.769231 462.850421" /></g><g class="series serie-9 color-9"><path class="line reactive nofill" d="M12.230769 462.941945 L22.595828 462.941945 32.960887 462.941945 43.325945 462.941945 53.691004 462.941945 64.056063 462.941945 74.421121 462.941945 84.786180 462.941945 95.151239 462.941945 105.516297 462.941945 115.881356 462.941945 126.246415 462.941945 136.611473 462.941945 146.976532 462.941945 157.341591 462.941945 167.706649 462.941945 178.071708 462.941944 188.436767 462.941940 198.801825 462.941920 209.166884 462.941823 219.531943 462.941393 229.897001 462.939673 240.262060 462.933400 250.627119 462.912588 260.992177 462.849841 271.357236 462.678047 281.722295 462.251420 292.087353 461.291851 302.452412 459.340939 312.817471 455.765246 323.182529 449.879894 333.547588 441.230749 343.912647 429.985388 354.277705 417.255681 364.642764 405.103688 375.007823 396.072076 385.372881 392.337592 395.737940 394.862154 406.102999 402.991739 416.468057 414.730642 426.833116 427.534646 437.198175 439.194196 447.563233 448.396137 457.928292 454.805420 468.293351 458.785464 478.658409 461.002853 489.023468 462.115799 499.388527 462.620504 509.753585 462.827728 520.118644 462.904881 530.483703 462.930961 540.848761 462.938972 551.213820 462.941210 561.578879 462.941779 571.943937 462.941911 582.308996 462.941938 592.674055 462.941944 603.039113 462.941945 613.404172 462.941945 623.769231 462.941945" /></g><g class="series serie-10 color-10"><path class="line reactive nofill" d="M12.230769 462.941945 L22.595828 462.941945 32.960887 462.941945 43.325945 462.941945 53.691004 462.941945 64.056063 462.941945 74.421121 462.941945 84.786180 462.941945 95.151239 462.941945 105.516297 462.941945 115.881356 462.941945 126.246415 462.941945 136.611473 462.941945 146.976532 462.941943 157.341591 462.941937 167.706649 462.941909 178.071708 462.941795 188.436767 462.941363 198.801825 462.939852 209.166884 462.934939 219.531943 462.920147 229.897001 462.878884 240.262060 462.772334 250.627119 462.517817 260.992177 461.955916 271.357236 460.810698 281.722295 458.659137 292.087353 454.940395 302.452412 449.043362 312.817471 440.497044 323.182529 429.243051 333.547588 415.902262 343.912647 401.895002 354.277705 389.284909 364.642764 380.316207 375.007823 376.769731 385.372881 379.387427 395.737940 387.619672 406.102999 399.813123 416.468057 413.751274 426.833116 427.305975 437.198175 438.940067 447.563233 447.912164 457.928292 454.191888 468.293351 458.205856 478.658409 460.558640 489.023468 461.826905 499.388527 462.456934 509.753585 462.745806 520.118644 462.868201 530.483703 462.916167 540.848761 462.933568 551.213820 462.939414 561.578879 462.941234 571.943937 462.941759 582.308996 462.941900 592.674055 462.941935 603.039113 462.941943 613.404172 462.941944 623.769231 462.941945" /></g><g class="series serie-11 color-11"><path class="line reactive nofill" d="M12.230769 462.941945 L22.595828 462.941945 32.960887 462.941945 43.325945 462.941945 53.691004 462.941945 64.056063 462.941945 74.421121 462.941945 84.786180 462.941945 95.151239 462.941944 105.516297 462.941942 115.881356 462.941934 126.246415 462.941906 136.611473 462.941806 146.976532 462.941479 157.341591 462.940468 167.706649 462.937523 178.071708 462.929440 188.436767 462.908545 198.801825 462.857685 209.166884 462.741170 219.531943 462.490085 229.897001 461.981427 240.262060 461.013468 250.627119 459.284895 260.992177 456.391742 271.357236 451.860766 281.722295 445.235778 292.087353 436.219849 302.452412 424.850816 312.817471 411.657631 323.182529 397.726175 333.547588 384.611955 343.912647 374.081008 354.277705 367.727885 364.642764 366.581533 375.007823 370.832624 385.372881 379.781675 395.737940 392.027359 406.102999 405.825308 416.468057 419.491218 426.833116 431.721517 437.198175 441.754040 447.563233 449.360544 457.928292 454.719358 468.293351 458.239976 478.658409 460.402385 489.023468 461.646424 499.388527 462.317725 509.753585 462.657866 520.118644 462.819836 530.483703 462.892370 540.848761 462.922935 551.213820 462.935060 561.578879 462.939590 571.943937 462.941184 582.308996 462.941713 592.674055 462.941878 603.039113 462.941927 613.404172 462.941940 623.769231 462.941944" /></g><g class="series serie-12 color-12"><path class="line reactive nofill" d="M12.230769 462.941945 L22.595828 462.941945 32.960887 462.941945 43.325945 462.941945 53.691004 462.941944 64.056063 462.941940 74.421121 462.941929 84.786180 462.941894 95.151239 462.941788 105.516297 462.941477 115.881356 462.940616 126.246415 462.938341 136.611473 462.932608 146.976532 462.918854 157.341591 462.887424 167.706649 462.819038 178.071708 462.677421 188.436767 462.398402 198.801825 461.875638 209.166884 460.944796 219.531943 459.370713 229.897001 456.845099 240.262060 453.004563 250.627119 447.478070 260.992177 439.967541 271.357236 430.354541 281.722295 418.811852 292.087353 405.886185 302.452412 392.514208 312.817471 379.943961 323.182529 369.558275 333.547588 362.629709 343.912647 360.065379 354.277705 362.212002 364.642764 368.778943 375.007823 378.902809 385.372881 391.333797 395.737940 404.688330 406.102999 417.697746 416.468057 429.392719 426.833116 439.190957 437.198175 446.888789 447.563233 452.582923 457.928292 456.559947 468.293351 459.188119 478.658409 460.833942 489.023468 461.811764 499.388527 462.363444 509.753585 462.659236 520.118644 462.810042 530.483703 462.883189 540.848761 462.916957 551.213820 462.931799 561.578879 462.938012 571.943937 462.940489 582.308996 462.941431 592.674055 462.941771 603.039113 462.941889 613.404172 462.941928 623.769231 462.941940" /></g><g class="series serie-13 color-13"><path class="line reactive nofill" d="M12.230769 462.862511 L22.595828 462.814690 32.960887 462.741577 43.325945 462.631869 53.691004 462.470325 64.056063 462.236926 74.421121 461.906101 84.786180 461.446148 95.151239 460.819014 105.516297 459.980634 115.881356 458.882029 126.246415 457.471346 136.611473 455.696958 146.976532 453.511652 157.341591 450.877769 167.706649 447.773015 178.071708 444.196441 188.436767 440.173983 198.801825 435.762784 209.166884 431.053539 219.531943 426.170185 229.897001 421.266438 240.262060 416.519050 250.627119 412.117995 260.992177 408.254269 271.357236 405.106327 281.722295 402.826488 292.087353 401.528737 302.452412 401.279282 312.817471 402.090958 323.182529 403.922130 333.547588 406.680236 343.912647 410.229538 354.277705 414.402183 364.642764 419.011328 375.007823 423.864891 385.372881 428.778537 395.737940 433.586719 406.102999 438.150918 416.468057 442.364641 426.833116 446.155169 437.198175 449.482382 447.563233 452.335264 457.928292 454.726844 468.293351 456.688330 478.658409 458.263147 489.023468 459.501439 499.388527 460.455407 509.753585 461.175692 520.118644 461.708853 530.483703 462.095843 540.848761 462.371341 551.213820 462.563736 561.578879 462.695560 571.943937 462.784191 582.308996 462.842671 592.674055 462.880545 603.039113 462.904621 613.404172 462.919645 623.769231 462.928850" /></g></g><g class="titles"><text class="title plot_title" x="400.0" y="26">Iteration #11</text><text class="title" x="462.0" y="580.0">Observation</text><text class="title" transform="rotate(-90 64.000000 282.009619)" x="64.0" y="308.0096189432334">Density</text></g><g class="plot overlay" transform="translate(144, 46)"><g class="series serie-0 color-0" /><g class="series serie-1 color-1" /><g class="series serie-2 color-2" /><g class="series serie-3 color-3" /><g class="series serie-4 color-4" /><g class="series serie-5 color-5" /><g class="series serie-6 color-6" /><g class="series serie-7 color-7" /><g class="series serie-8 color-8" /><g class="series serie-9 color-9" /><g class="series serie-10 color-10" /><g class="series serie-11 color-11" /><g class="series serie-12 color-12" /><g class="series serie-13 color-13" /></g><g class="plot text-overlay" transform="translate(144, 46)"><g class="series serie-0 color-0" /><g class="series serie-1 color-1" /><g class="series serie-2 color-2" /><g class="series serie-3 color-3" /><g class="series serie-4 color-4" /><g class="series serie-5 color-5" /><g class="series serie-6 color-6" /><g class="series serie-7 color-7" /><g class="series serie-8 color-8" /><g class="series serie-9 color-9" /><g class="series serie-10 color-10" /><g class="series serie-11 color-11" /><g class="series serie-12 color-12" /><g class="series serie-13 color-13" /></g><g class="plot tooltip-overlay" transform="translate(144, 46)"><g class="tooltip" style="opacity: 0" transform="translate(0 0)"><rect class="tooltip-box" height="0" rx="0" ry="0" width="0" /><g class="text" /></g></g><g class="legends" transform="translate(10, 56)"><g class="legend reactive activate-serie" id="activate-serie-0"><rect class="color-0 reactive" height="12" width="12" x="0.0" y="0.0" /><text x="17.0" y="9.0">Data</text></g><g class="legend reactive activate-serie" id="activate-serie-1"><rect class="color-1 reactive" height="12" width="12" x="0.0" y="18.0" /><text x="17.0" y="27.0">GMM</text></g><g class="legend reactive activate-serie" id="activate-serie-2"><rect class="color-2 reactive" height="12" width="12" x="0.0" y="36.0" /><text x="17.0" y="45.0">i=0</text></g><g class="legend reactive activate-serie" id="activate-serie-3"><rect class="color-3 reactive" height="12" width="12" x="0.0" y="54.0" /><text x="17.0" y="63.0">i=1</text></g><g class="legend reactive activate-serie" id="activate-serie-4"><rect class="color-4 reactive" height="12" width="12" x="0.0" y="72.0" /><text x="17.0" y="81.0">i=0 k=0</text></g><g class="legend reactive activate-serie" id="activate-serie-5"><rect class="color-5 reactive" height="12" width="12" x="0.0" y="90.0" /><text x="17.0" y="99.0">i=0 k=1</text></g><g class="legend reactive activate-serie" id="activate-serie-6"><rect class="color-6 reactive" height="12" width="12" x="0.0" y="108.0" /><text x="17.0" y="117.0">i=0 k=2</text></g><g class="legend reactive activate-serie" id="activate-serie-7"><rect class="color-7 reactive" height="12" width="12" x="0.0" y="126.0" /><text x="17.0" y="135.0">i=0 k=3</text></g><g class="legend reactive activate-serie" id="activate-serie-8"><rect class="color-8 reactive" height="12" width="12" x="0.0" y="144.0" /><text x="17.0" y="153.0">i=0 k=4</text></g><g class="legend reactive activate-serie" id="activate-serie-9"><rect class="color-9 reactive" height="12" width="12" x="0.0" y="162.0" /><text x="17.0" y="171.0">i=1 k=0</text></g><g class="legend reactive activate-serie" id="activate-serie-10"><rect class="color-10 reactive" height="12" width="12" x="0.0" y="180.0" /><text x="17.0" y="189.0">i=1 k=1</text></g><g class="legend reactive activate-serie" id="activate-serie-11"><rect class="color-11 reactive" height="12" width="12" x="0.0" y="198.0" /><text x="17.0" y="207.0">i=1 k=2</text></g><g class="legend reactive activate-serie" id="activate-serie-12"><rect class="color-12 reactive" height="12" width="12" x="0.0" y="216.0" /><text x="17.0" y="225.0">i=1 k=3</text></g><g class="legend reactive activate-serie" id="activate-serie-13"><rect class="color-13 reactive" height="12" width="12" x="0.0" y="234.0" /><text x="17.0" y="243.0">i=1 k=4</text></g></g><g class="legends" transform="translate(790, 56)" /></g></svg>