<?xml version='1.0' encoding='utf-8'?>
<svg xmlns:xlink="http://www.w3.org/1999/xlink" class="pygal-chart" id="chart-51ec7683-650f-4f6e-bada-0686180d71e8" viewBox="0 0 800 600" xmlns="http://www.w3.org/2000/svg"><!--Generated with pygal 2.4.0 (etree) ©Kozea 2012-2016 on 2018-02-13--><!--http://pygal.org--><!--http://github.com/Kozea/pygal--><defs><style type="text/css">#chart-51ec7683-650f-4f6e-bada-0686180d71e8{-webkit-user-select:none;-webkit-font-smoothing:antialiased;font-family:Consolas,"Liberation Mono",Menlo,Courier,monospace}#chart-51ec7683-650f-4f6e-bada-0686180d71e8 .title{font-family:Consolas,"Liberation Mono",Menlo,Courier,monospace;font-size:16px}#chart-51ec7683-650f-4f6e-bada-0686180d71e8 .legends .legend text{font-family:Consolas,"Liberation Mono",Menlo,Courier,monospace;font-size:10px}#chart-51ec7683-650f-4f6e-bada-0686180d71e8 .axis text{font-family:Consolas,"Liberation Mono",Menlo,Courier,monospace;font-size:10px}#chart-51ec7683-650f-4f6e-bada-0686180d71e8 .axis text.major{font-family:Consolas,"Liberation Mono",Menlo,Courier,monospace;font-size:10px}#chart-51ec7683-650f-4f6e-bada-0686180d71e8 .text-overlay text.value{font-family:Consolas,"Liberation Mono",Menlo,Courier,monospace;font-size:16px}#chart-51ec7683-650f-4f6e-bada-0686180d71e8 .text-overlay text.label{font-family:Consolas,"Liberation Mono",Menlo,Courier,monospace;font-size:10px}#chart-51ec7683-650f-4f6e-bada-0686180d71e8 .tooltip{font-family:Consolas,"Liberation Mono",Menlo,Courier,monospace;font-size:14px}#chart-51ec7683-650f-4f6e-bada-0686180d71e8 text.no_data{font-family:Consolas,"Liberation Mono",Menlo,Courier,monospace;font-size:64px}
#chart-51ec7683-650f-4f6e-bada-0686180d71e8{background-color:rgba(249,249,249,1)}#chart-51ec7683-650f-4f6e-bada-0686180d71e8 path,#chart-51ec7683-650f-4f6e-bada-0686180d71e8 line,#chart-51ec7683-650f-4f6e-bada-0686180d71e8 rect,#chart-51ec7683-650f-4f6e-bada-0686180d71e8 circle{-webkit-transition:150ms;-moz-transition:150ms;transition:150ms}#chart-51ec7683-650f-4f6e-bada-0686180d71e8 .graph &gt; .background{fill:rgba(249,249,249,1)}#chart-51ec7683-650f-4f6e-bada-0686180d71e8 .plot &gt; .background{fill:rgba(255,255,255,1)}#chart-51ec7683-650f-4f6e-bada-0686180d71e8 .graph{fill:rgba(0,0,0,.87)}#chart-51ec7683-650f-4f6e-bada-0686180d71e8 text.no_data{fill:rgba(0,0,0,1)}#chart-51ec7683-650f-4f6e-bada-0686180d71e8 .title{fill:rgba(0,0,0,1)}#chart-51ec7683-650f-4f6e-bada-0686180d71e8 .legends .legend text{fill:rgba(0,0,0,.87)}#chart-51ec7683-650f-4f6e-bada-0686180d71e8 .legends .legend:hover text{fill:rgba(0,0,0,1)}#chart-51ec7683-650f-4f6e-bada-0686180d71e8 .axis .line{stroke:rgba(0,0,0,1)}#chart-51ec7683-650f-4f6e-bada-0686180d71e8 .axis .guide.line{stroke:rgba(0,0,0,.54)}#chart-51ec7683-650f-4f6e-bada-0686180d71e8 .axis .major.line{stroke:rgba(0,0,0,.87)}#chart-51ec7683-650f-4f6e-bada-0686180d71e8 .axis text.major{fill:rgba(0,0,0,1)}#chart-51ec7683-650f-4f6e-bada-0686180d71e8 .axis.y .guides:hover .guide.line,#chart-51ec7683-650f-4f6e-bada-0686180d71e8 .line-graph .axis.x .guides:hover .guide.line,#chart-51ec7683-650f-4f6e-bada-0686180d71e8 .stackedline-graph .axis.x .guides:hover .guide.line,#chart-51ec7683-650f-4f6e-bada-0686180d71e8 .xy-graph .axis.x .guides:hover .guide.line{stroke:rgba(0,0,0,1)}#chart-51ec7683-650f-4f6e-bada-0686180d71e8 .axis .guides:hover text{fill:rgba(0,0,0,1)}#chart-51ec7683-650f-4f6e-bada-0686180d71e8 .reactive{fill-opacity:.7;stroke-opacity:.8}#chart-51ec7683-650f-4f6e-bada-0686180d71e8 .ci{stroke:rgba(0,0,0,.87)}#chart-51ec7683-650f-4f6e-bada-0686180d71e8 .reactive.active,#chart-51ec7683-650f-4f6e-bada-0686180d71e8 .active .reactive{fill-opacity:.8;stroke-opacity:.9;stroke-width:4}#chart-51ec7683-650f-4f6e-bada-0686180d71e8 .ci .reactive.active{stroke-width:1.5}#chart-51ec7683-650f-4f6e-bada-0686180d71e8 .series text{fill:rgba(0,0,0,1)}#chart-51ec7683-650f-4f6e-bada-0686180d71e8 .tooltip rect{fill:rgba(255,255,255,1);stroke:rgba(0,0,0,1);-webkit-transition:opacity 150ms;-moz-transition:opacity 150ms;transition:opacity 150ms}#chart-51ec7683-650f-4f6e-bada-0686180d71e8 .tooltip .label{fill:rgba(0,0,0,.87)}#chart-51ec7683-650f-4f6e-bada-0686180d71e8 .tooltip .label{fill:rgba(0,0,0,.87)}#chart-51ec7683-650f-4f6e-bada-0686180d71e8 .tooltip .legend{font-size:.8em;fill:rgba(0,0,0,.54)}#chart-51ec7683-650f-4f6e-bada-0686180d71e8 .tooltip .x_label{font-size:.6em;fill:rgba(0,0,0,1)}#chart-51ec7683-650f-4f6e-bada-0686180d71e8 .tooltip .xlink{font-size:.5em;text-decoration:underline}#chart-51ec7683-650f-4f6e-bada-0686180d71e8 .tooltip .value{font-size:1.5em}#chart-51ec7683-650f-4f6e-bada-0686180d71e8 .bound{font-size:.5em}#chart-51ec7683-650f-4f6e-bada-0686180d71e8 .max-value{font-size:.75em;fill:rgba(0,0,0,.54)}#chart-51ec7683-650f-4f6e-bada-0686180d71e8 .map-element{fill:rgba(255,255,255,1);stroke:rgba(0,0,0,.54) !important}#chart-51ec7683-650f-4f6e-bada-0686180d71e8 .map-element .reactive{fill-opacity:inherit;stroke-opacity:inherit}#chart-51ec7683-650f-4f6e-bada-0686180d71e8 .color-0,#chart-51ec7683-650f-4f6e-bada-0686180d71e8 .color-0 a:visited{stroke:#909090;fill:#909090}#chart-51ec7683-650f-4f6e-bada-0686180d71e8 .color-1,#chart-51ec7683-650f-4f6e-bada-0686180d71e8 .color-1 a:visited{stroke:#000000;fill:#000000}#chart-51ec7683-650f-4f6e-bada-0686180d71e8 .color-2,#chart-51ec7683-650f-4f6e-bada-0686180d71e8 .color-2 a:visited{stroke:#ff0500;fill:#ff0500}#chart-51ec7683-650f-4f6e-bada-0686180d71e8 .color-3,#chart-51ec7683-650f-4f6e-bada-0686180d71e8 .color-3 a:visited{stroke:#323299;fill:#323299}#chart-51ec7683-650f-4f6e-bada-0686180d71e8 .color-4,#chart-51ec7683-650f-4f6e-bada-0686180d71e8 .color-4 a:visited{stroke:#a3413f;fill:#a3413f}#chart-51ec7683-650f-4f6e-bada-0686180d71e8 .color-5,#chart-51ec7683-650f-4f6e-bada-0686180d71e8 .color-5 a:visited{stroke:#a3413f;fill:#a3413f}#chart-51ec7683-650f-4f6e-bada-0686180d71e8 .color-6,#chart-51ec7683-650f-4f6e-bada-0686180d71e8 .color-6 a:visited{stroke:#657fff;fill:#657fff}#chart-51ec7683-650f-4f6e-bada-0686180d71e8 .color-7,#chart-51ec7683-650f-4f6e-bada-0686180d71e8 .color-7 a:visited{stroke:#657fff;fill:#657fff}#chart-51ec7683-650f-4f6e-bada-0686180d71e8 .text-overlay .color-0 text{fill:black}#chart-51ec7683-650f-4f6e-bada-0686180d71e8 .text-overlay .color-1 text{fill:white}#chart-51ec7683-650f-4f6e-bada-0686180d71e8 .text-overlay .color-2 text{fill:black}#chart-51ec7683-650f-4f6e-bada-0686180d71e8 .text-overlay .color-3 text{fill:black}#chart-51ec7683-650f-4f6e-bada-0686180d71e8 .text-overlay .color-4 text{fill:black}#chart-51ec7683-650f-4f6e-bada-0686180d71e8 .text-overlay .color-5 text{fill:black}#chart-51ec7683-650f-4f6e-bada-0686180d71e8 .text-overlay .color-6 text{fill:black}#chart-51ec7683-650f-4f6e-bada-0686180d71e8 .text-overlay .color-7 text{fill:black}#chart-51ec7683-650f-4f6e-bada-0686180d71e8 .series.serie-1{stroke-width:5}#chart-51ec7683-650f-4f6e-bada-0686180d71e8 .series.serie-2{stroke-width:3}#chart-51ec7683-650f-4f6e-bada-0686180d71e8 .series.serie-3{stroke-width:3}#chart-51ec7683-650f-4f6e-bada-0686180d71e8 .series.serie-4{stroke-width:2;stroke-dasharray:2,2}#chart-51ec7683-650f-4f6e-bada-0686180d71e8 .series.serie-5{stroke-width:2;stroke-dasharray:2,2}#chart-51ec7683-650f-4f6e-bada-0686180d71e8 .series.serie-6{stroke-width:2;stroke-dasharray:2,2}#chart-51ec7683-650f-4f6e-bada-0686180d71e8 .series.serie-7{stroke-width:2;stroke-dasharray:2,2}
#chart-51ec7683-650f-4f6e-bada-0686180d71e8 text.no_data{text-anchor:middle}#chart-51ec7683-650f-4f6e-bada-0686180d71e8 .guide.line{fill:none}#chart-51ec7683-650f-4f6e-bada-0686180d71e8 .centered{text-anchor:middle}#chart-51ec7683-650f-4f6e-bada-0686180d71e8 .title{text-anchor:middle}#chart-51ec7683-650f-4f6e-bada-0686180d71e8 .legends .legend text{fill-opacity:1}#chart-51ec7683-650f-4f6e-bada-0686180d71e8 .axis.x text{text-anchor:middle}#chart-51ec7683-650f-4f6e-bada-0686180d71e8 .axis.x:not(.web) text[transform]{text-anchor:start}#chart-51ec7683-650f-4f6e-bada-0686180d71e8 .axis.x:not(.web) text[transform].backwards{text-anchor:end}#chart-51ec7683-650f-4f6e-bada-0686180d71e8 .axis.y text{text-anchor:end}#chart-51ec7683-650f-4f6e-bada-0686180d71e8 .axis.y text[transform].backwards{text-anchor:start}#chart-51ec7683-650f-4f6e-bada-0686180d71e8 .axis.y2 text{text-anchor:start}#chart-51ec7683-650f-4f6e-bada-0686180d71e8 .axis.y2 text[transform].backwards{text-anchor:end}#chart-51ec7683-650f-4f6e-bada-0686180d71e8 .axis .guide.line{stroke-dasharray:4,4}#chart-51ec7683-650f-4f6e-bada-0686180d71e8 .axis .major.guide.line{stroke-dasharray:6,6}#chart-51ec7683-650f-4f6e-bada-0686180d71e8 .horizontal .axis.y .guide.line,#chart-51ec7683-650f-4f6e-bada-0686180d71e8 .horizontal .axis.y2 .guide.line,#chart-51ec7683-650f-4f6e-bada-0686180d71e8 .vertical .axis.x .guide.line{opacity:0}#chart-51ec7683-650f-4f6e-bada-0686180d71e8 .horizontal .axis.always_show .guide.line,#chart-51ec7683-650f-4f6e-bada-0686180d71e8 .vertical .axis.always_show .guide.line{opacity:1 !important}#chart-51ec7683-650f-4f6e-bada-0686180d71e8 .axis.y .guides:hover .guide.line,#chart-51ec7683-650f-4f6e-bada-0686180d71e8 .axis.y2 .guides:hover .guide.line,#chart-51ec7683-650f-4f6e-bada-0686180d71e8 .axis.x .guides:hover .guide.line{opacity:1}#chart-51ec7683-650f-4f6e-bada-0686180d71e8 .axis .guides:hover text{opacity:1}#chart-51ec7683-650f-4f6e-bada-0686180d71e8 .nofill{fill:none}#chart-51ec7683-650f-4f6e-bada-0686180d71e8 .subtle-fill{fill-opacity:.2}#chart-51ec7683-650f-4f6e-bada-0686180d71e8 .dot{stroke-width:1px;fill-opacity:1}#chart-51ec7683-650f-4f6e-bada-0686180d71e8 .dot.active{stroke-width:5px}#chart-51ec7683-650f-4f6e-bada-0686180d71e8 .dot.negative{fill:transparent}#chart-51ec7683-650f-4f6e-bada-0686180d71e8 text,#chart-51ec7683-650f-4f6e-bada-0686180d71e8 tspan{stroke:none !important}#chart-51ec7683-650f-4f6e-bada-0686180d71e8 .series text.active{opacity:1}#chart-51ec7683-650f-4f6e-bada-0686180d71e8 .tooltip rect{fill-opacity:.95;stroke-width:.5}#chart-51ec7683-650f-4f6e-bada-0686180d71e8 .tooltip text{fill-opacity:1}#chart-51ec7683-650f-4f6e-bada-0686180d71e8 .showable{visibility:hidden}#chart-51ec7683-650f-4f6e-bada-0686180d71e8 .showable.shown{visibility:visible}#chart-51ec7683-650f-4f6e-bada-0686180d71e8 .gauge-background{fill:rgba(229,229,229,1);stroke:none}#chart-51ec7683-650f-4f6e-bada-0686180d71e8 .bg-lines{stroke:rgba(249,249,249,1);stroke-width:2px}</style><script type="text/javascript">window.pygal = window.pygal || {};window.pygal.config = window.pygal.config || {};window.pygal.config['51ec7683-650f-4f6e-bada-0686180d71e8'] = {"no_prefix": false, "xrange": null, "legends": ["Data", "GMM", "i=0", "i=1", "i=0 k=0", "i=0 k=1", "i=1 k=0", "i=1 k=1"], "inverse_y_axis": false, "rounded_bars": null, "explicit_size": false, "title": "Iteration #5", "stroke": true, "tooltip_fancy_mode": true, "show_minor_x_labels": false, "y_labels_major": null, "pretty_print": false, "print_values": false, "interpolation_precision": 250, "spacing": 10, "max_scale": 16, "show_x_labels": true, "style": {"font_family": "Consolas, \"Liberation Mono\", Menlo, Courier, monospace", "value_background": "rgba(229, 229, 229, 1)", "colors": ["#909090", "#000000", "#ff0500", "#323299", "#a3413f", "#a3413f", "#657fff", "#657fff"], "value_font_family": "Consolas, \"Liberation Mono\", Menlo, Courier, monospace", "major_label_font_family": "Consolas, \"Liberation Mono\", Menlo, Courier, monospace", "ci_colors": [], "plot_background": "rgba(255, 255, 255, 1)", "value_colors": [], "background": "rgba(249, 249, 249, 1)", "major_guide_stroke_dasharray": "6,6", "tooltip_font_size": 14, "foreground": "rgba(0, 0, 0, .87)", "opacity_hover": ".8", "no_data_font_family": "Consolas, \"Liberation Mono\", Menlo, Courier, monospace", "stroke_opacity": ".8", "tooltip_font_family": "Consolas, \"Liberation Mono\", Menlo, Courier, monospace", "transition": "150ms", "legend_font_family": "Consolas, \"Liberation Mono\", Menlo, Courier, monospace", "title_font_family": "Consolas, \"Liberation Mono\", Menlo, Courier, monospace", "foreground_subtle": "rgba(0, 0, 0, .54)", "major_label_font_size": 10, "value_label_font_family": "Consolas, \"Liberation Mono\", Menlo, Courier, monospace", "stroke_opacity_hover": ".9", "title_font_size": 16, "legend_font_size": 10, "label_font_family": "Consolas, \"Liberation Mono\", Menlo, Courier, monospace", "value_font_size": 16, "value_label_font_size": 10, "no_data_font_size": 64, "opacity": ".7", "label_font_size": 10, "guide_stroke_dasharray": "4,4", "foreground_strong": "rgba(0, 0, 0, 1)"}, "force_uri_protocol": "https", "dots_size": 2.5, "stroke_style": null, "min_scale": 4, "box_mode": "extremes", "logarithmic": false, "margin_left": null, "js": ["//kozea.github.io/pygal.js/2.0.x/pygal-tooltips.min.js"], "defs": [], "tooltip_border_radius": 0, "margin_bottom": null, "print_zeroes": true, "show_y_guides": true, "x_labels": ["-8.96", "-8.76", "-8.56", "-8.36", "-8.16", "-7.96", "-7.76", "-7.56", "-7.36", "-7.16", "-6.96", "-6.76", "-6.56", "-6.36", "-6.16", "-5.96", "-5.76", "-5.56", "-5.36", "-5.16", "-4.96", "-4.76", "-4.56", "-4.36", "-4.16", "-3.96", "-3.76", "-3.56", "-3.36", "-3.16", "-2.96", "-2.76", "-2.56", "-2.36", "-2.16", "-1.96", "-1.76", "-1.56", "-1.36", "-1.16", "-0.96", "-0.76", "-0.56", "-0.36", "-0.16", "0.04", "0.24", "0.44", "0.64", "0.84", "1.04", "1.24", "1.43", "1.63", "1.83", "2.03", "2.23", "2.43", "2.63", "2.83"], "show_dots": false, "show_legend": true, "print_values_position": "center", "x_label_rotation": 60, "show_x_guides": false, "margin": 20, "dynamic_print_values": false, "margin_right": null, "legend_box_size": 12, "legend_at_bottom": false, "legend_at_bottom_columns": null, "x_title": "Observation", "half_pie": false, "show_only_major_dots": false, "x_labels_major_every": 2, "x_labels_major_count": null, "truncate_label": null, "truncate_legend": null, "order_min": null, "missing_value_fill_truncation": "x", "no_data_text": "No data", "x_labels_major": null, "formatter": null, "inner_radius": 0, "interpolate": null, "y_title": "Density", "strict": false, "interpolation_parameters": {}, "y_labels_major_count": null, "margin_top": null, "classes": ["pygal-chart"], "fill": false, "y_label_rotation": 0, "width": 800, "print_labels": false, "y_labels": null, "secondary_range": null, "zero": 0, "include_x_axis": false, "disable_xml_declaration": false, "show_y_labels": true, "stack_from_top": false, "css": ["file://style.css", "file://graph.css"], "show_minor_y_labels": true, "allow_interruptions": false, "y_labels_major_every": null, "height": 600, "range": [0, 0.27578580090479526]}</script><script type="text/javascript" xlink:href="https://kozea.github.io/pygal.js/2.0.x/pygal-tooltips.min.js" /></defs><title>Iteration #5</title><g class="graph line-graph vertical"><rect class="background" height="600" width="800" x="0" y="0" /><g class="plot" transform="translate(144, 46)"><rect class="background" height="472.01923788646684" width="636.0" x="0" y="0" /><g class="axis y always_show"><g class="guides"><path class="axis major line" d="M0.000000 462.941945 h636.000000" /><text class="major" x="-5" y="466.44194485">0</text><title>0</title></g><g class="guides"><path class="guide line" d="M0.000000 430.027658 h636.000000" /><text class="" x="-5" y="433.527657724">0.02</text><title>0.02</title></g><g class="guides"><path class="guide line" d="M0.000000 397.113371 h636.000000" /><text class="" x="-5" y="400.613370598">0.04</text><title>0.04</title></g><g class="guides"><path class="guide line" d="M0.000000 364.199083 h636.000000" /><text class="" x="-5" y="367.699083472">0.06</text><title>0.06</title></g><g class="guides"><path class="guide line" d="M0.000000 331.284796 h636.000000" /><text class="" x="-5" y="334.784796346">0.08</text><title>0.08</title></g><g class="guides"><path class="guide line" d="M0.000000 298.370509 h636.000000" /><text class="" x="-5" y="301.87050922">0.1</text><title>0.1</title></g><g class="guides"><path class="guide line" d="M0.000000 265.456222 h636.000000" /><text class="" x="-5" y="268.956222094">0.12</text><title>0.12</title></g><g class="guides"><path class="guide line" d="M0.000000 232.541935 h636.000000" /><text class="" x="-5" y="236.041934968">0.14</text><title>0.14</title></g><g class="guides"><path class="guide line" d="M0.000000 199.627648 h636.000000" /><text class="" x="-5" y="203.127647841">0.16</text><title>0.16</title></g><g class="guides"><path class="guide line" d="M0.000000 166.713361 h636.000000" /><text class="" x="-5" y="170.213360715">0.18</text><title>0.18</title></g><g class="guides"><path class="guide line" d="M0.000000 133.799074 h636.000000" /><text class="" x="-5" y="137.299073589">0.2</text><title>0.2</title></g><g class="guides"><path class="guide line" d="M0.000000 100.884786 h636.000000" /><text class="" x="-5" y="104.384786463">0.22</text><title>0.22</title></g><g class="guides"><path class="guide line" d="M0.000000 67.970499 h636.000000" /><text class="" x="-5" y="71.4704993371">0.24</text><title>0.24</title></g><g class="guides"><path class="guide line" d="M0.000000 35.056212 h636.000000" /><text class="" x="-5" y="38.5562122111">0.26</text><title>0.26</title></g></g><g class="axis x"><g class="guides"><path class="major line" d="M12.230769 0.000000 v472.019238" /><text class="major" transform="rotate(60 12.230769 487.019238)" x="12.230769230769232" y="487.01923788646684">-8.96</text></g><g class="guides"><path class="major guide line" d="M32.960887 0.000000 v472.019238" /><text class="major" transform="rotate(60 32.960887 487.019238)" x="32.96088657105606" y="487.01923788646684">-8.56</text></g><g class="guides"><path class="major guide line" d="M53.691004 0.000000 v472.019238" /><text class="major" transform="rotate(60 53.691004 487.019238)" x="53.6910039113429" y="487.01923788646684">-8.16</text></g><g class="guides"><path class="major guide line" d="M74.421121 0.000000 v472.019238" /><text class="major" transform="rotate(60 74.421121 487.019238)" x="74.42112125162973" y="487.01923788646684">-7.76</text></g><g class="guides"><path class="major guide line" d="M95.151239 0.000000 v472.019238" /><text class="major" transform="rotate(60 95.151239 487.019238)" x="95.15123859191655" y="487.01923788646684">-7.36</text></g><g class="guides"><path class="major guide line" d="M115.881356 0.000000 v472.019238" /><text class="major" transform="rotate(60 115.881356 487.019238)" x="115.88135593220338" y="487.01923788646684">-6.96</text></g><g class="guides"><path class="major guide line" d="M136.611473 0.000000 v472.019238" /><text class="major" transform="rotate(60 136.611473 487.019238)" x="136.61147327249023" y="487.01923788646684">-6.56</text></g><g class="guides"><path class="major guide line" d="M157.341591 0.000000 v472.019238" /><text class="major" transform="rotate(60 157.341591 487.019238)" x="157.34159061277705" y="487.01923788646684">-6.16</text></g><g class="guides"><path class="major guide line" d="M178.071708 0.000000 v472.019238" /><text class="major" transform="rotate(60 178.071708 487.019238)" x="178.0717079530639" y="487.01923788646684">-5.76</text></g><g class="guides"><path class="major guide line" d="M198.801825 0.000000 v472.019238" /><text class="major" transform="rotate(60 198.801825 487.019238)" x="198.80182529335073" y="487.01923788646684">-5.36</text></g><g class="guides"><path class="major guide line" d="M219.531943 0.000000 v472.019238" /><text class="major" transform="rotate(60 219.531943 487.019238)" x="219.53194263363756" y="487.01923788646684">-4.96</text></g><g class="guides"><path class="major guide line" d="M240.262060 0.000000 v472.019238" /><text class="major" transform="rotate(60 240.262060 487.019238)" x="240.2620599739244" y="487.01923788646684">-4.56</text></g><g class="guides"><path class="major guide line" d="M260.992177 0.000000 v472.019238" /><text class="major" transform="rotate(60 260.992177 487.019238)" x="260.99217731421123" y="487.01923788646684">-4.16</text></g><g class="guides"><path class="major guide line" d="M281.722295 0.000000 v472.019238" /><text class="major" transform="rotate(60 281.722295 487.019238)" x="281.722294654498" y="487.01923788646684">-3.76</text></g><g class="guides"><path class="major guide line" d="M302.452412 0.000000 v472.019238" /><text class="major" transform="rotate(60 302.452412 487.019238)" x="302.4524119947849" y="487.01923788646684">-3.36</text></g><g class="guides"><path class="major guide line" d="M323.182529 0.000000 v472.019238" /><text class="major" transform="rotate(60 323.182529 487.019238)" x="323.1825293350717" y="487.01923788646684">-2.96</text></g><g class="guides"><path class="major guide line" d="M343.912647 0.000000 v472.019238" /><text class="major" transform="rotate(60 343.912647 487.019238)" x="343.91264667535853" y="487.01923788646684">-2.56</text></g><g class="guides"><path class="major guide line" d="M364.642764 0.000000 v472.019238" /><text class="major" transform="rotate(60 364.642764 487.019238)" x="364.64276401564535" y="487.01923788646684">-2.16</text></g><g class="guides"><path class="major guide line" d="M385.372881 0.000000 v472.019238" /><text class="major" transform="rotate(60 385.372881 487.019238)" x="385.37288135593224" y="487.01923788646684">-1.76</text></g><g class="guides"><path class="major guide line" d="M406.102999 0.000000 v472.019238" /><text class="major" transform="rotate(60 406.102999 487.019238)" x="406.102998696219" y="487.01923788646684">-1.36</text></g><g class="guides"><path class="major guide line" d="M426.833116 0.000000 v472.019238" /><text class="major" transform="rotate(60 426.833116 487.019238)" x="426.8331160365058" y="487.01923788646684">-0.96</text></g><g class="guides"><path class="major guide line" d="M447.563233 0.000000 v472.019238" /><text class="major" transform="rotate(60 447.563233 487.019238)" x="447.56323337679265" y="487.01923788646684">-0.56</text></g><g class="guides"><path class="major guide line" d="M468.293351 0.000000 v472.019238" /><text class="major" transform="rotate(60 468.293351 487.019238)" x="468.29335071707953" y="487.01923788646684">-0.16</text></g><g class="guides"><path class="major guide line" d="M489.023468 0.000000 v472.019238" /><text class="major" transform="rotate(60 489.023468 487.019238)" x="489.02346805736636" y="487.01923788646684">0.24</text></g><g class="guides"><path class="major guide line" d="M509.753585 0.000000 v472.019238" /><text class="major" transform="rotate(60 509.753585 487.019238)" x="509.75358539765324" y="487.01923788646684">0.64</text></g><g class="guides"><path class="major guide line" d="M530.483703 0.000000 v472.019238" /><text class="major" transform="rotate(60 530.483703 487.019238)" x="530.48370273794" y="487.01923788646684">1.04</text></g><g class="guides"><path class="major guide line" d="M551.213820 0.000000 v472.019238" /><text class="major" transform="rotate(60 551.213820 487.019238)" x="551.213820078227" y="487.01923788646684">1.43</text></g><g class="guides"><path class="major guide line" d="M571.943937 0.000000 v472.019238" /><text class="major" transform="rotate(60 571.943937 487.019238)" x="571.9439374185138" y="487.01923788646684">1.83</text></g><g class="guides"><path class="major guide line" d="M592.674055 0.000000 v472.019238" /><text class="major" transform="rotate(60 592.674055 487.019238)" x="592.6740547588006" y="487.01923788646684">2.23</text></g><g class="guides"><path class="major guide line" d="M613.404172 0.000000 v472.019238" /><text class="major" transform="rotate(60 613.404172 487.019238)" x="613.4041720990874" y="487.01923788646684">2.63</text></g></g><g class="series serie-0 color-0"><path class="line reactive" d="M12.230769 462.941945 L12.230769 462.019456 22.595828 462.941945 32.960887 461.096967 43.325945 462.019456 53.691004 459.251988 64.056063 462.019456 74.421121 458.329499 84.786180 462.019456 95.151239 458.329499 105.516297 462.019456 115.881356 448.182119 126.246415 460.174477 136.611473 457.407010 146.976532 457.407010 157.341591 451.872075 167.706649 448.182119 178.071708 454.639543 188.436767 445.414651 198.801825 442.647184 209.166884 436.189760 219.531943 437.112249 229.897001 392.832771 240.262060 396.522728 250.627119 376.227967 260.992177 355.933206 271.357236 351.320760 281.722295 325.491065 292.087353 277.521630 302.452412 283.056565 312.817471 202.800010 323.182529 188.040184 333.547588 169.590402 343.912647 123.465945 354.277705 95.791271 364.642764 67.194108 375.007823 82.876423 385.372881 60.736684 395.737940 80.108956 406.102999 29.372054 416.468057 9.077293 426.833116 70.884065 437.198175 69.039086 447.563233 41.364413 457.928292 40.441923 468.293351 91.178826 478.658409 140.993239 489.023468 214.792369 499.388527 259.071847 509.753585 321.801108 520.118644 364.235608 530.483703 408.515086 540.848761 430.654825 551.213820 448.182119 561.578879 455.562032 571.943937 458.329499 582.308996 458.329499 592.674055 462.019456 603.039113 462.941945 613.404172 462.019456 623.769231 462.941945" /></g><g class="series serie-1 color-1"><path class="line reactive nofill" d="M12.230769 462.929077 L22.595828 462.918395 32.960887 462.899726 43.325945 462.867801 53.691004 462.814390 64.056063 462.726981 74.421121 462.587063 84.786180 462.368023 95.151239 462.032719 105.516297 461.530901 115.881356 460.796784 126.246415 459.747246 136.611473 458.281237 146.976532 456.281105 157.341591 453.616515 167.706649 450.151407 178.071708 445.753889 188.436767 440.307962 198.801825 433.724323 209.166884 425.945309 219.531943 416.936748 229.897001 406.658532 240.262060 395.008695 250.627119 381.745989 260.992177 366.414805 271.357236 348.320065 281.722295 326.615286 292.087353 300.554412 302.452412 269.900060 312.817471 235.381717 323.182529 198.996666 333.547588 163.912022 343.912647 133.819684 354.277705 111.821702 364.642764 99.199703 375.007823 94.604475 385.372881 94.158307 395.737940 92.656284 406.102999 85.580053 416.468057 71.198965 426.833116 51.850686 437.198175 33.708061 447.563233 24.925897 457.928292 32.793582 468.293351 61.037530 478.658409 108.412204 489.023468 169.142234 499.388527 234.922195 509.753585 297.516111 520.118644 350.871826 530.483703 392.076222 540.848761 421.114788 551.213820 439.886247 561.578879 451.060788 571.943937 457.207556 582.308996 460.342191 592.674055 461.829668 603.039113 462.489540 613.404172 462.764990 623.769231 462.874237" /></g><g class="series serie-2 color-2"><path class="line reactive nofill" d="M12.230769 462.941945 L22.595828 462.941945 32.960887 462.941945 43.325945 462.941945 53.691004 462.941945 64.056063 462.941945 74.421121 462.941945 84.786180 462.941945 95.151239 462.941945 105.516297 462.941945 115.881356 462.941945 126.246415 462.941945 136.611473 462.941945 146.976532 462.941945 157.341591 462.941945 167.706649 462.941945 178.071708 462.941945 188.436767 462.941944 198.801825 462.941942 209.166884 462.941931 219.531943 462.941889 229.897001 462.941735 240.262060 462.941202 250.627119 462.939463 260.992177 462.934139 271.357236 462.918812 281.722295 462.877313 292.087353 462.771578 302.452412 462.517968 312.817471 461.945086 323.182529 460.726024 333.547588 458.282353 343.912647 453.670005 354.277705 445.481292 364.642764 431.830972 375.007823 410.524539 385.372881 379.506889 395.737940 337.623669 406.102999 285.577079 416.468057 226.756144 426.833116 167.476226 437.198175 116.219443 447.563233 81.807927 457.928292 70.970708 468.293351 86.202038 478.658409 124.842881 489.023468 179.842449 499.388527 241.898954 509.753585 302.071718 520.118644 353.842920 530.483703 394.003493 540.848761 422.352785 551.213820 440.670810 561.578879 451.549966 571.943937 457.507083 582.308996 460.522093 592.674055 461.935591 603.039113 462.550654 613.404172 462.799537 623.769231 462.893369" /></g><g class="series serie-3 color-3"><path class="line reactive nofill" d="M12.230769 462.929077 L22.595828 462.918395 32.960887 462.899726 43.325945 462.867801 53.691004 462.814390 64.056063 462.726981 74.421121 462.587063 84.786180 462.368023 95.151239 462.032719 105.516297 461.530901 115.881356 460.796784 126.246415 459.747246 136.611473 458.281237 146.976532 456.281105 157.341591 453.616515 167.706649 450.151407 178.071708 445.753889 188.436767 440.307963 198.801825 433.724327 209.166884 425.945323 219.531943 416.936804 229.897001 406.658741 240.262060 395.009439 250.627119 381.748471 260.992177 366.422611 271.357236 348.343198 281.722295 326.679918 292.087353 300.724779 302.452412 270.324037 312.817471 236.378575 323.182529 201.212587 333.547588 168.571613 343.912647 143.091624 354.277705 129.282355 364.642764 130.310676 375.007823 147.021881 385.372881 177.593363 395.737940 217.974560 406.102999 262.944919 416.468057 307.384766 426.833116 347.316404 437.198175 380.430563 447.563233 406.059915 457.928292 424.764819 468.293351 437.777437 478.658409 446.511268 489.023468 452.241730 499.388527 455.965186 509.753585 458.386337 520.118644 459.970850 530.483703 461.014674 540.848761 461.703948 551.213820 462.157382 561.578879 462.452767 571.943937 462.642418 582.308996 462.762042 592.674055 462.836022 603.039113 462.880831 613.404172 462.907398 623.769231 462.922813" /></g><g class="series serie-4 color-4"><path class="line reactive nofill" d="M12.230769 462.941945 L22.595828 462.941945 32.960887 462.941945 43.325945 462.941945 53.691004 462.941945 64.056063 462.941945 74.421121 462.941945 84.786180 462.941945 95.151239 462.941945 105.516297 462.941945 115.881356 462.941945 126.246415 462.941945 136.611473 462.941945 146.976532 462.941945 157.341591 462.941945 167.706649 462.941945 178.071708 462.941945 188.436767 462.941944 198.801825 462.941942 209.166884 462.941931 219.531943 462.941889 229.897001 462.941736 240.262060 462.941207 250.627119 462.939492 260.992177 462.934271 271.357236 462.919370 281.722295 462.879489 292.087353 462.779456 302.452412 462.544400 312.817471 462.027281 323.182529 460.962930 333.547588 458.915249 343.912647 455.237156 354.277705 449.078060 364.642764 439.482307 375.007823 425.610922 385.372881 407.078119 395.737940 384.327262 406.102999 358.904694 416.468057 333.466840 426.833116 311.412902 437.198175 296.172034 447.563233 290.337603 457.928292 294.946331 468.293351 309.177340 478.658409 330.591009 489.023468 355.812252 499.388527 381.395523 509.753585 404.568925 520.118644 423.647458 530.483703 438.066933 540.848761 448.133578 551.213820 454.651779 561.578879 458.577475 571.943937 460.781158 582.308996 461.935929 592.674055 462.501482 603.039113 462.760591 613.404172 462.871726 623.769231 462.916377" /></g><g class="series serie-5 color-5"><path class="line reactive nofill" d="M12.230769 462.941945 L22.595828 462.941945 32.960887 462.941945 43.325945 462.941945 53.691004 462.941945 64.056063 462.941945 74.421121 462.941945 84.786180 462.941945 95.151239 462.941945 105.516297 462.941945 115.881356 462.941945 126.246415 462.941945 136.611473 462.941945 146.976532 462.941945 157.341591 462.941945 167.706649 462.941945 178.071708 462.941945 188.436767 462.941945 198.801825 462.941945 209.166884 462.941945 219.531943 462.941945 229.897001 462.941944 240.262060 462.941939 250.627119 462.941916 260.992177 462.941813 271.357236 462.941387 281.722295 462.939768 292.087353 462.934066 302.452412 462.915513 312.817471 462.859750 323.182529 462.705038 333.547588 462.309049 343.912647 461.374794 354.277705 459.345177 364.642764 455.290610 375.007823 447.855562 385.372881 435.370715 395.737940 416.238352 406.102999 389.614330 416.468057 356.231249 426.833116 319.005270 437.198175 282.989353 447.563233 254.412269 457.928292 238.966322 468.293351 239.966643 478.658409 257.193817 489.023468 286.972142 499.388527 323.445376 509.753585 360.444739 520.118644 393.137408 530.483703 418.878505 540.848761 437.161152 551.213820 448.960976 561.578879 455.914436 571.943937 459.667870 582.308996 461.528109 592.674055 462.376054 603.039113 462.732008 613.404172 462.869756 623.769231 462.918937" /></g><g class="series serie-6 color-6"><path class="line reactive nofill" d="M12.230769 462.929077 L22.595828 462.918395 32.960887 462.899726 43.325945 462.867801 53.691004 462.814390 64.056063 462.726981 74.421121 462.587063 84.786180 462.368023 95.151239 462.032720 105.516297 461.530901 115.881356 460.796787 126.246415 459.747258 136.611473 458.281288 146.976532 456.281303 157.341591 453.617241 167.706649 450.153905 178.071708 445.761954 188.436767 440.332396 198.801825 433.793804 209.166884 426.130757 219.531943 417.401337 229.897001 407.751002 240.262060 397.419996 250.627119 386.741797 260.992177 376.130931 271.357236 366.059777 281.722295 357.025627 292.087353 349.510906 302.452412 343.940852 312.817471 340.643763 323.182529 339.818982 333.547588 341.516942 343.912647 345.634063 354.277705 351.923211 364.642764 360.018253 375.007823 369.469318 385.372881 379.784038 395.737940 390.469543 406.102999 401.070284 416.468057 411.197838 426.833116 420.550324 437.198175 428.920782 447.563233 436.195362 457.928292 442.343357 468.293351 447.401745 478.658409 451.457083 489.023468 454.627276 499.388527 457.045176 509.753585 458.845253 520.118644 460.153882 530.483703 461.083192 540.848761 461.728022 551.213820 462.165322 561.578879 462.455225 571.943937 462.643132 582.308996 462.762237 592.674055 462.836071 603.039113 462.880843 613.404172 462.907401 623.769231 462.922814" /></g><g class="series serie-7 color-7"><path class="line reactive nofill" d="M12.230769 462.941945 L22.595828 462.941945 32.960887 462.941945 43.325945 462.941945 53.691004 462.941945 64.056063 462.941945 74.421121 462.941945 84.786180 462.941945 95.151239 462.941945 105.516297 462.941944 115.881356 462.941942 126.246415 462.941933 136.611473 462.941894 146.976532 462.941747 157.341591 462.941218 167.706649 462.939446 178.071708 462.933880 188.436767 462.917512 198.801825 462.872467 209.166884 462.756511 219.531943 462.477411 229.897001 461.849684 240.262060 460.531388 250.627119 457.948619 260.992177 453.233625 271.357236 445.225366 281.722295 432.596236 292.087353 414.155818 302.452412 389.325131 312.817471 358.676757 323.182529 324.335550 333.547588 289.996616 343.912647 260.399506 354.277705 240.301089 364.642764 233.234368 375.007823 240.494508 385.372881 260.751270 395.737940 290.446962 406.102999 324.816579 416.468057 359.128872 426.833116 389.708025 437.198175 414.451726 447.563233 432.806498 457.928292 445.363407 468.293351 453.317637 478.658409 457.996130 489.023468 460.556398 499.388527 461.861955 509.753585 462.483029 520.118644 462.758913 530.483703 462.873427 540.848761 462.917870 551.213820 462.934005 561.578879 462.939487 571.943937 462.941231 582.308996 462.941750 592.674055 462.941895 603.039113 462.941933 613.404172 462.941942 623.769231 462.941944" /></g></g><g class="titles"><text class="title plot_title" x="400.0" y="26">Iteration #5</text><text class="title" x="462.0" y="580.0">Observation</text><text class="title" transform="rotate(-90 64.000000 282.009619)" x="64.0" y="308.0096189432334">Density</text></g><g class="plot overlay" transform="translate(144, 46)"><g class="series serie-0 color-0" /><g class="series serie-1 color-1" /><g class="series serie-2 color-2" /><g class="series serie-3 color-3" /><g class="series serie-4 color-4" /><g class="series serie-5 color-5" /><g class="series serie-6 color-6" /><g class="series serie-7 color-7" /></g><g class="plot text-overlay" transform="translate(144, 46)"><g class="series serie-0 color-0" /><g class="series serie-1 color-1" /><g class="series serie-2 color-2" /><g class="series serie-3 color-3" /><g class="series serie-4 color-4" /><g class="series serie-5 color-5" /><g class="series serie-6 color-6" /><g class="series serie-7 color-7" /></g><g class="plot tooltip-overlay" transform="translate(144, 46)"><g class="tooltip" style="opacity: 0" transform="translate(0 0)"><rect class="tooltip-box" height="0" rx="0" ry="0" width="0" /><g class="text" /></g></g><g class="legends" transform="translate(10, 56)"><g class="legend reactive activate-serie" id="activate-serie-0"><rect class="color-0 reactive" height="12" width="12" x="0.0" y="0.0" /><text x="17.0" y="9.0">Data</text></g><g class="legend reactive activate-serie" id="activate-serie-1"><rect class="color-1 reactive" height="12" width="12" x="0.0" y="18.0" /><text x="17.0" y="27.0">GMM</text></g><g class="legend reactive activate-serie" id="activate-serie-2"><rect class="color-2 reactive" height="12" width="12" x="0.0" y="36.0" /><text x="17.0" y="45.0">i=0</text></g><g class="legend reactive activate-serie" id="activate-serie-3"><rect class="color-3 reactive" height="12" width="12" x="0.0" y="54.0" /><text x="17.0" y="63.0">i=1</text></g><g class="legend reactive activate-serie" id="activate-serie-4"><rect class="color-4 reactive" height="12" width="12" x="0.0" y="72.0" /><text x="17.0" y="81.0">i=0 k=0</text></g><g class="legend reactive activate-serie" id="activate-serie-5"><rect class="color-5 reactive" height="12" width="12" x="0.0" y="90.0" /><text x="17.0" y="99.0">i=0 k=1</text></g><g class="legend reactive activate-serie" id="activate-serie-6"><rect class="color-6 reactive" height="12" width="12" x="0.0" y="108.0" /><text x="17.0" y="117.0">i=1 k=0</text></g><g class="legend reactive activate-serie" id="activate-serie-7"><rect class="color-7 reactive" height="12" width="12" x="0.0" y="126.0" /><text x="17.0" y="135.0">i=1 k=1</text></g></g><g class="legends" transform="translate(790, 56)" /></g></svg>