<?xml version='1.0' encoding='utf-8'?>
<svg xmlns:xlink="http://www.w3.org/1999/xlink" class="pygal-chart" id="chart-8155bd01-a760-4707-a3fe-10a6ae9a05fd" viewBox="0 0 800 600" xmlns="http://www.w3.org/2000/svg"><!--Generated with pygal 2.4.0 (etree) ©Kozea 2012-2016 on 2018-01-18--><!--http://pygal.org--><!--http://github.com/Kozea/pygal--><defs><style type="text/css">#chart-8155bd01-a760-4707-a3fe-10a6ae9a05fd{-webkit-user-select:none;-webkit-font-smoothing:antialiased;font-family:Consolas,"Liberation Mono",Menlo,Courier,monospace}#chart-8155bd01-a760-4707-a3fe-10a6ae9a05fd .title{font-family:Consolas,"Liberation Mono",Menlo,Courier,monospace;font-size:16px}#chart-8155bd01-a760-4707-a3fe-10a6ae9a05fd .legends .legend text{font-family:Consolas,"Liberation Mono",Menlo,Courier,monospace;font-size:10px}#chart-8155bd01-a760-4707-a3fe-10a6ae9a05fd .axis text{font-family:Consolas,"Liberation Mono",Menlo,Courier,monospace;font-size:10px}#chart-8155bd01-a760-4707-a3fe-10a6ae9a05fd .axis text.major{font-family:Consolas,"Liberation Mono",Menlo,Courier,monospace;font-size:10px}#chart-8155bd01-a760-4707-a3fe-10a6ae9a05fd .text-overlay text.value{font-family:Consolas,"Liberation Mono",Menlo,Courier,monospace;font-size:16px}#chart-8155bd01-a760-4707-a3fe-10a6ae9a05fd .text-overlay text.label{font-family:Consolas,"Liberation Mono",Menlo,Courier,monospace;font-size:10px}#chart-8155bd01-a760-4707-a3fe-10a6ae9a05fd .tooltip{font-family:Consolas,"Liberation Mono",Menlo,Courier,monospace;font-size:14px}#chart-8155bd01-a760-4707-a3fe-10a6ae9a05fd text.no_data{font-family:Consolas,"Liberation Mono",Menlo,Courier,monospace;font-size:64px}
#chart-8155bd01-a760-4707-a3fe-10a6ae9a05fd{background-color:rgba(249,249,249,1)}#chart-8155bd01-a760-4707-a3fe-10a6ae9a05fd path,#chart-8155bd01-a760-4707-a3fe-10a6ae9a05fd line,#chart-8155bd01-a760-4707-a3fe-10a6ae9a05fd rect,#chart-8155bd01-a760-4707-a3fe-10a6ae9a05fd circle{-webkit-transition:150ms;-moz-transition:150ms;transition:150ms}#chart-8155bd01-a760-4707-a3fe-10a6ae9a05fd .graph &gt; .background{fill:rgba(249,249,249,1)}#chart-8155bd01-a760-4707-a3fe-10a6ae9a05fd .plot &gt; .background{fill:rgba(255,255,255,1)}#chart-8155bd01-a760-4707-a3fe-10a6ae9a05fd .graph{fill:rgba(0,0,0,.87)}#chart-8155bd01-a760-4707-a3fe-10a6ae9a05fd text.no_data{fill:rgba(0,0,0,1)}#chart-8155bd01-a760-4707-a3fe-10a6ae9a05fd .title{fill:rgba(0,0,0,1)}#chart-8155bd01-a760-4707-a3fe-10a6ae9a05fd .legends .legend text{fill:rgba(0,0,0,.87)}#chart-8155bd01-a760-4707-a3fe-10a6ae9a05fd .legends .legend:hover text{fill:rgba(0,0,0,1)}#chart-8155bd01-a760-4707-a3fe-10a6ae9a05fd .axis .line{stroke:rgba(0,0,0,1)}#chart-8155bd01-a760-4707-a3fe-10a6ae9a05fd .axis .guide.line{stroke:rgba(0,0,0,.54)}#chart-8155bd01-a760-4707-a3fe-10a6ae9a05fd .axis .major.line{stroke:rgba(0,0,0,.87)}#chart-8155bd01-a760-4707-a3fe-10a6ae9a05fd .axis text.major{fill:rgba(0,0,0,1)}#chart-8155bd01-a760-4707-a3fe-10a6ae9a05fd .axis.y .guides:hover .guide.line,#chart-8155bd01-a760-4707-a3fe-10a6ae9a05fd .line-graph .axis.x .guides:hover .guide.line,#chart-8155bd01-a760-4707-a3fe-10a6ae9a05fd .stackedline-graph .axis.x .guides:hover .guide.line,#chart-8155bd01-a760-4707-a3fe-10a6ae9a05fd .xy-graph .axis.x .guides:hover .guide.line{stroke:rgba(0,0,0,1)}#chart-8155bd01-a760-4707-a3fe-10a6ae9a05fd .axis .guides:hover text{fill:rgba(0,0,0,1)}#chart-8155bd01-a760-4707-a3fe-10a6ae9a05fd .reactive{fill-opacity:.7;stroke-opacity:.8}#chart-8155bd01-a760-4707-a3fe-10a6ae9a05fd .ci{stroke:rgba(0,0,0,.87)}#chart-8155bd01-a760-4707-a3fe-10a6ae9a05fd .reactive.active,#chart-8155bd01-a760-4707-a3fe-10a6ae9a05fd .active .reactive{fill-opacity:.8;stroke-opacity:.9;stroke-width:4}#chart-8155bd01-a760-4707-a3fe-10a6ae9a05fd .ci .reactive.active{stroke-width:1.5}#chart-8155bd01-a760-4707-a3fe-10a6ae9a05fd .series text{fill:rgba(0,0,0,1)}#chart-8155bd01-a760-4707-a3fe-10a6ae9a05fd .tooltip rect{fill:rgba(255,255,255,1);stroke:rgba(0,0,0,1);-webkit-transition:opacity 150ms;-moz-transition:opacity 150ms;transition:opacity 150ms}#chart-8155bd01-a760-4707-a3fe-10a6ae9a05fd .tooltip .label{fill:rgba(0,0,0,.87)}#chart-8155bd01-a760-4707-a3fe-10a6ae9a05fd .tooltip .label{fill:rgba(0,0,0,.87)}#chart-8155bd01-a760-4707-a3fe-10a6ae9a05fd .tooltip .legend{font-size:.8em;fill:rgba(0,0,0,.54)}#chart-8155bd01-a760-4707-a3fe-10a6ae9a05fd .tooltip .x_label{font-size:.6em;fill:rgba(0,0,0,1)}#chart-8155bd01-a760-4707-a3fe-10a6ae9a05fd .tooltip .xlink{font-size:.5em;text-decoration:underline}#chart-8155bd01-a760-4707-a3fe-10a6ae9a05fd .tooltip .value{font-size:1.5em}#chart-8155bd01-a760-4707-a3fe-10a6ae9a05fd .bound{font-size:.5em}#chart-8155bd01-a760-4707-a3fe-10a6ae9a05fd .max-value{font-size:.75em;fill:rgba(0,0,0,.54)}#chart-8155bd01-a760-4707-a3fe-10a6ae9a05fd .map-element{fill:rgba(255,255,255,1);stroke:rgba(0,0,0,.54) !important}#chart-8155bd01-a760-4707-a3fe-10a6ae9a05fd .map-element .reactive{fill-opacity:inherit;stroke-opacity:inherit}#chart-8155bd01-a760-4707-a3fe-10a6ae9a05fd .color-0,#chart-8155bd01-a760-4707-a3fe-10a6ae9a05fd .color-0 a:visited{stroke:#909090;fill:#909090}#chart-8155bd01-a760-4707-a3fe-10a6ae9a05fd .color-1,#chart-8155bd01-a760-4707-a3fe-10a6ae9a05fd .color-1 a:visited{stroke:#000000;fill:#000000}#chart-8155bd01-a760-4707-a3fe-10a6ae9a05fd .color-2,#chart-8155bd01-a760-4707-a3fe-10a6ae9a05fd .color-2 a:visited{stroke:#ff0500;fill:#ff0500}#chart-8155bd01-a760-4707-a3fe-10a6ae9a05fd .color-3,#chart-8155bd01-a760-4707-a3fe-10a6ae9a05fd .color-3 a:visited{stroke:#323299;fill:#323299}#chart-8155bd01-a760-4707-a3fe-10a6ae9a05fd .color-4,#chart-8155bd01-a760-4707-a3fe-10a6ae9a05fd .color-4 a:visited{stroke:#a3413f;fill:#a3413f}#chart-8155bd01-a760-4707-a3fe-10a6ae9a05fd .color-5,#chart-8155bd01-a760-4707-a3fe-10a6ae9a05fd .color-5 a:visited{stroke:#a3413f;fill:#a3413f}#chart-8155bd01-a760-4707-a3fe-10a6ae9a05fd .color-6,#chart-8155bd01-a760-4707-a3fe-10a6ae9a05fd .color-6 a:visited{stroke:#a3413f;fill:#a3413f}#chart-8155bd01-a760-4707-a3fe-10a6ae9a05fd .color-7,#chart-8155bd01-a760-4707-a3fe-10a6ae9a05fd .color-7 a:visited{stroke:#a3413f;fill:#a3413f}#chart-8155bd01-a760-4707-a3fe-10a6ae9a05fd .color-8,#chart-8155bd01-a760-4707-a3fe-10a6ae9a05fd .color-8 a:visited{stroke:#a3413f;fill:#a3413f}#chart-8155bd01-a760-4707-a3fe-10a6ae9a05fd .color-9,#chart-8155bd01-a760-4707-a3fe-10a6ae9a05fd .color-9 a:visited{stroke:#657fff;fill:#657fff}#chart-8155bd01-a760-4707-a3fe-10a6ae9a05fd .color-10,#chart-8155bd01-a760-4707-a3fe-10a6ae9a05fd .color-10 a:visited{stroke:#657fff;fill:#657fff}#chart-8155bd01-a760-4707-a3fe-10a6ae9a05fd .color-11,#chart-8155bd01-a760-4707-a3fe-10a6ae9a05fd .color-11 a:visited{stroke:#657fff;fill:#657fff}#chart-8155bd01-a760-4707-a3fe-10a6ae9a05fd .color-12,#chart-8155bd01-a760-4707-a3fe-10a6ae9a05fd .color-12 a:visited{stroke:#657fff;fill:#657fff}#chart-8155bd01-a760-4707-a3fe-10a6ae9a05fd .color-13,#chart-8155bd01-a760-4707-a3fe-10a6ae9a05fd .color-13 a:visited{stroke:#657fff;fill:#657fff}#chart-8155bd01-a760-4707-a3fe-10a6ae9a05fd .text-overlay .color-0 text{fill:black}#chart-8155bd01-a760-4707-a3fe-10a6ae9a05fd .text-overlay .color-1 text{fill:white}#chart-8155bd01-a760-4707-a3fe-10a6ae9a05fd .text-overlay .color-2 text{fill:black}#chart-8155bd01-a760-4707-a3fe-10a6ae9a05fd .text-overlay .color-3 text{fill:black}#chart-8155bd01-a760-4707-a3fe-10a6ae9a05fd .text-overlay .color-4 text{fill:black}#chart-8155bd01-a760-4707-a3fe-10a6ae9a05fd .text-overlay .color-5 text{fill:black}#chart-8155bd01-a760-4707-a3fe-10a6ae9a05fd .text-overlay .color-6 text{fill:black}#chart-8155bd01-a760-4707-a3fe-10a6ae9a05fd .text-overlay .color-7 text{fill:black}#chart-8155bd01-a760-4707-a3fe-10a6ae9a05fd .text-overlay .color-8 text{fill:black}#chart-8155bd01-a760-4707-a3fe-10a6ae9a05fd .text-overlay .color-9 text{fill:black}#chart-8155bd01-a760-4707-a3fe-10a6ae9a05fd .text-overlay .color-10 text{fill:black}#chart-8155bd01-a760-4707-a3fe-10a6ae9a05fd .text-overlay .color-11 text{fill:black}#chart-8155bd01-a760-4707-a3fe-10a6ae9a05fd .text-overlay .color-12 text{fill:black}#chart-8155bd01-a760-4707-a3fe-10a6ae9a05fd .text-overlay .color-13 text{fill:black}#chart-8155bd01-a760-4707-a3fe-10a6ae9a05fd .series.serie-1{stroke-width:5}#chart-8155bd01-a760-4707-a3fe-10a6ae9a05fd .series.serie-2{stroke-width:3}#chart-8155bd01-a760-4707-a3fe-10a6ae9a05fd .series.serie-3{stroke-width:3}#chart-8155bd01-a760-4707-a3fe-10a6ae9a05fd .series.serie-4{stroke-width:2;stroke-dasharray:2,2}#chart-8155bd01-a760-4707-a3fe-10a6ae9a05fd .series.serie-5{stroke-width:2;stroke-dasharray:2,2}#chart-8155bd01-a760-4707-a3fe-10a6ae9a05fd .series.serie-6{stroke-width:2;stroke-dasharray:2,2}#chart-8155bd01-a760-4707-a3fe-10a6ae9a05fd .series.serie-7{stroke-width:2;stroke-dasharray:2,2}#chart-8155bd01-a760-4707-a3fe-10a6ae9a05fd .series.serie-8{stroke-width:2;stroke-dasharray:2,2}#chart-8155bd01-a760-4707-a3fe-10a6ae9a05fd .series.serie-9{stroke-width:2;stroke-dasharray:2,2}#chart-8155bd01-a760-4707-a3fe-10a6ae9a05fd .series.serie-10{stroke-width:2;stroke-dasharray:2,2}#chart-8155bd01-a760-4707-a3fe-10a6ae9a05fd .series.serie-11{stroke-width:2;stroke-dasharray:2,2}#chart-8155bd01-a760-4707-a3fe-10a6ae9a05fd .series.serie-12{stroke-width:2;stroke-dasharray:2,2}#chart-8155bd01-a760-4707-a3fe-10a6ae9a05fd .series.serie-13{stroke-width:2;stroke-dasharray:2,2}
#chart-8155bd01-a760-4707-a3fe-10a6ae9a05fd text.no_data{text-anchor:middle}#chart-8155bd01-a760-4707-a3fe-10a6ae9a05fd .guide.line{fill:none}#chart-8155bd01-a760-4707-a3fe-10a6ae9a05fd .centered{text-anchor:middle}#chart-8155bd01-a760-4707-a3fe-10a6ae9a05fd .title{text-anchor:middle}#chart-8155bd01-a760-4707-a3fe-10a6ae9a05fd .legends .legend text{fill-opacity:1}#chart-8155bd01-a760-4707-a3fe-10a6ae9a05fd .axis.x text{text-anchor:middle}#chart-8155bd01-a760-4707-a3fe-10a6ae9a05fd .axis.x:not(.web) text[transform]{text-anchor:start}#chart-8155bd01-a760-4707-a3fe-10a6ae9a05fd .axis.x:not(.web) text[transform].backwards{text-anchor:end}#chart-8155bd01-a760-4707-a3fe-10a6ae9a05fd .axis.y text{text-anchor:end}#chart-8155bd01-a760-4707-a3fe-10a6ae9a05fd .axis.y text[transform].backwards{text-anchor:start}#chart-8155bd01-a760-4707-a3fe-10a6ae9a05fd .axis.y2 text{text-anchor:start}#chart-8155bd01-a760-4707-a3fe-10a6ae9a05fd .axis.y2 text[transform].backwards{text-anchor:end}#chart-8155bd01-a760-4707-a3fe-10a6ae9a05fd .axis .guide.line{stroke-dasharray:4,4}#chart-8155bd01-a760-4707-a3fe-10a6ae9a05fd .axis .major.guide.line{stroke-dasharray:6,6}#chart-8155bd01-a760-4707-a3fe-10a6ae9a05fd .horizontal .axis.y .guide.line,#chart-8155bd01-a760-4707-a3fe-10a6ae9a05fd .horizontal .axis.y2 .guide.line,#chart-8155bd01-a760-4707-a3fe-10a6ae9a05fd .vertical .axis.x .guide.line{opacity:0}#chart-8155bd01-a760-4707-a3fe-10a6ae9a05fd .horizontal .axis.always_show .guide.line,#chart-8155bd01-a760-4707-a3fe-10a6ae9a05fd .vertical .axis.always_show .guide.line{opacity:1 !important}#chart-8155bd01-a760-4707-a3fe-10a6ae9a05fd .axis.y .guides:hover .guide.line,#chart-8155bd01-a760-4707-a3fe-10a6ae9a05fd .axis.y2 .guides:hover .guide.line,#chart-8155bd01-a760-4707-a3fe-10a6ae9a05fd .axis.x .guides:hover .guide.line{opacity:1}#chart-8155bd01-a760-4707-a3fe-10a6ae9a05fd .axis .guides:hover text{opacity:1}#chart-8155bd01-a760-4707-a3fe-10a6ae9a05fd .nofill{fill:none}#chart-8155bd01-a760-4707-a3fe-10a6ae9a05fd .subtle-fill{fill-opacity:.2}#chart-8155bd01-a760-4707-a3fe-10a6ae9a05fd .dot{stroke-width:1px;fill-opacity:1}#chart-8155bd01-a760-4707-a3fe-10a6ae9a05fd .dot.active{stroke-width:5px}#chart-8155bd01-a760-4707-a3fe-10a6ae9a05fd .dot.negative{fill:transparent}#chart-8155bd01-a760-4707-a3fe-10a6ae9a05fd text,#chart-8155bd01-a760-4707-a3fe-10a6ae9a05fd tspan{stroke:none !important}#chart-8155bd01-a760-4707-a3fe-10a6ae9a05fd .series text.active{opacity:1}#chart-8155bd01-a760-4707-a3fe-10a6ae9a05fd .tooltip rect{fill-opacity:.95;stroke-width:.5}#chart-8155bd01-a760-4707-a3fe-10a6ae9a05fd .tooltip text{fill-opacity:1}#chart-8155bd01-a760-4707-a3fe-10a6ae9a05fd .showable{visibility:hidden}#chart-8155bd01-a760-4707-a3fe-10a6ae9a05fd .showable.shown{visibility:visible}#chart-8155bd01-a760-4707-a3fe-10a6ae9a05fd .gauge-background{fill:rgba(229,229,229,1);stroke:none}#chart-8155bd01-a760-4707-a3fe-10a6ae9a05fd .bg-lines{stroke:rgba(249,249,249,1);stroke-width:2px}</style><script type="text/javascript">window.pygal = window.pygal || {};window.pygal.config = window.pygal.config || {};window.pygal.config['8155bd01-a760-4707-a3fe-10a6ae9a05fd'] = {"allow_interruptions": false, "x_label_rotation": 60, "y_title": "Density", "stack_from_top": false, "stroke": true, "include_x_axis": false, "defs": [], "truncate_label": null, "legend_at_bottom_columns": null, "show_minor_y_labels": true, "show_x_labels": true, "tooltip_fancy_mode": true, "show_legend": true, "print_labels": false, "disable_xml_declaration": false, "secondary_range": null, "x_labels": ["-8.96", "-8.76", "-8.56", "-8.36", "-8.16", "-7.96", "-7.76", "-7.56", "-7.36", "-7.16", "-6.96", "-6.76", "-6.56", "-6.36", "-6.16", "-5.96", "-5.76", "-5.56", "-5.36", "-5.16", "-4.96", "-4.76", "-4.56", "-4.36", "-4.16", "-3.96", "-3.76", "-3.56", "-3.36", "-3.16", "-2.96", "-2.76", "-2.56", "-2.36", "-2.16", "-1.96", "-1.76", "-1.56", "-1.36", "-1.16", "-0.96", "-0.76", "-0.56", "-0.36", "-0.16", "0.04", "0.24", "0.44", "0.64", "0.84", "1.04", "1.24", "1.43", "1.63", "1.83", "2.03", "2.23", "2.43", "2.63", "2.83"], "interpolation_precision": 250, "force_uri_protocol": "https", "classes": ["pygal-chart"], "css": ["file://style.css", "file://graph.css"], "margin": 20, "style": {"opacity_hover": ".8", "foreground": "rgba(0, 0, 0, .87)", "foreground_subtle": "rgba(0, 0, 0, .54)", "value_colors": [], "legend_font_family": "Consolas, \"Liberation Mono\", Menlo, Courier, monospace", "tooltip_font_family": "Consolas, \"Liberation Mono\", Menlo, Courier, monospace", "stroke_opacity_hover": ".9", "no_data_font_size": 64, "guide_stroke_dasharray": "4,4", "title_font_family": "Consolas, \"Liberation Mono\", Menlo, Courier, monospace", "label_font_family": "Consolas, \"Liberation Mono\", Menlo, Courier, monospace", "ci_colors": [], "background": "rgba(249, 249, 249, 1)", "colors": ["#909090", "#000000", "#ff0500", "#323299", "#a3413f", "#a3413f", "#a3413f", "#a3413f", "#a3413f", "#657fff", "#657fff", "#657fff", "#657fff", "#657fff"], "value_font_family": "Consolas, \"Liberation Mono\", Menlo, Courier, monospace", "font_family": "Consolas, \"Liberation Mono\", Menlo, Courier, monospace", "value_background": "rgba(229, 229, 229, 1)", "stroke_opacity": ".8", "title_font_size": 16, "no_data_font_family": "Consolas, \"Liberation Mono\", Menlo, Courier, monospace", "label_font_size": 10, "major_guide_stroke_dasharray": "6,6", "major_label_font_size": 10, "transition": "150ms", "opacity": ".7", "legend_font_size": 10, "value_label_font_family": "Consolas, \"Liberation Mono\", Menlo, Courier, monospace", "major_label_font_family": "Consolas, \"Liberation Mono\", Menlo, Courier, monospace", "plot_background": "rgba(255, 255, 255, 1)", "value_label_font_size": 10, "foreground_strong": "rgba(0, 0, 0, 1)", "tooltip_font_size": 14, "value_font_size": 16}, "order_min": null, "interpolation_parameters": {}, "show_dots": false, "y_labels_major": null, "box_mode": "extremes", "fill": false, "show_minor_x_labels": false, "js": ["//kozea.github.io/pygal.js/2.0.x/pygal-tooltips.min.js"], "explicit_size": false, "formatter": null, "x_labels_major": null, "legends": ["Data", "GMM", "i=0", "i=1", "i=0 k=0", "i=0 k=1", "i=0 k=2", "i=0 k=3", "i=0 k=4", "i=1 k=0", "i=1 k=1", "i=1 k=2", "i=1 k=3", "i=1 k=4"], "zero": 0, "strict": false, "print_values": false, "margin_bottom": null, "dynamic_print_values": false, "print_zeroes": true, "logarithmic": false, "x_labels_major_count": null, "margin_left": null, "legend_box_size": 12, "max_scale": 16, "dots_size": 2.5, "show_y_guides": true, "truncate_legend": null, "interpolate": null, "y_labels_major_every": null, "legend_at_bottom": false, "inner_radius": 0, "tooltip_border_radius": 0, "show_x_guides": false, "x_labels_major_every": 2, "show_y_labels": true, "pretty_print": false, "rounded_bars": null, "missing_value_fill_truncation": "x", "y_label_rotation": 0, "height": 600, "show_only_major_dots": false, "spacing": 10, "inverse_y_axis": false, "xrange": null, "margin_right": null, "no_prefix": false, "range": [0, 0.27578580090479526], "margin_top": null, "no_data_text": "No data", "y_labels_major_count": null, "half_pie": false, "width": 800, "title": "Iteration #7", "stroke_style": null, "y_labels": null, "print_values_position": "center", "x_title": "Observation", "min_scale": 4}</script><script type="text/javascript" xlink:href="https://kozea.github.io/pygal.js/2.0.x/pygal-tooltips.min.js" /></defs><title>Iteration #7</title><g class="graph line-graph vertical"><rect class="background" height="600" width="800" x="0" y="0" /><g class="plot" transform="translate(144, 46)"><rect class="background" height="472.01923788646684" width="636.0" x="0" y="0" /><g class="axis y always_show"><g class="guides"><path class="axis major line" d="M0.000000 462.941945 h636.000000" /><text class="major" x="-5" y="466.44194485">0</text><title>0</title></g><g class="guides"><path class="guide line" d="M0.000000 430.027658 h636.000000" /><text class="" x="-5" y="433.527657724">0.02</text><title>0.02</title></g><g class="guides"><path class="guide line" d="M0.000000 397.113371 h636.000000" /><text class="" x="-5" y="400.613370598">0.04</text><title>0.04</title></g><g class="guides"><path class="guide line" d="M0.000000 364.199083 h636.000000" /><text class="" x="-5" y="367.699083472">0.06</text><title>0.06</title></g><g class="guides"><path class="guide line" d="M0.000000 331.284796 h636.000000" /><text class="" x="-5" y="334.784796346">0.08</text><title>0.08</title></g><g class="guides"><path class="guide line" d="M0.000000 298.370509 h636.000000" /><text class="" x="-5" y="301.87050922">0.1</text><title>0.1</title></g><g class="guides"><path class="guide line" d="M0.000000 265.456222 h636.000000" /><text class="" x="-5" y="268.956222094">0.12</text><title>0.12</title></g><g class="guides"><path class="guide line" d="M0.000000 232.541935 h636.000000" /><text class="" x="-5" y="236.041934968">0.14</text><title>0.14</title></g><g class="guides"><path class="guide line" d="M0.000000 199.627648 h636.000000" /><text class="" x="-5" y="203.127647841">0.16</text><title>0.16</title></g><g class="guides"><path class="guide line" d="M0.000000 166.713361 h636.000000" /><text class="" x="-5" y="170.213360715">0.18</text><title>0.18</title></g><g class="guides"><path class="guide line" d="M0.000000 133.799074 h636.000000" /><text class="" x="-5" y="137.299073589">0.2</text><title>0.2</title></g><g class="guides"><path class="guide line" d="M0.000000 100.884786 h636.000000" /><text class="" x="-5" y="104.384786463">0.22</text><title>0.22</title></g><g class="guides"><path class="guide line" d="M0.000000 67.970499 h636.000000" /><text class="" x="-5" y="71.4704993371">0.24</text><title>0.24</title></g><g class="guides"><path class="guide line" d="M0.000000 35.056212 h636.000000" /><text class="" x="-5" y="38.5562122111">0.26</text><title>0.26</title></g></g><g class="axis x"><g class="guides"><path class="major line" d="M12.230769 0.000000 v472.019238" /><text class="major" transform="rotate(60 12.230769 487.019238)" x="12.230769230769232" y="487.01923788646684">-8.96</text></g><g class="guides"><path class="major guide line" d="M32.960887 0.000000 v472.019238" /><text class="major" transform="rotate(60 32.960887 487.019238)" x="32.96088657105606" y="487.01923788646684">-8.56</text></g><g class="guides"><path class="major guide line" d="M53.691004 0.000000 v472.019238" /><text class="major" transform="rotate(60 53.691004 487.019238)" x="53.6910039113429" y="487.01923788646684">-8.16</text></g><g class="guides"><path class="major guide line" d="M74.421121 0.000000 v472.019238" /><text class="major" transform="rotate(60 74.421121 487.019238)" x="74.42112125162973" y="487.01923788646684">-7.76</text></g><g class="guides"><path class="major guide line" d="M95.151239 0.000000 v472.019238" /><text class="major" transform="rotate(60 95.151239 487.019238)" x="95.15123859191655" y="487.01923788646684">-7.36</text></g><g class="guides"><path class="major guide line" d="M115.881356 0.000000 v472.019238" /><text class="major" transform="rotate(60 115.881356 487.019238)" x="115.88135593220338" y="487.01923788646684">-6.96</text></g><g class="guides"><path class="major guide line" d="M136.611473 0.000000 v472.019238" /><text class="major" transform="rotate(60 136.611473 487.019238)" x="136.61147327249023" y="487.01923788646684">-6.56</text></g><g class="guides"><path class="major guide line" d="M157.341591 0.000000 v472.019238" /><text class="major" transform="rotate(60 157.341591 487.019238)" x="157.34159061277705" y="487.01923788646684">-6.16</text></g><g class="guides"><path class="major guide line" d="M178.071708 0.000000 v472.019238" /><text class="major" transform="rotate(60 178.071708 487.019238)" x="178.0717079530639" y="487.01923788646684">-5.76</text></g><g class="guides"><path class="major guide line" d="M198.801825 0.000000 v472.019238" /><text class="major" transform="rotate(60 198.801825 487.019238)" x="198.80182529335073" y="487.01923788646684">-5.36</text></g><g class="guides"><path class="major guide line" d="M219.531943 0.000000 v472.019238" /><text class="major" transform="rotate(60 219.531943 487.019238)" x="219.53194263363756" y="487.01923788646684">-4.96</text></g><g class="guides"><path class="major guide line" d="M240.262060 0.000000 v472.019238" /><text class="major" transform="rotate(60 240.262060 487.019238)" x="240.2620599739244" y="487.01923788646684">-4.56</text></g><g class="guides"><path class="major guide line" d="M260.992177 0.000000 v472.019238" /><text class="major" transform="rotate(60 260.992177 487.019238)" x="260.99217731421123" y="487.01923788646684">-4.16</text></g><g class="guides"><path class="major guide line" d="M281.722295 0.000000 v472.019238" /><text class="major" transform="rotate(60 281.722295 487.019238)" x="281.722294654498" y="487.01923788646684">-3.76</text></g><g class="guides"><path class="major guide line" d="M302.452412 0.000000 v472.019238" /><text class="major" transform="rotate(60 302.452412 487.019238)" x="302.4524119947849" y="487.01923788646684">-3.36</text></g><g class="guides"><path class="major guide line" d="M323.182529 0.000000 v472.019238" /><text class="major" transform="rotate(60 323.182529 487.019238)" x="323.1825293350717" y="487.01923788646684">-2.96</text></g><g class="guides"><path class="major guide line" d="M343.912647 0.000000 v472.019238" /><text class="major" transform="rotate(60 343.912647 487.019238)" x="343.91264667535853" y="487.01923788646684">-2.56</text></g><g class="guides"><path class="major guide line" d="M364.642764 0.000000 v472.019238" /><text class="major" transform="rotate(60 364.642764 487.019238)" x="364.64276401564535" y="487.01923788646684">-2.16</text></g><g class="guides"><path class="major guide line" d="M385.372881 0.000000 v472.019238" /><text class="major" transform="rotate(60 385.372881 487.019238)" x="385.37288135593224" y="487.01923788646684">-1.76</text></g><g class="guides"><path class="major guide line" d="M406.102999 0.000000 v472.019238" /><text class="major" transform="rotate(60 406.102999 487.019238)" x="406.102998696219" y="487.01923788646684">-1.36</text></g><g class="guides"><path class="major guide line" d="M426.833116 0.000000 v472.019238" /><text class="major" transform="rotate(60 426.833116 487.019238)" x="426.8331160365058" y="487.01923788646684">-0.96</text></g><g class="guides"><path class="major guide line" d="M447.563233 0.000000 v472.019238" /><text class="major" transform="rotate(60 447.563233 487.019238)" x="447.56323337679265" y="487.01923788646684">-0.56</text></g><g class="guides"><path class="major guide line" d="M468.293351 0.000000 v472.019238" /><text class="major" transform="rotate(60 468.293351 487.019238)" x="468.29335071707953" y="487.01923788646684">-0.16</text></g><g class="guides"><path class="major guide line" d="M489.023468 0.000000 v472.019238" /><text class="major" transform="rotate(60 489.023468 487.019238)" x="489.02346805736636" y="487.01923788646684">0.24</text></g><g class="guides"><path class="major guide line" d="M509.753585 0.000000 v472.019238" /><text class="major" transform="rotate(60 509.753585 487.019238)" x="509.75358539765324" y="487.01923788646684">0.64</text></g><g class="guides"><path class="major guide line" d="M530.483703 0.000000 v472.019238" /><text class="major" transform="rotate(60 530.483703 487.019238)" x="530.48370273794" y="487.01923788646684">1.04</text></g><g class="guides"><path class="major guide line" d="M551.213820 0.000000 v472.019238" /><text class="major" transform="rotate(60 551.213820 487.019238)" x="551.213820078227" y="487.01923788646684">1.43</text></g><g class="guides"><path class="major guide line" d="M571.943937 0.000000 v472.019238" /><text class="major" transform="rotate(60 571.943937 487.019238)" x="571.9439374185138" y="487.01923788646684">1.83</text></g><g class="guides"><path class="major guide line" d="M592.674055 0.000000 v472.019238" /><text class="major" transform="rotate(60 592.674055 487.019238)" x="592.6740547588006" y="487.01923788646684">2.23</text></g><g class="guides"><path class="major guide line" d="M613.404172 0.000000 v472.019238" /><text class="major" transform="rotate(60 613.404172 487.019238)" x="613.4041720990874" y="487.01923788646684">2.63</text></g></g><g class="series serie-0 color-0"><path class="line reactive" d="M12.230769 462.941945 L12.230769 462.019456 22.595828 462.941945 32.960887 461.096967 43.325945 462.019456 53.691004 459.251988 64.056063 462.019456 74.421121 458.329499 84.786180 462.019456 95.151239 458.329499 105.516297 462.019456 115.881356 448.182119 126.246415 460.174477 136.611473 457.407010 146.976532 457.407010 157.341591 451.872075 167.706649 448.182119 178.071708 454.639543 188.436767 445.414651 198.801825 442.647184 209.166884 436.189760 219.531943 437.112249 229.897001 392.832771 240.262060 396.522728 250.627119 376.227967 260.992177 355.933206 271.357236 351.320760 281.722295 325.491065 292.087353 277.521630 302.452412 283.056565 312.817471 202.800010 323.182529 188.040184 333.547588 169.590402 343.912647 123.465945 354.277705 95.791271 364.642764 67.194108 375.007823 82.876423 385.372881 60.736684 395.737940 80.108956 406.102999 29.372054 416.468057 9.077293 426.833116 70.884065 437.198175 69.039086 447.563233 41.364413 457.928292 40.441923 468.293351 91.178826 478.658409 140.993239 489.023468 214.792369 499.388527 259.071847 509.753585 321.801108 520.118644 364.235608 530.483703 408.515086 540.848761 430.654825 551.213820 448.182119 561.578879 455.562032 571.943937 458.329499 582.308996 458.329499 592.674055 462.019456 603.039113 462.941945 613.404172 462.019456 623.769231 462.941945" /></g><g class="series serie-1 color-1"><path class="line reactive nofill" d="M12.230769 462.919613 L22.595828 462.902270 32.960887 462.872878 43.325945 462.824131 53.691004 462.745024 64.056063 462.619425 74.421121 462.424348 84.786180 462.127998 95.151239 461.687734 105.516297 461.048230 115.881356 460.140200 126.246415 458.880198 136.611473 457.172037 146.976532 454.910382 157.341591 451.986870 167.706649 448.298750 178.071708 443.759294 188.436767 438.308031 198.801825 431.917173 209.166884 424.588458 219.531943 416.333028 229.897001 407.127513 240.262060 396.845086 250.627119 385.173049 260.992177 371.547645 271.357236 355.154840 281.722295 335.049056 292.087353 310.415267 302.452412 280.938814 312.817471 247.168118 323.182529 210.699019 333.547588 174.026561 343.912647 140.027878 354.277705 111.223430 364.642764 89.116985 375.007823 73.932661 385.372881 64.884201 395.737940 60.732358 406.102999 60.044722 416.468057 60.832156 426.833116 60.319849 437.198175 56.322988 447.563233 50.279445 457.928292 49.192394 468.293351 63.266852 478.658409 99.724989 489.023468 157.497041 499.388527 227.183859 509.753585 296.076055 520.118644 354.103618 530.483703 396.877975 540.848761 425.108445 551.213820 442.166184 561.578879 451.821586 571.943937 457.059817 582.308996 459.839378 592.674055 461.303763 603.039113 462.076176 613.404172 462.485089 623.769231 462.702050" /></g><g class="series serie-2 color-2"><path class="line reactive nofill" d="M12.230769 462.941945 L22.595828 462.941945 32.960887 462.941945 43.325945 462.941945 53.691004 462.941945 64.056063 462.941945 74.421121 462.941945 84.786180 462.941945 95.151239 462.941945 105.516297 462.941945 115.881356 462.941945 126.246415 462.941945 136.611473 462.941945 146.976532 462.941945 157.341591 462.941945 167.706649 462.941945 178.071708 462.941944 188.436767 462.941944 198.801825 462.941941 209.166884 462.941935 219.531943 462.941920 229.897001 462.941881 240.262060 462.941786 250.627119 462.941559 260.992177 462.941031 271.357236 462.939822 281.722295 462.937110 292.087353 462.931118 302.452412 462.918047 312.817471 462.889775 323.182529 462.828782 333.547588 462.696632 343.912647 462.407296 354.277705 461.766365 364.642764 460.341520 375.007823 457.220468 385.372881 450.648946 395.737940 437.685658 406.102999 414.275945 416.468057 376.349653 426.833116 322.271358 437.198175 255.910700 447.563233 188.255021 457.928292 135.291481 468.293351 111.936670 478.658409 125.046540 489.023468 170.029178 499.388527 233.389884 509.753585 299.316494 520.118644 355.930825 530.483703 397.973554 540.848761 425.784887 551.213820 442.585405 561.578879 452.078754 571.943937 457.215002 582.308996 459.931268 592.674055 461.357105 603.039113 462.106523 613.404172 462.502008 623.769231 462.711292" /></g><g class="series serie-3 color-3"><path class="line reactive nofill" d="M12.230769 462.919613 L22.595828 462.902270 32.960887 462.872878 43.325945 462.824131 53.691004 462.745024 64.056063 462.619425 74.421121 462.424348 84.786180 462.127998 95.151239 461.687734 105.516297 461.048230 115.881356 460.140200 126.246415 458.880198 136.611473 457.172037 146.976532 454.910382 157.341591 451.986870 167.706649 448.298751 178.071708 443.759295 188.436767 438.308033 198.801825 431.917176 209.166884 424.588467 219.531943 416.333053 229.897001 407.127578 240.262060 396.845245 250.627119 385.173435 260.992177 371.548559 271.357236 355.156963 281.722295 335.053891 292.087353 310.426094 302.452412 280.962711 312.817471 247.220288 323.182529 210.812182 333.547588 174.271874 343.912647 140.562526 354.277705 112.399010 364.642764 91.717410 375.007823 79.654137 385.372881 77.177200 395.737940 85.988645 406.102999 108.710721 416.468057 147.424448 426.833116 200.990436 437.198175 263.354234 447.563233 324.966369 457.928292 376.842858 468.293351 414.272127 478.658409 437.620394 489.023468 450.409807 499.388527 456.735920 509.753585 459.701505 520.118644 461.114739 530.483703 461.846367 540.848761 462.265504 551.213820 462.522723 561.578879 462.684776 571.943937 462.786760 582.308996 462.850055 592.674055 462.888603 603.039113 462.911598 613.404172 462.925026 623.769231 462.932702" /></g><g class="series serie-4 color-4"><path class="line reactive nofill" d="M12.230769 462.941945 L22.595828 462.941945 32.960887 462.941945 43.325945 462.941945 53.691004 462.941945 64.056063 462.941945 74.421121 462.941945 84.786180 462.941945 95.151239 462.941945 105.516297 462.941945 115.881356 462.941945 126.246415 462.941945 136.611473 462.941945 146.976532 462.941945 157.341591 462.941945 167.706649 462.941945 178.071708 462.941945 188.436767 462.941945 198.801825 462.941945 209.166884 462.941945 219.531943 462.941945 229.897001 462.941945 240.262060 462.941945 250.627119 462.941945 260.992177 462.941945 271.357236 462.941945 281.722295 462.941944 292.087353 462.941940 302.452412 462.941911 312.817471 462.941719 323.182529 462.940603 333.547588 462.934902 343.912647 462.909258 354.277705 462.807777 364.642764 462.454868 375.007823 461.378010 385.372881 458.500618 395.737940 451.786688 406.102999 438.160923 416.468057 414.252864 426.833116 378.332925 437.198175 332.902685 447.563233 286.173378 457.928292 250.417777 468.293351 236.954485 478.658409 250.405659 489.023468 286.153219 499.388527 332.880440 509.753585 378.313626 520.118644 414.238982 530.483703 438.152444 540.848761 451.782234 551.213820 458.498592 561.578879 461.377208 571.943937 462.454591 582.308996 462.807693 592.674055 462.909236 603.039113 462.934896 613.404172 462.940602 623.769231 462.941718" /></g><g class="series serie-5 color-5"><path class="line reactive nofill" d="M12.230769 462.941945 L22.595828 462.941945 32.960887 462.941945 43.325945 462.941945 53.691004 462.941945 64.056063 462.941945 74.421121 462.941945 84.786180 462.941945 95.151239 462.941945 105.516297 462.941945 115.881356 462.941945 126.246415 462.941945 136.611473 462.941945 146.976532 462.941945 157.341591 462.941945 167.706649 462.941945 178.071708 462.941945 188.436767 462.941945 198.801825 462.941945 209.166884 462.941945 219.531943 462.941945 229.897001 462.941945 240.262060 462.941945 250.627119 462.941945 260.992177 462.941944 271.357236 462.941940 281.722295 462.941920 292.087353 462.941824 302.452412 462.941401 312.817471 462.939704 323.182529 462.933493 333.547588 462.912773 343.912647 462.849807 354.277705 462.675632 364.642764 462.237540 375.007823 461.236927 385.372881 459.165254 395.737940 455.286512 406.102999 448.741434 416.468057 438.836562 426.833116 425.496418 437.198175 409.711304 447.563233 393.695211 457.928292 380.506738 468.293351 373.136634 478.658409 373.412240 489.023468 381.263374 499.388527 394.751276 509.753585 410.844357 520.118644 426.518072 530.483703 439.637944 540.848761 449.297663 551.213820 455.631451 561.578879 459.357527 571.943937 461.333647 582.308996 462.281571 592.674055 462.693809 603.039113 462.856622 613.404172 462.915097 623.769231 462.934214" /></g><g class="series serie-6 color-6"><path class="line reactive nofill" d="M12.230769 462.941945 L22.595828 462.941945 32.960887 462.941945 43.325945 462.941945 53.691004 462.941945 64.056063 462.941945 74.421121 462.941945 84.786180 462.941945 95.151239 462.941945 105.516297 462.941945 115.881356 462.941945 126.246415 462.941945 136.611473 462.941945 146.976532 462.941945 157.341591 462.941945 167.706649 462.941945 178.071708 462.941945 188.436767 462.941945 198.801825 462.941945 209.166884 462.941945 219.531943 462.941945 229.897001 462.941944 240.262060 462.941941 250.627119 462.941930 260.992177 462.941892 271.357236 462.941762 281.722295 462.941350 292.087353 462.940126 302.452412 462.936716 312.817471 462.927806 323.182529 462.905985 333.547588 462.855928 343.912647 462.748426 354.277705 462.532460 364.642764 462.127002 375.007823 461.416522 385.372881 460.256428 395.737940 458.495229 406.102999 456.016859 416.468057 452.798510 426.833116 448.967999 437.198175 444.835750 447.563233 440.876664 457.928292 437.650952 468.293351 435.677514 478.658409 435.297930 489.023468 436.579850 499.388527 439.297296 509.753585 442.995754 520.118644 447.116309 530.483703 451.132308 540.848761 454.653253 551.213820 457.470404 561.578879 459.544852 571.943937 460.958230 582.308996 461.852450 592.674055 462.379156 603.039113 462.668519 613.404172 462.817003 623.769231 462.888248" /></g><g class="series serie-7 color-7"><path class="line reactive nofill" d="M12.230769 462.941945 L22.595828 462.941945 32.960887 462.941945 43.325945 462.941945 53.691004 462.941945 64.056063 462.941945 74.421121 462.941945 84.786180 462.941945 95.151239 462.941945 105.516297 462.941945 115.881356 462.941945 126.246415 462.941945 136.611473 462.941945 146.976532 462.941945 157.341591 462.941945 167.706649 462.941945 178.071708 462.941945 188.436767 462.941945 198.801825 462.941944 209.166884 462.941943 219.531943 462.941938 229.897001 462.941924 240.262060 462.941886 250.627119 462.941788 260.992177 462.941543 271.357236 462.940956 281.722295 462.939617 292.087353 462.936701 302.452412 462.930633 312.817471 462.918585 323.182529 462.895764 333.547588 462.854546 343.912647 462.783599 354.277705 462.667303 364.642764 462.485923 375.007823 462.217069 385.372881 461.838884 395.737940 461.335024 406.102999 460.700913 416.468057 459.949955 426.833116 459.117830 437.198175 458.262866 447.563233 457.461087 457.928292 456.795905 468.293351 456.344120 478.658409 456.161395 489.023468 456.270995 499.388527 456.658915 509.753585 457.276824 520.118644 458.051955 530.483703 458.901164 540.848761 459.745396 551.213820 460.521160 561.578879 461.186895 571.943937 461.723849 582.308996 462.132603 592.674055 462.427141 603.039113 462.628465 613.404172 462.759204 623.769231 462.839963" /></g><g class="series serie-8 color-8"><path class="line reactive nofill" d="M12.230769 462.941945 L22.595828 462.941945 32.960887 462.941945 43.325945 462.941945 53.691004 462.941945 64.056063 462.941945 74.421121 462.941945 84.786180 462.941945 95.151239 462.941945 105.516297 462.941945 115.881356 462.941945 126.246415 462.941945 136.611473 462.941945 146.976532 462.941945 157.341591 462.941945 167.706649 462.941945 178.071708 462.941944 188.436767 462.941944 198.801825 462.941942 209.166884 462.941938 219.531943 462.941927 229.897001 462.941902 240.262060 462.941848 250.627119 462.941730 260.992177 462.941487 271.357236 462.940999 281.722295 462.940057 292.087353 462.938306 302.452412 462.935166 312.817471 462.929741 323.182529 462.920717 333.547588 462.906262 343.912647 462.883985 354.277705 462.850972 364.642764 462.803966 375.007823 462.739719 385.372881 462.655541 395.737940 462.549985 406.102999 462.423596 416.468057 462.279541 426.833116 462.123966 437.198175 461.965874 447.563233 461.816460 457.928292 461.687888 468.293351 461.591696 478.658409 461.537095 489.023468 461.529520 499.388527 461.569736 509.753585 461.653713 520.118644 461.773287 530.483703 461.917473 540.848761 462.074121 551.213820 462.231578 561.578879 462.380052 571.943937 462.512465 582.308996 462.624731 592.674055 462.715543 603.039113 462.785800 613.404172 462.837882 623.769231 462.874928" /></g><g class="series serie-9 color-9"><path class="line reactive nofill" d="M12.230769 462.941945 L22.595828 462.941945 32.960887 462.941945 43.325945 462.941945 53.691004 462.941945 64.056063 462.941945 74.421121 462.941945 84.786180 462.941945 95.151239 462.941945 105.516297 462.941945 115.881356 462.941945 126.246415 462.941945 136.611473 462.941945 146.976532 462.941945 157.341591 462.941945 167.706649 462.941945 178.071708 462.941945 188.436767 462.941945 198.801825 462.941945 209.166884 462.941945 219.531943 462.941945 229.897001 462.941945 240.262060 462.941945 250.627119 462.941945 260.992177 462.941945 271.357236 462.941942 281.722295 462.941921 292.087353 462.941748 302.452412 462.940573 312.817471 462.933778 323.182529 462.900452 333.547588 462.762036 343.912647 462.276234 354.277705 460.839762 364.642764 457.276849 375.007823 449.913403 385.372881 437.371618 395.737940 420.113860 406.102999 401.724819 416.468057 388.267996 426.833116 385.206837 437.198175 393.883437 447.563233 410.585629 457.928292 429.067447 468.293351 444.238200 478.658409 454.128693 489.023468 459.397929 499.388527 461.725739 509.753585 462.585764 520.118644 462.852925 530.483703 462.922958 540.848761 462.938489 551.213820 462.941408 561.578879 462.941874 571.943937 462.941937 582.308996 462.941944 592.674055 462.941945 603.039113 462.941945 613.404172 462.941945 623.769231 462.941945" /></g><g class="series serie-10 color-10"><path class="line reactive nofill" d="M12.230769 462.941945 L22.595828 462.941945 32.960887 462.941945 43.325945 462.941945 53.691004 462.941945 64.056063 462.941945 74.421121 462.941945 84.786180 462.941945 95.151239 462.941945 105.516297 462.941945 115.881356 462.941945 126.246415 462.941945 136.611473 462.941945 146.976532 462.941945 157.341591 462.941945 167.706649 462.941945 178.071708 462.941945 188.436767 462.941945 198.801825 462.941945 209.166884 462.941945 219.531943 462.941944 229.897001 462.941940 240.262060 462.941913 250.627119 462.941751 260.992177 462.940886 271.357236 462.936811 281.722295 462.919797 292.087353 462.856941 302.452412 462.651720 312.817471 462.060463 323.182529 460.560297 333.547588 457.217592 343.912647 450.702550 354.277705 439.662200 364.642764 423.552376 375.007823 403.653647 385.372881 383.556394 395.737940 368.383858 406.102999 362.748197 416.468057 368.499482 426.833116 383.750417 437.198175 403.870871 447.563233 423.744681 457.928292 439.804182 468.293351 450.792073 478.658409 457.266410 489.023468 460.583495 499.388527 462.070116 509.753585 462.655250 520.118644 462.858077 530.483703 462.920120 540.848761 462.936892 551.213820 462.940904 561.578879 462.941754 571.943937 462.941914 582.308996 462.941940 592.674055 462.941944 603.039113 462.941945 613.404172 462.941945 623.769231 462.941945" /></g><g class="series serie-11 color-11"><path class="line reactive nofill" d="M12.230769 462.941945 L22.595828 462.941945 32.960887 462.941945 43.325945 462.941945 53.691004 462.941945 64.056063 462.941945 74.421121 462.941945 84.786180 462.941945 95.151239 462.941945 105.516297 462.941945 115.881356 462.941945 126.246415 462.941945 136.611473 462.941945 146.976532 462.941945 157.341591 462.941944 167.706649 462.941941 178.071708 462.941925 188.436767 462.941851 198.801825 462.941535 209.166884 462.940299 219.531943 462.935849 229.897001 462.921135 240.262060 462.876471 250.627119 462.752087 260.992177 462.434550 271.357236 461.692207 281.722295 460.105022 292.087353 457.006789 302.452412 451.498085 312.817471 442.605792 323.182529 429.636068 333.547588 412.669640 343.912647 393.007271 354.277705 373.279176 364.642764 356.995211 375.007823 347.565052 385.372881 347.142643 395.737940 355.827293 406.102999 371.625782 416.468057 391.195189 426.833116 410.988696 437.198175 428.269937 447.563233 441.616352 457.928292 450.853259 468.293351 456.626370 478.658409 459.901042 489.023468 461.592522 499.388527 462.390059 509.753585 462.733924 520.118644 462.869681 530.483703 462.918809 540.848761 462.935118 551.213820 462.940088 561.578879 462.941480 571.943937 462.941837 582.308996 462.941922 592.674055 462.941940 603.039113 462.941944 613.404172 462.941945 623.769231 462.941945" /></g><g class="series serie-12 color-12"><path class="line reactive nofill" d="M12.230769 462.941945 L22.595828 462.941945 32.960887 462.941945 43.325945 462.941945 53.691004 462.941945 64.056063 462.941945 74.421121 462.941945 84.786180 462.941945 95.151239 462.941945 105.516297 462.941944 115.881356 462.941942 126.246415 462.941930 136.611473 462.941883 146.976532 462.941697 157.341591 462.941023 167.706649 462.938735 178.071708 462.931510 188.436767 462.910264 198.801825 462.852110 209.166884 462.704036 219.531943 462.353521 229.897001 461.582732 240.262060 460.009690 250.627119 457.034042 260.992177 451.825086 271.357236 443.405388 281.722295 430.876952 292.087353 413.791047 302.452412 392.578201 312.817471 368.864912 323.182529 345.469648 333.547588 325.947016 343.912647 313.734427 354.277705 311.169091 364.642764 318.758740 375.007823 335.017827 385.372881 356.941578 395.737940 380.910665 406.102999 403.653673 416.468057 422.922112 426.833116 437.713009 437.198175 448.088069 447.563233 454.774282 457.928292 458.747514 468.293351 460.930235 478.658409 462.040841 489.023468 462.564979 499.388527 462.794664 509.753585 462.888204 520.118644 462.923631 530.483703 462.936116 540.848761 462.940212 551.213820 462.941464 561.578879 462.941820 571.943937 462.941915 582.308996 462.941938 592.674055 462.941943 603.039113 462.941945 613.404172 462.941945 623.769231 462.941945" /></g><g class="series serie-13 color-13"><path class="line reactive nofill" d="M12.230769 462.919613 L22.595828 462.902270 32.960887 462.872878 43.325945 462.824131 53.691004 462.745024 64.056063 462.619425 74.421121 462.424348 84.786180 462.127998 95.151239 461.687734 105.516297 461.048231 115.881356 460.140203 126.246415 458.880212 136.611473 457.172099 146.976532 454.910630 157.341591 451.987793 167.706649 448.301964 178.071708 443.769749 188.436767 438.339808 198.801825 432.007421 209.166884 424.828022 219.531943 416.927573 229.897001 408.507604 240.262060 399.843006 250.627119 391.271389 260.992177 383.173871 271.357236 375.948393 281.722295 369.977978 292.087353 365.597348 302.452412 363.061912 312.817471 362.523122 323.182529 364.013496 333.547588 367.443369 343.912647 372.609823 354.277705 379.216560 364.642764 386.902014 375.007823 395.271988 385.372881 403.932747 395.737940 412.520749 406.102999 420.726031 416.468057 428.307449 426.833116 435.099256 437.198175 441.009699 447.563233 446.013204 457.928292 450.138235 468.293351 453.453029 478.658409 456.051187 489.023468 458.038661 499.388527 459.523121 509.753585 460.606143 520.118644 461.378204 530.483703 461.916143 540.848761 462.282571 551.213820 462.526638 561.578879 462.685628 571.943937 462.786937 582.308996 462.850090 592.674055 462.888609 603.039113 462.911599 613.404172 462.925026 623.769231 462.932702" /></g></g><g class="titles"><text class="title plot_title" x="400.0" y="26">Iteration #7</text><text class="title" x="462.0" y="580.0">Observation</text><text class="title" transform="rotate(-90 64.000000 282.009619)" x="64.0" y="308.0096189432334">Density</text></g><g class="plot overlay" transform="translate(144, 46)"><g class="series serie-0 color-0" /><g class="series serie-1 color-1" /><g class="series serie-2 color-2" /><g class="series serie-3 color-3" /><g class="series serie-4 color-4" /><g class="series serie-5 color-5" /><g class="series serie-6 color-6" /><g class="series serie-7 color-7" /><g class="series serie-8 color-8" /><g class="series serie-9 color-9" /><g class="series serie-10 color-10" /><g class="series serie-11 color-11" /><g class="series serie-12 color-12" /><g class="series serie-13 color-13" /></g><g class="plot text-overlay" transform="translate(144, 46)"><g class="series serie-0 color-0" /><g class="series serie-1 color-1" /><g class="series serie-2 color-2" /><g class="series serie-3 color-3" /><g class="series serie-4 color-4" /><g class="series serie-5 color-5" /><g class="series serie-6 color-6" /><g class="series serie-7 color-7" /><g class="series serie-8 color-8" /><g class="series serie-9 color-9" /><g class="series serie-10 color-10" /><g class="series serie-11 color-11" /><g class="series serie-12 color-12" /><g class="series serie-13 color-13" /></g><g class="plot tooltip-overlay" transform="translate(144, 46)"><g class="tooltip" style="opacity: 0" transform="translate(0 0)"><rect class="tooltip-box" height="0" rx="0" ry="0" width="0" /><g class="text" /></g></g><g class="legends" transform="translate(10, 56)"><g class="legend reactive activate-serie" id="activate-serie-0"><rect class="color-0 reactive" height="12" width="12" x="0.0" y="0.0" /><text x="17.0" y="9.0">Data</text></g><g class="legend reactive activate-serie" id="activate-serie-1"><rect class="color-1 reactive" height="12" width="12" x="0.0" y="18.0" /><text x="17.0" y="27.0">GMM</text></g><g class="legend reactive activate-serie" id="activate-serie-2"><rect class="color-2 reactive" height="12" width="12" x="0.0" y="36.0" /><text x="17.0" y="45.0">i=0</text></g><g class="legend reactive activate-serie" id="activate-serie-3"><rect class="color-3 reactive" height="12" width="12" x="0.0" y="54.0" /><text x="17.0" y="63.0">i=1</text></g><g class="legend reactive activate-serie" id="activate-serie-4"><rect class="color-4 reactive" height="12" width="12" x="0.0" y="72.0" /><text x="17.0" y="81.0">i=0 k=0</text></g><g class="legend reactive activate-serie" id="activate-serie-5"><rect class="color-5 reactive" height="12" width="12" x="0.0" y="90.0" /><text x="17.0" y="99.0">i=0 k=1</text></g><g class="legend reactive activate-serie" id="activate-serie-6"><rect class="color-6 reactive" height="12" width="12" x="0.0" y="108.0" /><text x="17.0" y="117.0">i=0 k=2</text></g><g class="legend reactive activate-serie" id="activate-serie-7"><rect class="color-7 reactive" height="12" width="12" x="0.0" y="126.0" /><text x="17.0" y="135.0">i=0 k=3</text></g><g class="legend reactive activate-serie" id="activate-serie-8"><rect class="color-8 reactive" height="12" width="12" x="0.0" y="144.0" /><text x="17.0" y="153.0">i=0 k=4</text></g><g class="legend reactive activate-serie" id="activate-serie-9"><rect class="color-9 reactive" height="12" width="12" x="0.0" y="162.0" /><text x="17.0" y="171.0">i=1 k=0</text></g><g class="legend reactive activate-serie" id="activate-serie-10"><rect class="color-10 reactive" height="12" width="12" x="0.0" y="180.0" /><text x="17.0" y="189.0">i=1 k=1</text></g><g class="legend reactive activate-serie" id="activate-serie-11"><rect class="color-11 reactive" height="12" width="12" x="0.0" y="198.0" /><text x="17.0" y="207.0">i=1 k=2</text></g><g class="legend reactive activate-serie" id="activate-serie-12"><rect class="color-12 reactive" height="12" width="12" x="0.0" y="216.0" /><text x="17.0" y="225.0">i=1 k=3</text></g><g class="legend reactive activate-serie" id="activate-serie-13"><rect class="color-13 reactive" height="12" width="12" x="0.0" y="234.0" /><text x="17.0" y="243.0">i=1 k=4</text></g></g><g class="legends" transform="translate(790, 56)" /></g></svg>