<?xml version='1.0' encoding='utf-8'?>
<svg xmlns:xlink="http://www.w3.org/1999/xlink" class="pygal-chart" id="chart-33c15cad-3983-4b87-abd6-004a7b87a3e2" viewBox="0 0 800 600" xmlns="http://www.w3.org/2000/svg"><!--Generated with pygal 2.4.0 (etree) ©Kozea 2012-2016 on 2018-01-18--><!--http://pygal.org--><!--http://github.com/Kozea/pygal--><defs><style type="text/css">#chart-33c15cad-3983-4b87-abd6-004a7b87a3e2{-webkit-user-select:none;-webkit-font-smoothing:antialiased;font-family:Consolas,"Liberation Mono",Menlo,Courier,monospace}#chart-33c15cad-3983-4b87-abd6-004a7b87a3e2 .title{font-family:Consolas,"Liberation Mono",Menlo,Courier,monospace;font-size:16px}#chart-33c15cad-3983-4b87-abd6-004a7b87a3e2 .legends .legend text{font-family:Consolas,"Liberation Mono",Menlo,Courier,monospace;font-size:10px}#chart-33c15cad-3983-4b87-abd6-004a7b87a3e2 .axis text{font-family:Consolas,"Liberation Mono",Menlo,Courier,monospace;font-size:10px}#chart-33c15cad-3983-4b87-abd6-004a7b87a3e2 .axis text.major{font-family:Consolas,"Liberation Mono",Menlo,Courier,monospace;font-size:10px}#chart-33c15cad-3983-4b87-abd6-004a7b87a3e2 .text-overlay text.value{font-family:Consolas,"Liberation Mono",Menlo,Courier,monospace;font-size:16px}#chart-33c15cad-3983-4b87-abd6-004a7b87a3e2 .text-overlay text.label{font-family:Consolas,"Liberation Mono",Menlo,Courier,monospace;font-size:10px}#chart-33c15cad-3983-4b87-abd6-004a7b87a3e2 .tooltip{font-family:Consolas,"Liberation Mono",Menlo,Courier,monospace;font-size:14px}#chart-33c15cad-3983-4b87-abd6-004a7b87a3e2 text.no_data{font-family:Consolas,"Liberation Mono",Menlo,Courier,monospace;font-size:64px}
#chart-33c15cad-3983-4b87-abd6-004a7b87a3e2{background-color:rgba(249,249,249,1)}#chart-33c15cad-3983-4b87-abd6-004a7b87a3e2 path,#chart-33c15cad-3983-4b87-abd6-004a7b87a3e2 line,#chart-33c15cad-3983-4b87-abd6-004a7b87a3e2 rect,#chart-33c15cad-3983-4b87-abd6-004a7b87a3e2 circle{-webkit-transition:150ms;-moz-transition:150ms;transition:150ms}#chart-33c15cad-3983-4b87-abd6-004a7b87a3e2 .graph &gt; .background{fill:rgba(249,249,249,1)}#chart-33c15cad-3983-4b87-abd6-004a7b87a3e2 .plot &gt; .background{fill:rgba(255,255,255,1)}#chart-33c15cad-3983-4b87-abd6-004a7b87a3e2 .graph{fill:rgba(0,0,0,.87)}#chart-33c15cad-3983-4b87-abd6-004a7b87a3e2 text.no_data{fill:rgba(0,0,0,1)}#chart-33c15cad-3983-4b87-abd6-004a7b87a3e2 .title{fill:rgba(0,0,0,1)}#chart-33c15cad-3983-4b87-abd6-004a7b87a3e2 .legends .legend text{fill:rgba(0,0,0,.87)}#chart-33c15cad-3983-4b87-abd6-004a7b87a3e2 .legends .legend:hover text{fill:rgba(0,0,0,1)}#chart-33c15cad-3983-4b87-abd6-004a7b87a3e2 .axis .line{stroke:rgba(0,0,0,1)}#chart-33c15cad-3983-4b87-abd6-004a7b87a3e2 .axis .guide.line{stroke:rgba(0,0,0,.54)}#chart-33c15cad-3983-4b87-abd6-004a7b87a3e2 .axis .major.line{stroke:rgba(0,0,0,.87)}#chart-33c15cad-3983-4b87-abd6-004a7b87a3e2 .axis text.major{fill:rgba(0,0,0,1)}#chart-33c15cad-3983-4b87-abd6-004a7b87a3e2 .axis.y .guides:hover .guide.line,#chart-33c15cad-3983-4b87-abd6-004a7b87a3e2 .line-graph .axis.x .guides:hover .guide.line,#chart-33c15cad-3983-4b87-abd6-004a7b87a3e2 .stackedline-graph .axis.x .guides:hover .guide.line,#chart-33c15cad-3983-4b87-abd6-004a7b87a3e2 .xy-graph .axis.x .guides:hover .guide.line{stroke:rgba(0,0,0,1)}#chart-33c15cad-3983-4b87-abd6-004a7b87a3e2 .axis .guides:hover text{fill:rgba(0,0,0,1)}#chart-33c15cad-3983-4b87-abd6-004a7b87a3e2 .reactive{fill-opacity:.7;stroke-opacity:.8}#chart-33c15cad-3983-4b87-abd6-004a7b87a3e2 .ci{stroke:rgba(0,0,0,.87)}#chart-33c15cad-3983-4b87-abd6-004a7b87a3e2 .reactive.active,#chart-33c15cad-3983-4b87-abd6-004a7b87a3e2 .active .reactive{fill-opacity:.8;stroke-opacity:.9;stroke-width:4}#chart-33c15cad-3983-4b87-abd6-004a7b87a3e2 .ci .reactive.active{stroke-width:1.5}#chart-33c15cad-3983-4b87-abd6-004a7b87a3e2 .series text{fill:rgba(0,0,0,1)}#chart-33c15cad-3983-4b87-abd6-004a7b87a3e2 .tooltip rect{fill:rgba(255,255,255,1);stroke:rgba(0,0,0,1);-webkit-transition:opacity 150ms;-moz-transition:opacity 150ms;transition:opacity 150ms}#chart-33c15cad-3983-4b87-abd6-004a7b87a3e2 .tooltip .label{fill:rgba(0,0,0,.87)}#chart-33c15cad-3983-4b87-abd6-004a7b87a3e2 .tooltip .label{fill:rgba(0,0,0,.87)}#chart-33c15cad-3983-4b87-abd6-004a7b87a3e2 .tooltip .legend{font-size:.8em;fill:rgba(0,0,0,.54)}#chart-33c15cad-3983-4b87-abd6-004a7b87a3e2 .tooltip .x_label{font-size:.6em;fill:rgba(0,0,0,1)}#chart-33c15cad-3983-4b87-abd6-004a7b87a3e2 .tooltip .xlink{font-size:.5em;text-decoration:underline}#chart-33c15cad-3983-4b87-abd6-004a7b87a3e2 .tooltip .value{font-size:1.5em}#chart-33c15cad-3983-4b87-abd6-004a7b87a3e2 .bound{font-size:.5em}#chart-33c15cad-3983-4b87-abd6-004a7b87a3e2 .max-value{font-size:.75em;fill:rgba(0,0,0,.54)}#chart-33c15cad-3983-4b87-abd6-004a7b87a3e2 .map-element{fill:rgba(255,255,255,1);stroke:rgba(0,0,0,.54) !important}#chart-33c15cad-3983-4b87-abd6-004a7b87a3e2 .map-element .reactive{fill-opacity:inherit;stroke-opacity:inherit}#chart-33c15cad-3983-4b87-abd6-004a7b87a3e2 .color-0,#chart-33c15cad-3983-4b87-abd6-004a7b87a3e2 .color-0 a:visited{stroke:#909090;fill:#909090}#chart-33c15cad-3983-4b87-abd6-004a7b87a3e2 .color-1,#chart-33c15cad-3983-4b87-abd6-004a7b87a3e2 .color-1 a:visited{stroke:#000000;fill:#000000}#chart-33c15cad-3983-4b87-abd6-004a7b87a3e2 .color-2,#chart-33c15cad-3983-4b87-abd6-004a7b87a3e2 .color-2 a:visited{stroke:#ff0500;fill:#ff0500}#chart-33c15cad-3983-4b87-abd6-004a7b87a3e2 .color-3,#chart-33c15cad-3983-4b87-abd6-004a7b87a3e2 .color-3 a:visited{stroke:#323299;fill:#323299}#chart-33c15cad-3983-4b87-abd6-004a7b87a3e2 .color-4,#chart-33c15cad-3983-4b87-abd6-004a7b87a3e2 .color-4 a:visited{stroke:#a3413f;fill:#a3413f}#chart-33c15cad-3983-4b87-abd6-004a7b87a3e2 .color-5,#chart-33c15cad-3983-4b87-abd6-004a7b87a3e2 .color-5 a:visited{stroke:#a3413f;fill:#a3413f}#chart-33c15cad-3983-4b87-abd6-004a7b87a3e2 .color-6,#chart-33c15cad-3983-4b87-abd6-004a7b87a3e2 .color-6 a:visited{stroke:#a3413f;fill:#a3413f}#chart-33c15cad-3983-4b87-abd6-004a7b87a3e2 .color-7,#chart-33c15cad-3983-4b87-abd6-004a7b87a3e2 .color-7 a:visited{stroke:#a3413f;fill:#a3413f}#chart-33c15cad-3983-4b87-abd6-004a7b87a3e2 .color-8,#chart-33c15cad-3983-4b87-abd6-004a7b87a3e2 .color-8 a:visited{stroke:#a3413f;fill:#a3413f}#chart-33c15cad-3983-4b87-abd6-004a7b87a3e2 .color-9,#chart-33c15cad-3983-4b87-abd6-004a7b87a3e2 .color-9 a:visited{stroke:#657fff;fill:#657fff}#chart-33c15cad-3983-4b87-abd6-004a7b87a3e2 .color-10,#chart-33c15cad-3983-4b87-abd6-004a7b87a3e2 .color-10 a:visited{stroke:#657fff;fill:#657fff}#chart-33c15cad-3983-4b87-abd6-004a7b87a3e2 .color-11,#chart-33c15cad-3983-4b87-abd6-004a7b87a3e2 .color-11 a:visited{stroke:#657fff;fill:#657fff}#chart-33c15cad-3983-4b87-abd6-004a7b87a3e2 .color-12,#chart-33c15cad-3983-4b87-abd6-004a7b87a3e2 .color-12 a:visited{stroke:#657fff;fill:#657fff}#chart-33c15cad-3983-4b87-abd6-004a7b87a3e2 .color-13,#chart-33c15cad-3983-4b87-abd6-004a7b87a3e2 .color-13 a:visited{stroke:#657fff;fill:#657fff}#chart-33c15cad-3983-4b87-abd6-004a7b87a3e2 .text-overlay .color-0 text{fill:black}#chart-33c15cad-3983-4b87-abd6-004a7b87a3e2 .text-overlay .color-1 text{fill:white}#chart-33c15cad-3983-4b87-abd6-004a7b87a3e2 .text-overlay .color-2 text{fill:black}#chart-33c15cad-3983-4b87-abd6-004a7b87a3e2 .text-overlay .color-3 text{fill:black}#chart-33c15cad-3983-4b87-abd6-004a7b87a3e2 .text-overlay .color-4 text{fill:black}#chart-33c15cad-3983-4b87-abd6-004a7b87a3e2 .text-overlay .color-5 text{fill:black}#chart-33c15cad-3983-4b87-abd6-004a7b87a3e2 .text-overlay .color-6 text{fill:black}#chart-33c15cad-3983-4b87-abd6-004a7b87a3e2 .text-overlay .color-7 text{fill:black}#chart-33c15cad-3983-4b87-abd6-004a7b87a3e2 .text-overlay .color-8 text{fill:black}#chart-33c15cad-3983-4b87-abd6-004a7b87a3e2 .text-overlay .color-9 text{fill:black}#chart-33c15cad-3983-4b87-abd6-004a7b87a3e2 .text-overlay .color-10 text{fill:black}#chart-33c15cad-3983-4b87-abd6-004a7b87a3e2 .text-overlay .color-11 text{fill:black}#chart-33c15cad-3983-4b87-abd6-004a7b87a3e2 .text-overlay .color-12 text{fill:black}#chart-33c15cad-3983-4b87-abd6-004a7b87a3e2 .text-overlay .color-13 text{fill:black}#chart-33c15cad-3983-4b87-abd6-004a7b87a3e2 .series.serie-1{stroke-width:5}#chart-33c15cad-3983-4b87-abd6-004a7b87a3e2 .series.serie-2{stroke-width:3}#chart-33c15cad-3983-4b87-abd6-004a7b87a3e2 .series.serie-3{stroke-width:3}#chart-33c15cad-3983-4b87-abd6-004a7b87a3e2 .series.serie-4{stroke-width:2;stroke-dasharray:2,2}#chart-33c15cad-3983-4b87-abd6-004a7b87a3e2 .series.serie-5{stroke-width:2;stroke-dasharray:2,2}#chart-33c15cad-3983-4b87-abd6-004a7b87a3e2 .series.serie-6{stroke-width:2;stroke-dasharray:2,2}#chart-33c15cad-3983-4b87-abd6-004a7b87a3e2 .series.serie-7{stroke-width:2;stroke-dasharray:2,2}#chart-33c15cad-3983-4b87-abd6-004a7b87a3e2 .series.serie-8{stroke-width:2;stroke-dasharray:2,2}#chart-33c15cad-3983-4b87-abd6-004a7b87a3e2 .series.serie-9{stroke-width:2;stroke-dasharray:2,2}#chart-33c15cad-3983-4b87-abd6-004a7b87a3e2 .series.serie-10{stroke-width:2;stroke-dasharray:2,2}#chart-33c15cad-3983-4b87-abd6-004a7b87a3e2 .series.serie-11{stroke-width:2;stroke-dasharray:2,2}#chart-33c15cad-3983-4b87-abd6-004a7b87a3e2 .series.serie-12{stroke-width:2;stroke-dasharray:2,2}#chart-33c15cad-3983-4b87-abd6-004a7b87a3e2 .series.serie-13{stroke-width:2;stroke-dasharray:2,2}
#chart-33c15cad-3983-4b87-abd6-004a7b87a3e2 text.no_data{text-anchor:middle}#chart-33c15cad-3983-4b87-abd6-004a7b87a3e2 .guide.line{fill:none}#chart-33c15cad-3983-4b87-abd6-004a7b87a3e2 .centered{text-anchor:middle}#chart-33c15cad-3983-4b87-abd6-004a7b87a3e2 .title{text-anchor:middle}#chart-33c15cad-3983-4b87-abd6-004a7b87a3e2 .legends .legend text{fill-opacity:1}#chart-33c15cad-3983-4b87-abd6-004a7b87a3e2 .axis.x text{text-anchor:middle}#chart-33c15cad-3983-4b87-abd6-004a7b87a3e2 .axis.x:not(.web) text[transform]{text-anchor:start}#chart-33c15cad-3983-4b87-abd6-004a7b87a3e2 .axis.x:not(.web) text[transform].backwards{text-anchor:end}#chart-33c15cad-3983-4b87-abd6-004a7b87a3e2 .axis.y text{text-anchor:end}#chart-33c15cad-3983-4b87-abd6-004a7b87a3e2 .axis.y text[transform].backwards{text-anchor:start}#chart-33c15cad-3983-4b87-abd6-004a7b87a3e2 .axis.y2 text{text-anchor:start}#chart-33c15cad-3983-4b87-abd6-004a7b87a3e2 .axis.y2 text[transform].backwards{text-anchor:end}#chart-33c15cad-3983-4b87-abd6-004a7b87a3e2 .axis .guide.line{stroke-dasharray:4,4}#chart-33c15cad-3983-4b87-abd6-004a7b87a3e2 .axis .major.guide.line{stroke-dasharray:6,6}#chart-33c15cad-3983-4b87-abd6-004a7b87a3e2 .horizontal .axis.y .guide.line,#chart-33c15cad-3983-4b87-abd6-004a7b87a3e2 .horizontal .axis.y2 .guide.line,#chart-33c15cad-3983-4b87-abd6-004a7b87a3e2 .vertical .axis.x .guide.line{opacity:0}#chart-33c15cad-3983-4b87-abd6-004a7b87a3e2 .horizontal .axis.always_show .guide.line,#chart-33c15cad-3983-4b87-abd6-004a7b87a3e2 .vertical .axis.always_show .guide.line{opacity:1 !important}#chart-33c15cad-3983-4b87-abd6-004a7b87a3e2 .axis.y .guides:hover .guide.line,#chart-33c15cad-3983-4b87-abd6-004a7b87a3e2 .axis.y2 .guides:hover .guide.line,#chart-33c15cad-3983-4b87-abd6-004a7b87a3e2 .axis.x .guides:hover .guide.line{opacity:1}#chart-33c15cad-3983-4b87-abd6-004a7b87a3e2 .axis .guides:hover text{opacity:1}#chart-33c15cad-3983-4b87-abd6-004a7b87a3e2 .nofill{fill:none}#chart-33c15cad-3983-4b87-abd6-004a7b87a3e2 .subtle-fill{fill-opacity:.2}#chart-33c15cad-3983-4b87-abd6-004a7b87a3e2 .dot{stroke-width:1px;fill-opacity:1}#chart-33c15cad-3983-4b87-abd6-004a7b87a3e2 .dot.active{stroke-width:5px}#chart-33c15cad-3983-4b87-abd6-004a7b87a3e2 .dot.negative{fill:transparent}#chart-33c15cad-3983-4b87-abd6-004a7b87a3e2 text,#chart-33c15cad-3983-4b87-abd6-004a7b87a3e2 tspan{stroke:none !important}#chart-33c15cad-3983-4b87-abd6-004a7b87a3e2 .series text.active{opacity:1}#chart-33c15cad-3983-4b87-abd6-004a7b87a3e2 .tooltip rect{fill-opacity:.95;stroke-width:.5}#chart-33c15cad-3983-4b87-abd6-004a7b87a3e2 .tooltip text{fill-opacity:1}#chart-33c15cad-3983-4b87-abd6-004a7b87a3e2 .showable{visibility:hidden}#chart-33c15cad-3983-4b87-abd6-004a7b87a3e2 .showable.shown{visibility:visible}#chart-33c15cad-3983-4b87-abd6-004a7b87a3e2 .gauge-background{fill:rgba(229,229,229,1);stroke:none}#chart-33c15cad-3983-4b87-abd6-004a7b87a3e2 .bg-lines{stroke:rgba(249,249,249,1);stroke-width:2px}</style><script type="text/javascript">window.pygal = window.pygal || {};window.pygal.config = window.pygal.config || {};window.pygal.config['33c15cad-3983-4b87-abd6-004a7b87a3e2'] = {"allow_interruptions": false, "x_label_rotation": 60, "y_title": "Density", "stack_from_top": false, "stroke": true, "include_x_axis": false, "defs": [], "truncate_label": null, "legend_at_bottom_columns": null, "show_minor_y_labels": true, "show_x_labels": true, "tooltip_fancy_mode": true, "show_legend": true, "print_labels": false, "disable_xml_declaration": false, "secondary_range": null, "x_labels": ["-8.96", "-8.76", "-8.56", "-8.36", "-8.16", "-7.96", "-7.76", "-7.56", "-7.36", "-7.16", "-6.96", "-6.76", "-6.56", "-6.36", "-6.16", "-5.96", "-5.76", "-5.56", "-5.36", "-5.16", "-4.96", "-4.76", "-4.56", "-4.36", "-4.16", "-3.96", "-3.76", "-3.56", "-3.36", "-3.16", "-2.96", "-2.76", "-2.56", "-2.36", "-2.16", "-1.96", "-1.76", "-1.56", "-1.36", "-1.16", "-0.96", "-0.76", "-0.56", "-0.36", "-0.16", "0.04", "0.24", "0.44", "0.64", "0.84", "1.04", "1.24", "1.43", "1.63", "1.83", "2.03", "2.23", "2.43", "2.63", "2.83"], "interpolation_precision": 250, "force_uri_protocol": "https", "classes": ["pygal-chart"], "css": ["file://style.css", "file://graph.css"], "margin": 20, "style": {"opacity_hover": ".8", "foreground": "rgba(0, 0, 0, .87)", "foreground_subtle": "rgba(0, 0, 0, .54)", "value_colors": [], "legend_font_family": "Consolas, \"Liberation Mono\", Menlo, Courier, monospace", "tooltip_font_family": "Consolas, \"Liberation Mono\", Menlo, Courier, monospace", "stroke_opacity_hover": ".9", "no_data_font_size": 64, "guide_stroke_dasharray": "4,4", "title_font_family": "Consolas, \"Liberation Mono\", Menlo, Courier, monospace", "label_font_family": "Consolas, \"Liberation Mono\", Menlo, Courier, monospace", "ci_colors": [], "background": "rgba(249, 249, 249, 1)", "colors": ["#909090", "#000000", "#ff0500", "#323299", "#a3413f", "#a3413f", "#a3413f", "#a3413f", "#a3413f", "#657fff", "#657fff", "#657fff", "#657fff", "#657fff"], "value_font_family": "Consolas, \"Liberation Mono\", Menlo, Courier, monospace", "font_family": "Consolas, \"Liberation Mono\", Menlo, Courier, monospace", "value_background": "rgba(229, 229, 229, 1)", "stroke_opacity": ".8", "title_font_size": 16, "no_data_font_family": "Consolas, \"Liberation Mono\", Menlo, Courier, monospace", "label_font_size": 10, "major_guide_stroke_dasharray": "6,6", "major_label_font_size": 10, "transition": "150ms", "opacity": ".7", "legend_font_size": 10, "value_label_font_family": "Consolas, \"Liberation Mono\", Menlo, Courier, monospace", "major_label_font_family": "Consolas, \"Liberation Mono\", Menlo, Courier, monospace", "plot_background": "rgba(255, 255, 255, 1)", "value_label_font_size": 10, "foreground_strong": "rgba(0, 0, 0, 1)", "tooltip_font_size": 14, "value_font_size": 16}, "order_min": null, "interpolation_parameters": {}, "show_dots": false, "y_labels_major": null, "box_mode": "extremes", "fill": false, "show_minor_x_labels": false, "js": ["//kozea.github.io/pygal.js/2.0.x/pygal-tooltips.min.js"], "explicit_size": false, "formatter": null, "x_labels_major": null, "legends": ["Data", "GMM", "i=0", "i=1", "i=0 k=0", "i=0 k=1", "i=0 k=2", "i=0 k=3", "i=0 k=4", "i=1 k=0", "i=1 k=1", "i=1 k=2", "i=1 k=3", "i=1 k=4"], "zero": 0, "strict": false, "print_values": false, "margin_bottom": null, "dynamic_print_values": false, "print_zeroes": true, "logarithmic": false, "x_labels_major_count": null, "margin_left": null, "legend_box_size": 12, "max_scale": 16, "dots_size": 2.5, "show_y_guides": true, "truncate_legend": null, "interpolate": null, "y_labels_major_every": null, "legend_at_bottom": false, "inner_radius": 0, "tooltip_border_radius": 0, "show_x_guides": false, "x_labels_major_every": 2, "show_y_labels": true, "pretty_print": false, "rounded_bars": null, "missing_value_fill_truncation": "x", "y_label_rotation": 0, "height": 600, "show_only_major_dots": false, "spacing": 10, "inverse_y_axis": false, "xrange": null, "margin_right": null, "no_prefix": false, "range": [0, 0.27578580090479526], "margin_top": null, "no_data_text": "No data", "y_labels_major_count": null, "half_pie": false, "width": 800, "title": "Iteration #18", "stroke_style": null, "y_labels": null, "print_values_position": "center", "x_title": "Observation", "min_scale": 4}</script><script type="text/javascript" xlink:href="https://kozea.github.io/pygal.js/2.0.x/pygal-tooltips.min.js" /></defs><title>Iteration #18</title><g class="graph line-graph vertical"><rect class="background" height="600" width="800" x="0" y="0" /><g class="plot" transform="translate(144, 46)"><rect class="background" height="472.01923788646684" width="636.0" x="0" y="0" /><g class="axis y always_show"><g class="guides"><path class="axis major line" d="M0.000000 462.941945 h636.000000" /><text class="major" x="-5" y="466.44194485">0</text><title>0</title></g><g class="guides"><path class="guide line" d="M0.000000 430.027658 h636.000000" /><text class="" x="-5" y="433.527657724">0.02</text><title>0.02</title></g><g class="guides"><path class="guide line" d="M0.000000 397.113371 h636.000000" /><text class="" x="-5" y="400.613370598">0.04</text><title>0.04</title></g><g class="guides"><path class="guide line" d="M0.000000 364.199083 h636.000000" /><text class="" x="-5" y="367.699083472">0.06</text><title>0.06</title></g><g class="guides"><path class="guide line" d="M0.000000 331.284796 h636.000000" /><text class="" x="-5" y="334.784796346">0.08</text><title>0.08</title></g><g class="guides"><path class="guide line" d="M0.000000 298.370509 h636.000000" /><text class="" x="-5" y="301.87050922">0.1</text><title>0.1</title></g><g class="guides"><path class="guide line" d="M0.000000 265.456222 h636.000000" /><text class="" x="-5" y="268.956222094">0.12</text><title>0.12</title></g><g class="guides"><path class="guide line" d="M0.000000 232.541935 h636.000000" /><text class="" x="-5" y="236.041934968">0.14</text><title>0.14</title></g><g class="guides"><path class="guide line" d="M0.000000 199.627648 h636.000000" /><text class="" x="-5" y="203.127647841">0.16</text><title>0.16</title></g><g class="guides"><path class="guide line" d="M0.000000 166.713361 h636.000000" /><text class="" x="-5" y="170.213360715">0.18</text><title>0.18</title></g><g class="guides"><path class="guide line" d="M0.000000 133.799074 h636.000000" /><text class="" x="-5" y="137.299073589">0.2</text><title>0.2</title></g><g class="guides"><path class="guide line" d="M0.000000 100.884786 h636.000000" /><text class="" x="-5" y="104.384786463">0.22</text><title>0.22</title></g><g class="guides"><path class="guide line" d="M0.000000 67.970499 h636.000000" /><text class="" x="-5" y="71.4704993371">0.24</text><title>0.24</title></g><g class="guides"><path class="guide line" d="M0.000000 35.056212 h636.000000" /><text class="" x="-5" y="38.5562122111">0.26</text><title>0.26</title></g></g><g class="axis x"><g class="guides"><path class="major line" d="M12.230769 0.000000 v472.019238" /><text class="major" transform="rotate(60 12.230769 487.019238)" x="12.230769230769232" y="487.01923788646684">-8.96</text></g><g class="guides"><path class="major guide line" d="M32.960887 0.000000 v472.019238" /><text class="major" transform="rotate(60 32.960887 487.019238)" x="32.96088657105606" y="487.01923788646684">-8.56</text></g><g class="guides"><path class="major guide line" d="M53.691004 0.000000 v472.019238" /><text class="major" transform="rotate(60 53.691004 487.019238)" x="53.6910039113429" y="487.01923788646684">-8.16</text></g><g class="guides"><path class="major guide line" d="M74.421121 0.000000 v472.019238" /><text class="major" transform="rotate(60 74.421121 487.019238)" x="74.42112125162973" y="487.01923788646684">-7.76</text></g><g class="guides"><path class="major guide line" d="M95.151239 0.000000 v472.019238" /><text class="major" transform="rotate(60 95.151239 487.019238)" x="95.15123859191655" y="487.01923788646684">-7.36</text></g><g class="guides"><path class="major guide line" d="M115.881356 0.000000 v472.019238" /><text class="major" transform="rotate(60 115.881356 487.019238)" x="115.88135593220338" y="487.01923788646684">-6.96</text></g><g class="guides"><path class="major guide line" d="M136.611473 0.000000 v472.019238" /><text class="major" transform="rotate(60 136.611473 487.019238)" x="136.61147327249023" y="487.01923788646684">-6.56</text></g><g class="guides"><path class="major guide line" d="M157.341591 0.000000 v472.019238" /><text class="major" transform="rotate(60 157.341591 487.019238)" x="157.34159061277705" y="487.01923788646684">-6.16</text></g><g class="guides"><path class="major guide line" d="M178.071708 0.000000 v472.019238" /><text class="major" transform="rotate(60 178.071708 487.019238)" x="178.0717079530639" y="487.01923788646684">-5.76</text></g><g class="guides"><path class="major guide line" d="M198.801825 0.000000 v472.019238" /><text class="major" transform="rotate(60 198.801825 487.019238)" x="198.80182529335073" y="487.01923788646684">-5.36</text></g><g class="guides"><path class="major guide line" d="M219.531943 0.000000 v472.019238" /><text class="major" transform="rotate(60 219.531943 487.019238)" x="219.53194263363756" y="487.01923788646684">-4.96</text></g><g class="guides"><path class="major guide line" d="M240.262060 0.000000 v472.019238" /><text class="major" transform="rotate(60 240.262060 487.019238)" x="240.2620599739244" y="487.01923788646684">-4.56</text></g><g class="guides"><path class="major guide line" d="M260.992177 0.000000 v472.019238" /><text class="major" transform="rotate(60 260.992177 487.019238)" x="260.99217731421123" y="487.01923788646684">-4.16</text></g><g class="guides"><path class="major guide line" d="M281.722295 0.000000 v472.019238" /><text class="major" transform="rotate(60 281.722295 487.019238)" x="281.722294654498" y="487.01923788646684">-3.76</text></g><g class="guides"><path class="major guide line" d="M302.452412 0.000000 v472.019238" /><text class="major" transform="rotate(60 302.452412 487.019238)" x="302.4524119947849" y="487.01923788646684">-3.36</text></g><g class="guides"><path class="major guide line" d="M323.182529 0.000000 v472.019238" /><text class="major" transform="rotate(60 323.182529 487.019238)" x="323.1825293350717" y="487.01923788646684">-2.96</text></g><g class="guides"><path class="major guide line" d="M343.912647 0.000000 v472.019238" /><text class="major" transform="rotate(60 343.912647 487.019238)" x="343.91264667535853" y="487.01923788646684">-2.56</text></g><g class="guides"><path class="major guide line" d="M364.642764 0.000000 v472.019238" /><text class="major" transform="rotate(60 364.642764 487.019238)" x="364.64276401564535" y="487.01923788646684">-2.16</text></g><g class="guides"><path class="major guide line" d="M385.372881 0.000000 v472.019238" /><text class="major" transform="rotate(60 385.372881 487.019238)" x="385.37288135593224" y="487.01923788646684">-1.76</text></g><g class="guides"><path class="major guide line" d="M406.102999 0.000000 v472.019238" /><text class="major" transform="rotate(60 406.102999 487.019238)" x="406.102998696219" y="487.01923788646684">-1.36</text></g><g class="guides"><path class="major guide line" d="M426.833116 0.000000 v472.019238" /><text class="major" transform="rotate(60 426.833116 487.019238)" x="426.8331160365058" y="487.01923788646684">-0.96</text></g><g class="guides"><path class="major guide line" d="M447.563233 0.000000 v472.019238" /><text class="major" transform="rotate(60 447.563233 487.019238)" x="447.56323337679265" y="487.01923788646684">-0.56</text></g><g class="guides"><path class="major guide line" d="M468.293351 0.000000 v472.019238" /><text class="major" transform="rotate(60 468.293351 487.019238)" x="468.29335071707953" y="487.01923788646684">-0.16</text></g><g class="guides"><path class="major guide line" d="M489.023468 0.000000 v472.019238" /><text class="major" transform="rotate(60 489.023468 487.019238)" x="489.02346805736636" y="487.01923788646684">0.24</text></g><g class="guides"><path class="major guide line" d="M509.753585 0.000000 v472.019238" /><text class="major" transform="rotate(60 509.753585 487.019238)" x="509.75358539765324" y="487.01923788646684">0.64</text></g><g class="guides"><path class="major guide line" d="M530.483703 0.000000 v472.019238" /><text class="major" transform="rotate(60 530.483703 487.019238)" x="530.48370273794" y="487.01923788646684">1.04</text></g><g class="guides"><path class="major guide line" d="M551.213820 0.000000 v472.019238" /><text class="major" transform="rotate(60 551.213820 487.019238)" x="551.213820078227" y="487.01923788646684">1.43</text></g><g class="guides"><path class="major guide line" d="M571.943937 0.000000 v472.019238" /><text class="major" transform="rotate(60 571.943937 487.019238)" x="571.9439374185138" y="487.01923788646684">1.83</text></g><g class="guides"><path class="major guide line" d="M592.674055 0.000000 v472.019238" /><text class="major" transform="rotate(60 592.674055 487.019238)" x="592.6740547588006" y="487.01923788646684">2.23</text></g><g class="guides"><path class="major guide line" d="M613.404172 0.000000 v472.019238" /><text class="major" transform="rotate(60 613.404172 487.019238)" x="613.4041720990874" y="487.01923788646684">2.63</text></g></g><g class="series serie-0 color-0"><path class="line reactive" d="M12.230769 462.941945 L12.230769 462.019456 22.595828 462.941945 32.960887 461.096967 43.325945 462.019456 53.691004 459.251988 64.056063 462.019456 74.421121 458.329499 84.786180 462.019456 95.151239 458.329499 105.516297 462.019456 115.881356 448.182119 126.246415 460.174477 136.611473 457.407010 146.976532 457.407010 157.341591 451.872075 167.706649 448.182119 178.071708 454.639543 188.436767 445.414651 198.801825 442.647184 209.166884 436.189760 219.531943 437.112249 229.897001 392.832771 240.262060 396.522728 250.627119 376.227967 260.992177 355.933206 271.357236 351.320760 281.722295 325.491065 292.087353 277.521630 302.452412 283.056565 312.817471 202.800010 323.182529 188.040184 333.547588 169.590402 343.912647 123.465945 354.277705 95.791271 364.642764 67.194108 375.007823 82.876423 385.372881 60.736684 395.737940 80.108956 406.102999 29.372054 416.468057 9.077293 426.833116 70.884065 437.198175 69.039086 447.563233 41.364413 457.928292 40.441923 468.293351 91.178826 478.658409 140.993239 489.023468 214.792369 499.388527 259.071847 509.753585 321.801108 520.118644 364.235608 530.483703 408.515086 540.848761 430.654825 551.213820 448.182119 561.578879 455.562032 571.943937 458.329499 582.308996 458.329499 592.674055 462.019456 603.039113 462.941945 613.404172 462.019456 623.769231 462.941945" /></g><g class="series serie-1 color-1"><path class="line reactive nofill" d="M12.230769 462.898599 L22.595828 462.868670 32.960887 462.820406 43.325945 462.744145 53.691004 462.626092 64.056063 462.447072 74.421121 462.181178 84.786180 461.794429 95.151239 461.243642 105.516297 460.475785 115.881356 459.428145 126.246415 458.029665 136.611473 456.203777 146.976532 453.872954 157.341591 450.964895 167.706649 447.419786 178.071708 443.197168 188.436767 438.279491 198.801825 432.667340 209.166884 426.359190 219.531943 419.307858 229.897001 411.350060 240.262060 402.117888 250.627119 390.962311 260.992177 376.941241 271.357236 358.931831 281.722295 335.901081 292.087353 307.308345 302.452412 273.538617 312.817471 236.203432 323.182529 198.112183 333.547588 162.744149 343.912647 133.232541 354.277705 111.213045 364.642764 96.087894 375.007823 85.146721 385.372881 75.098921 395.737940 65.165328 406.102999 58.600388 416.468057 58.066224 426.833116 59.316647 437.198175 54.744177 447.563233 44.815566 457.928292 41.442293 468.293351 58.525357 478.658409 101.331842 489.023468 164.143615 499.388527 234.958661 509.753585 301.785451 520.118644 356.780421 530.483703 397.247628 540.848761 424.377354 551.213820 441.226238 561.578879 451.077444 571.943937 456.586671 582.308996 459.577520 592.674055 461.173237 603.039113 462.017201 613.404172 462.461646 623.769231 462.694833" /></g><g class="series serie-2 color-2"><path class="line reactive nofill" d="M12.230769 462.941945 L22.595828 462.941945 32.960887 462.941945 43.325945 462.941945 53.691004 462.941945 64.056063 462.941945 74.421121 462.941945 84.786180 462.941945 95.151239 462.941945 105.516297 462.941945 115.881356 462.941945 126.246415 462.941945 136.611473 462.941945 146.976532 462.941945 157.341591 462.941945 167.706649 462.941945 178.071708 462.941945 188.436767 462.941945 198.801825 462.941944 209.166884 462.941942 219.531943 462.941937 229.897001 462.941920 240.262060 462.941871 250.627119 462.941732 260.992177 462.941341 271.357236 462.940266 281.722295 462.937345 292.087353 462.929491 302.452412 462.908553 312.817471 462.853280 323.182529 462.709506 333.547588 462.344403 343.912647 461.450314 354.277705 459.367565 364.642764 454.813802 375.007823 445.581737 385.372881 428.412815 395.737940 399.410273 406.102999 355.342816 416.468057 295.796731 426.833116 225.369380 437.198175 154.429553 447.563233 97.157549 457.928292 66.964123 468.293351 71.254670 478.658409 108.373425 489.023468 168.488858 499.388527 237.816089 509.753585 303.705431 520.118644 358.068764 530.483703 398.102095 540.848761 424.935039 551.213820 441.583783 561.578879 451.302457 571.943937 456.725634 582.308996 459.661731 592.674055 461.223309 603.039113 462.046413 613.404172 462.478368 623.769231 462.704225" /></g><g class="series serie-3 color-3"><path class="line reactive nofill" d="M12.230769 462.898599 L22.595828 462.868670 32.960887 462.820406 43.325945 462.744145 53.691004 462.626092 64.056063 462.447072 74.421121 462.181178 84.786180 461.794429 95.151239 461.243642 105.516297 460.475785 115.881356 459.428145 126.246415 458.029665 136.611473 456.203777 146.976532 453.872954 157.341591 450.964895 167.706649 447.419786 178.071708 443.197168 188.436767 438.279491 198.801825 432.667341 209.166884 426.359192 219.531943 419.307866 229.897001 411.350084 240.262060 402.117962 250.627119 390.962525 260.992177 376.941844 271.357236 358.933510 281.722295 335.905680 292.087353 307.320799 302.452412 273.572009 312.817471 236.292097 323.182529 198.344622 333.547588 163.341691 343.912647 134.724171 354.277705 114.787424 364.642764 104.216037 375.007823 102.506928 385.372881 109.628050 395.737940 128.697000 406.102999 166.199518 416.468057 225.211438 426.833116 296.889212 437.198175 363.256569 447.563233 410.599962 457.928292 437.420114 468.293351 450.212632 478.658409 455.900362 489.023468 458.596702 499.388527 460.084517 509.753585 461.021965 520.118644 461.653602 530.483703 462.087478 540.848761 462.384260 551.213820 462.584400 561.578879 462.716931 571.943937 462.802981 582.308996 462.857734 592.674055 462.891873 603.039113 462.912733 613.404172 462.925223 623.769231 462.932553" /></g><g class="series serie-4 color-4"><path class="line reactive nofill" d="M12.230769 462.941945 L22.595828 462.941945 32.960887 462.941945 43.325945 462.941945 53.691004 462.941945 64.056063 462.941945 74.421121 462.941945 84.786180 462.941945 95.151239 462.941945 105.516297 462.941945 115.881356 462.941945 126.246415 462.941945 136.611473 462.941945 146.976532 462.941945 157.341591 462.941945 167.706649 462.941945 178.071708 462.941945 188.436767 462.941945 198.801825 462.941945 209.166884 462.941945 219.531943 462.941945 229.897001 462.941945 240.262060 462.941945 250.627119 462.941945 260.992177 462.941943 271.357236 462.941931 281.722295 462.941863 292.087353 462.941503 302.452412 462.939778 312.817471 462.932343 323.182529 462.903515 333.547588 462.802973 343.912647 462.487897 354.277705 461.601658 364.642764 459.367454 375.007823 454.329020 385.372881 444.191683 395.737940 426.062514 406.102999 397.405744 416.468057 357.721894 426.833116 310.313339 437.198175 262.912672 447.563233 226.093048 457.928292 209.563677 468.293351 218.042642 478.658409 249.083737 489.023468 294.214983 499.388527 342.670303 509.753585 385.484676 520.118644 417.872593 530.483703 439.248914 540.848761 451.688639 551.213820 458.112916 561.578879 461.069713 571.943937 462.286132 582.308996 462.734396 592.674055 462.882600 603.039113 462.926614 613.404172 462.938367 623.769231 462.941190" /></g><g class="series serie-5 color-5"><path class="line reactive nofill" d="M12.230769 462.941945 L22.595828 462.941945 32.960887 462.941945 43.325945 462.941945 53.691004 462.941945 64.056063 462.941945 74.421121 462.941945 84.786180 462.941945 95.151239 462.941945 105.516297 462.941945 115.881356 462.941945 126.246415 462.941945 136.611473 462.941945 146.976532 462.941945 157.341591 462.941945 167.706649 462.941945 178.071708 462.941945 188.436767 462.941945 198.801825 462.941945 209.166884 462.941945 219.531943 462.941945 229.897001 462.941945 240.262060 462.941944 250.627119 462.941940 260.992177 462.941919 271.357236 462.941830 281.722295 462.941467 292.087353 462.940108 302.452412 462.935419 312.817471 462.920500 323.182529 462.876760 333.547588 462.758681 343.912647 462.465384 354.277705 461.795727 364.642764 460.392031 375.007823 457.695165 385.372881 452.956462 395.737940 445.364557 406.102999 434.323330 416.468057 419.844464 426.833116 402.912522 437.198175 385.605279 447.563233 370.787619 457.928292 361.374387 468.293351 359.403104 478.658409 365.317049 489.023468 377.803273 499.388527 394.266392 509.753585 411.704619 520.118644 427.584591 530.483703 440.374518 540.848761 449.619211 551.213820 455.667269 561.578879 459.267913 571.943937 461.225692 582.308996 462.200415 592.674055 462.645609 603.039113 462.832411 613.404172 462.904497 623.769231 462.930103" /></g><g class="series serie-6 color-6"><path class="line reactive nofill" d="M12.230769 462.941945 L22.595828 462.941945 32.960887 462.941945 43.325945 462.941945 53.691004 462.941945 64.056063 462.941945 74.421121 462.941945 84.786180 462.941945 95.151239 462.941945 105.516297 462.941945 115.881356 462.941945 126.246415 462.941945 136.611473 462.941945 146.976532 462.941945 157.341591 462.941945 167.706649 462.941945 178.071708 462.941945 188.436767 462.941945 198.801825 462.941945 209.166884 462.941945 219.531943 462.941944 229.897001 462.941942 240.262060 462.941934 250.627119 462.941904 260.992177 462.941802 271.357236 462.941475 281.722295 462.940489 292.087353 462.937696 302.452412 462.930269 312.817471 462.911740 323.182529 462.868385 333.547588 462.773304 343.912647 462.577980 354.277705 462.202468 364.642764 461.527585 375.007823 460.395317 385.372881 458.625354 395.737940 456.054051 406.102999 452.595243 416.468057 448.310490 426.833116 443.464001 437.198175 438.531890 447.563233 434.143805 457.928292 430.958139 468.293351 429.501973 478.658409 430.028625 489.023468 432.445619 499.388527 436.341226 509.753585 441.099096 520.118644 446.057172 530.483703 450.654794 540.848761 454.524559 551.213820 457.513527 561.578879 459.646308 571.943937 461.058402 582.308996 461.928543 592.674055 462.428661 603.039113 462.697205 613.404172 462.832090 623.769231 462.895525" /></g><g class="series serie-7 color-7"><path class="line reactive nofill" d="M12.230769 462.941945 L22.595828 462.941945 32.960887 462.941945 43.325945 462.941945 53.691004 462.941945 64.056063 462.941945 74.421121 462.941945 84.786180 462.941945 95.151239 462.941945 105.516297 462.941945 115.881356 462.941945 126.246415 462.941945 136.611473 462.941945 146.976532 462.941945 157.341591 462.941945 167.706649 462.941945 178.071708 462.941945 188.436767 462.941945 198.801825 462.941944 209.166884 462.941944 219.531943 462.941941 229.897001 462.941932 240.262060 462.941905 250.627119 462.941834 260.992177 462.941646 271.357236 462.941177 281.722295 462.940057 292.087353 462.937513 302.452412 462.932006 312.817471 462.920652 323.182529 462.898363 333.547588 462.856730 343.912647 462.782766 354.277705 462.657886 364.642764 462.457676 375.007823 462.153235 385.372881 461.714783 395.737940 461.117880 406.102999 460.351748 416.468057 459.428129 426.833116 458.388091 437.198175 457.303842 447.563233 456.273251 457.928292 455.406613 468.293351 454.807689 478.658409 454.553390 489.023468 454.677565 499.388527 455.163599 509.753585 455.948066 520.118644 456.934321 530.483703 458.012009 540.848761 459.077086 551.213820 460.047403 561.578879 460.870946 571.943937 461.526367 582.308996 462.017584 592.674055 462.365307 603.039113 462.598293 613.404172 462.746291 623.769231 462.835528" /></g><g class="series serie-8 color-8"><path class="line reactive nofill" d="M12.230769 462.941945 L22.595828 462.941945 32.960887 462.941945 43.325945 462.941945 53.691004 462.941945 64.056063 462.941945 74.421121 462.941945 84.786180 462.941945 95.151239 462.941945 105.516297 462.941945 115.881356 462.941945 126.246415 462.941945 136.611473 462.941945 146.976532 462.941945 157.341591 462.941945 167.706649 462.941945 178.071708 462.941945 188.436767 462.941945 198.801825 462.941944 209.166884 462.941944 219.531943 462.941942 229.897001 462.941936 240.262060 462.941923 250.627119 462.941889 260.992177 462.941810 271.357236 462.941632 281.722295 462.941248 292.087353 462.940450 302.452412 462.938861 312.817471 462.935824 323.182529 462.930262 333.547588 462.920495 343.912647 462.904066 354.277705 462.877607 364.642764 462.836835 375.007823 462.776779 385.372881 462.692313 395.737940 462.579050 406.102999 462.434530 416.468057 462.259533 426.833116 462.059206 437.198175 461.843649 447.563233 461.627604 457.928292 461.429087 468.293351 461.267041 478.658409 461.158403 489.023468 461.115198 499.388527 461.142349 509.753585 461.236754 520.118644 461.387867 530.483703 461.579640 540.848761 461.793323 551.213820 462.010447 561.578879 462.215357 571.943937 462.396820 582.308996 462.548572 592.674055 462.668911 603.039113 462.759669 613.404172 462.824903 623.769231 462.869658" /></g><g class="series serie-9 color-9"><path class="line reactive nofill" d="M12.230769 462.941945 L22.595828 462.941945 32.960887 462.941945 43.325945 462.941945 53.691004 462.941945 64.056063 462.941945 74.421121 462.941945 84.786180 462.941945 95.151239 462.941945 105.516297 462.941945 115.881356 462.941945 126.246415 462.941945 136.611473 462.941945 146.976532 462.941945 157.341591 462.941945 167.706649 462.941945 178.071708 462.941945 188.436767 462.941945 198.801825 462.941945 209.166884 462.941945 219.531943 462.941945 229.897001 462.941945 240.262060 462.941945 250.627119 462.941945 260.992177 462.941945 271.357236 462.941945 281.722295 462.941945 292.087353 462.941945 302.452412 462.941937 312.817471 462.941812 323.182529 462.940197 333.547588 462.924534 343.912647 462.811030 354.277705 462.199005 364.642764 459.759914 375.007823 452.656080 385.372881 437.848369 395.737940 416.738994 406.102999 398.737919 416.468057 395.607046 426.833116 409.644847 437.198175 431.103466 447.563233 448.587498 457.928292 458.057603 468.293351 461.687617 478.658409 462.698836 489.023468 462.906384 499.388527 462.938019 509.753585 462.941618 520.118644 462.941924 530.483703 462.941944 540.848761 462.941945 551.213820 462.941945 561.578879 462.941945 571.943937 462.941945 582.308996 462.941945 592.674055 462.941945 603.039113 462.941945 613.404172 462.941945 623.769231 462.941945" /></g><g class="series serie-10 color-10"><path class="line reactive nofill" d="M12.230769 462.941945 L22.595828 462.941945 32.960887 462.941945 43.325945 462.941945 53.691004 462.941945 64.056063 462.941945 74.421121 462.941945 84.786180 462.941945 95.151239 462.941945 105.516297 462.941945 115.881356 462.941945 126.246415 462.941945 136.611473 462.941945 146.976532 462.941945 157.341591 462.941945 167.706649 462.941945 178.071708 462.941945 188.436767 462.941945 198.801825 462.941945 209.166884 462.941945 219.531943 462.941945 229.897001 462.941945 240.262060 462.941945 250.627119 462.941941 260.992177 462.941908 271.357236 462.941625 281.722295 462.939606 292.087353 462.927524 302.452412 462.867016 312.817471 462.613821 323.182529 461.730915 333.547588 459.174904 343.912647 453.066090 354.277705 441.120783 364.642764 422.306046 375.007823 399.163978 385.372881 378.577342 395.737940 368.887641 406.102999 374.567667 416.468057 392.957441 426.833116 416.232285 437.198175 436.667090 447.563233 450.485252 457.928292 457.964643 468.293351 461.265791 478.658409 462.466212 489.023468 462.828145 499.388527 462.919002 509.753585 462.938046 520.118644 462.941387 530.483703 462.941877 540.848761 462.941938 551.213820 462.941944 561.578879 462.941945 571.943937 462.941945 582.308996 462.941945 592.674055 462.941945 603.039113 462.941945 613.404172 462.941945 623.769231 462.941945" /></g><g class="series serie-11 color-11"><path class="line reactive nofill" d="M12.230769 462.941945 L22.595828 462.941945 32.960887 462.941945 43.325945 462.941945 53.691004 462.941945 64.056063 462.941945 74.421121 462.941945 84.786180 462.941945 95.151239 462.941945 105.516297 462.941945 115.881356 462.941945 126.246415 462.941945 136.611473 462.941945 146.976532 462.941945 157.341591 462.941945 167.706649 462.941944 178.071708 462.941942 188.436767 462.941925 198.801825 462.941834 209.166884 462.941392 219.531943 462.939440 229.897001 462.931671 240.262060 462.903781 250.627119 462.813581 260.992177 462.551006 271.357236 461.863859 281.722295 460.249941 292.087353 456.855328 302.452412 450.480908 312.817471 439.842035 323.182529 424.167619 333.547588 404.009275 343.912647 381.837276 354.277705 361.873991 364.642764 348.901482 375.007823 346.426809 385.372881 355.150671 395.737940 372.647145 406.102999 394.453114 416.468057 415.903317 426.833116 433.689146 437.198175 446.469499 447.563233 454.542964 457.928292 459.064255 468.293351 461.320891 478.658409 462.328325 489.023468 462.731625 499.388527 462.876671 509.753585 462.923602 520.118644 462.937277 530.483703 462.940869 540.848761 462.941720 551.213820 462.941902 561.578879 462.941938 571.943937 462.941944 582.308996 462.941945 592.674055 462.941945 603.039113 462.941945 613.404172 462.941945 623.769231 462.941945" /></g><g class="series serie-12 color-12"><path class="line reactive nofill" d="M12.230769 462.941945 L22.595828 462.941945 32.960887 462.941945 43.325945 462.941945 53.691004 462.941945 64.056063 462.941945 74.421121 462.941945 84.786180 462.941945 95.151239 462.941945 105.516297 462.941944 115.881356 462.941940 126.246415 462.941920 136.611473 462.941839 146.976532 462.941515 157.341591 462.940325 167.706649 462.936267 178.071708 462.923431 188.436767 462.885771 198.801825 462.783352 209.166884 462.525328 219.531943 461.923601 229.897001 460.625850 240.262060 458.040521 250.627119 453.290501 260.992177 445.258522 271.357236 432.794921 281.722295 415.120067 292.087353 392.356872 302.452412 366.001910 312.817471 339.062989 323.182529 315.644245 333.547588 299.975400 343.912647 295.175535 354.277705 302.242038 364.642764 319.713161 375.007823 344.160379 385.372881 371.283634 395.737940 397.130911 406.102999 418.974660 416.468057 435.610371 426.833116 447.132971 437.198175 454.433566 447.563233 458.681117 457.928292 460.956558 468.293351 462.081148 478.658409 462.594681 489.023468 462.811591 499.388527 462.896416 509.753585 462.927148 520.118644 462.937470 530.483703 462.940686 540.848761 462.941615 551.213820 462.941865 561.578879 462.941927 571.943937 462.941941 582.308996 462.941944 592.674055 462.941945 603.039113 462.941945 613.404172 462.941945 623.769231 462.941945" /></g><g class="series serie-13 color-13"><path class="line reactive nofill" d="M12.230769 462.898599 L22.595828 462.868670 32.960887 462.820406 43.325945 462.744145 53.691004 462.626092 64.056063 462.447072 74.421121 462.181178 84.786180 461.794429 95.151239 461.243642 105.516297 460.475786 115.881356 459.428150 126.246415 458.029689 136.611473 456.203883 146.976532 453.873384 157.341591 450.966515 167.706649 447.425463 178.071708 443.215685 188.436767 438.335685 198.801825 432.826044 209.166884 426.776362 219.531943 420.328714 229.897001 413.676453 240.262060 407.057550 250.627119 400.742335 260.992177 395.016243 271.357236 390.158939 281.722295 386.421901 292.087353 384.006910 302.452412 383.048017 312.817471 383.599219 323.182529 385.629425 333.547588 389.025356 343.912647 393.602019 354.277705 399.119387 364.642764 405.303214 375.007823 411.867461 385.372881 418.535814 395.737940 425.060088 406.102999 431.233937 416.468057 436.901043 426.833116 441.957743 437.198175 446.350727 447.563233 450.070910 457.928292 453.144834 468.293351 455.624964 478.658409 457.580088 489.023468 459.086736 499.388527 460.222189 509.753585 461.059330 520.118644 461.663323 530.483703 462.089881 540.848761 462.384821 551.213820 462.584523 561.578879 462.716957 571.943937 462.802986 582.308996 462.857735 592.674055 462.891873 603.039113 462.912733 613.404172 462.925223 623.769231 462.932553" /></g></g><g class="titles"><text class="title plot_title" x="400.0" y="26">Iteration #18</text><text class="title" x="462.0" y="580.0">Observation</text><text class="title" transform="rotate(-90 64.000000 282.009619)" x="64.0" y="308.0096189432334">Density</text></g><g class="plot overlay" transform="translate(144, 46)"><g class="series serie-0 color-0" /><g class="series serie-1 color-1" /><g class="series serie-2 color-2" /><g class="series serie-3 color-3" /><g class="series serie-4 color-4" /><g class="series serie-5 color-5" /><g class="series serie-6 color-6" /><g class="series serie-7 color-7" /><g class="series serie-8 color-8" /><g class="series serie-9 color-9" /><g class="series serie-10 color-10" /><g class="series serie-11 color-11" /><g class="series serie-12 color-12" /><g class="series serie-13 color-13" /></g><g class="plot text-overlay" transform="translate(144, 46)"><g class="series serie-0 color-0" /><g class="series serie-1 color-1" /><g class="series serie-2 color-2" /><g class="series serie-3 color-3" /><g class="series serie-4 color-4" /><g class="series serie-5 color-5" /><g class="series serie-6 color-6" /><g class="series serie-7 color-7" /><g class="series serie-8 color-8" /><g class="series serie-9 color-9" /><g class="series serie-10 color-10" /><g class="series serie-11 color-11" /><g class="series serie-12 color-12" /><g class="series serie-13 color-13" /></g><g class="plot tooltip-overlay" transform="translate(144, 46)"><g class="tooltip" style="opacity: 0" transform="translate(0 0)"><rect class="tooltip-box" height="0" rx="0" ry="0" width="0" /><g class="text" /></g></g><g class="legends" transform="translate(10, 56)"><g class="legend reactive activate-serie" id="activate-serie-0"><rect class="color-0 reactive" height="12" width="12" x="0.0" y="0.0" /><text x="17.0" y="9.0">Data</text></g><g class="legend reactive activate-serie" id="activate-serie-1"><rect class="color-1 reactive" height="12" width="12" x="0.0" y="18.0" /><text x="17.0" y="27.0">GMM</text></g><g class="legend reactive activate-serie" id="activate-serie-2"><rect class="color-2 reactive" height="12" width="12" x="0.0" y="36.0" /><text x="17.0" y="45.0">i=0</text></g><g class="legend reactive activate-serie" id="activate-serie-3"><rect class="color-3 reactive" height="12" width="12" x="0.0" y="54.0" /><text x="17.0" y="63.0">i=1</text></g><g class="legend reactive activate-serie" id="activate-serie-4"><rect class="color-4 reactive" height="12" width="12" x="0.0" y="72.0" /><text x="17.0" y="81.0">i=0 k=0</text></g><g class="legend reactive activate-serie" id="activate-serie-5"><rect class="color-5 reactive" height="12" width="12" x="0.0" y="90.0" /><text x="17.0" y="99.0">i=0 k=1</text></g><g class="legend reactive activate-serie" id="activate-serie-6"><rect class="color-6 reactive" height="12" width="12" x="0.0" y="108.0" /><text x="17.0" y="117.0">i=0 k=2</text></g><g class="legend reactive activate-serie" id="activate-serie-7"><rect class="color-7 reactive" height="12" width="12" x="0.0" y="126.0" /><text x="17.0" y="135.0">i=0 k=3</text></g><g class="legend reactive activate-serie" id="activate-serie-8"><rect class="color-8 reactive" height="12" width="12" x="0.0" y="144.0" /><text x="17.0" y="153.0">i=0 k=4</text></g><g class="legend reactive activate-serie" id="activate-serie-9"><rect class="color-9 reactive" height="12" width="12" x="0.0" y="162.0" /><text x="17.0" y="171.0">i=1 k=0</text></g><g class="legend reactive activate-serie" id="activate-serie-10"><rect class="color-10 reactive" height="12" width="12" x="0.0" y="180.0" /><text x="17.0" y="189.0">i=1 k=1</text></g><g class="legend reactive activate-serie" id="activate-serie-11"><rect class="color-11 reactive" height="12" width="12" x="0.0" y="198.0" /><text x="17.0" y="207.0">i=1 k=2</text></g><g class="legend reactive activate-serie" id="activate-serie-12"><rect class="color-12 reactive" height="12" width="12" x="0.0" y="216.0" /><text x="17.0" y="225.0">i=1 k=3</text></g><g class="legend reactive activate-serie" id="activate-serie-13"><rect class="color-13 reactive" height="12" width="12" x="0.0" y="234.0" /><text x="17.0" y="243.0">i=1 k=4</text></g></g><g class="legends" transform="translate(790, 56)" /></g></svg>