<?xml version='1.0' encoding='utf-8'?>
<svg xmlns:xlink="http://www.w3.org/1999/xlink" class="pygal-chart" id="chart-3b821691-05f5-4e0c-8b0b-ba6557bae315" viewBox="0 0 800 600" xmlns="http://www.w3.org/2000/svg"><!--Generated with pygal 2.4.0 (etree) ©Kozea 2012-2016 on 2017-12-19--><!--http://pygal.org--><!--http://github.com/Kozea/pygal--><defs><style type="text/css">#chart-3b821691-05f5-4e0c-8b0b-ba6557bae315{-webkit-user-select:none;-webkit-font-smoothing:antialiased;font-family:Consolas,"Liberation Mono",Menlo,Courier,monospace}#chart-3b821691-05f5-4e0c-8b0b-ba6557bae315 .title{font-family:Consolas,"Liberation Mono",Menlo,Courier,monospace;font-size:16px}#chart-3b821691-05f5-4e0c-8b0b-ba6557bae315 .legends .legend text{font-family:Consolas,"Liberation Mono",Menlo,Courier,monospace;font-size:10px}#chart-3b821691-05f5-4e0c-8b0b-ba6557bae315 .axis text{font-family:Consolas,"Liberation Mono",Menlo,Courier,monospace;font-size:10px}#chart-3b821691-05f5-4e0c-8b0b-ba6557bae315 .axis text.major{font-family:Consolas,"Liberation Mono",Menlo,Courier,monospace;font-size:10px}#chart-3b821691-05f5-4e0c-8b0b-ba6557bae315 .text-overlay text.value{font-family:Consolas,"Liberation Mono",Menlo,Courier,monospace;font-size:16px}#chart-3b821691-05f5-4e0c-8b0b-ba6557bae315 .text-overlay text.label{font-family:Consolas,"Liberation Mono",Menlo,Courier,monospace;font-size:10px}#chart-3b821691-05f5-4e0c-8b0b-ba6557bae315 .tooltip{font-family:Consolas,"Liberation Mono",Menlo,Courier,monospace;font-size:14px}#chart-3b821691-05f5-4e0c-8b0b-ba6557bae315 text.no_data{font-family:Consolas,"Liberation Mono",Menlo,Courier,monospace;font-size:64px}
#chart-3b821691-05f5-4e0c-8b0b-ba6557bae315{background-color:rgba(249,249,249,1)}#chart-3b821691-05f5-4e0c-8b0b-ba6557bae315 path,#chart-3b821691-05f5-4e0c-8b0b-ba6557bae315 line,#chart-3b821691-05f5-4e0c-8b0b-ba6557bae315 rect,#chart-3b821691-05f5-4e0c-8b0b-ba6557bae315 circle{-webkit-transition:150ms;-moz-transition:150ms;transition:150ms}#chart-3b821691-05f5-4e0c-8b0b-ba6557bae315 .graph &gt; .background{fill:rgba(249,249,249,1)}#chart-3b821691-05f5-4e0c-8b0b-ba6557bae315 .plot &gt; .background{fill:rgba(255,255,255,1)}#chart-3b821691-05f5-4e0c-8b0b-ba6557bae315 .graph{fill:rgba(0,0,0,.87)}#chart-3b821691-05f5-4e0c-8b0b-ba6557bae315 text.no_data{fill:rgba(0,0,0,1)}#chart-3b821691-05f5-4e0c-8b0b-ba6557bae315 .title{fill:rgba(0,0,0,1)}#chart-3b821691-05f5-4e0c-8b0b-ba6557bae315 .legends .legend text{fill:rgba(0,0,0,.87)}#chart-3b821691-05f5-4e0c-8b0b-ba6557bae315 .legends .legend:hover text{fill:rgba(0,0,0,1)}#chart-3b821691-05f5-4e0c-8b0b-ba6557bae315 .axis .line{stroke:rgba(0,0,0,1)}#chart-3b821691-05f5-4e0c-8b0b-ba6557bae315 .axis .guide.line{stroke:rgba(0,0,0,.54)}#chart-3b821691-05f5-4e0c-8b0b-ba6557bae315 .axis .major.line{stroke:rgba(0,0,0,.87)}#chart-3b821691-05f5-4e0c-8b0b-ba6557bae315 .axis text.major{fill:rgba(0,0,0,1)}#chart-3b821691-05f5-4e0c-8b0b-ba6557bae315 .axis.y .guides:hover .guide.line,#chart-3b821691-05f5-4e0c-8b0b-ba6557bae315 .line-graph .axis.x .guides:hover .guide.line,#chart-3b821691-05f5-4e0c-8b0b-ba6557bae315 .stackedline-graph .axis.x .guides:hover .guide.line,#chart-3b821691-05f5-4e0c-8b0b-ba6557bae315 .xy-graph .axis.x .guides:hover .guide.line{stroke:rgba(0,0,0,1)}#chart-3b821691-05f5-4e0c-8b0b-ba6557bae315 .axis .guides:hover text{fill:rgba(0,0,0,1)}#chart-3b821691-05f5-4e0c-8b0b-ba6557bae315 .reactive{fill-opacity:.7;stroke-opacity:.8}#chart-3b821691-05f5-4e0c-8b0b-ba6557bae315 .ci{stroke:rgba(0,0,0,.87)}#chart-3b821691-05f5-4e0c-8b0b-ba6557bae315 .reactive.active,#chart-3b821691-05f5-4e0c-8b0b-ba6557bae315 .active .reactive{fill-opacity:.8;stroke-opacity:.9;stroke-width:4}#chart-3b821691-05f5-4e0c-8b0b-ba6557bae315 .ci .reactive.active{stroke-width:1.5}#chart-3b821691-05f5-4e0c-8b0b-ba6557bae315 .series text{fill:rgba(0,0,0,1)}#chart-3b821691-05f5-4e0c-8b0b-ba6557bae315 .tooltip rect{fill:rgba(255,255,255,1);stroke:rgba(0,0,0,1);-webkit-transition:opacity 150ms;-moz-transition:opacity 150ms;transition:opacity 150ms}#chart-3b821691-05f5-4e0c-8b0b-ba6557bae315 .tooltip .label{fill:rgba(0,0,0,.87)}#chart-3b821691-05f5-4e0c-8b0b-ba6557bae315 .tooltip .label{fill:rgba(0,0,0,.87)}#chart-3b821691-05f5-4e0c-8b0b-ba6557bae315 .tooltip .legend{font-size:.8em;fill:rgba(0,0,0,.54)}#chart-3b821691-05f5-4e0c-8b0b-ba6557bae315 .tooltip .x_label{font-size:.6em;fill:rgba(0,0,0,1)}#chart-3b821691-05f5-4e0c-8b0b-ba6557bae315 .tooltip .xlink{font-size:.5em;text-decoration:underline}#chart-3b821691-05f5-4e0c-8b0b-ba6557bae315 .tooltip .value{font-size:1.5em}#chart-3b821691-05f5-4e0c-8b0b-ba6557bae315 .bound{font-size:.5em}#chart-3b821691-05f5-4e0c-8b0b-ba6557bae315 .max-value{font-size:.75em;fill:rgba(0,0,0,.54)}#chart-3b821691-05f5-4e0c-8b0b-ba6557bae315 .map-element{fill:rgba(255,255,255,1);stroke:rgba(0,0,0,.54) !important}#chart-3b821691-05f5-4e0c-8b0b-ba6557bae315 .map-element .reactive{fill-opacity:inherit;stroke-opacity:inherit}#chart-3b821691-05f5-4e0c-8b0b-ba6557bae315 .color-0,#chart-3b821691-05f5-4e0c-8b0b-ba6557bae315 .color-0 a:visited{stroke:#909090;fill:#909090}#chart-3b821691-05f5-4e0c-8b0b-ba6557bae315 .color-1,#chart-3b821691-05f5-4e0c-8b0b-ba6557bae315 .color-1 a:visited{stroke:#000000;fill:#000000}#chart-3b821691-05f5-4e0c-8b0b-ba6557bae315 .color-2,#chart-3b821691-05f5-4e0c-8b0b-ba6557bae315 .color-2 a:visited{stroke:#ff0500;fill:#ff0500}#chart-3b821691-05f5-4e0c-8b0b-ba6557bae315 .color-3,#chart-3b821691-05f5-4e0c-8b0b-ba6557bae315 .color-3 a:visited{stroke:#323299;fill:#323299}#chart-3b821691-05f5-4e0c-8b0b-ba6557bae315 .color-4,#chart-3b821691-05f5-4e0c-8b0b-ba6557bae315 .color-4 a:visited{stroke:#a3413f;fill:#a3413f}#chart-3b821691-05f5-4e0c-8b0b-ba6557bae315 .color-5,#chart-3b821691-05f5-4e0c-8b0b-ba6557bae315 .color-5 a:visited{stroke:#a3413f;fill:#a3413f}#chart-3b821691-05f5-4e0c-8b0b-ba6557bae315 .color-6,#chart-3b821691-05f5-4e0c-8b0b-ba6557bae315 .color-6 a:visited{stroke:#a3413f;fill:#a3413f}#chart-3b821691-05f5-4e0c-8b0b-ba6557bae315 .color-7,#chart-3b821691-05f5-4e0c-8b0b-ba6557bae315 .color-7 a:visited{stroke:#a3413f;fill:#a3413f}#chart-3b821691-05f5-4e0c-8b0b-ba6557bae315 .color-8,#chart-3b821691-05f5-4e0c-8b0b-ba6557bae315 .color-8 a:visited{stroke:#a3413f;fill:#a3413f}#chart-3b821691-05f5-4e0c-8b0b-ba6557bae315 .color-9,#chart-3b821691-05f5-4e0c-8b0b-ba6557bae315 .color-9 a:visited{stroke:#657fff;fill:#657fff}#chart-3b821691-05f5-4e0c-8b0b-ba6557bae315 .color-10,#chart-3b821691-05f5-4e0c-8b0b-ba6557bae315 .color-10 a:visited{stroke:#657fff;fill:#657fff}#chart-3b821691-05f5-4e0c-8b0b-ba6557bae315 .color-11,#chart-3b821691-05f5-4e0c-8b0b-ba6557bae315 .color-11 a:visited{stroke:#657fff;fill:#657fff}#chart-3b821691-05f5-4e0c-8b0b-ba6557bae315 .color-12,#chart-3b821691-05f5-4e0c-8b0b-ba6557bae315 .color-12 a:visited{stroke:#657fff;fill:#657fff}#chart-3b821691-05f5-4e0c-8b0b-ba6557bae315 .color-13,#chart-3b821691-05f5-4e0c-8b0b-ba6557bae315 .color-13 a:visited{stroke:#657fff;fill:#657fff}#chart-3b821691-05f5-4e0c-8b0b-ba6557bae315 .text-overlay .color-0 text{fill:black}#chart-3b821691-05f5-4e0c-8b0b-ba6557bae315 .text-overlay .color-1 text{fill:white}#chart-3b821691-05f5-4e0c-8b0b-ba6557bae315 .text-overlay .color-2 text{fill:black}#chart-3b821691-05f5-4e0c-8b0b-ba6557bae315 .text-overlay .color-3 text{fill:black}#chart-3b821691-05f5-4e0c-8b0b-ba6557bae315 .text-overlay .color-4 text{fill:black}#chart-3b821691-05f5-4e0c-8b0b-ba6557bae315 .text-overlay .color-5 text{fill:black}#chart-3b821691-05f5-4e0c-8b0b-ba6557bae315 .text-overlay .color-6 text{fill:black}#chart-3b821691-05f5-4e0c-8b0b-ba6557bae315 .text-overlay .color-7 text{fill:black}#chart-3b821691-05f5-4e0c-8b0b-ba6557bae315 .text-overlay .color-8 text{fill:black}#chart-3b821691-05f5-4e0c-8b0b-ba6557bae315 .text-overlay .color-9 text{fill:black}#chart-3b821691-05f5-4e0c-8b0b-ba6557bae315 .text-overlay .color-10 text{fill:black}#chart-3b821691-05f5-4e0c-8b0b-ba6557bae315 .text-overlay .color-11 text{fill:black}#chart-3b821691-05f5-4e0c-8b0b-ba6557bae315 .text-overlay .color-12 text{fill:black}#chart-3b821691-05f5-4e0c-8b0b-ba6557bae315 .text-overlay .color-13 text{fill:black}#chart-3b821691-05f5-4e0c-8b0b-ba6557bae315 .series.serie-1{stroke-width:5}#chart-3b821691-05f5-4e0c-8b0b-ba6557bae315 .series.serie-2{stroke-width:3}#chart-3b821691-05f5-4e0c-8b0b-ba6557bae315 .series.serie-3{stroke-width:3}#chart-3b821691-05f5-4e0c-8b0b-ba6557bae315 .series.serie-4{stroke-width:2;stroke-dasharray:2,2}#chart-3b821691-05f5-4e0c-8b0b-ba6557bae315 .series.serie-5{stroke-width:2;stroke-dasharray:2,2}#chart-3b821691-05f5-4e0c-8b0b-ba6557bae315 .series.serie-6{stroke-width:2;stroke-dasharray:2,2}#chart-3b821691-05f5-4e0c-8b0b-ba6557bae315 .series.serie-7{stroke-width:2;stroke-dasharray:2,2}#chart-3b821691-05f5-4e0c-8b0b-ba6557bae315 .series.serie-8{stroke-width:2;stroke-dasharray:2,2}#chart-3b821691-05f5-4e0c-8b0b-ba6557bae315 .series.serie-9{stroke-width:2;stroke-dasharray:2,2}#chart-3b821691-05f5-4e0c-8b0b-ba6557bae315 .series.serie-10{stroke-width:2;stroke-dasharray:2,2}#chart-3b821691-05f5-4e0c-8b0b-ba6557bae315 .series.serie-11{stroke-width:2;stroke-dasharray:2,2}#chart-3b821691-05f5-4e0c-8b0b-ba6557bae315 .series.serie-12{stroke-width:2;stroke-dasharray:2,2}#chart-3b821691-05f5-4e0c-8b0b-ba6557bae315 .series.serie-13{stroke-width:2;stroke-dasharray:2,2}
#chart-3b821691-05f5-4e0c-8b0b-ba6557bae315 text.no_data{text-anchor:middle}#chart-3b821691-05f5-4e0c-8b0b-ba6557bae315 .guide.line{fill:none}#chart-3b821691-05f5-4e0c-8b0b-ba6557bae315 .centered{text-anchor:middle}#chart-3b821691-05f5-4e0c-8b0b-ba6557bae315 .title{text-anchor:middle}#chart-3b821691-05f5-4e0c-8b0b-ba6557bae315 .legends .legend text{fill-opacity:1}#chart-3b821691-05f5-4e0c-8b0b-ba6557bae315 .axis.x text{text-anchor:middle}#chart-3b821691-05f5-4e0c-8b0b-ba6557bae315 .axis.x:not(.web) text[transform]{text-anchor:start}#chart-3b821691-05f5-4e0c-8b0b-ba6557bae315 .axis.x:not(.web) text[transform].backwards{text-anchor:end}#chart-3b821691-05f5-4e0c-8b0b-ba6557bae315 .axis.y text{text-anchor:end}#chart-3b821691-05f5-4e0c-8b0b-ba6557bae315 .axis.y text[transform].backwards{text-anchor:start}#chart-3b821691-05f5-4e0c-8b0b-ba6557bae315 .axis.y2 text{text-anchor:start}#chart-3b821691-05f5-4e0c-8b0b-ba6557bae315 .axis.y2 text[transform].backwards{text-anchor:end}#chart-3b821691-05f5-4e0c-8b0b-ba6557bae315 .axis .guide.line{stroke-dasharray:4,4}#chart-3b821691-05f5-4e0c-8b0b-ba6557bae315 .axis .major.guide.line{stroke-dasharray:6,6}#chart-3b821691-05f5-4e0c-8b0b-ba6557bae315 .horizontal .axis.y .guide.line,#chart-3b821691-05f5-4e0c-8b0b-ba6557bae315 .horizontal .axis.y2 .guide.line,#chart-3b821691-05f5-4e0c-8b0b-ba6557bae315 .vertical .axis.x .guide.line{opacity:0}#chart-3b821691-05f5-4e0c-8b0b-ba6557bae315 .horizontal .axis.always_show .guide.line,#chart-3b821691-05f5-4e0c-8b0b-ba6557bae315 .vertical .axis.always_show .guide.line{opacity:1 !important}#chart-3b821691-05f5-4e0c-8b0b-ba6557bae315 .axis.y .guides:hover .guide.line,#chart-3b821691-05f5-4e0c-8b0b-ba6557bae315 .axis.y2 .guides:hover .guide.line,#chart-3b821691-05f5-4e0c-8b0b-ba6557bae315 .axis.x .guides:hover .guide.line{opacity:1}#chart-3b821691-05f5-4e0c-8b0b-ba6557bae315 .axis .guides:hover text{opacity:1}#chart-3b821691-05f5-4e0c-8b0b-ba6557bae315 .nofill{fill:none}#chart-3b821691-05f5-4e0c-8b0b-ba6557bae315 .subtle-fill{fill-opacity:.2}#chart-3b821691-05f5-4e0c-8b0b-ba6557bae315 .dot{stroke-width:1px;fill-opacity:1}#chart-3b821691-05f5-4e0c-8b0b-ba6557bae315 .dot.active{stroke-width:5px}#chart-3b821691-05f5-4e0c-8b0b-ba6557bae315 .dot.negative{fill:transparent}#chart-3b821691-05f5-4e0c-8b0b-ba6557bae315 text,#chart-3b821691-05f5-4e0c-8b0b-ba6557bae315 tspan{stroke:none !important}#chart-3b821691-05f5-4e0c-8b0b-ba6557bae315 .series text.active{opacity:1}#chart-3b821691-05f5-4e0c-8b0b-ba6557bae315 .tooltip rect{fill-opacity:.95;stroke-width:.5}#chart-3b821691-05f5-4e0c-8b0b-ba6557bae315 .tooltip text{fill-opacity:1}#chart-3b821691-05f5-4e0c-8b0b-ba6557bae315 .showable{visibility:hidden}#chart-3b821691-05f5-4e0c-8b0b-ba6557bae315 .showable.shown{visibility:visible}#chart-3b821691-05f5-4e0c-8b0b-ba6557bae315 .gauge-background{fill:rgba(229,229,229,1);stroke:none}#chart-3b821691-05f5-4e0c-8b0b-ba6557bae315 .bg-lines{stroke:rgba(249,249,249,1);stroke-width:2px}</style><script type="text/javascript">window.pygal = window.pygal || {};window.pygal.config = window.pygal.config || {};window.pygal.config['3b821691-05f5-4e0c-8b0b-ba6557bae315'] = {"css": ["file://style.css", "file://graph.css"], "include_x_axis": false, "min_scale": 4, "print_zeroes": true, "show_x_labels": true, "stroke": true, "show_minor_y_labels": true, "inner_radius": 0, "fill": false, "pretty_print": false, "js": ["//kozea.github.io/pygal.js/2.0.x/pygal-tooltips.min.js"], "x_labels": ["-8.96", "-8.76", "-8.56", "-8.36", "-8.16", "-7.96", "-7.76", "-7.56", "-7.36", "-7.16", "-6.96", "-6.76", "-6.56", "-6.36", "-6.16", "-5.96", "-5.76", "-5.56", "-5.36", "-5.16", "-4.96", "-4.76", "-4.56", "-4.36", "-4.16", "-3.96", "-3.76", "-3.56", "-3.36", "-3.16", "-2.96", "-2.76", "-2.56", "-2.36", "-2.16", "-1.96", "-1.76", "-1.56", "-1.36", "-1.16", "-0.96", "-0.76", "-0.56", "-0.36", "-0.16", "0.04", "0.24", "0.44", "0.64", "0.84", "1.04", "1.24", "1.43", "1.63", "1.83", "2.03", "2.23", "2.43", "2.63", "2.83"], "logarithmic": false, "show_minor_x_labels": false, "formatter": null, "tooltip_fancy_mode": true, "defs": [], "stroke_style": null, "spacing": 10, "show_only_major_dots": false, "half_pie": false, "show_legend": true, "dynamic_print_values": false, "max_scale": 16, "explicit_size": false, "y_label_rotation": 0, "y_labels": null, "x_labels_major": null, "margin_top": null, "interpolation_precision": 250, "xrange": null, "order_min": null, "y_title": "Density", "title": "Iteration #15", "x_label_rotation": 60, "interpolation_parameters": {}, "stack_from_top": false, "truncate_legend": null, "x_title": "Observation", "show_y_guides": true, "no_prefix": false, "print_values_position": "center", "show_y_labels": true, "classes": ["pygal-chart"], "force_uri_protocol": "https", "x_labels_major_count": null, "allow_interruptions": false, "width": 800, "height": 600, "secondary_range": null, "box_mode": "extremes", "margin_left": null, "y_labels_major": null, "margin_right": null, "zero": 0, "dots_size": 2.5, "no_data_text": "No data", "show_dots": false, "range": [0, 0.27578580090479526], "truncate_label": null, "margin_bottom": null, "y_labels_major_every": null, "show_x_guides": false, "disable_xml_declaration": false, "print_values": false, "x_labels_major_every": 2, "print_labels": false, "y_labels_major_count": null, "interpolate": null, "legend_at_bottom": false, "style": {"value_font_size": 16, "tooltip_font_family": "Consolas, \"Liberation Mono\", Menlo, Courier, monospace", "major_label_font_family": "Consolas, \"Liberation Mono\", Menlo, Courier, monospace", "value_colors": [], "value_background": "rgba(229, 229, 229, 1)", "foreground_strong": "rgba(0, 0, 0, 1)", "opacity": ".7", "font_family": "Consolas, \"Liberation Mono\", Menlo, Courier, monospace", "label_font_size": 10, "transition": "150ms", "title_font_family": "Consolas, \"Liberation Mono\", Menlo, Courier, monospace", "background": "rgba(249, 249, 249, 1)", "stroke_opacity": ".8", "no_data_font_size": 64, "value_label_font_family": "Consolas, \"Liberation Mono\", Menlo, Courier, monospace", "value_label_font_size": 10, "value_font_family": "Consolas, \"Liberation Mono\", Menlo, Courier, monospace", "plot_background": "rgba(255, 255, 255, 1)", "colors": ["#909090", "#000000", "#ff0500", "#323299", "#a3413f", "#a3413f", "#a3413f", "#a3413f", "#a3413f", "#657fff", "#657fff", "#657fff", "#657fff", "#657fff"], "legend_font_size": 10, "guide_stroke_dasharray": "4,4", "major_label_font_size": 10, "stroke_opacity_hover": ".9", "major_guide_stroke_dasharray": "6,6", "opacity_hover": ".8", "no_data_font_family": "Consolas, \"Liberation Mono\", Menlo, Courier, monospace", "title_font_size": 16, "ci_colors": [], "foreground": "rgba(0, 0, 0, .87)", "foreground_subtle": "rgba(0, 0, 0, .54)", "legend_font_family": "Consolas, \"Liberation Mono\", Menlo, Courier, monospace", "label_font_family": "Consolas, \"Liberation Mono\", Menlo, Courier, monospace", "tooltip_font_size": 14}, "strict": false, "legend_box_size": 12, "tooltip_border_radius": 0, "margin": 20, "legends": ["Data", "GMM", "i=0", "i=1", "i=0 k=0", "i=0 k=1", "i=0 k=2", "i=0 k=3", "i=0 k=4", "i=1 k=0", "i=1 k=1", "i=1 k=2", "i=1 k=3", "i=1 k=4"], "inverse_y_axis": false, "legend_at_bottom_columns": null, "rounded_bars": null, "missing_value_fill_truncation": "x"}</script><script type="text/javascript" xlink:href="https://kozea.github.io/pygal.js/2.0.x/pygal-tooltips.min.js" /></defs><title>Iteration #15</title><g class="graph line-graph vertical"><rect class="background" height="600" width="800" x="0" y="0" /><g class="plot" transform="translate(144, 46)"><rect class="background" height="472.01923788646684" width="636.0" x="0" y="0" /><g class="axis y always_show"><g class="guides"><path class="axis major line" d="M0.000000 462.941945 h636.000000" /><text class="major" x="-5" y="466.44194485">0</text><title>0</title></g><g class="guides"><path class="guide line" d="M0.000000 430.027658 h636.000000" /><text class="" x="-5" y="433.527657724">0.02</text><title>0.02</title></g><g class="guides"><path class="guide line" d="M0.000000 397.113371 h636.000000" /><text class="" x="-5" y="400.613370598">0.04</text><title>0.04</title></g><g class="guides"><path class="guide line" d="M0.000000 364.199083 h636.000000" /><text class="" x="-5" y="367.699083472">0.06</text><title>0.06</title></g><g class="guides"><path class="guide line" d="M0.000000 331.284796 h636.000000" /><text class="" x="-5" y="334.784796346">0.08</text><title>0.08</title></g><g class="guides"><path class="guide line" d="M0.000000 298.370509 h636.000000" /><text class="" x="-5" y="301.87050922">0.1</text><title>0.1</title></g><g class="guides"><path class="guide line" d="M0.000000 265.456222 h636.000000" /><text class="" x="-5" y="268.956222094">0.12</text><title>0.12</title></g><g class="guides"><path class="guide line" d="M0.000000 232.541935 h636.000000" /><text class="" x="-5" y="236.041934968">0.14</text><title>0.14</title></g><g class="guides"><path class="guide line" d="M0.000000 199.627648 h636.000000" /><text class="" x="-5" y="203.127647841">0.16</text><title>0.16</title></g><g class="guides"><path class="guide line" d="M0.000000 166.713361 h636.000000" /><text class="" x="-5" y="170.213360715">0.18</text><title>0.18</title></g><g class="guides"><path class="guide line" d="M0.000000 133.799074 h636.000000" /><text class="" x="-5" y="137.299073589">0.2</text><title>0.2</title></g><g class="guides"><path class="guide line" d="M0.000000 100.884786 h636.000000" /><text class="" x="-5" y="104.384786463">0.22</text><title>0.22</title></g><g class="guides"><path class="guide line" d="M0.000000 67.970499 h636.000000" /><text class="" x="-5" y="71.4704993371">0.24</text><title>0.24</title></g><g class="guides"><path class="guide line" d="M0.000000 35.056212 h636.000000" /><text class="" x="-5" y="38.5562122111">0.26</text><title>0.26</title></g></g><g class="axis x"><g class="guides"><path class="major line" d="M12.230769 0.000000 v472.019238" /><text class="major" transform="rotate(60 12.230769 487.019238)" x="12.230769230769232" y="487.01923788646684">-8.96</text></g><g class="guides"><path class="major guide line" d="M32.960887 0.000000 v472.019238" /><text class="major" transform="rotate(60 32.960887 487.019238)" x="32.96088657105606" y="487.01923788646684">-8.56</text></g><g class="guides"><path class="major guide line" d="M53.691004 0.000000 v472.019238" /><text class="major" transform="rotate(60 53.691004 487.019238)" x="53.6910039113429" y="487.01923788646684">-8.16</text></g><g class="guides"><path class="major guide line" d="M74.421121 0.000000 v472.019238" /><text class="major" transform="rotate(60 74.421121 487.019238)" x="74.42112125162973" y="487.01923788646684">-7.76</text></g><g class="guides"><path class="major guide line" d="M95.151239 0.000000 v472.019238" /><text class="major" transform="rotate(60 95.151239 487.019238)" x="95.15123859191655" y="487.01923788646684">-7.36</text></g><g class="guides"><path class="major guide line" d="M115.881356 0.000000 v472.019238" /><text class="major" transform="rotate(60 115.881356 487.019238)" x="115.88135593220338" y="487.01923788646684">-6.96</text></g><g class="guides"><path class="major guide line" d="M136.611473 0.000000 v472.019238" /><text class="major" transform="rotate(60 136.611473 487.019238)" x="136.61147327249023" y="487.01923788646684">-6.56</text></g><g class="guides"><path class="major guide line" d="M157.341591 0.000000 v472.019238" /><text class="major" transform="rotate(60 157.341591 487.019238)" x="157.34159061277705" y="487.01923788646684">-6.16</text></g><g class="guides"><path class="major guide line" d="M178.071708 0.000000 v472.019238" /><text class="major" transform="rotate(60 178.071708 487.019238)" x="178.0717079530639" y="487.01923788646684">-5.76</text></g><g class="guides"><path class="major guide line" d="M198.801825 0.000000 v472.019238" /><text class="major" transform="rotate(60 198.801825 487.019238)" x="198.80182529335073" y="487.01923788646684">-5.36</text></g><g class="guides"><path class="major guide line" d="M219.531943 0.000000 v472.019238" /><text class="major" transform="rotate(60 219.531943 487.019238)" x="219.53194263363756" y="487.01923788646684">-4.96</text></g><g class="guides"><path class="major guide line" d="M240.262060 0.000000 v472.019238" /><text class="major" transform="rotate(60 240.262060 487.019238)" x="240.2620599739244" y="487.01923788646684">-4.56</text></g><g class="guides"><path class="major guide line" d="M260.992177 0.000000 v472.019238" /><text class="major" transform="rotate(60 260.992177 487.019238)" x="260.99217731421123" y="487.01923788646684">-4.16</text></g><g class="guides"><path class="major guide line" d="M281.722295 0.000000 v472.019238" /><text class="major" transform="rotate(60 281.722295 487.019238)" x="281.722294654498" y="487.01923788646684">-3.76</text></g><g class="guides"><path class="major guide line" d="M302.452412 0.000000 v472.019238" /><text class="major" transform="rotate(60 302.452412 487.019238)" x="302.4524119947849" y="487.01923788646684">-3.36</text></g><g class="guides"><path class="major guide line" d="M323.182529 0.000000 v472.019238" /><text class="major" transform="rotate(60 323.182529 487.019238)" x="323.1825293350717" y="487.01923788646684">-2.96</text></g><g class="guides"><path class="major guide line" d="M343.912647 0.000000 v472.019238" /><text class="major" transform="rotate(60 343.912647 487.019238)" x="343.91264667535853" y="487.01923788646684">-2.56</text></g><g class="guides"><path class="major guide line" d="M364.642764 0.000000 v472.019238" /><text class="major" transform="rotate(60 364.642764 487.019238)" x="364.64276401564535" y="487.01923788646684">-2.16</text></g><g class="guides"><path class="major guide line" d="M385.372881 0.000000 v472.019238" /><text class="major" transform="rotate(60 385.372881 487.019238)" x="385.37288135593224" y="487.01923788646684">-1.76</text></g><g class="guides"><path class="major guide line" d="M406.102999 0.000000 v472.019238" /><text class="major" transform="rotate(60 406.102999 487.019238)" x="406.102998696219" y="487.01923788646684">-1.36</text></g><g class="guides"><path class="major guide line" d="M426.833116 0.000000 v472.019238" /><text class="major" transform="rotate(60 426.833116 487.019238)" x="426.8331160365058" y="487.01923788646684">-0.96</text></g><g class="guides"><path class="major guide line" d="M447.563233 0.000000 v472.019238" /><text class="major" transform="rotate(60 447.563233 487.019238)" x="447.56323337679265" y="487.01923788646684">-0.56</text></g><g class="guides"><path class="major guide line" d="M468.293351 0.000000 v472.019238" /><text class="major" transform="rotate(60 468.293351 487.019238)" x="468.29335071707953" y="487.01923788646684">-0.16</text></g><g class="guides"><path class="major guide line" d="M489.023468 0.000000 v472.019238" /><text class="major" transform="rotate(60 489.023468 487.019238)" x="489.02346805736636" y="487.01923788646684">0.24</text></g><g class="guides"><path class="major guide line" d="M509.753585 0.000000 v472.019238" /><text class="major" transform="rotate(60 509.753585 487.019238)" x="509.75358539765324" y="487.01923788646684">0.64</text></g><g class="guides"><path class="major guide line" d="M530.483703 0.000000 v472.019238" /><text class="major" transform="rotate(60 530.483703 487.019238)" x="530.48370273794" y="487.01923788646684">1.04</text></g><g class="guides"><path class="major guide line" d="M551.213820 0.000000 v472.019238" /><text class="major" transform="rotate(60 551.213820 487.019238)" x="551.213820078227" y="487.01923788646684">1.43</text></g><g class="guides"><path class="major guide line" d="M571.943937 0.000000 v472.019238" /><text class="major" transform="rotate(60 571.943937 487.019238)" x="571.9439374185138" y="487.01923788646684">1.83</text></g><g class="guides"><path class="major guide line" d="M592.674055 0.000000 v472.019238" /><text class="major" transform="rotate(60 592.674055 487.019238)" x="592.6740547588006" y="487.01923788646684">2.23</text></g><g class="guides"><path class="major guide line" d="M613.404172 0.000000 v472.019238" /><text class="major" transform="rotate(60 613.404172 487.019238)" x="613.4041720990874" y="487.01923788646684">2.63</text></g></g><g class="series serie-0 color-0"><path class="line reactive" d="M12.230769 462.941945 L12.230769 462.019456 22.595828 462.941945 32.960887 461.096967 43.325945 462.019456 53.691004 459.251988 64.056063 462.019456 74.421121 458.329499 84.786180 462.019456 95.151239 458.329499 105.516297 462.019456 115.881356 448.182119 126.246415 460.174477 136.611473 457.407010 146.976532 457.407010 157.341591 451.872075 167.706649 448.182119 178.071708 454.639543 188.436767 445.414651 198.801825 442.647184 209.166884 436.189760 219.531943 437.112249 229.897001 392.832771 240.262060 396.522728 250.627119 376.227967 260.992177 355.933206 271.357236 351.320760 281.722295 325.491065 292.087353 277.521630 302.452412 283.056565 312.817471 202.800010 323.182529 188.040184 333.547588 169.590402 343.912647 123.465945 354.277705 95.791271 364.642764 67.194108 375.007823 82.876423 385.372881 60.736684 395.737940 80.108956 406.102999 29.372054 416.468057 9.077293 426.833116 70.884065 437.198175 69.039086 447.563233 41.364413 457.928292 40.441923 468.293351 91.178826 478.658409 140.993239 489.023468 214.792369 499.388527 259.071847 509.753585 321.801108 520.118644 364.235608 530.483703 408.515086 540.848761 430.654825 551.213820 448.182119 561.578879 455.562032 571.943937 458.329499 582.308996 458.329499 592.674055 462.019456 603.039113 462.941945 613.404172 462.019456 623.769231 462.941945" /></g><g class="series serie-1 color-1"><path class="line reactive nofill" d="M12.230769 462.859621 L22.595828 462.810198 32.960887 462.734756 43.325945 462.621758 53.691004 462.455703 64.056063 462.216317 74.421121 461.877828 84.786180 461.408452 95.151239 460.770263 105.516297 459.919600 115.881356 458.808175 126.246415 457.384922 136.611473 455.598462 146.976532 453.399772 157.341591 450.744198 167.706649 447.591452 178.071708 443.901757 188.436767 439.626056 198.801825 434.688620 209.166884 428.961846 219.531943 422.235736 229.897001 414.188418 240.262060 404.368005 250.627119 392.198437 260.992177 377.020321 271.357236 358.171115 281.722295 335.098221 292.087353 307.489384 302.452412 275.405770 312.817471 239.419952 323.182529 200.781272 333.547588 161.612726 343.912647 125.037437 354.277705 94.962285 364.642764 75.183158 375.007823 67.764492 385.372881 71.310906 395.737940 80.349177 406.102999 86.878429 416.468057 83.961175 426.833116 69.682116 437.198175 49.110730 447.563233 32.793904 457.928292 32.305163 468.293351 55.140410 478.658409 101.592965 489.023468 165.000542 499.388527 234.834826 509.753585 300.749131 520.118644 355.620875 530.483703 396.602040 540.848761 424.399026 551.213820 441.705401 561.578879 451.706197 571.943937 457.141957 582.308996 459.968240 592.674055 461.403528 603.039113 462.131706 613.404172 462.507791 623.769231 462.707222" /></g><g class="series serie-2 color-2"><path class="line reactive nofill" d="M12.230769 462.941945 L22.595828 462.941945 32.960887 462.941945 43.325945 462.941945 53.691004 462.941945 64.056063 462.941945 74.421121 462.941945 84.786180 462.941945 95.151239 462.941945 105.516297 462.941945 115.881356 462.941945 126.246415 462.941945 136.611473 462.941945 146.976532 462.941945 157.341591 462.941945 167.706649 462.941945 178.071708 462.941944 188.436767 462.941942 198.801825 462.941937 209.166884 462.941924 219.531943 462.941889 229.897001 462.941801 240.262060 462.941584 250.627119 462.941058 260.992177 462.939798 271.357236 462.936777 281.722295 462.929445 292.087353 462.911297 302.452412 462.865596 312.817471 462.749910 323.182529 462.460793 333.547588 461.760952 343.912647 460.147295 354.277705 456.649692 364.642764 449.595010 375.007823 436.458838 385.372881 414.030824 395.737940 379.150809 406.102999 330.109366 416.468057 268.397728 426.833116 199.996079 437.198175 135.183653 447.563233 86.300256 457.928292 63.950297 468.293351 73.219802 478.658409 111.762268 489.023468 170.747510 499.388527 238.153880 509.753585 302.725834 520.118644 356.834160 530.483703 397.363671 540.848761 424.882972 551.213820 442.013693 561.578879 451.901654 571.943937 457.264664 582.308996 460.044277 592.674055 461.449944 603.039113 462.159588 613.404172 462.524261 623.769231 462.716786" /></g><g class="series serie-3 color-3"><path class="line reactive nofill" d="M12.230769 462.859621 L22.595828 462.810198 32.960887 462.734756 43.325945 462.621758 53.691004 462.455703 64.056063 462.216317 74.421121 461.877828 84.786180 461.408452 95.151239 460.770263 105.516297 459.919600 115.881356 458.808175 126.246415 457.384922 136.611473 455.598462 146.976532 453.399772 157.341591 450.744198 167.706649 447.591452 178.071708 443.901758 188.436767 439.626058 198.801825 434.688627 209.166884 428.961866 219.531943 422.235792 229.897001 414.188561 240.262060 404.368366 250.627119 392.199324 260.992177 377.022468 271.357236 358.176282 281.722295 335.110721 292.087353 307.520032 302.452412 275.482119 312.817471 239.611986 323.182529 201.262424 333.547588 162.793719 343.912647 127.832086 354.277705 101.254537 364.642764 88.530092 375.007823 94.247599 385.372881 120.222027 395.737940 164.140313 406.102999 219.711008 416.468057 278.505392 426.833116 332.627982 437.198175 376.869023 447.563233 409.435593 457.928292 431.296811 468.293351 444.862552 478.658409 452.772642 489.023468 457.194976 499.388527 459.622891 509.753585 460.965242 520.118644 461.728660 530.483703 462.180314 540.848761 462.457999 551.213820 462.633652 561.578879 462.746488 571.943937 462.819237 582.308996 462.865907 592.674055 462.895528 603.039113 462.914063 613.404172 462.925475 623.769231 462.932381" /></g><g class="series serie-4 color-4"><path class="line reactive nofill" d="M12.230769 462.941945 L22.595828 462.941945 32.960887 462.941945 43.325945 462.941945 53.691004 462.941945 64.056063 462.941945 74.421121 462.941945 84.786180 462.941945 95.151239 462.941945 105.516297 462.941945 115.881356 462.941945 126.246415 462.941945 136.611473 462.941945 146.976532 462.941945 157.341591 462.941945 167.706649 462.941945 178.071708 462.941945 188.436767 462.941945 198.801825 462.941945 209.166884 462.941945 219.531943 462.941945 229.897001 462.941945 240.262060 462.941944 250.627119 462.941941 260.992177 462.941923 271.357236 462.941832 281.722295 462.941417 292.087353 462.939682 302.452412 462.933058 312.817471 462.909974 323.182529 462.836602 333.547588 462.624037 343.912647 462.063220 354.277705 460.717315 364.642764 457.783540 375.007823 451.986592 385.372881 441.631600 395.737940 424.974813 406.102999 400.986670 416.468057 370.343867 426.833116 336.182932 437.198175 304.010837 447.563233 280.429635 457.928292 270.974050 468.293351 278.007319 478.658409 299.764154 489.023468 331.068589 499.388527 365.329261 509.753585 396.764707 520.118644 421.849289 530.483703 439.571177 540.848761 450.767899 551.213820 457.133631 561.578879 460.403788 571.943937 461.926071 582.308996 462.569541 592.674055 462.816907 603.039113 462.903492 613.404172 462.931114 623.769231 462.939151" /></g><g class="series serie-5 color-5"><path class="line reactive nofill" d="M12.230769 462.941945 L22.595828 462.941945 32.960887 462.941945 43.325945 462.941945 53.691004 462.941945 64.056063 462.941945 74.421121 462.941945 84.786180 462.941945 95.151239 462.941945 105.516297 462.941945 115.881356 462.941945 126.246415 462.941945 136.611473 462.941945 146.976532 462.941945 157.341591 462.941945 167.706649 462.941945 178.071708 462.941945 188.436767 462.941945 198.801825 462.941945 209.166884 462.941945 219.531943 462.941945 229.897001 462.941945 240.262060 462.941944 250.627119 462.941939 260.992177 462.941916 271.357236 462.941809 281.722295 462.941361 292.087353 462.939636 302.452412 462.933538 312.817471 462.913749 323.182529 462.854824 333.547588 462.693945 343.912647 462.291570 354.277705 461.370641 364.642764 459.444576 375.007823 455.770496 385.372881 449.394520 395.737940 439.364813 406.102999 425.140402 416.468057 407.106186 426.833116 386.961878 437.198175 367.690567 447.563233 352.933200 457.928292 345.893001 468.293351 348.207944 478.658409 359.332076 489.023468 376.744488 499.388527 396.876839 509.753585 416.293823 520.118644 432.597407 530.483703 444.757031 540.848761 452.902116 551.213820 457.835417 561.578879 460.549128 571.943937 461.908999 582.308996 462.531145 592.674055 462.791434 603.039113 462.891142 613.404172 462.926147 623.769231 462.937419" /></g><g class="series serie-6 color-6"><path class="line reactive nofill" d="M12.230769 462.941945 L22.595828 462.941945 32.960887 462.941945 43.325945 462.941945 53.691004 462.941945 64.056063 462.941945 74.421121 462.941945 84.786180 462.941945 95.151239 462.941945 105.516297 462.941945 115.881356 462.941945 126.246415 462.941945 136.611473 462.941945 146.976532 462.941945 157.341591 462.941945 167.706649 462.941945 178.071708 462.941945 188.436767 462.941945 198.801825 462.941945 209.166884 462.941945 219.531943 462.941945 229.897001 462.941944 240.262060 462.941941 250.627119 462.941929 260.992177 462.941878 271.357236 462.941679 281.722295 462.940964 292.087353 462.938587 302.452412 462.931260 312.817471 462.910332 323.182529 462.854997 333.547588 462.719631 343.912647 462.413516 354.277705 461.774281 364.642764 460.543326 375.007823 458.361408 385.372881 454.810205 395.737940 449.521640 406.102999 442.352097 416.468057 433.575203 426.833116 424.004249 437.198175 414.946881 447.563233 407.945482 457.928292 404.357166 468.293351 404.926091 478.658409 409.532209 489.023468 417.232491 499.388527 426.575279 509.753585 436.044391 520.118644 444.447813 530.483703 451.120598 540.848761 455.917503 551.213820 459.061616 561.578879 460.949267 571.943937 461.990645 582.308996 462.519753 592.674055 462.767759 603.039113 462.875137 613.404172 462.918124 623.769231 462.934049" /></g><g class="series serie-7 color-7"><path class="line reactive nofill" d="M12.230769 462.941945 L22.595828 462.941945 32.960887 462.941945 43.325945 462.941945 53.691004 462.941945 64.056063 462.941945 74.421121 462.941945 84.786180 462.941945 95.151239 462.941945 105.516297 462.941945 115.881356 462.941945 126.246415 462.941945 136.611473 462.941945 146.976532 462.941945 157.341591 462.941945 167.706649 462.941945 178.071708 462.941945 188.436767 462.941945 198.801825 462.941945 209.166884 462.941945 219.531943 462.941944 229.897001 462.941940 240.262060 462.941925 250.627119 462.941875 260.992177 462.941713 271.357236 462.941214 281.722295 462.939778 292.087353 462.935895 302.452412 462.926034 312.817471 462.902530 323.182529 462.849983 333.547588 462.739848 343.912647 462.523626 354.277705 462.126392 364.642764 461.444352 375.007823 460.351755 385.372881 458.722392 395.737940 456.467567 406.102999 453.585166 416.468057 450.205406 426.833116 446.612431 437.198175 443.222628 447.563233 440.513084 457.928292 438.913850 468.293351 438.696608 478.658409 439.899219 489.023468 442.314936 499.388527 445.550510 509.753585 449.130748 520.118644 452.611382 530.483703 455.663922 540.848761 458.112473 551.213820 459.923505 561.578879 461.165048 571.943937 461.956712 582.308996 462.427413 592.674055 462.688851 603.039113 462.824685 613.404172 462.890775 623.769231 462.920913" /></g><g class="series serie-8 color-8"><path class="line reactive nofill" d="M12.230769 462.941945 L22.595828 462.941945 32.960887 462.941945 43.325945 462.941945 53.691004 462.941945 64.056063 462.941945 74.421121 462.941945 84.786180 462.941945 95.151239 462.941945 105.516297 462.941945 115.881356 462.941945 126.246415 462.941945 136.611473 462.941945 146.976532 462.941945 157.341591 462.941945 167.706649 462.941945 178.071708 462.941944 188.436767 462.941942 198.801825 462.941937 209.166884 462.941924 219.531943 462.941891 229.897001 462.941807 240.262060 462.941609 250.627119 462.941153 260.992177 462.940148 271.357236 462.938023 281.722295 462.933704 292.087353 462.925276 302.452412 462.909486 312.817471 462.881104 323.182529 462.832166 333.547588 462.751270 343.912647 462.623143 354.277705 462.428843 364.642764 462.146995 375.007823 461.756367 385.372881 461.239887 395.737940 460.589755 406.102999 459.812810 416.468057 458.934846 426.833116 458.002368 437.198175 457.080519 447.563233 456.246635 457.928292 455.580010 468.293351 455.149619 478.658409 455.002390 489.023468 455.154785 499.388527 455.589770 509.753585 456.259944 520.118644 457.096049 530.483703 458.018722 540.848761 458.950761 551.213820 459.827304 561.578879 460.602203 571.943937 461.250017 582.308996 461.764204 592.674055 462.152773 603.039113 462.432911 613.404172 462.625880 623.769231 462.753033" /></g><g class="series serie-9 color-9"><path class="line reactive nofill" d="M12.230769 462.941945 L22.595828 462.941945 32.960887 462.941945 43.325945 462.941945 53.691004 462.941945 64.056063 462.941945 74.421121 462.941945 84.786180 462.941945 95.151239 462.941945 105.516297 462.941945 115.881356 462.941945 126.246415 462.941945 136.611473 462.941945 146.976532 462.941945 157.341591 462.941945 167.706649 462.941945 178.071708 462.941945 188.436767 462.941945 198.801825 462.941944 209.166884 462.941937 219.531943 462.941898 229.897001 462.941685 240.262060 462.940640 250.627119 462.936078 260.992177 462.918326 271.357236 462.856799 281.722295 462.667080 292.087353 462.147373 302.452412 460.885089 312.817471 458.173995 323.182529 453.044660 333.547588 444.544512 343.912647 432.318424 354.277705 417.295207 364.642764 402.013358 375.007823 390.115485 385.372881 384.992321 395.737940 388.229047 406.102999 398.815985 416.468057 413.655340 426.833116 429.020006 437.198175 442.035068 447.563233 451.403311 457.928292 457.239300 468.293351 460.418144 478.658409 461.941737 489.023468 462.586982 499.388527 462.829139 509.753585 462.909842 520.118644 462.933764 530.483703 462.940078 540.848761 462.941563 551.213820 462.941875 561.578879 462.941933 571.943937 462.941943 582.308996 462.941945 592.674055 462.941945 603.039113 462.941945 613.404172 462.941945 623.769231 462.941945" /></g><g class="series serie-10 color-10"><path class="line reactive nofill" d="M12.230769 462.941945 L22.595828 462.941945 32.960887 462.941945 43.325945 462.941945 53.691004 462.941945 64.056063 462.941945 74.421121 462.941945 84.786180 462.941945 95.151239 462.941945 105.516297 462.941945 115.881356 462.941945 126.246415 462.941945 136.611473 462.941945 146.976532 462.941945 157.341591 462.941943 167.706649 462.941937 178.071708 462.941907 188.436767 462.941775 198.801825 462.941241 209.166884 462.939262 219.531943 462.932510 229.897001 462.911344 240.262060 462.850403 250.627119 462.689388 260.992177 462.299311 271.357236 461.433846 281.722295 459.677879 292.087353 456.426399 302.452412 450.946804 312.817471 442.575155 323.182529 431.048424 333.547588 416.879709 343.912647 401.586904 354.277705 387.568537 364.642764 377.543742 375.007823 373.705557 385.372881 376.942052 395.737940 386.502679 406.102999 400.280878 416.468057 415.567762 426.833116 429.908920 437.198175 441.698857 447.563233 450.342552 457.928292 456.049961 468.293351 459.464970 478.658409 461.324157 489.023468 462.247714 499.388527 462.667187 509.753585 462.841655 520.118644 462.908183 530.483703 462.931462 540.848761 462.938943 551.213820 462.941152 561.578879 462.941752 571.943937 462.941901 582.308996 462.941936 592.674055 462.941943 603.039113 462.941945 613.404172 462.941945 623.769231 462.941945" /></g><g class="series serie-11 color-11"><path class="line reactive nofill" d="M12.230769 462.941945 L22.595828 462.941945 32.960887 462.941945 43.325945 462.941945 53.691004 462.941945 64.056063 462.941945 74.421121 462.941945 84.786180 462.941945 95.151239 462.941944 105.516297 462.941943 115.881356 462.941936 126.246415 462.941910 136.611473 462.941818 146.976532 462.941511 157.341591 462.940546 167.706649 462.937689 178.071708 462.929734 188.436767 462.908898 198.801825 462.857598 209.166884 462.738896 219.531943 462.480933 229.897001 461.954739 240.262060 460.948123 250.627119 459.144004 260.992177 456.118661 271.357236 451.380239 281.722295 444.464852 292.087353 435.091728 302.452412 423.350005 312.817471 409.857386 323.182529 395.812527 333.547588 382.877297 343.912647 372.877794 354.277705 367.388498 364.642764 367.327392 375.007823 372.704897 385.372881 382.620964 395.737940 395.511446 406.102999 409.551077 416.468057 423.070605 426.833116 434.859306 437.198175 444.286816 447.563233 451.253901 457.928292 456.035276 468.293351 459.092672 478.658409 460.918590 489.023468 461.938835 499.388527 462.472907 509.753585 462.735097 520.118644 462.855909 530.483703 462.908194 540.848761 462.929457 551.213820 462.937587 561.578879 462.940511 571.943937 462.941500 582.308996 462.941815 592.674055 462.941909 603.039113 462.941935 613.404172 462.941943 623.769231 462.941944" /></g><g class="series serie-12 color-12"><path class="line reactive nofill" d="M12.230769 462.941945 L22.595828 462.941945 32.960887 462.941945 43.325945 462.941944 53.691004 462.941943 64.056063 462.941940 74.421121 462.941928 84.786180 462.941888 95.151239 462.941767 105.516297 462.941413 115.881356 462.940425 126.246415 462.937802 136.611473 462.931177 146.976532 462.915248 157.341591 462.878809 167.706649 462.799527 178.071708 462.635517 188.436767 462.313069 198.801825 461.710896 209.166884 460.643361 219.531943 458.848211 229.897001 455.987649 240.262060 451.673580 250.627119 445.526164 260.992177 437.267608 271.357236 426.840069 281.722295 414.520854 292.087353 400.995894 302.452412 387.351494 312.817471 374.959809 323.182529 365.264042 333.547588 359.505781 343.912647 358.464453 354.277705 362.284169 364.642764 370.440998 375.007823 381.860911 385.372881 395.151788 395.737940 408.880425 406.102999 421.819008 416.468057 433.105007 426.833116 442.292963 437.198175 449.311273 447.563233 454.359517 457.928292 457.787554 468.293351 459.989249 478.658409 461.328573 489.023468 462.101084 499.388527 462.523933 509.753585 462.743734 520.118644 462.852297 530.483703 462.903270 540.848761 462.926031 551.213820 462.935699 561.578879 462.939606 571.943937 462.941110 582.308996 462.941660 592.674055 462.941852 603.039113 462.941916 613.404172 462.941936 623.769231 462.941942" /></g><g class="series serie-13 color-13"><path class="line reactive nofill" d="M12.230769 462.859621 L22.595828 462.810198 32.960887 462.734756 43.325945 462.621759 53.691004 462.455705 64.056063 462.216322 74.421121 461.877845 84.786180 461.408509 95.151239 460.770441 105.516297 459.920134 115.881356 458.809704 126.246415 457.389099 136.611473 455.609356 146.976532 453.426904 157.341591 450.808734 167.706649 447.738134 178.071708 444.220435 188.436767 440.288150 198.801825 436.004728 209.166884 431.466189 219.531943 426.800018 229.897001 422.160923 240.262060 417.723399 250.627119 413.671469 260.992177 410.186341 271.357236 407.433109 281.722295 405.547835 292.087353 404.626418 302.452412 404.716506 312.817471 405.813420 323.182529 407.860550 333.547588 410.754200 343.912647 414.352291 354.277705 418.485906 364.642764 422.972381 375.007823 427.628529 385.372881 432.282681 395.737940 436.784495 406.102999 441.011838 416.468057 444.874456 426.833116 448.314566 437.198175 451.304788 447.563233 453.844091 457.928292 455.952499 468.293351 457.665296 478.658409 459.027364 489.023468 460.088141 499.388527 460.897504 509.753585 461.502693 520.118644 461.946286 530.483703 462.265089 540.848761 462.489784 551.213820 462.645119 561.578879 462.750465 571.943937 462.820563 582.308996 462.866331 592.674055 462.895658 603.039113 462.914101 613.404172 462.925486 623.769231 462.932384" /></g></g><g class="titles"><text class="title plot_title" x="400.0" y="26">Iteration #15</text><text class="title" x="462.0" y="580.0">Observation</text><text class="title" transform="rotate(-90 64.000000 282.009619)" x="64.0" y="308.0096189432334">Density</text></g><g class="plot overlay" transform="translate(144, 46)"><g class="series serie-0 color-0" /><g class="series serie-1 color-1" /><g class="series serie-2 color-2" /><g class="series serie-3 color-3" /><g class="series serie-4 color-4" /><g class="series serie-5 color-5" /><g class="series serie-6 color-6" /><g class="series serie-7 color-7" /><g class="series serie-8 color-8" /><g class="series serie-9 color-9" /><g class="series serie-10 color-10" /><g class="series serie-11 color-11" /><g class="series serie-12 color-12" /><g class="series serie-13 color-13" /></g><g class="plot text-overlay" transform="translate(144, 46)"><g class="series serie-0 color-0" /><g class="series serie-1 color-1" /><g class="series serie-2 color-2" /><g class="series serie-3 color-3" /><g class="series serie-4 color-4" /><g class="series serie-5 color-5" /><g class="series serie-6 color-6" /><g class="series serie-7 color-7" /><g class="series serie-8 color-8" /><g class="series serie-9 color-9" /><g class="series serie-10 color-10" /><g class="series serie-11 color-11" /><g class="series serie-12 color-12" /><g class="series serie-13 color-13" /></g><g class="plot tooltip-overlay" transform="translate(144, 46)"><g class="tooltip" style="opacity: 0" transform="translate(0 0)"><rect class="tooltip-box" height="0" rx="0" ry="0" width="0" /><g class="text" /></g></g><g class="legends" transform="translate(10, 56)"><g class="legend reactive activate-serie" id="activate-serie-0"><rect class="color-0 reactive" height="12" width="12" x="0.0" y="0.0" /><text x="17.0" y="9.0">Data</text></g><g class="legend reactive activate-serie" id="activate-serie-1"><rect class="color-1 reactive" height="12" width="12" x="0.0" y="18.0" /><text x="17.0" y="27.0">GMM</text></g><g class="legend reactive activate-serie" id="activate-serie-2"><rect class="color-2 reactive" height="12" width="12" x="0.0" y="36.0" /><text x="17.0" y="45.0">i=0</text></g><g class="legend reactive activate-serie" id="activate-serie-3"><rect class="color-3 reactive" height="12" width="12" x="0.0" y="54.0" /><text x="17.0" y="63.0">i=1</text></g><g class="legend reactive activate-serie" id="activate-serie-4"><rect class="color-4 reactive" height="12" width="12" x="0.0" y="72.0" /><text x="17.0" y="81.0">i=0 k=0</text></g><g class="legend reactive activate-serie" id="activate-serie-5"><rect class="color-5 reactive" height="12" width="12" x="0.0" y="90.0" /><text x="17.0" y="99.0">i=0 k=1</text></g><g class="legend reactive activate-serie" id="activate-serie-6"><rect class="color-6 reactive" height="12" width="12" x="0.0" y="108.0" /><text x="17.0" y="117.0">i=0 k=2</text></g><g class="legend reactive activate-serie" id="activate-serie-7"><rect class="color-7 reactive" height="12" width="12" x="0.0" y="126.0" /><text x="17.0" y="135.0">i=0 k=3</text></g><g class="legend reactive activate-serie" id="activate-serie-8"><rect class="color-8 reactive" height="12" width="12" x="0.0" y="144.0" /><text x="17.0" y="153.0">i=0 k=4</text></g><g class="legend reactive activate-serie" id="activate-serie-9"><rect class="color-9 reactive" height="12" width="12" x="0.0" y="162.0" /><text x="17.0" y="171.0">i=1 k=0</text></g><g class="legend reactive activate-serie" id="activate-serie-10"><rect class="color-10 reactive" height="12" width="12" x="0.0" y="180.0" /><text x="17.0" y="189.0">i=1 k=1</text></g><g class="legend reactive activate-serie" id="activate-serie-11"><rect class="color-11 reactive" height="12" width="12" x="0.0" y="198.0" /><text x="17.0" y="207.0">i=1 k=2</text></g><g class="legend reactive activate-serie" id="activate-serie-12"><rect class="color-12 reactive" height="12" width="12" x="0.0" y="216.0" /><text x="17.0" y="225.0">i=1 k=3</text></g><g class="legend reactive activate-serie" id="activate-serie-13"><rect class="color-13 reactive" height="12" width="12" x="0.0" y="234.0" /><text x="17.0" y="243.0">i=1 k=4</text></g></g><g class="legends" transform="translate(790, 56)" /></g></svg>