<?xml version='1.0' encoding='utf-8'?>
<svg xmlns:xlink="http://www.w3.org/1999/xlink" class="pygal-chart" id="chart-acd8b4d3-a5c2-4206-a84c-60082993f65e" viewBox="0 0 800 600" xmlns="http://www.w3.org/2000/svg"><!--Generated with pygal 2.4.0 (etree) ©Kozea 2012-2016 on 2018-01-17--><!--http://pygal.org--><!--http://github.com/Kozea/pygal--><defs><style type="text/css">#chart-acd8b4d3-a5c2-4206-a84c-60082993f65e{-webkit-user-select:none;-webkit-font-smoothing:antialiased;font-family:Consolas,"Liberation Mono",Menlo,Courier,monospace}#chart-acd8b4d3-a5c2-4206-a84c-60082993f65e .title{font-family:Consolas,"Liberation Mono",Menlo,Courier,monospace;font-size:16px}#chart-acd8b4d3-a5c2-4206-a84c-60082993f65e .legends .legend text{font-family:Consolas,"Liberation Mono",Menlo,Courier,monospace;font-size:10px}#chart-acd8b4d3-a5c2-4206-a84c-60082993f65e .axis text{font-family:Consolas,"Liberation Mono",Menlo,Courier,monospace;font-size:10px}#chart-acd8b4d3-a5c2-4206-a84c-60082993f65e .axis text.major{font-family:Consolas,"Liberation Mono",Menlo,Courier,monospace;font-size:10px}#chart-acd8b4d3-a5c2-4206-a84c-60082993f65e .text-overlay text.value{font-family:Consolas,"Liberation Mono",Menlo,Courier,monospace;font-size:16px}#chart-acd8b4d3-a5c2-4206-a84c-60082993f65e .text-overlay text.label{font-family:Consolas,"Liberation Mono",Menlo,Courier,monospace;font-size:10px}#chart-acd8b4d3-a5c2-4206-a84c-60082993f65e .tooltip{font-family:Consolas,"Liberation Mono",Menlo,Courier,monospace;font-size:14px}#chart-acd8b4d3-a5c2-4206-a84c-60082993f65e text.no_data{font-family:Consolas,"Liberation Mono",Menlo,Courier,monospace;font-size:64px}
#chart-acd8b4d3-a5c2-4206-a84c-60082993f65e{background-color:rgba(249,249,249,1)}#chart-acd8b4d3-a5c2-4206-a84c-60082993f65e path,#chart-acd8b4d3-a5c2-4206-a84c-60082993f65e line,#chart-acd8b4d3-a5c2-4206-a84c-60082993f65e rect,#chart-acd8b4d3-a5c2-4206-a84c-60082993f65e circle{-webkit-transition:150ms;-moz-transition:150ms;transition:150ms}#chart-acd8b4d3-a5c2-4206-a84c-60082993f65e .graph &gt; .background{fill:rgba(249,249,249,1)}#chart-acd8b4d3-a5c2-4206-a84c-60082993f65e .plot &gt; .background{fill:rgba(255,255,255,1)}#chart-acd8b4d3-a5c2-4206-a84c-60082993f65e .graph{fill:rgba(0,0,0,.87)}#chart-acd8b4d3-a5c2-4206-a84c-60082993f65e text.no_data{fill:rgba(0,0,0,1)}#chart-acd8b4d3-a5c2-4206-a84c-60082993f65e .title{fill:rgba(0,0,0,1)}#chart-acd8b4d3-a5c2-4206-a84c-60082993f65e .legends .legend text{fill:rgba(0,0,0,.87)}#chart-acd8b4d3-a5c2-4206-a84c-60082993f65e .legends .legend:hover text{fill:rgba(0,0,0,1)}#chart-acd8b4d3-a5c2-4206-a84c-60082993f65e .axis .line{stroke:rgba(0,0,0,1)}#chart-acd8b4d3-a5c2-4206-a84c-60082993f65e .axis .guide.line{stroke:rgba(0,0,0,.54)}#chart-acd8b4d3-a5c2-4206-a84c-60082993f65e .axis .major.line{stroke:rgba(0,0,0,.87)}#chart-acd8b4d3-a5c2-4206-a84c-60082993f65e .axis text.major{fill:rgba(0,0,0,1)}#chart-acd8b4d3-a5c2-4206-a84c-60082993f65e .axis.y .guides:hover .guide.line,#chart-acd8b4d3-a5c2-4206-a84c-60082993f65e .line-graph .axis.x .guides:hover .guide.line,#chart-acd8b4d3-a5c2-4206-a84c-60082993f65e .stackedline-graph .axis.x .guides:hover .guide.line,#chart-acd8b4d3-a5c2-4206-a84c-60082993f65e .xy-graph .axis.x .guides:hover .guide.line{stroke:rgba(0,0,0,1)}#chart-acd8b4d3-a5c2-4206-a84c-60082993f65e .axis .guides:hover text{fill:rgba(0,0,0,1)}#chart-acd8b4d3-a5c2-4206-a84c-60082993f65e .reactive{fill-opacity:.7;stroke-opacity:.8}#chart-acd8b4d3-a5c2-4206-a84c-60082993f65e .ci{stroke:rgba(0,0,0,.87)}#chart-acd8b4d3-a5c2-4206-a84c-60082993f65e .reactive.active,#chart-acd8b4d3-a5c2-4206-a84c-60082993f65e .active .reactive{fill-opacity:.8;stroke-opacity:.9;stroke-width:4}#chart-acd8b4d3-a5c2-4206-a84c-60082993f65e .ci .reactive.active{stroke-width:1.5}#chart-acd8b4d3-a5c2-4206-a84c-60082993f65e .series text{fill:rgba(0,0,0,1)}#chart-acd8b4d3-a5c2-4206-a84c-60082993f65e .tooltip rect{fill:rgba(255,255,255,1);stroke:rgba(0,0,0,1);-webkit-transition:opacity 150ms;-moz-transition:opacity 150ms;transition:opacity 150ms}#chart-acd8b4d3-a5c2-4206-a84c-60082993f65e .tooltip .label{fill:rgba(0,0,0,.87)}#chart-acd8b4d3-a5c2-4206-a84c-60082993f65e .tooltip .label{fill:rgba(0,0,0,.87)}#chart-acd8b4d3-a5c2-4206-a84c-60082993f65e .tooltip .legend{font-size:.8em;fill:rgba(0,0,0,.54)}#chart-acd8b4d3-a5c2-4206-a84c-60082993f65e .tooltip .x_label{font-size:.6em;fill:rgba(0,0,0,1)}#chart-acd8b4d3-a5c2-4206-a84c-60082993f65e .tooltip .xlink{font-size:.5em;text-decoration:underline}#chart-acd8b4d3-a5c2-4206-a84c-60082993f65e .tooltip .value{font-size:1.5em}#chart-acd8b4d3-a5c2-4206-a84c-60082993f65e .bound{font-size:.5em}#chart-acd8b4d3-a5c2-4206-a84c-60082993f65e .max-value{font-size:.75em;fill:rgba(0,0,0,.54)}#chart-acd8b4d3-a5c2-4206-a84c-60082993f65e .map-element{fill:rgba(255,255,255,1);stroke:rgba(0,0,0,.54) !important}#chart-acd8b4d3-a5c2-4206-a84c-60082993f65e .map-element .reactive{fill-opacity:inherit;stroke-opacity:inherit}#chart-acd8b4d3-a5c2-4206-a84c-60082993f65e .color-0,#chart-acd8b4d3-a5c2-4206-a84c-60082993f65e .color-0 a:visited{stroke:#909090;fill:#909090}#chart-acd8b4d3-a5c2-4206-a84c-60082993f65e .color-1,#chart-acd8b4d3-a5c2-4206-a84c-60082993f65e .color-1 a:visited{stroke:#000000;fill:#000000}#chart-acd8b4d3-a5c2-4206-a84c-60082993f65e .color-2,#chart-acd8b4d3-a5c2-4206-a84c-60082993f65e .color-2 a:visited{stroke:#ff0500;fill:#ff0500}#chart-acd8b4d3-a5c2-4206-a84c-60082993f65e .color-3,#chart-acd8b4d3-a5c2-4206-a84c-60082993f65e .color-3 a:visited{stroke:#323299;fill:#323299}#chart-acd8b4d3-a5c2-4206-a84c-60082993f65e .color-4,#chart-acd8b4d3-a5c2-4206-a84c-60082993f65e .color-4 a:visited{stroke:#a3413f;fill:#a3413f}#chart-acd8b4d3-a5c2-4206-a84c-60082993f65e .color-5,#chart-acd8b4d3-a5c2-4206-a84c-60082993f65e .color-5 a:visited{stroke:#a3413f;fill:#a3413f}#chart-acd8b4d3-a5c2-4206-a84c-60082993f65e .color-6,#chart-acd8b4d3-a5c2-4206-a84c-60082993f65e .color-6 a:visited{stroke:#a3413f;fill:#a3413f}#chart-acd8b4d3-a5c2-4206-a84c-60082993f65e .color-7,#chart-acd8b4d3-a5c2-4206-a84c-60082993f65e .color-7 a:visited{stroke:#a3413f;fill:#a3413f}#chart-acd8b4d3-a5c2-4206-a84c-60082993f65e .color-8,#chart-acd8b4d3-a5c2-4206-a84c-60082993f65e .color-8 a:visited{stroke:#a3413f;fill:#a3413f}#chart-acd8b4d3-a5c2-4206-a84c-60082993f65e .color-9,#chart-acd8b4d3-a5c2-4206-a84c-60082993f65e .color-9 a:visited{stroke:#657fff;fill:#657fff}#chart-acd8b4d3-a5c2-4206-a84c-60082993f65e .color-10,#chart-acd8b4d3-a5c2-4206-a84c-60082993f65e .color-10 a:visited{stroke:#657fff;fill:#657fff}#chart-acd8b4d3-a5c2-4206-a84c-60082993f65e .color-11,#chart-acd8b4d3-a5c2-4206-a84c-60082993f65e .color-11 a:visited{stroke:#657fff;fill:#657fff}#chart-acd8b4d3-a5c2-4206-a84c-60082993f65e .color-12,#chart-acd8b4d3-a5c2-4206-a84c-60082993f65e .color-12 a:visited{stroke:#657fff;fill:#657fff}#chart-acd8b4d3-a5c2-4206-a84c-60082993f65e .color-13,#chart-acd8b4d3-a5c2-4206-a84c-60082993f65e .color-13 a:visited{stroke:#657fff;fill:#657fff}#chart-acd8b4d3-a5c2-4206-a84c-60082993f65e .text-overlay .color-0 text{fill:black}#chart-acd8b4d3-a5c2-4206-a84c-60082993f65e .text-overlay .color-1 text{fill:white}#chart-acd8b4d3-a5c2-4206-a84c-60082993f65e .text-overlay .color-2 text{fill:black}#chart-acd8b4d3-a5c2-4206-a84c-60082993f65e .text-overlay .color-3 text{fill:black}#chart-acd8b4d3-a5c2-4206-a84c-60082993f65e .text-overlay .color-4 text{fill:black}#chart-acd8b4d3-a5c2-4206-a84c-60082993f65e .text-overlay .color-5 text{fill:black}#chart-acd8b4d3-a5c2-4206-a84c-60082993f65e .text-overlay .color-6 text{fill:black}#chart-acd8b4d3-a5c2-4206-a84c-60082993f65e .text-overlay .color-7 text{fill:black}#chart-acd8b4d3-a5c2-4206-a84c-60082993f65e .text-overlay .color-8 text{fill:black}#chart-acd8b4d3-a5c2-4206-a84c-60082993f65e .text-overlay .color-9 text{fill:black}#chart-acd8b4d3-a5c2-4206-a84c-60082993f65e .text-overlay .color-10 text{fill:black}#chart-acd8b4d3-a5c2-4206-a84c-60082993f65e .text-overlay .color-11 text{fill:black}#chart-acd8b4d3-a5c2-4206-a84c-60082993f65e .text-overlay .color-12 text{fill:black}#chart-acd8b4d3-a5c2-4206-a84c-60082993f65e .text-overlay .color-13 text{fill:black}#chart-acd8b4d3-a5c2-4206-a84c-60082993f65e .series.serie-1{stroke-width:5}#chart-acd8b4d3-a5c2-4206-a84c-60082993f65e .series.serie-2{stroke-width:3}#chart-acd8b4d3-a5c2-4206-a84c-60082993f65e .series.serie-3{stroke-width:3}#chart-acd8b4d3-a5c2-4206-a84c-60082993f65e .series.serie-4{stroke-width:2;stroke-dasharray:2,2}#chart-acd8b4d3-a5c2-4206-a84c-60082993f65e .series.serie-5{stroke-width:2;stroke-dasharray:2,2}#chart-acd8b4d3-a5c2-4206-a84c-60082993f65e .series.serie-6{stroke-width:2;stroke-dasharray:2,2}#chart-acd8b4d3-a5c2-4206-a84c-60082993f65e .series.serie-7{stroke-width:2;stroke-dasharray:2,2}#chart-acd8b4d3-a5c2-4206-a84c-60082993f65e .series.serie-8{stroke-width:2;stroke-dasharray:2,2}#chart-acd8b4d3-a5c2-4206-a84c-60082993f65e .series.serie-9{stroke-width:2;stroke-dasharray:2,2}#chart-acd8b4d3-a5c2-4206-a84c-60082993f65e .series.serie-10{stroke-width:2;stroke-dasharray:2,2}#chart-acd8b4d3-a5c2-4206-a84c-60082993f65e .series.serie-11{stroke-width:2;stroke-dasharray:2,2}#chart-acd8b4d3-a5c2-4206-a84c-60082993f65e .series.serie-12{stroke-width:2;stroke-dasharray:2,2}#chart-acd8b4d3-a5c2-4206-a84c-60082993f65e .series.serie-13{stroke-width:2;stroke-dasharray:2,2}
#chart-acd8b4d3-a5c2-4206-a84c-60082993f65e text.no_data{text-anchor:middle}#chart-acd8b4d3-a5c2-4206-a84c-60082993f65e .guide.line{fill:none}#chart-acd8b4d3-a5c2-4206-a84c-60082993f65e .centered{text-anchor:middle}#chart-acd8b4d3-a5c2-4206-a84c-60082993f65e .title{text-anchor:middle}#chart-acd8b4d3-a5c2-4206-a84c-60082993f65e .legends .legend text{fill-opacity:1}#chart-acd8b4d3-a5c2-4206-a84c-60082993f65e .axis.x text{text-anchor:middle}#chart-acd8b4d3-a5c2-4206-a84c-60082993f65e .axis.x:not(.web) text[transform]{text-anchor:start}#chart-acd8b4d3-a5c2-4206-a84c-60082993f65e .axis.x:not(.web) text[transform].backwards{text-anchor:end}#chart-acd8b4d3-a5c2-4206-a84c-60082993f65e .axis.y text{text-anchor:end}#chart-acd8b4d3-a5c2-4206-a84c-60082993f65e .axis.y text[transform].backwards{text-anchor:start}#chart-acd8b4d3-a5c2-4206-a84c-60082993f65e .axis.y2 text{text-anchor:start}#chart-acd8b4d3-a5c2-4206-a84c-60082993f65e .axis.y2 text[transform].backwards{text-anchor:end}#chart-acd8b4d3-a5c2-4206-a84c-60082993f65e .axis .guide.line{stroke-dasharray:4,4}#chart-acd8b4d3-a5c2-4206-a84c-60082993f65e .axis .major.guide.line{stroke-dasharray:6,6}#chart-acd8b4d3-a5c2-4206-a84c-60082993f65e .horizontal .axis.y .guide.line,#chart-acd8b4d3-a5c2-4206-a84c-60082993f65e .horizontal .axis.y2 .guide.line,#chart-acd8b4d3-a5c2-4206-a84c-60082993f65e .vertical .axis.x .guide.line{opacity:0}#chart-acd8b4d3-a5c2-4206-a84c-60082993f65e .horizontal .axis.always_show .guide.line,#chart-acd8b4d3-a5c2-4206-a84c-60082993f65e .vertical .axis.always_show .guide.line{opacity:1 !important}#chart-acd8b4d3-a5c2-4206-a84c-60082993f65e .axis.y .guides:hover .guide.line,#chart-acd8b4d3-a5c2-4206-a84c-60082993f65e .axis.y2 .guides:hover .guide.line,#chart-acd8b4d3-a5c2-4206-a84c-60082993f65e .axis.x .guides:hover .guide.line{opacity:1}#chart-acd8b4d3-a5c2-4206-a84c-60082993f65e .axis .guides:hover text{opacity:1}#chart-acd8b4d3-a5c2-4206-a84c-60082993f65e .nofill{fill:none}#chart-acd8b4d3-a5c2-4206-a84c-60082993f65e .subtle-fill{fill-opacity:.2}#chart-acd8b4d3-a5c2-4206-a84c-60082993f65e .dot{stroke-width:1px;fill-opacity:1}#chart-acd8b4d3-a5c2-4206-a84c-60082993f65e .dot.active{stroke-width:5px}#chart-acd8b4d3-a5c2-4206-a84c-60082993f65e .dot.negative{fill:transparent}#chart-acd8b4d3-a5c2-4206-a84c-60082993f65e text,#chart-acd8b4d3-a5c2-4206-a84c-60082993f65e tspan{stroke:none !important}#chart-acd8b4d3-a5c2-4206-a84c-60082993f65e .series text.active{opacity:1}#chart-acd8b4d3-a5c2-4206-a84c-60082993f65e .tooltip rect{fill-opacity:.95;stroke-width:.5}#chart-acd8b4d3-a5c2-4206-a84c-60082993f65e .tooltip text{fill-opacity:1}#chart-acd8b4d3-a5c2-4206-a84c-60082993f65e .showable{visibility:hidden}#chart-acd8b4d3-a5c2-4206-a84c-60082993f65e .showable.shown{visibility:visible}#chart-acd8b4d3-a5c2-4206-a84c-60082993f65e .gauge-background{fill:rgba(229,229,229,1);stroke:none}#chart-acd8b4d3-a5c2-4206-a84c-60082993f65e .bg-lines{stroke:rgba(249,249,249,1);stroke-width:2px}</style><script type="text/javascript">window.pygal = window.pygal || {};window.pygal.config = window.pygal.config || {};window.pygal.config['acd8b4d3-a5c2-4206-a84c-60082993f65e'] = {"disable_xml_declaration": false, "css": ["file://style.css", "file://graph.css"], "show_y_labels": true, "show_y_guides": true, "stroke": true, "force_uri_protocol": "https", "legend_at_bottom": false, "truncate_legend": null, "tooltip_border_radius": 0, "explicit_size": false, "show_dots": false, "inverse_y_axis": false, "x_label_rotation": 60, "margin_left": null, "box_mode": "extremes", "zero": 0, "no_data_text": "No data", "show_legend": true, "legend_at_bottom_columns": null, "logarithmic": false, "order_min": null, "height": 600, "y_title": "Density", "range": [0, 0.27578580090479526], "stroke_style": null, "rounded_bars": null, "print_values_position": "center", "xrange": null, "y_label_rotation": 0, "defs": [], "y_labels_major_count": null, "no_prefix": false, "pretty_print": false, "dots_size": 2.5, "half_pie": false, "secondary_range": null, "x_labels_major_count": null, "interpolation_precision": 250, "interpolate": null, "truncate_label": null, "margin_right": null, "x_labels_major_every": 2, "x_labels": ["-8.96", "-8.76", "-8.56", "-8.36", "-8.16", "-7.96", "-7.76", "-7.56", "-7.36", "-7.16", "-6.96", "-6.76", "-6.56", "-6.36", "-6.16", "-5.96", "-5.76", "-5.56", "-5.36", "-5.16", "-4.96", "-4.76", "-4.56", "-4.36", "-4.16", "-3.96", "-3.76", "-3.56", "-3.36", "-3.16", "-2.96", "-2.76", "-2.56", "-2.36", "-2.16", "-1.96", "-1.76", "-1.56", "-1.36", "-1.16", "-0.96", "-0.76", "-0.56", "-0.36", "-0.16", "0.04", "0.24", "0.44", "0.64", "0.84", "1.04", "1.24", "1.43", "1.63", "1.83", "2.03", "2.23", "2.43", "2.63", "2.83"], "include_x_axis": false, "width": 800, "show_x_guides": false, "formatter": null, "show_minor_x_labels": false, "spacing": 10, "stack_from_top": false, "legend_box_size": 12, "strict": false, "classes": ["pygal-chart"], "js": ["//kozea.github.io/pygal.js/2.0.x/pygal-tooltips.min.js"], "show_x_labels": true, "x_title": "Observation", "print_values": false, "title": "Iteration #4", "dynamic_print_values": false, "max_scale": 16, "margin": 20, "legends": ["Data", "GMM", "i=0", "i=1", "i=0 k=0", "i=0 k=1", "i=0 k=2", "i=0 k=3", "i=0 k=4", "i=1 k=0", "i=1 k=1", "i=1 k=2", "i=1 k=3", "i=1 k=4"], "interpolation_parameters": {}, "allow_interruptions": false, "min_scale": 4, "style": {"transition": "150ms", "label_font_size": 10, "major_label_font_size": 10, "value_colors": [], "title_font_family": "Consolas, \"Liberation Mono\", Menlo, Courier, monospace", "value_font_family": "Consolas, \"Liberation Mono\", Menlo, Courier, monospace", "no_data_font_size": 64, "guide_stroke_dasharray": "4,4", "tooltip_font_size": 14, "tooltip_font_family": "Consolas, \"Liberation Mono\", Menlo, Courier, monospace", "background": "rgba(249, 249, 249, 1)", "value_label_font_family": "Consolas, \"Liberation Mono\", Menlo, Courier, monospace", "stroke_opacity_hover": ".9", "ci_colors": [], "value_font_size": 16, "plot_background": "rgba(255, 255, 255, 1)", "label_font_family": "Consolas, \"Liberation Mono\", Menlo, Courier, monospace", "foreground": "rgba(0, 0, 0, .87)", "major_label_font_family": "Consolas, \"Liberation Mono\", Menlo, Courier, monospace", "stroke_opacity": ".8", "colors": ["#909090", "#000000", "#ff0500", "#323299", "#a3413f", "#a3413f", "#a3413f", "#a3413f", "#a3413f", "#657fff", "#657fff", "#657fff", "#657fff", "#657fff"], "value_label_font_size": 10, "value_background": "rgba(229, 229, 229, 1)", "no_data_font_family": "Consolas, \"Liberation Mono\", Menlo, Courier, monospace", "legend_font_size": 10, "foreground_strong": "rgba(0, 0, 0, 1)", "legend_font_family": "Consolas, \"Liberation Mono\", Menlo, Courier, monospace", "title_font_size": 16, "foreground_subtle": "rgba(0, 0, 0, .54)", "major_guide_stroke_dasharray": "6,6", "font_family": "Consolas, \"Liberation Mono\", Menlo, Courier, monospace", "opacity_hover": ".8", "opacity": ".7"}, "margin_top": null, "x_labels_major": null, "print_zeroes": true, "y_labels": null, "fill": false, "y_labels_major_every": null, "inner_radius": 0, "margin_bottom": null, "show_only_major_dots": false, "missing_value_fill_truncation": "x", "y_labels_major": null, "tooltip_fancy_mode": true, "show_minor_y_labels": true, "print_labels": false}</script><script type="text/javascript" xlink:href="https://kozea.github.io/pygal.js/2.0.x/pygal-tooltips.min.js" /></defs><title>Iteration #4</title><g class="graph line-graph vertical"><rect class="background" height="600" width="800" x="0" y="0" /><g class="plot" transform="translate(144, 46)"><rect class="background" height="472.01923788646684" width="636.0" x="0" y="0" /><g class="axis y always_show"><g class="guides"><path class="axis major line" d="M0.000000 462.941945 h636.000000" /><text class="major" x="-5" y="466.44194485">0</text><title>0</title></g><g class="guides"><path class="guide line" d="M0.000000 430.027658 h636.000000" /><text class="" x="-5" y="433.527657724">0.02</text><title>0.02</title></g><g class="guides"><path class="guide line" d="M0.000000 397.113371 h636.000000" /><text class="" x="-5" y="400.613370598">0.04</text><title>0.04</title></g><g class="guides"><path class="guide line" d="M0.000000 364.199083 h636.000000" /><text class="" x="-5" y="367.699083472">0.06</text><title>0.06</title></g><g class="guides"><path class="guide line" d="M0.000000 331.284796 h636.000000" /><text class="" x="-5" y="334.784796346">0.08</text><title>0.08</title></g><g class="guides"><path class="guide line" d="M0.000000 298.370509 h636.000000" /><text class="" x="-5" y="301.87050922">0.1</text><title>0.1</title></g><g class="guides"><path class="guide line" d="M0.000000 265.456222 h636.000000" /><text class="" x="-5" y="268.956222094">0.12</text><title>0.12</title></g><g class="guides"><path class="guide line" d="M0.000000 232.541935 h636.000000" /><text class="" x="-5" y="236.041934968">0.14</text><title>0.14</title></g><g class="guides"><path class="guide line" d="M0.000000 199.627648 h636.000000" /><text class="" x="-5" y="203.127647841">0.16</text><title>0.16</title></g><g class="guides"><path class="guide line" d="M0.000000 166.713361 h636.000000" /><text class="" x="-5" y="170.213360715">0.18</text><title>0.18</title></g><g class="guides"><path class="guide line" d="M0.000000 133.799074 h636.000000" /><text class="" x="-5" y="137.299073589">0.2</text><title>0.2</title></g><g class="guides"><path class="guide line" d="M0.000000 100.884786 h636.000000" /><text class="" x="-5" y="104.384786463">0.22</text><title>0.22</title></g><g class="guides"><path class="guide line" d="M0.000000 67.970499 h636.000000" /><text class="" x="-5" y="71.4704993371">0.24</text><title>0.24</title></g><g class="guides"><path class="guide line" d="M0.000000 35.056212 h636.000000" /><text class="" x="-5" y="38.5562122111">0.26</text><title>0.26</title></g></g><g class="axis x"><g class="guides"><path class="major line" d="M12.230769 0.000000 v472.019238" /><text class="major" transform="rotate(60 12.230769 487.019238)" x="12.230769230769232" y="487.01923788646684">-8.96</text></g><g class="guides"><path class="major guide line" d="M32.960887 0.000000 v472.019238" /><text class="major" transform="rotate(60 32.960887 487.019238)" x="32.96088657105606" y="487.01923788646684">-8.56</text></g><g class="guides"><path class="major guide line" d="M53.691004 0.000000 v472.019238" /><text class="major" transform="rotate(60 53.691004 487.019238)" x="53.6910039113429" y="487.01923788646684">-8.16</text></g><g class="guides"><path class="major guide line" d="M74.421121 0.000000 v472.019238" /><text class="major" transform="rotate(60 74.421121 487.019238)" x="74.42112125162973" y="487.01923788646684">-7.76</text></g><g class="guides"><path class="major guide line" d="M95.151239 0.000000 v472.019238" /><text class="major" transform="rotate(60 95.151239 487.019238)" x="95.15123859191655" y="487.01923788646684">-7.36</text></g><g class="guides"><path class="major guide line" d="M115.881356 0.000000 v472.019238" /><text class="major" transform="rotate(60 115.881356 487.019238)" x="115.88135593220338" y="487.01923788646684">-6.96</text></g><g class="guides"><path class="major guide line" d="M136.611473 0.000000 v472.019238" /><text class="major" transform="rotate(60 136.611473 487.019238)" x="136.61147327249023" y="487.01923788646684">-6.56</text></g><g class="guides"><path class="major guide line" d="M157.341591 0.000000 v472.019238" /><text class="major" transform="rotate(60 157.341591 487.019238)" x="157.34159061277705" y="487.01923788646684">-6.16</text></g><g class="guides"><path class="major guide line" d="M178.071708 0.000000 v472.019238" /><text class="major" transform="rotate(60 178.071708 487.019238)" x="178.0717079530639" y="487.01923788646684">-5.76</text></g><g class="guides"><path class="major guide line" d="M198.801825 0.000000 v472.019238" /><text class="major" transform="rotate(60 198.801825 487.019238)" x="198.80182529335073" y="487.01923788646684">-5.36</text></g><g class="guides"><path class="major guide line" d="M219.531943 0.000000 v472.019238" /><text class="major" transform="rotate(60 219.531943 487.019238)" x="219.53194263363756" y="487.01923788646684">-4.96</text></g><g class="guides"><path class="major guide line" d="M240.262060 0.000000 v472.019238" /><text class="major" transform="rotate(60 240.262060 487.019238)" x="240.2620599739244" y="487.01923788646684">-4.56</text></g><g class="guides"><path class="major guide line" d="M260.992177 0.000000 v472.019238" /><text class="major" transform="rotate(60 260.992177 487.019238)" x="260.99217731421123" y="487.01923788646684">-4.16</text></g><g class="guides"><path class="major guide line" d="M281.722295 0.000000 v472.019238" /><text class="major" transform="rotate(60 281.722295 487.019238)" x="281.722294654498" y="487.01923788646684">-3.76</text></g><g class="guides"><path class="major guide line" d="M302.452412 0.000000 v472.019238" /><text class="major" transform="rotate(60 302.452412 487.019238)" x="302.4524119947849" y="487.01923788646684">-3.36</text></g><g class="guides"><path class="major guide line" d="M323.182529 0.000000 v472.019238" /><text class="major" transform="rotate(60 323.182529 487.019238)" x="323.1825293350717" y="487.01923788646684">-2.96</text></g><g class="guides"><path class="major guide line" d="M343.912647 0.000000 v472.019238" /><text class="major" transform="rotate(60 343.912647 487.019238)" x="343.91264667535853" y="487.01923788646684">-2.56</text></g><g class="guides"><path class="major guide line" d="M364.642764 0.000000 v472.019238" /><text class="major" transform="rotate(60 364.642764 487.019238)" x="364.64276401564535" y="487.01923788646684">-2.16</text></g><g class="guides"><path class="major guide line" d="M385.372881 0.000000 v472.019238" /><text class="major" transform="rotate(60 385.372881 487.019238)" x="385.37288135593224" y="487.01923788646684">-1.76</text></g><g class="guides"><path class="major guide line" d="M406.102999 0.000000 v472.019238" /><text class="major" transform="rotate(60 406.102999 487.019238)" x="406.102998696219" y="487.01923788646684">-1.36</text></g><g class="guides"><path class="major guide line" d="M426.833116 0.000000 v472.019238" /><text class="major" transform="rotate(60 426.833116 487.019238)" x="426.8331160365058" y="487.01923788646684">-0.96</text></g><g class="guides"><path class="major guide line" d="M447.563233 0.000000 v472.019238" /><text class="major" transform="rotate(60 447.563233 487.019238)" x="447.56323337679265" y="487.01923788646684">-0.56</text></g><g class="guides"><path class="major guide line" d="M468.293351 0.000000 v472.019238" /><text class="major" transform="rotate(60 468.293351 487.019238)" x="468.29335071707953" y="487.01923788646684">-0.16</text></g><g class="guides"><path class="major guide line" d="M489.023468 0.000000 v472.019238" /><text class="major" transform="rotate(60 489.023468 487.019238)" x="489.02346805736636" y="487.01923788646684">0.24</text></g><g class="guides"><path class="major guide line" d="M509.753585 0.000000 v472.019238" /><text class="major" transform="rotate(60 509.753585 487.019238)" x="509.75358539765324" y="487.01923788646684">0.64</text></g><g class="guides"><path class="major guide line" d="M530.483703 0.000000 v472.019238" /><text class="major" transform="rotate(60 530.483703 487.019238)" x="530.48370273794" y="487.01923788646684">1.04</text></g><g class="guides"><path class="major guide line" d="M551.213820 0.000000 v472.019238" /><text class="major" transform="rotate(60 551.213820 487.019238)" x="551.213820078227" y="487.01923788646684">1.43</text></g><g class="guides"><path class="major guide line" d="M571.943937 0.000000 v472.019238" /><text class="major" transform="rotate(60 571.943937 487.019238)" x="571.9439374185138" y="487.01923788646684">1.83</text></g><g class="guides"><path class="major guide line" d="M592.674055 0.000000 v472.019238" /><text class="major" transform="rotate(60 592.674055 487.019238)" x="592.6740547588006" y="487.01923788646684">2.23</text></g><g class="guides"><path class="major guide line" d="M613.404172 0.000000 v472.019238" /><text class="major" transform="rotate(60 613.404172 487.019238)" x="613.4041720990874" y="487.01923788646684">2.63</text></g></g><g class="series serie-0 color-0"><path class="line reactive" d="M12.230769 462.941945 L12.230769 462.019456 22.595828 462.941945 32.960887 461.096967 43.325945 462.019456 53.691004 459.251988 64.056063 462.019456 74.421121 458.329499 84.786180 462.019456 95.151239 458.329499 105.516297 462.019456 115.881356 448.182119 126.246415 460.174477 136.611473 457.407010 146.976532 457.407010 157.341591 451.872075 167.706649 448.182119 178.071708 454.639543 188.436767 445.414651 198.801825 442.647184 209.166884 436.189760 219.531943 437.112249 229.897001 392.832771 240.262060 396.522728 250.627119 376.227967 260.992177 355.933206 271.357236 351.320760 281.722295 325.491065 292.087353 277.521630 302.452412 283.056565 312.817471 202.800010 323.182529 188.040184 333.547588 169.590402 343.912647 123.465945 354.277705 95.791271 364.642764 67.194108 375.007823 82.876423 385.372881 60.736684 395.737940 80.108956 406.102999 29.372054 416.468057 9.077293 426.833116 70.884065 437.198175 69.039086 447.563233 41.364413 457.928292 40.441923 468.293351 91.178826 478.658409 140.993239 489.023468 214.792369 499.388527 259.071847 509.753585 321.801108 520.118644 364.235608 530.483703 408.515086 540.848761 430.654825 551.213820 448.182119 561.578879 455.562032 571.943937 458.329499 582.308996 458.329499 592.674055 462.019456 603.039113 462.941945 613.404172 462.019456 623.769231 462.941945" /></g><g class="series serie-1 color-1"><path class="line reactive nofill" d="M12.230769 462.927626 L22.595828 462.915657 32.960887 462.894704 43.325945 462.858846 53.691004 462.798861 64.056063 462.700783 74.421121 462.544071 84.786180 462.299403 95.151239 461.926221 105.516297 461.370246 115.881356 460.561366 126.246415 459.412421 136.611473 457.819559 146.976532 455.664883 157.341591 452.821975 167.706649 449.164545 178.071708 444.577711 188.436767 438.970220 198.801825 432.284295 209.166884 424.497848 219.531943 415.612533 229.897001 405.621672 240.262060 394.456735 250.627119 381.920865 260.992177 367.632048 271.357236 351.011470 281.722295 331.355205 292.087353 308.009934 302.452412 280.633649 312.817471 249.470991 323.182529 215.534797 333.547588 180.589036 343.912647 146.887924 354.277705 116.726800 364.642764 91.957932 375.007823 73.659069 385.372881 62.060815 395.737940 56.640933 406.102999 56.127010 416.468057 58.310556 426.833116 60.162622 437.198175 59.136371 447.563233 55.726500 457.928292 55.452675 468.293351 67.574006 478.658409 100.016527 489.023468 153.784279 499.388527 221.370108 509.753585 290.518192 520.118644 350.272491 530.483703 395.010402 540.848761 424.670291 551.213820 442.465375 561.578879 452.353237 571.943937 457.564674 582.308996 460.228873 592.674055 461.573492 603.039113 462.250861 613.404172 462.593010 623.769231 462.766290" /></g><g class="series serie-2 color-2"><path class="line reactive nofill" d="M12.230769 462.941945 L22.595828 462.941945 32.960887 462.941945 43.325945 462.941945 53.691004 462.941945 64.056063 462.941945 74.421121 462.941945 84.786180 462.941945 95.151239 462.941945 105.516297 462.941945 115.881356 462.941945 126.246415 462.941945 136.611473 462.941945 146.976532 462.941945 157.341591 462.941945 167.706649 462.941945 178.071708 462.941945 188.436767 462.941944 198.801825 462.941943 209.166884 462.941939 219.531943 462.941930 229.897001 462.941908 240.262060 462.941855 250.627119 462.941730 260.992177 462.941446 271.357236 462.940809 281.722295 462.939412 292.087353 462.936393 302.452412 462.929963 312.817471 462.916392 323.182529 462.887870 333.547588 462.827720 343.912647 462.699224 354.277705 462.418656 364.642764 461.791002 375.007823 460.367867 385.372881 457.176734 395.737940 450.321326 406.102999 436.643229 416.468057 411.960627 426.833116 372.576191 437.198175 318.217060 447.563233 255.116798 457.928292 196.566627 468.293351 158.873264 478.658409 153.914649 489.023468 182.915560 499.388527 235.944807 509.753585 297.418905 520.118644 353.477323 530.483703 396.537001 540.848761 425.442609 551.213820 442.882502 561.578879 452.588645 571.943937 457.699741 582.308996 460.306125 592.674055 461.617077 603.039113 462.275002 613.404172 462.606112 623.769231 462.773253" /></g><g class="series serie-3 color-3"><path class="line reactive nofill" d="M12.230769 462.927626 L22.595828 462.915657 32.960887 462.894704 43.325945 462.858846 53.691004 462.798861 64.056063 462.700783 74.421121 462.544071 84.786180 462.299403 95.151239 461.926221 105.516297 461.370246 115.881356 460.561366 126.246415 459.412421 136.611473 457.819559 146.976532 455.664883 157.341591 452.821975 167.706649 449.164545 178.071708 444.577711 188.436767 438.970221 198.801825 432.284297 209.166884 424.497854 219.531943 415.612548 229.897001 405.621709 240.262060 394.456825 250.627119 381.921080 260.992177 367.632547 271.357236 351.012606 281.722295 331.357739 292.087353 308.015485 302.452412 280.645631 312.817471 249.496544 323.182529 215.588872 333.547588 180.703261 343.912647 147.130644 354.277705 117.250089 364.642764 93.108874 375.007823 76.233147 385.372881 67.826026 395.737940 69.261552 406.102999 82.425726 416.468057 109.291874 426.833116 150.528376 437.198175 203.861256 447.563233 263.551647 457.928292 321.827993 468.293351 371.642687 478.658409 409.043824 489.023468 433.810664 499.388527 448.367246 509.753585 456.041232 520.118644 459.737113 530.483703 461.415346 540.848761 462.169627 551.213820 462.524818 561.578879 462.706537 571.943937 462.806878 582.308996 462.864692 592.674055 462.898360 603.039113 462.917804 613.404172 462.928842 623.769231 462.934981" /></g><g class="series serie-4 color-4"><path class="line reactive nofill" d="M12.230769 462.941945 L22.595828 462.941945 32.960887 462.941945 43.325945 462.941945 53.691004 462.941945 64.056063 462.941945 74.421121 462.941945 84.786180 462.941945 95.151239 462.941945 105.516297 462.941945 115.881356 462.941945 126.246415 462.941945 136.611473 462.941945 146.976532 462.941945 157.341591 462.941945 167.706649 462.941945 178.071708 462.941945 188.436767 462.941945 198.801825 462.941945 209.166884 462.941945 219.531943 462.941945 229.897001 462.941945 240.262060 462.941945 250.627119 462.941945 260.992177 462.941945 271.357236 462.941945 281.722295 462.941945 292.087353 462.941945 302.452412 462.941942 312.817471 462.941921 323.182529 462.941768 333.547588 462.940811 343.912647 462.935591 354.277705 462.910763 364.642764 462.807933 375.007823 462.437524 385.372881 461.279107 395.737940 458.141136 406.102999 450.802830 416.468057 436.059576 426.833116 410.803744 437.198175 374.378905 447.563233 331.190025 457.928292 291.281846 468.293351 267.062109 478.658409 267.184597 489.023468 291.603674 499.388527 331.601448 509.753585 374.765843 520.118644 411.096440 530.483703 436.243911 540.848761 450.901142 551.213820 458.185970 561.578879 461.296696 571.943937 462.443483 582.308996 462.809681 592.674055 462.911208 603.039113 462.935689 613.404172 462.940830 623.769231 462.941771" /></g><g class="series serie-5 color-5"><path class="line reactive nofill" d="M12.230769 462.941945 L22.595828 462.941945 32.960887 462.941945 43.325945 462.941945 53.691004 462.941945 64.056063 462.941945 74.421121 462.941945 84.786180 462.941945 95.151239 462.941945 105.516297 462.941945 115.881356 462.941945 126.246415 462.941945 136.611473 462.941945 146.976532 462.941945 157.341591 462.941945 167.706649 462.941945 178.071708 462.941945 188.436767 462.941945 198.801825 462.941945 209.166884 462.941945 219.531943 462.941945 229.897001 462.941945 240.262060 462.941945 250.627119 462.941945 260.992177 462.941945 271.357236 462.941945 281.722295 462.941943 292.087353 462.941932 302.452412 462.941877 312.817471 462.941610 323.182529 462.940439 333.547588 462.935798 343.912647 462.919176 354.277705 462.865408 364.642764 462.708489 375.007823 462.295777 385.372881 461.319034 395.737940 459.243218 406.102999 455.292710 416.468057 448.587316 426.833116 438.497836 437.198175 425.170406 447.563233 409.980063 457.928292 395.555834 468.293351 385.140866 478.658409 381.432282 489.023468 385.452807 499.388527 396.095116 509.753585 410.614559 520.118644 425.772548 530.483703 438.983962 540.848761 448.929199 551.213820 455.504830 561.578879 459.360206 571.943937 461.376666 582.308996 462.321222 592.674055 462.718582 603.039113 462.869010 613.404172 462.920334 623.769231 462.936134" /></g><g class="series serie-6 color-6"><path class="line reactive nofill" d="M12.230769 462.941945 L22.595828 462.941945 32.960887 462.941945 43.325945 462.941945 53.691004 462.941945 64.056063 462.941945 74.421121 462.941945 84.786180 462.941945 95.151239 462.941945 105.516297 462.941945 115.881356 462.941945 126.246415 462.941945 136.611473 462.941945 146.976532 462.941945 157.341591 462.941945 167.706649 462.941945 178.071708 462.941945 188.436767 462.941945 198.801825 462.941945 209.166884 462.941945 219.531943 462.941945 229.897001 462.941945 240.262060 462.941944 250.627119 462.941943 260.992177 462.941937 271.357236 462.941915 281.722295 462.941835 292.087353 462.941561 302.452412 462.940690 312.817471 462.938110 323.182529 462.930986 333.547588 462.912655 343.912647 462.868729 354.277705 462.770776 364.642764 462.567687 375.007823 462.176620 385.372881 461.478253 395.737940 460.323866 406.102999 458.562243 416.468057 456.089659 426.833116 452.915307 437.198175 449.220366 447.563233 445.379627 457.928292 441.919245 468.293351 439.406408 478.658409 438.299223 489.023468 438.810564 499.388527 440.841316 509.753585 444.011709 520.118644 447.777156 530.483703 451.580184 540.848761 454.980647 551.213820 457.724582 561.578879 459.744175 571.943937 461.108904 582.308996 461.959233 592.674055 462.449215 603.039113 462.710887 613.404172 462.840609 623.769231 462.900379" /></g><g class="series serie-7 color-7"><path class="line reactive nofill" d="M12.230769 462.941945 L22.595828 462.941945 32.960887 462.941945 43.325945 462.941945 53.691004 462.941945 64.056063 462.941945 74.421121 462.941945 84.786180 462.941945 95.151239 462.941945 105.516297 462.941945 115.881356 462.941945 126.246415 462.941945 136.611473 462.941945 146.976532 462.941945 157.341591 462.941945 167.706649 462.941945 178.071708 462.941945 188.436767 462.941945 198.801825 462.941945 209.166884 462.941944 219.531943 462.941943 229.897001 462.941939 240.262060 462.941928 250.627119 462.941896 260.992177 462.941810 271.357236 462.941585 281.722295 462.941031 292.087353 462.939731 302.452412 462.936825 312.817471 462.930651 323.182529 462.918176 333.547588 462.894220 343.912647 462.850521 354.277705 462.774856 364.642764 462.650596 375.007823 462.457266 385.372881 462.172689 395.737940 461.777112 406.102999 461.259148 416.468057 460.622545 426.833116 459.891978 437.198175 459.115546 447.563233 458.361992 457.928292 457.711876 468.293351 457.243852 478.658409 457.019143 489.023468 457.068397 499.388527 457.384829 509.753585 457.925754 520.118644 458.622038 530.483703 459.392583 540.848761 460.159659 551.213820 460.861152 561.578879 461.457269 571.943937 461.931273 582.308996 462.285551 592.674055 462.535226 603.039113 462.701509 613.404172 462.806338 623.769231 462.868976" /></g><g class="series serie-8 color-8"><path class="line reactive nofill" d="M12.230769 462.941945 L22.595828 462.941945 32.960887 462.941945 43.325945 462.941945 53.691004 462.941945 64.056063 462.941945 74.421121 462.941945 84.786180 462.941945 95.151239 462.941945 105.516297 462.941945 115.881356 462.941945 126.246415 462.941945 136.611473 462.941945 146.976532 462.941945 157.341591 462.941945 167.706649 462.941945 178.071708 462.941945 188.436767 462.941944 198.801825 462.941943 209.166884 462.941940 219.531943 462.941932 229.897001 462.941913 240.262060 462.941872 250.627119 462.941780 260.992177 462.941588 271.357236 462.941199 281.722295 462.940437 292.087353 462.939004 302.452412 462.936408 312.817471 462.931880 323.182529 462.924280 333.547588 462.912015 343.912647 462.892987 354.277705 462.864632 364.642764 462.824076 375.007823 462.768460 385.372881 462.695431 395.737940 462.603773 406.102999 462.494078 416.468057 462.369311 426.833116 462.235105 437.198175 462.099617 447.563233 461.972871 457.928292 461.865606 468.293351 461.787808 478.658409 461.747183 489.023468 461.747898 499.388527 461.789878 509.753585 461.868820 520.118644 461.976920 530.483703 462.104140 540.848761 462.239741 551.213820 462.373747 561.578879 462.498079 571.943937 462.607195 582.308996 462.698217 592.674055 462.770626 603.039113 462.825687 613.404172 462.865780 623.769231 462.893772" /></g><g class="series serie-9 color-9"><path class="line reactive nofill" d="M12.230769 462.941945 L22.595828 462.941945 32.960887 462.941945 43.325945 462.941945 53.691004 462.941945 64.056063 462.941945 74.421121 462.941945 84.786180 462.941945 95.151239 462.941945 105.516297 462.941945 115.881356 462.941945 126.246415 462.941945 136.611473 462.941945 146.976532 462.941945 157.341591 462.941945 167.706649 462.941945 178.071708 462.941945 188.436767 462.941945 198.801825 462.941945 209.166884 462.941945 219.531943 462.941945 229.897001 462.941945 240.262060 462.941945 250.627119 462.941945 260.992177 462.941942 271.357236 462.941925 281.722295 462.941809 292.087353 462.941137 302.452412 462.937711 312.817471 462.922398 323.182529 462.862473 333.547588 462.657403 343.912647 462.044801 354.277705 460.451014 364.642764 456.851561 375.007823 449.828668 385.372881 438.078495 395.737940 421.427889 406.102999 401.902225 416.468057 383.908029 426.833116 372.826742 437.198175 372.459105 447.563233 382.936788 457.928292 400.646924 468.293351 420.227744 478.658409 437.150550 489.023468 449.228045 499.388527 456.520530 509.753585 460.294152 520.118644 461.980507 530.483703 462.634518 540.848761 462.855379 551.213820 462.920480 561.578879 462.937258 571.943937 462.941044 582.308996 462.941792 592.674055 462.941922 603.039113 462.941942 613.404172 462.941945 623.769231 462.941945" /></g><g class="series serie-10 color-10"><path class="line reactive nofill" d="M12.230769 462.941945 L22.595828 462.941945 32.960887 462.941945 43.325945 462.941945 53.691004 462.941945 64.056063 462.941945 74.421121 462.941945 84.786180 462.941945 95.151239 462.941945 105.516297 462.941945 115.881356 462.941945 126.246415 462.941945 136.611473 462.941945 146.976532 462.941945 157.341591 462.941945 167.706649 462.941945 178.071708 462.941945 188.436767 462.941945 198.801825 462.941945 209.166884 462.941944 219.531943 462.941939 229.897001 462.941914 240.262060 462.941780 250.627119 462.941153 260.992177 462.938502 271.357236 462.928365 281.722295 462.893373 292.087353 462.784376 302.452412 462.478345 312.817471 461.704843 323.182529 459.947924 333.547588 456.370027 343.912647 449.858648 354.277705 439.319219 364.642764 424.258018 375.007823 405.488133 385.372881 385.550155 395.737940 368.392567 406.102999 358.178394 416.468057 357.661069 426.833116 366.984977 437.198175 383.620377 447.563233 403.472510 457.928292 422.504465 468.293351 438.003918 478.658409 448.993434 489.023468 455.866050 499.388527 459.686408 509.753585 461.583470 520.118644 462.427820 530.483703 462.765474 540.848761 462.887008 551.213820 462.926434 561.578879 462.937973 571.943937 462.941022 582.308996 462.941751 592.674055 462.941908 603.039113 462.941938 613.404172 462.941944 623.769231 462.941945" /></g><g class="series serie-11 color-11"><path class="line reactive nofill" d="M12.230769 462.941945 L22.595828 462.941945 32.960887 462.941945 43.325945 462.941945 53.691004 462.941945 64.056063 462.941945 74.421121 462.941945 84.786180 462.941945 95.151239 462.941945 105.516297 462.941945 115.881356 462.941945 126.246415 462.941945 136.611473 462.941945 146.976532 462.941945 157.341591 462.941943 167.706649 462.941938 178.071708 462.941912 188.436767 462.941800 198.801825 462.941361 209.166884 462.939759 219.531943 462.934354 229.897001 462.917506 240.262060 462.868977 250.627119 462.739907 260.992177 462.423164 271.357236 461.706616 281.722295 460.214042 292.087353 457.355659 302.452412 452.333167 312.817471 444.258565 323.182529 432.428348 333.547588 416.727338 343.912647 398.031735 354.277705 378.395635 364.642764 360.818796 375.007823 348.548372 385.372881 344.111712 395.737940 348.469710 406.102999 360.678299 416.468057 378.221101 426.833116 397.853010 437.198175 416.568223 447.563233 432.302236 457.928292 444.168447 468.293351 452.274665 478.658409 457.320991 489.023468 460.195226 499.388527 461.697240 509.753585 462.418867 520.118644 462.738093 530.483703 462.868272 540.848761 462.917253 551.213820 462.934270 561.578879 462.939733 571.943937 462.941354 582.308996 462.941798 592.674055 462.941911 603.039113 462.941938 613.404172 462.941943 623.769231 462.941945" /></g><g class="series serie-12 color-12"><path class="line reactive nofill" d="M12.230769 462.941945 L22.595828 462.941945 32.960887 462.941945 43.325945 462.941945 53.691004 462.941945 64.056063 462.941945 74.421121 462.941945 84.786180 462.941945 95.151239 462.941945 105.516297 462.941943 115.881356 462.941939 126.246415 462.941918 136.611473 462.941840 146.976532 462.941557 157.341591 462.940600 167.706649 462.937567 178.071708 462.928568 188.436767 462.903589 198.801825 462.838722 209.166884 462.681232 219.531943 462.323936 229.897001 461.567039 240.262060 460.071183 250.627119 457.316372 260.992177 452.595714 271.357236 445.083518 281.722295 434.011847 292.087353 418.957179 302.452412 400.179430 312.817471 378.890716 323.182529 357.300710 333.547588 338.327455 343.912647 324.983182 354.277705 319.599202 364.642764 323.161054 375.007823 335.013957 385.372881 353.059325 395.737940 374.361447 406.102999 395.923723 416.468057 415.354394 426.833116 431.228787 437.198175 443.106987 447.563233 451.298841 457.928292 456.527606 468.293351 459.625439 478.658409 461.332577 489.023468 462.208993 499.388527 462.628659 509.753585 462.816269 520.118644 462.894629 530.483703 462.925226 540.848761 462.936400 551.213820 462.940219 561.578879 462.941441 571.943937 462.941807 582.308996 462.941909 592.674055 462.941936 603.039113 462.941943 613.404172 462.941944 623.769231 462.941945" /></g><g class="series serie-13 color-13"><path class="line reactive nofill" d="M12.230769 462.927626 L22.595828 462.915657 32.960887 462.894704 43.325945 462.858846 53.691004 462.798861 64.056063 462.700783 74.421121 462.544071 84.786180 462.299403 95.151239 461.926221 105.516297 461.370247 115.881356 460.561372 126.246415 459.412447 136.611473 457.819664 146.976532 455.665271 157.341591 452.823321 167.706649 449.168931 178.071708 444.591120 188.436767 439.008722 198.801825 432.388104 209.166884 424.760754 219.531943 416.238153 229.897001 407.021085 240.262060 397.400719 250.627119 387.749484 260.992177 378.501004 271.357236 370.119961 281.722295 363.064447 292.087353 357.744913 302.452412 354.484758 312.817471 353.487801 323.182529 354.817198 333.547588 358.388819 343.912647 363.980059 354.277705 371.252799 364.642764 379.787224 375.007823 389.121796 385.372881 398.794119 395.737940 408.377719 406.102999 417.510864 416.468057 425.915061 426.833116 433.402639 437.198175 439.874345 447.563233 445.309052 457.928292 449.748331 468.293351 453.278700 478.658409 456.014051 489.023468 458.080130 499.388527 459.602189 509.753585 460.696254 520.118644 461.463843 530.483703 461.989636 540.848761 462.341366 551.213820 462.571195 561.578879 462.717912 571.943937 462.809431 582.308996 462.865221 592.674055 462.898462 603.039113 462.917822 613.404172 462.928846 623.769231 462.934982" /></g></g><g class="titles"><text class="title plot_title" x="400.0" y="26">Iteration #4</text><text class="title" x="462.0" y="580.0">Observation</text><text class="title" transform="rotate(-90 64.000000 282.009619)" x="64.0" y="308.0096189432334">Density</text></g><g class="plot overlay" transform="translate(144, 46)"><g class="series serie-0 color-0" /><g class="series serie-1 color-1" /><g class="series serie-2 color-2" /><g class="series serie-3 color-3" /><g class="series serie-4 color-4" /><g class="series serie-5 color-5" /><g class="series serie-6 color-6" /><g class="series serie-7 color-7" /><g class="series serie-8 color-8" /><g class="series serie-9 color-9" /><g class="series serie-10 color-10" /><g class="series serie-11 color-11" /><g class="series serie-12 color-12" /><g class="series serie-13 color-13" /></g><g class="plot text-overlay" transform="translate(144, 46)"><g class="series serie-0 color-0" /><g class="series serie-1 color-1" /><g class="series serie-2 color-2" /><g class="series serie-3 color-3" /><g class="series serie-4 color-4" /><g class="series serie-5 color-5" /><g class="series serie-6 color-6" /><g class="series serie-7 color-7" /><g class="series serie-8 color-8" /><g class="series serie-9 color-9" /><g class="series serie-10 color-10" /><g class="series serie-11 color-11" /><g class="series serie-12 color-12" /><g class="series serie-13 color-13" /></g><g class="plot tooltip-overlay" transform="translate(144, 46)"><g class="tooltip" style="opacity: 0" transform="translate(0 0)"><rect class="tooltip-box" height="0" rx="0" ry="0" width="0" /><g class="text" /></g></g><g class="legends" transform="translate(10, 56)"><g class="legend reactive activate-serie" id="activate-serie-0"><rect class="color-0 reactive" height="12" width="12" x="0.0" y="0.0" /><text x="17.0" y="9.0">Data</text></g><g class="legend reactive activate-serie" id="activate-serie-1"><rect class="color-1 reactive" height="12" width="12" x="0.0" y="18.0" /><text x="17.0" y="27.0">GMM</text></g><g class="legend reactive activate-serie" id="activate-serie-2"><rect class="color-2 reactive" height="12" width="12" x="0.0" y="36.0" /><text x="17.0" y="45.0">i=0</text></g><g class="legend reactive activate-serie" id="activate-serie-3"><rect class="color-3 reactive" height="12" width="12" x="0.0" y="54.0" /><text x="17.0" y="63.0">i=1</text></g><g class="legend reactive activate-serie" id="activate-serie-4"><rect class="color-4 reactive" height="12" width="12" x="0.0" y="72.0" /><text x="17.0" y="81.0">i=0 k=0</text></g><g class="legend reactive activate-serie" id="activate-serie-5"><rect class="color-5 reactive" height="12" width="12" x="0.0" y="90.0" /><text x="17.0" y="99.0">i=0 k=1</text></g><g class="legend reactive activate-serie" id="activate-serie-6"><rect class="color-6 reactive" height="12" width="12" x="0.0" y="108.0" /><text x="17.0" y="117.0">i=0 k=2</text></g><g class="legend reactive activate-serie" id="activate-serie-7"><rect class="color-7 reactive" height="12" width="12" x="0.0" y="126.0" /><text x="17.0" y="135.0">i=0 k=3</text></g><g class="legend reactive activate-serie" id="activate-serie-8"><rect class="color-8 reactive" height="12" width="12" x="0.0" y="144.0" /><text x="17.0" y="153.0">i=0 k=4</text></g><g class="legend reactive activate-serie" id="activate-serie-9"><rect class="color-9 reactive" height="12" width="12" x="0.0" y="162.0" /><text x="17.0" y="171.0">i=1 k=0</text></g><g class="legend reactive activate-serie" id="activate-serie-10"><rect class="color-10 reactive" height="12" width="12" x="0.0" y="180.0" /><text x="17.0" y="189.0">i=1 k=1</text></g><g class="legend reactive activate-serie" id="activate-serie-11"><rect class="color-11 reactive" height="12" width="12" x="0.0" y="198.0" /><text x="17.0" y="207.0">i=1 k=2</text></g><g class="legend reactive activate-serie" id="activate-serie-12"><rect class="color-12 reactive" height="12" width="12" x="0.0" y="216.0" /><text x="17.0" y="225.0">i=1 k=3</text></g><g class="legend reactive activate-serie" id="activate-serie-13"><rect class="color-13 reactive" height="12" width="12" x="0.0" y="234.0" /><text x="17.0" y="243.0">i=1 k=4</text></g></g><g class="legends" transform="translate(790, 56)" /></g></svg>