<?xml version='1.0' encoding='utf-8'?>
<svg xmlns:xlink="http://www.w3.org/1999/xlink" class="pygal-chart" id="chart-b1304452-7c9f-47f8-ac68-8b53c9da099e" viewBox="0 0 800 600" xmlns="http://www.w3.org/2000/svg"><!--Generated with pygal 2.4.0 (etree) ©Kozea 2012-2016 on 2017-12-19--><!--http://pygal.org--><!--http://github.com/Kozea/pygal--><defs><style type="text/css">#chart-b1304452-7c9f-47f8-ac68-8b53c9da099e{-webkit-user-select:none;-webkit-font-smoothing:antialiased;font-family:Consolas,"Liberation Mono",Menlo,Courier,monospace}#chart-b1304452-7c9f-47f8-ac68-8b53c9da099e .title{font-family:Consolas,"Liberation Mono",Menlo,Courier,monospace;font-size:16px}#chart-b1304452-7c9f-47f8-ac68-8b53c9da099e .legends .legend text{font-family:Consolas,"Liberation Mono",Menlo,Courier,monospace;font-size:10px}#chart-b1304452-7c9f-47f8-ac68-8b53c9da099e .axis text{font-family:Consolas,"Liberation Mono",Menlo,Courier,monospace;font-size:10px}#chart-b1304452-7c9f-47f8-ac68-8b53c9da099e .axis text.major{font-family:Consolas,"Liberation Mono",Menlo,Courier,monospace;font-size:10px}#chart-b1304452-7c9f-47f8-ac68-8b53c9da099e .text-overlay text.value{font-family:Consolas,"Liberation Mono",Menlo,Courier,monospace;font-size:16px}#chart-b1304452-7c9f-47f8-ac68-8b53c9da099e .text-overlay text.label{font-family:Consolas,"Liberation Mono",Menlo,Courier,monospace;font-size:10px}#chart-b1304452-7c9f-47f8-ac68-8b53c9da099e .tooltip{font-family:Consolas,"Liberation Mono",Menlo,Courier,monospace;font-size:14px}#chart-b1304452-7c9f-47f8-ac68-8b53c9da099e text.no_data{font-family:Consolas,"Liberation Mono",Menlo,Courier,monospace;font-size:64px}
#chart-b1304452-7c9f-47f8-ac68-8b53c9da099e{background-color:rgba(249,249,249,1)}#chart-b1304452-7c9f-47f8-ac68-8b53c9da099e path,#chart-b1304452-7c9f-47f8-ac68-8b53c9da099e line,#chart-b1304452-7c9f-47f8-ac68-8b53c9da099e rect,#chart-b1304452-7c9f-47f8-ac68-8b53c9da099e circle{-webkit-transition:150ms;-moz-transition:150ms;transition:150ms}#chart-b1304452-7c9f-47f8-ac68-8b53c9da099e .graph &gt; .background{fill:rgba(249,249,249,1)}#chart-b1304452-7c9f-47f8-ac68-8b53c9da099e .plot &gt; .background{fill:rgba(255,255,255,1)}#chart-b1304452-7c9f-47f8-ac68-8b53c9da099e .graph{fill:rgba(0,0,0,.87)}#chart-b1304452-7c9f-47f8-ac68-8b53c9da099e text.no_data{fill:rgba(0,0,0,1)}#chart-b1304452-7c9f-47f8-ac68-8b53c9da099e .title{fill:rgba(0,0,0,1)}#chart-b1304452-7c9f-47f8-ac68-8b53c9da099e .legends .legend text{fill:rgba(0,0,0,.87)}#chart-b1304452-7c9f-47f8-ac68-8b53c9da099e .legends .legend:hover text{fill:rgba(0,0,0,1)}#chart-b1304452-7c9f-47f8-ac68-8b53c9da099e .axis .line{stroke:rgba(0,0,0,1)}#chart-b1304452-7c9f-47f8-ac68-8b53c9da099e .axis .guide.line{stroke:rgba(0,0,0,.54)}#chart-b1304452-7c9f-47f8-ac68-8b53c9da099e .axis .major.line{stroke:rgba(0,0,0,.87)}#chart-b1304452-7c9f-47f8-ac68-8b53c9da099e .axis text.major{fill:rgba(0,0,0,1)}#chart-b1304452-7c9f-47f8-ac68-8b53c9da099e .axis.y .guides:hover .guide.line,#chart-b1304452-7c9f-47f8-ac68-8b53c9da099e .line-graph .axis.x .guides:hover .guide.line,#chart-b1304452-7c9f-47f8-ac68-8b53c9da099e .stackedline-graph .axis.x .guides:hover .guide.line,#chart-b1304452-7c9f-47f8-ac68-8b53c9da099e .xy-graph .axis.x .guides:hover .guide.line{stroke:rgba(0,0,0,1)}#chart-b1304452-7c9f-47f8-ac68-8b53c9da099e .axis .guides:hover text{fill:rgba(0,0,0,1)}#chart-b1304452-7c9f-47f8-ac68-8b53c9da099e .reactive{fill-opacity:.7;stroke-opacity:.8}#chart-b1304452-7c9f-47f8-ac68-8b53c9da099e .ci{stroke:rgba(0,0,0,.87)}#chart-b1304452-7c9f-47f8-ac68-8b53c9da099e .reactive.active,#chart-b1304452-7c9f-47f8-ac68-8b53c9da099e .active .reactive{fill-opacity:.8;stroke-opacity:.9;stroke-width:4}#chart-b1304452-7c9f-47f8-ac68-8b53c9da099e .ci .reactive.active{stroke-width:1.5}#chart-b1304452-7c9f-47f8-ac68-8b53c9da099e .series text{fill:rgba(0,0,0,1)}#chart-b1304452-7c9f-47f8-ac68-8b53c9da099e .tooltip rect{fill:rgba(255,255,255,1);stroke:rgba(0,0,0,1);-webkit-transition:opacity 150ms;-moz-transition:opacity 150ms;transition:opacity 150ms}#chart-b1304452-7c9f-47f8-ac68-8b53c9da099e .tooltip .label{fill:rgba(0,0,0,.87)}#chart-b1304452-7c9f-47f8-ac68-8b53c9da099e .tooltip .label{fill:rgba(0,0,0,.87)}#chart-b1304452-7c9f-47f8-ac68-8b53c9da099e .tooltip .legend{font-size:.8em;fill:rgba(0,0,0,.54)}#chart-b1304452-7c9f-47f8-ac68-8b53c9da099e .tooltip .x_label{font-size:.6em;fill:rgba(0,0,0,1)}#chart-b1304452-7c9f-47f8-ac68-8b53c9da099e .tooltip .xlink{font-size:.5em;text-decoration:underline}#chart-b1304452-7c9f-47f8-ac68-8b53c9da099e .tooltip .value{font-size:1.5em}#chart-b1304452-7c9f-47f8-ac68-8b53c9da099e .bound{font-size:.5em}#chart-b1304452-7c9f-47f8-ac68-8b53c9da099e .max-value{font-size:.75em;fill:rgba(0,0,0,.54)}#chart-b1304452-7c9f-47f8-ac68-8b53c9da099e .map-element{fill:rgba(255,255,255,1);stroke:rgba(0,0,0,.54) !important}#chart-b1304452-7c9f-47f8-ac68-8b53c9da099e .map-element .reactive{fill-opacity:inherit;stroke-opacity:inherit}#chart-b1304452-7c9f-47f8-ac68-8b53c9da099e .color-0,#chart-b1304452-7c9f-47f8-ac68-8b53c9da099e .color-0 a:visited{stroke:#909090;fill:#909090}#chart-b1304452-7c9f-47f8-ac68-8b53c9da099e .color-1,#chart-b1304452-7c9f-47f8-ac68-8b53c9da099e .color-1 a:visited{stroke:#000000;fill:#000000}#chart-b1304452-7c9f-47f8-ac68-8b53c9da099e .color-2,#chart-b1304452-7c9f-47f8-ac68-8b53c9da099e .color-2 a:visited{stroke:#ff0500;fill:#ff0500}#chart-b1304452-7c9f-47f8-ac68-8b53c9da099e .color-3,#chart-b1304452-7c9f-47f8-ac68-8b53c9da099e .color-3 a:visited{stroke:#323299;fill:#323299}#chart-b1304452-7c9f-47f8-ac68-8b53c9da099e .color-4,#chart-b1304452-7c9f-47f8-ac68-8b53c9da099e .color-4 a:visited{stroke:#a3413f;fill:#a3413f}#chart-b1304452-7c9f-47f8-ac68-8b53c9da099e .color-5,#chart-b1304452-7c9f-47f8-ac68-8b53c9da099e .color-5 a:visited{stroke:#a3413f;fill:#a3413f}#chart-b1304452-7c9f-47f8-ac68-8b53c9da099e .color-6,#chart-b1304452-7c9f-47f8-ac68-8b53c9da099e .color-6 a:visited{stroke:#a3413f;fill:#a3413f}#chart-b1304452-7c9f-47f8-ac68-8b53c9da099e .color-7,#chart-b1304452-7c9f-47f8-ac68-8b53c9da099e .color-7 a:visited{stroke:#a3413f;fill:#a3413f}#chart-b1304452-7c9f-47f8-ac68-8b53c9da099e .color-8,#chart-b1304452-7c9f-47f8-ac68-8b53c9da099e .color-8 a:visited{stroke:#a3413f;fill:#a3413f}#chart-b1304452-7c9f-47f8-ac68-8b53c9da099e .color-9,#chart-b1304452-7c9f-47f8-ac68-8b53c9da099e .color-9 a:visited{stroke:#657fff;fill:#657fff}#chart-b1304452-7c9f-47f8-ac68-8b53c9da099e .color-10,#chart-b1304452-7c9f-47f8-ac68-8b53c9da099e .color-10 a:visited{stroke:#657fff;fill:#657fff}#chart-b1304452-7c9f-47f8-ac68-8b53c9da099e .color-11,#chart-b1304452-7c9f-47f8-ac68-8b53c9da099e .color-11 a:visited{stroke:#657fff;fill:#657fff}#chart-b1304452-7c9f-47f8-ac68-8b53c9da099e .color-12,#chart-b1304452-7c9f-47f8-ac68-8b53c9da099e .color-12 a:visited{stroke:#657fff;fill:#657fff}#chart-b1304452-7c9f-47f8-ac68-8b53c9da099e .color-13,#chart-b1304452-7c9f-47f8-ac68-8b53c9da099e .color-13 a:visited{stroke:#657fff;fill:#657fff}#chart-b1304452-7c9f-47f8-ac68-8b53c9da099e .text-overlay .color-0 text{fill:black}#chart-b1304452-7c9f-47f8-ac68-8b53c9da099e .text-overlay .color-1 text{fill:white}#chart-b1304452-7c9f-47f8-ac68-8b53c9da099e .text-overlay .color-2 text{fill:black}#chart-b1304452-7c9f-47f8-ac68-8b53c9da099e .text-overlay .color-3 text{fill:black}#chart-b1304452-7c9f-47f8-ac68-8b53c9da099e .text-overlay .color-4 text{fill:black}#chart-b1304452-7c9f-47f8-ac68-8b53c9da099e .text-overlay .color-5 text{fill:black}#chart-b1304452-7c9f-47f8-ac68-8b53c9da099e .text-overlay .color-6 text{fill:black}#chart-b1304452-7c9f-47f8-ac68-8b53c9da099e .text-overlay .color-7 text{fill:black}#chart-b1304452-7c9f-47f8-ac68-8b53c9da099e .text-overlay .color-8 text{fill:black}#chart-b1304452-7c9f-47f8-ac68-8b53c9da099e .text-overlay .color-9 text{fill:black}#chart-b1304452-7c9f-47f8-ac68-8b53c9da099e .text-overlay .color-10 text{fill:black}#chart-b1304452-7c9f-47f8-ac68-8b53c9da099e .text-overlay .color-11 text{fill:black}#chart-b1304452-7c9f-47f8-ac68-8b53c9da099e .text-overlay .color-12 text{fill:black}#chart-b1304452-7c9f-47f8-ac68-8b53c9da099e .text-overlay .color-13 text{fill:black}#chart-b1304452-7c9f-47f8-ac68-8b53c9da099e .series.serie-1{stroke-width:5}#chart-b1304452-7c9f-47f8-ac68-8b53c9da099e .series.serie-2{stroke-width:3}#chart-b1304452-7c9f-47f8-ac68-8b53c9da099e .series.serie-3{stroke-width:3}#chart-b1304452-7c9f-47f8-ac68-8b53c9da099e .series.serie-4{stroke-width:2;stroke-dasharray:2,2}#chart-b1304452-7c9f-47f8-ac68-8b53c9da099e .series.serie-5{stroke-width:2;stroke-dasharray:2,2}#chart-b1304452-7c9f-47f8-ac68-8b53c9da099e .series.serie-6{stroke-width:2;stroke-dasharray:2,2}#chart-b1304452-7c9f-47f8-ac68-8b53c9da099e .series.serie-7{stroke-width:2;stroke-dasharray:2,2}#chart-b1304452-7c9f-47f8-ac68-8b53c9da099e .series.serie-8{stroke-width:2;stroke-dasharray:2,2}#chart-b1304452-7c9f-47f8-ac68-8b53c9da099e .series.serie-9{stroke-width:2;stroke-dasharray:2,2}#chart-b1304452-7c9f-47f8-ac68-8b53c9da099e .series.serie-10{stroke-width:2;stroke-dasharray:2,2}#chart-b1304452-7c9f-47f8-ac68-8b53c9da099e .series.serie-11{stroke-width:2;stroke-dasharray:2,2}#chart-b1304452-7c9f-47f8-ac68-8b53c9da099e .series.serie-12{stroke-width:2;stroke-dasharray:2,2}#chart-b1304452-7c9f-47f8-ac68-8b53c9da099e .series.serie-13{stroke-width:2;stroke-dasharray:2,2}
#chart-b1304452-7c9f-47f8-ac68-8b53c9da099e text.no_data{text-anchor:middle}#chart-b1304452-7c9f-47f8-ac68-8b53c9da099e .guide.line{fill:none}#chart-b1304452-7c9f-47f8-ac68-8b53c9da099e .centered{text-anchor:middle}#chart-b1304452-7c9f-47f8-ac68-8b53c9da099e .title{text-anchor:middle}#chart-b1304452-7c9f-47f8-ac68-8b53c9da099e .legends .legend text{fill-opacity:1}#chart-b1304452-7c9f-47f8-ac68-8b53c9da099e .axis.x text{text-anchor:middle}#chart-b1304452-7c9f-47f8-ac68-8b53c9da099e .axis.x:not(.web) text[transform]{text-anchor:start}#chart-b1304452-7c9f-47f8-ac68-8b53c9da099e .axis.x:not(.web) text[transform].backwards{text-anchor:end}#chart-b1304452-7c9f-47f8-ac68-8b53c9da099e .axis.y text{text-anchor:end}#chart-b1304452-7c9f-47f8-ac68-8b53c9da099e .axis.y text[transform].backwards{text-anchor:start}#chart-b1304452-7c9f-47f8-ac68-8b53c9da099e .axis.y2 text{text-anchor:start}#chart-b1304452-7c9f-47f8-ac68-8b53c9da099e .axis.y2 text[transform].backwards{text-anchor:end}#chart-b1304452-7c9f-47f8-ac68-8b53c9da099e .axis .guide.line{stroke-dasharray:4,4}#chart-b1304452-7c9f-47f8-ac68-8b53c9da099e .axis .major.guide.line{stroke-dasharray:6,6}#chart-b1304452-7c9f-47f8-ac68-8b53c9da099e .horizontal .axis.y .guide.line,#chart-b1304452-7c9f-47f8-ac68-8b53c9da099e .horizontal .axis.y2 .guide.line,#chart-b1304452-7c9f-47f8-ac68-8b53c9da099e .vertical .axis.x .guide.line{opacity:0}#chart-b1304452-7c9f-47f8-ac68-8b53c9da099e .horizontal .axis.always_show .guide.line,#chart-b1304452-7c9f-47f8-ac68-8b53c9da099e .vertical .axis.always_show .guide.line{opacity:1 !important}#chart-b1304452-7c9f-47f8-ac68-8b53c9da099e .axis.y .guides:hover .guide.line,#chart-b1304452-7c9f-47f8-ac68-8b53c9da099e .axis.y2 .guides:hover .guide.line,#chart-b1304452-7c9f-47f8-ac68-8b53c9da099e .axis.x .guides:hover .guide.line{opacity:1}#chart-b1304452-7c9f-47f8-ac68-8b53c9da099e .axis .guides:hover text{opacity:1}#chart-b1304452-7c9f-47f8-ac68-8b53c9da099e .nofill{fill:none}#chart-b1304452-7c9f-47f8-ac68-8b53c9da099e .subtle-fill{fill-opacity:.2}#chart-b1304452-7c9f-47f8-ac68-8b53c9da099e .dot{stroke-width:1px;fill-opacity:1}#chart-b1304452-7c9f-47f8-ac68-8b53c9da099e .dot.active{stroke-width:5px}#chart-b1304452-7c9f-47f8-ac68-8b53c9da099e .dot.negative{fill:transparent}#chart-b1304452-7c9f-47f8-ac68-8b53c9da099e text,#chart-b1304452-7c9f-47f8-ac68-8b53c9da099e tspan{stroke:none !important}#chart-b1304452-7c9f-47f8-ac68-8b53c9da099e .series text.active{opacity:1}#chart-b1304452-7c9f-47f8-ac68-8b53c9da099e .tooltip rect{fill-opacity:.95;stroke-width:.5}#chart-b1304452-7c9f-47f8-ac68-8b53c9da099e .tooltip text{fill-opacity:1}#chart-b1304452-7c9f-47f8-ac68-8b53c9da099e .showable{visibility:hidden}#chart-b1304452-7c9f-47f8-ac68-8b53c9da099e .showable.shown{visibility:visible}#chart-b1304452-7c9f-47f8-ac68-8b53c9da099e .gauge-background{fill:rgba(229,229,229,1);stroke:none}#chart-b1304452-7c9f-47f8-ac68-8b53c9da099e .bg-lines{stroke:rgba(249,249,249,1);stroke-width:2px}</style><script type="text/javascript">window.pygal = window.pygal || {};window.pygal.config = window.pygal.config || {};window.pygal.config['b1304452-7c9f-47f8-ac68-8b53c9da099e'] = {"css": ["file://style.css", "file://graph.css"], "include_x_axis": false, "min_scale": 4, "print_zeroes": true, "show_x_labels": true, "stroke": true, "show_minor_y_labels": true, "inner_radius": 0, "fill": false, "pretty_print": false, "js": ["//kozea.github.io/pygal.js/2.0.x/pygal-tooltips.min.js"], "x_labels": ["-8.96", "-8.76", "-8.56", "-8.36", "-8.16", "-7.96", "-7.76", "-7.56", "-7.36", "-7.16", "-6.96", "-6.76", "-6.56", "-6.36", "-6.16", "-5.96", "-5.76", "-5.56", "-5.36", "-5.16", "-4.96", "-4.76", "-4.56", "-4.36", "-4.16", "-3.96", "-3.76", "-3.56", "-3.36", "-3.16", "-2.96", "-2.76", "-2.56", "-2.36", "-2.16", "-1.96", "-1.76", "-1.56", "-1.36", "-1.16", "-0.96", "-0.76", "-0.56", "-0.36", "-0.16", "0.04", "0.24", "0.44", "0.64", "0.84", "1.04", "1.24", "1.43", "1.63", "1.83", "2.03", "2.23", "2.43", "2.63", "2.83"], "logarithmic": false, "show_minor_x_labels": false, "formatter": null, "tooltip_fancy_mode": true, "defs": [], "stroke_style": null, "spacing": 10, "show_only_major_dots": false, "half_pie": false, "show_legend": true, "dynamic_print_values": false, "max_scale": 16, "explicit_size": false, "y_label_rotation": 0, "y_labels": null, "x_labels_major": null, "margin_top": null, "interpolation_precision": 250, "xrange": null, "order_min": null, "y_title": "Density", "title": "Iteration #10", "x_label_rotation": 60, "interpolation_parameters": {}, "stack_from_top": false, "truncate_legend": null, "x_title": "Observation", "show_y_guides": true, "no_prefix": false, "print_values_position": "center", "show_y_labels": true, "classes": ["pygal-chart"], "force_uri_protocol": "https", "x_labels_major_count": null, "allow_interruptions": false, "width": 800, "height": 600, "secondary_range": null, "box_mode": "extremes", "margin_left": null, "y_labels_major": null, "margin_right": null, "zero": 0, "dots_size": 2.5, "no_data_text": "No data", "show_dots": false, "range": [0, 0.27578580090479526], "truncate_label": null, "margin_bottom": null, "y_labels_major_every": null, "show_x_guides": false, "disable_xml_declaration": false, "print_values": false, "x_labels_major_every": 2, "print_labels": false, "y_labels_major_count": null, "interpolate": null, "legend_at_bottom": false, "style": {"value_font_size": 16, "tooltip_font_family": "Consolas, \"Liberation Mono\", Menlo, Courier, monospace", "major_label_font_family": "Consolas, \"Liberation Mono\", Menlo, Courier, monospace", "value_colors": [], "value_background": "rgba(229, 229, 229, 1)", "foreground_strong": "rgba(0, 0, 0, 1)", "opacity": ".7", "font_family": "Consolas, \"Liberation Mono\", Menlo, Courier, monospace", "label_font_size": 10, "transition": "150ms", "title_font_family": "Consolas, \"Liberation Mono\", Menlo, Courier, monospace", "background": "rgba(249, 249, 249, 1)", "stroke_opacity": ".8", "no_data_font_size": 64, "value_label_font_family": "Consolas, \"Liberation Mono\", Menlo, Courier, monospace", "value_label_font_size": 10, "value_font_family": "Consolas, \"Liberation Mono\", Menlo, Courier, monospace", "plot_background": "rgba(255, 255, 255, 1)", "colors": ["#909090", "#000000", "#ff0500", "#323299", "#a3413f", "#a3413f", "#a3413f", "#a3413f", "#a3413f", "#657fff", "#657fff", "#657fff", "#657fff", "#657fff"], "legend_font_size": 10, "guide_stroke_dasharray": "4,4", "major_label_font_size": 10, "stroke_opacity_hover": ".9", "major_guide_stroke_dasharray": "6,6", "opacity_hover": ".8", "no_data_font_family": "Consolas, \"Liberation Mono\", Menlo, Courier, monospace", "title_font_size": 16, "ci_colors": [], "foreground": "rgba(0, 0, 0, .87)", "foreground_subtle": "rgba(0, 0, 0, .54)", "legend_font_family": "Consolas, \"Liberation Mono\", Menlo, Courier, monospace", "label_font_family": "Consolas, \"Liberation Mono\", Menlo, Courier, monospace", "tooltip_font_size": 14}, "strict": false, "legend_box_size": 12, "tooltip_border_radius": 0, "margin": 20, "legends": ["Data", "GMM", "i=0", "i=1", "i=0 k=0", "i=0 k=1", "i=0 k=2", "i=0 k=3", "i=0 k=4", "i=1 k=0", "i=1 k=1", "i=1 k=2", "i=1 k=3", "i=1 k=4"], "inverse_y_axis": false, "legend_at_bottom_columns": null, "rounded_bars": null, "missing_value_fill_truncation": "x"}</script><script type="text/javascript" xlink:href="https://kozea.github.io/pygal.js/2.0.x/pygal-tooltips.min.js" /></defs><title>Iteration #10</title><g class="graph line-graph vertical"><rect class="background" height="600" width="800" x="0" y="0" /><g class="plot" transform="translate(144, 46)"><rect class="background" height="472.01923788646684" width="636.0" x="0" y="0" /><g class="axis y always_show"><g class="guides"><path class="axis major line" d="M0.000000 462.941945 h636.000000" /><text class="major" x="-5" y="466.44194485">0</text><title>0</title></g><g class="guides"><path class="guide line" d="M0.000000 430.027658 h636.000000" /><text class="" x="-5" y="433.527657724">0.02</text><title>0.02</title></g><g class="guides"><path class="guide line" d="M0.000000 397.113371 h636.000000" /><text class="" x="-5" y="400.613370598">0.04</text><title>0.04</title></g><g class="guides"><path class="guide line" d="M0.000000 364.199083 h636.000000" /><text class="" x="-5" y="367.699083472">0.06</text><title>0.06</title></g><g class="guides"><path class="guide line" d="M0.000000 331.284796 h636.000000" /><text class="" x="-5" y="334.784796346">0.08</text><title>0.08</title></g><g class="guides"><path class="guide line" d="M0.000000 298.370509 h636.000000" /><text class="" x="-5" y="301.87050922">0.1</text><title>0.1</title></g><g class="guides"><path class="guide line" d="M0.000000 265.456222 h636.000000" /><text class="" x="-5" y="268.956222094">0.12</text><title>0.12</title></g><g class="guides"><path class="guide line" d="M0.000000 232.541935 h636.000000" /><text class="" x="-5" y="236.041934968">0.14</text><title>0.14</title></g><g class="guides"><path class="guide line" d="M0.000000 199.627648 h636.000000" /><text class="" x="-5" y="203.127647841">0.16</text><title>0.16</title></g><g class="guides"><path class="guide line" d="M0.000000 166.713361 h636.000000" /><text class="" x="-5" y="170.213360715">0.18</text><title>0.18</title></g><g class="guides"><path class="guide line" d="M0.000000 133.799074 h636.000000" /><text class="" x="-5" y="137.299073589">0.2</text><title>0.2</title></g><g class="guides"><path class="guide line" d="M0.000000 100.884786 h636.000000" /><text class="" x="-5" y="104.384786463">0.22</text><title>0.22</title></g><g class="guides"><path class="guide line" d="M0.000000 67.970499 h636.000000" /><text class="" x="-5" y="71.4704993371">0.24</text><title>0.24</title></g><g class="guides"><path class="guide line" d="M0.000000 35.056212 h636.000000" /><text class="" x="-5" y="38.5562122111">0.26</text><title>0.26</title></g></g><g class="axis x"><g class="guides"><path class="major line" d="M12.230769 0.000000 v472.019238" /><text class="major" transform="rotate(60 12.230769 487.019238)" x="12.230769230769232" y="487.01923788646684">-8.96</text></g><g class="guides"><path class="major guide line" d="M32.960887 0.000000 v472.019238" /><text class="major" transform="rotate(60 32.960887 487.019238)" x="32.96088657105606" y="487.01923788646684">-8.56</text></g><g class="guides"><path class="major guide line" d="M53.691004 0.000000 v472.019238" /><text class="major" transform="rotate(60 53.691004 487.019238)" x="53.6910039113429" y="487.01923788646684">-8.16</text></g><g class="guides"><path class="major guide line" d="M74.421121 0.000000 v472.019238" /><text class="major" transform="rotate(60 74.421121 487.019238)" x="74.42112125162973" y="487.01923788646684">-7.76</text></g><g class="guides"><path class="major guide line" d="M95.151239 0.000000 v472.019238" /><text class="major" transform="rotate(60 95.151239 487.019238)" x="95.15123859191655" y="487.01923788646684">-7.36</text></g><g class="guides"><path class="major guide line" d="M115.881356 0.000000 v472.019238" /><text class="major" transform="rotate(60 115.881356 487.019238)" x="115.88135593220338" y="487.01923788646684">-6.96</text></g><g class="guides"><path class="major guide line" d="M136.611473 0.000000 v472.019238" /><text class="major" transform="rotate(60 136.611473 487.019238)" x="136.61147327249023" y="487.01923788646684">-6.56</text></g><g class="guides"><path class="major guide line" d="M157.341591 0.000000 v472.019238" /><text class="major" transform="rotate(60 157.341591 487.019238)" x="157.34159061277705" y="487.01923788646684">-6.16</text></g><g class="guides"><path class="major guide line" d="M178.071708 0.000000 v472.019238" /><text class="major" transform="rotate(60 178.071708 487.019238)" x="178.0717079530639" y="487.01923788646684">-5.76</text></g><g class="guides"><path class="major guide line" d="M198.801825 0.000000 v472.019238" /><text class="major" transform="rotate(60 198.801825 487.019238)" x="198.80182529335073" y="487.01923788646684">-5.36</text></g><g class="guides"><path class="major guide line" d="M219.531943 0.000000 v472.019238" /><text class="major" transform="rotate(60 219.531943 487.019238)" x="219.53194263363756" y="487.01923788646684">-4.96</text></g><g class="guides"><path class="major guide line" d="M240.262060 0.000000 v472.019238" /><text class="major" transform="rotate(60 240.262060 487.019238)" x="240.2620599739244" y="487.01923788646684">-4.56</text></g><g class="guides"><path class="major guide line" d="M260.992177 0.000000 v472.019238" /><text class="major" transform="rotate(60 260.992177 487.019238)" x="260.99217731421123" y="487.01923788646684">-4.16</text></g><g class="guides"><path class="major guide line" d="M281.722295 0.000000 v472.019238" /><text class="major" transform="rotate(60 281.722295 487.019238)" x="281.722294654498" y="487.01923788646684">-3.76</text></g><g class="guides"><path class="major guide line" d="M302.452412 0.000000 v472.019238" /><text class="major" transform="rotate(60 302.452412 487.019238)" x="302.4524119947849" y="487.01923788646684">-3.36</text></g><g class="guides"><path class="major guide line" d="M323.182529 0.000000 v472.019238" /><text class="major" transform="rotate(60 323.182529 487.019238)" x="323.1825293350717" y="487.01923788646684">-2.96</text></g><g class="guides"><path class="major guide line" d="M343.912647 0.000000 v472.019238" /><text class="major" transform="rotate(60 343.912647 487.019238)" x="343.91264667535853" y="487.01923788646684">-2.56</text></g><g class="guides"><path class="major guide line" d="M364.642764 0.000000 v472.019238" /><text class="major" transform="rotate(60 364.642764 487.019238)" x="364.64276401564535" y="487.01923788646684">-2.16</text></g><g class="guides"><path class="major guide line" d="M385.372881 0.000000 v472.019238" /><text class="major" transform="rotate(60 385.372881 487.019238)" x="385.37288135593224" y="487.01923788646684">-1.76</text></g><g class="guides"><path class="major guide line" d="M406.102999 0.000000 v472.019238" /><text class="major" transform="rotate(60 406.102999 487.019238)" x="406.102998696219" y="487.01923788646684">-1.36</text></g><g class="guides"><path class="major guide line" d="M426.833116 0.000000 v472.019238" /><text class="major" transform="rotate(60 426.833116 487.019238)" x="426.8331160365058" y="487.01923788646684">-0.96</text></g><g class="guides"><path class="major guide line" d="M447.563233 0.000000 v472.019238" /><text class="major" transform="rotate(60 447.563233 487.019238)" x="447.56323337679265" y="487.01923788646684">-0.56</text></g><g class="guides"><path class="major guide line" d="M468.293351 0.000000 v472.019238" /><text class="major" transform="rotate(60 468.293351 487.019238)" x="468.29335071707953" y="487.01923788646684">-0.16</text></g><g class="guides"><path class="major guide line" d="M489.023468 0.000000 v472.019238" /><text class="major" transform="rotate(60 489.023468 487.019238)" x="489.02346805736636" y="487.01923788646684">0.24</text></g><g class="guides"><path class="major guide line" d="M509.753585 0.000000 v472.019238" /><text class="major" transform="rotate(60 509.753585 487.019238)" x="509.75358539765324" y="487.01923788646684">0.64</text></g><g class="guides"><path class="major guide line" d="M530.483703 0.000000 v472.019238" /><text class="major" transform="rotate(60 530.483703 487.019238)" x="530.48370273794" y="487.01923788646684">1.04</text></g><g class="guides"><path class="major guide line" d="M551.213820 0.000000 v472.019238" /><text class="major" transform="rotate(60 551.213820 487.019238)" x="551.213820078227" y="487.01923788646684">1.43</text></g><g class="guides"><path class="major guide line" d="M571.943937 0.000000 v472.019238" /><text class="major" transform="rotate(60 571.943937 487.019238)" x="571.9439374185138" y="487.01923788646684">1.83</text></g><g class="guides"><path class="major guide line" d="M592.674055 0.000000 v472.019238" /><text class="major" transform="rotate(60 592.674055 487.019238)" x="592.6740547588006" y="487.01923788646684">2.23</text></g><g class="guides"><path class="major guide line" d="M613.404172 0.000000 v472.019238" /><text class="major" transform="rotate(60 613.404172 487.019238)" x="613.4041720990874" y="487.01923788646684">2.63</text></g></g><g class="series serie-0 color-0"><path class="line reactive" d="M12.230769 462.941945 L12.230769 462.019456 22.595828 462.941945 32.960887 461.096967 43.325945 462.019456 53.691004 459.251988 64.056063 462.019456 74.421121 458.329499 84.786180 462.019456 95.151239 458.329499 105.516297 462.019456 115.881356 448.182119 126.246415 460.174477 136.611473 457.407010 146.976532 457.407010 157.341591 451.872075 167.706649 448.182119 178.071708 454.639543 188.436767 445.414651 198.801825 442.647184 209.166884 436.189760 219.531943 437.112249 229.897001 392.832771 240.262060 396.522728 250.627119 376.227967 260.992177 355.933206 271.357236 351.320760 281.722295 325.491065 292.087353 277.521630 302.452412 283.056565 312.817471 202.800010 323.182529 188.040184 333.547588 169.590402 343.912647 123.465945 354.277705 95.791271 364.642764 67.194108 375.007823 82.876423 385.372881 60.736684 395.737940 80.108956 406.102999 29.372054 416.468057 9.077293 426.833116 70.884065 437.198175 69.039086 447.563233 41.364413 457.928292 40.441923 468.293351 91.178826 478.658409 140.993239 489.023468 214.792369 499.388527 259.071847 509.753585 321.801108 520.118644 364.235608 530.483703 408.515086 540.848761 430.654825 551.213820 448.182119 561.578879 455.562032 571.943937 458.329499 582.308996 458.329499 592.674055 462.019456 603.039113 462.941945 613.404172 462.019456 623.769231 462.941945" /></g><g class="series serie-1 color-1"><path class="line reactive nofill" d="M12.230769 462.862661 L22.595828 462.815046 32.960887 462.742297 43.325945 462.633198 53.691004 462.472621 64.056063 462.240691 74.421121 461.912006 84.786180 461.455038 95.151239 460.831875 105.516297 459.998468 115.881356 458.905553 126.246415 457.500320 136.611473 455.728766 146.976532 453.538420 157.341591 450.880704 167.706649 447.711758 178.071708 443.990010 188.436767 439.668445 198.801825 434.679613 209.166884 428.912343 219.531943 422.181166 229.897001 414.192635 240.262060 404.516674 250.627119 392.574763 260.992177 377.658868 271.357236 358.994629 281.722295 335.859208 292.087353 307.758880 302.452412 274.662882 312.817471 237.272919 323.182529 197.272801 333.547588 157.446690 343.912647 121.498471 354.277705 93.406846 364.642764 76.284966 375.007823 71.002647 385.372881 75.168386 395.737940 83.218454 406.102999 88.075323 416.468057 84.083904 426.833116 70.040284 437.198175 50.686192 447.563233 35.529442 457.928292 35.189482 468.293351 56.916181 478.658409 101.514833 489.023468 163.161454 499.388527 231.972885 509.753585 297.784724 520.118644 353.248794 530.483703 395.119116 540.848761 423.756218 551.213820 441.667282 561.578879 452.003410 571.943937 457.560808 582.308996 460.377054 592.674055 461.740984 603.039113 462.382490 613.404172 462.680380 623.769231 462.818847" /></g><g class="series serie-2 color-2"><path class="line reactive nofill" d="M12.230769 462.941945 L22.595828 462.941945 32.960887 462.941945 43.325945 462.941945 53.691004 462.941945 64.056063 462.941945 74.421121 462.941945 84.786180 462.941945 95.151239 462.941945 105.516297 462.941945 115.881356 462.941945 126.246415 462.941945 136.611473 462.941945 146.976532 462.941945 157.341591 462.941945 167.706649 462.941945 178.071708 462.941944 188.436767 462.941943 198.801825 462.941939 209.166884 462.941927 219.531943 462.941896 229.897001 462.941810 240.262060 462.941588 250.627119 462.941027 260.992177 462.939638 271.357236 462.936252 281.722295 462.928053 292.087353 462.908200 302.452412 462.860015 312.817471 462.743170 323.182529 462.462768 333.547588 461.805826 343.912647 460.325213 354.277705 457.158627 364.642764 450.806459 375.007823 438.969351 385.372881 418.646247 395.737940 386.742843 406.102999 341.321789 416.468057 283.269542 426.833116 217.670800 437.198175 153.907048 447.563233 103.808616 457.928292 78.143476 468.293351 82.825732 478.658409 116.675380 489.023468 171.896964 499.388527 237.013364 509.753585 300.741370 520.118644 355.027794 530.483703 396.217795 540.848761 424.448277 551.213820 442.107747 561.578879 452.284120 571.943937 457.738698 582.308996 460.488619 592.674055 461.810027 603.039113 462.424577 613.404172 462.705627 623.769231 462.833742" /></g><g class="series serie-3 color-3"><path class="line reactive nofill" d="M12.230769 462.862661 L22.595828 462.815046 32.960887 462.742297 43.325945 462.633198 53.691004 462.472621 64.056063 462.240691 74.421121 461.912006 84.786180 461.455038 95.151239 460.831875 105.516297 459.998468 115.881356 458.905553 126.246415 457.500320 136.611473 455.728766 146.976532 453.538420 157.341591 450.880704 167.706649 447.711758 178.071708 443.990010 188.436767 439.668447 198.801825 434.679619 209.166884 428.912360 219.531943 422.181215 229.897001 414.192769 240.262060 404.517031 250.627119 392.575682 260.992177 377.661175 271.357236 359.000321 281.722295 335.873101 292.087353 307.792625 302.452412 274.744811 312.817471 237.471694 323.182529 197.751978 333.547588 158.582809 343.912647 124.115203 354.277705 99.190164 364.642764 88.420452 375.007823 94.975241 385.372881 119.464084 395.737940 159.417556 406.102999 209.695478 416.468057 263.756307 426.833116 315.311429 437.198175 359.721089 447.563233 394.662771 457.928292 419.987951 468.293351 437.032394 478.658409 447.781397 489.023468 454.206434 499.388527 457.901466 509.753585 459.985299 520.118644 461.162944 530.483703 461.843266 540.848761 462.249886 551.213820 462.501480 561.578879 462.661235 571.943937 462.764056 582.308996 462.830379 592.674055 462.872903 603.039113 462.899858 613.404172 462.916698 623.769231 462.927049" /></g><g class="series serie-4 color-4"><path class="line reactive nofill" d="M12.230769 462.941945 L22.595828 462.941945 32.960887 462.941945 43.325945 462.941945 53.691004 462.941945 64.056063 462.941945 74.421121 462.941945 84.786180 462.941945 95.151239 462.941945 105.516297 462.941945 115.881356 462.941945 126.246415 462.941945 136.611473 462.941945 146.976532 462.941945 157.341591 462.941945 167.706649 462.941945 178.071708 462.941945 188.436767 462.941945 198.801825 462.941945 209.166884 462.941945 219.531943 462.941945 229.897001 462.941945 240.262060 462.941944 250.627119 462.941942 260.992177 462.941930 271.357236 462.941868 281.722295 462.941575 292.087353 462.940326 302.452412 462.935457 312.817471 462.918129 323.182529 462.861898 333.547588 462.695580 343.912647 462.247622 354.277705 461.150122 364.642764 458.707661 375.007823 453.779412 385.372881 444.786705 395.737940 430.000753 406.102999 408.211691 416.468057 379.676180 426.833116 346.942387 437.198175 314.963982 447.563233 290.084293 457.928292 278.044452 468.293351 281.839510 478.658409 300.511136 489.023468 329.539627 499.388527 362.616939 509.753585 393.853429 520.118644 419.375373 530.483703 437.785355 540.848761 449.640434 551.213820 456.501720 561.578879 460.086643 571.943937 461.782757 582.308996 462.511015 592.674055 462.795252 603.039113 462.896219 613.404172 462.928893 623.769231 462.938534" /></g><g class="series serie-5 color-5"><path class="line reactive nofill" d="M12.230769 462.941945 L22.595828 462.941945 32.960887 462.941945 43.325945 462.941945 53.691004 462.941945 64.056063 462.941945 74.421121 462.941945 84.786180 462.941945 95.151239 462.941945 105.516297 462.941945 115.881356 462.941945 126.246415 462.941945 136.611473 462.941945 146.976532 462.941945 157.341591 462.941945 167.706649 462.941945 178.071708 462.941945 188.436767 462.941945 198.801825 462.941945 209.166884 462.941945 219.531943 462.941945 229.897001 462.941945 240.262060 462.941944 250.627119 462.941941 260.992177 462.941924 271.357236 462.941846 281.722295 462.941514 292.087353 462.940212 302.452412 462.935520 312.817471 462.920005 323.182529 462.872951 333.547588 462.742132 343.912647 462.409015 354.277705 461.632906 364.642764 459.980726 375.007823 456.772814 385.372881 451.105731 395.737940 442.027949 406.102999 428.909228 416.468057 411.939431 426.833116 392.550168 437.198175 373.469842 447.563233 358.207692 457.928292 350.033816 468.293351 350.844154 478.658409 360.446569 489.023468 376.634777 499.388527 396.011327 509.753585 415.140813 520.118644 431.501629 530.483703 443.897383 540.848761 452.317886 551.213820 457.483797 561.578879 460.359473 571.943937 461.816664 582.308996 462.490378 592.674055 462.775059 603.039113 462.885145 613.404172 462.924141 623.769231 462.936805" /></g><g class="series serie-6 color-6"><path class="line reactive nofill" d="M12.230769 462.941945 L22.595828 462.941945 32.960887 462.941945 43.325945 462.941945 53.691004 462.941945 64.056063 462.941945 74.421121 462.941945 84.786180 462.941945 95.151239 462.941945 105.516297 462.941945 115.881356 462.941945 126.246415 462.941945 136.611473 462.941945 146.976532 462.941945 157.341591 462.941945 167.706649 462.941945 178.071708 462.941945 188.436767 462.941945 198.801825 462.941945 209.166884 462.941945 219.531943 462.941945 229.897001 462.941944 240.262060 462.941941 250.627119 462.941928 260.992177 462.941873 271.357236 462.941663 281.722295 462.940924 292.087353 462.938499 302.452412 462.931120 312.817471 462.910290 323.182529 462.855797 333.547588 462.723743 343.912647 462.427572 354.277705 461.813432 364.642764 460.637630 375.007823 458.562845 385.372881 455.196699 395.737940 450.192448 406.102999 443.409422 416.468057 435.091566 426.833116 425.983701 437.198175 417.296335 447.563233 410.473989 457.928292 406.811725 468.293351 407.055459 478.658409 411.154520 489.023468 418.278802 499.388527 427.092559 509.753585 436.161265 520.118644 444.322405 530.483703 450.893701 540.848761 455.686133 551.213820 458.875117 561.578879 460.820494 571.943937 461.911991 582.308996 462.476563 592.674055 462.746237 603.039113 462.865347 613.404172 462.914043 623.769231 462.932486" /></g><g class="series serie-7 color-7"><path class="line reactive nofill" d="M12.230769 462.941945 L22.595828 462.941945 32.960887 462.941945 43.325945 462.941945 53.691004 462.941945 64.056063 462.941945 74.421121 462.941945 84.786180 462.941945 95.151239 462.941945 105.516297 462.941945 115.881356 462.941945 126.246415 462.941945 136.611473 462.941945 146.976532 462.941945 157.341591 462.941945 167.706649 462.941945 178.071708 462.941945 188.436767 462.941945 198.801825 462.941945 209.166884 462.941944 219.531943 462.941943 229.897001 462.941936 240.262060 462.941914 250.627119 462.941840 260.992177 462.941606 271.357236 462.940913 281.722295 462.938984 292.087353 462.933932 302.452412 462.921495 312.817471 462.892720 323.182529 462.830191 333.547588 462.702652 343.912647 462.458685 354.277705 462.021461 364.642764 461.288325 375.007823 460.140130 385.372881 458.464531 395.737940 456.193570 406.102999 453.348925 416.468057 450.080326 426.833116 446.678215 437.198175 443.545202 447.563233 441.123609 457.928292 439.794736 468.293351 439.780813 478.658409 441.084212 489.023468 443.486793 499.388527 446.609609 509.753585 450.010527 520.118644 453.285258 530.483703 456.140607 540.848761 458.423961 551.213820 460.111340 561.578879 461.269323 571.943937 462.009763 582.308996 462.451954 592.674055 462.699027 603.039113 462.828362 613.404172 462.891855 623.769231 462.921111" /></g><g class="series serie-8 color-8"><path class="line reactive nofill" d="M12.230769 462.941945 L22.595828 462.941945 32.960887 462.941945 43.325945 462.941945 53.691004 462.941945 64.056063 462.941945 74.421121 462.941945 84.786180 462.941945 95.151239 462.941945 105.516297 462.941945 115.881356 462.941945 126.246415 462.941945 136.611473 462.941945 146.976532 462.941945 157.341591 462.941945 167.706649 462.941945 178.071708 462.941944 188.436767 462.941943 198.801825 462.941939 209.166884 462.941928 219.531943 462.941898 229.897001 462.941820 240.262060 462.941624 250.627119 462.941156 260.992177 462.940085 271.357236 462.937741 281.722295 462.932835 292.087353 462.923010 302.452412 462.904204 312.817471 462.869805 323.182529 462.809711 333.547588 462.709498 343.912647 462.550098 354.277705 462.308486 364.642764 461.959897 375.007823 461.481928 385.372881 460.860360 395.737940 460.095902 406.102999 459.210303 416.468057 458.249819 426.833116 457.284108 437.198175 456.399466 447.563233 455.686813 457.928292 455.226526 468.293351 455.073575 478.658409 455.246722 489.023468 455.724745 499.388527 456.450709 509.753585 457.343116 520.118644 458.310909 530.483703 459.268528 540.848761 460.147642 551.213820 460.903553 561.578879 461.515966 571.943937 461.985302 582.308996 462.326488 592.674055 462.562231 603.039113 462.717285 613.404172 462.814475 623.769231 462.872586" /></g><g class="series serie-9 color-9"><path class="line reactive nofill" d="M12.230769 462.941945 L22.595828 462.941945 32.960887 462.941945 43.325945 462.941945 53.691004 462.941945 64.056063 462.941945 74.421121 462.941945 84.786180 462.941945 95.151239 462.941945 105.516297 462.941945 115.881356 462.941945 126.246415 462.941945 136.611473 462.941945 146.976532 462.941945 157.341591 462.941945 167.706649 462.941944 178.071708 462.941943 188.436767 462.941933 198.801825 462.941888 209.166884 462.941691 219.531943 462.940896 229.897001 462.937970 240.262060 462.928110 250.627119 462.897719 260.992177 462.812128 271.357236 462.592030 281.722295 462.075851 292.087353 460.973422 302.452412 458.833397 312.817471 455.067704 323.182529 449.083913 333.547588 440.546126 343.912647 429.706242 354.277705 417.650591 364.642764 406.266067 375.007823 397.816045 385.372881 394.222168 395.737940 396.356047 406.102999 403.696455 416.468057 414.535760 426.833116 426.624194 437.198175 437.920664 447.563233 447.112246 457.928292 453.745747 468.293351 458.036070 478.658409 460.538705 489.023468 461.860883 499.388527 462.495389 509.753585 462.772560 520.118644 462.882946 530.483703 462.923074 540.848761 462.936402 551.213820 462.940450 561.578879 462.941575 571.943937 462.941861 582.308996 462.941927 592.674055 462.941941 603.039113 462.941944 613.404172 462.941945 623.769231 462.941945" /></g><g class="series serie-10 color-10"><path class="line reactive nofill" d="M12.230769 462.941945 L22.595828 462.941945 32.960887 462.941945 43.325945 462.941945 53.691004 462.941945 64.056063 462.941945 74.421121 462.941945 84.786180 462.941945 95.151239 462.941945 105.516297 462.941945 115.881356 462.941945 126.246415 462.941945 136.611473 462.941944 146.976532 462.941942 157.341591 462.941931 167.706649 462.941887 178.071708 462.941715 188.436767 462.941096 198.801825 462.939021 209.166884 462.932554 219.531943 462.913831 229.897001 462.863492 240.262060 462.737871 250.627119 462.447120 260.992177 461.823530 271.357236 460.585594 281.722295 458.314268 292.087353 454.470215 302.452412 448.485311 312.817471 439.946159 323.182529 428.845014 333.547588 415.815105 343.912647 402.225362 354.277705 390.024354 364.642764 381.313168 375.007823 377.761434 385.372881 380.086094 395.737940 387.815627 406.102999 399.445851 416.468057 412.916853 426.833116 426.204008 437.198175 437.792545 447.563233 446.893740 457.928292 453.396168 468.293351 457.649186 478.658409 460.206431 489.023468 461.624047 499.388527 462.350097 509.753585 462.694188 520.118644 462.845267 530.483703 462.906780 540.848761 462.930022 551.213820 462.938177 561.578879 462.940835 571.943937 462.941640 582.308996 462.941867 592.674055 462.941926 603.039113 462.941941 613.404172 462.941944 623.769231 462.941945" /></g><g class="series serie-11 color-11"><path class="line reactive nofill" d="M12.230769 462.941945 L22.595828 462.941945 32.960887 462.941945 43.325945 462.941945 53.691004 462.941945 64.056063 462.941945 74.421121 462.941945 84.786180 462.941945 95.151239 462.941944 105.516297 462.941942 115.881356 462.941933 126.246415 462.941901 136.611473 462.941790 146.976532 462.941433 157.341591 462.940342 167.706649 462.937199 178.071708 462.928662 188.436767 462.906808 198.801825 462.854087 209.166884 462.734297 219.531943 462.478067 229.897001 461.962433 240.262060 460.986953 250.627119 459.253785 260.992177 456.365308 271.357236 451.857154 281.722295 445.282356 292.087353 436.349201 302.452412 425.091134 312.817471 412.018628 323.182529 398.184806 333.547588 385.104586 343.912647 374.508204 354.277705 367.973927 364.642764 366.544345 375.007823 370.454126 385.372881 379.066986 395.737940 391.045142 406.102999 404.689213 416.468057 418.329863 426.833116 430.648219 437.198175 440.845964 447.563233 448.651758 457.928292 454.206360 468.293351 457.894454 478.658409 460.185251 489.023468 461.518859 499.388527 462.247556 509.753585 462.621684 520.118644 462.802329 530.483703 462.884415 540.848761 462.919538 551.213820 462.933696 561.578879 462.939074 571.943937 462.941001 582.308996 462.941651 592.674055 462.941859 603.039113 462.941921 613.404172 462.941939 623.769231 462.941943" /></g><g class="series serie-12 color-12"><path class="line reactive nofill" d="M12.230769 462.941945 L22.595828 462.941945 32.960887 462.941945 43.325945 462.941945 53.691004 462.941944 64.056063 462.941940 74.421121 462.941929 84.786180 462.941894 95.151239 462.941787 105.516297 462.941477 115.881356 462.940622 126.246415 462.938368 136.611473 462.932711 146.976532 462.919176 157.341591 462.888325 167.706649 462.821346 178.071708 462.682886 188.436767 462.410467 198.801825 461.900571 209.166884 460.993168 219.531943 459.458959 229.897001 456.996622 240.262060 453.249502 250.627119 447.850698 260.992177 440.500485 271.357236 431.069810 281.722295 419.709947 292.087353 406.936075 302.452412 393.647906 312.817471 381.059219 323.182529 370.531131 333.547588 363.335511 343.912647 360.403653 354.277705 362.128408 364.642764 368.277756 375.007823 378.046054 385.372881 390.227329 395.737940 403.459221 406.102999 416.469655 416.468057 428.265754 426.833116 438.230236 437.198175 446.122631 447.563233 452.008731 457.928292 456.154262 468.293351 458.917284 478.658409 460.662804 489.023468 461.709274 499.388527 462.305212 509.753585 462.627821 520.118644 462.793939 530.483703 462.875342 540.848761 462.913320 551.213820 462.930195 561.578879 462.937339 571.943937 462.940220 582.308996 462.941328 592.674055 462.941734 603.039113 462.941876 613.404172 462.941923 623.769231 462.941938" /></g><g class="series serie-13 color-13"><path class="line reactive nofill" d="M12.230769 462.862661 L22.595828 462.815046 32.960887 462.742297 43.325945 462.633198 53.691004 462.472622 64.056063 462.240695 74.421121 461.912021 84.786180 461.455089 95.151239 460.832033 105.516297 459.998939 115.881356 458.906888 126.246415 457.503940 136.611473 455.738155 146.976532 453.561704 157.341591 450.935940 167.706649 447.837161 178.071708 444.262583 188.436767 440.235922 198.801825 435.811831 209.166884 431.078430 219.531943 426.157241 229.897001 421.200032 240.262060 416.382375 250.627119 411.894139 260.992177 407.927503 271.357236 404.663513 281.722295 402.258459 292.087353 400.831492 302.452412 400.454842 312.817471 401.147762 323.182529 402.874894 333.547588 405.549260 343.912647 409.039521 354.277705 413.180664 364.642764 417.786895 375.007823 422.665362 385.372881 427.629286 395.737940 432.509297 406.102999 437.162084 416.468057 441.475857 426.833116 445.372551 437.198175 448.807064 447.563233 451.764075 457.928292 454.253192 468.293351 456.303179 478.658409 457.955985 489.023468 459.261149 499.388527 460.270992 509.753585 461.036826 520.118644 461.606243 530.483703 462.021435 540.848761 462.318384 551.213820 462.526741 561.578879 462.670192 571.943937 462.767113 582.308996 462.831385 592.674055 462.873221 603.039113 462.899955 613.404172 462.916727 623.769231 462.927057" /></g></g><g class="titles"><text class="title plot_title" x="400.0" y="26">Iteration #10</text><text class="title" x="462.0" y="580.0">Observation</text><text class="title" transform="rotate(-90 64.000000 282.009619)" x="64.0" y="308.0096189432334">Density</text></g><g class="plot overlay" transform="translate(144, 46)"><g class="series serie-0 color-0" /><g class="series serie-1 color-1" /><g class="series serie-2 color-2" /><g class="series serie-3 color-3" /><g class="series serie-4 color-4" /><g class="series serie-5 color-5" /><g class="series serie-6 color-6" /><g class="series serie-7 color-7" /><g class="series serie-8 color-8" /><g class="series serie-9 color-9" /><g class="series serie-10 color-10" /><g class="series serie-11 color-11" /><g class="series serie-12 color-12" /><g class="series serie-13 color-13" /></g><g class="plot text-overlay" transform="translate(144, 46)"><g class="series serie-0 color-0" /><g class="series serie-1 color-1" /><g class="series serie-2 color-2" /><g class="series serie-3 color-3" /><g class="series serie-4 color-4" /><g class="series serie-5 color-5" /><g class="series serie-6 color-6" /><g class="series serie-7 color-7" /><g class="series serie-8 color-8" /><g class="series serie-9 color-9" /><g class="series serie-10 color-10" /><g class="series serie-11 color-11" /><g class="series serie-12 color-12" /><g class="series serie-13 color-13" /></g><g class="plot tooltip-overlay" transform="translate(144, 46)"><g class="tooltip" style="opacity: 0" transform="translate(0 0)"><rect class="tooltip-box" height="0" rx="0" ry="0" width="0" /><g class="text" /></g></g><g class="legends" transform="translate(10, 56)"><g class="legend reactive activate-serie" id="activate-serie-0"><rect class="color-0 reactive" height="12" width="12" x="0.0" y="0.0" /><text x="17.0" y="9.0">Data</text></g><g class="legend reactive activate-serie" id="activate-serie-1"><rect class="color-1 reactive" height="12" width="12" x="0.0" y="18.0" /><text x="17.0" y="27.0">GMM</text></g><g class="legend reactive activate-serie" id="activate-serie-2"><rect class="color-2 reactive" height="12" width="12" x="0.0" y="36.0" /><text x="17.0" y="45.0">i=0</text></g><g class="legend reactive activate-serie" id="activate-serie-3"><rect class="color-3 reactive" height="12" width="12" x="0.0" y="54.0" /><text x="17.0" y="63.0">i=1</text></g><g class="legend reactive activate-serie" id="activate-serie-4"><rect class="color-4 reactive" height="12" width="12" x="0.0" y="72.0" /><text x="17.0" y="81.0">i=0 k=0</text></g><g class="legend reactive activate-serie" id="activate-serie-5"><rect class="color-5 reactive" height="12" width="12" x="0.0" y="90.0" /><text x="17.0" y="99.0">i=0 k=1</text></g><g class="legend reactive activate-serie" id="activate-serie-6"><rect class="color-6 reactive" height="12" width="12" x="0.0" y="108.0" /><text x="17.0" y="117.0">i=0 k=2</text></g><g class="legend reactive activate-serie" id="activate-serie-7"><rect class="color-7 reactive" height="12" width="12" x="0.0" y="126.0" /><text x="17.0" y="135.0">i=0 k=3</text></g><g class="legend reactive activate-serie" id="activate-serie-8"><rect class="color-8 reactive" height="12" width="12" x="0.0" y="144.0" /><text x="17.0" y="153.0">i=0 k=4</text></g><g class="legend reactive activate-serie" id="activate-serie-9"><rect class="color-9 reactive" height="12" width="12" x="0.0" y="162.0" /><text x="17.0" y="171.0">i=1 k=0</text></g><g class="legend reactive activate-serie" id="activate-serie-10"><rect class="color-10 reactive" height="12" width="12" x="0.0" y="180.0" /><text x="17.0" y="189.0">i=1 k=1</text></g><g class="legend reactive activate-serie" id="activate-serie-11"><rect class="color-11 reactive" height="12" width="12" x="0.0" y="198.0" /><text x="17.0" y="207.0">i=1 k=2</text></g><g class="legend reactive activate-serie" id="activate-serie-12"><rect class="color-12 reactive" height="12" width="12" x="0.0" y="216.0" /><text x="17.0" y="225.0">i=1 k=3</text></g><g class="legend reactive activate-serie" id="activate-serie-13"><rect class="color-13 reactive" height="12" width="12" x="0.0" y="234.0" /><text x="17.0" y="243.0">i=1 k=4</text></g></g><g class="legends" transform="translate(790, 56)" /></g></svg>