<?xml version='1.0' encoding='utf-8'?>
<svg xmlns:xlink="http://www.w3.org/1999/xlink" class="pygal-chart" id="chart-2b1c22e0-0406-4943-b95a-8e723f6aaa06" viewBox="0 0 800 600" xmlns="http://www.w3.org/2000/svg"><!--Generated with pygal 2.4.0 (etree) ©Kozea 2012-2016 on 2018-01-17--><!--http://pygal.org--><!--http://github.com/Kozea/pygal--><defs><style type="text/css">#chart-2b1c22e0-0406-4943-b95a-8e723f6aaa06{-webkit-user-select:none;-webkit-font-smoothing:antialiased;font-family:Consolas,"Liberation Mono",Menlo,Courier,monospace}#chart-2b1c22e0-0406-4943-b95a-8e723f6aaa06 .title{font-family:Consolas,"Liberation Mono",Menlo,Courier,monospace;font-size:16px}#chart-2b1c22e0-0406-4943-b95a-8e723f6aaa06 .legends .legend text{font-family:Consolas,"Liberation Mono",Menlo,Courier,monospace;font-size:10px}#chart-2b1c22e0-0406-4943-b95a-8e723f6aaa06 .axis text{font-family:Consolas,"Liberation Mono",Menlo,Courier,monospace;font-size:10px}#chart-2b1c22e0-0406-4943-b95a-8e723f6aaa06 .axis text.major{font-family:Consolas,"Liberation Mono",Menlo,Courier,monospace;font-size:10px}#chart-2b1c22e0-0406-4943-b95a-8e723f6aaa06 .text-overlay text.value{font-family:Consolas,"Liberation Mono",Menlo,Courier,monospace;font-size:16px}#chart-2b1c22e0-0406-4943-b95a-8e723f6aaa06 .text-overlay text.label{font-family:Consolas,"Liberation Mono",Menlo,Courier,monospace;font-size:10px}#chart-2b1c22e0-0406-4943-b95a-8e723f6aaa06 .tooltip{font-family:Consolas,"Liberation Mono",Menlo,Courier,monospace;font-size:14px}#chart-2b1c22e0-0406-4943-b95a-8e723f6aaa06 text.no_data{font-family:Consolas,"Liberation Mono",Menlo,Courier,monospace;font-size:64px}
#chart-2b1c22e0-0406-4943-b95a-8e723f6aaa06{background-color:rgba(249,249,249,1)}#chart-2b1c22e0-0406-4943-b95a-8e723f6aaa06 path,#chart-2b1c22e0-0406-4943-b95a-8e723f6aaa06 line,#chart-2b1c22e0-0406-4943-b95a-8e723f6aaa06 rect,#chart-2b1c22e0-0406-4943-b95a-8e723f6aaa06 circle{-webkit-transition:150ms;-moz-transition:150ms;transition:150ms}#chart-2b1c22e0-0406-4943-b95a-8e723f6aaa06 .graph &gt; .background{fill:rgba(249,249,249,1)}#chart-2b1c22e0-0406-4943-b95a-8e723f6aaa06 .plot &gt; .background{fill:rgba(255,255,255,1)}#chart-2b1c22e0-0406-4943-b95a-8e723f6aaa06 .graph{fill:rgba(0,0,0,.87)}#chart-2b1c22e0-0406-4943-b95a-8e723f6aaa06 text.no_data{fill:rgba(0,0,0,1)}#chart-2b1c22e0-0406-4943-b95a-8e723f6aaa06 .title{fill:rgba(0,0,0,1)}#chart-2b1c22e0-0406-4943-b95a-8e723f6aaa06 .legends .legend text{fill:rgba(0,0,0,.87)}#chart-2b1c22e0-0406-4943-b95a-8e723f6aaa06 .legends .legend:hover text{fill:rgba(0,0,0,1)}#chart-2b1c22e0-0406-4943-b95a-8e723f6aaa06 .axis .line{stroke:rgba(0,0,0,1)}#chart-2b1c22e0-0406-4943-b95a-8e723f6aaa06 .axis .guide.line{stroke:rgba(0,0,0,.54)}#chart-2b1c22e0-0406-4943-b95a-8e723f6aaa06 .axis .major.line{stroke:rgba(0,0,0,.87)}#chart-2b1c22e0-0406-4943-b95a-8e723f6aaa06 .axis text.major{fill:rgba(0,0,0,1)}#chart-2b1c22e0-0406-4943-b95a-8e723f6aaa06 .axis.y .guides:hover .guide.line,#chart-2b1c22e0-0406-4943-b95a-8e723f6aaa06 .line-graph .axis.x .guides:hover .guide.line,#chart-2b1c22e0-0406-4943-b95a-8e723f6aaa06 .stackedline-graph .axis.x .guides:hover .guide.line,#chart-2b1c22e0-0406-4943-b95a-8e723f6aaa06 .xy-graph .axis.x .guides:hover .guide.line{stroke:rgba(0,0,0,1)}#chart-2b1c22e0-0406-4943-b95a-8e723f6aaa06 .axis .guides:hover text{fill:rgba(0,0,0,1)}#chart-2b1c22e0-0406-4943-b95a-8e723f6aaa06 .reactive{fill-opacity:.7;stroke-opacity:.8}#chart-2b1c22e0-0406-4943-b95a-8e723f6aaa06 .ci{stroke:rgba(0,0,0,.87)}#chart-2b1c22e0-0406-4943-b95a-8e723f6aaa06 .reactive.active,#chart-2b1c22e0-0406-4943-b95a-8e723f6aaa06 .active .reactive{fill-opacity:.8;stroke-opacity:.9;stroke-width:4}#chart-2b1c22e0-0406-4943-b95a-8e723f6aaa06 .ci .reactive.active{stroke-width:1.5}#chart-2b1c22e0-0406-4943-b95a-8e723f6aaa06 .series text{fill:rgba(0,0,0,1)}#chart-2b1c22e0-0406-4943-b95a-8e723f6aaa06 .tooltip rect{fill:rgba(255,255,255,1);stroke:rgba(0,0,0,1);-webkit-transition:opacity 150ms;-moz-transition:opacity 150ms;transition:opacity 150ms}#chart-2b1c22e0-0406-4943-b95a-8e723f6aaa06 .tooltip .label{fill:rgba(0,0,0,.87)}#chart-2b1c22e0-0406-4943-b95a-8e723f6aaa06 .tooltip .label{fill:rgba(0,0,0,.87)}#chart-2b1c22e0-0406-4943-b95a-8e723f6aaa06 .tooltip .legend{font-size:.8em;fill:rgba(0,0,0,.54)}#chart-2b1c22e0-0406-4943-b95a-8e723f6aaa06 .tooltip .x_label{font-size:.6em;fill:rgba(0,0,0,1)}#chart-2b1c22e0-0406-4943-b95a-8e723f6aaa06 .tooltip .xlink{font-size:.5em;text-decoration:underline}#chart-2b1c22e0-0406-4943-b95a-8e723f6aaa06 .tooltip .value{font-size:1.5em}#chart-2b1c22e0-0406-4943-b95a-8e723f6aaa06 .bound{font-size:.5em}#chart-2b1c22e0-0406-4943-b95a-8e723f6aaa06 .max-value{font-size:.75em;fill:rgba(0,0,0,.54)}#chart-2b1c22e0-0406-4943-b95a-8e723f6aaa06 .map-element{fill:rgba(255,255,255,1);stroke:rgba(0,0,0,.54) !important}#chart-2b1c22e0-0406-4943-b95a-8e723f6aaa06 .map-element .reactive{fill-opacity:inherit;stroke-opacity:inherit}#chart-2b1c22e0-0406-4943-b95a-8e723f6aaa06 .color-0,#chart-2b1c22e0-0406-4943-b95a-8e723f6aaa06 .color-0 a:visited{stroke:#909090;fill:#909090}#chart-2b1c22e0-0406-4943-b95a-8e723f6aaa06 .color-1,#chart-2b1c22e0-0406-4943-b95a-8e723f6aaa06 .color-1 a:visited{stroke:#000000;fill:#000000}#chart-2b1c22e0-0406-4943-b95a-8e723f6aaa06 .color-2,#chart-2b1c22e0-0406-4943-b95a-8e723f6aaa06 .color-2 a:visited{stroke:#ff0500;fill:#ff0500}#chart-2b1c22e0-0406-4943-b95a-8e723f6aaa06 .color-3,#chart-2b1c22e0-0406-4943-b95a-8e723f6aaa06 .color-3 a:visited{stroke:#323299;fill:#323299}#chart-2b1c22e0-0406-4943-b95a-8e723f6aaa06 .color-4,#chart-2b1c22e0-0406-4943-b95a-8e723f6aaa06 .color-4 a:visited{stroke:#a3413f;fill:#a3413f}#chart-2b1c22e0-0406-4943-b95a-8e723f6aaa06 .color-5,#chart-2b1c22e0-0406-4943-b95a-8e723f6aaa06 .color-5 a:visited{stroke:#a3413f;fill:#a3413f}#chart-2b1c22e0-0406-4943-b95a-8e723f6aaa06 .color-6,#chart-2b1c22e0-0406-4943-b95a-8e723f6aaa06 .color-6 a:visited{stroke:#a3413f;fill:#a3413f}#chart-2b1c22e0-0406-4943-b95a-8e723f6aaa06 .color-7,#chart-2b1c22e0-0406-4943-b95a-8e723f6aaa06 .color-7 a:visited{stroke:#a3413f;fill:#a3413f}#chart-2b1c22e0-0406-4943-b95a-8e723f6aaa06 .color-8,#chart-2b1c22e0-0406-4943-b95a-8e723f6aaa06 .color-8 a:visited{stroke:#a3413f;fill:#a3413f}#chart-2b1c22e0-0406-4943-b95a-8e723f6aaa06 .color-9,#chart-2b1c22e0-0406-4943-b95a-8e723f6aaa06 .color-9 a:visited{stroke:#657fff;fill:#657fff}#chart-2b1c22e0-0406-4943-b95a-8e723f6aaa06 .color-10,#chart-2b1c22e0-0406-4943-b95a-8e723f6aaa06 .color-10 a:visited{stroke:#657fff;fill:#657fff}#chart-2b1c22e0-0406-4943-b95a-8e723f6aaa06 .color-11,#chart-2b1c22e0-0406-4943-b95a-8e723f6aaa06 .color-11 a:visited{stroke:#657fff;fill:#657fff}#chart-2b1c22e0-0406-4943-b95a-8e723f6aaa06 .color-12,#chart-2b1c22e0-0406-4943-b95a-8e723f6aaa06 .color-12 a:visited{stroke:#657fff;fill:#657fff}#chart-2b1c22e0-0406-4943-b95a-8e723f6aaa06 .color-13,#chart-2b1c22e0-0406-4943-b95a-8e723f6aaa06 .color-13 a:visited{stroke:#657fff;fill:#657fff}#chart-2b1c22e0-0406-4943-b95a-8e723f6aaa06 .text-overlay .color-0 text{fill:black}#chart-2b1c22e0-0406-4943-b95a-8e723f6aaa06 .text-overlay .color-1 text{fill:white}#chart-2b1c22e0-0406-4943-b95a-8e723f6aaa06 .text-overlay .color-2 text{fill:black}#chart-2b1c22e0-0406-4943-b95a-8e723f6aaa06 .text-overlay .color-3 text{fill:black}#chart-2b1c22e0-0406-4943-b95a-8e723f6aaa06 .text-overlay .color-4 text{fill:black}#chart-2b1c22e0-0406-4943-b95a-8e723f6aaa06 .text-overlay .color-5 text{fill:black}#chart-2b1c22e0-0406-4943-b95a-8e723f6aaa06 .text-overlay .color-6 text{fill:black}#chart-2b1c22e0-0406-4943-b95a-8e723f6aaa06 .text-overlay .color-7 text{fill:black}#chart-2b1c22e0-0406-4943-b95a-8e723f6aaa06 .text-overlay .color-8 text{fill:black}#chart-2b1c22e0-0406-4943-b95a-8e723f6aaa06 .text-overlay .color-9 text{fill:black}#chart-2b1c22e0-0406-4943-b95a-8e723f6aaa06 .text-overlay .color-10 text{fill:black}#chart-2b1c22e0-0406-4943-b95a-8e723f6aaa06 .text-overlay .color-11 text{fill:black}#chart-2b1c22e0-0406-4943-b95a-8e723f6aaa06 .text-overlay .color-12 text{fill:black}#chart-2b1c22e0-0406-4943-b95a-8e723f6aaa06 .text-overlay .color-13 text{fill:black}#chart-2b1c22e0-0406-4943-b95a-8e723f6aaa06 .series.serie-1{stroke-width:5}#chart-2b1c22e0-0406-4943-b95a-8e723f6aaa06 .series.serie-2{stroke-width:3}#chart-2b1c22e0-0406-4943-b95a-8e723f6aaa06 .series.serie-3{stroke-width:3}#chart-2b1c22e0-0406-4943-b95a-8e723f6aaa06 .series.serie-4{stroke-width:2;stroke-dasharray:2,2}#chart-2b1c22e0-0406-4943-b95a-8e723f6aaa06 .series.serie-5{stroke-width:2;stroke-dasharray:2,2}#chart-2b1c22e0-0406-4943-b95a-8e723f6aaa06 .series.serie-6{stroke-width:2;stroke-dasharray:2,2}#chart-2b1c22e0-0406-4943-b95a-8e723f6aaa06 .series.serie-7{stroke-width:2;stroke-dasharray:2,2}#chart-2b1c22e0-0406-4943-b95a-8e723f6aaa06 .series.serie-8{stroke-width:2;stroke-dasharray:2,2}#chart-2b1c22e0-0406-4943-b95a-8e723f6aaa06 .series.serie-9{stroke-width:2;stroke-dasharray:2,2}#chart-2b1c22e0-0406-4943-b95a-8e723f6aaa06 .series.serie-10{stroke-width:2;stroke-dasharray:2,2}#chart-2b1c22e0-0406-4943-b95a-8e723f6aaa06 .series.serie-11{stroke-width:2;stroke-dasharray:2,2}#chart-2b1c22e0-0406-4943-b95a-8e723f6aaa06 .series.serie-12{stroke-width:2;stroke-dasharray:2,2}#chart-2b1c22e0-0406-4943-b95a-8e723f6aaa06 .series.serie-13{stroke-width:2;stroke-dasharray:2,2}
#chart-2b1c22e0-0406-4943-b95a-8e723f6aaa06 text.no_data{text-anchor:middle}#chart-2b1c22e0-0406-4943-b95a-8e723f6aaa06 .guide.line{fill:none}#chart-2b1c22e0-0406-4943-b95a-8e723f6aaa06 .centered{text-anchor:middle}#chart-2b1c22e0-0406-4943-b95a-8e723f6aaa06 .title{text-anchor:middle}#chart-2b1c22e0-0406-4943-b95a-8e723f6aaa06 .legends .legend text{fill-opacity:1}#chart-2b1c22e0-0406-4943-b95a-8e723f6aaa06 .axis.x text{text-anchor:middle}#chart-2b1c22e0-0406-4943-b95a-8e723f6aaa06 .axis.x:not(.web) text[transform]{text-anchor:start}#chart-2b1c22e0-0406-4943-b95a-8e723f6aaa06 .axis.x:not(.web) text[transform].backwards{text-anchor:end}#chart-2b1c22e0-0406-4943-b95a-8e723f6aaa06 .axis.y text{text-anchor:end}#chart-2b1c22e0-0406-4943-b95a-8e723f6aaa06 .axis.y text[transform].backwards{text-anchor:start}#chart-2b1c22e0-0406-4943-b95a-8e723f6aaa06 .axis.y2 text{text-anchor:start}#chart-2b1c22e0-0406-4943-b95a-8e723f6aaa06 .axis.y2 text[transform].backwards{text-anchor:end}#chart-2b1c22e0-0406-4943-b95a-8e723f6aaa06 .axis .guide.line{stroke-dasharray:4,4}#chart-2b1c22e0-0406-4943-b95a-8e723f6aaa06 .axis .major.guide.line{stroke-dasharray:6,6}#chart-2b1c22e0-0406-4943-b95a-8e723f6aaa06 .horizontal .axis.y .guide.line,#chart-2b1c22e0-0406-4943-b95a-8e723f6aaa06 .horizontal .axis.y2 .guide.line,#chart-2b1c22e0-0406-4943-b95a-8e723f6aaa06 .vertical .axis.x .guide.line{opacity:0}#chart-2b1c22e0-0406-4943-b95a-8e723f6aaa06 .horizontal .axis.always_show .guide.line,#chart-2b1c22e0-0406-4943-b95a-8e723f6aaa06 .vertical .axis.always_show .guide.line{opacity:1 !important}#chart-2b1c22e0-0406-4943-b95a-8e723f6aaa06 .axis.y .guides:hover .guide.line,#chart-2b1c22e0-0406-4943-b95a-8e723f6aaa06 .axis.y2 .guides:hover .guide.line,#chart-2b1c22e0-0406-4943-b95a-8e723f6aaa06 .axis.x .guides:hover .guide.line{opacity:1}#chart-2b1c22e0-0406-4943-b95a-8e723f6aaa06 .axis .guides:hover text{opacity:1}#chart-2b1c22e0-0406-4943-b95a-8e723f6aaa06 .nofill{fill:none}#chart-2b1c22e0-0406-4943-b95a-8e723f6aaa06 .subtle-fill{fill-opacity:.2}#chart-2b1c22e0-0406-4943-b95a-8e723f6aaa06 .dot{stroke-width:1px;fill-opacity:1}#chart-2b1c22e0-0406-4943-b95a-8e723f6aaa06 .dot.active{stroke-width:5px}#chart-2b1c22e0-0406-4943-b95a-8e723f6aaa06 .dot.negative{fill:transparent}#chart-2b1c22e0-0406-4943-b95a-8e723f6aaa06 text,#chart-2b1c22e0-0406-4943-b95a-8e723f6aaa06 tspan{stroke:none !important}#chart-2b1c22e0-0406-4943-b95a-8e723f6aaa06 .series text.active{opacity:1}#chart-2b1c22e0-0406-4943-b95a-8e723f6aaa06 .tooltip rect{fill-opacity:.95;stroke-width:.5}#chart-2b1c22e0-0406-4943-b95a-8e723f6aaa06 .tooltip text{fill-opacity:1}#chart-2b1c22e0-0406-4943-b95a-8e723f6aaa06 .showable{visibility:hidden}#chart-2b1c22e0-0406-4943-b95a-8e723f6aaa06 .showable.shown{visibility:visible}#chart-2b1c22e0-0406-4943-b95a-8e723f6aaa06 .gauge-background{fill:rgba(229,229,229,1);stroke:none}#chart-2b1c22e0-0406-4943-b95a-8e723f6aaa06 .bg-lines{stroke:rgba(249,249,249,1);stroke-width:2px}</style><script type="text/javascript">window.pygal = window.pygal || {};window.pygal.config = window.pygal.config || {};window.pygal.config['2b1c22e0-0406-4943-b95a-8e723f6aaa06'] = {"disable_xml_declaration": false, "css": ["file://style.css", "file://graph.css"], "show_y_labels": true, "show_y_guides": true, "stroke": true, "force_uri_protocol": "https", "legend_at_bottom": false, "truncate_legend": null, "tooltip_border_radius": 0, "explicit_size": false, "show_dots": false, "inverse_y_axis": false, "x_label_rotation": 60, "margin_left": null, "box_mode": "extremes", "zero": 0, "no_data_text": "No data", "show_legend": true, "legend_at_bottom_columns": null, "logarithmic": false, "order_min": null, "height": 600, "y_title": "Density", "range": [0, 0.27578580090479526], "stroke_style": null, "rounded_bars": null, "print_values_position": "center", "xrange": null, "y_label_rotation": 0, "defs": [], "y_labels_major_count": null, "no_prefix": false, "pretty_print": false, "dots_size": 2.5, "half_pie": false, "secondary_range": null, "x_labels_major_count": null, "interpolation_precision": 250, "interpolate": null, "truncate_label": null, "margin_right": null, "x_labels_major_every": 2, "x_labels": ["-8.96", "-8.76", "-8.56", "-8.36", "-8.16", "-7.96", "-7.76", "-7.56", "-7.36", "-7.16", "-6.96", "-6.76", "-6.56", "-6.36", "-6.16", "-5.96", "-5.76", "-5.56", "-5.36", "-5.16", "-4.96", "-4.76", "-4.56", "-4.36", "-4.16", "-3.96", "-3.76", "-3.56", "-3.36", "-3.16", "-2.96", "-2.76", "-2.56", "-2.36", "-2.16", "-1.96", "-1.76", "-1.56", "-1.36", "-1.16", "-0.96", "-0.76", "-0.56", "-0.36", "-0.16", "0.04", "0.24", "0.44", "0.64", "0.84", "1.04", "1.24", "1.43", "1.63", "1.83", "2.03", "2.23", "2.43", "2.63", "2.83"], "include_x_axis": false, "width": 800, "show_x_guides": false, "formatter": null, "show_minor_x_labels": false, "spacing": 10, "stack_from_top": false, "legend_box_size": 12, "strict": false, "classes": ["pygal-chart"], "js": ["//kozea.github.io/pygal.js/2.0.x/pygal-tooltips.min.js"], "show_x_labels": true, "x_title": "Observation", "print_values": false, "title": "Iteration #12", "dynamic_print_values": false, "max_scale": 16, "margin": 20, "legends": ["Data", "GMM", "i=0", "i=1", "i=0 k=0", "i=0 k=1", "i=0 k=2", "i=0 k=3", "i=0 k=4", "i=1 k=0", "i=1 k=1", "i=1 k=2", "i=1 k=3", "i=1 k=4"], "interpolation_parameters": {}, "allow_interruptions": false, "min_scale": 4, "style": {"transition": "150ms", "label_font_size": 10, "major_label_font_size": 10, "value_colors": [], "title_font_family": "Consolas, \"Liberation Mono\", Menlo, Courier, monospace", "value_font_family": "Consolas, \"Liberation Mono\", Menlo, Courier, monospace", "no_data_font_size": 64, "guide_stroke_dasharray": "4,4", "tooltip_font_size": 14, "tooltip_font_family": "Consolas, \"Liberation Mono\", Menlo, Courier, monospace", "background": "rgba(249, 249, 249, 1)", "value_label_font_family": "Consolas, \"Liberation Mono\", Menlo, Courier, monospace", "stroke_opacity_hover": ".9", "ci_colors": [], "value_font_size": 16, "plot_background": "rgba(255, 255, 255, 1)", "label_font_family": "Consolas, \"Liberation Mono\", Menlo, Courier, monospace", "foreground": "rgba(0, 0, 0, .87)", "major_label_font_family": "Consolas, \"Liberation Mono\", Menlo, Courier, monospace", "stroke_opacity": ".8", "colors": ["#909090", "#000000", "#ff0500", "#323299", "#a3413f", "#a3413f", "#a3413f", "#a3413f", "#a3413f", "#657fff", "#657fff", "#657fff", "#657fff", "#657fff"], "value_label_font_size": 10, "value_background": "rgba(229, 229, 229, 1)", "no_data_font_family": "Consolas, \"Liberation Mono\", Menlo, Courier, monospace", "legend_font_size": 10, "foreground_strong": "rgba(0, 0, 0, 1)", "legend_font_family": "Consolas, \"Liberation Mono\", Menlo, Courier, monospace", "title_font_size": 16, "foreground_subtle": "rgba(0, 0, 0, .54)", "major_guide_stroke_dasharray": "6,6", "font_family": "Consolas, \"Liberation Mono\", Menlo, Courier, monospace", "opacity_hover": ".8", "opacity": ".7"}, "margin_top": null, "x_labels_major": null, "print_zeroes": true, "y_labels": null, "fill": false, "y_labels_major_every": null, "inner_radius": 0, "margin_bottom": null, "show_only_major_dots": false, "missing_value_fill_truncation": "x", "y_labels_major": null, "tooltip_fancy_mode": true, "show_minor_y_labels": true, "print_labels": false}</script><script type="text/javascript" xlink:href="https://kozea.github.io/pygal.js/2.0.x/pygal-tooltips.min.js" /></defs><title>Iteration #12</title><g class="graph line-graph vertical"><rect class="background" height="600" width="800" x="0" y="0" /><g class="plot" transform="translate(144, 46)"><rect class="background" height="472.01923788646684" width="636.0" x="0" y="0" /><g class="axis y always_show"><g class="guides"><path class="axis major line" d="M0.000000 462.941945 h636.000000" /><text class="major" x="-5" y="466.44194485">0</text><title>0</title></g><g class="guides"><path class="guide line" d="M0.000000 430.027658 h636.000000" /><text class="" x="-5" y="433.527657724">0.02</text><title>0.02</title></g><g class="guides"><path class="guide line" d="M0.000000 397.113371 h636.000000" /><text class="" x="-5" y="400.613370598">0.04</text><title>0.04</title></g><g class="guides"><path class="guide line" d="M0.000000 364.199083 h636.000000" /><text class="" x="-5" y="367.699083472">0.06</text><title>0.06</title></g><g class="guides"><path class="guide line" d="M0.000000 331.284796 h636.000000" /><text class="" x="-5" y="334.784796346">0.08</text><title>0.08</title></g><g class="guides"><path class="guide line" d="M0.000000 298.370509 h636.000000" /><text class="" x="-5" y="301.87050922">0.1</text><title>0.1</title></g><g class="guides"><path class="guide line" d="M0.000000 265.456222 h636.000000" /><text class="" x="-5" y="268.956222094">0.12</text><title>0.12</title></g><g class="guides"><path class="guide line" d="M0.000000 232.541935 h636.000000" /><text class="" x="-5" y="236.041934968">0.14</text><title>0.14</title></g><g class="guides"><path class="guide line" d="M0.000000 199.627648 h636.000000" /><text class="" x="-5" y="203.127647841">0.16</text><title>0.16</title></g><g class="guides"><path class="guide line" d="M0.000000 166.713361 h636.000000" /><text class="" x="-5" y="170.213360715">0.18</text><title>0.18</title></g><g class="guides"><path class="guide line" d="M0.000000 133.799074 h636.000000" /><text class="" x="-5" y="137.299073589">0.2</text><title>0.2</title></g><g class="guides"><path class="guide line" d="M0.000000 100.884786 h636.000000" /><text class="" x="-5" y="104.384786463">0.22</text><title>0.22</title></g><g class="guides"><path class="guide line" d="M0.000000 67.970499 h636.000000" /><text class="" x="-5" y="71.4704993371">0.24</text><title>0.24</title></g><g class="guides"><path class="guide line" d="M0.000000 35.056212 h636.000000" /><text class="" x="-5" y="38.5562122111">0.26</text><title>0.26</title></g></g><g class="axis x"><g class="guides"><path class="major line" d="M12.230769 0.000000 v472.019238" /><text class="major" transform="rotate(60 12.230769 487.019238)" x="12.230769230769232" y="487.01923788646684">-8.96</text></g><g class="guides"><path class="major guide line" d="M32.960887 0.000000 v472.019238" /><text class="major" transform="rotate(60 32.960887 487.019238)" x="32.96088657105606" y="487.01923788646684">-8.56</text></g><g class="guides"><path class="major guide line" d="M53.691004 0.000000 v472.019238" /><text class="major" transform="rotate(60 53.691004 487.019238)" x="53.6910039113429" y="487.01923788646684">-8.16</text></g><g class="guides"><path class="major guide line" d="M74.421121 0.000000 v472.019238" /><text class="major" transform="rotate(60 74.421121 487.019238)" x="74.42112125162973" y="487.01923788646684">-7.76</text></g><g class="guides"><path class="major guide line" d="M95.151239 0.000000 v472.019238" /><text class="major" transform="rotate(60 95.151239 487.019238)" x="95.15123859191655" y="487.01923788646684">-7.36</text></g><g class="guides"><path class="major guide line" d="M115.881356 0.000000 v472.019238" /><text class="major" transform="rotate(60 115.881356 487.019238)" x="115.88135593220338" y="487.01923788646684">-6.96</text></g><g class="guides"><path class="major guide line" d="M136.611473 0.000000 v472.019238" /><text class="major" transform="rotate(60 136.611473 487.019238)" x="136.61147327249023" y="487.01923788646684">-6.56</text></g><g class="guides"><path class="major guide line" d="M157.341591 0.000000 v472.019238" /><text class="major" transform="rotate(60 157.341591 487.019238)" x="157.34159061277705" y="487.01923788646684">-6.16</text></g><g class="guides"><path class="major guide line" d="M178.071708 0.000000 v472.019238" /><text class="major" transform="rotate(60 178.071708 487.019238)" x="178.0717079530639" y="487.01923788646684">-5.76</text></g><g class="guides"><path class="major guide line" d="M198.801825 0.000000 v472.019238" /><text class="major" transform="rotate(60 198.801825 487.019238)" x="198.80182529335073" y="487.01923788646684">-5.36</text></g><g class="guides"><path class="major guide line" d="M219.531943 0.000000 v472.019238" /><text class="major" transform="rotate(60 219.531943 487.019238)" x="219.53194263363756" y="487.01923788646684">-4.96</text></g><g class="guides"><path class="major guide line" d="M240.262060 0.000000 v472.019238" /><text class="major" transform="rotate(60 240.262060 487.019238)" x="240.2620599739244" y="487.01923788646684">-4.56</text></g><g class="guides"><path class="major guide line" d="M260.992177 0.000000 v472.019238" /><text class="major" transform="rotate(60 260.992177 487.019238)" x="260.99217731421123" y="487.01923788646684">-4.16</text></g><g class="guides"><path class="major guide line" d="M281.722295 0.000000 v472.019238" /><text class="major" transform="rotate(60 281.722295 487.019238)" x="281.722294654498" y="487.01923788646684">-3.76</text></g><g class="guides"><path class="major guide line" d="M302.452412 0.000000 v472.019238" /><text class="major" transform="rotate(60 302.452412 487.019238)" x="302.4524119947849" y="487.01923788646684">-3.36</text></g><g class="guides"><path class="major guide line" d="M323.182529 0.000000 v472.019238" /><text class="major" transform="rotate(60 323.182529 487.019238)" x="323.1825293350717" y="487.01923788646684">-2.96</text></g><g class="guides"><path class="major guide line" d="M343.912647 0.000000 v472.019238" /><text class="major" transform="rotate(60 343.912647 487.019238)" x="343.91264667535853" y="487.01923788646684">-2.56</text></g><g class="guides"><path class="major guide line" d="M364.642764 0.000000 v472.019238" /><text class="major" transform="rotate(60 364.642764 487.019238)" x="364.64276401564535" y="487.01923788646684">-2.16</text></g><g class="guides"><path class="major guide line" d="M385.372881 0.000000 v472.019238" /><text class="major" transform="rotate(60 385.372881 487.019238)" x="385.37288135593224" y="487.01923788646684">-1.76</text></g><g class="guides"><path class="major guide line" d="M406.102999 0.000000 v472.019238" /><text class="major" transform="rotate(60 406.102999 487.019238)" x="406.102998696219" y="487.01923788646684">-1.36</text></g><g class="guides"><path class="major guide line" d="M426.833116 0.000000 v472.019238" /><text class="major" transform="rotate(60 426.833116 487.019238)" x="426.8331160365058" y="487.01923788646684">-0.96</text></g><g class="guides"><path class="major guide line" d="M447.563233 0.000000 v472.019238" /><text class="major" transform="rotate(60 447.563233 487.019238)" x="447.56323337679265" y="487.01923788646684">-0.56</text></g><g class="guides"><path class="major guide line" d="M468.293351 0.000000 v472.019238" /><text class="major" transform="rotate(60 468.293351 487.019238)" x="468.29335071707953" y="487.01923788646684">-0.16</text></g><g class="guides"><path class="major guide line" d="M489.023468 0.000000 v472.019238" /><text class="major" transform="rotate(60 489.023468 487.019238)" x="489.02346805736636" y="487.01923788646684">0.24</text></g><g class="guides"><path class="major guide line" d="M509.753585 0.000000 v472.019238" /><text class="major" transform="rotate(60 509.753585 487.019238)" x="509.75358539765324" y="487.01923788646684">0.64</text></g><g class="guides"><path class="major guide line" d="M530.483703 0.000000 v472.019238" /><text class="major" transform="rotate(60 530.483703 487.019238)" x="530.48370273794" y="487.01923788646684">1.04</text></g><g class="guides"><path class="major guide line" d="M551.213820 0.000000 v472.019238" /><text class="major" transform="rotate(60 551.213820 487.019238)" x="551.213820078227" y="487.01923788646684">1.43</text></g><g class="guides"><path class="major guide line" d="M571.943937 0.000000 v472.019238" /><text class="major" transform="rotate(60 571.943937 487.019238)" x="571.9439374185138" y="487.01923788646684">1.83</text></g><g class="guides"><path class="major guide line" d="M592.674055 0.000000 v472.019238" /><text class="major" transform="rotate(60 592.674055 487.019238)" x="592.6740547588006" y="487.01923788646684">2.23</text></g><g class="guides"><path class="major guide line" d="M613.404172 0.000000 v472.019238" /><text class="major" transform="rotate(60 613.404172 487.019238)" x="613.4041720990874" y="487.01923788646684">2.63</text></g></g><g class="series serie-0 color-0"><path class="line reactive" d="M12.230769 462.941945 L12.230769 462.019456 22.595828 462.941945 32.960887 461.096967 43.325945 462.019456 53.691004 459.251988 64.056063 462.019456 74.421121 458.329499 84.786180 462.019456 95.151239 458.329499 105.516297 462.019456 115.881356 448.182119 126.246415 460.174477 136.611473 457.407010 146.976532 457.407010 157.341591 451.872075 167.706649 448.182119 178.071708 454.639543 188.436767 445.414651 198.801825 442.647184 209.166884 436.189760 219.531943 437.112249 229.897001 392.832771 240.262060 396.522728 250.627119 376.227967 260.992177 355.933206 271.357236 351.320760 281.722295 325.491065 292.087353 277.521630 302.452412 283.056565 312.817471 202.800010 323.182529 188.040184 333.547588 169.590402 343.912647 123.465945 354.277705 95.791271 364.642764 67.194108 375.007823 82.876423 385.372881 60.736684 395.737940 80.108956 406.102999 29.372054 416.468057 9.077293 426.833116 70.884065 437.198175 69.039086 447.563233 41.364413 457.928292 40.441923 468.293351 91.178826 478.658409 140.993239 489.023468 214.792369 499.388527 259.071847 509.753585 321.801108 520.118644 364.235608 530.483703 408.515086 540.848761 430.654825 551.213820 448.182119 561.578879 455.562032 571.943937 458.329499 582.308996 458.329499 592.674055 462.019456 603.039113 462.941945 613.404172 462.019456 623.769231 462.941945" /></g><g class="series serie-1 color-1"><path class="line reactive nofill" d="M12.230769 462.910053 L22.595828 462.886759 32.960887 462.848305 43.325945 462.786142 53.691004 462.687746 64.056063 462.535262 74.421121 462.303944 84.786180 461.960492 95.151239 461.461472 105.516297 460.752094 115.881356 459.765717 126.246415 458.424504 136.611473 456.641688 146.976532 454.325809 157.341591 451.387077 167.706649 447.745585 178.071708 443.340305 188.436767 438.136528 198.801825 432.127472 209.166884 425.323460 219.531943 417.720415 229.897001 409.240943 240.262060 399.649602 250.627119 388.461610 260.992177 374.888412 271.357236 357.882498 281.722295 336.338849 292.087353 309.465560 302.452412 277.252191 312.817471 240.866343 323.182529 202.746144 333.547588 166.196816 343.912647 134.494199 354.277705 109.792800 364.642764 92.345470 375.007823 80.538368 385.372881 72.021780 395.737940 65.489323 406.102999 61.378507 416.468057 59.938185 426.833116 58.666747 437.198175 53.828062 447.563233 46.244302 457.928292 44.516611 468.293351 60.472246 478.658409 100.627284 489.023468 161.538381 499.388527 232.144015 509.753585 299.922417 520.118644 356.076268 530.483703 397.320877 540.848761 424.752776 551.213820 441.597778 561.578879 451.332383 571.943937 456.726242 582.308996 459.640168 592.674055 461.194928 603.039113 462.020758 613.404172 462.458777 623.769231 462.690630" /></g><g class="series serie-2 color-2"><path class="line reactive nofill" d="M12.230769 462.941945 L22.595828 462.941945 32.960887 462.941945 43.325945 462.941945 53.691004 462.941945 64.056063 462.941945 74.421121 462.941945 84.786180 462.941945 95.151239 462.941945 105.516297 462.941945 115.881356 462.941945 126.246415 462.941945 136.611473 462.941945 146.976532 462.941945 157.341591 462.941945 167.706649 462.941945 178.071708 462.941945 188.436767 462.941944 198.801825 462.941943 209.166884 462.941939 219.531943 462.941927 229.897001 462.941896 240.262060 462.941813 250.627119 462.941596 260.992177 462.941041 271.357236 462.939659 281.722295 462.936270 292.087353 462.928090 302.452412 462.908564 312.817471 462.862267 323.182529 462.752879 333.547588 462.495261 343.912647 461.893565 354.277705 460.515450 364.642764 457.469246 375.007823 451.086484 385.372881 438.627442 395.737940 416.323472 406.102999 380.219846 416.468057 328.110621 426.833116 262.144751 437.198175 190.679332 447.563233 127.537654 457.928292 87.879592 468.293351 82.171575 478.658409 111.555780 489.023468 167.467623 499.388527 235.679187 509.753585 302.170912 520.118644 357.543568 530.483703 398.279030 540.848761 425.371432 551.213820 441.990759 561.578879 451.577473 571.943937 456.876198 582.308996 459.730151 592.674055 461.247878 603.039113 462.051311 613.404172 462.476065 623.769231 462.700222" /></g><g class="series serie-3 color-3"><path class="line reactive nofill" d="M12.230769 462.910053 L22.595828 462.886759 32.960887 462.848305 43.325945 462.786142 53.691004 462.687746 64.056063 462.535262 74.421121 462.303944 84.786180 461.960492 95.151239 461.461472 105.516297 460.752094 115.881356 459.765717 126.246415 458.424504 136.611473 456.641688 146.976532 454.325809 157.341591 451.387077 167.706649 447.745585 178.071708 443.340305 188.436767 438.136529 198.801825 432.127474 209.166884 425.323466 219.531943 417.720433 229.897001 409.240992 240.262060 399.649734 250.627119 388.461960 260.992177 374.889316 271.357236 357.884784 281.722295 336.344524 292.087353 309.479414 302.452412 277.285571 312.817471 240.946021 323.182529 202.935209 333.547588 166.643500 343.912647 135.542579 354.277705 112.219296 364.642764 97.818169 375.007823 92.393829 385.372881 96.336283 395.737940 112.107796 406.102999 144.100606 416.468057 194.769508 426.833116 259.463941 437.198175 326.090674 447.563233 381.648593 457.928292 419.578963 468.293351 441.242616 478.658409 452.013449 489.023468 457.012703 499.388527 459.406772 509.753585 460.693450 520.118644 461.474645 530.483703 461.983792 540.848761 462.323289 551.213820 462.548963 561.578879 462.696855 571.943937 462.791988 582.308996 462.851962 592.674055 462.888995 603.039113 462.911392 613.404172 462.924657 623.769231 462.932353" /></g><g class="series serie-4 color-4"><path class="line reactive nofill" d="M12.230769 462.941945 L22.595828 462.941945 32.960887 462.941945 43.325945 462.941945 53.691004 462.941945 64.056063 462.941945 74.421121 462.941945 84.786180 462.941945 95.151239 462.941945 105.516297 462.941945 115.881356 462.941945 126.246415 462.941945 136.611473 462.941945 146.976532 462.941945 157.341591 462.941945 167.706649 462.941945 178.071708 462.941945 188.436767 462.941945 198.801825 462.941945 209.166884 462.941945 219.531943 462.941945 229.897001 462.941945 240.262060 462.941945 250.627119 462.941945 260.992177 462.941945 271.357236 462.941943 281.722295 462.941932 292.087353 462.941863 302.452412 462.941471 312.817471 462.939491 323.182529 462.930566 333.547588 462.894660 343.912647 462.765864 354.277705 462.354336 364.642764 461.184644 375.007823 458.232328 385.372881 451.630790 395.737940 438.596928 406.102999 415.985519 416.468057 381.778253 426.833116 337.220210 437.198175 288.423736 447.563233 245.845387 457.928292 220.924350 468.293351 221.160621 478.658409 246.480590 489.023468 289.273945 499.388527 338.076853 509.753585 382.488602 520.118644 416.487321 530.483703 438.904095 540.848761 451.795302 551.213820 458.309883 561.578879 461.216955 571.943937 462.366266 582.308996 462.769775 592.674055 462.895801 603.039113 462.930862 613.404172 462.939559 623.769231 462.941485" /></g><g class="series serie-5 color-5"><path class="line reactive nofill" d="M12.230769 462.941945 L22.595828 462.941945 32.960887 462.941945 43.325945 462.941945 53.691004 462.941945 64.056063 462.941945 74.421121 462.941945 84.786180 462.941945 95.151239 462.941945 105.516297 462.941945 115.881356 462.941945 126.246415 462.941945 136.611473 462.941945 146.976532 462.941945 157.341591 462.941945 167.706649 462.941945 178.071708 462.941945 188.436767 462.941945 198.801825 462.941945 209.166884 462.941945 219.531943 462.941945 229.897001 462.941945 240.262060 462.941945 250.627119 462.941943 260.992177 462.941936 271.357236 462.941900 281.722295 462.941744 292.087353 462.941116 302.452412 462.938792 312.817471 462.930887 323.182529 462.906180 333.547588 462.835275 343.912647 462.648563 354.277705 462.197847 364.642764 461.201608 375.007823 459.188390 385.372881 455.476452 395.737940 449.249522 406.102999 439.783559 416.468057 426.822387 426.833116 410.992281 437.198175 394.040360 447.563233 378.670229 457.928292 367.894460 468.293351 364.085365 478.658409 368.127022 489.023468 379.082117 499.388527 394.544890 509.753585 411.498861 520.118644 427.262117 530.483703 440.121471 540.848761 449.482327 551.213820 455.621340 561.578879 459.270243 571.943937 461.243725 582.308996 462.217631 592.674055 462.657063 603.039113 462.838619 613.404172 462.907386 623.769231 462.931286" /></g><g class="series serie-6 color-6"><path class="line reactive nofill" d="M12.230769 462.941945 L22.595828 462.941945 32.960887 462.941945 43.325945 462.941945 53.691004 462.941945 64.056063 462.941945 74.421121 462.941945 84.786180 462.941945 95.151239 462.941945 105.516297 462.941945 115.881356 462.941945 126.246415 462.941945 136.611473 462.941945 146.976532 462.941945 157.341591 462.941945 167.706649 462.941945 178.071708 462.941945 188.436767 462.941945 198.801825 462.941945 209.166884 462.941945 219.531943 462.941944 229.897001 462.941942 240.262060 462.941933 250.627119 462.941901 260.992177 462.941796 271.357236 462.941462 281.722295 462.940471 292.087353 462.937709 302.452412 462.930469 312.817471 462.912637 323.182529 462.871400 333.547588 462.781893 343.912647 462.599682 354.277705 462.252081 364.642764 461.631340 375.007823 460.595098 385.372881 458.980965 395.737940 456.640715 406.102999 453.493667 416.468057 449.588762 426.833116 445.154168 437.198175 440.608109 447.563233 436.511181 457.928292 433.459680 468.293351 431.945153 478.658409 432.225044 489.023468 434.251136 499.388527 437.683131 509.753585 441.982110 520.118644 446.548602 530.483703 450.856798 540.848761 454.544617 551.213820 457.442295 561.578879 459.546992 571.943937 460.966626 582.308996 461.858653 592.674055 462.381983 603.039113 462.669125 613.404172 462.816660 623.769231 462.887717" /></g><g class="series serie-7 color-7"><path class="line reactive nofill" d="M12.230769 462.941945 L22.595828 462.941945 32.960887 462.941945 43.325945 462.941945 53.691004 462.941945 64.056063 462.941945 74.421121 462.941945 84.786180 462.941945 95.151239 462.941945 105.516297 462.941945 115.881356 462.941945 126.246415 462.941945 136.611473 462.941945 146.976532 462.941945 157.341591 462.941945 167.706649 462.941945 178.071708 462.941945 188.436767 462.941945 198.801825 462.941944 209.166884 462.941942 219.531943 462.941937 229.897001 462.941921 240.262060 462.941877 250.627119 462.941763 260.992177 462.941476 271.357236 462.940789 281.722295 462.939221 292.087353 462.935799 302.452412 462.928673 312.817471 462.914519 323.182529 462.887703 333.547588 462.839274 343.912647 462.755952 354.277705 462.619480 364.642764 462.406882 375.007823 462.092252 385.372881 461.650559 395.737940 461.063555 406.102999 460.327065 416.468057 459.458140 426.833116 458.499807 437.198175 457.521109 447.563233 456.610882 457.928292 455.865371 468.293351 455.371776 478.658409 455.191544 489.023468 455.347800 499.388527 455.820475 509.753585 456.550537 520.118644 457.452107 530.483703 458.429015 540.848761 459.391411 551.213820 460.268539 561.578879 461.015430 571.943937 461.613279 582.308996 462.064954 592.674055 462.387944 603.039113 462.607008 613.404172 462.748146 623.769231 462.834626" /></g><g class="series serie-8 color-8"><path class="line reactive nofill" d="M12.230769 462.941945 L22.595828 462.941945 32.960887 462.941945 43.325945 462.941945 53.691004 462.941945 64.056063 462.941945 74.421121 462.941945 84.786180 462.941945 95.151239 462.941945 105.516297 462.941945 115.881356 462.941945 126.246415 462.941945 136.611473 462.941945 146.976532 462.941945 157.341591 462.941945 167.706649 462.941945 178.071708 462.941945 188.436767 462.941944 198.801825 462.941944 209.166884 462.941942 219.531943 462.941936 229.897001 462.941924 240.262060 462.941893 250.627119 462.941823 260.992177 462.941669 271.357236 462.941344 281.722295 462.940681 292.087353 462.939383 302.452412 462.936939 312.817471 462.932512 323.182529 462.924810 333.547588 462.911938 343.912647 462.891284 354.277705 462.859485 364.642764 462.812551 375.007823 462.746196 385.372881 462.656455 395.737940 462.540531 406.102999 462.397815 416.468057 462.230859 426.833116 462.046064 437.198175 461.853797 447.563233 461.667754 457.928292 461.503511 468.293351 461.376440 478.658409 461.299358 489.023468 461.280404 499.388527 461.321618 509.753585 461.418581 520.118644 461.561200 530.483703 461.735431 540.848761 461.925555 551.213820 462.116482 561.578879 462.295631 571.943937 462.454081 582.308996 462.586917 592.674055 462.692867 603.039113 462.773477 613.404172 462.832093 623.769231 462.872888" /></g><g class="series serie-9 color-9"><path class="line reactive nofill" d="M12.230769 462.941945 L22.595828 462.941945 32.960887 462.941945 43.325945 462.941945 53.691004 462.941945 64.056063 462.941945 74.421121 462.941945 84.786180 462.941945 95.151239 462.941945 105.516297 462.941945 115.881356 462.941945 126.246415 462.941945 136.611473 462.941945 146.976532 462.941945 157.341591 462.941945 167.706649 462.941945 178.071708 462.941945 188.436767 462.941945 198.801825 462.941945 209.166884 462.941945 219.531943 462.941945 229.897001 462.941945 240.262060 462.941945 250.627119 462.941945 260.992177 462.941945 271.357236 462.941945 281.722295 462.941944 292.087353 462.941934 302.452412 462.941814 312.817471 462.940664 323.182529 462.931857 333.547588 462.877940 343.912647 462.614863 354.277705 461.595741 364.642764 458.479446 375.007823 451.027937 385.372881 437.323645 395.737940 418.575421 406.102999 401.058689 416.468057 393.422938 426.833116 400.042527 437.198175 417.106406 447.563233 436.040803 457.928292 450.225909 468.293351 458.100829 478.658409 461.457542 489.023468 462.575363 499.388527 462.869032 509.753585 462.930265 520.118644 462.940438 530.483703 462.941788 540.848761 462.941932 551.213820 462.941944 561.578879 462.941945 571.943937 462.941945 582.308996 462.941945 592.674055 462.941945 603.039113 462.941945 613.404172 462.941945 623.769231 462.941945" /></g><g class="series serie-10 color-10"><path class="line reactive nofill" d="M12.230769 462.941945 L22.595828 462.941945 32.960887 462.941945 43.325945 462.941945 53.691004 462.941945 64.056063 462.941945 74.421121 462.941945 84.786180 462.941945 95.151239 462.941945 105.516297 462.941945 115.881356 462.941945 126.246415 462.941945 136.611473 462.941945 146.976532 462.941945 157.341591 462.941945 167.706649 462.941945 178.071708 462.941945 188.436767 462.941945 198.801825 462.941945 209.166884 462.941945 219.531943 462.941945 229.897001 462.941945 240.262060 462.941942 250.627119 462.941923 260.992177 462.941774 271.357236 462.940809 281.722295 462.935435 292.087353 462.909695 302.452412 462.803883 312.817471 462.431156 323.182529 461.308793 333.547588 458.429324 343.912647 452.166177 354.277705 440.704518 364.642764 423.283301 375.007823 401.818449 385.372881 381.528614 395.737940 369.228939 406.102999 369.719344 416.468057 382.800057 426.833116 403.401109 437.198175 424.713442 447.563233 441.730187 457.928292 452.770491 468.293351 458.726859 478.658409 461.432397 489.023468 462.474743 499.388527 462.816983 509.753585 462.913060 520.118644 462.936175 530.483703 462.940949 540.848761 462.941796 551.213820 462.941926 561.578879 462.941943 571.943937 462.941945 582.308996 462.941945 592.674055 462.941945 603.039113 462.941945 613.404172 462.941945 623.769231 462.941945" /></g><g class="series serie-11 color-11"><path class="line reactive nofill" d="M12.230769 462.941945 L22.595828 462.941945 32.960887 462.941945 43.325945 462.941945 53.691004 462.941945 64.056063 462.941945 74.421121 462.941945 84.786180 462.941945 95.151239 462.941945 105.516297 462.941945 115.881356 462.941945 126.246415 462.941945 136.611473 462.941945 146.976532 462.941945 157.341591 462.941945 167.706649 462.941943 178.071708 462.941935 188.436767 462.941894 198.801825 462.941700 209.166884 462.940859 219.531943 462.937550 229.897001 462.925686 240.262060 462.886976 250.627119 462.772101 260.992177 462.462331 271.357236 461.704165 281.722295 460.022482 292.087353 456.648749 302.452412 450.544051 312.817471 440.619949 323.182529 426.211467 333.547588 407.705136 343.912647 387.024946 354.277705 367.583769 364.642764 353.474424 375.007823 348.094568 385.372881 352.822167 395.737940 366.444010 406.102999 385.659801 416.468057 406.376820 426.833116 425.104066 437.198175 439.809940 447.563233 450.017610 457.928292 456.342437 468.293351 459.862139 478.658409 461.628404 489.023468 462.429942 499.388527 462.759551 509.753585 462.882563 520.118644 462.924276 530.483703 462.937140 540.848761 462.940751 551.213820 462.941674 561.578879 462.941889 571.943937 462.941934 582.308996 462.941943 592.674055 462.941945 603.039113 462.941945 613.404172 462.941945 623.769231 462.941945" /></g><g class="series serie-12 color-12"><path class="line reactive nofill" d="M12.230769 462.941945 L22.595828 462.941945 32.960887 462.941945 43.325945 462.941945 53.691004 462.941945 64.056063 462.941945 74.421121 462.941945 84.786180 462.941945 95.151239 462.941945 105.516297 462.941944 115.881356 462.941942 126.246415 462.941931 136.611473 462.941885 146.976532 462.941696 157.341591 462.940983 167.706649 462.938483 178.071708 462.930355 188.436767 462.905842 198.801825 462.837291 209.166884 462.659660 219.531943 462.233439 229.897001 461.287228 240.262060 459.345881 250.627119 455.669929 260.992177 449.258174 271.357236 438.982297 281.722295 423.904740 292.087353 403.758447 302.452412 379.449690 312.817471 353.340727 323.182529 329.064254 333.547588 310.773472 343.912647 302.001650 354.277705 304.551660 364.642764 317.892548 375.007823 339.339531 385.372881 364.933925 395.737940 390.628356 406.102999 413.293934 416.468057 431.223825 426.833116 444.086506 437.198175 452.511820 447.563233 457.573284 457.928292 460.370566 468.293351 461.795931 478.658409 462.466678 489.023468 462.758541 499.388527 462.876088 509.753585 462.919940 520.118644 462.935103 530.483703 462.939965 540.848761 462.941412 551.213820 462.941811 561.578879 462.941914 571.943937 462.941938 582.308996 462.941943 592.674055 462.941945 603.039113 462.941945 613.404172 462.941945 623.769231 462.941945" /></g><g class="series serie-13 color-13"><path class="line reactive nofill" d="M12.230769 462.910053 L22.595828 462.886759 32.960887 462.848305 43.325945 462.786142 53.691004 462.687746 64.056063 462.535262 74.421121 462.303944 84.786180 461.960492 95.151239 461.461472 105.516297 460.752095 115.881356 459.765720 126.246415 458.424517 136.611473 456.641748 146.976532 454.326058 157.341591 451.388040 167.706649 447.749048 178.071708 443.351904 188.436767 438.172683 198.801825 432.232373 209.166884 425.606837 219.531943 418.433334 229.897001 410.911968 240.262060 403.300769 250.627119 395.903841 260.992177 389.052872 271.357236 383.083348 281.722295 378.307703 292.087353 374.988369 302.452412 373.313912 312.817471 373.381303 323.182529 375.186617 333.547588 378.625409 343.912647 383.502722 354.277705 389.551387 364.642764 396.456228 375.007823 403.881123 385.372881 411.495711 395.737940 418.998849 406.102999 426.136617 416.468057 432.713647 426.833116 438.597512 437.198175 443.716846 447.563233 448.054489 457.928292 451.637341 468.293351 454.524637 478.658409 456.796207 489.023468 458.541893 499.388527 459.852898 509.753585 460.815402 520.118644 461.506433 530.483703 461.991728 540.848761 462.325178 551.213820 462.549388 561.578879 462.696944 571.943937 462.792006 582.308996 462.851965 592.674055 462.888996 603.039113 462.911392 613.404172 462.924657 623.769231 462.932353" /></g></g><g class="titles"><text class="title plot_title" x="400.0" y="26">Iteration #12</text><text class="title" x="462.0" y="580.0">Observation</text><text class="title" transform="rotate(-90 64.000000 282.009619)" x="64.0" y="308.0096189432334">Density</text></g><g class="plot overlay" transform="translate(144, 46)"><g class="series serie-0 color-0" /><g class="series serie-1 color-1" /><g class="series serie-2 color-2" /><g class="series serie-3 color-3" /><g class="series serie-4 color-4" /><g class="series serie-5 color-5" /><g class="series serie-6 color-6" /><g class="series serie-7 color-7" /><g class="series serie-8 color-8" /><g class="series serie-9 color-9" /><g class="series serie-10 color-10" /><g class="series serie-11 color-11" /><g class="series serie-12 color-12" /><g class="series serie-13 color-13" /></g><g class="plot text-overlay" transform="translate(144, 46)"><g class="series serie-0 color-0" /><g class="series serie-1 color-1" /><g class="series serie-2 color-2" /><g class="series serie-3 color-3" /><g class="series serie-4 color-4" /><g class="series serie-5 color-5" /><g class="series serie-6 color-6" /><g class="series serie-7 color-7" /><g class="series serie-8 color-8" /><g class="series serie-9 color-9" /><g class="series serie-10 color-10" /><g class="series serie-11 color-11" /><g class="series serie-12 color-12" /><g class="series serie-13 color-13" /></g><g class="plot tooltip-overlay" transform="translate(144, 46)"><g class="tooltip" style="opacity: 0" transform="translate(0 0)"><rect class="tooltip-box" height="0" rx="0" ry="0" width="0" /><g class="text" /></g></g><g class="legends" transform="translate(10, 56)"><g class="legend reactive activate-serie" id="activate-serie-0"><rect class="color-0 reactive" height="12" width="12" x="0.0" y="0.0" /><text x="17.0" y="9.0">Data</text></g><g class="legend reactive activate-serie" id="activate-serie-1"><rect class="color-1 reactive" height="12" width="12" x="0.0" y="18.0" /><text x="17.0" y="27.0">GMM</text></g><g class="legend reactive activate-serie" id="activate-serie-2"><rect class="color-2 reactive" height="12" width="12" x="0.0" y="36.0" /><text x="17.0" y="45.0">i=0</text></g><g class="legend reactive activate-serie" id="activate-serie-3"><rect class="color-3 reactive" height="12" width="12" x="0.0" y="54.0" /><text x="17.0" y="63.0">i=1</text></g><g class="legend reactive activate-serie" id="activate-serie-4"><rect class="color-4 reactive" height="12" width="12" x="0.0" y="72.0" /><text x="17.0" y="81.0">i=0 k=0</text></g><g class="legend reactive activate-serie" id="activate-serie-5"><rect class="color-5 reactive" height="12" width="12" x="0.0" y="90.0" /><text x="17.0" y="99.0">i=0 k=1</text></g><g class="legend reactive activate-serie" id="activate-serie-6"><rect class="color-6 reactive" height="12" width="12" x="0.0" y="108.0" /><text x="17.0" y="117.0">i=0 k=2</text></g><g class="legend reactive activate-serie" id="activate-serie-7"><rect class="color-7 reactive" height="12" width="12" x="0.0" y="126.0" /><text x="17.0" y="135.0">i=0 k=3</text></g><g class="legend reactive activate-serie" id="activate-serie-8"><rect class="color-8 reactive" height="12" width="12" x="0.0" y="144.0" /><text x="17.0" y="153.0">i=0 k=4</text></g><g class="legend reactive activate-serie" id="activate-serie-9"><rect class="color-9 reactive" height="12" width="12" x="0.0" y="162.0" /><text x="17.0" y="171.0">i=1 k=0</text></g><g class="legend reactive activate-serie" id="activate-serie-10"><rect class="color-10 reactive" height="12" width="12" x="0.0" y="180.0" /><text x="17.0" y="189.0">i=1 k=1</text></g><g class="legend reactive activate-serie" id="activate-serie-11"><rect class="color-11 reactive" height="12" width="12" x="0.0" y="198.0" /><text x="17.0" y="207.0">i=1 k=2</text></g><g class="legend reactive activate-serie" id="activate-serie-12"><rect class="color-12 reactive" height="12" width="12" x="0.0" y="216.0" /><text x="17.0" y="225.0">i=1 k=3</text></g><g class="legend reactive activate-serie" id="activate-serie-13"><rect class="color-13 reactive" height="12" width="12" x="0.0" y="234.0" /><text x="17.0" y="243.0">i=1 k=4</text></g></g><g class="legends" transform="translate(790, 56)" /></g></svg>