<?xml version='1.0' encoding='utf-8'?>
<svg xmlns:xlink="http://www.w3.org/1999/xlink" class="pygal-chart" id="chart-4923f62c-f277-447a-8db5-94af8deacce2" viewBox="0 0 800 600" xmlns="http://www.w3.org/2000/svg"><!--Generated with pygal 2.4.0 (etree) ©Kozea 2012-2016 on 2018-02-07--><!--http://pygal.org--><!--http://github.com/Kozea/pygal--><defs><style type="text/css">#chart-4923f62c-f277-447a-8db5-94af8deacce2{-webkit-user-select:none;-webkit-font-smoothing:antialiased;font-family:Consolas,"Liberation Mono",Menlo,Courier,monospace}#chart-4923f62c-f277-447a-8db5-94af8deacce2 .title{font-family:Consolas,"Liberation Mono",Menlo,Courier,monospace;font-size:16px}#chart-4923f62c-f277-447a-8db5-94af8deacce2 .legends .legend text{font-family:Consolas,"Liberation Mono",Menlo,Courier,monospace;font-size:10px}#chart-4923f62c-f277-447a-8db5-94af8deacce2 .axis text{font-family:Consolas,"Liberation Mono",Menlo,Courier,monospace;font-size:10px}#chart-4923f62c-f277-447a-8db5-94af8deacce2 .axis text.major{font-family:Consolas,"Liberation Mono",Menlo,Courier,monospace;font-size:10px}#chart-4923f62c-f277-447a-8db5-94af8deacce2 .text-overlay text.value{font-family:Consolas,"Liberation Mono",Menlo,Courier,monospace;font-size:16px}#chart-4923f62c-f277-447a-8db5-94af8deacce2 .text-overlay text.label{font-family:Consolas,"Liberation Mono",Menlo,Courier,monospace;font-size:10px}#chart-4923f62c-f277-447a-8db5-94af8deacce2 .tooltip{font-family:Consolas,"Liberation Mono",Menlo,Courier,monospace;font-size:14px}#chart-4923f62c-f277-447a-8db5-94af8deacce2 text.no_data{font-family:Consolas,"Liberation Mono",Menlo,Courier,monospace;font-size:64px}
#chart-4923f62c-f277-447a-8db5-94af8deacce2{background-color:rgba(249,249,249,1)}#chart-4923f62c-f277-447a-8db5-94af8deacce2 path,#chart-4923f62c-f277-447a-8db5-94af8deacce2 line,#chart-4923f62c-f277-447a-8db5-94af8deacce2 rect,#chart-4923f62c-f277-447a-8db5-94af8deacce2 circle{-webkit-transition:150ms;-moz-transition:150ms;transition:150ms}#chart-4923f62c-f277-447a-8db5-94af8deacce2 .graph &gt; .background{fill:rgba(249,249,249,1)}#chart-4923f62c-f277-447a-8db5-94af8deacce2 .plot &gt; .background{fill:rgba(255,255,255,1)}#chart-4923f62c-f277-447a-8db5-94af8deacce2 .graph{fill:rgba(0,0,0,.87)}#chart-4923f62c-f277-447a-8db5-94af8deacce2 text.no_data{fill:rgba(0,0,0,1)}#chart-4923f62c-f277-447a-8db5-94af8deacce2 .title{fill:rgba(0,0,0,1)}#chart-4923f62c-f277-447a-8db5-94af8deacce2 .legends .legend text{fill:rgba(0,0,0,.87)}#chart-4923f62c-f277-447a-8db5-94af8deacce2 .legends .legend:hover text{fill:rgba(0,0,0,1)}#chart-4923f62c-f277-447a-8db5-94af8deacce2 .axis .line{stroke:rgba(0,0,0,1)}#chart-4923f62c-f277-447a-8db5-94af8deacce2 .axis .guide.line{stroke:rgba(0,0,0,.54)}#chart-4923f62c-f277-447a-8db5-94af8deacce2 .axis .major.line{stroke:rgba(0,0,0,.87)}#chart-4923f62c-f277-447a-8db5-94af8deacce2 .axis text.major{fill:rgba(0,0,0,1)}#chart-4923f62c-f277-447a-8db5-94af8deacce2 .axis.y .guides:hover .guide.line,#chart-4923f62c-f277-447a-8db5-94af8deacce2 .line-graph .axis.x .guides:hover .guide.line,#chart-4923f62c-f277-447a-8db5-94af8deacce2 .stackedline-graph .axis.x .guides:hover .guide.line,#chart-4923f62c-f277-447a-8db5-94af8deacce2 .xy-graph .axis.x .guides:hover .guide.line{stroke:rgba(0,0,0,1)}#chart-4923f62c-f277-447a-8db5-94af8deacce2 .axis .guides:hover text{fill:rgba(0,0,0,1)}#chart-4923f62c-f277-447a-8db5-94af8deacce2 .reactive{fill-opacity:.7;stroke-opacity:.8}#chart-4923f62c-f277-447a-8db5-94af8deacce2 .ci{stroke:rgba(0,0,0,.87)}#chart-4923f62c-f277-447a-8db5-94af8deacce2 .reactive.active,#chart-4923f62c-f277-447a-8db5-94af8deacce2 .active .reactive{fill-opacity:.8;stroke-opacity:.9;stroke-width:4}#chart-4923f62c-f277-447a-8db5-94af8deacce2 .ci .reactive.active{stroke-width:1.5}#chart-4923f62c-f277-447a-8db5-94af8deacce2 .series text{fill:rgba(0,0,0,1)}#chart-4923f62c-f277-447a-8db5-94af8deacce2 .tooltip rect{fill:rgba(255,255,255,1);stroke:rgba(0,0,0,1);-webkit-transition:opacity 150ms;-moz-transition:opacity 150ms;transition:opacity 150ms}#chart-4923f62c-f277-447a-8db5-94af8deacce2 .tooltip .label{fill:rgba(0,0,0,.87)}#chart-4923f62c-f277-447a-8db5-94af8deacce2 .tooltip .label{fill:rgba(0,0,0,.87)}#chart-4923f62c-f277-447a-8db5-94af8deacce2 .tooltip .legend{font-size:.8em;fill:rgba(0,0,0,.54)}#chart-4923f62c-f277-447a-8db5-94af8deacce2 .tooltip .x_label{font-size:.6em;fill:rgba(0,0,0,1)}#chart-4923f62c-f277-447a-8db5-94af8deacce2 .tooltip .xlink{font-size:.5em;text-decoration:underline}#chart-4923f62c-f277-447a-8db5-94af8deacce2 .tooltip .value{font-size:1.5em}#chart-4923f62c-f277-447a-8db5-94af8deacce2 .bound{font-size:.5em}#chart-4923f62c-f277-447a-8db5-94af8deacce2 .max-value{font-size:.75em;fill:rgba(0,0,0,.54)}#chart-4923f62c-f277-447a-8db5-94af8deacce2 .map-element{fill:rgba(255,255,255,1);stroke:rgba(0,0,0,.54) !important}#chart-4923f62c-f277-447a-8db5-94af8deacce2 .map-element .reactive{fill-opacity:inherit;stroke-opacity:inherit}#chart-4923f62c-f277-447a-8db5-94af8deacce2 .color-0,#chart-4923f62c-f277-447a-8db5-94af8deacce2 .color-0 a:visited{stroke:#909090;fill:#909090}#chart-4923f62c-f277-447a-8db5-94af8deacce2 .color-1,#chart-4923f62c-f277-447a-8db5-94af8deacce2 .color-1 a:visited{stroke:#000000;fill:#000000}#chart-4923f62c-f277-447a-8db5-94af8deacce2 .color-2,#chart-4923f62c-f277-447a-8db5-94af8deacce2 .color-2 a:visited{stroke:#ff0500;fill:#ff0500}#chart-4923f62c-f277-447a-8db5-94af8deacce2 .color-3,#chart-4923f62c-f277-447a-8db5-94af8deacce2 .color-3 a:visited{stroke:#323299;fill:#323299}#chart-4923f62c-f277-447a-8db5-94af8deacce2 .color-4,#chart-4923f62c-f277-447a-8db5-94af8deacce2 .color-4 a:visited{stroke:#a3413f;fill:#a3413f}#chart-4923f62c-f277-447a-8db5-94af8deacce2 .color-5,#chart-4923f62c-f277-447a-8db5-94af8deacce2 .color-5 a:visited{stroke:#a3413f;fill:#a3413f}#chart-4923f62c-f277-447a-8db5-94af8deacce2 .color-6,#chart-4923f62c-f277-447a-8db5-94af8deacce2 .color-6 a:visited{stroke:#657fff;fill:#657fff}#chart-4923f62c-f277-447a-8db5-94af8deacce2 .color-7,#chart-4923f62c-f277-447a-8db5-94af8deacce2 .color-7 a:visited{stroke:#657fff;fill:#657fff}#chart-4923f62c-f277-447a-8db5-94af8deacce2 .text-overlay .color-0 text{fill:black}#chart-4923f62c-f277-447a-8db5-94af8deacce2 .text-overlay .color-1 text{fill:white}#chart-4923f62c-f277-447a-8db5-94af8deacce2 .text-overlay .color-2 text{fill:black}#chart-4923f62c-f277-447a-8db5-94af8deacce2 .text-overlay .color-3 text{fill:black}#chart-4923f62c-f277-447a-8db5-94af8deacce2 .text-overlay .color-4 text{fill:black}#chart-4923f62c-f277-447a-8db5-94af8deacce2 .text-overlay .color-5 text{fill:black}#chart-4923f62c-f277-447a-8db5-94af8deacce2 .text-overlay .color-6 text{fill:black}#chart-4923f62c-f277-447a-8db5-94af8deacce2 .text-overlay .color-7 text{fill:black}#chart-4923f62c-f277-447a-8db5-94af8deacce2 .series.serie-1{stroke-width:5}#chart-4923f62c-f277-447a-8db5-94af8deacce2 .series.serie-2{stroke-width:3}#chart-4923f62c-f277-447a-8db5-94af8deacce2 .series.serie-3{stroke-width:3}#chart-4923f62c-f277-447a-8db5-94af8deacce2 .series.serie-4{stroke-width:2;stroke-dasharray:2,2}#chart-4923f62c-f277-447a-8db5-94af8deacce2 .series.serie-5{stroke-width:2;stroke-dasharray:2,2}#chart-4923f62c-f277-447a-8db5-94af8deacce2 .series.serie-6{stroke-width:2;stroke-dasharray:2,2}#chart-4923f62c-f277-447a-8db5-94af8deacce2 .series.serie-7{stroke-width:2;stroke-dasharray:2,2}
#chart-4923f62c-f277-447a-8db5-94af8deacce2 text.no_data{text-anchor:middle}#chart-4923f62c-f277-447a-8db5-94af8deacce2 .guide.line{fill:none}#chart-4923f62c-f277-447a-8db5-94af8deacce2 .centered{text-anchor:middle}#chart-4923f62c-f277-447a-8db5-94af8deacce2 .title{text-anchor:middle}#chart-4923f62c-f277-447a-8db5-94af8deacce2 .legends .legend text{fill-opacity:1}#chart-4923f62c-f277-447a-8db5-94af8deacce2 .axis.x text{text-anchor:middle}#chart-4923f62c-f277-447a-8db5-94af8deacce2 .axis.x:not(.web) text[transform]{text-anchor:start}#chart-4923f62c-f277-447a-8db5-94af8deacce2 .axis.x:not(.web) text[transform].backwards{text-anchor:end}#chart-4923f62c-f277-447a-8db5-94af8deacce2 .axis.y text{text-anchor:end}#chart-4923f62c-f277-447a-8db5-94af8deacce2 .axis.y text[transform].backwards{text-anchor:start}#chart-4923f62c-f277-447a-8db5-94af8deacce2 .axis.y2 text{text-anchor:start}#chart-4923f62c-f277-447a-8db5-94af8deacce2 .axis.y2 text[transform].backwards{text-anchor:end}#chart-4923f62c-f277-447a-8db5-94af8deacce2 .axis .guide.line{stroke-dasharray:4,4}#chart-4923f62c-f277-447a-8db5-94af8deacce2 .axis .major.guide.line{stroke-dasharray:6,6}#chart-4923f62c-f277-447a-8db5-94af8deacce2 .horizontal .axis.y .guide.line,#chart-4923f62c-f277-447a-8db5-94af8deacce2 .horizontal .axis.y2 .guide.line,#chart-4923f62c-f277-447a-8db5-94af8deacce2 .vertical .axis.x .guide.line{opacity:0}#chart-4923f62c-f277-447a-8db5-94af8deacce2 .horizontal .axis.always_show .guide.line,#chart-4923f62c-f277-447a-8db5-94af8deacce2 .vertical .axis.always_show .guide.line{opacity:1 !important}#chart-4923f62c-f277-447a-8db5-94af8deacce2 .axis.y .guides:hover .guide.line,#chart-4923f62c-f277-447a-8db5-94af8deacce2 .axis.y2 .guides:hover .guide.line,#chart-4923f62c-f277-447a-8db5-94af8deacce2 .axis.x .guides:hover .guide.line{opacity:1}#chart-4923f62c-f277-447a-8db5-94af8deacce2 .axis .guides:hover text{opacity:1}#chart-4923f62c-f277-447a-8db5-94af8deacce2 .nofill{fill:none}#chart-4923f62c-f277-447a-8db5-94af8deacce2 .subtle-fill{fill-opacity:.2}#chart-4923f62c-f277-447a-8db5-94af8deacce2 .dot{stroke-width:1px;fill-opacity:1}#chart-4923f62c-f277-447a-8db5-94af8deacce2 .dot.active{stroke-width:5px}#chart-4923f62c-f277-447a-8db5-94af8deacce2 .dot.negative{fill:transparent}#chart-4923f62c-f277-447a-8db5-94af8deacce2 text,#chart-4923f62c-f277-447a-8db5-94af8deacce2 tspan{stroke:none !important}#chart-4923f62c-f277-447a-8db5-94af8deacce2 .series text.active{opacity:1}#chart-4923f62c-f277-447a-8db5-94af8deacce2 .tooltip rect{fill-opacity:.95;stroke-width:.5}#chart-4923f62c-f277-447a-8db5-94af8deacce2 .tooltip text{fill-opacity:1}#chart-4923f62c-f277-447a-8db5-94af8deacce2 .showable{visibility:hidden}#chart-4923f62c-f277-447a-8db5-94af8deacce2 .showable.shown{visibility:visible}#chart-4923f62c-f277-447a-8db5-94af8deacce2 .gauge-background{fill:rgba(229,229,229,1);stroke:none}#chart-4923f62c-f277-447a-8db5-94af8deacce2 .bg-lines{stroke:rgba(249,249,249,1);stroke-width:2px}</style><script type="text/javascript">window.pygal = window.pygal || {};window.pygal.config = window.pygal.config || {};window.pygal.config['4923f62c-f277-447a-8db5-94af8deacce2'] = {"y_labels": null, "no_prefix": false, "margin": 20, "css": ["file://style.css", "file://graph.css"], "show_minor_x_labels": false, "no_data_text": "No data", "inner_radius": 0, "truncate_label": null, "margin_right": null, "dynamic_print_values": false, "defs": [], "range": [0, 0.27578580090479526], "margin_top": null, "height": 600, "print_values_position": "center", "allow_interruptions": false, "show_legend": true, "interpolation_parameters": {}, "min_scale": 4, "x_title": "Observation", "y_label_rotation": 0, "dots_size": 2.5, "style": {"value_background": "rgba(229, 229, 229, 1)", "legend_font_size": 10, "foreground": "rgba(0, 0, 0, .87)", "background": "rgba(249, 249, 249, 1)", "value_colors": [], "stroke_opacity_hover": ".9", "label_font_family": "Consolas, \"Liberation Mono\", Menlo, Courier, monospace", "major_guide_stroke_dasharray": "6,6", "font_family": "Consolas, \"Liberation Mono\", Menlo, Courier, monospace", "label_font_size": 10, "foreground_subtle": "rgba(0, 0, 0, .54)", "opacity": ".7", "value_label_font_size": 10, "guide_stroke_dasharray": "4,4", "title_font_size": 16, "major_label_font_family": "Consolas, \"Liberation Mono\", Menlo, Courier, monospace", "stroke_opacity": ".8", "colors": ["#909090", "#000000", "#ff0500", "#323299", "#a3413f", "#a3413f", "#657fff", "#657fff"], "opacity_hover": ".8", "value_font_family": "Consolas, \"Liberation Mono\", Menlo, Courier, monospace", "foreground_strong": "rgba(0, 0, 0, 1)", "tooltip_font_size": 14, "no_data_font_size": 64, "legend_font_family": "Consolas, \"Liberation Mono\", Menlo, Courier, monospace", "tooltip_font_family": "Consolas, \"Liberation Mono\", Menlo, Courier, monospace", "value_label_font_family": "Consolas, \"Liberation Mono\", Menlo, Courier, monospace", "title_font_family": "Consolas, \"Liberation Mono\", Menlo, Courier, monospace", "ci_colors": [], "major_label_font_size": 10, "plot_background": "rgba(255, 255, 255, 1)", "no_data_font_family": "Consolas, \"Liberation Mono\", Menlo, Courier, monospace", "value_font_size": 16, "transition": "150ms"}, "x_labels_major_count": null, "tooltip_fancy_mode": true, "zero": 0, "stack_from_top": false, "explicit_size": false, "print_labels": false, "show_x_guides": false, "x_label_rotation": 60, "legend_at_bottom_columns": null, "width": 800, "x_labels": ["-8.96", "-8.76", "-8.56", "-8.36", "-8.16", "-7.96", "-7.76", "-7.56", "-7.36", "-7.16", "-6.96", "-6.76", "-6.56", "-6.36", "-6.16", "-5.96", "-5.76", "-5.56", "-5.36", "-5.16", "-4.96", "-4.76", "-4.56", "-4.36", "-4.16", "-3.96", "-3.76", "-3.56", "-3.36", "-3.16", "-2.96", "-2.76", "-2.56", "-2.36", "-2.16", "-1.96", "-1.76", "-1.56", "-1.36", "-1.16", "-0.96", "-0.76", "-0.56", "-0.36", "-0.16", "0.04", "0.24", "0.44", "0.64", "0.84", "1.04", "1.24", "1.43", "1.63", "1.83", "2.03", "2.23", "2.43", "2.63", "2.83"], "force_uri_protocol": "https", "rounded_bars": null, "missing_value_fill_truncation": "x", "stroke": true, "box_mode": "extremes", "xrange": null, "js": ["//kozea.github.io/pygal.js/2.0.x/pygal-tooltips.min.js"], "order_min": null, "margin_bottom": null, "fill": false, "logarithmic": false, "strict": false, "truncate_legend": null, "disable_xml_declaration": false, "max_scale": 16, "show_x_labels": true, "tooltip_border_radius": 0, "x_labels_major": null, "secondary_range": null, "classes": ["pygal-chart"], "y_labels_major": null, "print_values": false, "show_minor_y_labels": true, "y_labels_major_count": null, "y_title": "Density", "interpolate": null, "show_y_labels": true, "x_labels_major_every": 2, "print_zeroes": true, "pretty_print": false, "legend_box_size": 12, "show_only_major_dots": false, "interpolation_precision": 250, "spacing": 10, "show_y_guides": true, "margin_left": null, "inverse_y_axis": false, "show_dots": false, "legend_at_bottom": false, "formatter": null, "title": "Iteration #7", "y_labels_major_every": null, "include_x_axis": false, "legends": ["Data", "GMM", "i=0", "i=1", "i=0 k=0", "i=0 k=1", "i=1 k=0", "i=1 k=1"], "stroke_style": null, "half_pie": false}</script><script type="text/javascript" xlink:href="https://kozea.github.io/pygal.js/2.0.x/pygal-tooltips.min.js" /></defs><title>Iteration #7</title><g class="graph line-graph vertical"><rect class="background" height="600" width="800" x="0" y="0" /><g class="plot" transform="translate(144, 46)"><rect class="background" height="472.01923788646684" width="636.0" x="0" y="0" /><g class="axis y always_show"><g class="guides"><path class="axis major line" d="M0.000000 462.941945 h636.000000" /><text class="major" x="-5" y="466.44194485">0</text><title>0</title></g><g class="guides"><path class="guide line" d="M0.000000 430.027658 h636.000000" /><text class="" x="-5" y="433.527657724">0.02</text><title>0.02</title></g><g class="guides"><path class="guide line" d="M0.000000 397.113371 h636.000000" /><text class="" x="-5" y="400.613370598">0.04</text><title>0.04</title></g><g class="guides"><path class="guide line" d="M0.000000 364.199083 h636.000000" /><text class="" x="-5" y="367.699083472">0.06</text><title>0.06</title></g><g class="guides"><path class="guide line" d="M0.000000 331.284796 h636.000000" /><text class="" x="-5" y="334.784796346">0.08</text><title>0.08</title></g><g class="guides"><path class="guide line" d="M0.000000 298.370509 h636.000000" /><text class="" x="-5" y="301.87050922">0.1</text><title>0.1</title></g><g class="guides"><path class="guide line" d="M0.000000 265.456222 h636.000000" /><text class="" x="-5" y="268.956222094">0.12</text><title>0.12</title></g><g class="guides"><path class="guide line" d="M0.000000 232.541935 h636.000000" /><text class="" x="-5" y="236.041934968">0.14</text><title>0.14</title></g><g class="guides"><path class="guide line" d="M0.000000 199.627648 h636.000000" /><text class="" x="-5" y="203.127647841">0.16</text><title>0.16</title></g><g class="guides"><path class="guide line" d="M0.000000 166.713361 h636.000000" /><text class="" x="-5" y="170.213360715">0.18</text><title>0.18</title></g><g class="guides"><path class="guide line" d="M0.000000 133.799074 h636.000000" /><text class="" x="-5" y="137.299073589">0.2</text><title>0.2</title></g><g class="guides"><path class="guide line" d="M0.000000 100.884786 h636.000000" /><text class="" x="-5" y="104.384786463">0.22</text><title>0.22</title></g><g class="guides"><path class="guide line" d="M0.000000 67.970499 h636.000000" /><text class="" x="-5" y="71.4704993371">0.24</text><title>0.24</title></g><g class="guides"><path class="guide line" d="M0.000000 35.056212 h636.000000" /><text class="" x="-5" y="38.5562122111">0.26</text><title>0.26</title></g></g><g class="axis x"><g class="guides"><path class="major line" d="M12.230769 0.000000 v472.019238" /><text class="major" transform="rotate(60 12.230769 487.019238)" x="12.230769230769232" y="487.01923788646684">-8.96</text></g><g class="guides"><path class="major guide line" d="M32.960887 0.000000 v472.019238" /><text class="major" transform="rotate(60 32.960887 487.019238)" x="32.96088657105606" y="487.01923788646684">-8.56</text></g><g class="guides"><path class="major guide line" d="M53.691004 0.000000 v472.019238" /><text class="major" transform="rotate(60 53.691004 487.019238)" x="53.6910039113429" y="487.01923788646684">-8.16</text></g><g class="guides"><path class="major guide line" d="M74.421121 0.000000 v472.019238" /><text class="major" transform="rotate(60 74.421121 487.019238)" x="74.42112125162973" y="487.01923788646684">-7.76</text></g><g class="guides"><path class="major guide line" d="M95.151239 0.000000 v472.019238" /><text class="major" transform="rotate(60 95.151239 487.019238)" x="95.15123859191655" y="487.01923788646684">-7.36</text></g><g class="guides"><path class="major guide line" d="M115.881356 0.000000 v472.019238" /><text class="major" transform="rotate(60 115.881356 487.019238)" x="115.88135593220338" y="487.01923788646684">-6.96</text></g><g class="guides"><path class="major guide line" d="M136.611473 0.000000 v472.019238" /><text class="major" transform="rotate(60 136.611473 487.019238)" x="136.61147327249023" y="487.01923788646684">-6.56</text></g><g class="guides"><path class="major guide line" d="M157.341591 0.000000 v472.019238" /><text class="major" transform="rotate(60 157.341591 487.019238)" x="157.34159061277705" y="487.01923788646684">-6.16</text></g><g class="guides"><path class="major guide line" d="M178.071708 0.000000 v472.019238" /><text class="major" transform="rotate(60 178.071708 487.019238)" x="178.0717079530639" y="487.01923788646684">-5.76</text></g><g class="guides"><path class="major guide line" d="M198.801825 0.000000 v472.019238" /><text class="major" transform="rotate(60 198.801825 487.019238)" x="198.80182529335073" y="487.01923788646684">-5.36</text></g><g class="guides"><path class="major guide line" d="M219.531943 0.000000 v472.019238" /><text class="major" transform="rotate(60 219.531943 487.019238)" x="219.53194263363756" y="487.01923788646684">-4.96</text></g><g class="guides"><path class="major guide line" d="M240.262060 0.000000 v472.019238" /><text class="major" transform="rotate(60 240.262060 487.019238)" x="240.2620599739244" y="487.01923788646684">-4.56</text></g><g class="guides"><path class="major guide line" d="M260.992177 0.000000 v472.019238" /><text class="major" transform="rotate(60 260.992177 487.019238)" x="260.99217731421123" y="487.01923788646684">-4.16</text></g><g class="guides"><path class="major guide line" d="M281.722295 0.000000 v472.019238" /><text class="major" transform="rotate(60 281.722295 487.019238)" x="281.722294654498" y="487.01923788646684">-3.76</text></g><g class="guides"><path class="major guide line" d="M302.452412 0.000000 v472.019238" /><text class="major" transform="rotate(60 302.452412 487.019238)" x="302.4524119947849" y="487.01923788646684">-3.36</text></g><g class="guides"><path class="major guide line" d="M323.182529 0.000000 v472.019238" /><text class="major" transform="rotate(60 323.182529 487.019238)" x="323.1825293350717" y="487.01923788646684">-2.96</text></g><g class="guides"><path class="major guide line" d="M343.912647 0.000000 v472.019238" /><text class="major" transform="rotate(60 343.912647 487.019238)" x="343.91264667535853" y="487.01923788646684">-2.56</text></g><g class="guides"><path class="major guide line" d="M364.642764 0.000000 v472.019238" /><text class="major" transform="rotate(60 364.642764 487.019238)" x="364.64276401564535" y="487.01923788646684">-2.16</text></g><g class="guides"><path class="major guide line" d="M385.372881 0.000000 v472.019238" /><text class="major" transform="rotate(60 385.372881 487.019238)" x="385.37288135593224" y="487.01923788646684">-1.76</text></g><g class="guides"><path class="major guide line" d="M406.102999 0.000000 v472.019238" /><text class="major" transform="rotate(60 406.102999 487.019238)" x="406.102998696219" y="487.01923788646684">-1.36</text></g><g class="guides"><path class="major guide line" d="M426.833116 0.000000 v472.019238" /><text class="major" transform="rotate(60 426.833116 487.019238)" x="426.8331160365058" y="487.01923788646684">-0.96</text></g><g class="guides"><path class="major guide line" d="M447.563233 0.000000 v472.019238" /><text class="major" transform="rotate(60 447.563233 487.019238)" x="447.56323337679265" y="487.01923788646684">-0.56</text></g><g class="guides"><path class="major guide line" d="M468.293351 0.000000 v472.019238" /><text class="major" transform="rotate(60 468.293351 487.019238)" x="468.29335071707953" y="487.01923788646684">-0.16</text></g><g class="guides"><path class="major guide line" d="M489.023468 0.000000 v472.019238" /><text class="major" transform="rotate(60 489.023468 487.019238)" x="489.02346805736636" y="487.01923788646684">0.24</text></g><g class="guides"><path class="major guide line" d="M509.753585 0.000000 v472.019238" /><text class="major" transform="rotate(60 509.753585 487.019238)" x="509.75358539765324" y="487.01923788646684">0.64</text></g><g class="guides"><path class="major guide line" d="M530.483703 0.000000 v472.019238" /><text class="major" transform="rotate(60 530.483703 487.019238)" x="530.48370273794" y="487.01923788646684">1.04</text></g><g class="guides"><path class="major guide line" d="M551.213820 0.000000 v472.019238" /><text class="major" transform="rotate(60 551.213820 487.019238)" x="551.213820078227" y="487.01923788646684">1.43</text></g><g class="guides"><path class="major guide line" d="M571.943937 0.000000 v472.019238" /><text class="major" transform="rotate(60 571.943937 487.019238)" x="571.9439374185138" y="487.01923788646684">1.83</text></g><g class="guides"><path class="major guide line" d="M592.674055 0.000000 v472.019238" /><text class="major" transform="rotate(60 592.674055 487.019238)" x="592.6740547588006" y="487.01923788646684">2.23</text></g><g class="guides"><path class="major guide line" d="M613.404172 0.000000 v472.019238" /><text class="major" transform="rotate(60 613.404172 487.019238)" x="613.4041720990874" y="487.01923788646684">2.63</text></g></g><g class="series serie-0 color-0"><path class="line reactive" d="M12.230769 462.941945 L12.230769 462.019456 22.595828 462.941945 32.960887 461.096967 43.325945 462.019456 53.691004 459.251988 64.056063 462.019456 74.421121 458.329499 84.786180 462.019456 95.151239 458.329499 105.516297 462.019456 115.881356 448.182119 126.246415 460.174477 136.611473 457.407010 146.976532 457.407010 157.341591 451.872075 167.706649 448.182119 178.071708 454.639543 188.436767 445.414651 198.801825 442.647184 209.166884 436.189760 219.531943 437.112249 229.897001 392.832771 240.262060 396.522728 250.627119 376.227967 260.992177 355.933206 271.357236 351.320760 281.722295 325.491065 292.087353 277.521630 302.452412 283.056565 312.817471 202.800010 323.182529 188.040184 333.547588 169.590402 343.912647 123.465945 354.277705 95.791271 364.642764 67.194108 375.007823 82.876423 385.372881 60.736684 395.737940 80.108956 406.102999 29.372054 416.468057 9.077293 426.833116 70.884065 437.198175 69.039086 447.563233 41.364413 457.928292 40.441923 468.293351 91.178826 478.658409 140.993239 489.023468 214.792369 499.388527 259.071847 509.753585 321.801108 520.118644 364.235608 530.483703 408.515086 540.848761 430.654825 551.213820 448.182119 561.578879 455.562032 571.943937 458.329499 582.308996 458.329499 592.674055 462.019456 603.039113 462.941945 613.404172 462.019456 623.769231 462.941945" /></g><g class="series serie-1 color-1"><path class="line reactive nofill" d="M12.230769 462.924174 L22.595828 462.910093 32.960887 462.885987 43.325945 462.845584 53.691004 462.779299 64.056063 462.672860 74.421121 462.505592 84.786180 462.248372 95.151239 461.861383 105.516297 461.291840 115.881356 460.472055 126.246415 459.318282 136.611473 457.730927 146.976532 455.596763 157.341591 452.793721 167.706649 449.198644 178.071708 444.697905 188.436767 439.199952 198.801825 432.647433 209.166884 425.024303 219.531943 416.350297 229.897001 406.652122 240.262060 395.900249 250.627119 383.907254 260.992177 370.203862 271.357236 353.943809 281.722295 333.926998 292.087353 308.843251 302.452412 277.787450 312.817471 240.961388 323.182529 200.294588 333.547588 159.591874 343.912647 123.879773 354.277705 97.934896 364.642764 84.435208 375.007823 82.534562 385.372881 87.665988 395.737940 92.940113 406.102999 91.785623 416.468057 80.823896 426.833116 61.723933 437.198175 41.111407 447.563233 28.406444 457.928292 32.396475 468.293351 57.963424 478.658409 104.339019 489.023468 165.544563 499.388527 232.651577 509.753585 296.732079 520.118644 351.241497 530.483703 393.073044 540.848761 422.264506 551.213820 440.888418 561.578879 451.795470 571.943937 457.679161 582.308996 460.612484 592.674055 461.969396 603.039113 462.554976 613.404172 462.792716 623.769231 462.884758" /></g><g class="series serie-2 color-2"><path class="line reactive nofill" d="M12.230769 462.941945 L22.595828 462.941945 32.960887 462.941945 43.325945 462.941945 53.691004 462.941945 64.056063 462.941945 74.421121 462.941945 84.786180 462.941945 95.151239 462.941945 105.516297 462.941945 115.881356 462.941945 126.246415 462.941945 136.611473 462.941945 146.976532 462.941945 157.341591 462.941945 167.706649 462.941945 178.071708 462.941945 188.436767 462.941945 198.801825 462.941944 209.166884 462.941942 219.531943 462.941934 229.897001 462.941897 240.262060 462.941751 250.627119 462.941215 260.992177 462.939362 271.357236 462.933377 281.722295 462.915280 292.087353 462.864057 302.452412 462.728319 312.817471 462.391555 323.182529 461.609479 333.547588 459.910206 343.912647 456.458752 354.277705 449.913902 364.642764 438.348984 375.007823 419.355549 385.372881 390.465814 395.737940 349.967295 406.102999 298.009059 416.468057 237.647355 426.833116 175.278518 437.198175 119.942672 447.563233 81.363682 457.928292 67.215996 468.293351 80.644623 478.658409 119.131760 489.023468 175.266763 499.388527 239.096761 509.753585 301.026121 520.118644 354.099329 530.483703 394.961381 540.848761 423.497178 551.213820 441.680658 561.578879 452.295724 571.943937 457.989141 582.308996 460.800855 592.674055 462.081624 603.039113 462.620520 613.404172 462.830238 623.769231 462.905813" /></g><g class="series serie-3 color-3"><path class="line reactive nofill" d="M12.230769 462.924174 L22.595828 462.910093 32.960887 462.885987 43.325945 462.845584 53.691004 462.779299 64.056063 462.672860 74.421121 462.505592 84.786180 462.248372 95.151239 461.861383 105.516297 461.291840 115.881356 460.472055 126.246415 459.318282 136.611473 457.730927 146.976532 455.596763 157.341591 452.793721 167.706649 449.198644 178.071708 444.697905 188.436767 439.199952 198.801825 432.647434 209.166884 425.024305 219.531943 416.350308 229.897001 406.652170 240.262060 395.900443 250.627119 383.907984 260.992177 370.206444 271.357236 353.952377 281.722295 333.953664 292.087353 308.921139 302.452412 278.001076 312.817471 241.511778 323.182529 201.627054 333.547588 162.623613 343.912647 130.362965 354.277705 110.962939 364.642764 109.028169 375.007823 126.120958 385.372881 160.142118 395.737940 205.914763 406.102999 256.718509 416.468057 306.118486 426.833116 349.387360 437.198175 384.110680 447.563233 409.984707 457.928292 428.122423 468.293351 440.260746 478.658409 448.149204 489.023468 453.219745 499.388527 456.496761 509.753585 458.647903 520.118644 460.084113 530.483703 461.053608 540.848761 461.709273 551.213820 462.149705 561.578879 462.441691 571.943937 462.631965 582.308996 462.753574 592.674055 462.829717 603.039113 462.876401 613.404172 462.904423 623.769231 462.920890" /></g><g class="series serie-4 color-4"><path class="line reactive nofill" d="M12.230769 462.941945 L22.595828 462.941945 32.960887 462.941945 43.325945 462.941945 53.691004 462.941945 64.056063 462.941945 74.421121 462.941945 84.786180 462.941945 95.151239 462.941945 105.516297 462.941945 115.881356 462.941945 126.246415 462.941945 136.611473 462.941945 146.976532 462.941945 157.341591 462.941945 167.706649 462.941945 178.071708 462.941945 188.436767 462.941945 198.801825 462.941944 209.166884 462.941942 219.531943 462.941934 229.897001 462.941898 240.262060 462.941755 250.627119 462.941234 260.992177 462.939453 271.357236 462.933773 281.722295 462.916874 292.087353 462.870006 302.452412 462.748856 312.817471 462.457173 323.182529 461.803515 333.547588 460.441234 343.912647 457.803764 354.277705 453.066797 364.642764 445.189168 375.007823 433.089671 385.372881 415.987472 395.737940 393.859938 406.102999 367.872415 416.468057 340.563148 426.833116 315.588789 437.198175 296.982822 447.563233 288.105788 457.928292 290.656020 468.293351 304.139649 478.658409 326.026582 489.023468 352.524926 499.388527 379.648988 509.753585 404.170147 520.118644 424.152095 530.483703 438.994695 540.848761 449.113236 551.213820 455.472367 561.578879 459.167971 571.943937 461.158375 582.308996 462.153503 592.674055 462.615930 603.039113 462.815851 613.404172 462.896327 623.769231 462.926507" /></g><g class="series serie-5 color-5"><path class="line reactive nofill" d="M12.230769 462.941945 L22.595828 462.941945 32.960887 462.941945 43.325945 462.941945 53.691004 462.941945 64.056063 462.941945 74.421121 462.941945 84.786180 462.941945 95.151239 462.941945 105.516297 462.941945 115.881356 462.941945 126.246415 462.941945 136.611473 462.941945 146.976532 462.941945 157.341591 462.941945 167.706649 462.941945 178.071708 462.941945 188.436767 462.941945 198.801825 462.941945 209.166884 462.941945 219.531943 462.941945 229.897001 462.941944 240.262060 462.941941 250.627119 462.941926 260.992177 462.941854 271.357236 462.941549 281.722295 462.940350 292.087353 462.935996 302.452412 462.921408 312.817471 462.876327 323.182529 462.747908 333.547588 462.410917 343.912647 461.596933 354.277705 459.789050 364.642764 456.101761 375.007823 449.207823 385.372881 437.420287 395.737940 419.049302 406.102999 393.078589 416.468057 360.026152 426.833116 322.631674 437.198175 285.901795 447.563233 256.199839 457.928292 239.501922 468.293351 239.446918 478.658409 256.047123 489.023468 285.683782 499.388527 322.389718 509.753585 359.797919 520.118644 392.889178 530.483703 418.908631 540.848761 437.325886 551.213820 449.150235 561.578879 456.069698 571.943937 459.772711 582.308996 461.589297 592.674055 462.407639 603.039113 462.746614 613.404172 462.875856 623.769231 462.921250" /></g><g class="series serie-6 color-6"><path class="line reactive nofill" d="M12.230769 462.924174 L22.595828 462.910093 32.960887 462.885987 43.325945 462.845584 53.691004 462.779299 64.056063 462.672860 74.421121 462.505592 84.786180 462.248372 95.151239 461.861383 105.516297 461.291840 115.881356 460.472055 126.246415 459.318283 136.611473 457.730936 146.976532 455.596804 157.341591 452.793895 167.706649 449.199337 178.071708 444.700475 188.436767 439.208836 198.801825 432.676049 209.166884 425.110185 219.531943 416.590457 229.897001 407.277879 240.262060 397.419470 250.627119 387.344039 260.992177 377.448394 271.357236 368.174088 281.722295 359.976173 292.087353 353.286850 302.452412 348.477960 312.817471 345.826810 323.182529 345.489706 333.547588 347.486693 343.912647 351.699584 354.277705 357.883536 364.642764 365.690614 375.007823 374.702168 385.372881 384.465853 395.737940 394.532756 406.102999 404.490448 416.468057 413.988761 426.833116 422.756354 437.198175 430.607613 447.563233 437.440690 457.928292 443.228464 468.293351 448.004745 478.658409 451.848174 489.023468 454.866001 499.388527 457.179437 509.753585 458.911678 520.118644 460.179076 530.483703 461.085462 540.848761 461.719229 551.213820 462.152604 561.578879 462.442477 571.943937 462.632164 582.308996 462.753621 592.674055 462.829727 603.039113 462.876403 613.404172 462.904423 623.769231 462.920890" /></g><g class="series serie-7 color-7"><path class="line reactive nofill" d="M12.230769 462.941945 L22.595828 462.941945 32.960887 462.941945 43.325945 462.941945 53.691004 462.941945 64.056063 462.941945 74.421121 462.941945 84.786180 462.941945 95.151239 462.941945 105.516297 462.941945 115.881356 462.941945 126.246415 462.941943 136.611473 462.941936 146.976532 462.941904 157.341591 462.941771 167.706649 462.941252 178.071708 462.939375 188.436767 462.933061 198.801825 462.913330 209.166884 462.856066 219.531943 462.701796 229.897001 462.316236 240.262060 461.422917 250.627119 459.505890 260.992177 455.699995 271.357236 448.720234 281.722295 436.919436 292.087353 418.576233 302.452412 392.465061 312.817471 358.626913 323.182529 319.079293 333.547588 278.078865 343.912647 241.605326 354.277705 216.021348 364.642764 206.279500 375.007823 214.360735 385.372881 238.618210 395.737940 274.323952 406.102999 315.170005 416.468057 355.071669 426.833116 389.572951 437.198175 416.445013 447.563233 435.485962 457.928292 447.835904 468.293351 455.197946 478.658409 459.242974 489.023468 461.295689 499.388527 462.259268 509.753585 462.678170 520.118644 462.846982 530.483703 462.910090 540.848761 462.931989 551.213820 462.939045 561.578879 462.941158 571.943937 462.941746 582.308996 462.941898 592.674055 462.941935 603.039113 462.941943 613.404172 462.941944 623.769231 462.941945" /></g></g><g class="titles"><text class="title plot_title" x="400.0" y="26">Iteration #7</text><text class="title" x="462.0" y="580.0">Observation</text><text class="title" transform="rotate(-90 64.000000 282.009619)" x="64.0" y="308.0096189432334">Density</text></g><g class="plot overlay" transform="translate(144, 46)"><g class="series serie-0 color-0" /><g class="series serie-1 color-1" /><g class="series serie-2 color-2" /><g class="series serie-3 color-3" /><g class="series serie-4 color-4" /><g class="series serie-5 color-5" /><g class="series serie-6 color-6" /><g class="series serie-7 color-7" /></g><g class="plot text-overlay" transform="translate(144, 46)"><g class="series serie-0 color-0" /><g class="series serie-1 color-1" /><g class="series serie-2 color-2" /><g class="series serie-3 color-3" /><g class="series serie-4 color-4" /><g class="series serie-5 color-5" /><g class="series serie-6 color-6" /><g class="series serie-7 color-7" /></g><g class="plot tooltip-overlay" transform="translate(144, 46)"><g class="tooltip" style="opacity: 0" transform="translate(0 0)"><rect class="tooltip-box" height="0" rx="0" ry="0" width="0" /><g class="text" /></g></g><g class="legends" transform="translate(10, 56)"><g class="legend reactive activate-serie" id="activate-serie-0"><rect class="color-0 reactive" height="12" width="12" x="0.0" y="0.0" /><text x="17.0" y="9.0">Data</text></g><g class="legend reactive activate-serie" id="activate-serie-1"><rect class="color-1 reactive" height="12" width="12" x="0.0" y="18.0" /><text x="17.0" y="27.0">GMM</text></g><g class="legend reactive activate-serie" id="activate-serie-2"><rect class="color-2 reactive" height="12" width="12" x="0.0" y="36.0" /><text x="17.0" y="45.0">i=0</text></g><g class="legend reactive activate-serie" id="activate-serie-3"><rect class="color-3 reactive" height="12" width="12" x="0.0" y="54.0" /><text x="17.0" y="63.0">i=1</text></g><g class="legend reactive activate-serie" id="activate-serie-4"><rect class="color-4 reactive" height="12" width="12" x="0.0" y="72.0" /><text x="17.0" y="81.0">i=0 k=0</text></g><g class="legend reactive activate-serie" id="activate-serie-5"><rect class="color-5 reactive" height="12" width="12" x="0.0" y="90.0" /><text x="17.0" y="99.0">i=0 k=1</text></g><g class="legend reactive activate-serie" id="activate-serie-6"><rect class="color-6 reactive" height="12" width="12" x="0.0" y="108.0" /><text x="17.0" y="117.0">i=1 k=0</text></g><g class="legend reactive activate-serie" id="activate-serie-7"><rect class="color-7 reactive" height="12" width="12" x="0.0" y="126.0" /><text x="17.0" y="135.0">i=1 k=1</text></g></g><g class="legends" transform="translate(790, 56)" /></g></svg>