<?xml version='1.0' encoding='utf-8'?>
<svg xmlns:xlink="http://www.w3.org/1999/xlink" class="pygal-chart" id="chart-6f3ad15a-333e-4e01-b2cb-04cc3b58f33d" viewBox="0 0 800 600" xmlns="http://www.w3.org/2000/svg"><!--Generated with pygal 2.4.0 (etree) ©Kozea 2012-2016 on 2018-01-18--><!--http://pygal.org--><!--http://github.com/Kozea/pygal--><defs><style type="text/css">#chart-6f3ad15a-333e-4e01-b2cb-04cc3b58f33d{-webkit-user-select:none;-webkit-font-smoothing:antialiased;font-family:Consolas,"Liberation Mono",Menlo,Courier,monospace}#chart-6f3ad15a-333e-4e01-b2cb-04cc3b58f33d .title{font-family:Consolas,"Liberation Mono",Menlo,Courier,monospace;font-size:16px}#chart-6f3ad15a-333e-4e01-b2cb-04cc3b58f33d .legends .legend text{font-family:Consolas,"Liberation Mono",Menlo,Courier,monospace;font-size:10px}#chart-6f3ad15a-333e-4e01-b2cb-04cc3b58f33d .axis text{font-family:Consolas,"Liberation Mono",Menlo,Courier,monospace;font-size:10px}#chart-6f3ad15a-333e-4e01-b2cb-04cc3b58f33d .axis text.major{font-family:Consolas,"Liberation Mono",Menlo,Courier,monospace;font-size:10px}#chart-6f3ad15a-333e-4e01-b2cb-04cc3b58f33d .text-overlay text.value{font-family:Consolas,"Liberation Mono",Menlo,Courier,monospace;font-size:16px}#chart-6f3ad15a-333e-4e01-b2cb-04cc3b58f33d .text-overlay text.label{font-family:Consolas,"Liberation Mono",Menlo,Courier,monospace;font-size:10px}#chart-6f3ad15a-333e-4e01-b2cb-04cc3b58f33d .tooltip{font-family:Consolas,"Liberation Mono",Menlo,Courier,monospace;font-size:14px}#chart-6f3ad15a-333e-4e01-b2cb-04cc3b58f33d text.no_data{font-family:Consolas,"Liberation Mono",Menlo,Courier,monospace;font-size:64px}
#chart-6f3ad15a-333e-4e01-b2cb-04cc3b58f33d{background-color:rgba(249,249,249,1)}#chart-6f3ad15a-333e-4e01-b2cb-04cc3b58f33d path,#chart-6f3ad15a-333e-4e01-b2cb-04cc3b58f33d line,#chart-6f3ad15a-333e-4e01-b2cb-04cc3b58f33d rect,#chart-6f3ad15a-333e-4e01-b2cb-04cc3b58f33d circle{-webkit-transition:150ms;-moz-transition:150ms;transition:150ms}#chart-6f3ad15a-333e-4e01-b2cb-04cc3b58f33d .graph &gt; .background{fill:rgba(249,249,249,1)}#chart-6f3ad15a-333e-4e01-b2cb-04cc3b58f33d .plot &gt; .background{fill:rgba(255,255,255,1)}#chart-6f3ad15a-333e-4e01-b2cb-04cc3b58f33d .graph{fill:rgba(0,0,0,.87)}#chart-6f3ad15a-333e-4e01-b2cb-04cc3b58f33d text.no_data{fill:rgba(0,0,0,1)}#chart-6f3ad15a-333e-4e01-b2cb-04cc3b58f33d .title{fill:rgba(0,0,0,1)}#chart-6f3ad15a-333e-4e01-b2cb-04cc3b58f33d .legends .legend text{fill:rgba(0,0,0,.87)}#chart-6f3ad15a-333e-4e01-b2cb-04cc3b58f33d .legends .legend:hover text{fill:rgba(0,0,0,1)}#chart-6f3ad15a-333e-4e01-b2cb-04cc3b58f33d .axis .line{stroke:rgba(0,0,0,1)}#chart-6f3ad15a-333e-4e01-b2cb-04cc3b58f33d .axis .guide.line{stroke:rgba(0,0,0,.54)}#chart-6f3ad15a-333e-4e01-b2cb-04cc3b58f33d .axis .major.line{stroke:rgba(0,0,0,.87)}#chart-6f3ad15a-333e-4e01-b2cb-04cc3b58f33d .axis text.major{fill:rgba(0,0,0,1)}#chart-6f3ad15a-333e-4e01-b2cb-04cc3b58f33d .axis.y .guides:hover .guide.line,#chart-6f3ad15a-333e-4e01-b2cb-04cc3b58f33d .line-graph .axis.x .guides:hover .guide.line,#chart-6f3ad15a-333e-4e01-b2cb-04cc3b58f33d .stackedline-graph .axis.x .guides:hover .guide.line,#chart-6f3ad15a-333e-4e01-b2cb-04cc3b58f33d .xy-graph .axis.x .guides:hover .guide.line{stroke:rgba(0,0,0,1)}#chart-6f3ad15a-333e-4e01-b2cb-04cc3b58f33d .axis .guides:hover text{fill:rgba(0,0,0,1)}#chart-6f3ad15a-333e-4e01-b2cb-04cc3b58f33d .reactive{fill-opacity:.7;stroke-opacity:.8}#chart-6f3ad15a-333e-4e01-b2cb-04cc3b58f33d .ci{stroke:rgba(0,0,0,.87)}#chart-6f3ad15a-333e-4e01-b2cb-04cc3b58f33d .reactive.active,#chart-6f3ad15a-333e-4e01-b2cb-04cc3b58f33d .active .reactive{fill-opacity:.8;stroke-opacity:.9;stroke-width:4}#chart-6f3ad15a-333e-4e01-b2cb-04cc3b58f33d .ci .reactive.active{stroke-width:1.5}#chart-6f3ad15a-333e-4e01-b2cb-04cc3b58f33d .series text{fill:rgba(0,0,0,1)}#chart-6f3ad15a-333e-4e01-b2cb-04cc3b58f33d .tooltip rect{fill:rgba(255,255,255,1);stroke:rgba(0,0,0,1);-webkit-transition:opacity 150ms;-moz-transition:opacity 150ms;transition:opacity 150ms}#chart-6f3ad15a-333e-4e01-b2cb-04cc3b58f33d .tooltip .label{fill:rgba(0,0,0,.87)}#chart-6f3ad15a-333e-4e01-b2cb-04cc3b58f33d .tooltip .label{fill:rgba(0,0,0,.87)}#chart-6f3ad15a-333e-4e01-b2cb-04cc3b58f33d .tooltip .legend{font-size:.8em;fill:rgba(0,0,0,.54)}#chart-6f3ad15a-333e-4e01-b2cb-04cc3b58f33d .tooltip .x_label{font-size:.6em;fill:rgba(0,0,0,1)}#chart-6f3ad15a-333e-4e01-b2cb-04cc3b58f33d .tooltip .xlink{font-size:.5em;text-decoration:underline}#chart-6f3ad15a-333e-4e01-b2cb-04cc3b58f33d .tooltip .value{font-size:1.5em}#chart-6f3ad15a-333e-4e01-b2cb-04cc3b58f33d .bound{font-size:.5em}#chart-6f3ad15a-333e-4e01-b2cb-04cc3b58f33d .max-value{font-size:.75em;fill:rgba(0,0,0,.54)}#chart-6f3ad15a-333e-4e01-b2cb-04cc3b58f33d .map-element{fill:rgba(255,255,255,1);stroke:rgba(0,0,0,.54) !important}#chart-6f3ad15a-333e-4e01-b2cb-04cc3b58f33d .map-element .reactive{fill-opacity:inherit;stroke-opacity:inherit}#chart-6f3ad15a-333e-4e01-b2cb-04cc3b58f33d .color-0,#chart-6f3ad15a-333e-4e01-b2cb-04cc3b58f33d .color-0 a:visited{stroke:#909090;fill:#909090}#chart-6f3ad15a-333e-4e01-b2cb-04cc3b58f33d .color-1,#chart-6f3ad15a-333e-4e01-b2cb-04cc3b58f33d .color-1 a:visited{stroke:#000000;fill:#000000}#chart-6f3ad15a-333e-4e01-b2cb-04cc3b58f33d .color-2,#chart-6f3ad15a-333e-4e01-b2cb-04cc3b58f33d .color-2 a:visited{stroke:#ff0500;fill:#ff0500}#chart-6f3ad15a-333e-4e01-b2cb-04cc3b58f33d .color-3,#chart-6f3ad15a-333e-4e01-b2cb-04cc3b58f33d .color-3 a:visited{stroke:#323299;fill:#323299}#chart-6f3ad15a-333e-4e01-b2cb-04cc3b58f33d .color-4,#chart-6f3ad15a-333e-4e01-b2cb-04cc3b58f33d .color-4 a:visited{stroke:#a3413f;fill:#a3413f}#chart-6f3ad15a-333e-4e01-b2cb-04cc3b58f33d .color-5,#chart-6f3ad15a-333e-4e01-b2cb-04cc3b58f33d .color-5 a:visited{stroke:#a3413f;fill:#a3413f}#chart-6f3ad15a-333e-4e01-b2cb-04cc3b58f33d .color-6,#chart-6f3ad15a-333e-4e01-b2cb-04cc3b58f33d .color-6 a:visited{stroke:#a3413f;fill:#a3413f}#chart-6f3ad15a-333e-4e01-b2cb-04cc3b58f33d .color-7,#chart-6f3ad15a-333e-4e01-b2cb-04cc3b58f33d .color-7 a:visited{stroke:#a3413f;fill:#a3413f}#chart-6f3ad15a-333e-4e01-b2cb-04cc3b58f33d .color-8,#chart-6f3ad15a-333e-4e01-b2cb-04cc3b58f33d .color-8 a:visited{stroke:#a3413f;fill:#a3413f}#chart-6f3ad15a-333e-4e01-b2cb-04cc3b58f33d .color-9,#chart-6f3ad15a-333e-4e01-b2cb-04cc3b58f33d .color-9 a:visited{stroke:#657fff;fill:#657fff}#chart-6f3ad15a-333e-4e01-b2cb-04cc3b58f33d .color-10,#chart-6f3ad15a-333e-4e01-b2cb-04cc3b58f33d .color-10 a:visited{stroke:#657fff;fill:#657fff}#chart-6f3ad15a-333e-4e01-b2cb-04cc3b58f33d .color-11,#chart-6f3ad15a-333e-4e01-b2cb-04cc3b58f33d .color-11 a:visited{stroke:#657fff;fill:#657fff}#chart-6f3ad15a-333e-4e01-b2cb-04cc3b58f33d .color-12,#chart-6f3ad15a-333e-4e01-b2cb-04cc3b58f33d .color-12 a:visited{stroke:#657fff;fill:#657fff}#chart-6f3ad15a-333e-4e01-b2cb-04cc3b58f33d .color-13,#chart-6f3ad15a-333e-4e01-b2cb-04cc3b58f33d .color-13 a:visited{stroke:#657fff;fill:#657fff}#chart-6f3ad15a-333e-4e01-b2cb-04cc3b58f33d .text-overlay .color-0 text{fill:black}#chart-6f3ad15a-333e-4e01-b2cb-04cc3b58f33d .text-overlay .color-1 text{fill:white}#chart-6f3ad15a-333e-4e01-b2cb-04cc3b58f33d .text-overlay .color-2 text{fill:black}#chart-6f3ad15a-333e-4e01-b2cb-04cc3b58f33d .text-overlay .color-3 text{fill:black}#chart-6f3ad15a-333e-4e01-b2cb-04cc3b58f33d .text-overlay .color-4 text{fill:black}#chart-6f3ad15a-333e-4e01-b2cb-04cc3b58f33d .text-overlay .color-5 text{fill:black}#chart-6f3ad15a-333e-4e01-b2cb-04cc3b58f33d .text-overlay .color-6 text{fill:black}#chart-6f3ad15a-333e-4e01-b2cb-04cc3b58f33d .text-overlay .color-7 text{fill:black}#chart-6f3ad15a-333e-4e01-b2cb-04cc3b58f33d .text-overlay .color-8 text{fill:black}#chart-6f3ad15a-333e-4e01-b2cb-04cc3b58f33d .text-overlay .color-9 text{fill:black}#chart-6f3ad15a-333e-4e01-b2cb-04cc3b58f33d .text-overlay .color-10 text{fill:black}#chart-6f3ad15a-333e-4e01-b2cb-04cc3b58f33d .text-overlay .color-11 text{fill:black}#chart-6f3ad15a-333e-4e01-b2cb-04cc3b58f33d .text-overlay .color-12 text{fill:black}#chart-6f3ad15a-333e-4e01-b2cb-04cc3b58f33d .text-overlay .color-13 text{fill:black}#chart-6f3ad15a-333e-4e01-b2cb-04cc3b58f33d .series.serie-1{stroke-width:5}#chart-6f3ad15a-333e-4e01-b2cb-04cc3b58f33d .series.serie-2{stroke-width:3}#chart-6f3ad15a-333e-4e01-b2cb-04cc3b58f33d .series.serie-3{stroke-width:3}#chart-6f3ad15a-333e-4e01-b2cb-04cc3b58f33d .series.serie-4{stroke-width:2;stroke-dasharray:2,2}#chart-6f3ad15a-333e-4e01-b2cb-04cc3b58f33d .series.serie-5{stroke-width:2;stroke-dasharray:2,2}#chart-6f3ad15a-333e-4e01-b2cb-04cc3b58f33d .series.serie-6{stroke-width:2;stroke-dasharray:2,2}#chart-6f3ad15a-333e-4e01-b2cb-04cc3b58f33d .series.serie-7{stroke-width:2;stroke-dasharray:2,2}#chart-6f3ad15a-333e-4e01-b2cb-04cc3b58f33d .series.serie-8{stroke-width:2;stroke-dasharray:2,2}#chart-6f3ad15a-333e-4e01-b2cb-04cc3b58f33d .series.serie-9{stroke-width:2;stroke-dasharray:2,2}#chart-6f3ad15a-333e-4e01-b2cb-04cc3b58f33d .series.serie-10{stroke-width:2;stroke-dasharray:2,2}#chart-6f3ad15a-333e-4e01-b2cb-04cc3b58f33d .series.serie-11{stroke-width:2;stroke-dasharray:2,2}#chart-6f3ad15a-333e-4e01-b2cb-04cc3b58f33d .series.serie-12{stroke-width:2;stroke-dasharray:2,2}#chart-6f3ad15a-333e-4e01-b2cb-04cc3b58f33d .series.serie-13{stroke-width:2;stroke-dasharray:2,2}
#chart-6f3ad15a-333e-4e01-b2cb-04cc3b58f33d text.no_data{text-anchor:middle}#chart-6f3ad15a-333e-4e01-b2cb-04cc3b58f33d .guide.line{fill:none}#chart-6f3ad15a-333e-4e01-b2cb-04cc3b58f33d .centered{text-anchor:middle}#chart-6f3ad15a-333e-4e01-b2cb-04cc3b58f33d .title{text-anchor:middle}#chart-6f3ad15a-333e-4e01-b2cb-04cc3b58f33d .legends .legend text{fill-opacity:1}#chart-6f3ad15a-333e-4e01-b2cb-04cc3b58f33d .axis.x text{text-anchor:middle}#chart-6f3ad15a-333e-4e01-b2cb-04cc3b58f33d .axis.x:not(.web) text[transform]{text-anchor:start}#chart-6f3ad15a-333e-4e01-b2cb-04cc3b58f33d .axis.x:not(.web) text[transform].backwards{text-anchor:end}#chart-6f3ad15a-333e-4e01-b2cb-04cc3b58f33d .axis.y text{text-anchor:end}#chart-6f3ad15a-333e-4e01-b2cb-04cc3b58f33d .axis.y text[transform].backwards{text-anchor:start}#chart-6f3ad15a-333e-4e01-b2cb-04cc3b58f33d .axis.y2 text{text-anchor:start}#chart-6f3ad15a-333e-4e01-b2cb-04cc3b58f33d .axis.y2 text[transform].backwards{text-anchor:end}#chart-6f3ad15a-333e-4e01-b2cb-04cc3b58f33d .axis .guide.line{stroke-dasharray:4,4}#chart-6f3ad15a-333e-4e01-b2cb-04cc3b58f33d .axis .major.guide.line{stroke-dasharray:6,6}#chart-6f3ad15a-333e-4e01-b2cb-04cc3b58f33d .horizontal .axis.y .guide.line,#chart-6f3ad15a-333e-4e01-b2cb-04cc3b58f33d .horizontal .axis.y2 .guide.line,#chart-6f3ad15a-333e-4e01-b2cb-04cc3b58f33d .vertical .axis.x .guide.line{opacity:0}#chart-6f3ad15a-333e-4e01-b2cb-04cc3b58f33d .horizontal .axis.always_show .guide.line,#chart-6f3ad15a-333e-4e01-b2cb-04cc3b58f33d .vertical .axis.always_show .guide.line{opacity:1 !important}#chart-6f3ad15a-333e-4e01-b2cb-04cc3b58f33d .axis.y .guides:hover .guide.line,#chart-6f3ad15a-333e-4e01-b2cb-04cc3b58f33d .axis.y2 .guides:hover .guide.line,#chart-6f3ad15a-333e-4e01-b2cb-04cc3b58f33d .axis.x .guides:hover .guide.line{opacity:1}#chart-6f3ad15a-333e-4e01-b2cb-04cc3b58f33d .axis .guides:hover text{opacity:1}#chart-6f3ad15a-333e-4e01-b2cb-04cc3b58f33d .nofill{fill:none}#chart-6f3ad15a-333e-4e01-b2cb-04cc3b58f33d .subtle-fill{fill-opacity:.2}#chart-6f3ad15a-333e-4e01-b2cb-04cc3b58f33d .dot{stroke-width:1px;fill-opacity:1}#chart-6f3ad15a-333e-4e01-b2cb-04cc3b58f33d .dot.active{stroke-width:5px}#chart-6f3ad15a-333e-4e01-b2cb-04cc3b58f33d .dot.negative{fill:transparent}#chart-6f3ad15a-333e-4e01-b2cb-04cc3b58f33d text,#chart-6f3ad15a-333e-4e01-b2cb-04cc3b58f33d tspan{stroke:none !important}#chart-6f3ad15a-333e-4e01-b2cb-04cc3b58f33d .series text.active{opacity:1}#chart-6f3ad15a-333e-4e01-b2cb-04cc3b58f33d .tooltip rect{fill-opacity:.95;stroke-width:.5}#chart-6f3ad15a-333e-4e01-b2cb-04cc3b58f33d .tooltip text{fill-opacity:1}#chart-6f3ad15a-333e-4e01-b2cb-04cc3b58f33d .showable{visibility:hidden}#chart-6f3ad15a-333e-4e01-b2cb-04cc3b58f33d .showable.shown{visibility:visible}#chart-6f3ad15a-333e-4e01-b2cb-04cc3b58f33d .gauge-background{fill:rgba(229,229,229,1);stroke:none}#chart-6f3ad15a-333e-4e01-b2cb-04cc3b58f33d .bg-lines{stroke:rgba(249,249,249,1);stroke-width:2px}</style><script type="text/javascript">window.pygal = window.pygal || {};window.pygal.config = window.pygal.config || {};window.pygal.config['6f3ad15a-333e-4e01-b2cb-04cc3b58f33d'] = {"allow_interruptions": false, "x_label_rotation": 60, "y_title": "Density", "stack_from_top": false, "stroke": true, "include_x_axis": false, "defs": [], "truncate_label": null, "legend_at_bottom_columns": null, "show_minor_y_labels": true, "show_x_labels": true, "tooltip_fancy_mode": true, "show_legend": true, "print_labels": false, "disable_xml_declaration": false, "secondary_range": null, "x_labels": ["-8.96", "-8.76", "-8.56", "-8.36", "-8.16", "-7.96", "-7.76", "-7.56", "-7.36", "-7.16", "-6.96", "-6.76", "-6.56", "-6.36", "-6.16", "-5.96", "-5.76", "-5.56", "-5.36", "-5.16", "-4.96", "-4.76", "-4.56", "-4.36", "-4.16", "-3.96", "-3.76", "-3.56", "-3.36", "-3.16", "-2.96", "-2.76", "-2.56", "-2.36", "-2.16", "-1.96", "-1.76", "-1.56", "-1.36", "-1.16", "-0.96", "-0.76", "-0.56", "-0.36", "-0.16", "0.04", "0.24", "0.44", "0.64", "0.84", "1.04", "1.24", "1.43", "1.63", "1.83", "2.03", "2.23", "2.43", "2.63", "2.83"], "interpolation_precision": 250, "force_uri_protocol": "https", "classes": ["pygal-chart"], "css": ["file://style.css", "file://graph.css"], "margin": 20, "style": {"opacity_hover": ".8", "foreground": "rgba(0, 0, 0, .87)", "foreground_subtle": "rgba(0, 0, 0, .54)", "value_colors": [], "legend_font_family": "Consolas, \"Liberation Mono\", Menlo, Courier, monospace", "tooltip_font_family": "Consolas, \"Liberation Mono\", Menlo, Courier, monospace", "stroke_opacity_hover": ".9", "no_data_font_size": 64, "guide_stroke_dasharray": "4,4", "title_font_family": "Consolas, \"Liberation Mono\", Menlo, Courier, monospace", "label_font_family": "Consolas, \"Liberation Mono\", Menlo, Courier, monospace", "ci_colors": [], "background": "rgba(249, 249, 249, 1)", "colors": ["#909090", "#000000", "#ff0500", "#323299", "#a3413f", "#a3413f", "#a3413f", "#a3413f", "#a3413f", "#657fff", "#657fff", "#657fff", "#657fff", "#657fff"], "value_font_family": "Consolas, \"Liberation Mono\", Menlo, Courier, monospace", "font_family": "Consolas, \"Liberation Mono\", Menlo, Courier, monospace", "value_background": "rgba(229, 229, 229, 1)", "stroke_opacity": ".8", "title_font_size": 16, "no_data_font_family": "Consolas, \"Liberation Mono\", Menlo, Courier, monospace", "label_font_size": 10, "major_guide_stroke_dasharray": "6,6", "major_label_font_size": 10, "transition": "150ms", "opacity": ".7", "legend_font_size": 10, "value_label_font_family": "Consolas, \"Liberation Mono\", Menlo, Courier, monospace", "major_label_font_family": "Consolas, \"Liberation Mono\", Menlo, Courier, monospace", "plot_background": "rgba(255, 255, 255, 1)", "value_label_font_size": 10, "foreground_strong": "rgba(0, 0, 0, 1)", "tooltip_font_size": 14, "value_font_size": 16}, "order_min": null, "interpolation_parameters": {}, "show_dots": false, "y_labels_major": null, "box_mode": "extremes", "fill": false, "show_minor_x_labels": false, "js": ["//kozea.github.io/pygal.js/2.0.x/pygal-tooltips.min.js"], "explicit_size": false, "formatter": null, "x_labels_major": null, "legends": ["Data", "GMM", "i=0", "i=1", "i=0 k=0", "i=0 k=1", "i=0 k=2", "i=0 k=3", "i=0 k=4", "i=1 k=0", "i=1 k=1", "i=1 k=2", "i=1 k=3", "i=1 k=4"], "zero": 0, "strict": false, "print_values": false, "margin_bottom": null, "dynamic_print_values": false, "print_zeroes": true, "logarithmic": false, "x_labels_major_count": null, "margin_left": null, "legend_box_size": 12, "max_scale": 16, "dots_size": 2.5, "show_y_guides": true, "truncate_legend": null, "interpolate": null, "y_labels_major_every": null, "legend_at_bottom": false, "inner_radius": 0, "tooltip_border_radius": 0, "show_x_guides": false, "x_labels_major_every": 2, "show_y_labels": true, "pretty_print": false, "rounded_bars": null, "missing_value_fill_truncation": "x", "y_label_rotation": 0, "height": 600, "show_only_major_dots": false, "spacing": 10, "inverse_y_axis": false, "xrange": null, "margin_right": null, "no_prefix": false, "range": [0, 0.27578580090479526], "margin_top": null, "no_data_text": "No data", "y_labels_major_count": null, "half_pie": false, "width": 800, "title": "Iteration #8", "stroke_style": null, "y_labels": null, "print_values_position": "center", "x_title": "Observation", "min_scale": 4}</script><script type="text/javascript" xlink:href="https://kozea.github.io/pygal.js/2.0.x/pygal-tooltips.min.js" /></defs><title>Iteration #8</title><g class="graph line-graph vertical"><rect class="background" height="600" width="800" x="0" y="0" /><g class="plot" transform="translate(144, 46)"><rect class="background" height="472.01923788646684" width="636.0" x="0" y="0" /><g class="axis y always_show"><g class="guides"><path class="axis major line" d="M0.000000 462.941945 h636.000000" /><text class="major" x="-5" y="466.44194485">0</text><title>0</title></g><g class="guides"><path class="guide line" d="M0.000000 430.027658 h636.000000" /><text class="" x="-5" y="433.527657724">0.02</text><title>0.02</title></g><g class="guides"><path class="guide line" d="M0.000000 397.113371 h636.000000" /><text class="" x="-5" y="400.613370598">0.04</text><title>0.04</title></g><g class="guides"><path class="guide line" d="M0.000000 364.199083 h636.000000" /><text class="" x="-5" y="367.699083472">0.06</text><title>0.06</title></g><g class="guides"><path class="guide line" d="M0.000000 331.284796 h636.000000" /><text class="" x="-5" y="334.784796346">0.08</text><title>0.08</title></g><g class="guides"><path class="guide line" d="M0.000000 298.370509 h636.000000" /><text class="" x="-5" y="301.87050922">0.1</text><title>0.1</title></g><g class="guides"><path class="guide line" d="M0.000000 265.456222 h636.000000" /><text class="" x="-5" y="268.956222094">0.12</text><title>0.12</title></g><g class="guides"><path class="guide line" d="M0.000000 232.541935 h636.000000" /><text class="" x="-5" y="236.041934968">0.14</text><title>0.14</title></g><g class="guides"><path class="guide line" d="M0.000000 199.627648 h636.000000" /><text class="" x="-5" y="203.127647841">0.16</text><title>0.16</title></g><g class="guides"><path class="guide line" d="M0.000000 166.713361 h636.000000" /><text class="" x="-5" y="170.213360715">0.18</text><title>0.18</title></g><g class="guides"><path class="guide line" d="M0.000000 133.799074 h636.000000" /><text class="" x="-5" y="137.299073589">0.2</text><title>0.2</title></g><g class="guides"><path class="guide line" d="M0.000000 100.884786 h636.000000" /><text class="" x="-5" y="104.384786463">0.22</text><title>0.22</title></g><g class="guides"><path class="guide line" d="M0.000000 67.970499 h636.000000" /><text class="" x="-5" y="71.4704993371">0.24</text><title>0.24</title></g><g class="guides"><path class="guide line" d="M0.000000 35.056212 h636.000000" /><text class="" x="-5" y="38.5562122111">0.26</text><title>0.26</title></g></g><g class="axis x"><g class="guides"><path class="major line" d="M12.230769 0.000000 v472.019238" /><text class="major" transform="rotate(60 12.230769 487.019238)" x="12.230769230769232" y="487.01923788646684">-8.96</text></g><g class="guides"><path class="major guide line" d="M32.960887 0.000000 v472.019238" /><text class="major" transform="rotate(60 32.960887 487.019238)" x="32.96088657105606" y="487.01923788646684">-8.56</text></g><g class="guides"><path class="major guide line" d="M53.691004 0.000000 v472.019238" /><text class="major" transform="rotate(60 53.691004 487.019238)" x="53.6910039113429" y="487.01923788646684">-8.16</text></g><g class="guides"><path class="major guide line" d="M74.421121 0.000000 v472.019238" /><text class="major" transform="rotate(60 74.421121 487.019238)" x="74.42112125162973" y="487.01923788646684">-7.76</text></g><g class="guides"><path class="major guide line" d="M95.151239 0.000000 v472.019238" /><text class="major" transform="rotate(60 95.151239 487.019238)" x="95.15123859191655" y="487.01923788646684">-7.36</text></g><g class="guides"><path class="major guide line" d="M115.881356 0.000000 v472.019238" /><text class="major" transform="rotate(60 115.881356 487.019238)" x="115.88135593220338" y="487.01923788646684">-6.96</text></g><g class="guides"><path class="major guide line" d="M136.611473 0.000000 v472.019238" /><text class="major" transform="rotate(60 136.611473 487.019238)" x="136.61147327249023" y="487.01923788646684">-6.56</text></g><g class="guides"><path class="major guide line" d="M157.341591 0.000000 v472.019238" /><text class="major" transform="rotate(60 157.341591 487.019238)" x="157.34159061277705" y="487.01923788646684">-6.16</text></g><g class="guides"><path class="major guide line" d="M178.071708 0.000000 v472.019238" /><text class="major" transform="rotate(60 178.071708 487.019238)" x="178.0717079530639" y="487.01923788646684">-5.76</text></g><g class="guides"><path class="major guide line" d="M198.801825 0.000000 v472.019238" /><text class="major" transform="rotate(60 198.801825 487.019238)" x="198.80182529335073" y="487.01923788646684">-5.36</text></g><g class="guides"><path class="major guide line" d="M219.531943 0.000000 v472.019238" /><text class="major" transform="rotate(60 219.531943 487.019238)" x="219.53194263363756" y="487.01923788646684">-4.96</text></g><g class="guides"><path class="major guide line" d="M240.262060 0.000000 v472.019238" /><text class="major" transform="rotate(60 240.262060 487.019238)" x="240.2620599739244" y="487.01923788646684">-4.56</text></g><g class="guides"><path class="major guide line" d="M260.992177 0.000000 v472.019238" /><text class="major" transform="rotate(60 260.992177 487.019238)" x="260.99217731421123" y="487.01923788646684">-4.16</text></g><g class="guides"><path class="major guide line" d="M281.722295 0.000000 v472.019238" /><text class="major" transform="rotate(60 281.722295 487.019238)" x="281.722294654498" y="487.01923788646684">-3.76</text></g><g class="guides"><path class="major guide line" d="M302.452412 0.000000 v472.019238" /><text class="major" transform="rotate(60 302.452412 487.019238)" x="302.4524119947849" y="487.01923788646684">-3.36</text></g><g class="guides"><path class="major guide line" d="M323.182529 0.000000 v472.019238" /><text class="major" transform="rotate(60 323.182529 487.019238)" x="323.1825293350717" y="487.01923788646684">-2.96</text></g><g class="guides"><path class="major guide line" d="M343.912647 0.000000 v472.019238" /><text class="major" transform="rotate(60 343.912647 487.019238)" x="343.91264667535853" y="487.01923788646684">-2.56</text></g><g class="guides"><path class="major guide line" d="M364.642764 0.000000 v472.019238" /><text class="major" transform="rotate(60 364.642764 487.019238)" x="364.64276401564535" y="487.01923788646684">-2.16</text></g><g class="guides"><path class="major guide line" d="M385.372881 0.000000 v472.019238" /><text class="major" transform="rotate(60 385.372881 487.019238)" x="385.37288135593224" y="487.01923788646684">-1.76</text></g><g class="guides"><path class="major guide line" d="M406.102999 0.000000 v472.019238" /><text class="major" transform="rotate(60 406.102999 487.019238)" x="406.102998696219" y="487.01923788646684">-1.36</text></g><g class="guides"><path class="major guide line" d="M426.833116 0.000000 v472.019238" /><text class="major" transform="rotate(60 426.833116 487.019238)" x="426.8331160365058" y="487.01923788646684">-0.96</text></g><g class="guides"><path class="major guide line" d="M447.563233 0.000000 v472.019238" /><text class="major" transform="rotate(60 447.563233 487.019238)" x="447.56323337679265" y="487.01923788646684">-0.56</text></g><g class="guides"><path class="major guide line" d="M468.293351 0.000000 v472.019238" /><text class="major" transform="rotate(60 468.293351 487.019238)" x="468.29335071707953" y="487.01923788646684">-0.16</text></g><g class="guides"><path class="major guide line" d="M489.023468 0.000000 v472.019238" /><text class="major" transform="rotate(60 489.023468 487.019238)" x="489.02346805736636" y="487.01923788646684">0.24</text></g><g class="guides"><path class="major guide line" d="M509.753585 0.000000 v472.019238" /><text class="major" transform="rotate(60 509.753585 487.019238)" x="509.75358539765324" y="487.01923788646684">0.64</text></g><g class="guides"><path class="major guide line" d="M530.483703 0.000000 v472.019238" /><text class="major" transform="rotate(60 530.483703 487.019238)" x="530.48370273794" y="487.01923788646684">1.04</text></g><g class="guides"><path class="major guide line" d="M551.213820 0.000000 v472.019238" /><text class="major" transform="rotate(60 551.213820 487.019238)" x="551.213820078227" y="487.01923788646684">1.43</text></g><g class="guides"><path class="major guide line" d="M571.943937 0.000000 v472.019238" /><text class="major" transform="rotate(60 571.943937 487.019238)" x="571.9439374185138" y="487.01923788646684">1.83</text></g><g class="guides"><path class="major guide line" d="M592.674055 0.000000 v472.019238" /><text class="major" transform="rotate(60 592.674055 487.019238)" x="592.6740547588006" y="487.01923788646684">2.23</text></g><g class="guides"><path class="major guide line" d="M613.404172 0.000000 v472.019238" /><text class="major" transform="rotate(60 613.404172 487.019238)" x="613.4041720990874" y="487.01923788646684">2.63</text></g></g><g class="series serie-0 color-0"><path class="line reactive" d="M12.230769 462.941945 L12.230769 462.019456 22.595828 462.941945 32.960887 461.096967 43.325945 462.019456 53.691004 459.251988 64.056063 462.019456 74.421121 458.329499 84.786180 462.019456 95.151239 458.329499 105.516297 462.019456 115.881356 448.182119 126.246415 460.174477 136.611473 457.407010 146.976532 457.407010 157.341591 451.872075 167.706649 448.182119 178.071708 454.639543 188.436767 445.414651 198.801825 442.647184 209.166884 436.189760 219.531943 437.112249 229.897001 392.832771 240.262060 396.522728 250.627119 376.227967 260.992177 355.933206 271.357236 351.320760 281.722295 325.491065 292.087353 277.521630 302.452412 283.056565 312.817471 202.800010 323.182529 188.040184 333.547588 169.590402 343.912647 123.465945 354.277705 95.791271 364.642764 67.194108 375.007823 82.876423 385.372881 60.736684 395.737940 80.108956 406.102999 29.372054 416.468057 9.077293 426.833116 70.884065 437.198175 69.039086 447.563233 41.364413 457.928292 40.441923 468.293351 91.178826 478.658409 140.993239 489.023468 214.792369 499.388527 259.071847 509.753585 321.801108 520.118644 364.235608 530.483703 408.515086 540.848761 430.654825 551.213820 448.182119 561.578879 455.562032 571.943937 458.329499 582.308996 458.329499 592.674055 462.019456 603.039113 462.941945 613.404172 462.019456 623.769231 462.941945" /></g><g class="series serie-1 color-1"><path class="line reactive nofill" d="M12.230769 462.917576 L22.595828 462.898930 32.960887 462.867533 43.325945 462.815786 53.691004 462.732319 64.056063 462.600577 74.421121 462.397125 84.786180 462.089760 95.151239 461.635574 105.516297 460.979262 115.881356 460.052028 126.246415 458.771595 136.611473 457.043836 146.976532 454.766533 157.341591 451.835580 167.706649 448.153564 178.071708 443.639886 188.436767 438.240437 198.801825 431.933037 209.166884 424.722706 219.531943 416.619142 229.897001 407.589432 240.262060 397.485100 250.627119 385.956414 260.992177 372.387385 271.357236 355.903920 281.722295 335.509992 292.087353 310.376436 302.452412 280.239504 312.817471 245.780044 323.182529 208.794207 333.547588 171.989781 343.912647 138.379674 354.277705 110.453662 364.642764 89.477833 375.007823 75.284249 385.372881 66.704815 395.737940 62.352166 406.102999 60.990633 416.468057 61.004088 426.833116 59.843971 437.198175 55.321558 447.563233 48.905924 457.928292 47.840253 468.293351 62.519140 478.658409 99.955783 489.023468 158.558935 499.388527 228.535241 509.753585 297.185214 520.118644 354.732524 530.483703 397.078806 540.848761 425.059156 551.213820 442.027187 561.578879 451.683615 571.943937 456.955203 582.308996 459.769954 592.674055 461.261188 603.039113 462.051410 613.404172 462.471263 623.769231 462.694615" /></g><g class="series serie-2 color-2"><path class="line reactive nofill" d="M12.230769 462.941945 L22.595828 462.941945 32.960887 462.941945 43.325945 462.941945 53.691004 462.941945 64.056063 462.941945 74.421121 462.941945 84.786180 462.941945 95.151239 462.941945 105.516297 462.941945 115.881356 462.941945 126.246415 462.941945 136.611473 462.941945 146.976532 462.941945 157.341591 462.941945 167.706649 462.941945 178.071708 462.941944 188.436767 462.941944 198.801825 462.941941 209.166884 462.941936 219.531943 462.941920 229.897001 462.941881 240.262060 462.941783 250.627119 462.941545 260.992177 462.940981 271.357236 462.939670 281.722295 462.936679 292.087353 462.929965 302.452412 462.915079 312.817471 462.882350 323.182529 462.810563 333.547588 462.652500 343.912647 462.301680 354.277705 461.518255 364.642764 459.777256 375.007823 456.000873 385.372881 448.191934 395.737940 433.152782 406.102999 406.731854 416.468057 365.164657 426.833116 307.663453 437.198175 239.293325 447.563233 172.009794 457.928292 121.904298 468.293351 102.948388 478.658409 120.496792 489.023468 168.729060 499.388527 233.738238 509.753585 300.054416 520.118644 356.437574 530.483703 398.137908 540.848761 425.725834 551.213820 442.444543 561.578879 451.941171 571.943937 457.111313 582.308996 459.862763 592.674055 461.315278 603.039113 462.082309 613.404172 462.488562 623.769231 462.704107" /></g><g class="series serie-3 color-3"><path class="line reactive nofill" d="M12.230769 462.917576 L22.595828 462.898930 32.960887 462.867533 43.325945 462.815786 53.691004 462.732319 64.056063 462.600577 74.421121 462.397125 84.786180 462.089760 95.151239 461.635574 105.516297 460.979262 115.881356 460.052028 126.246415 458.771595 136.611473 457.043836 146.976532 454.766533 157.341591 451.835580 167.706649 448.153564 178.071708 443.639886 188.436767 438.240439 198.801825 431.933040 209.166884 424.722716 219.531943 416.619167 229.897001 407.589496 240.262060 397.485262 250.627119 385.956814 260.992177 372.388349 271.357236 355.906195 281.722295 335.515258 292.087353 310.388417 302.452412 280.266369 312.817471 245.839639 323.182529 208.925589 333.547588 172.279226 343.912647 139.019938 354.277705 111.877352 364.642764 92.642522 375.007823 82.225321 385.372881 81.454825 395.737940 92.141329 406.102999 117.200724 416.468057 158.781375 426.833116 215.122462 437.198175 278.970178 447.563233 339.838075 457.928292 388.877899 468.293351 422.512697 478.658409 442.400935 489.023468 452.771820 499.388527 457.738948 509.753585 460.072743 520.118644 461.236895 530.483703 461.882843 540.848761 462.275267 551.213820 462.524589 561.578879 462.684389 571.943937 462.785834 582.308996 462.849136 592.674055 462.887855 603.039113 462.911046 613.404172 462.924645 623.769231 462.932452" /></g><g class="series serie-4 color-4"><path class="line reactive nofill" d="M12.230769 462.941945 L22.595828 462.941945 32.960887 462.941945 43.325945 462.941945 53.691004 462.941945 64.056063 462.941945 74.421121 462.941945 84.786180 462.941945 95.151239 462.941945 105.516297 462.941945 115.881356 462.941945 126.246415 462.941945 136.611473 462.941945 146.976532 462.941945 157.341591 462.941945 167.706649 462.941945 178.071708 462.941945 188.436767 462.941945 198.801825 462.941945 209.166884 462.941945 219.531943 462.941945 229.897001 462.941945 240.262060 462.941945 250.627119 462.941945 260.992177 462.941945 271.357236 462.941945 281.722295 462.941944 292.087353 462.941936 302.452412 462.941879 312.817471 462.941529 323.182529 462.939625 333.547588 462.930459 343.912647 462.891490 354.277705 462.745289 364.642764 462.261857 375.007823 460.855164 385.372881 457.260723 395.737940 449.218607 406.102999 433.529526 416.468057 407.010671 426.833116 368.572443 437.198175 321.668152 447.563233 275.293686 457.928292 241.795245 468.293351 231.698529 478.658409 248.400462 489.023468 286.335653 499.388527 333.952536 509.753585 379.351829 520.118644 414.879176 530.483703 438.422217 540.848761 451.843159 551.213820 458.484476 561.578879 461.353566 571.943937 462.439749 582.308996 462.801066 592.674055 462.906880 603.039113 462.934201 613.404172 462.940428 623.769231 462.941681" /></g><g class="series serie-5 color-5"><path class="line reactive nofill" d="M12.230769 462.941945 L22.595828 462.941945 32.960887 462.941945 43.325945 462.941945 53.691004 462.941945 64.056063 462.941945 74.421121 462.941945 84.786180 462.941945 95.151239 462.941945 105.516297 462.941945 115.881356 462.941945 126.246415 462.941945 136.611473 462.941945 146.976532 462.941945 157.341591 462.941945 167.706649 462.941945 178.071708 462.941945 188.436767 462.941945 198.801825 462.941945 209.166884 462.941945 219.531943 462.941945 229.897001 462.941945 240.262060 462.941945 250.627119 462.941945 260.992177 462.941943 271.357236 462.941936 281.722295 462.941901 292.087353 462.941738 302.452412 462.941055 312.817471 462.938438 323.182529 462.929275 333.547588 462.899967 343.912647 462.814395 354.277705 462.586520 364.642764 462.033664 375.007823 460.813327 385.372881 458.367049 395.737940 453.924772 406.102999 446.642780 416.468057 435.923147 426.833116 421.867430 437.198175 405.677561 447.563233 389.726538 457.928292 377.094752 468.293351 370.630520 478.658409 371.910688 489.023468 380.617017 499.388527 394.664397 509.753585 411.010524 520.118644 426.718627 530.483703 439.770561 540.848761 449.348752 551.213820 455.628926 561.578879 459.333852 571.943937 461.309403 582.308996 462.264527 592.674055 462.684161 603.039113 462.851983 613.404172 462.913153 623.769231 462.933494" /></g><g class="series serie-6 color-6"><path class="line reactive nofill" d="M12.230769 462.941945 L22.595828 462.941945 32.960887 462.941945 43.325945 462.941945 53.691004 462.941945 64.056063 462.941945 74.421121 462.941945 84.786180 462.941945 95.151239 462.941945 105.516297 462.941945 115.881356 462.941945 126.246415 462.941945 136.611473 462.941945 146.976532 462.941945 157.341591 462.941945 167.706649 462.941945 178.071708 462.941945 188.436767 462.941945 198.801825 462.941945 209.166884 462.941945 219.531943 462.941945 229.897001 462.941943 240.262060 462.941939 250.627119 462.941924 260.992177 462.941869 271.357236 462.941688 281.722295 462.941131 292.087353 462.939514 302.452412 462.935111 312.817471 462.923859 323.182529 462.896888 333.547588 462.836271 343.912647 462.708628 354.277705 462.456993 364.642764 461.993030 375.007823 461.193986 385.372881 459.910775 395.737940 457.993546 406.102999 455.337029 416.468057 451.939241 426.833116 447.956151 437.198175 443.727167 447.563233 439.748444 457.928292 436.586367 468.293351 434.748114 478.658409 434.548967 489.023468 436.023926 499.388527 438.917655 509.753585 442.756732 520.118644 446.976119 530.483703 451.053508 540.848761 454.608329 551.213820 457.442518 561.578879 459.525482 571.943937 460.943872 582.308996 461.841873 592.674055 462.371772 603.039113 462.663739 613.404172 462.814153 623.769231 462.886684" /></g><g class="series serie-7 color-7"><path class="line reactive nofill" d="M12.230769 462.941945 L22.595828 462.941945 32.960887 462.941945 43.325945 462.941945 53.691004 462.941945 64.056063 462.941945 74.421121 462.941945 84.786180 462.941945 95.151239 462.941945 105.516297 462.941945 115.881356 462.941945 126.246415 462.941945 136.611473 462.941945 146.976532 462.941945 157.341591 462.941945 167.706649 462.941945 178.071708 462.941945 188.436767 462.941945 198.801825 462.941944 209.166884 462.941942 219.531943 462.941937 229.897001 462.941921 240.262060 462.941878 250.627119 462.941766 260.992177 462.941488 271.357236 462.940830 281.722295 462.939339 292.087353 462.936110 302.452412 462.929435 312.817471 462.916263 323.182529 462.891459 333.547588 462.846911 343.912647 462.770649 354.277705 462.646293 364.642764 462.453316 375.007823 462.168652 385.372881 461.770091 395.737940 461.241477 406.102999 460.579137 416.468057 459.798156 426.833116 458.936566 437.198175 458.055433 447.563233 457.233479 457.928292 456.556296 468.293351 456.101951 478.658409 455.926236 489.023468 456.051416 499.388527 456.461592 509.753585 457.106017 520.118644 457.909416 530.483703 458.786402 540.848761 459.656195 551.213820 460.454198 561.578879 461.138333 571.943937 461.689827 582.308996 462.109583 592.674055 462.412105 603.039113 462.618990 613.404172 462.753448 623.769231 462.836595" /></g><g class="series serie-8 color-8"><path class="line reactive nofill" d="M12.230769 462.941945 L22.595828 462.941945 32.960887 462.941945 43.325945 462.941945 53.691004 462.941945 64.056063 462.941945 74.421121 462.941945 84.786180 462.941945 95.151239 462.941945 105.516297 462.941945 115.881356 462.941945 126.246415 462.941945 136.611473 462.941945 146.976532 462.941945 157.341591 462.941945 167.706649 462.941945 178.071708 462.941945 188.436767 462.941944 198.801825 462.941942 209.166884 462.941938 219.531943 462.941929 229.897001 462.941906 240.262060 462.941856 250.627119 462.941746 260.992177 462.941515 271.357236 462.941050 281.722295 462.940145 292.087353 462.938447 302.452412 462.935380 312.817471 462.930041 323.182529 462.921096 333.547588 462.906671 343.912647 462.884297 354.277705 462.850939 364.642764 462.803168 375.007823 462.737523 385.372881 462.651076 395.737940 462.542159 406.102999 462.411160 416.468057 462.261222 426.833116 462.098642 437.198175 461.932792 447.563233 461.775427 457.928292 461.639418 468.293351 461.537054 478.658409 461.478220 489.023468 461.468828 499.388527 461.509838 509.753585 461.597092 520.118644 461.722016 530.483703 461.873000 540.848761 462.037178 551.213820 462.202205 561.578879 462.357717 571.943937 462.496241 582.308996 462.613494 592.674055 462.708138 603.039113 462.781176 613.404172 462.835160 623.769231 462.873431" /></g><g class="series serie-9 color-9"><path class="line reactive nofill" d="M12.230769 462.941945 L22.595828 462.941945 32.960887 462.941945 43.325945 462.941945 53.691004 462.941945 64.056063 462.941945 74.421121 462.941945 84.786180 462.941945 95.151239 462.941945 105.516297 462.941945 115.881356 462.941945 126.246415 462.941945 136.611473 462.941945 146.976532 462.941945 157.341591 462.941945 167.706649 462.941945 178.071708 462.941945 188.436767 462.941945 198.801825 462.941945 209.166884 462.941945 219.531943 462.941945 229.897001 462.941945 240.262060 462.941945 250.627119 462.941945 260.992177 462.941945 271.357236 462.941944 281.722295 462.941932 292.087353 462.941830 302.452412 462.941058 312.817471 462.936147 323.182529 462.909957 333.547588 462.792993 343.912647 462.356560 354.277705 461.000304 364.642764 457.506584 375.007823 450.100328 385.372881 437.335874 395.737940 419.849801 406.102999 401.737185 416.468057 389.574362 426.833116 388.716099 437.198175 399.564019 447.563233 417.269652 457.928292 435.164037 468.293351 448.683302 478.658409 456.764786 489.023468 460.683387 499.388527 462.244988 509.753585 462.760430 520.118644 462.902047 530.483703 462.934543 540.848761 462.940786 551.213820 462.941792 561.578879 462.941928 571.943937 462.941943 582.308996 462.941945 592.674055 462.941945 603.039113 462.941945 613.404172 462.941945 623.769231 462.941945" /></g><g class="series serie-10 color-10"><path class="line reactive nofill" d="M12.230769 462.941945 L22.595828 462.941945 32.960887 462.941945 43.325945 462.941945 53.691004 462.941945 64.056063 462.941945 74.421121 462.941945 84.786180 462.941945 95.151239 462.941945 105.516297 462.941945 115.881356 462.941945 126.246415 462.941945 136.611473 462.941945 146.976532 462.941945 157.341591 462.941945 167.706649 462.941945 178.071708 462.941945 188.436767 462.941945 198.801825 462.941945 209.166884 462.941945 219.531943 462.941945 229.897001 462.941942 240.262060 462.941926 250.627119 462.941821 260.992177 462.941219 271.357236 462.938186 281.722295 462.924746 292.087353 462.872352 302.452412 462.692947 312.817471 462.154189 323.182529 460.738232 333.547588 457.490835 343.912647 451.019049 354.277705 439.882687 364.642764 423.507503 375.007823 403.310840 385.372881 383.209184 395.737940 368.673240 406.102999 364.390031 416.468057 371.839638 426.833116 388.475524 437.198175 409.120126 447.563233 428.544748 457.928292 443.503813 468.293351 453.228959 478.658409 458.650359 489.023468 461.265267 499.388527 462.362719 509.753585 462.765010 520.118644 462.894154 530.483703 462.930531 540.848761 462.939534 551.213820 462.941495 561.578879 462.941871 571.943937 462.941934 582.308996 462.941943 592.674055 462.941945 603.039113 462.941945 613.404172 462.941945 623.769231 462.941945" /></g><g class="series serie-11 color-11"><path class="line reactive nofill" d="M12.230769 462.941945 L22.595828 462.941945 32.960887 462.941945 43.325945 462.941945 53.691004 462.941945 64.056063 462.941945 74.421121 462.941945 84.786180 462.941945 95.151239 462.941945 105.516297 462.941945 115.881356 462.941945 126.246415 462.941945 136.611473 462.941945 146.976532 462.941945 157.341591 462.941944 167.706649 462.941942 178.071708 462.941927 188.436767 462.941860 198.801825 462.941569 209.166884 462.940405 219.531943 462.936143 229.897001 462.921839 240.262060 462.877834 250.627119 462.753859 260.992177 462.434249 271.357236 461.681074 281.722295 460.060845 292.087353 456.884823 302.452412 451.225529 312.817471 442.090138 323.182529 428.798049 333.547588 411.501715 343.912647 391.638062 354.277705 372.004254 364.642764 356.234403 375.007823 347.738156 385.372881 348.506946 395.737940 358.356457 406.102999 374.998304 416.468057 394.902946 426.833116 414.510008 437.198175 431.222453 447.563233 443.828408 457.928292 452.345106 468.293351 457.536492 478.658409 460.405016 489.023468 461.846464 499.388527 462.506712 509.753585 462.782849 520.118644 462.888437 530.483703 462.925387 540.848761 462.937231 551.213820 462.940710 561.578879 462.941647 571.943937 462.941879 582.308996 462.941931 592.674055 462.941942 603.039113 462.941944 613.404172 462.941945 623.769231 462.941945" /></g><g class="series serie-12 color-12"><path class="line reactive nofill" d="M12.230769 462.941945 L22.595828 462.941945 32.960887 462.941945 43.325945 462.941945 53.691004 462.941945 64.056063 462.941945 74.421121 462.941945 84.786180 462.941945 95.151239 462.941945 105.516297 462.941944 115.881356 462.941942 126.246415 462.941931 136.611473 462.941886 146.976532 462.941708 157.341591 462.941052 167.706649 462.938799 178.071708 462.931605 188.436767 462.910240 198.801825 462.851250 209.166884 462.699904 219.531943 462.339322 229.897001 461.542188 240.262060 459.908674 250.627119 456.809680 260.992177 451.375983 271.357236 442.590571 281.722295 429.533453 292.087353 411.777159 302.452412 389.838707 312.817471 365.498368 323.182529 341.764728 333.547588 322.356654 343.912647 310.778634 354.277705 309.292439 364.642764 318.196955 375.007823 335.730242 385.372881 358.637757 395.737940 383.155782 406.102999 406.003636 416.468057 425.033785 426.833116 439.396223 437.198175 449.297922 447.563233 455.565891 457.928292 459.221826 468.293351 461.191531 478.658409 462.173565 489.023468 462.627270 499.388527 462.821719 509.753585 462.899091 520.118644 462.927694 530.483703 462.937524 540.848761 462.940665 551.213820 462.941599 561.578879 462.941858 571.943937 462.941924 582.308996 462.941940 592.674055 462.941944 603.039113 462.941945 613.404172 462.941945 623.769231 462.941945" /></g><g class="series serie-13 color-13"><path class="line reactive nofill" d="M12.230769 462.917576 L22.595828 462.898930 32.960887 462.867533 43.325945 462.815786 53.691004 462.732319 64.056063 462.600577 74.421121 462.397125 84.786180 462.089760 95.151239 461.635574 105.516297 460.979263 115.881356 460.052031 126.246415 458.771609 136.611473 457.043895 146.976532 454.766769 157.341591 451.836474 167.706649 448.156713 178.071708 443.650244 188.436767 438.272228 198.801825 432.024112 209.166884 424.966297 219.531943 417.227591 229.897001 409.009362 240.262060 400.582662 250.627119 392.277289 260.992177 384.462733 271.357236 377.522199 281.722295 371.822061 292.087353 367.680032 302.452412 365.335908 312.817471 364.928576 323.182529 366.482402 333.547588 369.904808 343.912647 374.995413 354.277705 381.465447 364.642764 388.964856 375.007823 397.113535 385.372881 405.532843 395.737940 413.873829 406.102999 421.839348 416.468057 429.198424 426.833116 435.792386 437.198175 441.533437 447.563233 446.397154 457.928292 450.410896 468.293351 453.640192 478.658409 456.174988 489.023468 458.117212 499.388527 459.570590 509.753585 460.633142 520.118644 461.392342 530.483703 461.922637 540.848761 462.284830 551.213820 462.526772 561.578879 462.684865 571.943937 462.785933 582.308996 462.849155 592.674055 462.887858 603.039113 462.911047 613.404172 462.924646 623.769231 462.932452" /></g></g><g class="titles"><text class="title plot_title" x="400.0" y="26">Iteration #8</text><text class="title" x="462.0" y="580.0">Observation</text><text class="title" transform="rotate(-90 64.000000 282.009619)" x="64.0" y="308.0096189432334">Density</text></g><g class="plot overlay" transform="translate(144, 46)"><g class="series serie-0 color-0" /><g class="series serie-1 color-1" /><g class="series serie-2 color-2" /><g class="series serie-3 color-3" /><g class="series serie-4 color-4" /><g class="series serie-5 color-5" /><g class="series serie-6 color-6" /><g class="series serie-7 color-7" /><g class="series serie-8 color-8" /><g class="series serie-9 color-9" /><g class="series serie-10 color-10" /><g class="series serie-11 color-11" /><g class="series serie-12 color-12" /><g class="series serie-13 color-13" /></g><g class="plot text-overlay" transform="translate(144, 46)"><g class="series serie-0 color-0" /><g class="series serie-1 color-1" /><g class="series serie-2 color-2" /><g class="series serie-3 color-3" /><g class="series serie-4 color-4" /><g class="series serie-5 color-5" /><g class="series serie-6 color-6" /><g class="series serie-7 color-7" /><g class="series serie-8 color-8" /><g class="series serie-9 color-9" /><g class="series serie-10 color-10" /><g class="series serie-11 color-11" /><g class="series serie-12 color-12" /><g class="series serie-13 color-13" /></g><g class="plot tooltip-overlay" transform="translate(144, 46)"><g class="tooltip" style="opacity: 0" transform="translate(0 0)"><rect class="tooltip-box" height="0" rx="0" ry="0" width="0" /><g class="text" /></g></g><g class="legends" transform="translate(10, 56)"><g class="legend reactive activate-serie" id="activate-serie-0"><rect class="color-0 reactive" height="12" width="12" x="0.0" y="0.0" /><text x="17.0" y="9.0">Data</text></g><g class="legend reactive activate-serie" id="activate-serie-1"><rect class="color-1 reactive" height="12" width="12" x="0.0" y="18.0" /><text x="17.0" y="27.0">GMM</text></g><g class="legend reactive activate-serie" id="activate-serie-2"><rect class="color-2 reactive" height="12" width="12" x="0.0" y="36.0" /><text x="17.0" y="45.0">i=0</text></g><g class="legend reactive activate-serie" id="activate-serie-3"><rect class="color-3 reactive" height="12" width="12" x="0.0" y="54.0" /><text x="17.0" y="63.0">i=1</text></g><g class="legend reactive activate-serie" id="activate-serie-4"><rect class="color-4 reactive" height="12" width="12" x="0.0" y="72.0" /><text x="17.0" y="81.0">i=0 k=0</text></g><g class="legend reactive activate-serie" id="activate-serie-5"><rect class="color-5 reactive" height="12" width="12" x="0.0" y="90.0" /><text x="17.0" y="99.0">i=0 k=1</text></g><g class="legend reactive activate-serie" id="activate-serie-6"><rect class="color-6 reactive" height="12" width="12" x="0.0" y="108.0" /><text x="17.0" y="117.0">i=0 k=2</text></g><g class="legend reactive activate-serie" id="activate-serie-7"><rect class="color-7 reactive" height="12" width="12" x="0.0" y="126.0" /><text x="17.0" y="135.0">i=0 k=3</text></g><g class="legend reactive activate-serie" id="activate-serie-8"><rect class="color-8 reactive" height="12" width="12" x="0.0" y="144.0" /><text x="17.0" y="153.0">i=0 k=4</text></g><g class="legend reactive activate-serie" id="activate-serie-9"><rect class="color-9 reactive" height="12" width="12" x="0.0" y="162.0" /><text x="17.0" y="171.0">i=1 k=0</text></g><g class="legend reactive activate-serie" id="activate-serie-10"><rect class="color-10 reactive" height="12" width="12" x="0.0" y="180.0" /><text x="17.0" y="189.0">i=1 k=1</text></g><g class="legend reactive activate-serie" id="activate-serie-11"><rect class="color-11 reactive" height="12" width="12" x="0.0" y="198.0" /><text x="17.0" y="207.0">i=1 k=2</text></g><g class="legend reactive activate-serie" id="activate-serie-12"><rect class="color-12 reactive" height="12" width="12" x="0.0" y="216.0" /><text x="17.0" y="225.0">i=1 k=3</text></g><g class="legend reactive activate-serie" id="activate-serie-13"><rect class="color-13 reactive" height="12" width="12" x="0.0" y="234.0" /><text x="17.0" y="243.0">i=1 k=4</text></g></g><g class="legends" transform="translate(790, 56)" /></g></svg>