<?xml version='1.0' encoding='utf-8'?>
<svg xmlns:xlink="http://www.w3.org/1999/xlink" class="pygal-chart" id="chart-d6e8d01f-1675-4cba-9475-6f3c1b3c243b" viewBox="0 0 800 600" xmlns="http://www.w3.org/2000/svg"><!--Generated with pygal 2.4.0 (etree) ©Kozea 2012-2016 on 2017-12-19--><!--http://pygal.org--><!--http://github.com/Kozea/pygal--><defs><style type="text/css">#chart-d6e8d01f-1675-4cba-9475-6f3c1b3c243b{-webkit-user-select:none;-webkit-font-smoothing:antialiased;font-family:Consolas,"Liberation Mono",Menlo,Courier,monospace}#chart-d6e8d01f-1675-4cba-9475-6f3c1b3c243b .title{font-family:Consolas,"Liberation Mono",Menlo,Courier,monospace;font-size:16px}#chart-d6e8d01f-1675-4cba-9475-6f3c1b3c243b .legends .legend text{font-family:Consolas,"Liberation Mono",Menlo,Courier,monospace;font-size:10px}#chart-d6e8d01f-1675-4cba-9475-6f3c1b3c243b .axis text{font-family:Consolas,"Liberation Mono",Menlo,Courier,monospace;font-size:10px}#chart-d6e8d01f-1675-4cba-9475-6f3c1b3c243b .axis text.major{font-family:Consolas,"Liberation Mono",Menlo,Courier,monospace;font-size:10px}#chart-d6e8d01f-1675-4cba-9475-6f3c1b3c243b .text-overlay text.value{font-family:Consolas,"Liberation Mono",Menlo,Courier,monospace;font-size:16px}#chart-d6e8d01f-1675-4cba-9475-6f3c1b3c243b .text-overlay text.label{font-family:Consolas,"Liberation Mono",Menlo,Courier,monospace;font-size:10px}#chart-d6e8d01f-1675-4cba-9475-6f3c1b3c243b .tooltip{font-family:Consolas,"Liberation Mono",Menlo,Courier,monospace;font-size:14px}#chart-d6e8d01f-1675-4cba-9475-6f3c1b3c243b text.no_data{font-family:Consolas,"Liberation Mono",Menlo,Courier,monospace;font-size:64px}
#chart-d6e8d01f-1675-4cba-9475-6f3c1b3c243b{background-color:rgba(249,249,249,1)}#chart-d6e8d01f-1675-4cba-9475-6f3c1b3c243b path,#chart-d6e8d01f-1675-4cba-9475-6f3c1b3c243b line,#chart-d6e8d01f-1675-4cba-9475-6f3c1b3c243b rect,#chart-d6e8d01f-1675-4cba-9475-6f3c1b3c243b circle{-webkit-transition:150ms;-moz-transition:150ms;transition:150ms}#chart-d6e8d01f-1675-4cba-9475-6f3c1b3c243b .graph &gt; .background{fill:rgba(249,249,249,1)}#chart-d6e8d01f-1675-4cba-9475-6f3c1b3c243b .plot &gt; .background{fill:rgba(255,255,255,1)}#chart-d6e8d01f-1675-4cba-9475-6f3c1b3c243b .graph{fill:rgba(0,0,0,.87)}#chart-d6e8d01f-1675-4cba-9475-6f3c1b3c243b text.no_data{fill:rgba(0,0,0,1)}#chart-d6e8d01f-1675-4cba-9475-6f3c1b3c243b .title{fill:rgba(0,0,0,1)}#chart-d6e8d01f-1675-4cba-9475-6f3c1b3c243b .legends .legend text{fill:rgba(0,0,0,.87)}#chart-d6e8d01f-1675-4cba-9475-6f3c1b3c243b .legends .legend:hover text{fill:rgba(0,0,0,1)}#chart-d6e8d01f-1675-4cba-9475-6f3c1b3c243b .axis .line{stroke:rgba(0,0,0,1)}#chart-d6e8d01f-1675-4cba-9475-6f3c1b3c243b .axis .guide.line{stroke:rgba(0,0,0,.54)}#chart-d6e8d01f-1675-4cba-9475-6f3c1b3c243b .axis .major.line{stroke:rgba(0,0,0,.87)}#chart-d6e8d01f-1675-4cba-9475-6f3c1b3c243b .axis text.major{fill:rgba(0,0,0,1)}#chart-d6e8d01f-1675-4cba-9475-6f3c1b3c243b .axis.y .guides:hover .guide.line,#chart-d6e8d01f-1675-4cba-9475-6f3c1b3c243b .line-graph .axis.x .guides:hover .guide.line,#chart-d6e8d01f-1675-4cba-9475-6f3c1b3c243b .stackedline-graph .axis.x .guides:hover .guide.line,#chart-d6e8d01f-1675-4cba-9475-6f3c1b3c243b .xy-graph .axis.x .guides:hover .guide.line{stroke:rgba(0,0,0,1)}#chart-d6e8d01f-1675-4cba-9475-6f3c1b3c243b .axis .guides:hover text{fill:rgba(0,0,0,1)}#chart-d6e8d01f-1675-4cba-9475-6f3c1b3c243b .reactive{fill-opacity:.7;stroke-opacity:.8}#chart-d6e8d01f-1675-4cba-9475-6f3c1b3c243b .ci{stroke:rgba(0,0,0,.87)}#chart-d6e8d01f-1675-4cba-9475-6f3c1b3c243b .reactive.active,#chart-d6e8d01f-1675-4cba-9475-6f3c1b3c243b .active .reactive{fill-opacity:.8;stroke-opacity:.9;stroke-width:4}#chart-d6e8d01f-1675-4cba-9475-6f3c1b3c243b .ci .reactive.active{stroke-width:1.5}#chart-d6e8d01f-1675-4cba-9475-6f3c1b3c243b .series text{fill:rgba(0,0,0,1)}#chart-d6e8d01f-1675-4cba-9475-6f3c1b3c243b .tooltip rect{fill:rgba(255,255,255,1);stroke:rgba(0,0,0,1);-webkit-transition:opacity 150ms;-moz-transition:opacity 150ms;transition:opacity 150ms}#chart-d6e8d01f-1675-4cba-9475-6f3c1b3c243b .tooltip .label{fill:rgba(0,0,0,.87)}#chart-d6e8d01f-1675-4cba-9475-6f3c1b3c243b .tooltip .label{fill:rgba(0,0,0,.87)}#chart-d6e8d01f-1675-4cba-9475-6f3c1b3c243b .tooltip .legend{font-size:.8em;fill:rgba(0,0,0,.54)}#chart-d6e8d01f-1675-4cba-9475-6f3c1b3c243b .tooltip .x_label{font-size:.6em;fill:rgba(0,0,0,1)}#chart-d6e8d01f-1675-4cba-9475-6f3c1b3c243b .tooltip .xlink{font-size:.5em;text-decoration:underline}#chart-d6e8d01f-1675-4cba-9475-6f3c1b3c243b .tooltip .value{font-size:1.5em}#chart-d6e8d01f-1675-4cba-9475-6f3c1b3c243b .bound{font-size:.5em}#chart-d6e8d01f-1675-4cba-9475-6f3c1b3c243b .max-value{font-size:.75em;fill:rgba(0,0,0,.54)}#chart-d6e8d01f-1675-4cba-9475-6f3c1b3c243b .map-element{fill:rgba(255,255,255,1);stroke:rgba(0,0,0,.54) !important}#chart-d6e8d01f-1675-4cba-9475-6f3c1b3c243b .map-element .reactive{fill-opacity:inherit;stroke-opacity:inherit}#chart-d6e8d01f-1675-4cba-9475-6f3c1b3c243b .color-0,#chart-d6e8d01f-1675-4cba-9475-6f3c1b3c243b .color-0 a:visited{stroke:#909090;fill:#909090}#chart-d6e8d01f-1675-4cba-9475-6f3c1b3c243b .color-1,#chart-d6e8d01f-1675-4cba-9475-6f3c1b3c243b .color-1 a:visited{stroke:#000000;fill:#000000}#chart-d6e8d01f-1675-4cba-9475-6f3c1b3c243b .color-2,#chart-d6e8d01f-1675-4cba-9475-6f3c1b3c243b .color-2 a:visited{stroke:#ff0500;fill:#ff0500}#chart-d6e8d01f-1675-4cba-9475-6f3c1b3c243b .color-3,#chart-d6e8d01f-1675-4cba-9475-6f3c1b3c243b .color-3 a:visited{stroke:#323299;fill:#323299}#chart-d6e8d01f-1675-4cba-9475-6f3c1b3c243b .color-4,#chart-d6e8d01f-1675-4cba-9475-6f3c1b3c243b .color-4 a:visited{stroke:#a3413f;fill:#a3413f}#chart-d6e8d01f-1675-4cba-9475-6f3c1b3c243b .color-5,#chart-d6e8d01f-1675-4cba-9475-6f3c1b3c243b .color-5 a:visited{stroke:#a3413f;fill:#a3413f}#chart-d6e8d01f-1675-4cba-9475-6f3c1b3c243b .color-6,#chart-d6e8d01f-1675-4cba-9475-6f3c1b3c243b .color-6 a:visited{stroke:#a3413f;fill:#a3413f}#chart-d6e8d01f-1675-4cba-9475-6f3c1b3c243b .color-7,#chart-d6e8d01f-1675-4cba-9475-6f3c1b3c243b .color-7 a:visited{stroke:#a3413f;fill:#a3413f}#chart-d6e8d01f-1675-4cba-9475-6f3c1b3c243b .color-8,#chart-d6e8d01f-1675-4cba-9475-6f3c1b3c243b .color-8 a:visited{stroke:#a3413f;fill:#a3413f}#chart-d6e8d01f-1675-4cba-9475-6f3c1b3c243b .color-9,#chart-d6e8d01f-1675-4cba-9475-6f3c1b3c243b .color-9 a:visited{stroke:#657fff;fill:#657fff}#chart-d6e8d01f-1675-4cba-9475-6f3c1b3c243b .color-10,#chart-d6e8d01f-1675-4cba-9475-6f3c1b3c243b .color-10 a:visited{stroke:#657fff;fill:#657fff}#chart-d6e8d01f-1675-4cba-9475-6f3c1b3c243b .color-11,#chart-d6e8d01f-1675-4cba-9475-6f3c1b3c243b .color-11 a:visited{stroke:#657fff;fill:#657fff}#chart-d6e8d01f-1675-4cba-9475-6f3c1b3c243b .color-12,#chart-d6e8d01f-1675-4cba-9475-6f3c1b3c243b .color-12 a:visited{stroke:#657fff;fill:#657fff}#chart-d6e8d01f-1675-4cba-9475-6f3c1b3c243b .color-13,#chart-d6e8d01f-1675-4cba-9475-6f3c1b3c243b .color-13 a:visited{stroke:#657fff;fill:#657fff}#chart-d6e8d01f-1675-4cba-9475-6f3c1b3c243b .text-overlay .color-0 text{fill:black}#chart-d6e8d01f-1675-4cba-9475-6f3c1b3c243b .text-overlay .color-1 text{fill:white}#chart-d6e8d01f-1675-4cba-9475-6f3c1b3c243b .text-overlay .color-2 text{fill:black}#chart-d6e8d01f-1675-4cba-9475-6f3c1b3c243b .text-overlay .color-3 text{fill:black}#chart-d6e8d01f-1675-4cba-9475-6f3c1b3c243b .text-overlay .color-4 text{fill:black}#chart-d6e8d01f-1675-4cba-9475-6f3c1b3c243b .text-overlay .color-5 text{fill:black}#chart-d6e8d01f-1675-4cba-9475-6f3c1b3c243b .text-overlay .color-6 text{fill:black}#chart-d6e8d01f-1675-4cba-9475-6f3c1b3c243b .text-overlay .color-7 text{fill:black}#chart-d6e8d01f-1675-4cba-9475-6f3c1b3c243b .text-overlay .color-8 text{fill:black}#chart-d6e8d01f-1675-4cba-9475-6f3c1b3c243b .text-overlay .color-9 text{fill:black}#chart-d6e8d01f-1675-4cba-9475-6f3c1b3c243b .text-overlay .color-10 text{fill:black}#chart-d6e8d01f-1675-4cba-9475-6f3c1b3c243b .text-overlay .color-11 text{fill:black}#chart-d6e8d01f-1675-4cba-9475-6f3c1b3c243b .text-overlay .color-12 text{fill:black}#chart-d6e8d01f-1675-4cba-9475-6f3c1b3c243b .text-overlay .color-13 text{fill:black}#chart-d6e8d01f-1675-4cba-9475-6f3c1b3c243b .series.serie-1{stroke-width:5}#chart-d6e8d01f-1675-4cba-9475-6f3c1b3c243b .series.serie-2{stroke-width:3}#chart-d6e8d01f-1675-4cba-9475-6f3c1b3c243b .series.serie-3{stroke-width:3}#chart-d6e8d01f-1675-4cba-9475-6f3c1b3c243b .series.serie-4{stroke-width:2;stroke-dasharray:2,2}#chart-d6e8d01f-1675-4cba-9475-6f3c1b3c243b .series.serie-5{stroke-width:2;stroke-dasharray:2,2}#chart-d6e8d01f-1675-4cba-9475-6f3c1b3c243b .series.serie-6{stroke-width:2;stroke-dasharray:2,2}#chart-d6e8d01f-1675-4cba-9475-6f3c1b3c243b .series.serie-7{stroke-width:2;stroke-dasharray:2,2}#chart-d6e8d01f-1675-4cba-9475-6f3c1b3c243b .series.serie-8{stroke-width:2;stroke-dasharray:2,2}#chart-d6e8d01f-1675-4cba-9475-6f3c1b3c243b .series.serie-9{stroke-width:2;stroke-dasharray:2,2}#chart-d6e8d01f-1675-4cba-9475-6f3c1b3c243b .series.serie-10{stroke-width:2;stroke-dasharray:2,2}#chart-d6e8d01f-1675-4cba-9475-6f3c1b3c243b .series.serie-11{stroke-width:2;stroke-dasharray:2,2}#chart-d6e8d01f-1675-4cba-9475-6f3c1b3c243b .series.serie-12{stroke-width:2;stroke-dasharray:2,2}#chart-d6e8d01f-1675-4cba-9475-6f3c1b3c243b .series.serie-13{stroke-width:2;stroke-dasharray:2,2}
#chart-d6e8d01f-1675-4cba-9475-6f3c1b3c243b text.no_data{text-anchor:middle}#chart-d6e8d01f-1675-4cba-9475-6f3c1b3c243b .guide.line{fill:none}#chart-d6e8d01f-1675-4cba-9475-6f3c1b3c243b .centered{text-anchor:middle}#chart-d6e8d01f-1675-4cba-9475-6f3c1b3c243b .title{text-anchor:middle}#chart-d6e8d01f-1675-4cba-9475-6f3c1b3c243b .legends .legend text{fill-opacity:1}#chart-d6e8d01f-1675-4cba-9475-6f3c1b3c243b .axis.x text{text-anchor:middle}#chart-d6e8d01f-1675-4cba-9475-6f3c1b3c243b .axis.x:not(.web) text[transform]{text-anchor:start}#chart-d6e8d01f-1675-4cba-9475-6f3c1b3c243b .axis.x:not(.web) text[transform].backwards{text-anchor:end}#chart-d6e8d01f-1675-4cba-9475-6f3c1b3c243b .axis.y text{text-anchor:end}#chart-d6e8d01f-1675-4cba-9475-6f3c1b3c243b .axis.y text[transform].backwards{text-anchor:start}#chart-d6e8d01f-1675-4cba-9475-6f3c1b3c243b .axis.y2 text{text-anchor:start}#chart-d6e8d01f-1675-4cba-9475-6f3c1b3c243b .axis.y2 text[transform].backwards{text-anchor:end}#chart-d6e8d01f-1675-4cba-9475-6f3c1b3c243b .axis .guide.line{stroke-dasharray:4,4}#chart-d6e8d01f-1675-4cba-9475-6f3c1b3c243b .axis .major.guide.line{stroke-dasharray:6,6}#chart-d6e8d01f-1675-4cba-9475-6f3c1b3c243b .horizontal .axis.y .guide.line,#chart-d6e8d01f-1675-4cba-9475-6f3c1b3c243b .horizontal .axis.y2 .guide.line,#chart-d6e8d01f-1675-4cba-9475-6f3c1b3c243b .vertical .axis.x .guide.line{opacity:0}#chart-d6e8d01f-1675-4cba-9475-6f3c1b3c243b .horizontal .axis.always_show .guide.line,#chart-d6e8d01f-1675-4cba-9475-6f3c1b3c243b .vertical .axis.always_show .guide.line{opacity:1 !important}#chart-d6e8d01f-1675-4cba-9475-6f3c1b3c243b .axis.y .guides:hover .guide.line,#chart-d6e8d01f-1675-4cba-9475-6f3c1b3c243b .axis.y2 .guides:hover .guide.line,#chart-d6e8d01f-1675-4cba-9475-6f3c1b3c243b .axis.x .guides:hover .guide.line{opacity:1}#chart-d6e8d01f-1675-4cba-9475-6f3c1b3c243b .axis .guides:hover text{opacity:1}#chart-d6e8d01f-1675-4cba-9475-6f3c1b3c243b .nofill{fill:none}#chart-d6e8d01f-1675-4cba-9475-6f3c1b3c243b .subtle-fill{fill-opacity:.2}#chart-d6e8d01f-1675-4cba-9475-6f3c1b3c243b .dot{stroke-width:1px;fill-opacity:1}#chart-d6e8d01f-1675-4cba-9475-6f3c1b3c243b .dot.active{stroke-width:5px}#chart-d6e8d01f-1675-4cba-9475-6f3c1b3c243b .dot.negative{fill:transparent}#chart-d6e8d01f-1675-4cba-9475-6f3c1b3c243b text,#chart-d6e8d01f-1675-4cba-9475-6f3c1b3c243b tspan{stroke:none !important}#chart-d6e8d01f-1675-4cba-9475-6f3c1b3c243b .series text.active{opacity:1}#chart-d6e8d01f-1675-4cba-9475-6f3c1b3c243b .tooltip rect{fill-opacity:.95;stroke-width:.5}#chart-d6e8d01f-1675-4cba-9475-6f3c1b3c243b .tooltip text{fill-opacity:1}#chart-d6e8d01f-1675-4cba-9475-6f3c1b3c243b .showable{visibility:hidden}#chart-d6e8d01f-1675-4cba-9475-6f3c1b3c243b .showable.shown{visibility:visible}#chart-d6e8d01f-1675-4cba-9475-6f3c1b3c243b .gauge-background{fill:rgba(229,229,229,1);stroke:none}#chart-d6e8d01f-1675-4cba-9475-6f3c1b3c243b .bg-lines{stroke:rgba(249,249,249,1);stroke-width:2px}</style><script type="text/javascript">window.pygal = window.pygal || {};window.pygal.config = window.pygal.config || {};window.pygal.config['d6e8d01f-1675-4cba-9475-6f3c1b3c243b'] = {"css": ["file://style.css", "file://graph.css"], "include_x_axis": false, "min_scale": 4, "print_zeroes": true, "show_x_labels": true, "stroke": true, "show_minor_y_labels": true, "inner_radius": 0, "fill": false, "pretty_print": false, "js": ["//kozea.github.io/pygal.js/2.0.x/pygal-tooltips.min.js"], "x_labels": ["-8.96", "-8.76", "-8.56", "-8.36", "-8.16", "-7.96", "-7.76", "-7.56", "-7.36", "-7.16", "-6.96", "-6.76", "-6.56", "-6.36", "-6.16", "-5.96", "-5.76", "-5.56", "-5.36", "-5.16", "-4.96", "-4.76", "-4.56", "-4.36", "-4.16", "-3.96", "-3.76", "-3.56", "-3.36", "-3.16", "-2.96", "-2.76", "-2.56", "-2.36", "-2.16", "-1.96", "-1.76", "-1.56", "-1.36", "-1.16", "-0.96", "-0.76", "-0.56", "-0.36", "-0.16", "0.04", "0.24", "0.44", "0.64", "0.84", "1.04", "1.24", "1.43", "1.63", "1.83", "2.03", "2.23", "2.43", "2.63", "2.83"], "logarithmic": false, "show_minor_x_labels": false, "formatter": null, "tooltip_fancy_mode": true, "defs": [], "stroke_style": null, "spacing": 10, "show_only_major_dots": false, "half_pie": false, "show_legend": true, "dynamic_print_values": false, "max_scale": 16, "explicit_size": false, "y_label_rotation": 0, "y_labels": null, "x_labels_major": null, "margin_top": null, "interpolation_precision": 250, "xrange": null, "order_min": null, "y_title": "Density", "title": "Iteration #0", "x_label_rotation": 60, "interpolation_parameters": {}, "stack_from_top": false, "truncate_legend": null, "x_title": "Observation", "show_y_guides": true, "no_prefix": false, "print_values_position": "center", "show_y_labels": true, "classes": ["pygal-chart"], "force_uri_protocol": "https", "x_labels_major_count": null, "allow_interruptions": false, "width": 800, "height": 600, "secondary_range": null, "box_mode": "extremes", "margin_left": null, "y_labels_major": null, "margin_right": null, "zero": 0, "dots_size": 2.5, "no_data_text": "No data", "show_dots": false, "range": [0, 0.27578580090479526], "truncate_label": null, "margin_bottom": null, "y_labels_major_every": null, "show_x_guides": false, "disable_xml_declaration": false, "print_values": false, "x_labels_major_every": 2, "print_labels": false, "y_labels_major_count": null, "interpolate": null, "legend_at_bottom": false, "style": {"value_font_size": 16, "tooltip_font_family": "Consolas, \"Liberation Mono\", Menlo, Courier, monospace", "major_label_font_family": "Consolas, \"Liberation Mono\", Menlo, Courier, monospace", "value_colors": [], "value_background": "rgba(229, 229, 229, 1)", "foreground_strong": "rgba(0, 0, 0, 1)", "opacity": ".7", "font_family": "Consolas, \"Liberation Mono\", Menlo, Courier, monospace", "label_font_size": 10, "transition": "150ms", "title_font_family": "Consolas, \"Liberation Mono\", Menlo, Courier, monospace", "background": "rgba(249, 249, 249, 1)", "stroke_opacity": ".8", "no_data_font_size": 64, "value_label_font_family": "Consolas, \"Liberation Mono\", Menlo, Courier, monospace", "value_label_font_size": 10, "value_font_family": "Consolas, \"Liberation Mono\", Menlo, Courier, monospace", "plot_background": "rgba(255, 255, 255, 1)", "colors": ["#909090", "#000000", "#ff0500", "#323299", "#a3413f", "#a3413f", "#a3413f", "#a3413f", "#a3413f", "#657fff", "#657fff", "#657fff", "#657fff", "#657fff"], "legend_font_size": 10, "guide_stroke_dasharray": "4,4", "major_label_font_size": 10, "stroke_opacity_hover": ".9", "major_guide_stroke_dasharray": "6,6", "opacity_hover": ".8", "no_data_font_family": "Consolas, \"Liberation Mono\", Menlo, Courier, monospace", "title_font_size": 16, "ci_colors": [], "foreground": "rgba(0, 0, 0, .87)", "foreground_subtle": "rgba(0, 0, 0, .54)", "legend_font_family": "Consolas, \"Liberation Mono\", Menlo, Courier, monospace", "label_font_family": "Consolas, \"Liberation Mono\", Menlo, Courier, monospace", "tooltip_font_size": 14}, "strict": false, "legend_box_size": 12, "tooltip_border_radius": 0, "margin": 20, "legends": ["Data", "GMM", "i=0", "i=1", "i=0 k=0", "i=0 k=1", "i=0 k=2", "i=0 k=3", "i=0 k=4", "i=1 k=0", "i=1 k=1", "i=1 k=2", "i=1 k=3", "i=1 k=4"], "inverse_y_axis": false, "legend_at_bottom_columns": null, "rounded_bars": null, "missing_value_fill_truncation": "x"}</script><script type="text/javascript" xlink:href="https://kozea.github.io/pygal.js/2.0.x/pygal-tooltips.min.js" /></defs><title>Iteration #0</title><g class="graph line-graph vertical"><rect class="background" height="600" width="800" x="0" y="0" /><g class="plot" transform="translate(144, 46)"><rect class="background" height="472.01923788646684" width="636.0" x="0" y="0" /><g class="axis y always_show"><g class="guides"><path class="axis major line" d="M0.000000 462.941945 h636.000000" /><text class="major" x="-5" y="466.44194485">0</text><title>0</title></g><g class="guides"><path class="guide line" d="M0.000000 430.027658 h636.000000" /><text class="" x="-5" y="433.527657724">0.02</text><title>0.02</title></g><g class="guides"><path class="guide line" d="M0.000000 397.113371 h636.000000" /><text class="" x="-5" y="400.613370598">0.04</text><title>0.04</title></g><g class="guides"><path class="guide line" d="M0.000000 364.199083 h636.000000" /><text class="" x="-5" y="367.699083472">0.06</text><title>0.06</title></g><g class="guides"><path class="guide line" d="M0.000000 331.284796 h636.000000" /><text class="" x="-5" y="334.784796346">0.08</text><title>0.08</title></g><g class="guides"><path class="guide line" d="M0.000000 298.370509 h636.000000" /><text class="" x="-5" y="301.87050922">0.1</text><title>0.1</title></g><g class="guides"><path class="guide line" d="M0.000000 265.456222 h636.000000" /><text class="" x="-5" y="268.956222094">0.12</text><title>0.12</title></g><g class="guides"><path class="guide line" d="M0.000000 232.541935 h636.000000" /><text class="" x="-5" y="236.041934968">0.14</text><title>0.14</title></g><g class="guides"><path class="guide line" d="M0.000000 199.627648 h636.000000" /><text class="" x="-5" y="203.127647841">0.16</text><title>0.16</title></g><g class="guides"><path class="guide line" d="M0.000000 166.713361 h636.000000" /><text class="" x="-5" y="170.213360715">0.18</text><title>0.18</title></g><g class="guides"><path class="guide line" d="M0.000000 133.799074 h636.000000" /><text class="" x="-5" y="137.299073589">0.2</text><title>0.2</title></g><g class="guides"><path class="guide line" d="M0.000000 100.884786 h636.000000" /><text class="" x="-5" y="104.384786463">0.22</text><title>0.22</title></g><g class="guides"><path class="guide line" d="M0.000000 67.970499 h636.000000" /><text class="" x="-5" y="71.4704993371">0.24</text><title>0.24</title></g><g class="guides"><path class="guide line" d="M0.000000 35.056212 h636.000000" /><text class="" x="-5" y="38.5562122111">0.26</text><title>0.26</title></g></g><g class="axis x"><g class="guides"><path class="major line" d="M12.230769 0.000000 v472.019238" /><text class="major" transform="rotate(60 12.230769 487.019238)" x="12.230769230769232" y="487.01923788646684">-8.96</text></g><g class="guides"><path class="major guide line" d="M32.960887 0.000000 v472.019238" /><text class="major" transform="rotate(60 32.960887 487.019238)" x="32.96088657105606" y="487.01923788646684">-8.56</text></g><g class="guides"><path class="major guide line" d="M53.691004 0.000000 v472.019238" /><text class="major" transform="rotate(60 53.691004 487.019238)" x="53.6910039113429" y="487.01923788646684">-8.16</text></g><g class="guides"><path class="major guide line" d="M74.421121 0.000000 v472.019238" /><text class="major" transform="rotate(60 74.421121 487.019238)" x="74.42112125162973" y="487.01923788646684">-7.76</text></g><g class="guides"><path class="major guide line" d="M95.151239 0.000000 v472.019238" /><text class="major" transform="rotate(60 95.151239 487.019238)" x="95.15123859191655" y="487.01923788646684">-7.36</text></g><g class="guides"><path class="major guide line" d="M115.881356 0.000000 v472.019238" /><text class="major" transform="rotate(60 115.881356 487.019238)" x="115.88135593220338" y="487.01923788646684">-6.96</text></g><g class="guides"><path class="major guide line" d="M136.611473 0.000000 v472.019238" /><text class="major" transform="rotate(60 136.611473 487.019238)" x="136.61147327249023" y="487.01923788646684">-6.56</text></g><g class="guides"><path class="major guide line" d="M157.341591 0.000000 v472.019238" /><text class="major" transform="rotate(60 157.341591 487.019238)" x="157.34159061277705" y="487.01923788646684">-6.16</text></g><g class="guides"><path class="major guide line" d="M178.071708 0.000000 v472.019238" /><text class="major" transform="rotate(60 178.071708 487.019238)" x="178.0717079530639" y="487.01923788646684">-5.76</text></g><g class="guides"><path class="major guide line" d="M198.801825 0.000000 v472.019238" /><text class="major" transform="rotate(60 198.801825 487.019238)" x="198.80182529335073" y="487.01923788646684">-5.36</text></g><g class="guides"><path class="major guide line" d="M219.531943 0.000000 v472.019238" /><text class="major" transform="rotate(60 219.531943 487.019238)" x="219.53194263363756" y="487.01923788646684">-4.96</text></g><g class="guides"><path class="major guide line" d="M240.262060 0.000000 v472.019238" /><text class="major" transform="rotate(60 240.262060 487.019238)" x="240.2620599739244" y="487.01923788646684">-4.56</text></g><g class="guides"><path class="major guide line" d="M260.992177 0.000000 v472.019238" /><text class="major" transform="rotate(60 260.992177 487.019238)" x="260.99217731421123" y="487.01923788646684">-4.16</text></g><g class="guides"><path class="major guide line" d="M281.722295 0.000000 v472.019238" /><text class="major" transform="rotate(60 281.722295 487.019238)" x="281.722294654498" y="487.01923788646684">-3.76</text></g><g class="guides"><path class="major guide line" d="M302.452412 0.000000 v472.019238" /><text class="major" transform="rotate(60 302.452412 487.019238)" x="302.4524119947849" y="487.01923788646684">-3.36</text></g><g class="guides"><path class="major guide line" d="M323.182529 0.000000 v472.019238" /><text class="major" transform="rotate(60 323.182529 487.019238)" x="323.1825293350717" y="487.01923788646684">-2.96</text></g><g class="guides"><path class="major guide line" d="M343.912647 0.000000 v472.019238" /><text class="major" transform="rotate(60 343.912647 487.019238)" x="343.91264667535853" y="487.01923788646684">-2.56</text></g><g class="guides"><path class="major guide line" d="M364.642764 0.000000 v472.019238" /><text class="major" transform="rotate(60 364.642764 487.019238)" x="364.64276401564535" y="487.01923788646684">-2.16</text></g><g class="guides"><path class="major guide line" d="M385.372881 0.000000 v472.019238" /><text class="major" transform="rotate(60 385.372881 487.019238)" x="385.37288135593224" y="487.01923788646684">-1.76</text></g><g class="guides"><path class="major guide line" d="M406.102999 0.000000 v472.019238" /><text class="major" transform="rotate(60 406.102999 487.019238)" x="406.102998696219" y="487.01923788646684">-1.36</text></g><g class="guides"><path class="major guide line" d="M426.833116 0.000000 v472.019238" /><text class="major" transform="rotate(60 426.833116 487.019238)" x="426.8331160365058" y="487.01923788646684">-0.96</text></g><g class="guides"><path class="major guide line" d="M447.563233 0.000000 v472.019238" /><text class="major" transform="rotate(60 447.563233 487.019238)" x="447.56323337679265" y="487.01923788646684">-0.56</text></g><g class="guides"><path class="major guide line" d="M468.293351 0.000000 v472.019238" /><text class="major" transform="rotate(60 468.293351 487.019238)" x="468.29335071707953" y="487.01923788646684">-0.16</text></g><g class="guides"><path class="major guide line" d="M489.023468 0.000000 v472.019238" /><text class="major" transform="rotate(60 489.023468 487.019238)" x="489.02346805736636" y="487.01923788646684">0.24</text></g><g class="guides"><path class="major guide line" d="M509.753585 0.000000 v472.019238" /><text class="major" transform="rotate(60 509.753585 487.019238)" x="509.75358539765324" y="487.01923788646684">0.64</text></g><g class="guides"><path class="major guide line" d="M530.483703 0.000000 v472.019238" /><text class="major" transform="rotate(60 530.483703 487.019238)" x="530.48370273794" y="487.01923788646684">1.04</text></g><g class="guides"><path class="major guide line" d="M551.213820 0.000000 v472.019238" /><text class="major" transform="rotate(60 551.213820 487.019238)" x="551.213820078227" y="487.01923788646684">1.43</text></g><g class="guides"><path class="major guide line" d="M571.943937 0.000000 v472.019238" /><text class="major" transform="rotate(60 571.943937 487.019238)" x="571.9439374185138" y="487.01923788646684">1.83</text></g><g class="guides"><path class="major guide line" d="M592.674055 0.000000 v472.019238" /><text class="major" transform="rotate(60 592.674055 487.019238)" x="592.6740547588006" y="487.01923788646684">2.23</text></g><g class="guides"><path class="major guide line" d="M613.404172 0.000000 v472.019238" /><text class="major" transform="rotate(60 613.404172 487.019238)" x="613.4041720990874" y="487.01923788646684">2.63</text></g></g><g class="series serie-0 color-0"><path class="line reactive" d="M12.230769 462.941945 L12.230769 462.019456 22.595828 462.941945 32.960887 461.096967 43.325945 462.019456 53.691004 459.251988 64.056063 462.019456 74.421121 458.329499 84.786180 462.019456 95.151239 458.329499 105.516297 462.019456 115.881356 448.182119 126.246415 460.174477 136.611473 457.407010 146.976532 457.407010 157.341591 451.872075 167.706649 448.182119 178.071708 454.639543 188.436767 445.414651 198.801825 442.647184 209.166884 436.189760 219.531943 437.112249 229.897001 392.832771 240.262060 396.522728 250.627119 376.227967 260.992177 355.933206 271.357236 351.320760 281.722295 325.491065 292.087353 277.521630 302.452412 283.056565 312.817471 202.800010 323.182529 188.040184 333.547588 169.590402 343.912647 123.465945 354.277705 95.791271 364.642764 67.194108 375.007823 82.876423 385.372881 60.736684 395.737940 80.108956 406.102999 29.372054 416.468057 9.077293 426.833116 70.884065 437.198175 69.039086 447.563233 41.364413 457.928292 40.441923 468.293351 91.178826 478.658409 140.993239 489.023468 214.792369 499.388527 259.071847 509.753585 321.801108 520.118644 364.235608 530.483703 408.515086 540.848761 430.654825 551.213820 448.182119 561.578879 455.562032 571.943937 458.329499 582.308996 458.329499 592.674055 462.019456 603.039113 462.941945 613.404172 462.019456 623.769231 462.941945" /></g><g class="series serie-1 color-1"><path class="line reactive nofill" d="M12.230769 462.941899 L22.595828 462.941836 32.960887 462.941693 43.325945 462.941376 53.691004 462.940695 64.056063 462.939269 74.421121 462.936364 84.786180 462.930607 95.151239 462.919504 105.516297 462.898665 115.881356 462.860610 126.246415 462.792981 136.611473 462.676035 146.976532 462.479254 157.341591 462.157057 167.706649 461.643734 178.071708 460.847960 188.436767 459.647610 198.801825 457.885891 209.166884 455.370178 219.531943 451.875046 229.897001 447.150944 240.262060 440.939473 250.627119 432.995381 260.992177 423.114239 271.357236 411.163353 281.722295 397.112239 292.087353 381.058093 302.452412 363.241505 312.817471 344.048352 323.182529 323.995326 333.547588 303.698773 343.912647 283.829008 354.277705 265.054653 364.642764 247.983317 375.007823 233.105837 385.372881 220.751160 395.737940 211.057842 406.102999 203.966175 416.468057 199.232503 426.833116 196.464585 437.198175 195.174212 447.563233 194.841050 457.928292 194.980085 468.293351 195.204334 478.658409 195.274904 489.023468 195.131925 499.388527 194.902304 509.753585 194.883287 520.118644 195.503985 530.483703 197.269884 540.848761 200.697456 551.213820 206.247072 561.578879 214.262415 571.943937 224.923523 582.308996 238.218748 592.674055 253.938491 603.039113 271.690870 613.404172 290.936820 623.769231 311.039837" /></g><g class="series serie-2 color-2"><path class="line reactive nofill" d="M12.230769 462.941945 L22.595828 462.941945 32.960887 462.941945 43.325945 462.941945 53.691004 462.941945 64.056063 462.941945 74.421121 462.941945 84.786180 462.941945 95.151239 462.941945 105.516297 462.941945 115.881356 462.941944 126.246415 462.941944 136.611473 462.941942 146.976532 462.941937 157.341591 462.941926 167.706649 462.941900 178.071708 462.941837 188.436767 462.941695 198.801825 462.941382 209.166884 462.940708 219.531943 462.939295 229.897001 462.936418 240.262060 462.930713 250.627119 462.919706 260.992177 462.899041 271.357236 462.861287 281.722295 462.794170 292.087353 462.678066 302.452412 462.482632 312.817471 462.162528 323.182529 461.652358 333.547588 460.861201 343.912647 459.667420 354.277705 457.914800 364.642764 455.411376 375.007823 451.932497 385.372881 447.229573 395.737940 441.045542 406.102999 433.137257 416.468057 423.303860 426.833116 411.418856 437.198175 397.462388 447.563233 381.549299 457.928292 363.948368 468.293351 345.088671 478.658409 325.550395 489.023468 306.039352 499.388527 287.346676 509.753585 270.297141 520.118644 255.691057 530.483703 244.245425 540.848761 236.539966 551.213820 232.972991 561.578879 233.730938 571.943937 238.774083 582.308996 247.839593 592.674055 260.461647 603.039113 276.007025 613.404172 293.723173 623.769231 312.794478" /></g><g class="series serie-3 color-3"><path class="line reactive nofill" d="M12.230769 462.941899 L22.595828 462.941836 32.960887 462.941693 43.325945 462.941376 53.691004 462.940695 64.056063 462.939269 74.421121 462.936364 84.786180 462.930607 95.151239 462.919504 105.516297 462.898666 115.881356 462.860610 126.246415 462.792982 136.611473 462.676038 146.976532 462.479261 157.341591 462.157076 167.706649 461.643779 178.071708 460.848068 188.436767 459.647859 198.801825 457.886454 209.166884 455.371415 219.531943 451.877695 229.897001 447.156471 240.262060 440.950705 250.627119 433.017620 260.992177 423.157143 271.357236 411.244011 281.722295 397.260015 292.087353 381.321972 302.452412 363.700818 312.817471 344.827769 323.182529 325.284913 333.547588 305.779517 343.912647 287.103532 354.277705 270.081798 364.642764 255.513886 375.007823 244.115285 385.372881 236.463532 395.737940 232.954245 406.102999 233.770862 416.468057 238.870588 426.833116 247.987674 437.198175 260.653768 447.563233 276.233696 457.928292 293.973662 468.293351 313.057607 478.658409 332.666454 489.023468 352.034518 499.388527 370.497573 509.753585 387.528091 520.118644 402.754872 530.483703 415.966404 540.848761 427.099435 551.213820 436.216025 561.578879 443.473423 571.943937 449.091385 582.308996 453.321099 592.674055 456.418789 603.039113 458.625790 613.404172 460.155592 623.769231 461.187304" /></g><g class="series serie-4 color-4"><path class="line reactive nofill" d="M12.230769 462.941945 L22.595828 462.941945 32.960887 462.941945 43.325945 462.941945 53.691004 462.941945 64.056063 462.941945 74.421121 462.941945 84.786180 462.941945 95.151239 462.941945 105.516297 462.941945 115.881356 462.941944 126.246415 462.941944 136.611473 462.941942 146.976532 462.941938 157.341591 462.941928 167.706649 462.941904 178.071708 462.941849 188.436767 462.941724 198.801825 462.941452 209.166884 462.940872 219.531943 462.939671 229.897001 462.937254 240.262060 462.932526 250.627119 462.923538 260.992177 462.906931 271.357236 462.877114 281.722295 462.825103 292.087353 462.736973 302.452412 462.591948 312.817471 462.360229 323.182529 462.000848 333.547588 461.459990 343.912647 460.670450 354.277705 459.552995 364.642764 458.020470 375.007823 455.985266 385.372881 453.370331 395.737940 450.123214 406.102999 446.231752 416.468057 441.739082 426.833116 436.755043 437.198175 431.460814 447.563233 426.104192 457.928292 420.984163 468.293351 416.425286 478.658409 412.744560 489.023468 410.215285 499.388527 409.033597 509.753585 409.293346 520.118644 410.973786 530.483703 413.942308 540.848761 417.971727 551.213820 422.768996 561.578879 428.010301 571.943937 433.376737 582.308996 438.585190 592.674055 443.410493 603.039113 447.696988 613.404172 451.359654 623.769231 454.376709" /></g><g class="series serie-5 color-5"><path class="line reactive nofill" d="M12.230769 462.941945 L22.595828 462.941945 32.960887 462.941945 43.325945 462.941945 53.691004 462.941945 64.056063 462.941945 74.421121 462.941945 84.786180 462.941945 95.151239 462.941945 105.516297 462.941945 115.881356 462.941945 126.246415 462.941945 136.611473 462.941945 146.976532 462.941944 157.341591 462.941943 167.706649 462.941941 178.071708 462.941934 188.436767 462.941919 198.801825 462.941882 209.166884 462.941799 219.531943 462.941615 229.897001 462.941216 240.262060 462.940380 250.627119 462.938673 260.992177 462.935286 271.357236 462.928753 281.722295 462.916509 292.087353 462.894206 302.452412 462.854732 312.817471 462.786863 323.182529 462.673521 333.547588 462.489719 343.912647 462.200348 354.277705 461.758206 364.642764 461.102778 375.007823 460.160550 385.372881 458.847634 395.737940 457.075492 406.102999 454.760182 416.468057 451.834994 426.833116 448.265550 437.198175 444.065486 447.563233 439.310066 457.928292 434.144593 468.293351 428.784650 478.658409 423.506117 489.023468 418.624466 499.388527 414.464945 509.753585 411.327293 520.118644 409.450187 530.483703 408.981276 540.848761 409.957990 551.213820 412.302608 561.578879 415.832472 571.943937 420.283496 582.308996 425.342756 592.674055 430.684610 603.039113 436.004582 613.404172 441.046273 623.769231 445.618349" /></g><g class="series serie-6 color-6"><path class="line reactive nofill" d="M12.230769 462.941945 L22.595828 462.941945 32.960887 462.941945 43.325945 462.941945 53.691004 462.941945 64.056063 462.941945 74.421121 462.941945 84.786180 462.941945 95.151239 462.941945 105.516297 462.941945 115.881356 462.941945 126.246415 462.941945 136.611473 462.941945 146.976532 462.941945 157.341591 462.941945 167.706649 462.941944 178.071708 462.941944 188.436767 462.941942 198.801825 462.941938 209.166884 462.941928 219.531943 462.941904 229.897001 462.941849 240.262060 462.941725 250.627119 462.941454 260.992177 462.940875 271.357236 462.939678 281.722295 462.937269 292.087353 462.932555 302.452412 462.923592 312.817471 462.907030 323.182529 462.877290 333.547588 462.825405 343.912647 462.737479 354.277705 462.592770 364.642764 462.361523 375.007823 462.002827 385.372881 461.462928 395.737940 460.674677 406.102999 459.558890 416.468057 458.028434 426.833116 455.995680 437.198175 453.383497 447.563233 450.139291 457.928292 446.250680 468.293351 441.760525 478.658409 436.778346 489.023468 431.485004 499.388527 426.128023 509.753585 421.006208 520.118644 416.444075 530.483703 412.758735 540.848761 410.223766 551.213820 409.035715 561.578879 409.288933 571.943937 410.963193 582.308996 413.926361 592.674055 417.951623 603.039113 422.746150 613.404172 427.986187 623.769231 433.352731" /></g><g class="series serie-7 color-7"><path class="line reactive nofill" d="M12.230769 462.941945 L22.595828 462.941945 32.960887 462.941945 43.325945 462.941945 53.691004 462.941945 64.056063 462.941945 74.421121 462.941945 84.786180 462.941945 95.151239 462.941945 105.516297 462.941945 115.881356 462.941945 126.246415 462.941945 136.611473 462.941945 146.976532 462.941945 157.341591 462.941945 167.706649 462.941945 178.071708 462.941945 188.436767 462.941945 198.801825 462.941944 209.166884 462.941943 219.531943 462.941941 229.897001 462.941934 240.262060 462.941919 250.627119 462.941883 260.992177 462.941800 271.357236 462.941616 281.722295 462.941219 292.087353 462.940385 302.452412 462.938683 312.817471 462.935307 323.182529 462.928793 333.547588 462.916583 343.912647 462.894338 354.277705 462.854963 364.642764 462.787255 375.007823 462.674167 385.372881 462.490752 395.737940 462.201954 406.102999 461.760624 416.468057 461.106313 426.833116 460.165558 437.198175 458.854510 447.563233 457.084632 457.928292 454.771935 468.293351 451.849601 478.658409 448.283069 489.023468 444.085727 499.388527 439.332537 509.753585 434.168477 520.118644 428.808831 530.483703 423.529244 540.848761 418.645071 551.213820 414.481594 561.578879 411.338746 571.943937 409.455556 582.308996 408.980132 592.674055 409.950425 603.039113 412.289221 613.404172 415.814290 623.769231 420.261843" /></g><g class="series serie-8 color-8"><path class="line reactive nofill" d="M12.230769 462.941945 L22.595828 462.941945 32.960887 462.941945 43.325945 462.941945 53.691004 462.941945 64.056063 462.941945 74.421121 462.941945 84.786180 462.941945 95.151239 462.941945 105.516297 462.941945 115.881356 462.941945 126.246415 462.941945 136.611473 462.941945 146.976532 462.941945 157.341591 462.941945 167.706649 462.941945 178.071708 462.941945 188.436767 462.941945 198.801825 462.941945 209.166884 462.941945 219.531943 462.941944 229.897001 462.941944 240.262060 462.941942 250.627119 462.941938 260.992177 462.941928 271.357236 462.941905 281.722295 462.941850 292.087353 462.941726 302.452412 462.941455 312.817471 462.940879 323.182529 462.939686 333.547588 462.937284 343.912647 462.932584 354.277705 462.923647 364.642764 462.907129 375.007823 462.877465 385.372881 462.825707 395.737940 462.737984 406.102999 462.593589 416.468057 462.362815 426.833116 462.004803 437.198175 461.465861 447.563233 460.678898 457.928292 459.564777 468.293351 458.036389 478.658409 456.006082 489.023468 453.396650 499.388527 450.155354 509.753585 446.269596 520.118644 441.781957 530.483703 436.801642 540.848761 431.509192 551.213820 426.151858 561.578879 421.028265 571.943937 416.462881 582.308996 412.772934 592.674055 410.232275 603.039113 409.037864 613.404172 409.284549 623.769231 410.952626" /></g><g class="series serie-9 color-9"><path class="line reactive nofill" d="M12.230769 462.941945 L22.595828 462.941945 32.960887 462.941945 43.325945 462.941945 53.691004 462.941945 64.056063 462.941944 74.421121 462.941944 84.786180 462.941942 95.151239 462.941938 105.516297 462.941928 115.881356 462.941904 126.246415 462.941849 136.611473 462.941724 146.976532 462.941450 157.341591 462.940868 167.706649 462.939663 178.071708 462.937239 188.436767 462.932497 198.801825 462.923484 209.166884 462.906831 219.531943 462.876938 229.897001 462.824800 240.262060 462.736467 250.627119 462.591125 260.992177 462.358932 271.357236 461.998864 281.722295 461.457048 292.087353 460.666216 302.452412 459.547090 312.817471 458.012495 323.182529 455.974841 333.547588 453.357152 343.912647 450.107124 354.277705 446.212811 364.642764 441.717630 375.007823 436.731735 385.372881 431.436623 395.737940 426.080366 406.102999 420.962129 416.468057 416.406515 426.833116 412.730408 437.198175 410.206831 447.563233 409.031507 457.928292 409.297789 468.293351 410.984406 478.658409 413.958276 489.023468 417.991846 499.388527 422.791850 509.753585 428.034417 520.118644 433.400740 530.483703 438.607922 540.848761 443.431094 551.213820 447.714919 561.578879 451.374683 571.943937 454.388863 582.308996 456.786048 592.674055 458.629371 603.039113 460.001193 613.404172 460.990048 623.769231 461.680896" /></g><g class="series serie-10 color-10"><path class="line reactive nofill" d="M12.230769 462.941945 L22.595828 462.941945 32.960887 462.941945 43.325945 462.941944 53.691004 462.941943 64.056063 462.941941 74.421121 462.941934 84.786180 462.941919 95.151239 462.941882 105.516297 462.941798 115.881356 462.941612 126.246415 462.941211 136.611473 462.940369 146.976532 462.938651 157.341591 462.935244 167.706649 462.928674 178.071708 462.916361 188.436767 462.893940 198.801825 462.854268 209.166884 462.786076 219.531943 462.672225 229.897001 462.487645 240.262060 462.197129 250.627119 461.753355 260.992177 461.095691 271.357236 460.150511 281.722295 458.833855 292.087353 457.057181 302.452412 454.736638 312.817471 451.805740 323.182529 448.230472 333.547588 444.024970 343.912647 439.265100 354.277705 434.096812 364.642764 428.736293 375.007823 423.459888 385.372881 418.583300 395.737940 414.431711 406.102999 411.304464 416.468057 409.439537 426.833116 408.983653 437.198175 409.973204 447.563233 412.329455 457.928292 415.868894 468.293351 420.326838 478.658409 425.390089 489.023468 430.733050 499.388527 436.051571 509.753585 441.089782 520.118644 445.656975 530.483703 449.633742 540.848761 452.968463 551.213820 455.666647 561.578879 457.776219 571.943937 459.371778 582.308996 460.540226 592.674055 461.369293 603.039113 461.939595 613.404172 462.320099 623.769231 462.566433" /></g><g class="series serie-11 color-11"><path class="line reactive nofill" d="M12.230769 462.941944 L22.595828 462.941944 32.960887 462.941942 43.325945 462.941938 53.691004 462.941928 64.056063 462.941904 74.421121 462.941848 84.786180 462.941723 95.151239 462.941448 105.516297 462.940864 115.881356 462.939655 126.246415 462.937224 136.611473 462.932468 146.976532 462.923429 157.341591 462.906732 167.706649 462.876761 178.071708 462.824496 188.436767 462.735959 198.801825 462.590301 209.166884 462.357633 219.531943 461.996877 229.897001 461.454100 240.262060 460.661976 250.627119 459.541178 260.992177 458.004510 271.357236 455.964404 281.722295 453.343960 292.087353 450.091021 302.452412 446.193859 312.817471 441.696167 323.182529 436.708419 333.547588 431.412430 343.912647 426.056545 354.277705 420.940106 364.642764 416.387762 375.007823 412.716280 385.372881 410.198405 395.737940 409.029447 406.102999 409.302260 416.468057 410.995052 426.833116 413.974265 437.198175 418.011981 447.563233 422.814713 457.928292 428.058535 468.293351 433.424739 478.658409 438.630647 489.023468 443.451684 499.388527 447.732837 509.753585 451.389699 520.118644 454.401004 530.483703 456.795534 540.848761 458.636540 551.213820 460.006438 561.578879 460.993766 571.943937 461.683451 582.308996 462.150629 592.674055 462.457633 603.039113 462.653424 613.404172 462.774641 623.769231 462.847515" /></g><g class="series serie-12 color-12"><path class="line reactive nofill" d="M12.230769 462.941941 L22.595828 462.941934 32.960887 462.941918 43.325945 462.941882 53.691004 462.941798 64.056063 462.941611 74.421121 462.941209 84.786180 462.940364 95.151239 462.938641 105.516297 462.935223 115.881356 462.928633 126.246415 462.916287 136.611473 462.893807 146.976532 462.854035 157.341591 462.785681 167.706649 462.671574 178.071708 462.486605 188.436767 462.195514 198.801825 461.750924 209.166884 461.092139 219.531943 460.145480 229.897001 458.826952 240.262060 457.048008 250.627119 454.724847 260.992177 451.791094 271.357236 448.212914 281.722295 444.004695 292.087353 439.242605 302.452412 434.072915 312.817471 428.712118 323.182529 423.436785 333.547588 418.562739 343.912647 414.415126 354.277705 411.293088 364.642764 409.434255 375.007823 408.984886 385.372881 409.980852 395.737940 412.342915 406.102999 415.887133 416.468057 420.348528 426.833116 425.413764 437.198175 430.757269 447.563233 436.075058 457.928292 441.111521 468.293351 445.676270 478.658409 449.650214 489.023468 452.982018 499.388527 455.677418 509.753585 457.784494 520.118644 459.377931 530.483703 460.544656 540.848761 461.372385 551.213820 461.941687 561.578879 462.321472 571.943937 462.567308 582.308996 462.721767 592.674055 462.815990 603.039113 462.871810 613.404172 462.903932 623.769231 462.921891" /></g><g class="series serie-13 color-13"><path class="line reactive nofill" d="M12.230769 462.941904 L22.595828 462.941848 32.960887 462.941722 43.325945 462.941447 53.691004 462.940860 64.056063 462.939648 74.421121 462.937208 84.786180 462.932439 95.151239 462.923374 105.516297 462.906632 115.881356 462.876584 126.246415 462.824191 136.611473 462.735449 146.976532 462.589474 157.341591 462.356331 167.706649 461.994886 178.071708 461.451147 188.436767 460.657728 198.801825 459.535257 209.166884 457.996515 219.531943 455.953954 229.897001 453.330755 240.262060 450.074905 250.627119 446.174894 260.992177 441.674695 271.357236 436.685098 281.722295 431.388237 292.087353 426.032728 302.452412 420.918095 312.817471 416.369028 323.182529 412.702175 333.547588 410.190006 343.912647 409.027417 354.277705 409.306760 364.642764 411.005724 375.007823 413.990276 385.372881 418.032132 395.737940 422.837585 406.102999 428.082657 416.468057 433.448735 426.833116 438.653363 437.198175 443.472263 447.563233 447.750742 457.928292 451.404702 468.293351 454.413133 478.658409 456.805009 489.023468 458.643699 499.388527 460.011676 509.753585 460.997479 520.118644 461.686002 530.483703 462.152329 540.848761 462.458732 551.213820 462.654114 561.578879 462.775061 571.943937 462.847763 582.308996 462.890209 592.674055 462.914282 603.039113 462.927547 613.404172 462.934651 623.769231 462.938348" /></g></g><g class="titles"><text class="title plot_title" x="400.0" y="26">Iteration #0</text><text class="title" x="462.0" y="580.0">Observation</text><text class="title" transform="rotate(-90 64.000000 282.009619)" x="64.0" y="308.0096189432334">Density</text></g><g class="plot overlay" transform="translate(144, 46)"><g class="series serie-0 color-0" /><g class="series serie-1 color-1" /><g class="series serie-2 color-2" /><g class="series serie-3 color-3" /><g class="series serie-4 color-4" /><g class="series serie-5 color-5" /><g class="series serie-6 color-6" /><g class="series serie-7 color-7" /><g class="series serie-8 color-8" /><g class="series serie-9 color-9" /><g class="series serie-10 color-10" /><g class="series serie-11 color-11" /><g class="series serie-12 color-12" /><g class="series serie-13 color-13" /></g><g class="plot text-overlay" transform="translate(144, 46)"><g class="series serie-0 color-0" /><g class="series serie-1 color-1" /><g class="series serie-2 color-2" /><g class="series serie-3 color-3" /><g class="series serie-4 color-4" /><g class="series serie-5 color-5" /><g class="series serie-6 color-6" /><g class="series serie-7 color-7" /><g class="series serie-8 color-8" /><g class="series serie-9 color-9" /><g class="series serie-10 color-10" /><g class="series serie-11 color-11" /><g class="series serie-12 color-12" /><g class="series serie-13 color-13" /></g><g class="plot tooltip-overlay" transform="translate(144, 46)"><g class="tooltip" style="opacity: 0" transform="translate(0 0)"><rect class="tooltip-box" height="0" rx="0" ry="0" width="0" /><g class="text" /></g></g><g class="legends" transform="translate(10, 56)"><g class="legend reactive activate-serie" id="activate-serie-0"><rect class="color-0 reactive" height="12" width="12" x="0.0" y="0.0" /><text x="17.0" y="9.0">Data</text></g><g class="legend reactive activate-serie" id="activate-serie-1"><rect class="color-1 reactive" height="12" width="12" x="0.0" y="18.0" /><text x="17.0" y="27.0">GMM</text></g><g class="legend reactive activate-serie" id="activate-serie-2"><rect class="color-2 reactive" height="12" width="12" x="0.0" y="36.0" /><text x="17.0" y="45.0">i=0</text></g><g class="legend reactive activate-serie" id="activate-serie-3"><rect class="color-3 reactive" height="12" width="12" x="0.0" y="54.0" /><text x="17.0" y="63.0">i=1</text></g><g class="legend reactive activate-serie" id="activate-serie-4"><rect class="color-4 reactive" height="12" width="12" x="0.0" y="72.0" /><text x="17.0" y="81.0">i=0 k=0</text></g><g class="legend reactive activate-serie" id="activate-serie-5"><rect class="color-5 reactive" height="12" width="12" x="0.0" y="90.0" /><text x="17.0" y="99.0">i=0 k=1</text></g><g class="legend reactive activate-serie" id="activate-serie-6"><rect class="color-6 reactive" height="12" width="12" x="0.0" y="108.0" /><text x="17.0" y="117.0">i=0 k=2</text></g><g class="legend reactive activate-serie" id="activate-serie-7"><rect class="color-7 reactive" height="12" width="12" x="0.0" y="126.0" /><text x="17.0" y="135.0">i=0 k=3</text></g><g class="legend reactive activate-serie" id="activate-serie-8"><rect class="color-8 reactive" height="12" width="12" x="0.0" y="144.0" /><text x="17.0" y="153.0">i=0 k=4</text></g><g class="legend reactive activate-serie" id="activate-serie-9"><rect class="color-9 reactive" height="12" width="12" x="0.0" y="162.0" /><text x="17.0" y="171.0">i=1 k=0</text></g><g class="legend reactive activate-serie" id="activate-serie-10"><rect class="color-10 reactive" height="12" width="12" x="0.0" y="180.0" /><text x="17.0" y="189.0">i=1 k=1</text></g><g class="legend reactive activate-serie" id="activate-serie-11"><rect class="color-11 reactive" height="12" width="12" x="0.0" y="198.0" /><text x="17.0" y="207.0">i=1 k=2</text></g><g class="legend reactive activate-serie" id="activate-serie-12"><rect class="color-12 reactive" height="12" width="12" x="0.0" y="216.0" /><text x="17.0" y="225.0">i=1 k=3</text></g><g class="legend reactive activate-serie" id="activate-serie-13"><rect class="color-13 reactive" height="12" width="12" x="0.0" y="234.0" /><text x="17.0" y="243.0">i=1 k=4</text></g></g><g class="legends" transform="translate(790, 56)" /></g></svg>