<?xml version='1.0' encoding='utf-8'?>
<svg xmlns:xlink="http://www.w3.org/1999/xlink" class="pygal-chart" id="chart-7b54dc09-1951-4db5-bfed-c3df60028fc9" viewBox="0 0 800 600" xmlns="http://www.w3.org/2000/svg"><!--Generated with pygal 2.4.0 (etree) ©Kozea 2012-2016 on 2018-01-18--><!--http://pygal.org--><!--http://github.com/Kozea/pygal--><defs><style type="text/css">#chart-7b54dc09-1951-4db5-bfed-c3df60028fc9{-webkit-user-select:none;-webkit-font-smoothing:antialiased;font-family:Consolas,"Liberation Mono",Menlo,Courier,monospace}#chart-7b54dc09-1951-4db5-bfed-c3df60028fc9 .title{font-family:Consolas,"Liberation Mono",Menlo,Courier,monospace;font-size:16px}#chart-7b54dc09-1951-4db5-bfed-c3df60028fc9 .legends .legend text{font-family:Consolas,"Liberation Mono",Menlo,Courier,monospace;font-size:10px}#chart-7b54dc09-1951-4db5-bfed-c3df60028fc9 .axis text{font-family:Consolas,"Liberation Mono",Menlo,Courier,monospace;font-size:10px}#chart-7b54dc09-1951-4db5-bfed-c3df60028fc9 .axis text.major{font-family:Consolas,"Liberation Mono",Menlo,Courier,monospace;font-size:10px}#chart-7b54dc09-1951-4db5-bfed-c3df60028fc9 .text-overlay text.value{font-family:Consolas,"Liberation Mono",Menlo,Courier,monospace;font-size:16px}#chart-7b54dc09-1951-4db5-bfed-c3df60028fc9 .text-overlay text.label{font-family:Consolas,"Liberation Mono",Menlo,Courier,monospace;font-size:10px}#chart-7b54dc09-1951-4db5-bfed-c3df60028fc9 .tooltip{font-family:Consolas,"Liberation Mono",Menlo,Courier,monospace;font-size:14px}#chart-7b54dc09-1951-4db5-bfed-c3df60028fc9 text.no_data{font-family:Consolas,"Liberation Mono",Menlo,Courier,monospace;font-size:64px}
#chart-7b54dc09-1951-4db5-bfed-c3df60028fc9{background-color:rgba(249,249,249,1)}#chart-7b54dc09-1951-4db5-bfed-c3df60028fc9 path,#chart-7b54dc09-1951-4db5-bfed-c3df60028fc9 line,#chart-7b54dc09-1951-4db5-bfed-c3df60028fc9 rect,#chart-7b54dc09-1951-4db5-bfed-c3df60028fc9 circle{-webkit-transition:150ms;-moz-transition:150ms;transition:150ms}#chart-7b54dc09-1951-4db5-bfed-c3df60028fc9 .graph &gt; .background{fill:rgba(249,249,249,1)}#chart-7b54dc09-1951-4db5-bfed-c3df60028fc9 .plot &gt; .background{fill:rgba(255,255,255,1)}#chart-7b54dc09-1951-4db5-bfed-c3df60028fc9 .graph{fill:rgba(0,0,0,.87)}#chart-7b54dc09-1951-4db5-bfed-c3df60028fc9 text.no_data{fill:rgba(0,0,0,1)}#chart-7b54dc09-1951-4db5-bfed-c3df60028fc9 .title{fill:rgba(0,0,0,1)}#chart-7b54dc09-1951-4db5-bfed-c3df60028fc9 .legends .legend text{fill:rgba(0,0,0,.87)}#chart-7b54dc09-1951-4db5-bfed-c3df60028fc9 .legends .legend:hover text{fill:rgba(0,0,0,1)}#chart-7b54dc09-1951-4db5-bfed-c3df60028fc9 .axis .line{stroke:rgba(0,0,0,1)}#chart-7b54dc09-1951-4db5-bfed-c3df60028fc9 .axis .guide.line{stroke:rgba(0,0,0,.54)}#chart-7b54dc09-1951-4db5-bfed-c3df60028fc9 .axis .major.line{stroke:rgba(0,0,0,.87)}#chart-7b54dc09-1951-4db5-bfed-c3df60028fc9 .axis text.major{fill:rgba(0,0,0,1)}#chart-7b54dc09-1951-4db5-bfed-c3df60028fc9 .axis.y .guides:hover .guide.line,#chart-7b54dc09-1951-4db5-bfed-c3df60028fc9 .line-graph .axis.x .guides:hover .guide.line,#chart-7b54dc09-1951-4db5-bfed-c3df60028fc9 .stackedline-graph .axis.x .guides:hover .guide.line,#chart-7b54dc09-1951-4db5-bfed-c3df60028fc9 .xy-graph .axis.x .guides:hover .guide.line{stroke:rgba(0,0,0,1)}#chart-7b54dc09-1951-4db5-bfed-c3df60028fc9 .axis .guides:hover text{fill:rgba(0,0,0,1)}#chart-7b54dc09-1951-4db5-bfed-c3df60028fc9 .reactive{fill-opacity:.7;stroke-opacity:.8}#chart-7b54dc09-1951-4db5-bfed-c3df60028fc9 .ci{stroke:rgba(0,0,0,.87)}#chart-7b54dc09-1951-4db5-bfed-c3df60028fc9 .reactive.active,#chart-7b54dc09-1951-4db5-bfed-c3df60028fc9 .active .reactive{fill-opacity:.8;stroke-opacity:.9;stroke-width:4}#chart-7b54dc09-1951-4db5-bfed-c3df60028fc9 .ci .reactive.active{stroke-width:1.5}#chart-7b54dc09-1951-4db5-bfed-c3df60028fc9 .series text{fill:rgba(0,0,0,1)}#chart-7b54dc09-1951-4db5-bfed-c3df60028fc9 .tooltip rect{fill:rgba(255,255,255,1);stroke:rgba(0,0,0,1);-webkit-transition:opacity 150ms;-moz-transition:opacity 150ms;transition:opacity 150ms}#chart-7b54dc09-1951-4db5-bfed-c3df60028fc9 .tooltip .label{fill:rgba(0,0,0,.87)}#chart-7b54dc09-1951-4db5-bfed-c3df60028fc9 .tooltip .label{fill:rgba(0,0,0,.87)}#chart-7b54dc09-1951-4db5-bfed-c3df60028fc9 .tooltip .legend{font-size:.8em;fill:rgba(0,0,0,.54)}#chart-7b54dc09-1951-4db5-bfed-c3df60028fc9 .tooltip .x_label{font-size:.6em;fill:rgba(0,0,0,1)}#chart-7b54dc09-1951-4db5-bfed-c3df60028fc9 .tooltip .xlink{font-size:.5em;text-decoration:underline}#chart-7b54dc09-1951-4db5-bfed-c3df60028fc9 .tooltip .value{font-size:1.5em}#chart-7b54dc09-1951-4db5-bfed-c3df60028fc9 .bound{font-size:.5em}#chart-7b54dc09-1951-4db5-bfed-c3df60028fc9 .max-value{font-size:.75em;fill:rgba(0,0,0,.54)}#chart-7b54dc09-1951-4db5-bfed-c3df60028fc9 .map-element{fill:rgba(255,255,255,1);stroke:rgba(0,0,0,.54) !important}#chart-7b54dc09-1951-4db5-bfed-c3df60028fc9 .map-element .reactive{fill-opacity:inherit;stroke-opacity:inherit}#chart-7b54dc09-1951-4db5-bfed-c3df60028fc9 .color-0,#chart-7b54dc09-1951-4db5-bfed-c3df60028fc9 .color-0 a:visited{stroke:#909090;fill:#909090}#chart-7b54dc09-1951-4db5-bfed-c3df60028fc9 .color-1,#chart-7b54dc09-1951-4db5-bfed-c3df60028fc9 .color-1 a:visited{stroke:#000000;fill:#000000}#chart-7b54dc09-1951-4db5-bfed-c3df60028fc9 .color-2,#chart-7b54dc09-1951-4db5-bfed-c3df60028fc9 .color-2 a:visited{stroke:#ff0500;fill:#ff0500}#chart-7b54dc09-1951-4db5-bfed-c3df60028fc9 .color-3,#chart-7b54dc09-1951-4db5-bfed-c3df60028fc9 .color-3 a:visited{stroke:#323299;fill:#323299}#chart-7b54dc09-1951-4db5-bfed-c3df60028fc9 .color-4,#chart-7b54dc09-1951-4db5-bfed-c3df60028fc9 .color-4 a:visited{stroke:#a3413f;fill:#a3413f}#chart-7b54dc09-1951-4db5-bfed-c3df60028fc9 .color-5,#chart-7b54dc09-1951-4db5-bfed-c3df60028fc9 .color-5 a:visited{stroke:#a3413f;fill:#a3413f}#chart-7b54dc09-1951-4db5-bfed-c3df60028fc9 .color-6,#chart-7b54dc09-1951-4db5-bfed-c3df60028fc9 .color-6 a:visited{stroke:#a3413f;fill:#a3413f}#chart-7b54dc09-1951-4db5-bfed-c3df60028fc9 .color-7,#chart-7b54dc09-1951-4db5-bfed-c3df60028fc9 .color-7 a:visited{stroke:#a3413f;fill:#a3413f}#chart-7b54dc09-1951-4db5-bfed-c3df60028fc9 .color-8,#chart-7b54dc09-1951-4db5-bfed-c3df60028fc9 .color-8 a:visited{stroke:#a3413f;fill:#a3413f}#chart-7b54dc09-1951-4db5-bfed-c3df60028fc9 .color-9,#chart-7b54dc09-1951-4db5-bfed-c3df60028fc9 .color-9 a:visited{stroke:#657fff;fill:#657fff}#chart-7b54dc09-1951-4db5-bfed-c3df60028fc9 .color-10,#chart-7b54dc09-1951-4db5-bfed-c3df60028fc9 .color-10 a:visited{stroke:#657fff;fill:#657fff}#chart-7b54dc09-1951-4db5-bfed-c3df60028fc9 .color-11,#chart-7b54dc09-1951-4db5-bfed-c3df60028fc9 .color-11 a:visited{stroke:#657fff;fill:#657fff}#chart-7b54dc09-1951-4db5-bfed-c3df60028fc9 .color-12,#chart-7b54dc09-1951-4db5-bfed-c3df60028fc9 .color-12 a:visited{stroke:#657fff;fill:#657fff}#chart-7b54dc09-1951-4db5-bfed-c3df60028fc9 .color-13,#chart-7b54dc09-1951-4db5-bfed-c3df60028fc9 .color-13 a:visited{stroke:#657fff;fill:#657fff}#chart-7b54dc09-1951-4db5-bfed-c3df60028fc9 .text-overlay .color-0 text{fill:black}#chart-7b54dc09-1951-4db5-bfed-c3df60028fc9 .text-overlay .color-1 text{fill:white}#chart-7b54dc09-1951-4db5-bfed-c3df60028fc9 .text-overlay .color-2 text{fill:black}#chart-7b54dc09-1951-4db5-bfed-c3df60028fc9 .text-overlay .color-3 text{fill:black}#chart-7b54dc09-1951-4db5-bfed-c3df60028fc9 .text-overlay .color-4 text{fill:black}#chart-7b54dc09-1951-4db5-bfed-c3df60028fc9 .text-overlay .color-5 text{fill:black}#chart-7b54dc09-1951-4db5-bfed-c3df60028fc9 .text-overlay .color-6 text{fill:black}#chart-7b54dc09-1951-4db5-bfed-c3df60028fc9 .text-overlay .color-7 text{fill:black}#chart-7b54dc09-1951-4db5-bfed-c3df60028fc9 .text-overlay .color-8 text{fill:black}#chart-7b54dc09-1951-4db5-bfed-c3df60028fc9 .text-overlay .color-9 text{fill:black}#chart-7b54dc09-1951-4db5-bfed-c3df60028fc9 .text-overlay .color-10 text{fill:black}#chart-7b54dc09-1951-4db5-bfed-c3df60028fc9 .text-overlay .color-11 text{fill:black}#chart-7b54dc09-1951-4db5-bfed-c3df60028fc9 .text-overlay .color-12 text{fill:black}#chart-7b54dc09-1951-4db5-bfed-c3df60028fc9 .text-overlay .color-13 text{fill:black}#chart-7b54dc09-1951-4db5-bfed-c3df60028fc9 .series.serie-1{stroke-width:5}#chart-7b54dc09-1951-4db5-bfed-c3df60028fc9 .series.serie-2{stroke-width:3}#chart-7b54dc09-1951-4db5-bfed-c3df60028fc9 .series.serie-3{stroke-width:3}#chart-7b54dc09-1951-4db5-bfed-c3df60028fc9 .series.serie-4{stroke-width:2;stroke-dasharray:2,2}#chart-7b54dc09-1951-4db5-bfed-c3df60028fc9 .series.serie-5{stroke-width:2;stroke-dasharray:2,2}#chart-7b54dc09-1951-4db5-bfed-c3df60028fc9 .series.serie-6{stroke-width:2;stroke-dasharray:2,2}#chart-7b54dc09-1951-4db5-bfed-c3df60028fc9 .series.serie-7{stroke-width:2;stroke-dasharray:2,2}#chart-7b54dc09-1951-4db5-bfed-c3df60028fc9 .series.serie-8{stroke-width:2;stroke-dasharray:2,2}#chart-7b54dc09-1951-4db5-bfed-c3df60028fc9 .series.serie-9{stroke-width:2;stroke-dasharray:2,2}#chart-7b54dc09-1951-4db5-bfed-c3df60028fc9 .series.serie-10{stroke-width:2;stroke-dasharray:2,2}#chart-7b54dc09-1951-4db5-bfed-c3df60028fc9 .series.serie-11{stroke-width:2;stroke-dasharray:2,2}#chart-7b54dc09-1951-4db5-bfed-c3df60028fc9 .series.serie-12{stroke-width:2;stroke-dasharray:2,2}#chart-7b54dc09-1951-4db5-bfed-c3df60028fc9 .series.serie-13{stroke-width:2;stroke-dasharray:2,2}
#chart-7b54dc09-1951-4db5-bfed-c3df60028fc9 text.no_data{text-anchor:middle}#chart-7b54dc09-1951-4db5-bfed-c3df60028fc9 .guide.line{fill:none}#chart-7b54dc09-1951-4db5-bfed-c3df60028fc9 .centered{text-anchor:middle}#chart-7b54dc09-1951-4db5-bfed-c3df60028fc9 .title{text-anchor:middle}#chart-7b54dc09-1951-4db5-bfed-c3df60028fc9 .legends .legend text{fill-opacity:1}#chart-7b54dc09-1951-4db5-bfed-c3df60028fc9 .axis.x text{text-anchor:middle}#chart-7b54dc09-1951-4db5-bfed-c3df60028fc9 .axis.x:not(.web) text[transform]{text-anchor:start}#chart-7b54dc09-1951-4db5-bfed-c3df60028fc9 .axis.x:not(.web) text[transform].backwards{text-anchor:end}#chart-7b54dc09-1951-4db5-bfed-c3df60028fc9 .axis.y text{text-anchor:end}#chart-7b54dc09-1951-4db5-bfed-c3df60028fc9 .axis.y text[transform].backwards{text-anchor:start}#chart-7b54dc09-1951-4db5-bfed-c3df60028fc9 .axis.y2 text{text-anchor:start}#chart-7b54dc09-1951-4db5-bfed-c3df60028fc9 .axis.y2 text[transform].backwards{text-anchor:end}#chart-7b54dc09-1951-4db5-bfed-c3df60028fc9 .axis .guide.line{stroke-dasharray:4,4}#chart-7b54dc09-1951-4db5-bfed-c3df60028fc9 .axis .major.guide.line{stroke-dasharray:6,6}#chart-7b54dc09-1951-4db5-bfed-c3df60028fc9 .horizontal .axis.y .guide.line,#chart-7b54dc09-1951-4db5-bfed-c3df60028fc9 .horizontal .axis.y2 .guide.line,#chart-7b54dc09-1951-4db5-bfed-c3df60028fc9 .vertical .axis.x .guide.line{opacity:0}#chart-7b54dc09-1951-4db5-bfed-c3df60028fc9 .horizontal .axis.always_show .guide.line,#chart-7b54dc09-1951-4db5-bfed-c3df60028fc9 .vertical .axis.always_show .guide.line{opacity:1 !important}#chart-7b54dc09-1951-4db5-bfed-c3df60028fc9 .axis.y .guides:hover .guide.line,#chart-7b54dc09-1951-4db5-bfed-c3df60028fc9 .axis.y2 .guides:hover .guide.line,#chart-7b54dc09-1951-4db5-bfed-c3df60028fc9 .axis.x .guides:hover .guide.line{opacity:1}#chart-7b54dc09-1951-4db5-bfed-c3df60028fc9 .axis .guides:hover text{opacity:1}#chart-7b54dc09-1951-4db5-bfed-c3df60028fc9 .nofill{fill:none}#chart-7b54dc09-1951-4db5-bfed-c3df60028fc9 .subtle-fill{fill-opacity:.2}#chart-7b54dc09-1951-4db5-bfed-c3df60028fc9 .dot{stroke-width:1px;fill-opacity:1}#chart-7b54dc09-1951-4db5-bfed-c3df60028fc9 .dot.active{stroke-width:5px}#chart-7b54dc09-1951-4db5-bfed-c3df60028fc9 .dot.negative{fill:transparent}#chart-7b54dc09-1951-4db5-bfed-c3df60028fc9 text,#chart-7b54dc09-1951-4db5-bfed-c3df60028fc9 tspan{stroke:none !important}#chart-7b54dc09-1951-4db5-bfed-c3df60028fc9 .series text.active{opacity:1}#chart-7b54dc09-1951-4db5-bfed-c3df60028fc9 .tooltip rect{fill-opacity:.95;stroke-width:.5}#chart-7b54dc09-1951-4db5-bfed-c3df60028fc9 .tooltip text{fill-opacity:1}#chart-7b54dc09-1951-4db5-bfed-c3df60028fc9 .showable{visibility:hidden}#chart-7b54dc09-1951-4db5-bfed-c3df60028fc9 .showable.shown{visibility:visible}#chart-7b54dc09-1951-4db5-bfed-c3df60028fc9 .gauge-background{fill:rgba(229,229,229,1);stroke:none}#chart-7b54dc09-1951-4db5-bfed-c3df60028fc9 .bg-lines{stroke:rgba(249,249,249,1);stroke-width:2px}</style><script type="text/javascript">window.pygal = window.pygal || {};window.pygal.config = window.pygal.config || {};window.pygal.config['7b54dc09-1951-4db5-bfed-c3df60028fc9'] = {"allow_interruptions": false, "x_label_rotation": 60, "y_title": "Density", "stack_from_top": false, "stroke": true, "include_x_axis": false, "defs": [], "truncate_label": null, "legend_at_bottom_columns": null, "show_minor_y_labels": true, "show_x_labels": true, "tooltip_fancy_mode": true, "show_legend": true, "print_labels": false, "disable_xml_declaration": false, "secondary_range": null, "x_labels": ["-8.96", "-8.76", "-8.56", "-8.36", "-8.16", "-7.96", "-7.76", "-7.56", "-7.36", "-7.16", "-6.96", "-6.76", "-6.56", "-6.36", "-6.16", "-5.96", "-5.76", "-5.56", "-5.36", "-5.16", "-4.96", "-4.76", "-4.56", "-4.36", "-4.16", "-3.96", "-3.76", "-3.56", "-3.36", "-3.16", "-2.96", "-2.76", "-2.56", "-2.36", "-2.16", "-1.96", "-1.76", "-1.56", "-1.36", "-1.16", "-0.96", "-0.76", "-0.56", "-0.36", "-0.16", "0.04", "0.24", "0.44", "0.64", "0.84", "1.04", "1.24", "1.43", "1.63", "1.83", "2.03", "2.23", "2.43", "2.63", "2.83"], "interpolation_precision": 250, "force_uri_protocol": "https", "classes": ["pygal-chart"], "css": ["file://style.css", "file://graph.css"], "margin": 20, "style": {"opacity_hover": ".8", "foreground": "rgba(0, 0, 0, .87)", "foreground_subtle": "rgba(0, 0, 0, .54)", "value_colors": [], "legend_font_family": "Consolas, \"Liberation Mono\", Menlo, Courier, monospace", "tooltip_font_family": "Consolas, \"Liberation Mono\", Menlo, Courier, monospace", "stroke_opacity_hover": ".9", "no_data_font_size": 64, "guide_stroke_dasharray": "4,4", "title_font_family": "Consolas, \"Liberation Mono\", Menlo, Courier, monospace", "label_font_family": "Consolas, \"Liberation Mono\", Menlo, Courier, monospace", "ci_colors": [], "background": "rgba(249, 249, 249, 1)", "colors": ["#909090", "#000000", "#ff0500", "#323299", "#a3413f", "#a3413f", "#a3413f", "#a3413f", "#a3413f", "#657fff", "#657fff", "#657fff", "#657fff", "#657fff"], "value_font_family": "Consolas, \"Liberation Mono\", Menlo, Courier, monospace", "font_family": "Consolas, \"Liberation Mono\", Menlo, Courier, monospace", "value_background": "rgba(229, 229, 229, 1)", "stroke_opacity": ".8", "title_font_size": 16, "no_data_font_family": "Consolas, \"Liberation Mono\", Menlo, Courier, monospace", "label_font_size": 10, "major_guide_stroke_dasharray": "6,6", "major_label_font_size": 10, "transition": "150ms", "opacity": ".7", "legend_font_size": 10, "value_label_font_family": "Consolas, \"Liberation Mono\", Menlo, Courier, monospace", "major_label_font_family": "Consolas, \"Liberation Mono\", Menlo, Courier, monospace", "plot_background": "rgba(255, 255, 255, 1)", "value_label_font_size": 10, "foreground_strong": "rgba(0, 0, 0, 1)", "tooltip_font_size": 14, "value_font_size": 16}, "order_min": null, "interpolation_parameters": {}, "show_dots": false, "y_labels_major": null, "box_mode": "extremes", "fill": false, "show_minor_x_labels": false, "js": ["//kozea.github.io/pygal.js/2.0.x/pygal-tooltips.min.js"], "explicit_size": false, "formatter": null, "x_labels_major": null, "legends": ["Data", "GMM", "i=0", "i=1", "i=0 k=0", "i=0 k=1", "i=0 k=2", "i=0 k=3", "i=0 k=4", "i=1 k=0", "i=1 k=1", "i=1 k=2", "i=1 k=3", "i=1 k=4"], "zero": 0, "strict": false, "print_values": false, "margin_bottom": null, "dynamic_print_values": false, "print_zeroes": true, "logarithmic": false, "x_labels_major_count": null, "margin_left": null, "legend_box_size": 12, "max_scale": 16, "dots_size": 2.5, "show_y_guides": true, "truncate_legend": null, "interpolate": null, "y_labels_major_every": null, "legend_at_bottom": false, "inner_radius": 0, "tooltip_border_radius": 0, "show_x_guides": false, "x_labels_major_every": 2, "show_y_labels": true, "pretty_print": false, "rounded_bars": null, "missing_value_fill_truncation": "x", "y_label_rotation": 0, "height": 600, "show_only_major_dots": false, "spacing": 10, "inverse_y_axis": false, "xrange": null, "margin_right": null, "no_prefix": false, "range": [0, 0.27578580090479526], "margin_top": null, "no_data_text": "No data", "y_labels_major_count": null, "half_pie": false, "width": 800, "title": "Iteration #5", "stroke_style": null, "y_labels": null, "print_values_position": "center", "x_title": "Observation", "min_scale": 4}</script><script type="text/javascript" xlink:href="https://kozea.github.io/pygal.js/2.0.x/pygal-tooltips.min.js" /></defs><title>Iteration #5</title><g class="graph line-graph vertical"><rect class="background" height="600" width="800" x="0" y="0" /><g class="plot" transform="translate(144, 46)"><rect class="background" height="472.01923788646684" width="636.0" x="0" y="0" /><g class="axis y always_show"><g class="guides"><path class="axis major line" d="M0.000000 462.941945 h636.000000" /><text class="major" x="-5" y="466.44194485">0</text><title>0</title></g><g class="guides"><path class="guide line" d="M0.000000 430.027658 h636.000000" /><text class="" x="-5" y="433.527657724">0.02</text><title>0.02</title></g><g class="guides"><path class="guide line" d="M0.000000 397.113371 h636.000000" /><text class="" x="-5" y="400.613370598">0.04</text><title>0.04</title></g><g class="guides"><path class="guide line" d="M0.000000 364.199083 h636.000000" /><text class="" x="-5" y="367.699083472">0.06</text><title>0.06</title></g><g class="guides"><path class="guide line" d="M0.000000 331.284796 h636.000000" /><text class="" x="-5" y="334.784796346">0.08</text><title>0.08</title></g><g class="guides"><path class="guide line" d="M0.000000 298.370509 h636.000000" /><text class="" x="-5" y="301.87050922">0.1</text><title>0.1</title></g><g class="guides"><path class="guide line" d="M0.000000 265.456222 h636.000000" /><text class="" x="-5" y="268.956222094">0.12</text><title>0.12</title></g><g class="guides"><path class="guide line" d="M0.000000 232.541935 h636.000000" /><text class="" x="-5" y="236.041934968">0.14</text><title>0.14</title></g><g class="guides"><path class="guide line" d="M0.000000 199.627648 h636.000000" /><text class="" x="-5" y="203.127647841">0.16</text><title>0.16</title></g><g class="guides"><path class="guide line" d="M0.000000 166.713361 h636.000000" /><text class="" x="-5" y="170.213360715">0.18</text><title>0.18</title></g><g class="guides"><path class="guide line" d="M0.000000 133.799074 h636.000000" /><text class="" x="-5" y="137.299073589">0.2</text><title>0.2</title></g><g class="guides"><path class="guide line" d="M0.000000 100.884786 h636.000000" /><text class="" x="-5" y="104.384786463">0.22</text><title>0.22</title></g><g class="guides"><path class="guide line" d="M0.000000 67.970499 h636.000000" /><text class="" x="-5" y="71.4704993371">0.24</text><title>0.24</title></g><g class="guides"><path class="guide line" d="M0.000000 35.056212 h636.000000" /><text class="" x="-5" y="38.5562122111">0.26</text><title>0.26</title></g></g><g class="axis x"><g class="guides"><path class="major line" d="M12.230769 0.000000 v472.019238" /><text class="major" transform="rotate(60 12.230769 487.019238)" x="12.230769230769232" y="487.01923788646684">-8.96</text></g><g class="guides"><path class="major guide line" d="M32.960887 0.000000 v472.019238" /><text class="major" transform="rotate(60 32.960887 487.019238)" x="32.96088657105606" y="487.01923788646684">-8.56</text></g><g class="guides"><path class="major guide line" d="M53.691004 0.000000 v472.019238" /><text class="major" transform="rotate(60 53.691004 487.019238)" x="53.6910039113429" y="487.01923788646684">-8.16</text></g><g class="guides"><path class="major guide line" d="M74.421121 0.000000 v472.019238" /><text class="major" transform="rotate(60 74.421121 487.019238)" x="74.42112125162973" y="487.01923788646684">-7.76</text></g><g class="guides"><path class="major guide line" d="M95.151239 0.000000 v472.019238" /><text class="major" transform="rotate(60 95.151239 487.019238)" x="95.15123859191655" y="487.01923788646684">-7.36</text></g><g class="guides"><path class="major guide line" d="M115.881356 0.000000 v472.019238" /><text class="major" transform="rotate(60 115.881356 487.019238)" x="115.88135593220338" y="487.01923788646684">-6.96</text></g><g class="guides"><path class="major guide line" d="M136.611473 0.000000 v472.019238" /><text class="major" transform="rotate(60 136.611473 487.019238)" x="136.61147327249023" y="487.01923788646684">-6.56</text></g><g class="guides"><path class="major guide line" d="M157.341591 0.000000 v472.019238" /><text class="major" transform="rotate(60 157.341591 487.019238)" x="157.34159061277705" y="487.01923788646684">-6.16</text></g><g class="guides"><path class="major guide line" d="M178.071708 0.000000 v472.019238" /><text class="major" transform="rotate(60 178.071708 487.019238)" x="178.0717079530639" y="487.01923788646684">-5.76</text></g><g class="guides"><path class="major guide line" d="M198.801825 0.000000 v472.019238" /><text class="major" transform="rotate(60 198.801825 487.019238)" x="198.80182529335073" y="487.01923788646684">-5.36</text></g><g class="guides"><path class="major guide line" d="M219.531943 0.000000 v472.019238" /><text class="major" transform="rotate(60 219.531943 487.019238)" x="219.53194263363756" y="487.01923788646684">-4.96</text></g><g class="guides"><path class="major guide line" d="M240.262060 0.000000 v472.019238" /><text class="major" transform="rotate(60 240.262060 487.019238)" x="240.2620599739244" y="487.01923788646684">-4.56</text></g><g class="guides"><path class="major guide line" d="M260.992177 0.000000 v472.019238" /><text class="major" transform="rotate(60 260.992177 487.019238)" x="260.99217731421123" y="487.01923788646684">-4.16</text></g><g class="guides"><path class="major guide line" d="M281.722295 0.000000 v472.019238" /><text class="major" transform="rotate(60 281.722295 487.019238)" x="281.722294654498" y="487.01923788646684">-3.76</text></g><g class="guides"><path class="major guide line" d="M302.452412 0.000000 v472.019238" /><text class="major" transform="rotate(60 302.452412 487.019238)" x="302.4524119947849" y="487.01923788646684">-3.36</text></g><g class="guides"><path class="major guide line" d="M323.182529 0.000000 v472.019238" /><text class="major" transform="rotate(60 323.182529 487.019238)" x="323.1825293350717" y="487.01923788646684">-2.96</text></g><g class="guides"><path class="major guide line" d="M343.912647 0.000000 v472.019238" /><text class="major" transform="rotate(60 343.912647 487.019238)" x="343.91264667535853" y="487.01923788646684">-2.56</text></g><g class="guides"><path class="major guide line" d="M364.642764 0.000000 v472.019238" /><text class="major" transform="rotate(60 364.642764 487.019238)" x="364.64276401564535" y="487.01923788646684">-2.16</text></g><g class="guides"><path class="major guide line" d="M385.372881 0.000000 v472.019238" /><text class="major" transform="rotate(60 385.372881 487.019238)" x="385.37288135593224" y="487.01923788646684">-1.76</text></g><g class="guides"><path class="major guide line" d="M406.102999 0.000000 v472.019238" /><text class="major" transform="rotate(60 406.102999 487.019238)" x="406.102998696219" y="487.01923788646684">-1.36</text></g><g class="guides"><path class="major guide line" d="M426.833116 0.000000 v472.019238" /><text class="major" transform="rotate(60 426.833116 487.019238)" x="426.8331160365058" y="487.01923788646684">-0.96</text></g><g class="guides"><path class="major guide line" d="M447.563233 0.000000 v472.019238" /><text class="major" transform="rotate(60 447.563233 487.019238)" x="447.56323337679265" y="487.01923788646684">-0.56</text></g><g class="guides"><path class="major guide line" d="M468.293351 0.000000 v472.019238" /><text class="major" transform="rotate(60 468.293351 487.019238)" x="468.29335071707953" y="487.01923788646684">-0.16</text></g><g class="guides"><path class="major guide line" d="M489.023468 0.000000 v472.019238" /><text class="major" transform="rotate(60 489.023468 487.019238)" x="489.02346805736636" y="487.01923788646684">0.24</text></g><g class="guides"><path class="major guide line" d="M509.753585 0.000000 v472.019238" /><text class="major" transform="rotate(60 509.753585 487.019238)" x="509.75358539765324" y="487.01923788646684">0.64</text></g><g class="guides"><path class="major guide line" d="M530.483703 0.000000 v472.019238" /><text class="major" transform="rotate(60 530.483703 487.019238)" x="530.48370273794" y="487.01923788646684">1.04</text></g><g class="guides"><path class="major guide line" d="M551.213820 0.000000 v472.019238" /><text class="major" transform="rotate(60 551.213820 487.019238)" x="551.213820078227" y="487.01923788646684">1.43</text></g><g class="guides"><path class="major guide line" d="M571.943937 0.000000 v472.019238" /><text class="major" transform="rotate(60 571.943937 487.019238)" x="571.9439374185138" y="487.01923788646684">1.83</text></g><g class="guides"><path class="major guide line" d="M592.674055 0.000000 v472.019238" /><text class="major" transform="rotate(60 592.674055 487.019238)" x="592.6740547588006" y="487.01923788646684">2.23</text></g><g class="guides"><path class="major guide line" d="M613.404172 0.000000 v472.019238" /><text class="major" transform="rotate(60 613.404172 487.019238)" x="613.4041720990874" y="487.01923788646684">2.63</text></g></g><g class="series serie-0 color-0"><path class="line reactive" d="M12.230769 462.941945 L12.230769 462.019456 22.595828 462.941945 32.960887 461.096967 43.325945 462.019456 53.691004 459.251988 64.056063 462.019456 74.421121 458.329499 84.786180 462.019456 95.151239 458.329499 105.516297 462.019456 115.881356 448.182119 126.246415 460.174477 136.611473 457.407010 146.976532 457.407010 157.341591 451.872075 167.706649 448.182119 178.071708 454.639543 188.436767 445.414651 198.801825 442.647184 209.166884 436.189760 219.531943 437.112249 229.897001 392.832771 240.262060 396.522728 250.627119 376.227967 260.992177 355.933206 271.357236 351.320760 281.722295 325.491065 292.087353 277.521630 302.452412 283.056565 312.817471 202.800010 323.182529 188.040184 333.547588 169.590402 343.912647 123.465945 354.277705 95.791271 364.642764 67.194108 375.007823 82.876423 385.372881 60.736684 395.737940 80.108956 406.102999 29.372054 416.468057 9.077293 426.833116 70.884065 437.198175 69.039086 447.563233 41.364413 457.928292 40.441923 468.293351 91.178826 478.658409 140.993239 489.023468 214.792369 499.388527 259.071847 509.753585 321.801108 520.118644 364.235608 530.483703 408.515086 540.848761 430.654825 551.213820 448.182119 561.578879 455.562032 571.943937 458.329499 582.308996 458.329499 592.674055 462.019456 603.039113 462.941945 613.404172 462.019456 623.769231 462.941945" /></g><g class="series serie-1 color-1"><path class="line reactive nofill" d="M12.230769 462.924542 L22.595828 462.910450 32.960887 462.886124 43.325945 462.845059 53.691004 462.777262 64.056063 462.667815 74.421121 462.495072 84.786180 462.228550 95.151239 461.826635 105.516297 461.234365 115.881356 460.381673 126.246415 459.182604 136.611473 457.536152 146.976532 455.329337 157.341591 452.443044 167.706649 448.760740 178.071708 444.179482 188.436767 438.621448 198.801825 432.042548 209.166884 424.432720 219.531943 415.801029 229.897001 406.139208 240.262060 395.362129 250.627119 383.234444 260.992177 369.308630 271.357236 352.914787 281.722295 333.246015 292.087353 309.563299 302.452412 281.496812 312.817471 249.358905 323.182529 214.338217 333.547588 178.450738 343.912647 144.201599 354.277705 114.040169 364.642764 89.808996 375.007823 72.416187 385.372881 61.841059 395.737940 57.328070 406.102999 57.427108 416.468057 59.762037 426.833116 61.134204 437.198175 58.988391 447.563233 54.211879 457.928292 53.075684 468.293351 65.458556 478.658409 99.230727 489.023468 154.654320 499.388527 223.366483 509.753585 292.732698 520.118644 352.000227 530.483703 396.006866 540.848761 425.051569 551.213820 442.478381 561.578879 452.211182 571.943937 457.394144 582.308996 460.084213 592.674055 461.467921 603.039113 462.180199 613.404172 462.548366 623.769231 462.739279" /></g><g class="series serie-2 color-2"><path class="line reactive nofill" d="M12.230769 462.941945 L22.595828 462.941945 32.960887 462.941945 43.325945 462.941945 53.691004 462.941945 64.056063 462.941945 74.421121 462.941945 84.786180 462.941945 95.151239 462.941945 105.516297 462.941945 115.881356 462.941945 126.246415 462.941945 136.611473 462.941945 146.976532 462.941945 157.341591 462.941945 167.706649 462.941945 178.071708 462.941944 188.436767 462.941944 198.801825 462.941942 209.166884 462.941937 219.531943 462.941925 229.897001 462.941896 240.262060 462.941825 250.627119 462.941661 260.992177 462.941284 271.357236 462.940439 281.722295 462.938579 292.087353 462.934551 302.452412 462.925939 312.817471 462.907692 323.182529 462.869162 333.547588 462.787484 343.912647 462.612123 354.277705 462.228171 364.642764 461.371776 375.007823 459.452632 385.372881 455.239836 395.737940 446.450044 406.102999 429.508698 416.468057 400.072591 426.833116 354.941184 437.198175 295.218904 447.563233 229.050461 457.928292 171.209477 468.293351 138.057729 478.658409 139.904474 489.023468 175.655993 499.388527 233.596703 509.753585 297.618914 520.118644 354.400995 530.483703 397.264819 540.848761 425.756598 551.213820 442.890914 561.578879 452.456158 571.943937 457.538983 582.308996 460.168643 592.674055 461.516240 603.039113 462.207304 613.404172 462.563261 623.769231 462.747295" /></g><g class="series serie-3 color-3"><path class="line reactive nofill" d="M12.230769 462.924542 L22.595828 462.910450 32.960887 462.886124 43.325945 462.845059 53.691004 462.777262 64.056063 462.667815 74.421121 462.495072 84.786180 462.228550 95.151239 461.826635 105.516297 461.234365 115.881356 460.381673 126.246415 459.182604 136.611473 457.536152 146.976532 455.329337 157.341591 452.443044 167.706649 448.760740 178.071708 444.179482 188.436767 438.621449 198.801825 432.042551 209.166884 424.432728 219.531943 415.801048 229.897001 406.139257 240.262060 395.362248 250.627119 383.234728 260.992177 369.309291 271.357236 352.916294 281.722295 333.249381 292.087353 309.570693 302.452412 281.512818 312.817471 249.393158 323.182529 214.411000 333.547588 178.605199 343.912647 144.531421 354.277705 114.753943 364.642764 91.379166 375.007823 75.905499 385.372881 69.543168 395.737940 73.819971 406.102999 90.860355 416.468057 122.631391 426.833116 169.134965 437.198175 226.711432 447.563233 288.103363 457.928292 344.808151 468.293351 390.342772 478.658409 422.268198 489.023468 441.940272 499.388527 452.711724 509.753585 458.055729 520.118644 460.541177 530.483703 461.683993 540.848761 462.236916 551.213820 462.529413 561.578879 462.696969 571.943937 462.797106 582.308996 462.857515 592.674055 462.893626 603.039113 462.914840 613.404172 462.927050 623.769231 462.933929" /></g><g class="series serie-4 color-4"><path class="line reactive nofill" d="M12.230769 462.941945 L22.595828 462.941945 32.960887 462.941945 43.325945 462.941945 53.691004 462.941945 64.056063 462.941945 74.421121 462.941945 84.786180 462.941945 95.151239 462.941945 105.516297 462.941945 115.881356 462.941945 126.246415 462.941945 136.611473 462.941945 146.976532 462.941945 157.341591 462.941945 167.706649 462.941945 178.071708 462.941945 188.436767 462.941945 198.801825 462.941945 209.166884 462.941945 219.531943 462.941945 229.897001 462.941945 240.262060 462.941945 250.627119 462.941945 260.992177 462.941945 271.357236 462.941945 281.722295 462.941945 292.087353 462.941944 302.452412 462.941938 312.817471 462.941892 323.182529 462.941583 333.547588 462.939777 343.912647 462.930527 354.277705 462.889136 364.642764 462.727406 375.007823 462.176383 385.372881 460.542430 395.737940 456.335985 406.102999 446.967790 416.468057 429.013081 426.833116 399.643912 437.198175 359.217625 447.563233 313.648600 457.928292 274.199413 468.293351 253.352898 478.658409 258.515601 489.023468 287.806271 499.388527 331.152130 509.753585 375.833843 520.118644 412.370573 530.483703 437.153783 540.848761 451.391319 551.213820 458.397717 561.578879 461.371639 571.943937 462.465319 582.308996 462.814876 592.674055 462.912189 603.039113 462.935825 613.404172 462.940839 623.769231 462.941769" /></g><g class="series serie-5 color-5"><path class="line reactive nofill" d="M12.230769 462.941945 L22.595828 462.941945 32.960887 462.941945 43.325945 462.941945 53.691004 462.941945 64.056063 462.941945 74.421121 462.941945 84.786180 462.941945 95.151239 462.941945 105.516297 462.941945 115.881356 462.941945 126.246415 462.941945 136.611473 462.941945 146.976532 462.941945 157.341591 462.941945 167.706649 462.941945 178.071708 462.941945 188.436767 462.941945 198.801825 462.941945 209.166884 462.941945 219.531943 462.941945 229.897001 462.941945 240.262060 462.941945 250.627119 462.941945 260.992177 462.941945 271.357236 462.941944 281.722295 462.941940 292.087353 462.941916 302.452412 462.941797 312.817471 462.941259 323.182529 462.939051 333.547588 462.930833 343.912647 462.903107 354.277705 462.818409 364.642764 462.584336 375.007823 461.999828 385.372881 460.683120 395.737940 458.013142 406.102999 453.154222 416.468057 445.252956 426.833116 433.847802 437.198175 419.391832 447.563233 403.614699 457.928292 389.388965 468.293351 379.951606 478.658409 377.723033 489.023468 383.302979 499.388527 395.209552 509.753585 410.515742 520.118644 426.011752 530.483703 439.266621 540.848761 449.128835 551.213820 455.607485 561.578879 459.397681 571.943937 461.383236 582.308996 462.318087 592.674055 462.714704 603.039113 462.866615 613.404172 462.919218 623.769231 462.935705" /></g><g class="series serie-6 color-6"><path class="line reactive nofill" d="M12.230769 462.941945 L22.595828 462.941945 32.960887 462.941945 43.325945 462.941945 53.691004 462.941945 64.056063 462.941945 74.421121 462.941945 84.786180 462.941945 95.151239 462.941945 105.516297 462.941945 115.881356 462.941945 126.246415 462.941945 136.611473 462.941945 146.976532 462.941945 157.341591 462.941945 167.706649 462.941945 178.071708 462.941945 188.436767 462.941945 198.801825 462.941945 209.166884 462.941945 219.531943 462.941945 229.897001 462.941945 240.262060 462.941944 250.627119 462.941941 260.992177 462.941928 271.357236 462.941883 281.722295 462.941725 292.087353 462.941218 302.452412 462.939690 312.817471 462.935391 323.182529 462.924089 333.547588 462.896340 343.912647 462.832758 354.277705 462.696892 364.642764 462.426387 375.007823 461.925169 385.372881 461.062190 395.737940 459.684281 406.102999 457.649700 416.468057 454.882552 426.833116 451.436763 437.198175 447.545750 447.563233 443.628396 457.928292 440.230776 468.293351 437.907056 478.658409 437.072889 489.023468 437.884070 499.388527 440.189050 509.753585 443.575147 520.118644 447.489125 530.483703 451.383846 540.848761 454.838050 551.213820 457.615592 561.578879 459.660275 571.943937 461.046599 582.308996 461.915795 592.674055 462.421155 603.039113 462.694179 613.404172 462.831448 623.769231 462.895751" /></g><g class="series serie-7 color-7"><path class="line reactive nofill" d="M12.230769 462.941945 L22.595828 462.941945 32.960887 462.941945 43.325945 462.941945 53.691004 462.941945 64.056063 462.941945 74.421121 462.941945 84.786180 462.941945 95.151239 462.941945 105.516297 462.941945 115.881356 462.941945 126.246415 462.941945 136.611473 462.941945 146.976532 462.941945 157.341591 462.941945 167.706649 462.941945 178.071708 462.941945 188.436767 462.941945 198.801825 462.941945 209.166884 462.941944 219.531943 462.941942 229.897001 462.941935 240.262060 462.941915 250.627119 462.941862 260.992177 462.941723 271.357236 462.941375 281.722295 462.940549 292.087353 462.938674 302.452412 462.934624 312.817471 462.926286 323.182529 462.909938 333.547588 462.879427 343.912647 462.825251 354.277705 462.733799 364.642764 462.587159 375.007823 462.364058 385.372881 462.042451 395.737940 461.604019 406.102999 461.040237 416.468057 460.358887 426.833116 459.589183 437.198175 458.783320 447.563233 458.012761 457.928292 457.358803 468.293351 456.898833 478.658409 456.691356 489.023468 456.763779 499.388527 457.106465 509.753585 457.674841 520.118644 458.398915 530.483703 459.197413 540.848761 459.992584 551.213820 460.722029 561.578879 461.345244 571.943937 461.844484 582.308996 462.221115 592.674055 462.489511 603.039113 462.670579 613.404172 462.786408 623.769231 462.856754" /></g><g class="series serie-8 color-8"><path class="line reactive nofill" d="M12.230769 462.941945 L22.595828 462.941945 32.960887 462.941945 43.325945 462.941945 53.691004 462.941945 64.056063 462.941945 74.421121 462.941945 84.786180 462.941945 95.151239 462.941945 105.516297 462.941945 115.881356 462.941945 126.246415 462.941945 136.611473 462.941945 146.976532 462.941945 157.341591 462.941945 167.706649 462.941945 178.071708 462.941944 188.436767 462.941944 198.801825 462.941942 209.166884 462.941938 219.531943 462.941928 229.897001 462.941906 240.262060 462.941856 250.627119 462.941747 260.992177 462.941522 271.357236 462.941071 281.722295 462.940200 292.087353 462.938579 302.452412 462.935669 312.817471 462.930643 323.182529 462.922279 333.547588 462.908887 343.912647 462.888259 354.277705 462.857713 364.642764 462.814268 375.007823 462.754974 385.372881 462.677425 395.737940 462.580396 406.102999 462.464528 416.468057 462.332894 426.833116 462.191304 437.198175 462.048156 447.563233 461.913784 457.928292 461.799300 468.293351 461.715114 478.658409 461.669374 489.023468 461.666673 499.388527 461.707285 509.753585 461.787121 520.118644 461.898409 530.483703 462.030935 540.848761 462.173589 551.213820 462.315872 561.578879 462.449098 571.943937 462.567126 582.308996 462.666550 592.674055 462.746460 603.039113 462.807886 613.404172 462.853127 623.769231 462.885095" /></g><g class="series serie-9 color-9"><path class="line reactive nofill" d="M12.230769 462.941945 L22.595828 462.941945 32.960887 462.941945 43.325945 462.941945 53.691004 462.941945 64.056063 462.941945 74.421121 462.941945 84.786180 462.941945 95.151239 462.941945 105.516297 462.941945 115.881356 462.941945 126.246415 462.941945 136.611473 462.941945 146.976532 462.941945 157.341591 462.941945 167.706649 462.941945 178.071708 462.941945 188.436767 462.941945 198.801825 462.941945 209.166884 462.941945 219.531943 462.941945 229.897001 462.941945 240.262060 462.941945 250.627119 462.941945 260.992177 462.941944 271.357236 462.941934 281.722295 462.941864 292.087353 462.941413 302.452412 462.938899 312.817471 462.926724 323.182529 462.875646 333.547588 462.690219 343.912647 462.108816 354.277705 460.538382 364.642764 456.897477 375.007823 449.691819 385.372881 437.623252 395.737940 420.770171 406.102999 401.712294 416.468057 385.449201 426.833116 377.451098 437.198175 380.729506 447.563233 394.026783 457.928292 412.585930 468.293351 430.868378 478.658409 445.134464 489.023468 454.323735 499.388527 459.306220 509.753585 461.604967 520.118644 462.513380 530.483703 462.822197 540.848761 462.912779 551.213820 462.935753 561.578879 462.940799 571.943937 462.941760 582.308996 462.941919 592.674055 462.941942 603.039113 462.941945 613.404172 462.941945 623.769231 462.941945" /></g><g class="series serie-10 color-10"><path class="line reactive nofill" d="M12.230769 462.941945 L22.595828 462.941945 32.960887 462.941945 43.325945 462.941945 53.691004 462.941945 64.056063 462.941945 74.421121 462.941945 84.786180 462.941945 95.151239 462.941945 105.516297 462.941945 115.881356 462.941945 126.246415 462.941945 136.611473 462.941945 146.976532 462.941945 157.341591 462.941945 167.706649 462.941945 178.071708 462.941945 188.436767 462.941945 198.801825 462.941945 209.166884 462.941945 219.531943 462.941942 229.897001 462.941929 240.262060 462.941853 250.627119 462.941462 260.992177 462.939667 271.357236 462.932275 281.722295 462.904970 292.087353 462.814603 302.452412 462.546924 312.817471 461.838265 323.182529 460.164518 333.547588 456.646620 343.912647 450.089974 354.277705 439.310114 364.642764 423.803721 375.007823 404.559680 385.372881 384.502076 395.737940 368.019511 406.102999 359.480876 416.468057 361.372953 426.833116 373.132623 437.198175 391.416960 447.563233 411.635700 457.928292 429.793835 468.293351 443.652337 478.658409 452.831643 489.023468 458.169060 499.388527 460.912516 509.753585 462.164727 520.118644 462.673850 530.483703 462.858652 540.848761 462.918637 551.213820 462.936070 561.578879 462.940611 571.943937 462.941672 582.308996 462.941895 592.674055 462.941937 603.039113 462.941944 613.404172 462.941945 623.769231 462.941945" /></g><g class="series serie-11 color-11"><path class="line reactive nofill" d="M12.230769 462.941945 L22.595828 462.941945 32.960887 462.941945 43.325945 462.941945 53.691004 462.941945 64.056063 462.941945 74.421121 462.941945 84.786180 462.941945 95.151239 462.941945 105.516297 462.941945 115.881356 462.941945 126.246415 462.941945 136.611473 462.941945 146.976532 462.941945 157.341591 462.941944 167.706649 462.941940 178.071708 462.941919 188.436767 462.941827 198.801825 462.941455 209.166884 462.940052 219.531943 462.935181 229.897001 462.919593 240.262060 462.873622 250.627119 462.748762 260.992177 462.436686 271.357236 461.719585 281.722295 460.206514 292.087353 457.279632 302.452412 452.100100 312.817471 443.739618 323.182529 431.482880 333.547588 415.268222 343.912647 396.114689 354.277705 376.291762 364.642764 359.015364 375.007823 347.643063 385.372881 344.620122 395.737940 350.624838 406.102999 364.321204 416.468057 382.842056 426.833116 402.764067 437.198175 421.122033 447.563233 436.059382 457.928292 446.957428 468.293351 454.150310 478.658409 458.469128 489.023468 460.837033 499.388527 462.025665 509.753585 462.572998 520.118644 462.804528 530.483703 462.894602 540.848761 462.926857 551.213820 462.937497 561.578879 462.940732 571.943937 462.941639 582.308996 462.941873 592.674055 462.941929 603.039113 462.941942 613.404172 462.941944 623.769231 462.941945" /></g><g class="series serie-12 color-12"><path class="line reactive nofill" d="M12.230769 462.941945 L22.595828 462.941945 32.960887 462.941945 43.325945 462.941945 53.691004 462.941945 64.056063 462.941945 74.421121 462.941945 84.786180 462.941945 95.151239 462.941945 105.516297 462.941944 115.881356 462.941940 126.246415 462.941925 136.611473 462.941865 146.976532 462.941640 157.341591 462.940851 167.706649 462.938273 178.071708 462.930401 188.436767 462.907950 198.801825 462.848182 209.166884 462.699738 219.531943 462.355954 229.897001 461.614119 240.262060 460.123964 250.627119 457.340742 260.992177 452.514665 271.357236 444.761387 281.722295 433.253336 292.087353 417.535349 302.452412 397.899854 312.817471 375.681687 323.182529 353.297928 333.547588 333.909229 343.912647 320.721776 354.277705 316.127430 364.642764 320.995916 375.007823 334.406190 385.372881 353.930748 395.737940 376.352548 406.102999 398.524310 416.468057 418.057973 426.833116 433.651616 437.198175 445.039858 447.563233 452.694171 457.928292 457.447778 468.293351 460.183142 478.658409 461.644509 489.023468 462.370470 499.388527 462.706193 509.753585 462.850857 520.118644 462.908983 530.483703 462.930773 540.848761 462.938399 551.213820 462.940891 561.578879 462.941651 571.943937 462.941868 582.308996 462.941926 592.674055 462.941941 603.039113 462.941944 613.404172 462.941945 623.769231 462.941945" /></g><g class="series serie-13 color-13"><path class="line reactive nofill" d="M12.230769 462.924542 L22.595828 462.910450 32.960887 462.886124 43.325945 462.845059 53.691004 462.777262 64.056063 462.667815 74.421121 462.495072 84.786180 462.228550 95.151239 461.826635 105.516297 461.234366 115.881356 460.381678 126.246415 459.182624 136.611473 457.536232 146.976532 455.329642 157.341591 452.444139 167.706649 448.764417 178.071708 444.191052 188.436767 438.655562 198.801825 432.136803 209.166884 424.676829 219.531943 416.393805 229.897001 407.489450 240.262060 398.248644 250.627119 389.029597 260.992177 380.244108 271.357236 372.328891 281.722295 365.710476 292.087353 360.767475 302.452412 357.794820 312.817471 356.974643 323.182529 358.357808 333.547588 361.858690 343.912647 367.263945 354.277705 374.254035 364.642764 382.434468 375.007823 391.372528 385.372881 400.634749 395.737940 409.820681 406.102999 418.589450 416.468057 426.676987 426.833116 433.903339 437.198175 440.170855 447.563233 445.455105 457.928292 449.790959 468.293351 453.256385 478.658409 455.956233 489.023468 458.007753 499.388527 459.528909 509.753585 460.629959 520.118644 461.408215 530.483703 461.945548 540.848761 462.308024 551.213820 462.546981 561.578879 462.700955 571.943937 462.797946 582.308996 462.857681 592.674055 462.893657 603.039113 462.914845 613.404172 462.927051 623.769231 462.933929" /></g></g><g class="titles"><text class="title plot_title" x="400.0" y="26">Iteration #5</text><text class="title" x="462.0" y="580.0">Observation</text><text class="title" transform="rotate(-90 64.000000 282.009619)" x="64.0" y="308.0096189432334">Density</text></g><g class="plot overlay" transform="translate(144, 46)"><g class="series serie-0 color-0" /><g class="series serie-1 color-1" /><g class="series serie-2 color-2" /><g class="series serie-3 color-3" /><g class="series serie-4 color-4" /><g class="series serie-5 color-5" /><g class="series serie-6 color-6" /><g class="series serie-7 color-7" /><g class="series serie-8 color-8" /><g class="series serie-9 color-9" /><g class="series serie-10 color-10" /><g class="series serie-11 color-11" /><g class="series serie-12 color-12" /><g class="series serie-13 color-13" /></g><g class="plot text-overlay" transform="translate(144, 46)"><g class="series serie-0 color-0" /><g class="series serie-1 color-1" /><g class="series serie-2 color-2" /><g class="series serie-3 color-3" /><g class="series serie-4 color-4" /><g class="series serie-5 color-5" /><g class="series serie-6 color-6" /><g class="series serie-7 color-7" /><g class="series serie-8 color-8" /><g class="series serie-9 color-9" /><g class="series serie-10 color-10" /><g class="series serie-11 color-11" /><g class="series serie-12 color-12" /><g class="series serie-13 color-13" /></g><g class="plot tooltip-overlay" transform="translate(144, 46)"><g class="tooltip" style="opacity: 0" transform="translate(0 0)"><rect class="tooltip-box" height="0" rx="0" ry="0" width="0" /><g class="text" /></g></g><g class="legends" transform="translate(10, 56)"><g class="legend reactive activate-serie" id="activate-serie-0"><rect class="color-0 reactive" height="12" width="12" x="0.0" y="0.0" /><text x="17.0" y="9.0">Data</text></g><g class="legend reactive activate-serie" id="activate-serie-1"><rect class="color-1 reactive" height="12" width="12" x="0.0" y="18.0" /><text x="17.0" y="27.0">GMM</text></g><g class="legend reactive activate-serie" id="activate-serie-2"><rect class="color-2 reactive" height="12" width="12" x="0.0" y="36.0" /><text x="17.0" y="45.0">i=0</text></g><g class="legend reactive activate-serie" id="activate-serie-3"><rect class="color-3 reactive" height="12" width="12" x="0.0" y="54.0" /><text x="17.0" y="63.0">i=1</text></g><g class="legend reactive activate-serie" id="activate-serie-4"><rect class="color-4 reactive" height="12" width="12" x="0.0" y="72.0" /><text x="17.0" y="81.0">i=0 k=0</text></g><g class="legend reactive activate-serie" id="activate-serie-5"><rect class="color-5 reactive" height="12" width="12" x="0.0" y="90.0" /><text x="17.0" y="99.0">i=0 k=1</text></g><g class="legend reactive activate-serie" id="activate-serie-6"><rect class="color-6 reactive" height="12" width="12" x="0.0" y="108.0" /><text x="17.0" y="117.0">i=0 k=2</text></g><g class="legend reactive activate-serie" id="activate-serie-7"><rect class="color-7 reactive" height="12" width="12" x="0.0" y="126.0" /><text x="17.0" y="135.0">i=0 k=3</text></g><g class="legend reactive activate-serie" id="activate-serie-8"><rect class="color-8 reactive" height="12" width="12" x="0.0" y="144.0" /><text x="17.0" y="153.0">i=0 k=4</text></g><g class="legend reactive activate-serie" id="activate-serie-9"><rect class="color-9 reactive" height="12" width="12" x="0.0" y="162.0" /><text x="17.0" y="171.0">i=1 k=0</text></g><g class="legend reactive activate-serie" id="activate-serie-10"><rect class="color-10 reactive" height="12" width="12" x="0.0" y="180.0" /><text x="17.0" y="189.0">i=1 k=1</text></g><g class="legend reactive activate-serie" id="activate-serie-11"><rect class="color-11 reactive" height="12" width="12" x="0.0" y="198.0" /><text x="17.0" y="207.0">i=1 k=2</text></g><g class="legend reactive activate-serie" id="activate-serie-12"><rect class="color-12 reactive" height="12" width="12" x="0.0" y="216.0" /><text x="17.0" y="225.0">i=1 k=3</text></g><g class="legend reactive activate-serie" id="activate-serie-13"><rect class="color-13 reactive" height="12" width="12" x="0.0" y="234.0" /><text x="17.0" y="243.0">i=1 k=4</text></g></g><g class="legends" transform="translate(790, 56)" /></g></svg>