<?xml version='1.0' encoding='utf-8'?>
<svg xmlns:xlink="http://www.w3.org/1999/xlink" class="pygal-chart" id="chart-07382d2b-5ef3-46fb-9969-aecbd554dac4" viewBox="0 0 800 600" xmlns="http://www.w3.org/2000/svg"><!--Generated with pygal 2.4.0 (etree) ©Kozea 2012-2016 on 2018-02-13--><!--http://pygal.org--><!--http://github.com/Kozea/pygal--><defs><style type="text/css">#chart-07382d2b-5ef3-46fb-9969-aecbd554dac4{-webkit-user-select:none;-webkit-font-smoothing:antialiased;font-family:Consolas,"Liberation Mono",Menlo,Courier,monospace}#chart-07382d2b-5ef3-46fb-9969-aecbd554dac4 .title{font-family:Consolas,"Liberation Mono",Menlo,Courier,monospace;font-size:16px}#chart-07382d2b-5ef3-46fb-9969-aecbd554dac4 .legends .legend text{font-family:Consolas,"Liberation Mono",Menlo,Courier,monospace;font-size:10px}#chart-07382d2b-5ef3-46fb-9969-aecbd554dac4 .axis text{font-family:Consolas,"Liberation Mono",Menlo,Courier,monospace;font-size:10px}#chart-07382d2b-5ef3-46fb-9969-aecbd554dac4 .axis text.major{font-family:Consolas,"Liberation Mono",Menlo,Courier,monospace;font-size:10px}#chart-07382d2b-5ef3-46fb-9969-aecbd554dac4 .text-overlay text.value{font-family:Consolas,"Liberation Mono",Menlo,Courier,monospace;font-size:16px}#chart-07382d2b-5ef3-46fb-9969-aecbd554dac4 .text-overlay text.label{font-family:Consolas,"Liberation Mono",Menlo,Courier,monospace;font-size:10px}#chart-07382d2b-5ef3-46fb-9969-aecbd554dac4 .tooltip{font-family:Consolas,"Liberation Mono",Menlo,Courier,monospace;font-size:14px}#chart-07382d2b-5ef3-46fb-9969-aecbd554dac4 text.no_data{font-family:Consolas,"Liberation Mono",Menlo,Courier,monospace;font-size:64px}
#chart-07382d2b-5ef3-46fb-9969-aecbd554dac4{background-color:rgba(249,249,249,1)}#chart-07382d2b-5ef3-46fb-9969-aecbd554dac4 path,#chart-07382d2b-5ef3-46fb-9969-aecbd554dac4 line,#chart-07382d2b-5ef3-46fb-9969-aecbd554dac4 rect,#chart-07382d2b-5ef3-46fb-9969-aecbd554dac4 circle{-webkit-transition:150ms;-moz-transition:150ms;transition:150ms}#chart-07382d2b-5ef3-46fb-9969-aecbd554dac4 .graph &gt; .background{fill:rgba(249,249,249,1)}#chart-07382d2b-5ef3-46fb-9969-aecbd554dac4 .plot &gt; .background{fill:rgba(255,255,255,1)}#chart-07382d2b-5ef3-46fb-9969-aecbd554dac4 .graph{fill:rgba(0,0,0,.87)}#chart-07382d2b-5ef3-46fb-9969-aecbd554dac4 text.no_data{fill:rgba(0,0,0,1)}#chart-07382d2b-5ef3-46fb-9969-aecbd554dac4 .title{fill:rgba(0,0,0,1)}#chart-07382d2b-5ef3-46fb-9969-aecbd554dac4 .legends .legend text{fill:rgba(0,0,0,.87)}#chart-07382d2b-5ef3-46fb-9969-aecbd554dac4 .legends .legend:hover text{fill:rgba(0,0,0,1)}#chart-07382d2b-5ef3-46fb-9969-aecbd554dac4 .axis .line{stroke:rgba(0,0,0,1)}#chart-07382d2b-5ef3-46fb-9969-aecbd554dac4 .axis .guide.line{stroke:rgba(0,0,0,.54)}#chart-07382d2b-5ef3-46fb-9969-aecbd554dac4 .axis .major.line{stroke:rgba(0,0,0,.87)}#chart-07382d2b-5ef3-46fb-9969-aecbd554dac4 .axis text.major{fill:rgba(0,0,0,1)}#chart-07382d2b-5ef3-46fb-9969-aecbd554dac4 .axis.y .guides:hover .guide.line,#chart-07382d2b-5ef3-46fb-9969-aecbd554dac4 .line-graph .axis.x .guides:hover .guide.line,#chart-07382d2b-5ef3-46fb-9969-aecbd554dac4 .stackedline-graph .axis.x .guides:hover .guide.line,#chart-07382d2b-5ef3-46fb-9969-aecbd554dac4 .xy-graph .axis.x .guides:hover .guide.line{stroke:rgba(0,0,0,1)}#chart-07382d2b-5ef3-46fb-9969-aecbd554dac4 .axis .guides:hover text{fill:rgba(0,0,0,1)}#chart-07382d2b-5ef3-46fb-9969-aecbd554dac4 .reactive{fill-opacity:.7;stroke-opacity:.8}#chart-07382d2b-5ef3-46fb-9969-aecbd554dac4 .ci{stroke:rgba(0,0,0,.87)}#chart-07382d2b-5ef3-46fb-9969-aecbd554dac4 .reactive.active,#chart-07382d2b-5ef3-46fb-9969-aecbd554dac4 .active .reactive{fill-opacity:.8;stroke-opacity:.9;stroke-width:4}#chart-07382d2b-5ef3-46fb-9969-aecbd554dac4 .ci .reactive.active{stroke-width:1.5}#chart-07382d2b-5ef3-46fb-9969-aecbd554dac4 .series text{fill:rgba(0,0,0,1)}#chart-07382d2b-5ef3-46fb-9969-aecbd554dac4 .tooltip rect{fill:rgba(255,255,255,1);stroke:rgba(0,0,0,1);-webkit-transition:opacity 150ms;-moz-transition:opacity 150ms;transition:opacity 150ms}#chart-07382d2b-5ef3-46fb-9969-aecbd554dac4 .tooltip .label{fill:rgba(0,0,0,.87)}#chart-07382d2b-5ef3-46fb-9969-aecbd554dac4 .tooltip .label{fill:rgba(0,0,0,.87)}#chart-07382d2b-5ef3-46fb-9969-aecbd554dac4 .tooltip .legend{font-size:.8em;fill:rgba(0,0,0,.54)}#chart-07382d2b-5ef3-46fb-9969-aecbd554dac4 .tooltip .x_label{font-size:.6em;fill:rgba(0,0,0,1)}#chart-07382d2b-5ef3-46fb-9969-aecbd554dac4 .tooltip .xlink{font-size:.5em;text-decoration:underline}#chart-07382d2b-5ef3-46fb-9969-aecbd554dac4 .tooltip .value{font-size:1.5em}#chart-07382d2b-5ef3-46fb-9969-aecbd554dac4 .bound{font-size:.5em}#chart-07382d2b-5ef3-46fb-9969-aecbd554dac4 .max-value{font-size:.75em;fill:rgba(0,0,0,.54)}#chart-07382d2b-5ef3-46fb-9969-aecbd554dac4 .map-element{fill:rgba(255,255,255,1);stroke:rgba(0,0,0,.54) !important}#chart-07382d2b-5ef3-46fb-9969-aecbd554dac4 .map-element .reactive{fill-opacity:inherit;stroke-opacity:inherit}#chart-07382d2b-5ef3-46fb-9969-aecbd554dac4 .color-0,#chart-07382d2b-5ef3-46fb-9969-aecbd554dac4 .color-0 a:visited{stroke:#909090;fill:#909090}#chart-07382d2b-5ef3-46fb-9969-aecbd554dac4 .color-1,#chart-07382d2b-5ef3-46fb-9969-aecbd554dac4 .color-1 a:visited{stroke:#000000;fill:#000000}#chart-07382d2b-5ef3-46fb-9969-aecbd554dac4 .color-2,#chart-07382d2b-5ef3-46fb-9969-aecbd554dac4 .color-2 a:visited{stroke:#ff0500;fill:#ff0500}#chart-07382d2b-5ef3-46fb-9969-aecbd554dac4 .color-3,#chart-07382d2b-5ef3-46fb-9969-aecbd554dac4 .color-3 a:visited{stroke:#323299;fill:#323299}#chart-07382d2b-5ef3-46fb-9969-aecbd554dac4 .color-4,#chart-07382d2b-5ef3-46fb-9969-aecbd554dac4 .color-4 a:visited{stroke:#a3413f;fill:#a3413f}#chart-07382d2b-5ef3-46fb-9969-aecbd554dac4 .color-5,#chart-07382d2b-5ef3-46fb-9969-aecbd554dac4 .color-5 a:visited{stroke:#a3413f;fill:#a3413f}#chart-07382d2b-5ef3-46fb-9969-aecbd554dac4 .color-6,#chart-07382d2b-5ef3-46fb-9969-aecbd554dac4 .color-6 a:visited{stroke:#657fff;fill:#657fff}#chart-07382d2b-5ef3-46fb-9969-aecbd554dac4 .color-7,#chart-07382d2b-5ef3-46fb-9969-aecbd554dac4 .color-7 a:visited{stroke:#657fff;fill:#657fff}#chart-07382d2b-5ef3-46fb-9969-aecbd554dac4 .text-overlay .color-0 text{fill:black}#chart-07382d2b-5ef3-46fb-9969-aecbd554dac4 .text-overlay .color-1 text{fill:white}#chart-07382d2b-5ef3-46fb-9969-aecbd554dac4 .text-overlay .color-2 text{fill:black}#chart-07382d2b-5ef3-46fb-9969-aecbd554dac4 .text-overlay .color-3 text{fill:black}#chart-07382d2b-5ef3-46fb-9969-aecbd554dac4 .text-overlay .color-4 text{fill:black}#chart-07382d2b-5ef3-46fb-9969-aecbd554dac4 .text-overlay .color-5 text{fill:black}#chart-07382d2b-5ef3-46fb-9969-aecbd554dac4 .text-overlay .color-6 text{fill:black}#chart-07382d2b-5ef3-46fb-9969-aecbd554dac4 .text-overlay .color-7 text{fill:black}#chart-07382d2b-5ef3-46fb-9969-aecbd554dac4 .series.serie-1{stroke-width:5}#chart-07382d2b-5ef3-46fb-9969-aecbd554dac4 .series.serie-2{stroke-width:3}#chart-07382d2b-5ef3-46fb-9969-aecbd554dac4 .series.serie-3{stroke-width:3}#chart-07382d2b-5ef3-46fb-9969-aecbd554dac4 .series.serie-4{stroke-width:2;stroke-dasharray:2,2}#chart-07382d2b-5ef3-46fb-9969-aecbd554dac4 .series.serie-5{stroke-width:2;stroke-dasharray:2,2}#chart-07382d2b-5ef3-46fb-9969-aecbd554dac4 .series.serie-6{stroke-width:2;stroke-dasharray:2,2}#chart-07382d2b-5ef3-46fb-9969-aecbd554dac4 .series.serie-7{stroke-width:2;stroke-dasharray:2,2}
#chart-07382d2b-5ef3-46fb-9969-aecbd554dac4 text.no_data{text-anchor:middle}#chart-07382d2b-5ef3-46fb-9969-aecbd554dac4 .guide.line{fill:none}#chart-07382d2b-5ef3-46fb-9969-aecbd554dac4 .centered{text-anchor:middle}#chart-07382d2b-5ef3-46fb-9969-aecbd554dac4 .title{text-anchor:middle}#chart-07382d2b-5ef3-46fb-9969-aecbd554dac4 .legends .legend text{fill-opacity:1}#chart-07382d2b-5ef3-46fb-9969-aecbd554dac4 .axis.x text{text-anchor:middle}#chart-07382d2b-5ef3-46fb-9969-aecbd554dac4 .axis.x:not(.web) text[transform]{text-anchor:start}#chart-07382d2b-5ef3-46fb-9969-aecbd554dac4 .axis.x:not(.web) text[transform].backwards{text-anchor:end}#chart-07382d2b-5ef3-46fb-9969-aecbd554dac4 .axis.y text{text-anchor:end}#chart-07382d2b-5ef3-46fb-9969-aecbd554dac4 .axis.y text[transform].backwards{text-anchor:start}#chart-07382d2b-5ef3-46fb-9969-aecbd554dac4 .axis.y2 text{text-anchor:start}#chart-07382d2b-5ef3-46fb-9969-aecbd554dac4 .axis.y2 text[transform].backwards{text-anchor:end}#chart-07382d2b-5ef3-46fb-9969-aecbd554dac4 .axis .guide.line{stroke-dasharray:4,4}#chart-07382d2b-5ef3-46fb-9969-aecbd554dac4 .axis .major.guide.line{stroke-dasharray:6,6}#chart-07382d2b-5ef3-46fb-9969-aecbd554dac4 .horizontal .axis.y .guide.line,#chart-07382d2b-5ef3-46fb-9969-aecbd554dac4 .horizontal .axis.y2 .guide.line,#chart-07382d2b-5ef3-46fb-9969-aecbd554dac4 .vertical .axis.x .guide.line{opacity:0}#chart-07382d2b-5ef3-46fb-9969-aecbd554dac4 .horizontal .axis.always_show .guide.line,#chart-07382d2b-5ef3-46fb-9969-aecbd554dac4 .vertical .axis.always_show .guide.line{opacity:1 !important}#chart-07382d2b-5ef3-46fb-9969-aecbd554dac4 .axis.y .guides:hover .guide.line,#chart-07382d2b-5ef3-46fb-9969-aecbd554dac4 .axis.y2 .guides:hover .guide.line,#chart-07382d2b-5ef3-46fb-9969-aecbd554dac4 .axis.x .guides:hover .guide.line{opacity:1}#chart-07382d2b-5ef3-46fb-9969-aecbd554dac4 .axis .guides:hover text{opacity:1}#chart-07382d2b-5ef3-46fb-9969-aecbd554dac4 .nofill{fill:none}#chart-07382d2b-5ef3-46fb-9969-aecbd554dac4 .subtle-fill{fill-opacity:.2}#chart-07382d2b-5ef3-46fb-9969-aecbd554dac4 .dot{stroke-width:1px;fill-opacity:1}#chart-07382d2b-5ef3-46fb-9969-aecbd554dac4 .dot.active{stroke-width:5px}#chart-07382d2b-5ef3-46fb-9969-aecbd554dac4 .dot.negative{fill:transparent}#chart-07382d2b-5ef3-46fb-9969-aecbd554dac4 text,#chart-07382d2b-5ef3-46fb-9969-aecbd554dac4 tspan{stroke:none !important}#chart-07382d2b-5ef3-46fb-9969-aecbd554dac4 .series text.active{opacity:1}#chart-07382d2b-5ef3-46fb-9969-aecbd554dac4 .tooltip rect{fill-opacity:.95;stroke-width:.5}#chart-07382d2b-5ef3-46fb-9969-aecbd554dac4 .tooltip text{fill-opacity:1}#chart-07382d2b-5ef3-46fb-9969-aecbd554dac4 .showable{visibility:hidden}#chart-07382d2b-5ef3-46fb-9969-aecbd554dac4 .showable.shown{visibility:visible}#chart-07382d2b-5ef3-46fb-9969-aecbd554dac4 .gauge-background{fill:rgba(229,229,229,1);stroke:none}#chart-07382d2b-5ef3-46fb-9969-aecbd554dac4 .bg-lines{stroke:rgba(249,249,249,1);stroke-width:2px}</style><script type="text/javascript">window.pygal = window.pygal || {};window.pygal.config = window.pygal.config || {};window.pygal.config['07382d2b-5ef3-46fb-9969-aecbd554dac4'] = {"no_prefix": false, "xrange": null, "legends": ["Data", "GMM", "i=0", "i=1", "i=0 k=0", "i=0 k=1", "i=1 k=0", "i=1 k=1"], "inverse_y_axis": false, "rounded_bars": null, "explicit_size": false, "title": "Iteration #11", "stroke": true, "tooltip_fancy_mode": true, "show_minor_x_labels": false, "y_labels_major": null, "pretty_print": false, "print_values": false, "interpolation_precision": 250, "spacing": 10, "max_scale": 16, "show_x_labels": true, "style": {"font_family": "Consolas, \"Liberation Mono\", Menlo, Courier, monospace", "value_background": "rgba(229, 229, 229, 1)", "colors": ["#909090", "#000000", "#ff0500", "#323299", "#a3413f", "#a3413f", "#657fff", "#657fff"], "value_font_family": "Consolas, \"Liberation Mono\", Menlo, Courier, monospace", "major_label_font_family": "Consolas, \"Liberation Mono\", Menlo, Courier, monospace", "ci_colors": [], "plot_background": "rgba(255, 255, 255, 1)", "value_colors": [], "background": "rgba(249, 249, 249, 1)", "major_guide_stroke_dasharray": "6,6", "tooltip_font_size": 14, "foreground": "rgba(0, 0, 0, .87)", "opacity_hover": ".8", "no_data_font_family": "Consolas, \"Liberation Mono\", Menlo, Courier, monospace", "stroke_opacity": ".8", "tooltip_font_family": "Consolas, \"Liberation Mono\", Menlo, Courier, monospace", "transition": "150ms", "legend_font_family": "Consolas, \"Liberation Mono\", Menlo, Courier, monospace", "title_font_family": "Consolas, \"Liberation Mono\", Menlo, Courier, monospace", "foreground_subtle": "rgba(0, 0, 0, .54)", "major_label_font_size": 10, "value_label_font_family": "Consolas, \"Liberation Mono\", Menlo, Courier, monospace", "stroke_opacity_hover": ".9", "title_font_size": 16, "legend_font_size": 10, "label_font_family": "Consolas, \"Liberation Mono\", Menlo, Courier, monospace", "value_font_size": 16, "value_label_font_size": 10, "no_data_font_size": 64, "opacity": ".7", "label_font_size": 10, "guide_stroke_dasharray": "4,4", "foreground_strong": "rgba(0, 0, 0, 1)"}, "force_uri_protocol": "https", "dots_size": 2.5, "stroke_style": null, "min_scale": 4, "box_mode": "extremes", "logarithmic": false, "margin_left": null, "js": ["//kozea.github.io/pygal.js/2.0.x/pygal-tooltips.min.js"], "defs": [], "tooltip_border_radius": 0, "margin_bottom": null, "print_zeroes": true, "show_y_guides": true, "x_labels": ["-8.96", "-8.76", "-8.56", "-8.36", "-8.16", "-7.96", "-7.76", "-7.56", "-7.36", "-7.16", "-6.96", "-6.76", "-6.56", "-6.36", "-6.16", "-5.96", "-5.76", "-5.56", "-5.36", "-5.16", "-4.96", "-4.76", "-4.56", "-4.36", "-4.16", "-3.96", "-3.76", "-3.56", "-3.36", "-3.16", "-2.96", "-2.76", "-2.56", "-2.36", "-2.16", "-1.96", "-1.76", "-1.56", "-1.36", "-1.16", "-0.96", "-0.76", "-0.56", "-0.36", "-0.16", "0.04", "0.24", "0.44", "0.64", "0.84", "1.04", "1.24", "1.43", "1.63", "1.83", "2.03", "2.23", "2.43", "2.63", "2.83"], "show_dots": false, "show_legend": true, "print_values_position": "center", "x_label_rotation": 60, "show_x_guides": false, "margin": 20, "dynamic_print_values": false, "margin_right": null, "legend_box_size": 12, "legend_at_bottom": false, "legend_at_bottom_columns": null, "x_title": "Observation", "half_pie": false, "show_only_major_dots": false, "x_labels_major_every": 2, "x_labels_major_count": null, "truncate_label": null, "truncate_legend": null, "order_min": null, "missing_value_fill_truncation": "x", "no_data_text": "No data", "x_labels_major": null, "formatter": null, "inner_radius": 0, "interpolate": null, "y_title": "Density", "strict": false, "interpolation_parameters": {}, "y_labels_major_count": null, "margin_top": null, "classes": ["pygal-chart"], "fill": false, "y_label_rotation": 0, "width": 800, "print_labels": false, "y_labels": null, "secondary_range": null, "zero": 0, "include_x_axis": false, "disable_xml_declaration": false, "show_y_labels": true, "stack_from_top": false, "css": ["file://style.css", "file://graph.css"], "show_minor_y_labels": true, "allow_interruptions": false, "y_labels_major_every": null, "height": 600, "range": [0, 0.27578580090479526]}</script><script type="text/javascript" xlink:href="https://kozea.github.io/pygal.js/2.0.x/pygal-tooltips.min.js" /></defs><title>Iteration #11</title><g class="graph line-graph vertical"><rect class="background" height="600" width="800" x="0" y="0" /><g class="plot" transform="translate(144, 46)"><rect class="background" height="472.01923788646684" width="636.0" x="0" y="0" /><g class="axis y always_show"><g class="guides"><path class="axis major line" d="M0.000000 462.941945 h636.000000" /><text class="major" x="-5" y="466.44194485">0</text><title>0</title></g><g class="guides"><path class="guide line" d="M0.000000 430.027658 h636.000000" /><text class="" x="-5" y="433.527657724">0.02</text><title>0.02</title></g><g class="guides"><path class="guide line" d="M0.000000 397.113371 h636.000000" /><text class="" x="-5" y="400.613370598">0.04</text><title>0.04</title></g><g class="guides"><path class="guide line" d="M0.000000 364.199083 h636.000000" /><text class="" x="-5" y="367.699083472">0.06</text><title>0.06</title></g><g class="guides"><path class="guide line" d="M0.000000 331.284796 h636.000000" /><text class="" x="-5" y="334.784796346">0.08</text><title>0.08</title></g><g class="guides"><path class="guide line" d="M0.000000 298.370509 h636.000000" /><text class="" x="-5" y="301.87050922">0.1</text><title>0.1</title></g><g class="guides"><path class="guide line" d="M0.000000 265.456222 h636.000000" /><text class="" x="-5" y="268.956222094">0.12</text><title>0.12</title></g><g class="guides"><path class="guide line" d="M0.000000 232.541935 h636.000000" /><text class="" x="-5" y="236.041934968">0.14</text><title>0.14</title></g><g class="guides"><path class="guide line" d="M0.000000 199.627648 h636.000000" /><text class="" x="-5" y="203.127647841">0.16</text><title>0.16</title></g><g class="guides"><path class="guide line" d="M0.000000 166.713361 h636.000000" /><text class="" x="-5" y="170.213360715">0.18</text><title>0.18</title></g><g class="guides"><path class="guide line" d="M0.000000 133.799074 h636.000000" /><text class="" x="-5" y="137.299073589">0.2</text><title>0.2</title></g><g class="guides"><path class="guide line" d="M0.000000 100.884786 h636.000000" /><text class="" x="-5" y="104.384786463">0.22</text><title>0.22</title></g><g class="guides"><path class="guide line" d="M0.000000 67.970499 h636.000000" /><text class="" x="-5" y="71.4704993371">0.24</text><title>0.24</title></g><g class="guides"><path class="guide line" d="M0.000000 35.056212 h636.000000" /><text class="" x="-5" y="38.5562122111">0.26</text><title>0.26</title></g></g><g class="axis x"><g class="guides"><path class="major line" d="M12.230769 0.000000 v472.019238" /><text class="major" transform="rotate(60 12.230769 487.019238)" x="12.230769230769232" y="487.01923788646684">-8.96</text></g><g class="guides"><path class="major guide line" d="M32.960887 0.000000 v472.019238" /><text class="major" transform="rotate(60 32.960887 487.019238)" x="32.96088657105606" y="487.01923788646684">-8.56</text></g><g class="guides"><path class="major guide line" d="M53.691004 0.000000 v472.019238" /><text class="major" transform="rotate(60 53.691004 487.019238)" x="53.6910039113429" y="487.01923788646684">-8.16</text></g><g class="guides"><path class="major guide line" d="M74.421121 0.000000 v472.019238" /><text class="major" transform="rotate(60 74.421121 487.019238)" x="74.42112125162973" y="487.01923788646684">-7.76</text></g><g class="guides"><path class="major guide line" d="M95.151239 0.000000 v472.019238" /><text class="major" transform="rotate(60 95.151239 487.019238)" x="95.15123859191655" y="487.01923788646684">-7.36</text></g><g class="guides"><path class="major guide line" d="M115.881356 0.000000 v472.019238" /><text class="major" transform="rotate(60 115.881356 487.019238)" x="115.88135593220338" y="487.01923788646684">-6.96</text></g><g class="guides"><path class="major guide line" d="M136.611473 0.000000 v472.019238" /><text class="major" transform="rotate(60 136.611473 487.019238)" x="136.61147327249023" y="487.01923788646684">-6.56</text></g><g class="guides"><path class="major guide line" d="M157.341591 0.000000 v472.019238" /><text class="major" transform="rotate(60 157.341591 487.019238)" x="157.34159061277705" y="487.01923788646684">-6.16</text></g><g class="guides"><path class="major guide line" d="M178.071708 0.000000 v472.019238" /><text class="major" transform="rotate(60 178.071708 487.019238)" x="178.0717079530639" y="487.01923788646684">-5.76</text></g><g class="guides"><path class="major guide line" d="M198.801825 0.000000 v472.019238" /><text class="major" transform="rotate(60 198.801825 487.019238)" x="198.80182529335073" y="487.01923788646684">-5.36</text></g><g class="guides"><path class="major guide line" d="M219.531943 0.000000 v472.019238" /><text class="major" transform="rotate(60 219.531943 487.019238)" x="219.53194263363756" y="487.01923788646684">-4.96</text></g><g class="guides"><path class="major guide line" d="M240.262060 0.000000 v472.019238" /><text class="major" transform="rotate(60 240.262060 487.019238)" x="240.2620599739244" y="487.01923788646684">-4.56</text></g><g class="guides"><path class="major guide line" d="M260.992177 0.000000 v472.019238" /><text class="major" transform="rotate(60 260.992177 487.019238)" x="260.99217731421123" y="487.01923788646684">-4.16</text></g><g class="guides"><path class="major guide line" d="M281.722295 0.000000 v472.019238" /><text class="major" transform="rotate(60 281.722295 487.019238)" x="281.722294654498" y="487.01923788646684">-3.76</text></g><g class="guides"><path class="major guide line" d="M302.452412 0.000000 v472.019238" /><text class="major" transform="rotate(60 302.452412 487.019238)" x="302.4524119947849" y="487.01923788646684">-3.36</text></g><g class="guides"><path class="major guide line" d="M323.182529 0.000000 v472.019238" /><text class="major" transform="rotate(60 323.182529 487.019238)" x="323.1825293350717" y="487.01923788646684">-2.96</text></g><g class="guides"><path class="major guide line" d="M343.912647 0.000000 v472.019238" /><text class="major" transform="rotate(60 343.912647 487.019238)" x="343.91264667535853" y="487.01923788646684">-2.56</text></g><g class="guides"><path class="major guide line" d="M364.642764 0.000000 v472.019238" /><text class="major" transform="rotate(60 364.642764 487.019238)" x="364.64276401564535" y="487.01923788646684">-2.16</text></g><g class="guides"><path class="major guide line" d="M385.372881 0.000000 v472.019238" /><text class="major" transform="rotate(60 385.372881 487.019238)" x="385.37288135593224" y="487.01923788646684">-1.76</text></g><g class="guides"><path class="major guide line" d="M406.102999 0.000000 v472.019238" /><text class="major" transform="rotate(60 406.102999 487.019238)" x="406.102998696219" y="487.01923788646684">-1.36</text></g><g class="guides"><path class="major guide line" d="M426.833116 0.000000 v472.019238" /><text class="major" transform="rotate(60 426.833116 487.019238)" x="426.8331160365058" y="487.01923788646684">-0.96</text></g><g class="guides"><path class="major guide line" d="M447.563233 0.000000 v472.019238" /><text class="major" transform="rotate(60 447.563233 487.019238)" x="447.56323337679265" y="487.01923788646684">-0.56</text></g><g class="guides"><path class="major guide line" d="M468.293351 0.000000 v472.019238" /><text class="major" transform="rotate(60 468.293351 487.019238)" x="468.29335071707953" y="487.01923788646684">-0.16</text></g><g class="guides"><path class="major guide line" d="M489.023468 0.000000 v472.019238" /><text class="major" transform="rotate(60 489.023468 487.019238)" x="489.02346805736636" y="487.01923788646684">0.24</text></g><g class="guides"><path class="major guide line" d="M509.753585 0.000000 v472.019238" /><text class="major" transform="rotate(60 509.753585 487.019238)" x="509.75358539765324" y="487.01923788646684">0.64</text></g><g class="guides"><path class="major guide line" d="M530.483703 0.000000 v472.019238" /><text class="major" transform="rotate(60 530.483703 487.019238)" x="530.48370273794" y="487.01923788646684">1.04</text></g><g class="guides"><path class="major guide line" d="M551.213820 0.000000 v472.019238" /><text class="major" transform="rotate(60 551.213820 487.019238)" x="551.213820078227" y="487.01923788646684">1.43</text></g><g class="guides"><path class="major guide line" d="M571.943937 0.000000 v472.019238" /><text class="major" transform="rotate(60 571.943937 487.019238)" x="571.9439374185138" y="487.01923788646684">1.83</text></g><g class="guides"><path class="major guide line" d="M592.674055 0.000000 v472.019238" /><text class="major" transform="rotate(60 592.674055 487.019238)" x="592.6740547588006" y="487.01923788646684">2.23</text></g><g class="guides"><path class="major guide line" d="M613.404172 0.000000 v472.019238" /><text class="major" transform="rotate(60 613.404172 487.019238)" x="613.4041720990874" y="487.01923788646684">2.63</text></g></g><g class="series serie-0 color-0"><path class="line reactive" d="M12.230769 462.941945 L12.230769 462.019456 22.595828 462.941945 32.960887 461.096967 43.325945 462.019456 53.691004 459.251988 64.056063 462.019456 74.421121 458.329499 84.786180 462.019456 95.151239 458.329499 105.516297 462.019456 115.881356 448.182119 126.246415 460.174477 136.611473 457.407010 146.976532 457.407010 157.341591 451.872075 167.706649 448.182119 178.071708 454.639543 188.436767 445.414651 198.801825 442.647184 209.166884 436.189760 219.531943 437.112249 229.897001 392.832771 240.262060 396.522728 250.627119 376.227967 260.992177 355.933206 271.357236 351.320760 281.722295 325.491065 292.087353 277.521630 302.452412 283.056565 312.817471 202.800010 323.182529 188.040184 333.547588 169.590402 343.912647 123.465945 354.277705 95.791271 364.642764 67.194108 375.007823 82.876423 385.372881 60.736684 395.737940 80.108956 406.102999 29.372054 416.468057 9.077293 426.833116 70.884065 437.198175 69.039086 447.563233 41.364413 457.928292 40.441923 468.293351 91.178826 478.658409 140.993239 489.023468 214.792369 499.388527 259.071847 509.753585 321.801108 520.118644 364.235608 530.483703 408.515086 540.848761 430.654825 551.213820 448.182119 561.578879 455.562032 571.943937 458.329499 582.308996 458.329499 592.674055 462.019456 603.039113 462.941945 613.404172 462.019456 623.769231 462.941945" /></g><g class="series serie-1 color-1"><path class="line reactive nofill" d="M12.230769 462.920955 L22.595828 462.904610 32.960887 462.876854 43.325945 462.830711 53.691004 462.755622 64.056063 462.636029 74.421121 462.449627 84.786180 462.165341 95.151239 461.741170 105.516297 461.122108 115.881356 460.238533 126.246415 459.005531 136.611473 457.323732 146.976532 455.082265 157.341591 452.164350 167.706649 448.455816 178.071708 443.856368 188.436767 438.292674 198.801825 431.731031 209.166884 424.185331 219.531943 415.712860 229.897001 406.386617 240.262060 396.230295 250.627119 385.106066 260.992177 372.563700 271.357236 357.698209 281.722295 339.115385 292.087353 315.139619 302.452412 284.364359 312.817471 246.499900 323.182529 203.236618 333.547588 158.635344 343.912647 118.563834 354.277705 89.039846 364.642764 73.933265 375.007823 73.011698 385.372881 81.412050 395.737940 91.110614 406.102999 94.033301 416.468057 85.567763 426.833116 66.898570 437.198175 45.010712 447.563233 30.230230 457.928292 32.309777 468.293351 56.748959 478.658409 102.900924 489.023468 164.525334 499.388527 232.292073 509.753585 296.946338 520.118644 351.788559 530.483703 393.711501 540.848761 422.833881 551.213820 441.320488 561.578879 452.087408 571.943937 457.859454 582.308996 460.716166 592.674055 462.025780 603.039113 462.584387 613.404172 462.807635 623.769231 462.892213" /></g><g class="series serie-2 color-2"><path class="line reactive nofill" d="M12.230769 462.941945 L22.595828 462.941945 32.960887 462.941945 43.325945 462.941945 53.691004 462.941945 64.056063 462.941945 74.421121 462.941945 84.786180 462.941945 95.151239 462.941945 105.516297 462.941945 115.881356 462.941945 126.246415 462.941945 136.611473 462.941945 146.976532 462.941945 157.341591 462.941945 167.706649 462.941945 178.071708 462.941945 188.436767 462.941945 198.801825 462.941945 209.166884 462.941945 219.531943 462.941944 229.897001 462.941938 240.262060 462.941911 250.627119 462.941790 260.992177 462.941296 271.357236 462.939410 281.722295 462.932753 292.087353 462.910972 302.452412 462.844965 312.817471 462.659781 323.182529 462.179068 333.547588 461.025235 343.912647 458.466701 354.277705 453.231386 364.642764 443.360514 375.007823 426.245836 385.372881 399.031658 395.737940 359.500763 406.102999 307.351857 416.468057 245.458116 426.833116 180.443148 437.198175 121.956299 447.563233 80.497666 457.928292 64.382444 468.293351 77.029036 478.658409 115.779362 489.023468 172.807920 499.388527 237.694498 509.753585 300.503522 520.118644 354.134980 530.483703 395.250396 540.848761 423.831526 551.213820 441.957326 561.578879 452.486785 571.943937 458.105213 582.308996 460.864469 592.674055 462.113517 603.039113 462.635269 613.404172 462.836558 623.769231 462.908329" /></g><g class="series serie-3 color-3"><path class="line reactive nofill" d="M12.230769 462.920955 L22.595828 462.904610 32.960887 462.876854 43.325945 462.830711 53.691004 462.755622 64.056063 462.636029 74.421121 462.449627 84.786180 462.165341 95.151239 461.741170 105.516297 461.122108 115.881356 460.238533 126.246415 459.005531 136.611473 457.323732 146.976532 455.082265 157.341591 452.164350 167.706649 448.455816 178.071708 443.856368 188.436767 438.292674 198.801825 431.731031 209.166884 424.185331 219.531943 415.712861 229.897001 406.386624 240.262060 396.230329 250.627119 385.106221 260.992177 372.564349 271.357236 357.700743 281.722295 339.124577 292.087353 315.170592 302.452412 284.461339 312.817471 246.782063 323.182529 203.999495 333.547588 160.552053 343.912647 123.039078 354.277705 98.750405 364.642764 93.514695 375.007823 109.707807 385.372881 145.322337 395.737940 194.551796 406.102999 249.623389 416.468057 303.051592 426.833116 349.397367 437.198175 385.996358 447.563233 412.674508 457.928292 430.869278 468.293351 442.661868 478.658409 450.063506 489.023468 454.659359 499.388527 457.539520 509.753585 459.384761 520.118644 460.595523 530.483703 461.403049 540.848761 461.944300 551.213820 462.305107 561.578879 462.542568 571.943937 462.696185 582.308996 462.793642 592.674055 462.854208 603.039113 462.891064 613.404172 462.913021 623.769231 462.925829" /></g><g class="series serie-4 color-4"><path class="line reactive nofill" d="M12.230769 462.941945 L22.595828 462.941945 32.960887 462.941945 43.325945 462.941945 53.691004 462.941945 64.056063 462.941945 74.421121 462.941945 84.786180 462.941945 95.151239 462.941945 105.516297 462.941945 115.881356 462.941945 126.246415 462.941945 136.611473 462.941945 146.976532 462.941945 157.341591 462.941945 167.706649 462.941945 178.071708 462.941945 188.436767 462.941945 198.801825 462.941945 209.166884 462.941945 219.531943 462.941944 229.897001 462.941939 240.262060 462.941916 250.627119 462.941817 260.992177 462.941417 271.357236 462.939920 281.722295 462.934743 292.087353 462.918173 302.452412 462.869136 312.817471 462.735018 323.182529 462.396235 333.547588 461.606518 343.912647 459.909509 354.277705 456.552307 364.642764 450.448738 375.007823 440.275435 385.372881 424.781941 395.737940 403.328363 406.102999 376.525762 416.468057 346.701308 426.833116 317.853131 437.198175 294.897977 447.563233 282.338940 457.928292 282.831018 468.293351 296.267814 478.658409 319.818961 489.023468 348.900263 499.388527 378.621888 509.753585 405.090899 520.118644 426.111702 530.483703 441.184344 540.848761 451.014965 551.213820 456.875099 561.578879 460.078370 571.943937 461.687744 582.308996 462.432216 592.674055 462.749714 603.039113 462.874675 613.404172 462.920101 623.769231 462.935363" /></g><g class="series serie-5 color-5"><path class="line reactive nofill" d="M12.230769 462.941945 L22.595828 462.941945 32.960887 462.941945 43.325945 462.941945 53.691004 462.941945 64.056063 462.941945 74.421121 462.941945 84.786180 462.941945 95.151239 462.941945 105.516297 462.941945 115.881356 462.941945 126.246415 462.941945 136.611473 462.941945 146.976532 462.941945 157.341591 462.941945 167.706649 462.941945 178.071708 462.941945 188.436767 462.941945 198.801825 462.941945 209.166884 462.941945 219.531943 462.941945 229.897001 462.941944 240.262060 462.941939 250.627119 462.941918 260.992177 462.941824 271.357236 462.941435 281.722295 462.939955 292.087353 462.934744 302.452412 462.917774 312.817471 462.866708 323.182529 462.724777 333.547588 462.360662 343.912647 461.499137 354.277705 459.621024 364.642764 455.853721 375.007823 448.912346 385.372881 437.191662 395.737940 419.114345 406.102999 393.768039 416.468057 361.698753 426.833116 325.531962 437.198175 290.000266 447.563233 261.100671 457.928292 244.493371 468.293351 243.703166 478.658409 258.902347 489.023468 286.849602 499.388527 322.014555 509.753585 358.354568 520.118644 390.965224 530.483703 417.007997 540.848761 435.758505 551.213820 448.024172 561.578879 455.350360 571.943937 459.359414 582.308996 461.374197 592.674055 462.305748 603.039113 462.702538 613.404172 462.858402 623.769231 462.914911" /></g><g class="series serie-6 color-6"><path class="line reactive nofill" d="M12.230769 462.920955 L22.595828 462.904610 32.960887 462.876854 43.325945 462.830711 53.691004 462.755622 64.056063 462.636029 74.421121 462.449627 84.786180 462.165341 95.151239 461.741170 105.516297 461.122108 115.881356 460.238533 126.246415 459.005532 136.611473 457.323736 146.976532 455.082282 157.341591 452.164429 167.706649 448.456154 178.071708 443.857720 188.436767 438.297695 198.801825 431.748349 209.166884 424.240779 219.531943 415.877664 229.897001 406.841336 240.262060 397.394996 250.627119 387.875446 260.992177 378.676678 271.357236 370.224851 281.722295 362.946599 292.087353 357.233780 302.452412 353.408677 312.817471 351.693917 323.182529 352.191019 333.547588 354.870445 343.912647 359.574506 354.277705 366.032724 364.642764 373.887579 375.007823 382.727221 385.372881 392.120996 395.737940 401.653563 406.102999 410.953918 416.468057 419.716718 426.833116 427.714593 437.198175 434.801466 447.563233 440.908027 457.928292 446.031278 468.293351 450.220439 478.658409 453.561465 489.023468 456.162090 499.388527 458.138813 509.753585 459.606626 520.118644 460.671772 530.483703 461.427375 540.848761 461.951504 551.213820 462.307087 561.578879 462.543073 571.943937 462.696305 582.308996 462.793668 592.674055 462.854213 603.039113 462.891065 613.404172 462.913022 623.769231 462.925829" /></g><g class="series serie-7 color-7"><path class="line reactive nofill" d="M12.230769 462.941945 L22.595828 462.941945 32.960887 462.941945 43.325945 462.941945 53.691004 462.941945 64.056063 462.941945 74.421121 462.941945 84.786180 462.941945 95.151239 462.941945 105.516297 462.941945 115.881356 462.941945 126.246415 462.941944 136.611473 462.941941 146.976532 462.941928 157.341591 462.941867 167.706649 462.941607 178.071708 462.940593 188.436767 462.936924 198.801825 462.924627 209.166884 462.886497 219.531943 462.777142 229.897001 462.487232 240.262060 461.777278 250.627119 460.172719 260.992177 456.829616 271.357236 450.417837 281.722295 439.119923 292.087353 420.878757 302.452412 393.994607 312.817471 358.030091 323.182529 314.750422 333.547588 268.623553 343.912647 226.406517 354.277705 195.659626 364.642764 182.569061 375.007823 189.922531 385.372881 216.143286 395.737940 255.840178 406.102999 301.611416 416.468057 346.276819 426.833116 384.624719 437.198175 414.136837 447.563233 434.708426 457.928292 447.779945 468.293351 455.383374 478.658409 459.443986 489.023468 461.439213 499.388527 462.342651 509.753585 462.720079 520.118644 462.865696 530.483703 462.917619 540.848761 462.934741 551.213820 462.939964 561.578879 462.941439 571.943937 462.941825 582.308996 462.941919 592.674055 462.941939 603.039113 462.941944 613.404172 462.941945 623.769231 462.941945" /></g></g><g class="titles"><text class="title plot_title" x="400.0" y="26">Iteration #11</text><text class="title" x="462.0" y="580.0">Observation</text><text class="title" transform="rotate(-90 64.000000 282.009619)" x="64.0" y="308.0096189432334">Density</text></g><g class="plot overlay" transform="translate(144, 46)"><g class="series serie-0 color-0" /><g class="series serie-1 color-1" /><g class="series serie-2 color-2" /><g class="series serie-3 color-3" /><g class="series serie-4 color-4" /><g class="series serie-5 color-5" /><g class="series serie-6 color-6" /><g class="series serie-7 color-7" /></g><g class="plot text-overlay" transform="translate(144, 46)"><g class="series serie-0 color-0" /><g class="series serie-1 color-1" /><g class="series serie-2 color-2" /><g class="series serie-3 color-3" /><g class="series serie-4 color-4" /><g class="series serie-5 color-5" /><g class="series serie-6 color-6" /><g class="series serie-7 color-7" /></g><g class="plot tooltip-overlay" transform="translate(144, 46)"><g class="tooltip" style="opacity: 0" transform="translate(0 0)"><rect class="tooltip-box" height="0" rx="0" ry="0" width="0" /><g class="text" /></g></g><g class="legends" transform="translate(10, 56)"><g class="legend reactive activate-serie" id="activate-serie-0"><rect class="color-0 reactive" height="12" width="12" x="0.0" y="0.0" /><text x="17.0" y="9.0">Data</text></g><g class="legend reactive activate-serie" id="activate-serie-1"><rect class="color-1 reactive" height="12" width="12" x="0.0" y="18.0" /><text x="17.0" y="27.0">GMM</text></g><g class="legend reactive activate-serie" id="activate-serie-2"><rect class="color-2 reactive" height="12" width="12" x="0.0" y="36.0" /><text x="17.0" y="45.0">i=0</text></g><g class="legend reactive activate-serie" id="activate-serie-3"><rect class="color-3 reactive" height="12" width="12" x="0.0" y="54.0" /><text x="17.0" y="63.0">i=1</text></g><g class="legend reactive activate-serie" id="activate-serie-4"><rect class="color-4 reactive" height="12" width="12" x="0.0" y="72.0" /><text x="17.0" y="81.0">i=0 k=0</text></g><g class="legend reactive activate-serie" id="activate-serie-5"><rect class="color-5 reactive" height="12" width="12" x="0.0" y="90.0" /><text x="17.0" y="99.0">i=0 k=1</text></g><g class="legend reactive activate-serie" id="activate-serie-6"><rect class="color-6 reactive" height="12" width="12" x="0.0" y="108.0" /><text x="17.0" y="117.0">i=1 k=0</text></g><g class="legend reactive activate-serie" id="activate-serie-7"><rect class="color-7 reactive" height="12" width="12" x="0.0" y="126.0" /><text x="17.0" y="135.0">i=1 k=1</text></g></g><g class="legends" transform="translate(790, 56)" /></g></svg>