<?xml version='1.0' encoding='utf-8'?>
<svg xmlns:xlink="http://www.w3.org/1999/xlink" class="pygal-chart" id="chart-f6b7df95-7bf8-4eb8-8aa2-488859c949ae" viewBox="0 0 800 600" xmlns="http://www.w3.org/2000/svg"><!--Generated with pygal 2.4.0 (etree) ©Kozea 2012-2016 on 2017-12-19--><!--http://pygal.org--><!--http://github.com/Kozea/pygal--><defs><style type="text/css">#chart-f6b7df95-7bf8-4eb8-8aa2-488859c949ae{-webkit-user-select:none;-webkit-font-smoothing:antialiased;font-family:Consolas,"Liberation Mono",Menlo,Courier,monospace}#chart-f6b7df95-7bf8-4eb8-8aa2-488859c949ae .title{font-family:Consolas,"Liberation Mono",Menlo,Courier,monospace;font-size:16px}#chart-f6b7df95-7bf8-4eb8-8aa2-488859c949ae .legends .legend text{font-family:Consolas,"Liberation Mono",Menlo,Courier,monospace;font-size:10px}#chart-f6b7df95-7bf8-4eb8-8aa2-488859c949ae .axis text{font-family:Consolas,"Liberation Mono",Menlo,Courier,monospace;font-size:10px}#chart-f6b7df95-7bf8-4eb8-8aa2-488859c949ae .axis text.major{font-family:Consolas,"Liberation Mono",Menlo,Courier,monospace;font-size:10px}#chart-f6b7df95-7bf8-4eb8-8aa2-488859c949ae .text-overlay text.value{font-family:Consolas,"Liberation Mono",Menlo,Courier,monospace;font-size:16px}#chart-f6b7df95-7bf8-4eb8-8aa2-488859c949ae .text-overlay text.label{font-family:Consolas,"Liberation Mono",Menlo,Courier,monospace;font-size:10px}#chart-f6b7df95-7bf8-4eb8-8aa2-488859c949ae .tooltip{font-family:Consolas,"Liberation Mono",Menlo,Courier,monospace;font-size:14px}#chart-f6b7df95-7bf8-4eb8-8aa2-488859c949ae text.no_data{font-family:Consolas,"Liberation Mono",Menlo,Courier,monospace;font-size:64px}
#chart-f6b7df95-7bf8-4eb8-8aa2-488859c949ae{background-color:rgba(249,249,249,1)}#chart-f6b7df95-7bf8-4eb8-8aa2-488859c949ae path,#chart-f6b7df95-7bf8-4eb8-8aa2-488859c949ae line,#chart-f6b7df95-7bf8-4eb8-8aa2-488859c949ae rect,#chart-f6b7df95-7bf8-4eb8-8aa2-488859c949ae circle{-webkit-transition:150ms;-moz-transition:150ms;transition:150ms}#chart-f6b7df95-7bf8-4eb8-8aa2-488859c949ae .graph &gt; .background{fill:rgba(249,249,249,1)}#chart-f6b7df95-7bf8-4eb8-8aa2-488859c949ae .plot &gt; .background{fill:rgba(255,255,255,1)}#chart-f6b7df95-7bf8-4eb8-8aa2-488859c949ae .graph{fill:rgba(0,0,0,.87)}#chart-f6b7df95-7bf8-4eb8-8aa2-488859c949ae text.no_data{fill:rgba(0,0,0,1)}#chart-f6b7df95-7bf8-4eb8-8aa2-488859c949ae .title{fill:rgba(0,0,0,1)}#chart-f6b7df95-7bf8-4eb8-8aa2-488859c949ae .legends .legend text{fill:rgba(0,0,0,.87)}#chart-f6b7df95-7bf8-4eb8-8aa2-488859c949ae .legends .legend:hover text{fill:rgba(0,0,0,1)}#chart-f6b7df95-7bf8-4eb8-8aa2-488859c949ae .axis .line{stroke:rgba(0,0,0,1)}#chart-f6b7df95-7bf8-4eb8-8aa2-488859c949ae .axis .guide.line{stroke:rgba(0,0,0,.54)}#chart-f6b7df95-7bf8-4eb8-8aa2-488859c949ae .axis .major.line{stroke:rgba(0,0,0,.87)}#chart-f6b7df95-7bf8-4eb8-8aa2-488859c949ae .axis text.major{fill:rgba(0,0,0,1)}#chart-f6b7df95-7bf8-4eb8-8aa2-488859c949ae .axis.y .guides:hover .guide.line,#chart-f6b7df95-7bf8-4eb8-8aa2-488859c949ae .line-graph .axis.x .guides:hover .guide.line,#chart-f6b7df95-7bf8-4eb8-8aa2-488859c949ae .stackedline-graph .axis.x .guides:hover .guide.line,#chart-f6b7df95-7bf8-4eb8-8aa2-488859c949ae .xy-graph .axis.x .guides:hover .guide.line{stroke:rgba(0,0,0,1)}#chart-f6b7df95-7bf8-4eb8-8aa2-488859c949ae .axis .guides:hover text{fill:rgba(0,0,0,1)}#chart-f6b7df95-7bf8-4eb8-8aa2-488859c949ae .reactive{fill-opacity:.7;stroke-opacity:.8}#chart-f6b7df95-7bf8-4eb8-8aa2-488859c949ae .ci{stroke:rgba(0,0,0,.87)}#chart-f6b7df95-7bf8-4eb8-8aa2-488859c949ae .reactive.active,#chart-f6b7df95-7bf8-4eb8-8aa2-488859c949ae .active .reactive{fill-opacity:.8;stroke-opacity:.9;stroke-width:4}#chart-f6b7df95-7bf8-4eb8-8aa2-488859c949ae .ci .reactive.active{stroke-width:1.5}#chart-f6b7df95-7bf8-4eb8-8aa2-488859c949ae .series text{fill:rgba(0,0,0,1)}#chart-f6b7df95-7bf8-4eb8-8aa2-488859c949ae .tooltip rect{fill:rgba(255,255,255,1);stroke:rgba(0,0,0,1);-webkit-transition:opacity 150ms;-moz-transition:opacity 150ms;transition:opacity 150ms}#chart-f6b7df95-7bf8-4eb8-8aa2-488859c949ae .tooltip .label{fill:rgba(0,0,0,.87)}#chart-f6b7df95-7bf8-4eb8-8aa2-488859c949ae .tooltip .label{fill:rgba(0,0,0,.87)}#chart-f6b7df95-7bf8-4eb8-8aa2-488859c949ae .tooltip .legend{font-size:.8em;fill:rgba(0,0,0,.54)}#chart-f6b7df95-7bf8-4eb8-8aa2-488859c949ae .tooltip .x_label{font-size:.6em;fill:rgba(0,0,0,1)}#chart-f6b7df95-7bf8-4eb8-8aa2-488859c949ae .tooltip .xlink{font-size:.5em;text-decoration:underline}#chart-f6b7df95-7bf8-4eb8-8aa2-488859c949ae .tooltip .value{font-size:1.5em}#chart-f6b7df95-7bf8-4eb8-8aa2-488859c949ae .bound{font-size:.5em}#chart-f6b7df95-7bf8-4eb8-8aa2-488859c949ae .max-value{font-size:.75em;fill:rgba(0,0,0,.54)}#chart-f6b7df95-7bf8-4eb8-8aa2-488859c949ae .map-element{fill:rgba(255,255,255,1);stroke:rgba(0,0,0,.54) !important}#chart-f6b7df95-7bf8-4eb8-8aa2-488859c949ae .map-element .reactive{fill-opacity:inherit;stroke-opacity:inherit}#chart-f6b7df95-7bf8-4eb8-8aa2-488859c949ae .color-0,#chart-f6b7df95-7bf8-4eb8-8aa2-488859c949ae .color-0 a:visited{stroke:#909090;fill:#909090}#chart-f6b7df95-7bf8-4eb8-8aa2-488859c949ae .color-1,#chart-f6b7df95-7bf8-4eb8-8aa2-488859c949ae .color-1 a:visited{stroke:#000000;fill:#000000}#chart-f6b7df95-7bf8-4eb8-8aa2-488859c949ae .color-2,#chart-f6b7df95-7bf8-4eb8-8aa2-488859c949ae .color-2 a:visited{stroke:#ff0500;fill:#ff0500}#chart-f6b7df95-7bf8-4eb8-8aa2-488859c949ae .color-3,#chart-f6b7df95-7bf8-4eb8-8aa2-488859c949ae .color-3 a:visited{stroke:#323299;fill:#323299}#chart-f6b7df95-7bf8-4eb8-8aa2-488859c949ae .color-4,#chart-f6b7df95-7bf8-4eb8-8aa2-488859c949ae .color-4 a:visited{stroke:#a3413f;fill:#a3413f}#chart-f6b7df95-7bf8-4eb8-8aa2-488859c949ae .color-5,#chart-f6b7df95-7bf8-4eb8-8aa2-488859c949ae .color-5 a:visited{stroke:#a3413f;fill:#a3413f}#chart-f6b7df95-7bf8-4eb8-8aa2-488859c949ae .color-6,#chart-f6b7df95-7bf8-4eb8-8aa2-488859c949ae .color-6 a:visited{stroke:#a3413f;fill:#a3413f}#chart-f6b7df95-7bf8-4eb8-8aa2-488859c949ae .color-7,#chart-f6b7df95-7bf8-4eb8-8aa2-488859c949ae .color-7 a:visited{stroke:#a3413f;fill:#a3413f}#chart-f6b7df95-7bf8-4eb8-8aa2-488859c949ae .color-8,#chart-f6b7df95-7bf8-4eb8-8aa2-488859c949ae .color-8 a:visited{stroke:#a3413f;fill:#a3413f}#chart-f6b7df95-7bf8-4eb8-8aa2-488859c949ae .color-9,#chart-f6b7df95-7bf8-4eb8-8aa2-488859c949ae .color-9 a:visited{stroke:#657fff;fill:#657fff}#chart-f6b7df95-7bf8-4eb8-8aa2-488859c949ae .color-10,#chart-f6b7df95-7bf8-4eb8-8aa2-488859c949ae .color-10 a:visited{stroke:#657fff;fill:#657fff}#chart-f6b7df95-7bf8-4eb8-8aa2-488859c949ae .color-11,#chart-f6b7df95-7bf8-4eb8-8aa2-488859c949ae .color-11 a:visited{stroke:#657fff;fill:#657fff}#chart-f6b7df95-7bf8-4eb8-8aa2-488859c949ae .color-12,#chart-f6b7df95-7bf8-4eb8-8aa2-488859c949ae .color-12 a:visited{stroke:#657fff;fill:#657fff}#chart-f6b7df95-7bf8-4eb8-8aa2-488859c949ae .color-13,#chart-f6b7df95-7bf8-4eb8-8aa2-488859c949ae .color-13 a:visited{stroke:#657fff;fill:#657fff}#chart-f6b7df95-7bf8-4eb8-8aa2-488859c949ae .text-overlay .color-0 text{fill:black}#chart-f6b7df95-7bf8-4eb8-8aa2-488859c949ae .text-overlay .color-1 text{fill:white}#chart-f6b7df95-7bf8-4eb8-8aa2-488859c949ae .text-overlay .color-2 text{fill:black}#chart-f6b7df95-7bf8-4eb8-8aa2-488859c949ae .text-overlay .color-3 text{fill:black}#chart-f6b7df95-7bf8-4eb8-8aa2-488859c949ae .text-overlay .color-4 text{fill:black}#chart-f6b7df95-7bf8-4eb8-8aa2-488859c949ae .text-overlay .color-5 text{fill:black}#chart-f6b7df95-7bf8-4eb8-8aa2-488859c949ae .text-overlay .color-6 text{fill:black}#chart-f6b7df95-7bf8-4eb8-8aa2-488859c949ae .text-overlay .color-7 text{fill:black}#chart-f6b7df95-7bf8-4eb8-8aa2-488859c949ae .text-overlay .color-8 text{fill:black}#chart-f6b7df95-7bf8-4eb8-8aa2-488859c949ae .text-overlay .color-9 text{fill:black}#chart-f6b7df95-7bf8-4eb8-8aa2-488859c949ae .text-overlay .color-10 text{fill:black}#chart-f6b7df95-7bf8-4eb8-8aa2-488859c949ae .text-overlay .color-11 text{fill:black}#chart-f6b7df95-7bf8-4eb8-8aa2-488859c949ae .text-overlay .color-12 text{fill:black}#chart-f6b7df95-7bf8-4eb8-8aa2-488859c949ae .text-overlay .color-13 text{fill:black}#chart-f6b7df95-7bf8-4eb8-8aa2-488859c949ae .series.serie-1{stroke-width:5}#chart-f6b7df95-7bf8-4eb8-8aa2-488859c949ae .series.serie-2{stroke-width:3}#chart-f6b7df95-7bf8-4eb8-8aa2-488859c949ae .series.serie-3{stroke-width:3}#chart-f6b7df95-7bf8-4eb8-8aa2-488859c949ae .series.serie-4{stroke-width:2;stroke-dasharray:2,2}#chart-f6b7df95-7bf8-4eb8-8aa2-488859c949ae .series.serie-5{stroke-width:2;stroke-dasharray:2,2}#chart-f6b7df95-7bf8-4eb8-8aa2-488859c949ae .series.serie-6{stroke-width:2;stroke-dasharray:2,2}#chart-f6b7df95-7bf8-4eb8-8aa2-488859c949ae .series.serie-7{stroke-width:2;stroke-dasharray:2,2}#chart-f6b7df95-7bf8-4eb8-8aa2-488859c949ae .series.serie-8{stroke-width:2;stroke-dasharray:2,2}#chart-f6b7df95-7bf8-4eb8-8aa2-488859c949ae .series.serie-9{stroke-width:2;stroke-dasharray:2,2}#chart-f6b7df95-7bf8-4eb8-8aa2-488859c949ae .series.serie-10{stroke-width:2;stroke-dasharray:2,2}#chart-f6b7df95-7bf8-4eb8-8aa2-488859c949ae .series.serie-11{stroke-width:2;stroke-dasharray:2,2}#chart-f6b7df95-7bf8-4eb8-8aa2-488859c949ae .series.serie-12{stroke-width:2;stroke-dasharray:2,2}#chart-f6b7df95-7bf8-4eb8-8aa2-488859c949ae .series.serie-13{stroke-width:2;stroke-dasharray:2,2}
#chart-f6b7df95-7bf8-4eb8-8aa2-488859c949ae text.no_data{text-anchor:middle}#chart-f6b7df95-7bf8-4eb8-8aa2-488859c949ae .guide.line{fill:none}#chart-f6b7df95-7bf8-4eb8-8aa2-488859c949ae .centered{text-anchor:middle}#chart-f6b7df95-7bf8-4eb8-8aa2-488859c949ae .title{text-anchor:middle}#chart-f6b7df95-7bf8-4eb8-8aa2-488859c949ae .legends .legend text{fill-opacity:1}#chart-f6b7df95-7bf8-4eb8-8aa2-488859c949ae .axis.x text{text-anchor:middle}#chart-f6b7df95-7bf8-4eb8-8aa2-488859c949ae .axis.x:not(.web) text[transform]{text-anchor:start}#chart-f6b7df95-7bf8-4eb8-8aa2-488859c949ae .axis.x:not(.web) text[transform].backwards{text-anchor:end}#chart-f6b7df95-7bf8-4eb8-8aa2-488859c949ae .axis.y text{text-anchor:end}#chart-f6b7df95-7bf8-4eb8-8aa2-488859c949ae .axis.y text[transform].backwards{text-anchor:start}#chart-f6b7df95-7bf8-4eb8-8aa2-488859c949ae .axis.y2 text{text-anchor:start}#chart-f6b7df95-7bf8-4eb8-8aa2-488859c949ae .axis.y2 text[transform].backwards{text-anchor:end}#chart-f6b7df95-7bf8-4eb8-8aa2-488859c949ae .axis .guide.line{stroke-dasharray:4,4}#chart-f6b7df95-7bf8-4eb8-8aa2-488859c949ae .axis .major.guide.line{stroke-dasharray:6,6}#chart-f6b7df95-7bf8-4eb8-8aa2-488859c949ae .horizontal .axis.y .guide.line,#chart-f6b7df95-7bf8-4eb8-8aa2-488859c949ae .horizontal .axis.y2 .guide.line,#chart-f6b7df95-7bf8-4eb8-8aa2-488859c949ae .vertical .axis.x .guide.line{opacity:0}#chart-f6b7df95-7bf8-4eb8-8aa2-488859c949ae .horizontal .axis.always_show .guide.line,#chart-f6b7df95-7bf8-4eb8-8aa2-488859c949ae .vertical .axis.always_show .guide.line{opacity:1 !important}#chart-f6b7df95-7bf8-4eb8-8aa2-488859c949ae .axis.y .guides:hover .guide.line,#chart-f6b7df95-7bf8-4eb8-8aa2-488859c949ae .axis.y2 .guides:hover .guide.line,#chart-f6b7df95-7bf8-4eb8-8aa2-488859c949ae .axis.x .guides:hover .guide.line{opacity:1}#chart-f6b7df95-7bf8-4eb8-8aa2-488859c949ae .axis .guides:hover text{opacity:1}#chart-f6b7df95-7bf8-4eb8-8aa2-488859c949ae .nofill{fill:none}#chart-f6b7df95-7bf8-4eb8-8aa2-488859c949ae .subtle-fill{fill-opacity:.2}#chart-f6b7df95-7bf8-4eb8-8aa2-488859c949ae .dot{stroke-width:1px;fill-opacity:1}#chart-f6b7df95-7bf8-4eb8-8aa2-488859c949ae .dot.active{stroke-width:5px}#chart-f6b7df95-7bf8-4eb8-8aa2-488859c949ae .dot.negative{fill:transparent}#chart-f6b7df95-7bf8-4eb8-8aa2-488859c949ae text,#chart-f6b7df95-7bf8-4eb8-8aa2-488859c949ae tspan{stroke:none !important}#chart-f6b7df95-7bf8-4eb8-8aa2-488859c949ae .series text.active{opacity:1}#chart-f6b7df95-7bf8-4eb8-8aa2-488859c949ae .tooltip rect{fill-opacity:.95;stroke-width:.5}#chart-f6b7df95-7bf8-4eb8-8aa2-488859c949ae .tooltip text{fill-opacity:1}#chart-f6b7df95-7bf8-4eb8-8aa2-488859c949ae .showable{visibility:hidden}#chart-f6b7df95-7bf8-4eb8-8aa2-488859c949ae .showable.shown{visibility:visible}#chart-f6b7df95-7bf8-4eb8-8aa2-488859c949ae .gauge-background{fill:rgba(229,229,229,1);stroke:none}#chart-f6b7df95-7bf8-4eb8-8aa2-488859c949ae .bg-lines{stroke:rgba(249,249,249,1);stroke-width:2px}</style><script type="text/javascript">window.pygal = window.pygal || {};window.pygal.config = window.pygal.config || {};window.pygal.config['f6b7df95-7bf8-4eb8-8aa2-488859c949ae'] = {"css": ["file://style.css", "file://graph.css"], "include_x_axis": false, "min_scale": 4, "print_zeroes": true, "show_x_labels": true, "stroke": true, "show_minor_y_labels": true, "inner_radius": 0, "fill": false, "pretty_print": false, "js": ["//kozea.github.io/pygal.js/2.0.x/pygal-tooltips.min.js"], "x_labels": ["-8.96", "-8.76", "-8.56", "-8.36", "-8.16", "-7.96", "-7.76", "-7.56", "-7.36", "-7.16", "-6.96", "-6.76", "-6.56", "-6.36", "-6.16", "-5.96", "-5.76", "-5.56", "-5.36", "-5.16", "-4.96", "-4.76", "-4.56", "-4.36", "-4.16", "-3.96", "-3.76", "-3.56", "-3.36", "-3.16", "-2.96", "-2.76", "-2.56", "-2.36", "-2.16", "-1.96", "-1.76", "-1.56", "-1.36", "-1.16", "-0.96", "-0.76", "-0.56", "-0.36", "-0.16", "0.04", "0.24", "0.44", "0.64", "0.84", "1.04", "1.24", "1.43", "1.63", "1.83", "2.03", "2.23", "2.43", "2.63", "2.83"], "logarithmic": false, "show_minor_x_labels": false, "formatter": null, "tooltip_fancy_mode": true, "defs": [], "stroke_style": null, "spacing": 10, "show_only_major_dots": false, "half_pie": false, "show_legend": true, "dynamic_print_values": false, "max_scale": 16, "explicit_size": false, "y_label_rotation": 0, "y_labels": null, "x_labels_major": null, "margin_top": null, "interpolation_precision": 250, "xrange": null, "order_min": null, "y_title": "Density", "title": "Iteration #2", "x_label_rotation": 60, "interpolation_parameters": {}, "stack_from_top": false, "truncate_legend": null, "x_title": "Observation", "show_y_guides": true, "no_prefix": false, "print_values_position": "center", "show_y_labels": true, "classes": ["pygal-chart"], "force_uri_protocol": "https", "x_labels_major_count": null, "allow_interruptions": false, "width": 800, "height": 600, "secondary_range": null, "box_mode": "extremes", "margin_left": null, "y_labels_major": null, "margin_right": null, "zero": 0, "dots_size": 2.5, "no_data_text": "No data", "show_dots": false, "range": [0, 0.27578580090479526], "truncate_label": null, "margin_bottom": null, "y_labels_major_every": null, "show_x_guides": false, "disable_xml_declaration": false, "print_values": false, "x_labels_major_every": 2, "print_labels": false, "y_labels_major_count": null, "interpolate": null, "legend_at_bottom": false, "style": {"value_font_size": 16, "tooltip_font_family": "Consolas, \"Liberation Mono\", Menlo, Courier, monospace", "major_label_font_family": "Consolas, \"Liberation Mono\", Menlo, Courier, monospace", "value_colors": [], "value_background": "rgba(229, 229, 229, 1)", "foreground_strong": "rgba(0, 0, 0, 1)", "opacity": ".7", "font_family": "Consolas, \"Liberation Mono\", Menlo, Courier, monospace", "label_font_size": 10, "transition": "150ms", "title_font_family": "Consolas, \"Liberation Mono\", Menlo, Courier, monospace", "background": "rgba(249, 249, 249, 1)", "stroke_opacity": ".8", "no_data_font_size": 64, "value_label_font_family": "Consolas, \"Liberation Mono\", Menlo, Courier, monospace", "value_label_font_size": 10, "value_font_family": "Consolas, \"Liberation Mono\", Menlo, Courier, monospace", "plot_background": "rgba(255, 255, 255, 1)", "colors": ["#909090", "#000000", "#ff0500", "#323299", "#a3413f", "#a3413f", "#a3413f", "#a3413f", "#a3413f", "#657fff", "#657fff", "#657fff", "#657fff", "#657fff"], "legend_font_size": 10, "guide_stroke_dasharray": "4,4", "major_label_font_size": 10, "stroke_opacity_hover": ".9", "major_guide_stroke_dasharray": "6,6", "opacity_hover": ".8", "no_data_font_family": "Consolas, \"Liberation Mono\", Menlo, Courier, monospace", "title_font_size": 16, "ci_colors": [], "foreground": "rgba(0, 0, 0, .87)", "foreground_subtle": "rgba(0, 0, 0, .54)", "legend_font_family": "Consolas, \"Liberation Mono\", Menlo, Courier, monospace", "label_font_family": "Consolas, \"Liberation Mono\", Menlo, Courier, monospace", "tooltip_font_size": 14}, "strict": false, "legend_box_size": 12, "tooltip_border_radius": 0, "margin": 20, "legends": ["Data", "GMM", "i=0", "i=1", "i=0 k=0", "i=0 k=1", "i=0 k=2", "i=0 k=3", "i=0 k=4", "i=1 k=0", "i=1 k=1", "i=1 k=2", "i=1 k=3", "i=1 k=4"], "inverse_y_axis": false, "legend_at_bottom_columns": null, "rounded_bars": null, "missing_value_fill_truncation": "x"}</script><script type="text/javascript" xlink:href="https://kozea.github.io/pygal.js/2.0.x/pygal-tooltips.min.js" /></defs><title>Iteration #2</title><g class="graph line-graph vertical"><rect class="background" height="600" width="800" x="0" y="0" /><g class="plot" transform="translate(144, 46)"><rect class="background" height="472.01923788646684" width="636.0" x="0" y="0" /><g class="axis y always_show"><g class="guides"><path class="axis major line" d="M0.000000 462.941945 h636.000000" /><text class="major" x="-5" y="466.44194485">0</text><title>0</title></g><g class="guides"><path class="guide line" d="M0.000000 430.027658 h636.000000" /><text class="" x="-5" y="433.527657724">0.02</text><title>0.02</title></g><g class="guides"><path class="guide line" d="M0.000000 397.113371 h636.000000" /><text class="" x="-5" y="400.613370598">0.04</text><title>0.04</title></g><g class="guides"><path class="guide line" d="M0.000000 364.199083 h636.000000" /><text class="" x="-5" y="367.699083472">0.06</text><title>0.06</title></g><g class="guides"><path class="guide line" d="M0.000000 331.284796 h636.000000" /><text class="" x="-5" y="334.784796346">0.08</text><title>0.08</title></g><g class="guides"><path class="guide line" d="M0.000000 298.370509 h636.000000" /><text class="" x="-5" y="301.87050922">0.1</text><title>0.1</title></g><g class="guides"><path class="guide line" d="M0.000000 265.456222 h636.000000" /><text class="" x="-5" y="268.956222094">0.12</text><title>0.12</title></g><g class="guides"><path class="guide line" d="M0.000000 232.541935 h636.000000" /><text class="" x="-5" y="236.041934968">0.14</text><title>0.14</title></g><g class="guides"><path class="guide line" d="M0.000000 199.627648 h636.000000" /><text class="" x="-5" y="203.127647841">0.16</text><title>0.16</title></g><g class="guides"><path class="guide line" d="M0.000000 166.713361 h636.000000" /><text class="" x="-5" y="170.213360715">0.18</text><title>0.18</title></g><g class="guides"><path class="guide line" d="M0.000000 133.799074 h636.000000" /><text class="" x="-5" y="137.299073589">0.2</text><title>0.2</title></g><g class="guides"><path class="guide line" d="M0.000000 100.884786 h636.000000" /><text class="" x="-5" y="104.384786463">0.22</text><title>0.22</title></g><g class="guides"><path class="guide line" d="M0.000000 67.970499 h636.000000" /><text class="" x="-5" y="71.4704993371">0.24</text><title>0.24</title></g><g class="guides"><path class="guide line" d="M0.000000 35.056212 h636.000000" /><text class="" x="-5" y="38.5562122111">0.26</text><title>0.26</title></g></g><g class="axis x"><g class="guides"><path class="major line" d="M12.230769 0.000000 v472.019238" /><text class="major" transform="rotate(60 12.230769 487.019238)" x="12.230769230769232" y="487.01923788646684">-8.96</text></g><g class="guides"><path class="major guide line" d="M32.960887 0.000000 v472.019238" /><text class="major" transform="rotate(60 32.960887 487.019238)" x="32.96088657105606" y="487.01923788646684">-8.56</text></g><g class="guides"><path class="major guide line" d="M53.691004 0.000000 v472.019238" /><text class="major" transform="rotate(60 53.691004 487.019238)" x="53.6910039113429" y="487.01923788646684">-8.16</text></g><g class="guides"><path class="major guide line" d="M74.421121 0.000000 v472.019238" /><text class="major" transform="rotate(60 74.421121 487.019238)" x="74.42112125162973" y="487.01923788646684">-7.76</text></g><g class="guides"><path class="major guide line" d="M95.151239 0.000000 v472.019238" /><text class="major" transform="rotate(60 95.151239 487.019238)" x="95.15123859191655" y="487.01923788646684">-7.36</text></g><g class="guides"><path class="major guide line" d="M115.881356 0.000000 v472.019238" /><text class="major" transform="rotate(60 115.881356 487.019238)" x="115.88135593220338" y="487.01923788646684">-6.96</text></g><g class="guides"><path class="major guide line" d="M136.611473 0.000000 v472.019238" /><text class="major" transform="rotate(60 136.611473 487.019238)" x="136.61147327249023" y="487.01923788646684">-6.56</text></g><g class="guides"><path class="major guide line" d="M157.341591 0.000000 v472.019238" /><text class="major" transform="rotate(60 157.341591 487.019238)" x="157.34159061277705" y="487.01923788646684">-6.16</text></g><g class="guides"><path class="major guide line" d="M178.071708 0.000000 v472.019238" /><text class="major" transform="rotate(60 178.071708 487.019238)" x="178.0717079530639" y="487.01923788646684">-5.76</text></g><g class="guides"><path class="major guide line" d="M198.801825 0.000000 v472.019238" /><text class="major" transform="rotate(60 198.801825 487.019238)" x="198.80182529335073" y="487.01923788646684">-5.36</text></g><g class="guides"><path class="major guide line" d="M219.531943 0.000000 v472.019238" /><text class="major" transform="rotate(60 219.531943 487.019238)" x="219.53194263363756" y="487.01923788646684">-4.96</text></g><g class="guides"><path class="major guide line" d="M240.262060 0.000000 v472.019238" /><text class="major" transform="rotate(60 240.262060 487.019238)" x="240.2620599739244" y="487.01923788646684">-4.56</text></g><g class="guides"><path class="major guide line" d="M260.992177 0.000000 v472.019238" /><text class="major" transform="rotate(60 260.992177 487.019238)" x="260.99217731421123" y="487.01923788646684">-4.16</text></g><g class="guides"><path class="major guide line" d="M281.722295 0.000000 v472.019238" /><text class="major" transform="rotate(60 281.722295 487.019238)" x="281.722294654498" y="487.01923788646684">-3.76</text></g><g class="guides"><path class="major guide line" d="M302.452412 0.000000 v472.019238" /><text class="major" transform="rotate(60 302.452412 487.019238)" x="302.4524119947849" y="487.01923788646684">-3.36</text></g><g class="guides"><path class="major guide line" d="M323.182529 0.000000 v472.019238" /><text class="major" transform="rotate(60 323.182529 487.019238)" x="323.1825293350717" y="487.01923788646684">-2.96</text></g><g class="guides"><path class="major guide line" d="M343.912647 0.000000 v472.019238" /><text class="major" transform="rotate(60 343.912647 487.019238)" x="343.91264667535853" y="487.01923788646684">-2.56</text></g><g class="guides"><path class="major guide line" d="M364.642764 0.000000 v472.019238" /><text class="major" transform="rotate(60 364.642764 487.019238)" x="364.64276401564535" y="487.01923788646684">-2.16</text></g><g class="guides"><path class="major guide line" d="M385.372881 0.000000 v472.019238" /><text class="major" transform="rotate(60 385.372881 487.019238)" x="385.37288135593224" y="487.01923788646684">-1.76</text></g><g class="guides"><path class="major guide line" d="M406.102999 0.000000 v472.019238" /><text class="major" transform="rotate(60 406.102999 487.019238)" x="406.102998696219" y="487.01923788646684">-1.36</text></g><g class="guides"><path class="major guide line" d="M426.833116 0.000000 v472.019238" /><text class="major" transform="rotate(60 426.833116 487.019238)" x="426.8331160365058" y="487.01923788646684">-0.96</text></g><g class="guides"><path class="major guide line" d="M447.563233 0.000000 v472.019238" /><text class="major" transform="rotate(60 447.563233 487.019238)" x="447.56323337679265" y="487.01923788646684">-0.56</text></g><g class="guides"><path class="major guide line" d="M468.293351 0.000000 v472.019238" /><text class="major" transform="rotate(60 468.293351 487.019238)" x="468.29335071707953" y="487.01923788646684">-0.16</text></g><g class="guides"><path class="major guide line" d="M489.023468 0.000000 v472.019238" /><text class="major" transform="rotate(60 489.023468 487.019238)" x="489.02346805736636" y="487.01923788646684">0.24</text></g><g class="guides"><path class="major guide line" d="M509.753585 0.000000 v472.019238" /><text class="major" transform="rotate(60 509.753585 487.019238)" x="509.75358539765324" y="487.01923788646684">0.64</text></g><g class="guides"><path class="major guide line" d="M530.483703 0.000000 v472.019238" /><text class="major" transform="rotate(60 530.483703 487.019238)" x="530.48370273794" y="487.01923788646684">1.04</text></g><g class="guides"><path class="major guide line" d="M551.213820 0.000000 v472.019238" /><text class="major" transform="rotate(60 551.213820 487.019238)" x="551.213820078227" y="487.01923788646684">1.43</text></g><g class="guides"><path class="major guide line" d="M571.943937 0.000000 v472.019238" /><text class="major" transform="rotate(60 571.943937 487.019238)" x="571.9439374185138" y="487.01923788646684">1.83</text></g><g class="guides"><path class="major guide line" d="M592.674055 0.000000 v472.019238" /><text class="major" transform="rotate(60 592.674055 487.019238)" x="592.6740547588006" y="487.01923788646684">2.23</text></g><g class="guides"><path class="major guide line" d="M613.404172 0.000000 v472.019238" /><text class="major" transform="rotate(60 613.404172 487.019238)" x="613.4041720990874" y="487.01923788646684">2.63</text></g></g><g class="series serie-0 color-0"><path class="line reactive" d="M12.230769 462.941945 L12.230769 462.019456 22.595828 462.941945 32.960887 461.096967 43.325945 462.019456 53.691004 459.251988 64.056063 462.019456 74.421121 458.329499 84.786180 462.019456 95.151239 458.329499 105.516297 462.019456 115.881356 448.182119 126.246415 460.174477 136.611473 457.407010 146.976532 457.407010 157.341591 451.872075 167.706649 448.182119 178.071708 454.639543 188.436767 445.414651 198.801825 442.647184 209.166884 436.189760 219.531943 437.112249 229.897001 392.832771 240.262060 396.522728 250.627119 376.227967 260.992177 355.933206 271.357236 351.320760 281.722295 325.491065 292.087353 277.521630 302.452412 283.056565 312.817471 202.800010 323.182529 188.040184 333.547588 169.590402 343.912647 123.465945 354.277705 95.791271 364.642764 67.194108 375.007823 82.876423 385.372881 60.736684 395.737940 80.108956 406.102999 29.372054 416.468057 9.077293 426.833116 70.884065 437.198175 69.039086 447.563233 41.364413 457.928292 40.441923 468.293351 91.178826 478.658409 140.993239 489.023468 214.792369 499.388527 259.071847 509.753585 321.801108 520.118644 364.235608 530.483703 408.515086 540.848761 430.654825 551.213820 448.182119 561.578879 455.562032 571.943937 458.329499 582.308996 458.329499 592.674055 462.019456 603.039113 462.941945 613.404172 462.019456 623.769231 462.941945" /></g><g class="series serie-1 color-1"><path class="line reactive nofill" d="M12.230769 462.893382 L22.595828 462.863820 32.960887 462.818216 43.325945 462.749022 53.691004 462.645758 64.056063 462.494166 74.421121 462.275231 84.786180 461.964109 95.151239 461.528973 105.516297 460.929844 115.881356 460.117440 126.246415 459.032097 136.611473 457.602783 146.976532 455.746215 157.341591 453.366060 167.706649 450.352185 178.071708 446.579913 188.436767 441.909297 198.801825 436.184466 209.166884 429.233240 219.531943 420.867348 229.897001 410.883747 240.262060 399.067753 250.627119 385.198834 260.992177 369.060064 271.357236 350.452350 281.722295 329.214503 292.087353 305.250038 302.452412 278.561127 312.817471 249.289082 323.182529 217.759204 333.547588 184.525540 343.912647 150.408395 354.277705 116.514801 364.642764 84.230451 375.007823 55.171885 385.372881 31.091148 395.737940 13.732082 406.102999 4.647673 416.468057 4.999608 426.833116 15.371559 437.198175 35.632949 447.563233 64.886970 457.928292 101.524060 468.293351 143.381721 478.658409 187.988194 489.023468 232.847857 499.388527 275.716432 509.753585 314.817504 520.118644 348.967382 530.483703 377.598011 540.848761 400.690295 551.213820 418.646565 561.578879 432.137392 571.943937 441.954746 582.308996 448.893666 592.674055 453.672518 603.039113 456.891255 613.404172 459.020222 623.769231 460.409264" /></g><g class="series serie-2 color-2"><path class="line reactive nofill" d="M12.230769 462.941928 L22.595828 462.941915 32.960887 462.941892 43.325945 462.941853 53.691004 462.941787 64.056063 462.941677 74.421121 462.941497 84.786180 462.941206 95.151239 462.940741 105.516297 462.940005 115.881356 462.938855 126.246415 462.937078 136.611473 462.934361 146.976532 462.930247 157.341591 462.924073 167.706649 462.914884 178.071708 462.901303 188.436767 462.881350 198.801825 462.852162 209.166884 462.809574 219.531943 462.747469 229.897001 462.656750 240.262060 462.523725 250.627119 462.327583 260.992177 462.036555 271.357236 461.602296 281.722295 460.952158 292.087353 459.979398 302.452412 458.532244 312.817471 456.404096 323.182529 453.328971 333.547588 448.987970 343.912647 443.033389 354.277705 435.135798 364.642764 425.055080 375.007823 412.728963 385.372881 398.363243 395.737940 382.499696 406.102999 366.034627 416.468057 350.166442 426.833116 336.265603 437.198175 325.681773 447.563233 319.524465 457.928292 318.466875 468.293351 322.621661 478.658409 331.520918 489.023468 344.205356 499.388527 359.398785 509.753585 375.723365 520.118644 391.904974 530.483703 406.927149 540.848761 420.111387 551.213820 431.123499 561.578879 439.922927 571.943937 446.680449 582.308996 451.689331 592.674055 455.288377 603.039113 457.806441 613.404172 459.529914 623.769231 460.689466" /></g><g class="series serie-3 color-3"><path class="line reactive nofill" d="M12.230769 462.893398 L22.595828 462.863850 32.960887 462.818269 43.325945 462.749114 53.691004 462.645917 64.056063 462.494434 74.421121 462.275679 84.786180 461.964848 95.151239 461.530177 105.516297 460.931784 115.881356 460.120530 126.246415 459.036964 136.611473 457.610367 146.976532 455.757912 157.341591 453.383932 167.706649 450.379246 178.071708 446.620555 188.436767 441.969892 198.801825 436.274249 209.166884 429.365611 219.531943 421.061824 229.897001 411.168942 240.262060 399.485973 250.627119 385.813195 260.992177 369.965454 271.357236 351.792000 281.722295 331.204290 292.087353 308.212585 302.452412 282.970828 312.817471 255.826931 323.182529 227.372178 333.547588 198.479516 343.912647 170.316950 354.277705 144.320948 364.642764 122.117316 375.007823 105.384867 385.372881 95.669850 395.737940 94.174330 406.102999 101.554991 416.468057 117.775111 426.833116 142.047901 437.198175 172.893121 447.563233 208.304451 457.928292 245.999129 468.293351 283.702004 478.658409 319.409221 489.023468 351.584447 499.388527 379.259593 509.753585 402.036084 520.118644 420.004353 530.483703 433.612807 540.848761 443.520853 551.213820 450.465010 561.578879 455.156410 571.943937 458.216241 582.308996 460.146280 592.674055 461.326086 603.039113 462.026759 613.404172 462.432253 623.769231 462.661743" /></g><g class="series serie-4 color-4"><path class="line reactive nofill" d="M12.230769 462.941945 L22.595828 462.941945 32.960887 462.941945 43.325945 462.941945 53.691004 462.941945 64.056063 462.941945 74.421121 462.941945 84.786180 462.941945 95.151239 462.941945 105.516297 462.941945 115.881356 462.941945 126.246415 462.941945 136.611473 462.941945 146.976532 462.941944 157.341591 462.941943 167.706649 462.941939 178.071708 462.941925 188.436767 462.941886 198.801825 462.941772 209.166884 462.941463 219.531943 462.940653 229.897001 462.938628 240.262060 462.933787 250.627119 462.922718 260.992177 462.898523 271.357236 462.847981 281.722295 462.747107 292.087353 462.554829 302.452412 462.204949 312.817471 461.597494 323.182529 460.591874 333.547588 459.005779 343.912647 456.624784 354.277705 453.227304 364.642764 448.627064 375.007823 442.730147 385.372881 435.596919 395.737940 427.492621 406.102999 418.907374 416.468057 410.529336 426.833116 403.164961 437.198175 397.615590 447.563233 394.535180 457.928292 394.303745 468.293351 396.950305 478.658409 402.146903 489.023468 409.275404 499.388527 417.548279 509.753585 426.150816 520.118644 434.369516 530.483703 441.679783 540.848761 447.781083 551.213820 452.583452 561.578879 456.160450 571.943937 458.687817 582.308996 460.384821 592.674055 461.469126 603.039113 462.129109 613.404172 462.512099 623.769231 462.724134" /></g><g class="series serie-5 color-5"><path class="line reactive nofill" d="M12.230769 462.941945 L22.595828 462.941945 32.960887 462.941945 43.325945 462.941945 53.691004 462.941945 64.056063 462.941945 74.421121 462.941945 84.786180 462.941945 95.151239 462.941945 105.516297 462.941945 115.881356 462.941945 126.246415 462.941944 136.611473 462.941944 146.976532 462.941941 157.341591 462.941935 167.706649 462.941916 178.071708 462.941868 188.436767 462.941743 198.801825 462.941434 209.166884 462.940701 219.531943 462.939025 229.897001 462.935332 240.262060 462.927509 250.627119 462.911557 260.992177 462.880272 271.357236 462.821261 281.722295 462.714249 292.087353 462.527738 302.452412 462.215450 312.817471 461.713368 323.182529 460.938736 333.547588 459.792718 343.912647 458.168458 354.277705 455.965703 364.642764 453.111768 375.007823 449.586597 385.372881 445.447383 395.737940 440.846387 406.102999 436.035216 416.468057 431.350401 426.833116 427.178872 437.198175 423.907066 447.563233 421.862472 457.928292 421.259718 468.293351 422.163469 478.658409 424.477002 489.023468 427.959254 499.388527 432.266183 509.753585 437.006629 520.118644 441.800156 530.483703 446.325199 540.848761 450.349669 551.213820 453.741338 561.578879 456.460336 571.943937 458.539407 582.308996 460.058727 592.674055 461.121381 603.039113 461.833566 613.404172 462.291329 623.769231 462.573718" /></g><g class="series serie-6 color-6"><path class="line reactive nofill" d="M12.230769 462.941945 L22.595828 462.941945 32.960887 462.941945 43.325945 462.941945 53.691004 462.941945 64.056063 462.941945 74.421121 462.941945 84.786180 462.941945 95.151239 462.941944 105.516297 462.941943 115.881356 462.941939 126.246415 462.941931 136.611473 462.941912 146.976532 462.941869 157.341591 462.941771 167.706649 462.941559 178.071708 462.941113 188.436767 462.940200 198.801825 462.938386 209.166884 462.934888 219.531943 462.928338 229.897001 462.916434 240.262060 462.895441 250.627119 462.859521 260.992177 462.799900 271.357236 462.703931 281.722295 462.554168 292.087353 462.327668 302.452412 461.995816 312.817471 461.525040 323.182529 460.878778 333.547588 460.020944 343.912647 458.920956 354.277705 457.560020 364.642764 455.937946 375.007823 454.079405 385.372881 452.038242 395.737940 449.898465 406.102999 447.770860 416.468057 445.784861 426.833116 444.076199 437.198175 442.771839 447.563233 441.974475 457.928292 441.749182 468.293351 442.114654 478.658409 443.040634 489.023468 444.452058 499.388527 446.239098 509.753585 448.271259 520.118644 450.413014 530.483703 452.538402 540.848761 454.542468 551.213820 456.348280 561.578879 457.909197 571.943937 459.206975 582.308996 460.246858 592.674055 461.051073 603.039113 461.652048 613.404172 462.086382 623.769231 462.390182" /></g><g class="series serie-7 color-7"><path class="line reactive nofill" d="M12.230769 462.941945 L22.595828 462.941945 32.960887 462.941944 43.325945 462.941944 53.691004 462.941942 64.056063 462.941939 74.421121 462.941933 84.786180 462.941920 95.151239 462.941894 105.516297 462.941844 115.881356 462.941747 126.246415 462.941565 136.611473 462.941232 146.976532 462.940634 157.341591 462.939581 167.706649 462.937769 178.071708 462.934715 188.436767 462.929679 198.801825 462.921551 209.166884 462.908718 219.531943 462.888896 229.897001 462.858945 240.262060 462.814688 250.627119 462.750745 260.992177 462.660432 271.357236 462.535770 281.722295 462.367654 292.087353 462.146236 302.452412 461.861555 312.817471 461.504435 323.182529 461.067620 333.547588 460.547069 343.912647 459.943301 354.277705 459.262599 364.642764 458.517892 375.007823 457.729111 385.372881 456.922848 395.737940 456.131230 406.102999 455.390015 416.468057 454.736029 426.833116 454.204185 437.198175 453.824418 447.563233 453.618899 457.928292 453.599887 468.293351 453.768528 478.658409 454.114731 489.023468 454.618176 499.388527 455.250281 509.753585 455.976892 520.118644 456.761319 530.483703 457.567366 540.848761 458.362000 551.213820 459.117398 561.578879 459.812238 571.943937 460.432191 582.308996 460.969692 592.674055 461.423155 603.039113 461.795807 613.404172 462.094366 623.769231 462.327721" /></g><g class="series serie-8 color-8"><path class="line reactive nofill" d="M12.230769 462.941928 L22.595828 462.941915 32.960887 462.941892 43.325945 462.941854 53.691004 462.941789 64.056063 462.941683 74.421121 462.941509 84.786180 462.941231 95.151239 462.940792 105.516297 462.940108 115.881356 462.939058 126.246415 462.937471 136.611473 462.935107 146.976532 462.931638 157.341591 462.926623 167.706649 462.919480 178.071708 462.909461 188.436767 462.895622 198.801825 462.876797 209.166884 462.851583 219.531943 462.818337 229.897001 462.775189 240.262060 462.720079 250.627119 462.650822 260.992177 462.565208 271.357236 462.461132 281.722295 462.336759 292.087353 462.190707 302.452412 462.022254 312.817471 461.831538 323.182529 461.619743 333.547588 461.389239 343.912647 461.143669 354.277705 460.887951 364.642764 460.628189 375.007823 460.371481 385.372881 460.125630 395.737940 459.898773 406.102999 459.698941 416.468057 459.533595 426.833116 459.409166 437.198175 459.330638 447.563233 459.301218 457.928292 459.322122 468.293351 459.392485 478.658409 459.509426 489.023468 459.668243 499.388527 459.862722 509.753585 460.085547 520.118644 460.328750 530.483703 460.584179 540.848761 460.843946 551.213820 461.100811 561.578879 461.348484 571.943937 461.581839 582.308996 461.797012 592.674055 461.991421 603.039113 462.163691 613.404172 462.313517 623.769231 462.441490" /></g><g class="series serie-9 color-9"><path class="line reactive nofill" d="M12.230769 462.941945 L22.595828 462.941945 32.960887 462.941945 43.325945 462.941945 53.691004 462.941945 64.056063 462.941945 74.421121 462.941945 84.786180 462.941945 95.151239 462.941945 105.516297 462.941944 115.881356 462.941943 126.246415 462.941938 136.611473 462.941924 146.976532 462.941883 157.341591 462.941772 167.706649 462.941477 178.071708 462.940730 188.436767 462.938910 198.801825 462.934658 209.166884 462.925126 219.531943 462.904623 229.897001 462.862325 240.262060 462.778648 250.627119 462.619966 260.992177 462.331611 271.357236 461.829702 281.722295 460.993337 292.087353 459.659921 302.452412 457.627581 312.817471 454.669133 323.182529 450.561184 333.547588 445.129076 343.912647 438.303533 354.277705 430.178928 364.642764 421.058017 375.007823 411.466129 385.372881 402.121245 395.737940 393.855649 406.102999 387.497940 416.468057 383.737438 426.833116 383.001349 437.198175 385.374909 447.563233 390.585146 457.928292 398.052536 468.293351 406.997029 478.658409 416.571661 489.023468 425.992219 499.388527 434.636172 509.753585 442.095542 520.118644 448.182175 530.483703 452.895316 540.848761 456.367585 551.213820 458.805960 561.578879 460.440467 571.943937 461.487468 582.308996 462.128910 592.674055 462.505023 603.039113 462.716214 613.404172 462.829828 623.769231 462.888409" /></g><g class="series serie-10 color-10"><path class="line reactive nofill" d="M12.230769 462.941945 L22.595828 462.941945 32.960887 462.941945 43.325945 462.941945 53.691004 462.941945 64.056063 462.941944 74.421121 462.941944 84.786180 462.941941 95.151239 462.941934 105.516297 462.941913 115.881356 462.941859 126.246415 462.941720 136.611473 462.941376 146.976532 462.940551 157.341591 462.938650 167.706649 462.934421 178.071708 462.925356 188.436767 462.906623 198.801825 462.869319 209.166884 462.797742 219.531943 462.665449 229.897001 462.429983 240.262060 462.026524 250.627119 461.361289 260.992177 460.306298 271.357236 458.697990 281.722295 456.342798 292.087353 453.032751 302.452412 448.573083 312.817471 442.821390 323.182529 435.734293 333.547588 427.413542 343.912647 418.140313 354.277705 408.385570 364.642764 398.786917 375.007823 390.088614 385.372881 383.050248 395.737940 378.338625 406.102999 376.423901 416.468057 377.502288 426.833116 381.462919 437.198175 387.906636 447.563233 396.212263 457.928292 405.635173 468.293351 415.416481 478.658409 424.880935 489.023468 433.506692 499.388527 440.958854 509.753585 447.087783 520.118644 451.900363 530.483703 455.515980 540.848761 458.119048 551.213820 459.917146 561.578879 461.109974 571.943937 461.870489 582.308996 462.336794 592.674055 462.611890 603.039113 462.768108 613.404172 462.853529 623.769231 462.898518" /></g><g class="series serie-11 color-11"><path class="line reactive nofill" d="M12.230769 462.941945 L22.595828 462.941944 32.960887 462.941943 43.325945 462.941939 53.691004 462.941929 64.056063 462.941903 74.421121 462.941841 84.786180 462.941692 95.151239 462.941347 105.516297 462.940574 115.881356 462.938894 126.246415 462.935358 136.611473 462.928140 146.976532 462.913870 157.341591 462.886536 167.706649 462.835822 178.071708 462.744695 188.436767 462.586156 198.801825 462.319156 209.166884 461.884009 219.531943 461.197932 229.897001 460.151900 240.262060 458.610390 250.627119 456.415936 260.992177 453.400311 271.357236 449.403493 281.722295 444.300202 292.087353 438.031860 302.452412 430.639520 312.817471 422.291411 323.182529 413.297737 333.547588 404.106081 343.912647 395.273391 354.277705 387.414835 364.642764 381.135024 375.007823 376.951847 385.372881 375.226101 395.737940 376.110134 406.102999 379.525652 416.468057 385.175164 426.833116 392.584741 437.198175 401.169579 447.563233 410.309796 457.928292 419.422917 468.293351 428.021603 478.658409 435.749454 489.023468 442.392944 499.388527 447.872279 509.753585 452.217180 520.118644 455.534932 530.483703 457.977512 540.848761 459.712949 551.213820 460.903793 561.578879 461.693479 571.943937 462.199801 582.308996 462.513820 592.674055 462.702269 603.039113 462.811733 613.404172 462.873294 623.769231 462.906820" /></g><g class="series serie-12 color-12"><path class="line reactive nofill" d="M12.230769 462.941881 L22.595828 462.941799 32.960887 462.941622 43.325945 462.941245 53.691004 462.940465 64.056063 462.938893 74.421121 462.935806 84.786180 462.929896 95.151239 462.918874 105.516297 462.898849 115.881356 462.863407 126.246415 462.802310 136.611473 462.699747 146.976532 462.532104 157.341591 462.265353 167.706649 461.852252 178.071708 461.229770 188.436767 460.317373 198.801825 459.016985 209.166884 457.215588 219.531943 454.791375 229.897001 451.624093 240.262060 447.609677 250.627119 442.678408 260.992177 436.814888 271.357236 430.077057 281.722295 422.610831 292.087353 414.656671 302.452412 406.544998 312.817471 398.678663 323.182529 391.502739 333.547588 385.464240 343.912647 380.966593 354.277705 378.325214 364.642764 377.730955 375.007823 379.227310 385.372881 382.705149 395.737940 387.915878 406.102999 394.500812 416.468057 402.031942 426.833116 410.057682 437.198175 418.146825 447.563233 425.924933 457.928292 433.099223 468.293351 439.470387 478.658409 444.932023 489.023468 449.460137 499.388527 453.096149 509.753585 455.927069 520.118644 458.066037 530.483703 459.635529 540.848761 460.754557 551.213820 461.530186 561.578879 462.053027 571.943937 462.395899 582.308996 462.614707 592.674055 462.750623 603.039113 462.832818 613.404172 462.881220 623.769231 462.908979" /></g><g class="series serie-13 color-13"><path class="line reactive nofill" d="M12.230769 462.893463 L22.595828 462.863996 32.960887 462.818594 43.325945 462.749820 53.691004 462.647413 64.056063 462.497527 74.421121 462.281923 84.786180 461.977154 95.151239 461.553857 105.516297 460.976283 115.881356 460.202206 126.246415 459.183417 136.611473 457.866960 146.976532 456.197283 157.341591 454.119400 167.706649 451.583054 178.071708 448.547783 188.436767 444.988609 198.801825 440.901909 209.166884 436.310925 219.531943 431.270224 229.897001 425.868420 240.262060 420.228515 250.627119 414.505375 260.992177 408.880125 271.357236 403.551537 281.722295 398.724902 292.087353 394.599162 302.452412 391.353427 312.817471 389.134114 323.182529 388.044005 333.547588 388.134356 343.912647 389.400900 354.277705 391.784181 364.642764 395.174182 375.007823 399.418746 385.372881 404.334886 395.737940 409.721825 406.102999 415.374466 416.468057 421.096058 426.833116 426.708989 437.198175 432.062952 447.563233 437.040092 457.928292 441.557061 468.293351 445.564284 478.658409 449.042927 489.023468 452.000234 499.388527 454.463919 509.753585 456.476289 520.118644 458.088626 530.483703 459.356250 540.848761 460.334493 551.213820 461.075705 561.578879 461.627243 571.943937 462.030364 582.308996 462.319829 592.674055 462.524060 603.039113 462.665665 613.404172 462.762161 623.769231 462.826796" /></g></g><g class="titles"><text class="title plot_title" x="400.0" y="26">Iteration #2</text><text class="title" x="462.0" y="580.0">Observation</text><text class="title" transform="rotate(-90 64.000000 282.009619)" x="64.0" y="308.0096189432334">Density</text></g><g class="plot overlay" transform="translate(144, 46)"><g class="series serie-0 color-0" /><g class="series serie-1 color-1" /><g class="series serie-2 color-2" /><g class="series serie-3 color-3" /><g class="series serie-4 color-4" /><g class="series serie-5 color-5" /><g class="series serie-6 color-6" /><g class="series serie-7 color-7" /><g class="series serie-8 color-8" /><g class="series serie-9 color-9" /><g class="series serie-10 color-10" /><g class="series serie-11 color-11" /><g class="series serie-12 color-12" /><g class="series serie-13 color-13" /></g><g class="plot text-overlay" transform="translate(144, 46)"><g class="series serie-0 color-0" /><g class="series serie-1 color-1" /><g class="series serie-2 color-2" /><g class="series serie-3 color-3" /><g class="series serie-4 color-4" /><g class="series serie-5 color-5" /><g class="series serie-6 color-6" /><g class="series serie-7 color-7" /><g class="series serie-8 color-8" /><g class="series serie-9 color-9" /><g class="series serie-10 color-10" /><g class="series serie-11 color-11" /><g class="series serie-12 color-12" /><g class="series serie-13 color-13" /></g><g class="plot tooltip-overlay" transform="translate(144, 46)"><g class="tooltip" style="opacity: 0" transform="translate(0 0)"><rect class="tooltip-box" height="0" rx="0" ry="0" width="0" /><g class="text" /></g></g><g class="legends" transform="translate(10, 56)"><g class="legend reactive activate-serie" id="activate-serie-0"><rect class="color-0 reactive" height="12" width="12" x="0.0" y="0.0" /><text x="17.0" y="9.0">Data</text></g><g class="legend reactive activate-serie" id="activate-serie-1"><rect class="color-1 reactive" height="12" width="12" x="0.0" y="18.0" /><text x="17.0" y="27.0">GMM</text></g><g class="legend reactive activate-serie" id="activate-serie-2"><rect class="color-2 reactive" height="12" width="12" x="0.0" y="36.0" /><text x="17.0" y="45.0">i=0</text></g><g class="legend reactive activate-serie" id="activate-serie-3"><rect class="color-3 reactive" height="12" width="12" x="0.0" y="54.0" /><text x="17.0" y="63.0">i=1</text></g><g class="legend reactive activate-serie" id="activate-serie-4"><rect class="color-4 reactive" height="12" width="12" x="0.0" y="72.0" /><text x="17.0" y="81.0">i=0 k=0</text></g><g class="legend reactive activate-serie" id="activate-serie-5"><rect class="color-5 reactive" height="12" width="12" x="0.0" y="90.0" /><text x="17.0" y="99.0">i=0 k=1</text></g><g class="legend reactive activate-serie" id="activate-serie-6"><rect class="color-6 reactive" height="12" width="12" x="0.0" y="108.0" /><text x="17.0" y="117.0">i=0 k=2</text></g><g class="legend reactive activate-serie" id="activate-serie-7"><rect class="color-7 reactive" height="12" width="12" x="0.0" y="126.0" /><text x="17.0" y="135.0">i=0 k=3</text></g><g class="legend reactive activate-serie" id="activate-serie-8"><rect class="color-8 reactive" height="12" width="12" x="0.0" y="144.0" /><text x="17.0" y="153.0">i=0 k=4</text></g><g class="legend reactive activate-serie" id="activate-serie-9"><rect class="color-9 reactive" height="12" width="12" x="0.0" y="162.0" /><text x="17.0" y="171.0">i=1 k=0</text></g><g class="legend reactive activate-serie" id="activate-serie-10"><rect class="color-10 reactive" height="12" width="12" x="0.0" y="180.0" /><text x="17.0" y="189.0">i=1 k=1</text></g><g class="legend reactive activate-serie" id="activate-serie-11"><rect class="color-11 reactive" height="12" width="12" x="0.0" y="198.0" /><text x="17.0" y="207.0">i=1 k=2</text></g><g class="legend reactive activate-serie" id="activate-serie-12"><rect class="color-12 reactive" height="12" width="12" x="0.0" y="216.0" /><text x="17.0" y="225.0">i=1 k=3</text></g><g class="legend reactive activate-serie" id="activate-serie-13"><rect class="color-13 reactive" height="12" width="12" x="0.0" y="234.0" /><text x="17.0" y="243.0">i=1 k=4</text></g></g><g class="legends" transform="translate(790, 56)" /></g></svg>