<?xml version='1.0' encoding='utf-8'?>
<svg xmlns:xlink="http://www.w3.org/1999/xlink" class="pygal-chart" id="chart-309b07ec-6b1a-4af4-ae5c-ecd4f037c977" viewBox="0 0 800 600" xmlns="http://www.w3.org/2000/svg"><!--Generated with pygal 2.4.0 (etree) ©Kozea 2012-2016 on 2017-12-18--><!--http://pygal.org--><!--http://github.com/Kozea/pygal--><defs><style type="text/css">#chart-309b07ec-6b1a-4af4-ae5c-ecd4f037c977{-webkit-user-select:none;-webkit-font-smoothing:antialiased;font-family:Consolas,"Liberation Mono",Menlo,Courier,monospace}#chart-309b07ec-6b1a-4af4-ae5c-ecd4f037c977 .title{font-family:Consolas,"Liberation Mono",Menlo,Courier,monospace;font-size:16px}#chart-309b07ec-6b1a-4af4-ae5c-ecd4f037c977 .legends .legend text{font-family:Consolas,"Liberation Mono",Menlo,Courier,monospace;font-size:10px}#chart-309b07ec-6b1a-4af4-ae5c-ecd4f037c977 .axis text{font-family:Consolas,"Liberation Mono",Menlo,Courier,monospace;font-size:10px}#chart-309b07ec-6b1a-4af4-ae5c-ecd4f037c977 .axis text.major{font-family:Consolas,"Liberation Mono",Menlo,Courier,monospace;font-size:10px}#chart-309b07ec-6b1a-4af4-ae5c-ecd4f037c977 .text-overlay text.value{font-family:Consolas,"Liberation Mono",Menlo,Courier,monospace;font-size:16px}#chart-309b07ec-6b1a-4af4-ae5c-ecd4f037c977 .text-overlay text.label{font-family:Consolas,"Liberation Mono",Menlo,Courier,monospace;font-size:10px}#chart-309b07ec-6b1a-4af4-ae5c-ecd4f037c977 .tooltip{font-family:Consolas,"Liberation Mono",Menlo,Courier,monospace;font-size:14px}#chart-309b07ec-6b1a-4af4-ae5c-ecd4f037c977 text.no_data{font-family:Consolas,"Liberation Mono",Menlo,Courier,monospace;font-size:64px}
#chart-309b07ec-6b1a-4af4-ae5c-ecd4f037c977{background-color:rgba(249,249,249,1)}#chart-309b07ec-6b1a-4af4-ae5c-ecd4f037c977 path,#chart-309b07ec-6b1a-4af4-ae5c-ecd4f037c977 line,#chart-309b07ec-6b1a-4af4-ae5c-ecd4f037c977 rect,#chart-309b07ec-6b1a-4af4-ae5c-ecd4f037c977 circle{-webkit-transition:150ms;-moz-transition:150ms;transition:150ms}#chart-309b07ec-6b1a-4af4-ae5c-ecd4f037c977 .graph &gt; .background{fill:rgba(249,249,249,1)}#chart-309b07ec-6b1a-4af4-ae5c-ecd4f037c977 .plot &gt; .background{fill:rgba(255,255,255,1)}#chart-309b07ec-6b1a-4af4-ae5c-ecd4f037c977 .graph{fill:rgba(0,0,0,.87)}#chart-309b07ec-6b1a-4af4-ae5c-ecd4f037c977 text.no_data{fill:rgba(0,0,0,1)}#chart-309b07ec-6b1a-4af4-ae5c-ecd4f037c977 .title{fill:rgba(0,0,0,1)}#chart-309b07ec-6b1a-4af4-ae5c-ecd4f037c977 .legends .legend text{fill:rgba(0,0,0,.87)}#chart-309b07ec-6b1a-4af4-ae5c-ecd4f037c977 .legends .legend:hover text{fill:rgba(0,0,0,1)}#chart-309b07ec-6b1a-4af4-ae5c-ecd4f037c977 .axis .line{stroke:rgba(0,0,0,1)}#chart-309b07ec-6b1a-4af4-ae5c-ecd4f037c977 .axis .guide.line{stroke:rgba(0,0,0,.54)}#chart-309b07ec-6b1a-4af4-ae5c-ecd4f037c977 .axis .major.line{stroke:rgba(0,0,0,.87)}#chart-309b07ec-6b1a-4af4-ae5c-ecd4f037c977 .axis text.major{fill:rgba(0,0,0,1)}#chart-309b07ec-6b1a-4af4-ae5c-ecd4f037c977 .axis.y .guides:hover .guide.line,#chart-309b07ec-6b1a-4af4-ae5c-ecd4f037c977 .line-graph .axis.x .guides:hover .guide.line,#chart-309b07ec-6b1a-4af4-ae5c-ecd4f037c977 .stackedline-graph .axis.x .guides:hover .guide.line,#chart-309b07ec-6b1a-4af4-ae5c-ecd4f037c977 .xy-graph .axis.x .guides:hover .guide.line{stroke:rgba(0,0,0,1)}#chart-309b07ec-6b1a-4af4-ae5c-ecd4f037c977 .axis .guides:hover text{fill:rgba(0,0,0,1)}#chart-309b07ec-6b1a-4af4-ae5c-ecd4f037c977 .reactive{fill-opacity:.7;stroke-opacity:.8}#chart-309b07ec-6b1a-4af4-ae5c-ecd4f037c977 .ci{stroke:rgba(0,0,0,.87)}#chart-309b07ec-6b1a-4af4-ae5c-ecd4f037c977 .reactive.active,#chart-309b07ec-6b1a-4af4-ae5c-ecd4f037c977 .active .reactive{fill-opacity:.8;stroke-opacity:.9;stroke-width:4}#chart-309b07ec-6b1a-4af4-ae5c-ecd4f037c977 .ci .reactive.active{stroke-width:1.5}#chart-309b07ec-6b1a-4af4-ae5c-ecd4f037c977 .series text{fill:rgba(0,0,0,1)}#chart-309b07ec-6b1a-4af4-ae5c-ecd4f037c977 .tooltip rect{fill:rgba(255,255,255,1);stroke:rgba(0,0,0,1);-webkit-transition:opacity 150ms;-moz-transition:opacity 150ms;transition:opacity 150ms}#chart-309b07ec-6b1a-4af4-ae5c-ecd4f037c977 .tooltip .label{fill:rgba(0,0,0,.87)}#chart-309b07ec-6b1a-4af4-ae5c-ecd4f037c977 .tooltip .label{fill:rgba(0,0,0,.87)}#chart-309b07ec-6b1a-4af4-ae5c-ecd4f037c977 .tooltip .legend{font-size:.8em;fill:rgba(0,0,0,.54)}#chart-309b07ec-6b1a-4af4-ae5c-ecd4f037c977 .tooltip .x_label{font-size:.6em;fill:rgba(0,0,0,1)}#chart-309b07ec-6b1a-4af4-ae5c-ecd4f037c977 .tooltip .xlink{font-size:.5em;text-decoration:underline}#chart-309b07ec-6b1a-4af4-ae5c-ecd4f037c977 .tooltip .value{font-size:1.5em}#chart-309b07ec-6b1a-4af4-ae5c-ecd4f037c977 .bound{font-size:.5em}#chart-309b07ec-6b1a-4af4-ae5c-ecd4f037c977 .max-value{font-size:.75em;fill:rgba(0,0,0,.54)}#chart-309b07ec-6b1a-4af4-ae5c-ecd4f037c977 .map-element{fill:rgba(255,255,255,1);stroke:rgba(0,0,0,.54) !important}#chart-309b07ec-6b1a-4af4-ae5c-ecd4f037c977 .map-element .reactive{fill-opacity:inherit;stroke-opacity:inherit}#chart-309b07ec-6b1a-4af4-ae5c-ecd4f037c977 .color-0,#chart-309b07ec-6b1a-4af4-ae5c-ecd4f037c977 .color-0 a:visited{stroke:#909090;fill:#909090}#chart-309b07ec-6b1a-4af4-ae5c-ecd4f037c977 .color-1,#chart-309b07ec-6b1a-4af4-ae5c-ecd4f037c977 .color-1 a:visited{stroke:#000000;fill:#000000}#chart-309b07ec-6b1a-4af4-ae5c-ecd4f037c977 .color-2,#chart-309b07ec-6b1a-4af4-ae5c-ecd4f037c977 .color-2 a:visited{stroke:#ff0500;fill:#ff0500}#chart-309b07ec-6b1a-4af4-ae5c-ecd4f037c977 .color-3,#chart-309b07ec-6b1a-4af4-ae5c-ecd4f037c977 .color-3 a:visited{stroke:#323299;fill:#323299}#chart-309b07ec-6b1a-4af4-ae5c-ecd4f037c977 .color-4,#chart-309b07ec-6b1a-4af4-ae5c-ecd4f037c977 .color-4 a:visited{stroke:#a3413f;fill:#a3413f}#chart-309b07ec-6b1a-4af4-ae5c-ecd4f037c977 .color-5,#chart-309b07ec-6b1a-4af4-ae5c-ecd4f037c977 .color-5 a:visited{stroke:#a3413f;fill:#a3413f}#chart-309b07ec-6b1a-4af4-ae5c-ecd4f037c977 .color-6,#chart-309b07ec-6b1a-4af4-ae5c-ecd4f037c977 .color-6 a:visited{stroke:#a3413f;fill:#a3413f}#chart-309b07ec-6b1a-4af4-ae5c-ecd4f037c977 .color-7,#chart-309b07ec-6b1a-4af4-ae5c-ecd4f037c977 .color-7 a:visited{stroke:#a3413f;fill:#a3413f}#chart-309b07ec-6b1a-4af4-ae5c-ecd4f037c977 .color-8,#chart-309b07ec-6b1a-4af4-ae5c-ecd4f037c977 .color-8 a:visited{stroke:#a3413f;fill:#a3413f}#chart-309b07ec-6b1a-4af4-ae5c-ecd4f037c977 .color-9,#chart-309b07ec-6b1a-4af4-ae5c-ecd4f037c977 .color-9 a:visited{stroke:#657fff;fill:#657fff}#chart-309b07ec-6b1a-4af4-ae5c-ecd4f037c977 .color-10,#chart-309b07ec-6b1a-4af4-ae5c-ecd4f037c977 .color-10 a:visited{stroke:#657fff;fill:#657fff}#chart-309b07ec-6b1a-4af4-ae5c-ecd4f037c977 .color-11,#chart-309b07ec-6b1a-4af4-ae5c-ecd4f037c977 .color-11 a:visited{stroke:#657fff;fill:#657fff}#chart-309b07ec-6b1a-4af4-ae5c-ecd4f037c977 .color-12,#chart-309b07ec-6b1a-4af4-ae5c-ecd4f037c977 .color-12 a:visited{stroke:#657fff;fill:#657fff}#chart-309b07ec-6b1a-4af4-ae5c-ecd4f037c977 .color-13,#chart-309b07ec-6b1a-4af4-ae5c-ecd4f037c977 .color-13 a:visited{stroke:#657fff;fill:#657fff}#chart-309b07ec-6b1a-4af4-ae5c-ecd4f037c977 .text-overlay .color-0 text{fill:black}#chart-309b07ec-6b1a-4af4-ae5c-ecd4f037c977 .text-overlay .color-1 text{fill:white}#chart-309b07ec-6b1a-4af4-ae5c-ecd4f037c977 .text-overlay .color-2 text{fill:black}#chart-309b07ec-6b1a-4af4-ae5c-ecd4f037c977 .text-overlay .color-3 text{fill:black}#chart-309b07ec-6b1a-4af4-ae5c-ecd4f037c977 .text-overlay .color-4 text{fill:black}#chart-309b07ec-6b1a-4af4-ae5c-ecd4f037c977 .text-overlay .color-5 text{fill:black}#chart-309b07ec-6b1a-4af4-ae5c-ecd4f037c977 .text-overlay .color-6 text{fill:black}#chart-309b07ec-6b1a-4af4-ae5c-ecd4f037c977 .text-overlay .color-7 text{fill:black}#chart-309b07ec-6b1a-4af4-ae5c-ecd4f037c977 .text-overlay .color-8 text{fill:black}#chart-309b07ec-6b1a-4af4-ae5c-ecd4f037c977 .text-overlay .color-9 text{fill:black}#chart-309b07ec-6b1a-4af4-ae5c-ecd4f037c977 .text-overlay .color-10 text{fill:black}#chart-309b07ec-6b1a-4af4-ae5c-ecd4f037c977 .text-overlay .color-11 text{fill:black}#chart-309b07ec-6b1a-4af4-ae5c-ecd4f037c977 .text-overlay .color-12 text{fill:black}#chart-309b07ec-6b1a-4af4-ae5c-ecd4f037c977 .text-overlay .color-13 text{fill:black}#chart-309b07ec-6b1a-4af4-ae5c-ecd4f037c977 .series.serie-1{stroke-width:5}#chart-309b07ec-6b1a-4af4-ae5c-ecd4f037c977 .series.serie-2{stroke-width:3}#chart-309b07ec-6b1a-4af4-ae5c-ecd4f037c977 .series.serie-3{stroke-width:3}#chart-309b07ec-6b1a-4af4-ae5c-ecd4f037c977 .series.serie-4{stroke-width:2;stroke-dasharray:2,2}#chart-309b07ec-6b1a-4af4-ae5c-ecd4f037c977 .series.serie-5{stroke-width:2;stroke-dasharray:2,2}#chart-309b07ec-6b1a-4af4-ae5c-ecd4f037c977 .series.serie-6{stroke-width:2;stroke-dasharray:2,2}#chart-309b07ec-6b1a-4af4-ae5c-ecd4f037c977 .series.serie-7{stroke-width:2;stroke-dasharray:2,2}#chart-309b07ec-6b1a-4af4-ae5c-ecd4f037c977 .series.serie-8{stroke-width:2;stroke-dasharray:2,2}#chart-309b07ec-6b1a-4af4-ae5c-ecd4f037c977 .series.serie-9{stroke-width:2;stroke-dasharray:2,2}#chart-309b07ec-6b1a-4af4-ae5c-ecd4f037c977 .series.serie-10{stroke-width:2;stroke-dasharray:2,2}#chart-309b07ec-6b1a-4af4-ae5c-ecd4f037c977 .series.serie-11{stroke-width:2;stroke-dasharray:2,2}#chart-309b07ec-6b1a-4af4-ae5c-ecd4f037c977 .series.serie-12{stroke-width:2;stroke-dasharray:2,2}#chart-309b07ec-6b1a-4af4-ae5c-ecd4f037c977 .series.serie-13{stroke-width:2;stroke-dasharray:2,2}
#chart-309b07ec-6b1a-4af4-ae5c-ecd4f037c977 text.no_data{text-anchor:middle}#chart-309b07ec-6b1a-4af4-ae5c-ecd4f037c977 .guide.line{fill:none}#chart-309b07ec-6b1a-4af4-ae5c-ecd4f037c977 .centered{text-anchor:middle}#chart-309b07ec-6b1a-4af4-ae5c-ecd4f037c977 .title{text-anchor:middle}#chart-309b07ec-6b1a-4af4-ae5c-ecd4f037c977 .legends .legend text{fill-opacity:1}#chart-309b07ec-6b1a-4af4-ae5c-ecd4f037c977 .axis.x text{text-anchor:middle}#chart-309b07ec-6b1a-4af4-ae5c-ecd4f037c977 .axis.x:not(.web) text[transform]{text-anchor:start}#chart-309b07ec-6b1a-4af4-ae5c-ecd4f037c977 .axis.x:not(.web) text[transform].backwards{text-anchor:end}#chart-309b07ec-6b1a-4af4-ae5c-ecd4f037c977 .axis.y text{text-anchor:end}#chart-309b07ec-6b1a-4af4-ae5c-ecd4f037c977 .axis.y text[transform].backwards{text-anchor:start}#chart-309b07ec-6b1a-4af4-ae5c-ecd4f037c977 .axis.y2 text{text-anchor:start}#chart-309b07ec-6b1a-4af4-ae5c-ecd4f037c977 .axis.y2 text[transform].backwards{text-anchor:end}#chart-309b07ec-6b1a-4af4-ae5c-ecd4f037c977 .axis .guide.line{stroke-dasharray:4,4}#chart-309b07ec-6b1a-4af4-ae5c-ecd4f037c977 .axis .major.guide.line{stroke-dasharray:6,6}#chart-309b07ec-6b1a-4af4-ae5c-ecd4f037c977 .horizontal .axis.y .guide.line,#chart-309b07ec-6b1a-4af4-ae5c-ecd4f037c977 .horizontal .axis.y2 .guide.line,#chart-309b07ec-6b1a-4af4-ae5c-ecd4f037c977 .vertical .axis.x .guide.line{opacity:0}#chart-309b07ec-6b1a-4af4-ae5c-ecd4f037c977 .horizontal .axis.always_show .guide.line,#chart-309b07ec-6b1a-4af4-ae5c-ecd4f037c977 .vertical .axis.always_show .guide.line{opacity:1 !important}#chart-309b07ec-6b1a-4af4-ae5c-ecd4f037c977 .axis.y .guides:hover .guide.line,#chart-309b07ec-6b1a-4af4-ae5c-ecd4f037c977 .axis.y2 .guides:hover .guide.line,#chart-309b07ec-6b1a-4af4-ae5c-ecd4f037c977 .axis.x .guides:hover .guide.line{opacity:1}#chart-309b07ec-6b1a-4af4-ae5c-ecd4f037c977 .axis .guides:hover text{opacity:1}#chart-309b07ec-6b1a-4af4-ae5c-ecd4f037c977 .nofill{fill:none}#chart-309b07ec-6b1a-4af4-ae5c-ecd4f037c977 .subtle-fill{fill-opacity:.2}#chart-309b07ec-6b1a-4af4-ae5c-ecd4f037c977 .dot{stroke-width:1px;fill-opacity:1}#chart-309b07ec-6b1a-4af4-ae5c-ecd4f037c977 .dot.active{stroke-width:5px}#chart-309b07ec-6b1a-4af4-ae5c-ecd4f037c977 .dot.negative{fill:transparent}#chart-309b07ec-6b1a-4af4-ae5c-ecd4f037c977 text,#chart-309b07ec-6b1a-4af4-ae5c-ecd4f037c977 tspan{stroke:none !important}#chart-309b07ec-6b1a-4af4-ae5c-ecd4f037c977 .series text.active{opacity:1}#chart-309b07ec-6b1a-4af4-ae5c-ecd4f037c977 .tooltip rect{fill-opacity:.95;stroke-width:.5}#chart-309b07ec-6b1a-4af4-ae5c-ecd4f037c977 .tooltip text{fill-opacity:1}#chart-309b07ec-6b1a-4af4-ae5c-ecd4f037c977 .showable{visibility:hidden}#chart-309b07ec-6b1a-4af4-ae5c-ecd4f037c977 .showable.shown{visibility:visible}#chart-309b07ec-6b1a-4af4-ae5c-ecd4f037c977 .gauge-background{fill:rgba(229,229,229,1);stroke:none}#chart-309b07ec-6b1a-4af4-ae5c-ecd4f037c977 .bg-lines{stroke:rgba(249,249,249,1);stroke-width:2px}</style><script type="text/javascript">window.pygal = window.pygal || {};window.pygal.config = window.pygal.config || {};window.pygal.config['309b07ec-6b1a-4af4-ae5c-ecd4f037c977'] = {"interpolate": null, "pretty_print": false, "x_labels_major": null, "no_data_text": "No data", "inverse_y_axis": false, "truncate_legend": null, "css": ["file://style.css", "file://graph.css"], "secondary_range": null, "formatter": null, "interpolation_precision": 250, "zero": 0, "allow_interruptions": false, "defs": [], "width": 800, "xrange": null, "margin_top": null, "y_title": "Density", "show_only_major_dots": false, "rounded_bars": null, "legends": ["Data", "GMM", "i=0", "i=1", "i=0 k=0", "i=0 k=1", "i=0 k=2", "i=0 k=3", "i=0 k=4", "i=1 k=0", "i=1 k=1", "i=1 k=2", "i=1 k=3", "i=1 k=4"], "print_values": false, "show_x_labels": true, "x_labels_major_count": null, "truncate_label": null, "x_labels": ["-8.96", "-8.76", "-8.56", "-8.36", "-8.16", "-7.96", "-7.76", "-7.56", "-7.36", "-7.16", "-6.96", "-6.76", "-6.56", "-6.36", "-6.16", "-5.96", "-5.76", "-5.56", "-5.36", "-5.16", "-4.96", "-4.76", "-4.56", "-4.36", "-4.16", "-3.96", "-3.76", "-3.56", "-3.36", "-3.16", "-2.96", "-2.76", "-2.56", "-2.36", "-2.16", "-1.96", "-1.76", "-1.56", "-1.36", "-1.16", "-0.96", "-0.76", "-0.56", "-0.36", "-0.16", "0.04", "0.24", "0.44", "0.64", "0.84", "1.04", "1.24", "1.43", "1.63", "1.83", "2.03", "2.23", "2.43", "2.63", "2.83"], "title": "Iteration #7", "show_y_guides": true, "show_x_guides": false, "fill": false, "print_zeroes": true, "show_y_labels": true, "js": ["//kozea.github.io/pygal.js/2.0.x/pygal-tooltips.min.js"], "order_min": null, "print_labels": false, "margin": 20, "inner_radius": 0, "legend_at_bottom": false, "dots_size": 2.5, "explicit_size": false, "show_minor_y_labels": true, "y_labels": null, "margin_right": null, "show_legend": true, "no_prefix": false, "style": {"foreground_strong": "rgba(0, 0, 0, 1)", "ci_colors": [], "stroke_opacity_hover": ".9", "foreground_subtle": "rgba(0, 0, 0, .54)", "opacity_hover": ".8", "label_font_family": "Consolas, \"Liberation Mono\", Menlo, Courier, monospace", "opacity": ".7", "tooltip_font_family": "Consolas, \"Liberation Mono\", Menlo, Courier, monospace", "stroke_opacity": ".8", "colors": ["#909090", "#000000", "#ff0500", "#323299", "#a3413f", "#a3413f", "#a3413f", "#a3413f", "#a3413f", "#657fff", "#657fff", "#657fff", "#657fff", "#657fff"], "transition": "150ms", "value_label_font_size": 10, "no_data_font_size": 64, "guide_stroke_dasharray": "4,4", "tooltip_font_size": 14, "major_label_font_family": "Consolas, \"Liberation Mono\", Menlo, Courier, monospace", "label_font_size": 10, "value_colors": [], "font_family": "Consolas, \"Liberation Mono\", Menlo, Courier, monospace", "major_label_font_size": 10, "legend_font_family": "Consolas, \"Liberation Mono\", Menlo, Courier, monospace", "value_font_size": 16, "legend_font_size": 10, "major_guide_stroke_dasharray": "6,6", "title_font_family": "Consolas, \"Liberation Mono\", Menlo, Courier, monospace", "plot_background": "rgba(255, 255, 255, 1)", "value_font_family": "Consolas, \"Liberation Mono\", Menlo, Courier, monospace", "background": "rgba(249, 249, 249, 1)", "foreground": "rgba(0, 0, 0, .87)", "title_font_size": 16, "value_background": "rgba(229, 229, 229, 1)", "value_label_font_family": "Consolas, \"Liberation Mono\", Menlo, Courier, monospace", "no_data_font_family": "Consolas, \"Liberation Mono\", Menlo, Courier, monospace"}, "margin_bottom": null, "tooltip_fancy_mode": true, "logarithmic": false, "missing_value_fill_truncation": "x", "spacing": 10, "max_scale": 16, "y_labels_major_count": null, "x_title": "Observation", "stroke": true, "y_label_rotation": 0, "show_dots": false, "half_pie": false, "legend_box_size": 12, "dynamic_print_values": false, "legend_at_bottom_columns": null, "disable_xml_declaration": false, "classes": ["pygal-chart"], "margin_left": null, "force_uri_protocol": "https", "x_label_rotation": 60, "print_values_position": "center", "x_labels_major_every": 2, "strict": false, "height": 600, "stack_from_top": false, "include_x_axis": false, "y_labels_major_every": null, "box_mode": "extremes", "interpolation_parameters": {}, "min_scale": 4, "show_minor_x_labels": false, "stroke_style": null, "range": [0, 0.27578580090479526], "tooltip_border_radius": 0, "y_labels_major": null}</script><script type="text/javascript" xlink:href="https://kozea.github.io/pygal.js/2.0.x/pygal-tooltips.min.js" /></defs><title>Iteration #7</title><g class="graph line-graph vertical"><rect class="background" height="600" width="800" x="0" y="0" /><g class="plot" transform="translate(144, 46)"><rect class="background" height="472.01923788646684" width="636.0" x="0" y="0" /><g class="axis y always_show"><g class="guides"><path class="axis major line" d="M0.000000 462.941945 h636.000000" /><text class="major" x="-5" y="466.44194485">0</text><title>0</title></g><g class="guides"><path class="guide line" d="M0.000000 430.027658 h636.000000" /><text class="" x="-5" y="433.527657724">0.02</text><title>0.02</title></g><g class="guides"><path class="guide line" d="M0.000000 397.113371 h636.000000" /><text class="" x="-5" y="400.613370598">0.04</text><title>0.04</title></g><g class="guides"><path class="guide line" d="M0.000000 364.199083 h636.000000" /><text class="" x="-5" y="367.699083472">0.06</text><title>0.06</title></g><g class="guides"><path class="guide line" d="M0.000000 331.284796 h636.000000" /><text class="" x="-5" y="334.784796346">0.08</text><title>0.08</title></g><g class="guides"><path class="guide line" d="M0.000000 298.370509 h636.000000" /><text class="" x="-5" y="301.87050922">0.1</text><title>0.1</title></g><g class="guides"><path class="guide line" d="M0.000000 265.456222 h636.000000" /><text class="" x="-5" y="268.956222094">0.12</text><title>0.12</title></g><g class="guides"><path class="guide line" d="M0.000000 232.541935 h636.000000" /><text class="" x="-5" y="236.041934968">0.14</text><title>0.14</title></g><g class="guides"><path class="guide line" d="M0.000000 199.627648 h636.000000" /><text class="" x="-5" y="203.127647841">0.16</text><title>0.16</title></g><g class="guides"><path class="guide line" d="M0.000000 166.713361 h636.000000" /><text class="" x="-5" y="170.213360715">0.18</text><title>0.18</title></g><g class="guides"><path class="guide line" d="M0.000000 133.799074 h636.000000" /><text class="" x="-5" y="137.299073589">0.2</text><title>0.2</title></g><g class="guides"><path class="guide line" d="M0.000000 100.884786 h636.000000" /><text class="" x="-5" y="104.384786463">0.22</text><title>0.22</title></g><g class="guides"><path class="guide line" d="M0.000000 67.970499 h636.000000" /><text class="" x="-5" y="71.4704993371">0.24</text><title>0.24</title></g><g class="guides"><path class="guide line" d="M0.000000 35.056212 h636.000000" /><text class="" x="-5" y="38.5562122111">0.26</text><title>0.26</title></g></g><g class="axis x"><g class="guides"><path class="major line" d="M12.230769 0.000000 v472.019238" /><text class="major" transform="rotate(60 12.230769 487.019238)" x="12.230769230769232" y="487.01923788646684">-8.96</text></g><g class="guides"><path class="major guide line" d="M32.960887 0.000000 v472.019238" /><text class="major" transform="rotate(60 32.960887 487.019238)" x="32.96088657105606" y="487.01923788646684">-8.56</text></g><g class="guides"><path class="major guide line" d="M53.691004 0.000000 v472.019238" /><text class="major" transform="rotate(60 53.691004 487.019238)" x="53.6910039113429" y="487.01923788646684">-8.16</text></g><g class="guides"><path class="major guide line" d="M74.421121 0.000000 v472.019238" /><text class="major" transform="rotate(60 74.421121 487.019238)" x="74.42112125162973" y="487.01923788646684">-7.76</text></g><g class="guides"><path class="major guide line" d="M95.151239 0.000000 v472.019238" /><text class="major" transform="rotate(60 95.151239 487.019238)" x="95.15123859191655" y="487.01923788646684">-7.36</text></g><g class="guides"><path class="major guide line" d="M115.881356 0.000000 v472.019238" /><text class="major" transform="rotate(60 115.881356 487.019238)" x="115.88135593220338" y="487.01923788646684">-6.96</text></g><g class="guides"><path class="major guide line" d="M136.611473 0.000000 v472.019238" /><text class="major" transform="rotate(60 136.611473 487.019238)" x="136.61147327249023" y="487.01923788646684">-6.56</text></g><g class="guides"><path class="major guide line" d="M157.341591 0.000000 v472.019238" /><text class="major" transform="rotate(60 157.341591 487.019238)" x="157.34159061277705" y="487.01923788646684">-6.16</text></g><g class="guides"><path class="major guide line" d="M178.071708 0.000000 v472.019238" /><text class="major" transform="rotate(60 178.071708 487.019238)" x="178.0717079530639" y="487.01923788646684">-5.76</text></g><g class="guides"><path class="major guide line" d="M198.801825 0.000000 v472.019238" /><text class="major" transform="rotate(60 198.801825 487.019238)" x="198.80182529335073" y="487.01923788646684">-5.36</text></g><g class="guides"><path class="major guide line" d="M219.531943 0.000000 v472.019238" /><text class="major" transform="rotate(60 219.531943 487.019238)" x="219.53194263363756" y="487.01923788646684">-4.96</text></g><g class="guides"><path class="major guide line" d="M240.262060 0.000000 v472.019238" /><text class="major" transform="rotate(60 240.262060 487.019238)" x="240.2620599739244" y="487.01923788646684">-4.56</text></g><g class="guides"><path class="major guide line" d="M260.992177 0.000000 v472.019238" /><text class="major" transform="rotate(60 260.992177 487.019238)" x="260.99217731421123" y="487.01923788646684">-4.16</text></g><g class="guides"><path class="major guide line" d="M281.722295 0.000000 v472.019238" /><text class="major" transform="rotate(60 281.722295 487.019238)" x="281.722294654498" y="487.01923788646684">-3.76</text></g><g class="guides"><path class="major guide line" d="M302.452412 0.000000 v472.019238" /><text class="major" transform="rotate(60 302.452412 487.019238)" x="302.4524119947849" y="487.01923788646684">-3.36</text></g><g class="guides"><path class="major guide line" d="M323.182529 0.000000 v472.019238" /><text class="major" transform="rotate(60 323.182529 487.019238)" x="323.1825293350717" y="487.01923788646684">-2.96</text></g><g class="guides"><path class="major guide line" d="M343.912647 0.000000 v472.019238" /><text class="major" transform="rotate(60 343.912647 487.019238)" x="343.91264667535853" y="487.01923788646684">-2.56</text></g><g class="guides"><path class="major guide line" d="M364.642764 0.000000 v472.019238" /><text class="major" transform="rotate(60 364.642764 487.019238)" x="364.64276401564535" y="487.01923788646684">-2.16</text></g><g class="guides"><path class="major guide line" d="M385.372881 0.000000 v472.019238" /><text class="major" transform="rotate(60 385.372881 487.019238)" x="385.37288135593224" y="487.01923788646684">-1.76</text></g><g class="guides"><path class="major guide line" d="M406.102999 0.000000 v472.019238" /><text class="major" transform="rotate(60 406.102999 487.019238)" x="406.102998696219" y="487.01923788646684">-1.36</text></g><g class="guides"><path class="major guide line" d="M426.833116 0.000000 v472.019238" /><text class="major" transform="rotate(60 426.833116 487.019238)" x="426.8331160365058" y="487.01923788646684">-0.96</text></g><g class="guides"><path class="major guide line" d="M447.563233 0.000000 v472.019238" /><text class="major" transform="rotate(60 447.563233 487.019238)" x="447.56323337679265" y="487.01923788646684">-0.56</text></g><g class="guides"><path class="major guide line" d="M468.293351 0.000000 v472.019238" /><text class="major" transform="rotate(60 468.293351 487.019238)" x="468.29335071707953" y="487.01923788646684">-0.16</text></g><g class="guides"><path class="major guide line" d="M489.023468 0.000000 v472.019238" /><text class="major" transform="rotate(60 489.023468 487.019238)" x="489.02346805736636" y="487.01923788646684">0.24</text></g><g class="guides"><path class="major guide line" d="M509.753585 0.000000 v472.019238" /><text class="major" transform="rotate(60 509.753585 487.019238)" x="509.75358539765324" y="487.01923788646684">0.64</text></g><g class="guides"><path class="major guide line" d="M530.483703 0.000000 v472.019238" /><text class="major" transform="rotate(60 530.483703 487.019238)" x="530.48370273794" y="487.01923788646684">1.04</text></g><g class="guides"><path class="major guide line" d="M551.213820 0.000000 v472.019238" /><text class="major" transform="rotate(60 551.213820 487.019238)" x="551.213820078227" y="487.01923788646684">1.43</text></g><g class="guides"><path class="major guide line" d="M571.943937 0.000000 v472.019238" /><text class="major" transform="rotate(60 571.943937 487.019238)" x="571.9439374185138" y="487.01923788646684">1.83</text></g><g class="guides"><path class="major guide line" d="M592.674055 0.000000 v472.019238" /><text class="major" transform="rotate(60 592.674055 487.019238)" x="592.6740547588006" y="487.01923788646684">2.23</text></g><g class="guides"><path class="major guide line" d="M613.404172 0.000000 v472.019238" /><text class="major" transform="rotate(60 613.404172 487.019238)" x="613.4041720990874" y="487.01923788646684">2.63</text></g></g><g class="series serie-0 color-0"><path class="line reactive" d="M12.230769 462.941945 L12.230769 462.019456 22.595828 462.941945 32.960887 461.096967 43.325945 462.019456 53.691004 459.251988 64.056063 462.019456 74.421121 458.329499 84.786180 462.019456 95.151239 458.329499 105.516297 462.019456 115.881356 448.182119 126.246415 460.174477 136.611473 457.407010 146.976532 457.407010 157.341591 451.872075 167.706649 448.182119 178.071708 454.639543 188.436767 445.414651 198.801825 442.647184 209.166884 436.189760 219.531943 437.112249 229.897001 392.832771 240.262060 396.522728 250.627119 376.227967 260.992177 355.933206 271.357236 351.320760 281.722295 325.491065 292.087353 277.521630 302.452412 283.056565 312.817471 202.800010 323.182529 188.040184 333.547588 169.590402 343.912647 123.465945 354.277705 95.791271 364.642764 67.194108 375.007823 82.876423 385.372881 60.736684 395.737940 80.108956 406.102999 29.372054 416.468057 9.077293 426.833116 70.884065 437.198175 69.039086 447.563233 41.364413 457.928292 40.441923 468.293351 91.178826 478.658409 140.993239 489.023468 214.792369 499.388527 259.071847 509.753585 321.801108 520.118644 364.235608 530.483703 408.515086 540.848761 430.654825 551.213820 448.182119 561.578879 455.562032 571.943937 458.329499 582.308996 458.329499 592.674055 462.019456 603.039113 462.941945 613.404172 462.019456 623.769231 462.941945" /></g><g class="series serie-1 color-1"><path class="line reactive nofill" d="M12.230769 462.871994 L22.595828 462.829511 32.960887 462.764280 43.325945 462.665947 53.691004 462.520434 64.056063 462.309078 74.421121 462.007788 84.786180 461.586337 95.151239 461.007917 105.516297 460.229132 115.881356 459.200575 126.246415 457.868079 136.611473 456.174583 146.976532 454.062322 157.341591 451.474689 167.706649 448.356667 178.071708 444.652268 188.436767 440.297135 198.801825 435.204536 209.166884 429.243893 219.531943 422.212804 229.897001 413.806579 240.262060 403.593171 250.627119 391.005511 260.992177 375.366289 271.357236 355.960759 281.722295 332.169138 292.087353 303.659670 302.452412 270.624634 312.817471 234.014083 323.182529 195.689652 333.547588 158.394337 343.912647 125.433774 354.277705 100.015300 364.642764 84.310649 375.007823 78.485334 385.372881 80.111055 395.737940 84.430741 406.102999 85.749423 416.468057 79.734521 426.833116 65.784436 437.198175 48.241743 447.563233 35.488314 457.928292 36.938417 468.293351 59.166146 478.658409 103.053976 489.023468 163.388994 499.388527 230.993397 509.753585 296.143007 520.118644 351.554932 530.483703 393.785167 540.848761 422.923791 551.213820 441.276500 561.578879 451.907433 571.943937 457.615136 582.308996 460.480759 592.674055 461.840467 603.039113 462.457995 613.404172 462.730383 623.769231 462.848877" /></g><g class="series serie-2 color-2"><path class="line reactive nofill" d="M12.230769 462.941945 L22.595828 462.941945 32.960887 462.941945 43.325945 462.941945 53.691004 462.941945 64.056063 462.941945 74.421121 462.941945 84.786180 462.941945 95.151239 462.941945 105.516297 462.941945 115.881356 462.941945 126.246415 462.941945 136.611473 462.941945 146.976532 462.941945 157.341591 462.941945 167.706649 462.941945 178.071708 462.941945 188.436767 462.941944 198.801825 462.941941 209.166884 462.941933 219.531943 462.941909 229.897001 462.941841 240.262060 462.941654 250.627119 462.941159 260.992177 462.939882 271.357236 462.936668 281.722295 462.928714 292.087353 462.909278 302.452412 462.862209 312.817471 462.749289 323.182529 462.482374 333.547588 461.866643 343.912647 460.496916 354.277705 457.594612 364.642764 451.803280 375.007823 441.027979 385.372881 422.495823 395.737940 393.269424 406.102999 351.356325 416.468057 297.250134 426.833116 235.291406 437.198175 173.939091 447.563233 124.257779 457.928292 96.755474 468.293351 97.754147 478.658409 127.008834 489.023468 177.806715 499.388527 239.491089 509.753585 301.107101 520.118644 354.465263 530.483703 395.515176 540.848761 423.971924 551.213820 441.923156 561.578879 452.311463 571.943937 457.868868 582.308996 460.639780 592.674055 461.939374 603.039113 462.518810 613.404172 462.767260 623.769231 462.870899" /></g><g class="series serie-3 color-3"><path class="line reactive nofill" d="M12.230769 462.871994 L22.595828 462.829511 32.960887 462.764280 43.325945 462.665947 53.691004 462.520434 64.056063 462.309078 74.421121 462.007788 84.786180 461.586337 95.151239 461.007917 105.516297 460.229132 115.881356 459.200575 126.246415 457.868079 136.611473 456.174583 146.976532 454.062322 157.341591 451.474689 167.706649 448.356667 178.071708 444.652269 188.436767 440.297136 198.801825 435.204540 209.166884 429.243905 219.531943 422.212840 229.897001 413.806683 240.262060 403.593462 250.627119 391.006297 260.992177 375.368351 271.357236 355.966036 281.722295 332.182369 292.087353 303.692337 302.452412 270.704370 312.817471 234.206739 323.182529 196.149222 333.547588 159.469638 343.912647 127.878803 354.277705 105.362633 364.642764 95.449314 375.007823 100.399299 385.372881 120.557177 395.737940 154.103262 406.102999 197.335042 416.468057 245.426331 426.833116 293.434974 437.198175 337.244596 447.563233 374.172480 457.928292 403.124888 468.293351 424.353944 478.658409 438.987087 489.023468 448.524225 499.388527 454.444253 509.753585 457.977851 520.118644 460.031613 530.483703 461.211936 540.848761 461.893812 551.213820 462.295289 561.578879 462.537914 571.943937 462.688213 582.308996 462.782924 592.674055 462.843038 603.039113 462.881130 613.404172 462.905068 623.769231 462.919924" /></g><g class="series serie-4 color-4"><path class="line reactive nofill" d="M12.230769 462.941945 L22.595828 462.941945 32.960887 462.941945 43.325945 462.941945 53.691004 462.941945 64.056063 462.941945 74.421121 462.941945 84.786180 462.941945 95.151239 462.941945 105.516297 462.941945 115.881356 462.941945 126.246415 462.941945 136.611473 462.941945 146.976532 462.941945 157.341591 462.941945 167.706649 462.941945 178.071708 462.941945 188.436767 462.941945 198.801825 462.941945 209.166884 462.941945 219.531943 462.941945 229.897001 462.941945 240.262060 462.941945 250.627119 462.941943 260.992177 462.941933 271.357236 462.941881 281.722295 462.941638 292.087353 462.940598 302.452412 462.936525 312.817471 462.921967 323.182529 462.874472 333.547588 462.733152 343.912647 462.349947 354.277705 461.404007 364.642764 459.281177 375.007823 454.957944 385.372881 446.987420 395.737940 433.729897 406.102999 413.935297 416.468057 387.612830 426.833116 356.849220 437.198175 326.035716 447.563233 301.068474 457.928292 287.576904 468.293351 288.871424 478.658409 304.626858 489.023468 331.014774 499.388527 362.211429 509.753585 392.472194 520.118644 417.770988 530.483703 436.412345 540.848761 448.665601 551.213820 455.902829 561.578879 459.761893 571.943937 461.625614 582.308996 462.442703 592.674055 462.768456 603.039113 462.886706 613.404172 462.925830 623.769231 462.937637" /></g><g class="series serie-5 color-5"><path class="line reactive nofill" d="M12.230769 462.941945 L22.595828 462.941945 32.960887 462.941945 43.325945 462.941945 53.691004 462.941945 64.056063 462.941945 74.421121 462.941945 84.786180 462.941945 95.151239 462.941945 105.516297 462.941945 115.881356 462.941945 126.246415 462.941945 136.611473 462.941945 146.976532 462.941945 157.341591 462.941945 167.706649 462.941945 178.071708 462.941945 188.436767 462.941945 198.801825 462.941945 209.166884 462.941945 219.531943 462.941945 229.897001 462.941945 240.262060 462.941944 250.627119 462.941942 260.992177 462.941928 271.357236 462.941865 281.722295 462.941594 292.087353 462.940523 302.452412 462.936631 312.817471 462.923656 323.182529 462.883961 333.547588 462.772613 343.912647 462.486437 354.277705 461.813253 364.642764 460.365752 375.007823 457.525619 385.372881 452.452453 395.737940 444.229631 406.102999 432.193451 416.468057 416.400108 426.833116 398.050640 437.198175 379.602076 447.563233 364.349773 457.928292 355.504573 468.293351 355.099026 478.658409 363.229076 489.023468 378.017228 499.388527 396.316470 509.753585 414.794877 520.118644 430.892339 530.483703 443.290302 540.848761 451.842574 551.213820 457.167355 561.578879 460.174575 571.943937 461.720323 582.308996 462.445204 592.674055 462.755888 603.039113 462.877752 613.404172 462.921544 623.769231 462.935973" /></g><g class="series serie-6 color-6"><path class="line reactive nofill" d="M12.230769 462.941945 L22.595828 462.941945 32.960887 462.941945 43.325945 462.941945 53.691004 462.941945 64.056063 462.941945 74.421121 462.941945 84.786180 462.941945 95.151239 462.941945 105.516297 462.941945 115.881356 462.941945 126.246415 462.941945 136.611473 462.941945 146.976532 462.941945 157.341591 462.941945 167.706649 462.941945 178.071708 462.941945 188.436767 462.941945 198.801825 462.941945 209.166884 462.941945 219.531943 462.941945 229.897001 462.941944 240.262060 462.941941 250.627119 462.941928 260.992177 462.941874 271.357236 462.941672 281.722295 462.940960 292.087353 462.938641 302.452412 462.931620 312.817471 462.911898 323.182529 462.860509 333.547588 462.736390 343.912647 462.458735 354.277705 461.884066 364.642764 460.785047 375.007823 458.846356 385.372881 455.699310 395.737940 451.013879 406.102999 444.646761 416.468057 436.808489 426.833116 428.176307 437.198175 419.869763 447.563233 413.244183 457.928292 409.538398 468.293351 409.498227 478.658409 413.131946 489.023468 419.707519 499.388527 427.992832 509.753585 436.631031 520.118644 444.494807 530.483703 450.896707 540.848761 455.617157 551.213820 458.793665 561.578879 460.754011 571.943937 461.867229 582.308996 462.450305 592.674055 462.732489 603.039113 462.858839 613.404172 462.911236 623.769231 462.931377" /></g><g class="series serie-7 color-7"><path class="line reactive nofill" d="M12.230769 462.941945 L22.595828 462.941945 32.960887 462.941945 43.325945 462.941945 53.691004 462.941945 64.056063 462.941945 74.421121 462.941945 84.786180 462.941945 95.151239 462.941945 105.516297 462.941945 115.881356 462.941945 126.246415 462.941945 136.611473 462.941945 146.976532 462.941945 157.341591 462.941945 167.706649 462.941945 178.071708 462.941945 188.436767 462.941945 198.801825 462.941945 209.166884 462.941944 219.531943 462.941942 229.897001 462.941935 240.262060 462.941910 250.627119 462.941828 260.992177 462.941570 271.357236 462.940815 281.722295 462.938732 292.087353 462.933326 302.452412 462.920133 312.817471 462.889874 323.182529 462.824683 333.547588 462.692840 343.912647 462.442752 354.277705 461.998281 364.642764 461.259163 375.007823 460.111202 385.372881 458.449993 395.737940 456.217884 406.102999 453.447048 416.468057 450.294265 426.833116 447.049399 437.198175 444.103802 447.563233 441.877758 457.928292 440.723519 468.293351 440.834229 478.658409 442.191067 489.023468 444.568480 499.388527 447.595505 509.753585 450.850276 520.118644 453.954695 530.483703 456.640656 540.848761 458.774269 551.213820 460.341662 561.578879 461.411530 571.943937 462.092256 582.308996 462.496932 592.674055 462.722085 603.039113 462.839478 613.404172 462.896896 623.769231 462.923262" /></g><g class="series serie-8 color-8"><path class="line reactive nofill" d="M12.230769 462.941945 L22.595828 462.941945 32.960887 462.941945 43.325945 462.941945 53.691004 462.941945 64.056063 462.941945 74.421121 462.941945 84.786180 462.941945 95.151239 462.941945 105.516297 462.941945 115.881356 462.941945 126.246415 462.941945 136.611473 462.941945 146.976532 462.941945 157.341591 462.941945 167.706649 462.941945 178.071708 462.941945 188.436767 462.941944 198.801825 462.941941 209.166884 462.941934 219.531943 462.941912 229.897001 462.941851 240.262060 462.941694 250.627119 462.941299 260.992177 462.940357 271.357236 462.938214 281.722295 462.933569 292.087353 462.923971 302.452412 462.905079 312.817471 462.869674 323.182529 462.806528 333.547588 462.699428 343.912647 462.526824 354.277705 462.262784 364.642764 461.879920 375.007823 461.354638 385.372881 460.674425 395.737940 459.845913 406.102999 458.901548 416.468057 457.902222 426.833116 456.933620 437.198175 456.095513 447.563233 455.485371 457.928292 455.179859 468.293351 455.219021 478.658409 455.597666 489.023468 456.266492 499.388527 457.142634 509.753585 458.126503 520.118644 459.120214 530.483703 460.042945 540.848761 460.840101 551.213820 461.485424 561.578879 461.977234 571.943937 462.331225 582.308996 462.572414 592.674055 462.728236 603.039113 462.823815 613.404172 462.879534 623.769231 462.910429" /></g><g class="series serie-9 color-9"><path class="line reactive nofill" d="M12.230769 462.941945 L22.595828 462.941945 32.960887 462.941945 43.325945 462.941945 53.691004 462.941945 64.056063 462.941945 74.421121 462.941945 84.786180 462.941945 95.151239 462.941945 105.516297 462.941945 115.881356 462.941945 126.246415 462.941945 136.611473 462.941945 146.976532 462.941944 157.341591 462.941942 167.706649 462.941931 178.071708 462.941888 188.436767 462.941731 198.801825 462.941191 209.166884 462.939454 219.531943 462.934243 229.897001 462.919666 240.262060 462.881656 250.627119 462.789312 260.992177 462.580428 271.357236 462.140858 281.722295 461.281214 292.087353 459.720964 302.452412 457.097462 312.817471 453.020544 323.182529 447.185112 333.547588 439.530191 343.912647 430.398163 354.277705 420.619463 364.642764 411.449526 375.007823 404.330219 385.372881 400.526112 395.737940 400.758600 406.102999 404.982737 416.468057 412.401408 426.833116 421.710713 437.198175 431.473026 447.563233 440.471774 457.928292 447.931278 468.293351 453.560653 478.658409 457.456721 489.023468 459.941435 499.388527 461.406391 509.753585 462.206748 520.118644 462.612630 530.483703 462.803942 540.848761 462.887840 551.213820 462.922100 561.578879 462.935135 571.943937 462.939759 582.308996 462.941288 592.674055 462.941760 603.039113 462.941896 613.404172 462.941933 623.769231 462.941942" /></g><g class="series serie-10 color-10"><path class="line reactive nofill" d="M12.230769 462.941945 L22.595828 462.941945 32.960887 462.941945 43.325945 462.941945 53.691004 462.941945 64.056063 462.941945 74.421121 462.941945 84.786180 462.941945 95.151239 462.941945 105.516297 462.941945 115.881356 462.941944 126.246415 462.941943 136.611473 462.941937 146.976532 462.941915 157.341591 462.941837 167.706649 462.941572 178.071708 462.940734 188.436767 462.938236 198.801825 462.931241 209.166884 462.912832 219.531943 462.867334 229.897001 462.761769 240.262060 462.531960 250.627119 462.062887 260.992177 461.165934 271.357236 459.560894 281.722295 456.876873 292.087353 452.690189 302.452412 446.613730 312.817471 438.436801 323.182529 428.287903 333.547588 416.764633 343.912647 404.961505 354.277705 394.343786 364.642764 386.466586 375.007823 382.606225 385.372881 383.422387 395.737940 388.773816 406.102999 397.758276 416.468057 408.961262 426.833116 420.819259 437.198175 431.969760 447.563233 441.483131 457.928292 448.932604 468.293351 454.323919 478.658409 457.946479 489.023468 460.213455 499.388527 461.537688 509.753585 462.260942 520.118644 462.630752 530.483703 462.807950 540.848761 462.887579 551.213820 462.921160 561.578879 462.934457 571.943937 462.939403 582.308996 462.941132 592.674055 462.941700 603.039113 462.941875 613.404172 462.941926 623.769231 462.941940" /></g><g class="series serie-11 color-11"><path class="line reactive nofill" d="M12.230769 462.941945 L22.595828 462.941945 32.960887 462.941945 43.325945 462.941945 53.691004 462.941945 64.056063 462.941945 74.421121 462.941945 84.786180 462.941944 95.151239 462.941942 105.516297 462.941935 115.881356 462.941910 126.246415 462.941827 136.611473 462.941570 146.976532 462.940813 157.341591 462.938695 167.706649 462.933081 178.071708 462.918984 188.436767 462.885456 198.801825 462.809947 209.166884 462.648998 219.531943 462.324449 229.897001 461.705710 240.262060 460.591284 250.627119 458.696719 260.992177 455.660231 271.357236 451.079112 281.722295 444.586489 292.087353 435.966793 302.452412 425.290245 312.817471 413.027384 323.182529 400.093883 333.547588 387.783377 343.912647 377.575524 354.277705 370.850855 364.642764 368.585813 375.007823 371.120397 385.372881 378.074513 395.737940 388.441395 406.102999 400.826461 416.468057 413.753598 426.833116 425.946645 437.198175 436.514641 447.563233 445.011911 457.928292 451.387972 468.293351 455.870575 478.658409 458.831416 489.023468 460.672530 499.388527 461.751931 509.753585 462.349276 520.118644 462.661599 530.483703 462.815995 540.848761 462.888202 551.213820 462.920164 561.578879 462.933561 571.943937 462.938880 582.308996 462.940881 592.674055 462.941594 603.039113 462.941835 613.404172 462.941912 623.769231 462.941936" /></g><g class="series serie-12 color-12"><path class="line reactive nofill" d="M12.230769 462.941945 L22.595828 462.941945 32.960887 462.941945 43.325945 462.941944 53.691004 462.941942 64.056063 462.941936 74.421121 462.941916 84.786180 462.941857 95.151239 462.941685 105.516297 462.941214 115.881356 462.939977 126.246415 462.936866 136.611473 462.929396 146.976532 462.912252 157.341591 462.874670 167.706649 462.795986 178.071708 462.638714 188.436767 462.338709 198.801825 461.792808 209.166884 460.845773 219.531943 459.280500 229.897001 456.817757 240.262060 453.133165 250.627119 447.898340 260.992177 440.848710 271.357236 431.872239 281.722295 421.102548 292.087353 408.990366 302.452412 396.323676 312.817471 384.173371 323.182529 373.758740 333.547588 366.251486 343.912647 362.560229 354.277705 363.149867 364.642764 367.945366 375.007823 376.347443 385.372881 387.355639 395.737940 399.763872 406.102999 412.375772 416.468057 424.187257 426.833116 434.500028 437.198175 442.954194 447.563233 449.491414 457.928292 454.274613 468.293351 457.593816 478.658409 459.781933 489.023468 461.154033 499.388527 461.973279 509.753585 462.439403 520.118644 462.692290 530.483703 462.823182 540.848761 462.887846 551.213820 462.918347 561.578879 462.932088 571.943937 462.938003 582.308996 462.940435 592.674055 462.941391 603.039113 462.941750 613.404172 462.941879 623.769231 462.941924" /></g><g class="series serie-13 color-13"><path class="line reactive nofill" d="M12.230769 462.871994 L22.595828 462.829511 32.960887 462.764280 43.325945 462.665948 53.691004 462.520437 64.056063 462.309087 74.421121 462.007817 84.786180 461.586426 95.151239 461.008179 105.516297 460.229872 115.881356 459.202579 126.246415 457.873278 136.611473 456.187515 146.976532 454.093177 157.341591 451.545326 167.706649 448.511876 178.071708 444.979727 188.436767 440.960783 198.801825 436.497132 209.166884 431.664628 219.531943 426.574094 229.897001 421.369560 240.262060 416.223176 250.627119 411.326819 260.992177 406.880827 271.357236 403.080712 281.722295 400.103024 292.087353 398.091804 302.452412 397.147036 312.817471 397.316418 323.182529 398.591365 333.547588 400.907731 343.912647 404.151161 354.277705 408.166442 364.642764 412.769802 375.007823 417.762793 385.372881 422.946305 395.737940 428.133359 406.102999 433.159575 416.468057 437.890586 426.833116 442.226109 437.198175 446.100754 447.563233 449.482031 457.928292 452.366201 468.293351 454.772760 478.658409 456.738318 489.023468 458.310551 499.388527 459.542743 509.753585 460.489262 520.118644 461.202122 530.483703 461.728646 540.848761 462.110125 551.213820 462.381297 561.578879 462.570452 571.943937 462.699948 582.308996 462.786967 592.674055 462.844373 603.039113 462.881552 613.404172 462.905196 623.769231 462.919962" /></g></g><g class="titles"><text class="title plot_title" x="400.0" y="26">Iteration #7</text><text class="title" x="462.0" y="580.0">Observation</text><text class="title" transform="rotate(-90 64.000000 282.009619)" x="64.0" y="308.0096189432334">Density</text></g><g class="plot overlay" transform="translate(144, 46)"><g class="series serie-0 color-0" /><g class="series serie-1 color-1" /><g class="series serie-2 color-2" /><g class="series serie-3 color-3" /><g class="series serie-4 color-4" /><g class="series serie-5 color-5" /><g class="series serie-6 color-6" /><g class="series serie-7 color-7" /><g class="series serie-8 color-8" /><g class="series serie-9 color-9" /><g class="series serie-10 color-10" /><g class="series serie-11 color-11" /><g class="series serie-12 color-12" /><g class="series serie-13 color-13" /></g><g class="plot text-overlay" transform="translate(144, 46)"><g class="series serie-0 color-0" /><g class="series serie-1 color-1" /><g class="series serie-2 color-2" /><g class="series serie-3 color-3" /><g class="series serie-4 color-4" /><g class="series serie-5 color-5" /><g class="series serie-6 color-6" /><g class="series serie-7 color-7" /><g class="series serie-8 color-8" /><g class="series serie-9 color-9" /><g class="series serie-10 color-10" /><g class="series serie-11 color-11" /><g class="series serie-12 color-12" /><g class="series serie-13 color-13" /></g><g class="plot tooltip-overlay" transform="translate(144, 46)"><g class="tooltip" style="opacity: 0" transform="translate(0 0)"><rect class="tooltip-box" height="0" rx="0" ry="0" width="0" /><g class="text" /></g></g><g class="legends" transform="translate(10, 56)"><g class="legend reactive activate-serie" id="activate-serie-0"><rect class="color-0 reactive" height="12" width="12" x="0.0" y="0.0" /><text x="17.0" y="9.0">Data</text></g><g class="legend reactive activate-serie" id="activate-serie-1"><rect class="color-1 reactive" height="12" width="12" x="0.0" y="18.0" /><text x="17.0" y="27.0">GMM</text></g><g class="legend reactive activate-serie" id="activate-serie-2"><rect class="color-2 reactive" height="12" width="12" x="0.0" y="36.0" /><text x="17.0" y="45.0">i=0</text></g><g class="legend reactive activate-serie" id="activate-serie-3"><rect class="color-3 reactive" height="12" width="12" x="0.0" y="54.0" /><text x="17.0" y="63.0">i=1</text></g><g class="legend reactive activate-serie" id="activate-serie-4"><rect class="color-4 reactive" height="12" width="12" x="0.0" y="72.0" /><text x="17.0" y="81.0">i=0 k=0</text></g><g class="legend reactive activate-serie" id="activate-serie-5"><rect class="color-5 reactive" height="12" width="12" x="0.0" y="90.0" /><text x="17.0" y="99.0">i=0 k=1</text></g><g class="legend reactive activate-serie" id="activate-serie-6"><rect class="color-6 reactive" height="12" width="12" x="0.0" y="108.0" /><text x="17.0" y="117.0">i=0 k=2</text></g><g class="legend reactive activate-serie" id="activate-serie-7"><rect class="color-7 reactive" height="12" width="12" x="0.0" y="126.0" /><text x="17.0" y="135.0">i=0 k=3</text></g><g class="legend reactive activate-serie" id="activate-serie-8"><rect class="color-8 reactive" height="12" width="12" x="0.0" y="144.0" /><text x="17.0" y="153.0">i=0 k=4</text></g><g class="legend reactive activate-serie" id="activate-serie-9"><rect class="color-9 reactive" height="12" width="12" x="0.0" y="162.0" /><text x="17.0" y="171.0">i=1 k=0</text></g><g class="legend reactive activate-serie" id="activate-serie-10"><rect class="color-10 reactive" height="12" width="12" x="0.0" y="180.0" /><text x="17.0" y="189.0">i=1 k=1</text></g><g class="legend reactive activate-serie" id="activate-serie-11"><rect class="color-11 reactive" height="12" width="12" x="0.0" y="198.0" /><text x="17.0" y="207.0">i=1 k=2</text></g><g class="legend reactive activate-serie" id="activate-serie-12"><rect class="color-12 reactive" height="12" width="12" x="0.0" y="216.0" /><text x="17.0" y="225.0">i=1 k=3</text></g><g class="legend reactive activate-serie" id="activate-serie-13"><rect class="color-13 reactive" height="12" width="12" x="0.0" y="234.0" /><text x="17.0" y="243.0">i=1 k=4</text></g></g><g class="legends" transform="translate(790, 56)" /></g></svg>