<?xml version='1.0' encoding='utf-8'?>
<svg xmlns:xlink="http://www.w3.org/1999/xlink" class="pygal-chart" id="chart-fde47f79-c4c6-431a-b13a-89cd44407fba" viewBox="0 0 800 600" xmlns="http://www.w3.org/2000/svg"><!--Generated with pygal 2.4.0 (etree) ©Kozea 2012-2016 on 2018-01-17--><!--http://pygal.org--><!--http://github.com/Kozea/pygal--><defs><style type="text/css">#chart-fde47f79-c4c6-431a-b13a-89cd44407fba{-webkit-user-select:none;-webkit-font-smoothing:antialiased;font-family:Consolas,"Liberation Mono",Menlo,Courier,monospace}#chart-fde47f79-c4c6-431a-b13a-89cd44407fba .title{font-family:Consolas,"Liberation Mono",Menlo,Courier,monospace;font-size:16px}#chart-fde47f79-c4c6-431a-b13a-89cd44407fba .legends .legend text{font-family:Consolas,"Liberation Mono",Menlo,Courier,monospace;font-size:10px}#chart-fde47f79-c4c6-431a-b13a-89cd44407fba .axis text{font-family:Consolas,"Liberation Mono",Menlo,Courier,monospace;font-size:10px}#chart-fde47f79-c4c6-431a-b13a-89cd44407fba .axis text.major{font-family:Consolas,"Liberation Mono",Menlo,Courier,monospace;font-size:10px}#chart-fde47f79-c4c6-431a-b13a-89cd44407fba .text-overlay text.value{font-family:Consolas,"Liberation Mono",Menlo,Courier,monospace;font-size:16px}#chart-fde47f79-c4c6-431a-b13a-89cd44407fba .text-overlay text.label{font-family:Consolas,"Liberation Mono",Menlo,Courier,monospace;font-size:10px}#chart-fde47f79-c4c6-431a-b13a-89cd44407fba .tooltip{font-family:Consolas,"Liberation Mono",Menlo,Courier,monospace;font-size:14px}#chart-fde47f79-c4c6-431a-b13a-89cd44407fba text.no_data{font-family:Consolas,"Liberation Mono",Menlo,Courier,monospace;font-size:64px}
#chart-fde47f79-c4c6-431a-b13a-89cd44407fba{background-color:rgba(249,249,249,1)}#chart-fde47f79-c4c6-431a-b13a-89cd44407fba path,#chart-fde47f79-c4c6-431a-b13a-89cd44407fba line,#chart-fde47f79-c4c6-431a-b13a-89cd44407fba rect,#chart-fde47f79-c4c6-431a-b13a-89cd44407fba circle{-webkit-transition:150ms;-moz-transition:150ms;transition:150ms}#chart-fde47f79-c4c6-431a-b13a-89cd44407fba .graph &gt; .background{fill:rgba(249,249,249,1)}#chart-fde47f79-c4c6-431a-b13a-89cd44407fba .plot &gt; .background{fill:rgba(255,255,255,1)}#chart-fde47f79-c4c6-431a-b13a-89cd44407fba .graph{fill:rgba(0,0,0,.87)}#chart-fde47f79-c4c6-431a-b13a-89cd44407fba text.no_data{fill:rgba(0,0,0,1)}#chart-fde47f79-c4c6-431a-b13a-89cd44407fba .title{fill:rgba(0,0,0,1)}#chart-fde47f79-c4c6-431a-b13a-89cd44407fba .legends .legend text{fill:rgba(0,0,0,.87)}#chart-fde47f79-c4c6-431a-b13a-89cd44407fba .legends .legend:hover text{fill:rgba(0,0,0,1)}#chart-fde47f79-c4c6-431a-b13a-89cd44407fba .axis .line{stroke:rgba(0,0,0,1)}#chart-fde47f79-c4c6-431a-b13a-89cd44407fba .axis .guide.line{stroke:rgba(0,0,0,.54)}#chart-fde47f79-c4c6-431a-b13a-89cd44407fba .axis .major.line{stroke:rgba(0,0,0,.87)}#chart-fde47f79-c4c6-431a-b13a-89cd44407fba .axis text.major{fill:rgba(0,0,0,1)}#chart-fde47f79-c4c6-431a-b13a-89cd44407fba .axis.y .guides:hover .guide.line,#chart-fde47f79-c4c6-431a-b13a-89cd44407fba .line-graph .axis.x .guides:hover .guide.line,#chart-fde47f79-c4c6-431a-b13a-89cd44407fba .stackedline-graph .axis.x .guides:hover .guide.line,#chart-fde47f79-c4c6-431a-b13a-89cd44407fba .xy-graph .axis.x .guides:hover .guide.line{stroke:rgba(0,0,0,1)}#chart-fde47f79-c4c6-431a-b13a-89cd44407fba .axis .guides:hover text{fill:rgba(0,0,0,1)}#chart-fde47f79-c4c6-431a-b13a-89cd44407fba .reactive{fill-opacity:.7;stroke-opacity:.8}#chart-fde47f79-c4c6-431a-b13a-89cd44407fba .ci{stroke:rgba(0,0,0,.87)}#chart-fde47f79-c4c6-431a-b13a-89cd44407fba .reactive.active,#chart-fde47f79-c4c6-431a-b13a-89cd44407fba .active .reactive{fill-opacity:.8;stroke-opacity:.9;stroke-width:4}#chart-fde47f79-c4c6-431a-b13a-89cd44407fba .ci .reactive.active{stroke-width:1.5}#chart-fde47f79-c4c6-431a-b13a-89cd44407fba .series text{fill:rgba(0,0,0,1)}#chart-fde47f79-c4c6-431a-b13a-89cd44407fba .tooltip rect{fill:rgba(255,255,255,1);stroke:rgba(0,0,0,1);-webkit-transition:opacity 150ms;-moz-transition:opacity 150ms;transition:opacity 150ms}#chart-fde47f79-c4c6-431a-b13a-89cd44407fba .tooltip .label{fill:rgba(0,0,0,.87)}#chart-fde47f79-c4c6-431a-b13a-89cd44407fba .tooltip .label{fill:rgba(0,0,0,.87)}#chart-fde47f79-c4c6-431a-b13a-89cd44407fba .tooltip .legend{font-size:.8em;fill:rgba(0,0,0,.54)}#chart-fde47f79-c4c6-431a-b13a-89cd44407fba .tooltip .x_label{font-size:.6em;fill:rgba(0,0,0,1)}#chart-fde47f79-c4c6-431a-b13a-89cd44407fba .tooltip .xlink{font-size:.5em;text-decoration:underline}#chart-fde47f79-c4c6-431a-b13a-89cd44407fba .tooltip .value{font-size:1.5em}#chart-fde47f79-c4c6-431a-b13a-89cd44407fba .bound{font-size:.5em}#chart-fde47f79-c4c6-431a-b13a-89cd44407fba .max-value{font-size:.75em;fill:rgba(0,0,0,.54)}#chart-fde47f79-c4c6-431a-b13a-89cd44407fba .map-element{fill:rgba(255,255,255,1);stroke:rgba(0,0,0,.54) !important}#chart-fde47f79-c4c6-431a-b13a-89cd44407fba .map-element .reactive{fill-opacity:inherit;stroke-opacity:inherit}#chart-fde47f79-c4c6-431a-b13a-89cd44407fba .color-0,#chart-fde47f79-c4c6-431a-b13a-89cd44407fba .color-0 a:visited{stroke:#909090;fill:#909090}#chart-fde47f79-c4c6-431a-b13a-89cd44407fba .color-1,#chart-fde47f79-c4c6-431a-b13a-89cd44407fba .color-1 a:visited{stroke:#000000;fill:#000000}#chart-fde47f79-c4c6-431a-b13a-89cd44407fba .color-2,#chart-fde47f79-c4c6-431a-b13a-89cd44407fba .color-2 a:visited{stroke:#ff0500;fill:#ff0500}#chart-fde47f79-c4c6-431a-b13a-89cd44407fba .color-3,#chart-fde47f79-c4c6-431a-b13a-89cd44407fba .color-3 a:visited{stroke:#323299;fill:#323299}#chart-fde47f79-c4c6-431a-b13a-89cd44407fba .color-4,#chart-fde47f79-c4c6-431a-b13a-89cd44407fba .color-4 a:visited{stroke:#a3413f;fill:#a3413f}#chart-fde47f79-c4c6-431a-b13a-89cd44407fba .color-5,#chart-fde47f79-c4c6-431a-b13a-89cd44407fba .color-5 a:visited{stroke:#a3413f;fill:#a3413f}#chart-fde47f79-c4c6-431a-b13a-89cd44407fba .color-6,#chart-fde47f79-c4c6-431a-b13a-89cd44407fba .color-6 a:visited{stroke:#a3413f;fill:#a3413f}#chart-fde47f79-c4c6-431a-b13a-89cd44407fba .color-7,#chart-fde47f79-c4c6-431a-b13a-89cd44407fba .color-7 a:visited{stroke:#a3413f;fill:#a3413f}#chart-fde47f79-c4c6-431a-b13a-89cd44407fba .color-8,#chart-fde47f79-c4c6-431a-b13a-89cd44407fba .color-8 a:visited{stroke:#a3413f;fill:#a3413f}#chart-fde47f79-c4c6-431a-b13a-89cd44407fba .color-9,#chart-fde47f79-c4c6-431a-b13a-89cd44407fba .color-9 a:visited{stroke:#657fff;fill:#657fff}#chart-fde47f79-c4c6-431a-b13a-89cd44407fba .color-10,#chart-fde47f79-c4c6-431a-b13a-89cd44407fba .color-10 a:visited{stroke:#657fff;fill:#657fff}#chart-fde47f79-c4c6-431a-b13a-89cd44407fba .color-11,#chart-fde47f79-c4c6-431a-b13a-89cd44407fba .color-11 a:visited{stroke:#657fff;fill:#657fff}#chart-fde47f79-c4c6-431a-b13a-89cd44407fba .color-12,#chart-fde47f79-c4c6-431a-b13a-89cd44407fba .color-12 a:visited{stroke:#657fff;fill:#657fff}#chart-fde47f79-c4c6-431a-b13a-89cd44407fba .color-13,#chart-fde47f79-c4c6-431a-b13a-89cd44407fba .color-13 a:visited{stroke:#657fff;fill:#657fff}#chart-fde47f79-c4c6-431a-b13a-89cd44407fba .text-overlay .color-0 text{fill:black}#chart-fde47f79-c4c6-431a-b13a-89cd44407fba .text-overlay .color-1 text{fill:white}#chart-fde47f79-c4c6-431a-b13a-89cd44407fba .text-overlay .color-2 text{fill:black}#chart-fde47f79-c4c6-431a-b13a-89cd44407fba .text-overlay .color-3 text{fill:black}#chart-fde47f79-c4c6-431a-b13a-89cd44407fba .text-overlay .color-4 text{fill:black}#chart-fde47f79-c4c6-431a-b13a-89cd44407fba .text-overlay .color-5 text{fill:black}#chart-fde47f79-c4c6-431a-b13a-89cd44407fba .text-overlay .color-6 text{fill:black}#chart-fde47f79-c4c6-431a-b13a-89cd44407fba .text-overlay .color-7 text{fill:black}#chart-fde47f79-c4c6-431a-b13a-89cd44407fba .text-overlay .color-8 text{fill:black}#chart-fde47f79-c4c6-431a-b13a-89cd44407fba .text-overlay .color-9 text{fill:black}#chart-fde47f79-c4c6-431a-b13a-89cd44407fba .text-overlay .color-10 text{fill:black}#chart-fde47f79-c4c6-431a-b13a-89cd44407fba .text-overlay .color-11 text{fill:black}#chart-fde47f79-c4c6-431a-b13a-89cd44407fba .text-overlay .color-12 text{fill:black}#chart-fde47f79-c4c6-431a-b13a-89cd44407fba .text-overlay .color-13 text{fill:black}#chart-fde47f79-c4c6-431a-b13a-89cd44407fba .series.serie-1{stroke-width:5}#chart-fde47f79-c4c6-431a-b13a-89cd44407fba .series.serie-2{stroke-width:3}#chart-fde47f79-c4c6-431a-b13a-89cd44407fba .series.serie-3{stroke-width:3}#chart-fde47f79-c4c6-431a-b13a-89cd44407fba .series.serie-4{stroke-width:2;stroke-dasharray:2,2}#chart-fde47f79-c4c6-431a-b13a-89cd44407fba .series.serie-5{stroke-width:2;stroke-dasharray:2,2}#chart-fde47f79-c4c6-431a-b13a-89cd44407fba .series.serie-6{stroke-width:2;stroke-dasharray:2,2}#chart-fde47f79-c4c6-431a-b13a-89cd44407fba .series.serie-7{stroke-width:2;stroke-dasharray:2,2}#chart-fde47f79-c4c6-431a-b13a-89cd44407fba .series.serie-8{stroke-width:2;stroke-dasharray:2,2}#chart-fde47f79-c4c6-431a-b13a-89cd44407fba .series.serie-9{stroke-width:2;stroke-dasharray:2,2}#chart-fde47f79-c4c6-431a-b13a-89cd44407fba .series.serie-10{stroke-width:2;stroke-dasharray:2,2}#chart-fde47f79-c4c6-431a-b13a-89cd44407fba .series.serie-11{stroke-width:2;stroke-dasharray:2,2}#chart-fde47f79-c4c6-431a-b13a-89cd44407fba .series.serie-12{stroke-width:2;stroke-dasharray:2,2}#chart-fde47f79-c4c6-431a-b13a-89cd44407fba .series.serie-13{stroke-width:2;stroke-dasharray:2,2}
#chart-fde47f79-c4c6-431a-b13a-89cd44407fba text.no_data{text-anchor:middle}#chart-fde47f79-c4c6-431a-b13a-89cd44407fba .guide.line{fill:none}#chart-fde47f79-c4c6-431a-b13a-89cd44407fba .centered{text-anchor:middle}#chart-fde47f79-c4c6-431a-b13a-89cd44407fba .title{text-anchor:middle}#chart-fde47f79-c4c6-431a-b13a-89cd44407fba .legends .legend text{fill-opacity:1}#chart-fde47f79-c4c6-431a-b13a-89cd44407fba .axis.x text{text-anchor:middle}#chart-fde47f79-c4c6-431a-b13a-89cd44407fba .axis.x:not(.web) text[transform]{text-anchor:start}#chart-fde47f79-c4c6-431a-b13a-89cd44407fba .axis.x:not(.web) text[transform].backwards{text-anchor:end}#chart-fde47f79-c4c6-431a-b13a-89cd44407fba .axis.y text{text-anchor:end}#chart-fde47f79-c4c6-431a-b13a-89cd44407fba .axis.y text[transform].backwards{text-anchor:start}#chart-fde47f79-c4c6-431a-b13a-89cd44407fba .axis.y2 text{text-anchor:start}#chart-fde47f79-c4c6-431a-b13a-89cd44407fba .axis.y2 text[transform].backwards{text-anchor:end}#chart-fde47f79-c4c6-431a-b13a-89cd44407fba .axis .guide.line{stroke-dasharray:4,4}#chart-fde47f79-c4c6-431a-b13a-89cd44407fba .axis .major.guide.line{stroke-dasharray:6,6}#chart-fde47f79-c4c6-431a-b13a-89cd44407fba .horizontal .axis.y .guide.line,#chart-fde47f79-c4c6-431a-b13a-89cd44407fba .horizontal .axis.y2 .guide.line,#chart-fde47f79-c4c6-431a-b13a-89cd44407fba .vertical .axis.x .guide.line{opacity:0}#chart-fde47f79-c4c6-431a-b13a-89cd44407fba .horizontal .axis.always_show .guide.line,#chart-fde47f79-c4c6-431a-b13a-89cd44407fba .vertical .axis.always_show .guide.line{opacity:1 !important}#chart-fde47f79-c4c6-431a-b13a-89cd44407fba .axis.y .guides:hover .guide.line,#chart-fde47f79-c4c6-431a-b13a-89cd44407fba .axis.y2 .guides:hover .guide.line,#chart-fde47f79-c4c6-431a-b13a-89cd44407fba .axis.x .guides:hover .guide.line{opacity:1}#chart-fde47f79-c4c6-431a-b13a-89cd44407fba .axis .guides:hover text{opacity:1}#chart-fde47f79-c4c6-431a-b13a-89cd44407fba .nofill{fill:none}#chart-fde47f79-c4c6-431a-b13a-89cd44407fba .subtle-fill{fill-opacity:.2}#chart-fde47f79-c4c6-431a-b13a-89cd44407fba .dot{stroke-width:1px;fill-opacity:1}#chart-fde47f79-c4c6-431a-b13a-89cd44407fba .dot.active{stroke-width:5px}#chart-fde47f79-c4c6-431a-b13a-89cd44407fba .dot.negative{fill:transparent}#chart-fde47f79-c4c6-431a-b13a-89cd44407fba text,#chart-fde47f79-c4c6-431a-b13a-89cd44407fba tspan{stroke:none !important}#chart-fde47f79-c4c6-431a-b13a-89cd44407fba .series text.active{opacity:1}#chart-fde47f79-c4c6-431a-b13a-89cd44407fba .tooltip rect{fill-opacity:.95;stroke-width:.5}#chart-fde47f79-c4c6-431a-b13a-89cd44407fba .tooltip text{fill-opacity:1}#chart-fde47f79-c4c6-431a-b13a-89cd44407fba .showable{visibility:hidden}#chart-fde47f79-c4c6-431a-b13a-89cd44407fba .showable.shown{visibility:visible}#chart-fde47f79-c4c6-431a-b13a-89cd44407fba .gauge-background{fill:rgba(229,229,229,1);stroke:none}#chart-fde47f79-c4c6-431a-b13a-89cd44407fba .bg-lines{stroke:rgba(249,249,249,1);stroke-width:2px}</style><script type="text/javascript">window.pygal = window.pygal || {};window.pygal.config = window.pygal.config || {};window.pygal.config['fde47f79-c4c6-431a-b13a-89cd44407fba'] = {"disable_xml_declaration": false, "css": ["file://style.css", "file://graph.css"], "show_y_labels": true, "show_y_guides": true, "stroke": true, "force_uri_protocol": "https", "legend_at_bottom": false, "truncate_legend": null, "tooltip_border_radius": 0, "explicit_size": false, "show_dots": false, "inverse_y_axis": false, "x_label_rotation": 60, "margin_left": null, "box_mode": "extremes", "zero": 0, "no_data_text": "No data", "show_legend": true, "legend_at_bottom_columns": null, "logarithmic": false, "order_min": null, "height": 600, "y_title": "Density", "range": [0, 0.27578580090479526], "stroke_style": null, "rounded_bars": null, "print_values_position": "center", "xrange": null, "y_label_rotation": 0, "defs": [], "y_labels_major_count": null, "no_prefix": false, "pretty_print": false, "dots_size": 2.5, "half_pie": false, "secondary_range": null, "x_labels_major_count": null, "interpolation_precision": 250, "interpolate": null, "truncate_label": null, "margin_right": null, "x_labels_major_every": 2, "x_labels": ["-8.96", "-8.76", "-8.56", "-8.36", "-8.16", "-7.96", "-7.76", "-7.56", "-7.36", "-7.16", "-6.96", "-6.76", "-6.56", "-6.36", "-6.16", "-5.96", "-5.76", "-5.56", "-5.36", "-5.16", "-4.96", "-4.76", "-4.56", "-4.36", "-4.16", "-3.96", "-3.76", "-3.56", "-3.36", "-3.16", "-2.96", "-2.76", "-2.56", "-2.36", "-2.16", "-1.96", "-1.76", "-1.56", "-1.36", "-1.16", "-0.96", "-0.76", "-0.56", "-0.36", "-0.16", "0.04", "0.24", "0.44", "0.64", "0.84", "1.04", "1.24", "1.43", "1.63", "1.83", "2.03", "2.23", "2.43", "2.63", "2.83"], "include_x_axis": false, "width": 800, "show_x_guides": false, "formatter": null, "show_minor_x_labels": false, "spacing": 10, "stack_from_top": false, "legend_box_size": 12, "strict": false, "classes": ["pygal-chart"], "js": ["//kozea.github.io/pygal.js/2.0.x/pygal-tooltips.min.js"], "show_x_labels": true, "x_title": "Observation", "print_values": false, "title": "Iteration #17", "dynamic_print_values": false, "max_scale": 16, "margin": 20, "legends": ["Data", "GMM", "i=0", "i=1", "i=0 k=0", "i=0 k=1", "i=0 k=2", "i=0 k=3", "i=0 k=4", "i=1 k=0", "i=1 k=1", "i=1 k=2", "i=1 k=3", "i=1 k=4"], "interpolation_parameters": {}, "allow_interruptions": false, "min_scale": 4, "style": {"transition": "150ms", "label_font_size": 10, "major_label_font_size": 10, "value_colors": [], "title_font_family": "Consolas, \"Liberation Mono\", Menlo, Courier, monospace", "value_font_family": "Consolas, \"Liberation Mono\", Menlo, Courier, monospace", "no_data_font_size": 64, "guide_stroke_dasharray": "4,4", "tooltip_font_size": 14, "tooltip_font_family": "Consolas, \"Liberation Mono\", Menlo, Courier, monospace", "background": "rgba(249, 249, 249, 1)", "value_label_font_family": "Consolas, \"Liberation Mono\", Menlo, Courier, monospace", "stroke_opacity_hover": ".9", "ci_colors": [], "value_font_size": 16, "plot_background": "rgba(255, 255, 255, 1)", "label_font_family": "Consolas, \"Liberation Mono\", Menlo, Courier, monospace", "foreground": "rgba(0, 0, 0, .87)", "major_label_font_family": "Consolas, \"Liberation Mono\", Menlo, Courier, monospace", "stroke_opacity": ".8", "colors": ["#909090", "#000000", "#ff0500", "#323299", "#a3413f", "#a3413f", "#a3413f", "#a3413f", "#a3413f", "#657fff", "#657fff", "#657fff", "#657fff", "#657fff"], "value_label_font_size": 10, "value_background": "rgba(229, 229, 229, 1)", "no_data_font_family": "Consolas, \"Liberation Mono\", Menlo, Courier, monospace", "legend_font_size": 10, "foreground_strong": "rgba(0, 0, 0, 1)", "legend_font_family": "Consolas, \"Liberation Mono\", Menlo, Courier, monospace", "title_font_size": 16, "foreground_subtle": "rgba(0, 0, 0, .54)", "major_guide_stroke_dasharray": "6,6", "font_family": "Consolas, \"Liberation Mono\", Menlo, Courier, monospace", "opacity_hover": ".8", "opacity": ".7"}, "margin_top": null, "x_labels_major": null, "print_zeroes": true, "y_labels": null, "fill": false, "y_labels_major_every": null, "inner_radius": 0, "margin_bottom": null, "show_only_major_dots": false, "missing_value_fill_truncation": "x", "y_labels_major": null, "tooltip_fancy_mode": true, "show_minor_y_labels": true, "print_labels": false}</script><script type="text/javascript" xlink:href="https://kozea.github.io/pygal.js/2.0.x/pygal-tooltips.min.js" /></defs><title>Iteration #17</title><g class="graph line-graph vertical"><rect class="background" height="600" width="800" x="0" y="0" /><g class="plot" transform="translate(144, 46)"><rect class="background" height="472.01923788646684" width="636.0" x="0" y="0" /><g class="axis y always_show"><g class="guides"><path class="axis major line" d="M0.000000 462.941945 h636.000000" /><text class="major" x="-5" y="466.44194485">0</text><title>0</title></g><g class="guides"><path class="guide line" d="M0.000000 430.027658 h636.000000" /><text class="" x="-5" y="433.527657724">0.02</text><title>0.02</title></g><g class="guides"><path class="guide line" d="M0.000000 397.113371 h636.000000" /><text class="" x="-5" y="400.613370598">0.04</text><title>0.04</title></g><g class="guides"><path class="guide line" d="M0.000000 364.199083 h636.000000" /><text class="" x="-5" y="367.699083472">0.06</text><title>0.06</title></g><g class="guides"><path class="guide line" d="M0.000000 331.284796 h636.000000" /><text class="" x="-5" y="334.784796346">0.08</text><title>0.08</title></g><g class="guides"><path class="guide line" d="M0.000000 298.370509 h636.000000" /><text class="" x="-5" y="301.87050922">0.1</text><title>0.1</title></g><g class="guides"><path class="guide line" d="M0.000000 265.456222 h636.000000" /><text class="" x="-5" y="268.956222094">0.12</text><title>0.12</title></g><g class="guides"><path class="guide line" d="M0.000000 232.541935 h636.000000" /><text class="" x="-5" y="236.041934968">0.14</text><title>0.14</title></g><g class="guides"><path class="guide line" d="M0.000000 199.627648 h636.000000" /><text class="" x="-5" y="203.127647841">0.16</text><title>0.16</title></g><g class="guides"><path class="guide line" d="M0.000000 166.713361 h636.000000" /><text class="" x="-5" y="170.213360715">0.18</text><title>0.18</title></g><g class="guides"><path class="guide line" d="M0.000000 133.799074 h636.000000" /><text class="" x="-5" y="137.299073589">0.2</text><title>0.2</title></g><g class="guides"><path class="guide line" d="M0.000000 100.884786 h636.000000" /><text class="" x="-5" y="104.384786463">0.22</text><title>0.22</title></g><g class="guides"><path class="guide line" d="M0.000000 67.970499 h636.000000" /><text class="" x="-5" y="71.4704993371">0.24</text><title>0.24</title></g><g class="guides"><path class="guide line" d="M0.000000 35.056212 h636.000000" /><text class="" x="-5" y="38.5562122111">0.26</text><title>0.26</title></g></g><g class="axis x"><g class="guides"><path class="major line" d="M12.230769 0.000000 v472.019238" /><text class="major" transform="rotate(60 12.230769 487.019238)" x="12.230769230769232" y="487.01923788646684">-8.96</text></g><g class="guides"><path class="major guide line" d="M32.960887 0.000000 v472.019238" /><text class="major" transform="rotate(60 32.960887 487.019238)" x="32.96088657105606" y="487.01923788646684">-8.56</text></g><g class="guides"><path class="major guide line" d="M53.691004 0.000000 v472.019238" /><text class="major" transform="rotate(60 53.691004 487.019238)" x="53.6910039113429" y="487.01923788646684">-8.16</text></g><g class="guides"><path class="major guide line" d="M74.421121 0.000000 v472.019238" /><text class="major" transform="rotate(60 74.421121 487.019238)" x="74.42112125162973" y="487.01923788646684">-7.76</text></g><g class="guides"><path class="major guide line" d="M95.151239 0.000000 v472.019238" /><text class="major" transform="rotate(60 95.151239 487.019238)" x="95.15123859191655" y="487.01923788646684">-7.36</text></g><g class="guides"><path class="major guide line" d="M115.881356 0.000000 v472.019238" /><text class="major" transform="rotate(60 115.881356 487.019238)" x="115.88135593220338" y="487.01923788646684">-6.96</text></g><g class="guides"><path class="major guide line" d="M136.611473 0.000000 v472.019238" /><text class="major" transform="rotate(60 136.611473 487.019238)" x="136.61147327249023" y="487.01923788646684">-6.56</text></g><g class="guides"><path class="major guide line" d="M157.341591 0.000000 v472.019238" /><text class="major" transform="rotate(60 157.341591 487.019238)" x="157.34159061277705" y="487.01923788646684">-6.16</text></g><g class="guides"><path class="major guide line" d="M178.071708 0.000000 v472.019238" /><text class="major" transform="rotate(60 178.071708 487.019238)" x="178.0717079530639" y="487.01923788646684">-5.76</text></g><g class="guides"><path class="major guide line" d="M198.801825 0.000000 v472.019238" /><text class="major" transform="rotate(60 198.801825 487.019238)" x="198.80182529335073" y="487.01923788646684">-5.36</text></g><g class="guides"><path class="major guide line" d="M219.531943 0.000000 v472.019238" /><text class="major" transform="rotate(60 219.531943 487.019238)" x="219.53194263363756" y="487.01923788646684">-4.96</text></g><g class="guides"><path class="major guide line" d="M240.262060 0.000000 v472.019238" /><text class="major" transform="rotate(60 240.262060 487.019238)" x="240.2620599739244" y="487.01923788646684">-4.56</text></g><g class="guides"><path class="major guide line" d="M260.992177 0.000000 v472.019238" /><text class="major" transform="rotate(60 260.992177 487.019238)" x="260.99217731421123" y="487.01923788646684">-4.16</text></g><g class="guides"><path class="major guide line" d="M281.722295 0.000000 v472.019238" /><text class="major" transform="rotate(60 281.722295 487.019238)" x="281.722294654498" y="487.01923788646684">-3.76</text></g><g class="guides"><path class="major guide line" d="M302.452412 0.000000 v472.019238" /><text class="major" transform="rotate(60 302.452412 487.019238)" x="302.4524119947849" y="487.01923788646684">-3.36</text></g><g class="guides"><path class="major guide line" d="M323.182529 0.000000 v472.019238" /><text class="major" transform="rotate(60 323.182529 487.019238)" x="323.1825293350717" y="487.01923788646684">-2.96</text></g><g class="guides"><path class="major guide line" d="M343.912647 0.000000 v472.019238" /><text class="major" transform="rotate(60 343.912647 487.019238)" x="343.91264667535853" y="487.01923788646684">-2.56</text></g><g class="guides"><path class="major guide line" d="M364.642764 0.000000 v472.019238" /><text class="major" transform="rotate(60 364.642764 487.019238)" x="364.64276401564535" y="487.01923788646684">-2.16</text></g><g class="guides"><path class="major guide line" d="M385.372881 0.000000 v472.019238" /><text class="major" transform="rotate(60 385.372881 487.019238)" x="385.37288135593224" y="487.01923788646684">-1.76</text></g><g class="guides"><path class="major guide line" d="M406.102999 0.000000 v472.019238" /><text class="major" transform="rotate(60 406.102999 487.019238)" x="406.102998696219" y="487.01923788646684">-1.36</text></g><g class="guides"><path class="major guide line" d="M426.833116 0.000000 v472.019238" /><text class="major" transform="rotate(60 426.833116 487.019238)" x="426.8331160365058" y="487.01923788646684">-0.96</text></g><g class="guides"><path class="major guide line" d="M447.563233 0.000000 v472.019238" /><text class="major" transform="rotate(60 447.563233 487.019238)" x="447.56323337679265" y="487.01923788646684">-0.56</text></g><g class="guides"><path class="major guide line" d="M468.293351 0.000000 v472.019238" /><text class="major" transform="rotate(60 468.293351 487.019238)" x="468.29335071707953" y="487.01923788646684">-0.16</text></g><g class="guides"><path class="major guide line" d="M489.023468 0.000000 v472.019238" /><text class="major" transform="rotate(60 489.023468 487.019238)" x="489.02346805736636" y="487.01923788646684">0.24</text></g><g class="guides"><path class="major guide line" d="M509.753585 0.000000 v472.019238" /><text class="major" transform="rotate(60 509.753585 487.019238)" x="509.75358539765324" y="487.01923788646684">0.64</text></g><g class="guides"><path class="major guide line" d="M530.483703 0.000000 v472.019238" /><text class="major" transform="rotate(60 530.483703 487.019238)" x="530.48370273794" y="487.01923788646684">1.04</text></g><g class="guides"><path class="major guide line" d="M551.213820 0.000000 v472.019238" /><text class="major" transform="rotate(60 551.213820 487.019238)" x="551.213820078227" y="487.01923788646684">1.43</text></g><g class="guides"><path class="major guide line" d="M571.943937 0.000000 v472.019238" /><text class="major" transform="rotate(60 571.943937 487.019238)" x="571.9439374185138" y="487.01923788646684">1.83</text></g><g class="guides"><path class="major guide line" d="M592.674055 0.000000 v472.019238" /><text class="major" transform="rotate(60 592.674055 487.019238)" x="592.6740547588006" y="487.01923788646684">2.23</text></g><g class="guides"><path class="major guide line" d="M613.404172 0.000000 v472.019238" /><text class="major" transform="rotate(60 613.404172 487.019238)" x="613.4041720990874" y="487.01923788646684">2.63</text></g></g><g class="series serie-0 color-0"><path class="line reactive" d="M12.230769 462.941945 L12.230769 462.019456 22.595828 462.941945 32.960887 461.096967 43.325945 462.019456 53.691004 459.251988 64.056063 462.019456 74.421121 458.329499 84.786180 462.019456 95.151239 458.329499 105.516297 462.019456 115.881356 448.182119 126.246415 460.174477 136.611473 457.407010 146.976532 457.407010 157.341591 451.872075 167.706649 448.182119 178.071708 454.639543 188.436767 445.414651 198.801825 442.647184 209.166884 436.189760 219.531943 437.112249 229.897001 392.832771 240.262060 396.522728 250.627119 376.227967 260.992177 355.933206 271.357236 351.320760 281.722295 325.491065 292.087353 277.521630 302.452412 283.056565 312.817471 202.800010 323.182529 188.040184 333.547588 169.590402 343.912647 123.465945 354.277705 95.791271 364.642764 67.194108 375.007823 82.876423 385.372881 60.736684 395.737940 80.108956 406.102999 29.372054 416.468057 9.077293 426.833116 70.884065 437.198175 69.039086 447.563233 41.364413 457.928292 40.441923 468.293351 91.178826 478.658409 140.993239 489.023468 214.792369 499.388527 259.071847 509.753585 321.801108 520.118644 364.235608 530.483703 408.515086 540.848761 430.654825 551.213820 448.182119 561.578879 455.562032 571.943937 458.329499 582.308996 458.329499 592.674055 462.019456 603.039113 462.941945 613.404172 462.019456 623.769231 462.941945" /></g><g class="series serie-1 color-1"><path class="line reactive nofill" d="M12.230769 462.900570 L22.595828 462.871747 32.960887 462.825098 43.325945 462.751126 53.691004 462.636220 64.056063 462.461384 74.421121 462.200852 84.786180 461.820692 95.151239 461.277605 105.516297 460.518197 115.881356 459.479044 126.246415 458.087934 136.611473 456.266637 146.976532 453.935423 157.341591 451.019317 167.706649 447.455546 178.071708 443.200811 188.436767 438.235545 198.801825 432.560273 209.166884 426.176954 219.531943 419.047302 229.897001 411.023708 240.262060 401.760195 250.627119 390.631689 260.992177 376.713267 271.357236 358.880925 281.722295 336.073653 292.087353 307.697962 302.452412 274.077096 312.817471 236.775461 323.182529 198.587748 333.547588 163.014922 343.912647 133.241036 354.277705 110.965584 364.642764 95.651364 375.007823 84.666235 385.372881 74.831770 395.737940 65.336926 406.102999 59.050421 416.468057 58.283685 426.833116 59.111552 437.198175 54.538138 447.563233 45.001695 457.928292 41.863125 468.293351 58.771366 478.658409 101.227486 489.023468 163.816388 499.388527 234.624826 509.753585 301.575705 520.118644 356.708802 530.483703 397.263938 540.848761 424.425131 551.213820 441.270857 561.578879 451.107116 571.943937 456.602498 582.308996 459.584464 592.674055 461.175626 603.039113 462.017653 613.404172 462.461436 623.769231 462.694481" /></g><g class="series serie-2 color-2"><path class="line reactive nofill" d="M12.230769 462.941945 L22.595828 462.941945 32.960887 462.941945 43.325945 462.941945 53.691004 462.941945 64.056063 462.941945 74.421121 462.941945 84.786180 462.941945 95.151239 462.941945 105.516297 462.941945 115.881356 462.941945 126.246415 462.941945 136.611473 462.941945 146.976532 462.941945 157.341591 462.941945 167.706649 462.941945 178.071708 462.941945 188.436767 462.941945 198.801825 462.941944 209.166884 462.941942 219.531943 462.941936 229.897001 462.941917 240.262060 462.941863 250.627119 462.941711 260.992177 462.941292 271.357236 462.940157 281.722295 462.937124 292.087353 462.929109 302.452412 462.908116 312.817471 462.853595 323.182529 462.713734 333.547588 462.362161 343.912647 461.506334 354.277705 459.516623 364.642764 455.160261 375.007823 446.294103 385.372881 429.713697 395.737940 401.519948 406.102999 358.373305 416.468057 299.634330 426.833116 229.621475 437.198175 158.503210 447.563233 100.464166 457.928292 69.149366 468.293351 72.318226 478.658409 108.610983 489.023468 168.308584 499.388527 237.553716 509.753585 303.534979 520.118644 358.020244 530.483703 398.132233 540.848761 424.991014 551.213820 441.633143 561.578879 451.334780 571.943937 456.742882 582.308996 459.669397 592.674055 461.226040 603.039113 462.047011 613.404172 462.478209 623.769231 462.703883" /></g><g class="series serie-3 color-3"><path class="line reactive nofill" d="M12.230769 462.900570 L22.595828 462.871747 32.960887 462.825098 43.325945 462.751126 53.691004 462.636220 64.056063 462.461384 74.421121 462.200852 84.786180 461.820692 95.151239 461.277605 105.516297 460.518197 115.881356 459.479044 126.246415 458.087934 136.611473 456.266637 146.976532 453.935423 157.341591 451.019317 167.706649 447.455546 178.071708 443.200811 188.436767 438.235545 198.801825 432.560274 209.166884 426.176957 219.531943 419.047311 229.897001 411.023736 240.262060 401.760277 250.627119 390.631923 260.992177 376.713919 271.357236 358.882713 281.722295 336.078474 292.087353 307.710798 302.452412 274.110925 312.817471 236.863811 323.182529 198.815958 333.547588 163.594706 343.912647 134.676647 354.277705 114.390906 364.642764 103.433048 375.007823 101.314077 385.372881 108.060018 395.737940 126.758922 406.102999 163.619061 416.468057 221.591300 426.833116 292.432021 437.198175 358.976873 447.563233 407.479474 457.928292 435.655704 468.293351 449.395085 478.658409 455.558448 489.023468 458.449750 499.388527 460.013055 509.753585 460.982671 520.118644 461.630503 530.483703 462.073650 540.848761 462.376062 551.213820 462.579659 561.578879 462.714281 571.943937 462.801561 582.308996 462.857012 592.674055 462.891531 603.039113 462.912587 613.404172 462.925172 623.769231 462.932543" /></g><g class="series serie-4 color-4"><path class="line reactive nofill" d="M12.230769 462.941945 L22.595828 462.941945 32.960887 462.941945 43.325945 462.941945 53.691004 462.941945 64.056063 462.941945 74.421121 462.941945 84.786180 462.941945 95.151239 462.941945 105.516297 462.941945 115.881356 462.941945 126.246415 462.941945 136.611473 462.941945 146.976532 462.941945 157.341591 462.941945 167.706649 462.941945 178.071708 462.941945 188.436767 462.941945 198.801825 462.941945 209.166884 462.941945 219.531943 462.941945 229.897001 462.941945 240.262060 462.941945 250.627119 462.941945 260.992177 462.941943 271.357236 462.941934 281.722295 462.941879 292.087353 462.941581 302.452412 462.940126 312.817471 462.933740 323.182529 462.908538 333.547588 462.819176 343.912647 462.534705 354.277705 461.722610 364.642764 459.646562 375.007823 454.903010 385.372881 445.240812 395.737940 427.760513 406.102999 399.826475 416.468057 360.737916 426.833116 313.555878 437.198175 265.853098 447.563233 228.236110 457.928292 210.654520 468.293351 218.161228 478.658409 248.569638 489.023468 293.480838 499.388527 342.026639 509.753585 385.066167 520.118644 417.669557 530.483703 439.185892 540.848761 451.690066 551.213820 458.131495 561.578879 461.085610 571.943937 462.295343 582.308996 462.738650 592.674055 462.884251 603.039113 462.927166 613.404172 462.938528 623.769231 462.941232" /></g><g class="series serie-5 color-5"><path class="line reactive nofill" d="M12.230769 462.941945 L22.595828 462.941945 32.960887 462.941945 43.325945 462.941945 53.691004 462.941945 64.056063 462.941945 74.421121 462.941945 84.786180 462.941945 95.151239 462.941945 105.516297 462.941945 115.881356 462.941945 126.246415 462.941945 136.611473 462.941945 146.976532 462.941945 157.341591 462.941945 167.706649 462.941945 178.071708 462.941945 188.436767 462.941945 198.801825 462.941945 209.166884 462.941945 219.531943 462.941945 229.897001 462.941945 240.262060 462.941944 250.627119 462.941940 260.992177 462.941921 271.357236 462.941839 281.722295 462.941503 292.087353 462.940236 302.452412 462.935837 312.817471 462.921759 323.182529 462.880256 333.547588 462.767615 343.912647 462.486390 354.277705 461.841134 364.642764 460.482216 375.007823 457.859600 385.372881 453.231404 395.737940 445.785587 406.102999 434.912844 416.468057 420.597581 426.833116 403.787900 437.198175 386.527464 447.563233 371.663282 457.928292 362.117636 468.293351 359.959399 478.658409 365.675202 489.023468 377.991137 499.388527 394.334218 509.753585 411.705270 520.118644 427.559224 530.483703 440.347384 540.848761 449.600006 551.213820 455.656830 561.578879 459.263568 571.943937 461.224517 582.308996 462.200459 592.674055 462.645919 603.039113 462.832660 613.404172 462.904638 623.769231 462.930168" /></g><g class="series serie-6 color-6"><path class="line reactive nofill" d="M12.230769 462.941945 L22.595828 462.941945 32.960887 462.941945 43.325945 462.941945 53.691004 462.941945 64.056063 462.941945 74.421121 462.941945 84.786180 462.941945 95.151239 462.941945 105.516297 462.941945 115.881356 462.941945 126.246415 462.941945 136.611473 462.941945 146.976532 462.941945 157.341591 462.941945 167.706649 462.941945 178.071708 462.941945 188.436767 462.941945 198.801825 462.941945 209.166884 462.941945 219.531943 462.941944 229.897001 462.941942 240.262060 462.941933 250.627119 462.941902 260.992177 462.941795 271.357236 462.941454 281.722295 462.940432 292.087353 462.937554 302.452412 462.929938 312.817471 462.911029 323.182529 462.866985 333.547588 462.770792 343.912647 462.573943 354.277705 462.196832 364.642764 461.521250 375.007823 460.391084 385.372881 458.628941 395.737940 456.074742 406.102999 452.645508 416.468057 448.404064 426.833116 443.612371 437.198175 438.739988 447.563233 434.406429 457.928292 431.258819 468.293351 429.815309 478.658409 430.325720 489.023468 432.700879 499.388527 436.538078 509.753585 441.232686 520.118644 446.133424 530.483703 450.686727 540.848761 454.527613 551.213820 457.501615 561.578879 459.629582 571.943937 461.042802 582.308996 461.916566 592.674055 462.420608 603.039113 462.692337 613.404172 462.829405 623.769231 462.894163" /></g><g class="series serie-7 color-7"><path class="line reactive nofill" d="M12.230769 462.941945 L22.595828 462.941945 32.960887 462.941945 43.325945 462.941945 53.691004 462.941945 64.056063 462.941945 74.421121 462.941945 84.786180 462.941945 95.151239 462.941945 105.516297 462.941945 115.881356 462.941945 126.246415 462.941945 136.611473 462.941945 146.976532 462.941945 157.341591 462.941945 167.706649 462.941945 178.071708 462.941945 188.436767 462.941945 198.801825 462.941944 209.166884 462.941943 219.531943 462.941940 229.897001 462.941930 240.262060 462.941901 250.627119 462.941823 260.992177 462.941618 271.357236 462.941111 281.722295 462.939912 292.087353 462.937206 302.452412 462.931390 312.817471 462.919479 323.182529 462.896250 333.547588 462.853128 343.912647 462.776971 354.277705 462.649110 364.642764 462.445218 375.007823 462.136753 385.372881 461.694651 395.737940 461.095547 406.102999 460.329967 416.468057 459.410918 426.833116 458.380317 437.198175 457.310417 447.563233 456.298092 457.928292 455.451612 468.293351 454.872016 478.658409 454.633385 489.023468 454.767295 499.388527 455.255952 509.753585 456.036077 520.118644 457.012365 530.483703 458.076562 540.848761 459.126919 551.213820 460.083266 561.578879 460.894931 571.943937 461.541185 582.308996 462.025949 592.674055 462.369529 603.039113 462.600110 613.404172 462.746867 623.769231 462.835558" /></g><g class="series serie-8 color-8"><path class="line reactive nofill" d="M12.230769 462.941945 L22.595828 462.941945 32.960887 462.941945 43.325945 462.941945 53.691004 462.941945 64.056063 462.941945 74.421121 462.941945 84.786180 462.941945 95.151239 462.941945 105.516297 462.941945 115.881356 462.941945 126.246415 462.941945 136.611473 462.941945 146.976532 462.941945 157.341591 462.941945 167.706649 462.941945 178.071708 462.941945 188.436767 462.941945 198.801825 462.941944 209.166884 462.941944 219.531943 462.941941 229.897001 462.941935 240.262060 462.941919 250.627119 462.941882 260.992177 462.941794 271.357236 462.941598 281.722295 462.941177 292.087353 462.940313 302.452412 462.938604 312.817471 462.935367 323.182529 462.929483 333.547588 462.919229 343.912647 462.902105 354.277705 462.874717 364.642764 462.832794 375.007823 462.771436 385.372881 462.685668 395.737940 462.571339 406.102999 462.426291 416.468057 462.251630 426.833116 462.052789 437.198175 461.840022 447.563233 461.628032 457.928292 461.434558 468.293351 461.278053 478.658409 461.174817 489.023468 461.136214 499.388527 461.166609 509.753585 461.262559 520.118644 461.413453 530.483703 461.603447 540.848761 461.814189 551.213820 462.027717 561.578879 462.228868 571.943937 462.406813 582.308996 462.555553 592.674055 462.673511 603.039113 462.762518 613.404172 462.826551 623.769231 462.870542" /></g><g class="series serie-9 color-9"><path class="line reactive nofill" d="M12.230769 462.941945 L22.595828 462.941945 32.960887 462.941945 43.325945 462.941945 53.691004 462.941945 64.056063 462.941945 74.421121 462.941945 84.786180 462.941945 95.151239 462.941945 105.516297 462.941945 115.881356 462.941945 126.246415 462.941945 136.611473 462.941945 146.976532 462.941945 157.341591 462.941945 167.706649 462.941945 178.071708 462.941945 188.436767 462.941945 198.801825 462.941945 209.166884 462.941945 219.531943 462.941945 229.897001 462.941945 240.262060 462.941945 250.627119 462.941945 260.992177 462.941945 271.357236 462.941945 281.722295 462.941945 292.087353 462.941944 302.452412 462.941933 312.817471 462.941756 323.182529 462.939641 333.547588 462.920533 343.912647 462.790283 354.277705 462.123260 364.642764 459.573846 375.007823 452.381578 385.372881 437.707164 395.737940 416.985495 406.102999 399.156766 416.468057 395.470586 426.833116 408.548631 437.198175 429.522598 447.563233 447.293299 457.928292 457.357475 468.293351 461.423100 478.658409 462.627118 489.023468 462.892211 499.388527 462.935957 509.753585 462.941395 520.118644 462.941906 530.483703 462.941943 540.848761 462.941945 551.213820 462.941945 561.578879 462.941945 571.943937 462.941945 582.308996 462.941945 592.674055 462.941945 603.039113 462.941945 613.404172 462.941945 623.769231 462.941945" /></g><g class="series serie-10 color-10"><path class="line reactive nofill" d="M12.230769 462.941945 L22.595828 462.941945 32.960887 462.941945 43.325945 462.941945 53.691004 462.941945 64.056063 462.941945 74.421121 462.941945 84.786180 462.941945 95.151239 462.941945 105.516297 462.941945 115.881356 462.941945 126.246415 462.941945 136.611473 462.941945 146.976532 462.941945 157.341591 462.941945 167.706649 462.941945 178.071708 462.941945 188.436767 462.941945 198.801825 462.941945 209.166884 462.941945 219.531943 462.941945 229.897001 462.941945 240.262060 462.941944 250.627119 462.941940 260.992177 462.941900 271.357236 462.941572 281.722295 462.939297 292.087353 462.926062 302.452412 462.861399 312.817471 462.596571 323.182529 461.689761 333.547588 459.103311 343.912647 452.992122 354.277705 441.135545 364.642764 422.532526 375.007823 399.626266 385.372881 379.059720 395.737940 368.978563 406.102999 373.944538 416.468057 391.668774 426.833116 414.679999 437.198175 435.309864 447.563233 449.565140 457.928292 457.466478 468.293351 461.046898 478.658409 462.387384 489.023468 462.804728 499.388527 462.913237 509.753585 462.936867 520.118644 462.941185 530.483703 462.941849 540.848761 462.941935 551.213820 462.941944 561.578879 462.941945 571.943937 462.941945 582.308996 462.941945 592.674055 462.941945 603.039113 462.941945 613.404172 462.941945 623.769231 462.941945" /></g><g class="series serie-11 color-11"><path class="line reactive nofill" d="M12.230769 462.941945 L22.595828 462.941945 32.960887 462.941945 43.325945 462.941945 53.691004 462.941945 64.056063 462.941945 74.421121 462.941945 84.786180 462.941945 95.151239 462.941945 105.516297 462.941945 115.881356 462.941945 126.246415 462.941945 136.611473 462.941945 146.976532 462.941945 157.341591 462.941945 167.706649 462.941944 178.071708 462.941941 188.436767 462.941921 198.801825 462.941818 209.166884 462.941321 219.531943 462.939172 229.897001 462.930767 240.262060 462.901080 250.627119 462.806466 260.992177 462.534649 271.357236 461.831574 281.722295 460.196928 292.087353 456.788169 302.452412 450.431934 312.817471 439.880149 323.182529 424.389846 333.547588 404.500308 343.912647 382.604843 354.277705 362.796917 364.642764 349.737868 375.007823 346.900217 385.372881 355.075653 395.737940 372.018318 406.102999 393.441561 416.468057 414.767458 426.833116 432.661209 437.198175 445.682167 447.563233 454.020742 457.928292 458.760454 468.293351 461.164655 478.658409 462.256922 489.023468 462.702519 499.388527 462.866060 509.753585 462.920135 520.118644 462.936260 530.483703 462.940601 540.848761 462.941657 551.213820 462.941889 561.578879 462.941935 571.943937 462.941943 582.308996 462.941945 592.674055 462.941945 603.039113 462.941945 613.404172 462.941945 623.769231 462.941945" /></g><g class="series serie-12 color-12"><path class="line reactive nofill" d="M12.230769 462.941945 L22.595828 462.941945 32.960887 462.941945 43.325945 462.941945 53.691004 462.941945 64.056063 462.941945 74.421121 462.941945 84.786180 462.941945 95.151239 462.941945 105.516297 462.941944 115.881356 462.941940 126.246415 462.941923 136.611473 462.941851 146.976532 462.941562 157.341591 462.940492 167.706649 462.936814 178.071708 462.925089 188.436767 462.890429 198.801825 462.795480 209.166884 462.554565 219.531943 461.988825 229.897001 460.760390 240.262060 458.296873 250.627119 453.741123 260.992177 445.988085 271.357236 433.880422 281.722295 416.599815 292.087353 394.196896 302.452412 368.075050 312.817471 341.156393 323.182529 317.501674 333.547588 301.364251 343.912647 295.953678 354.277705 302.396373 364.642764 319.353818 375.007823 343.475332 385.372881 370.475876 395.737940 396.364663 406.102999 418.347830 416.468057 435.155252 426.833116 446.835340 437.198175 454.256762 447.563233 458.585204 457.928292 460.908875 468.293351 462.059372 478.658409 462.585529 489.023468 462.808048 499.388527 462.895151 509.753585 462.926732 520.118644 462.937344 530.483703 462.940650 540.848761 462.941606 551.213820 462.941862 561.578879 462.941926 571.943937 462.941941 582.308996 462.941944 592.674055 462.941945 603.039113 462.941945 613.404172 462.941945 623.769231 462.941945" /></g><g class="series serie-13 color-13"><path class="line reactive nofill" d="M12.230769 462.900570 L22.595828 462.871747 32.960887 462.825098 43.325945 462.751126 53.691004 462.636220 64.056063 462.461384 74.421121 462.200852 84.786180 461.820692 95.151239 461.277605 105.516297 460.518198 115.881356 459.479048 126.246415 458.087955 136.611473 456.266730 146.976532 453.935806 157.341591 451.020770 167.706649 447.460677 178.071708 443.217671 188.436767 438.287084 198.801825 432.706866 209.166884 426.564961 219.531943 420.003204 229.897001 413.216469 240.262060 406.446215 250.627119 399.968228 260.992177 394.075119 271.357236 389.054980 281.722295 385.168269 292.087353 382.625505 302.452412 381.568387 312.817471 382.056722 323.182529 384.062817 333.547588 387.474083 343.912647 392.103500 354.277705 397.706591 364.642764 404.002769 375.007823 410.698462 385.372881 417.509384 395.737940 424.179662 406.102999 430.496144 416.468057 436.297009 426.833116 441.474622 437.198175 445.973262 447.563233 449.782868 457.928292 452.930201 468.293351 455.468840 478.658409 457.469273 489.023468 459.010024 499.388527 460.170430 509.753585 461.025322 520.118644 461.641586 530.483703 462.076386 540.848761 462.376699 551.213820 462.579798 561.578879 462.714310 571.943937 462.801566 582.308996 462.857013 592.674055 462.891532 603.039113 462.912587 613.404172 462.925172 623.769231 462.932543" /></g></g><g class="titles"><text class="title plot_title" x="400.0" y="26">Iteration #17</text><text class="title" x="462.0" y="580.0">Observation</text><text class="title" transform="rotate(-90 64.000000 282.009619)" x="64.0" y="308.0096189432334">Density</text></g><g class="plot overlay" transform="translate(144, 46)"><g class="series serie-0 color-0" /><g class="series serie-1 color-1" /><g class="series serie-2 color-2" /><g class="series serie-3 color-3" /><g class="series serie-4 color-4" /><g class="series serie-5 color-5" /><g class="series serie-6 color-6" /><g class="series serie-7 color-7" /><g class="series serie-8 color-8" /><g class="series serie-9 color-9" /><g class="series serie-10 color-10" /><g class="series serie-11 color-11" /><g class="series serie-12 color-12" /><g class="series serie-13 color-13" /></g><g class="plot text-overlay" transform="translate(144, 46)"><g class="series serie-0 color-0" /><g class="series serie-1 color-1" /><g class="series serie-2 color-2" /><g class="series serie-3 color-3" /><g class="series serie-4 color-4" /><g class="series serie-5 color-5" /><g class="series serie-6 color-6" /><g class="series serie-7 color-7" /><g class="series serie-8 color-8" /><g class="series serie-9 color-9" /><g class="series serie-10 color-10" /><g class="series serie-11 color-11" /><g class="series serie-12 color-12" /><g class="series serie-13 color-13" /></g><g class="plot tooltip-overlay" transform="translate(144, 46)"><g class="tooltip" style="opacity: 0" transform="translate(0 0)"><rect class="tooltip-box" height="0" rx="0" ry="0" width="0" /><g class="text" /></g></g><g class="legends" transform="translate(10, 56)"><g class="legend reactive activate-serie" id="activate-serie-0"><rect class="color-0 reactive" height="12" width="12" x="0.0" y="0.0" /><text x="17.0" y="9.0">Data</text></g><g class="legend reactive activate-serie" id="activate-serie-1"><rect class="color-1 reactive" height="12" width="12" x="0.0" y="18.0" /><text x="17.0" y="27.0">GMM</text></g><g class="legend reactive activate-serie" id="activate-serie-2"><rect class="color-2 reactive" height="12" width="12" x="0.0" y="36.0" /><text x="17.0" y="45.0">i=0</text></g><g class="legend reactive activate-serie" id="activate-serie-3"><rect class="color-3 reactive" height="12" width="12" x="0.0" y="54.0" /><text x="17.0" y="63.0">i=1</text></g><g class="legend reactive activate-serie" id="activate-serie-4"><rect class="color-4 reactive" height="12" width="12" x="0.0" y="72.0" /><text x="17.0" y="81.0">i=0 k=0</text></g><g class="legend reactive activate-serie" id="activate-serie-5"><rect class="color-5 reactive" height="12" width="12" x="0.0" y="90.0" /><text x="17.0" y="99.0">i=0 k=1</text></g><g class="legend reactive activate-serie" id="activate-serie-6"><rect class="color-6 reactive" height="12" width="12" x="0.0" y="108.0" /><text x="17.0" y="117.0">i=0 k=2</text></g><g class="legend reactive activate-serie" id="activate-serie-7"><rect class="color-7 reactive" height="12" width="12" x="0.0" y="126.0" /><text x="17.0" y="135.0">i=0 k=3</text></g><g class="legend reactive activate-serie" id="activate-serie-8"><rect class="color-8 reactive" height="12" width="12" x="0.0" y="144.0" /><text x="17.0" y="153.0">i=0 k=4</text></g><g class="legend reactive activate-serie" id="activate-serie-9"><rect class="color-9 reactive" height="12" width="12" x="0.0" y="162.0" /><text x="17.0" y="171.0">i=1 k=0</text></g><g class="legend reactive activate-serie" id="activate-serie-10"><rect class="color-10 reactive" height="12" width="12" x="0.0" y="180.0" /><text x="17.0" y="189.0">i=1 k=1</text></g><g class="legend reactive activate-serie" id="activate-serie-11"><rect class="color-11 reactive" height="12" width="12" x="0.0" y="198.0" /><text x="17.0" y="207.0">i=1 k=2</text></g><g class="legend reactive activate-serie" id="activate-serie-12"><rect class="color-12 reactive" height="12" width="12" x="0.0" y="216.0" /><text x="17.0" y="225.0">i=1 k=3</text></g><g class="legend reactive activate-serie" id="activate-serie-13"><rect class="color-13 reactive" height="12" width="12" x="0.0" y="234.0" /><text x="17.0" y="243.0">i=1 k=4</text></g></g><g class="legends" transform="translate(790, 56)" /></g></svg>