<?xml version='1.0' encoding='utf-8'?>
<svg xmlns:xlink="http://www.w3.org/1999/xlink" class="pygal-chart" id="chart-6db846ae-03a2-49c5-931c-78d20ed6715d" viewBox="0 0 800 600" xmlns="http://www.w3.org/2000/svg"><!--Generated with pygal 2.4.0 (etree) ©Kozea 2012-2016 on 2018-01-18--><!--http://pygal.org--><!--http://github.com/Kozea/pygal--><defs><style type="text/css">#chart-6db846ae-03a2-49c5-931c-78d20ed6715d{-webkit-user-select:none;-webkit-font-smoothing:antialiased;font-family:Consolas,"Liberation Mono",Menlo,Courier,monospace}#chart-6db846ae-03a2-49c5-931c-78d20ed6715d .title{font-family:Consolas,"Liberation Mono",Menlo,Courier,monospace;font-size:16px}#chart-6db846ae-03a2-49c5-931c-78d20ed6715d .legends .legend text{font-family:Consolas,"Liberation Mono",Menlo,Courier,monospace;font-size:10px}#chart-6db846ae-03a2-49c5-931c-78d20ed6715d .axis text{font-family:Consolas,"Liberation Mono",Menlo,Courier,monospace;font-size:10px}#chart-6db846ae-03a2-49c5-931c-78d20ed6715d .axis text.major{font-family:Consolas,"Liberation Mono",Menlo,Courier,monospace;font-size:10px}#chart-6db846ae-03a2-49c5-931c-78d20ed6715d .text-overlay text.value{font-family:Consolas,"Liberation Mono",Menlo,Courier,monospace;font-size:16px}#chart-6db846ae-03a2-49c5-931c-78d20ed6715d .text-overlay text.label{font-family:Consolas,"Liberation Mono",Menlo,Courier,monospace;font-size:10px}#chart-6db846ae-03a2-49c5-931c-78d20ed6715d .tooltip{font-family:Consolas,"Liberation Mono",Menlo,Courier,monospace;font-size:14px}#chart-6db846ae-03a2-49c5-931c-78d20ed6715d text.no_data{font-family:Consolas,"Liberation Mono",Menlo,Courier,monospace;font-size:64px}
#chart-6db846ae-03a2-49c5-931c-78d20ed6715d{background-color:rgba(249,249,249,1)}#chart-6db846ae-03a2-49c5-931c-78d20ed6715d path,#chart-6db846ae-03a2-49c5-931c-78d20ed6715d line,#chart-6db846ae-03a2-49c5-931c-78d20ed6715d rect,#chart-6db846ae-03a2-49c5-931c-78d20ed6715d circle{-webkit-transition:150ms;-moz-transition:150ms;transition:150ms}#chart-6db846ae-03a2-49c5-931c-78d20ed6715d .graph &gt; .background{fill:rgba(249,249,249,1)}#chart-6db846ae-03a2-49c5-931c-78d20ed6715d .plot &gt; .background{fill:rgba(255,255,255,1)}#chart-6db846ae-03a2-49c5-931c-78d20ed6715d .graph{fill:rgba(0,0,0,.87)}#chart-6db846ae-03a2-49c5-931c-78d20ed6715d text.no_data{fill:rgba(0,0,0,1)}#chart-6db846ae-03a2-49c5-931c-78d20ed6715d .title{fill:rgba(0,0,0,1)}#chart-6db846ae-03a2-49c5-931c-78d20ed6715d .legends .legend text{fill:rgba(0,0,0,.87)}#chart-6db846ae-03a2-49c5-931c-78d20ed6715d .legends .legend:hover text{fill:rgba(0,0,0,1)}#chart-6db846ae-03a2-49c5-931c-78d20ed6715d .axis .line{stroke:rgba(0,0,0,1)}#chart-6db846ae-03a2-49c5-931c-78d20ed6715d .axis .guide.line{stroke:rgba(0,0,0,.54)}#chart-6db846ae-03a2-49c5-931c-78d20ed6715d .axis .major.line{stroke:rgba(0,0,0,.87)}#chart-6db846ae-03a2-49c5-931c-78d20ed6715d .axis text.major{fill:rgba(0,0,0,1)}#chart-6db846ae-03a2-49c5-931c-78d20ed6715d .axis.y .guides:hover .guide.line,#chart-6db846ae-03a2-49c5-931c-78d20ed6715d .line-graph .axis.x .guides:hover .guide.line,#chart-6db846ae-03a2-49c5-931c-78d20ed6715d .stackedline-graph .axis.x .guides:hover .guide.line,#chart-6db846ae-03a2-49c5-931c-78d20ed6715d .xy-graph .axis.x .guides:hover .guide.line{stroke:rgba(0,0,0,1)}#chart-6db846ae-03a2-49c5-931c-78d20ed6715d .axis .guides:hover text{fill:rgba(0,0,0,1)}#chart-6db846ae-03a2-49c5-931c-78d20ed6715d .reactive{fill-opacity:.7;stroke-opacity:.8}#chart-6db846ae-03a2-49c5-931c-78d20ed6715d .ci{stroke:rgba(0,0,0,.87)}#chart-6db846ae-03a2-49c5-931c-78d20ed6715d .reactive.active,#chart-6db846ae-03a2-49c5-931c-78d20ed6715d .active .reactive{fill-opacity:.8;stroke-opacity:.9;stroke-width:4}#chart-6db846ae-03a2-49c5-931c-78d20ed6715d .ci .reactive.active{stroke-width:1.5}#chart-6db846ae-03a2-49c5-931c-78d20ed6715d .series text{fill:rgba(0,0,0,1)}#chart-6db846ae-03a2-49c5-931c-78d20ed6715d .tooltip rect{fill:rgba(255,255,255,1);stroke:rgba(0,0,0,1);-webkit-transition:opacity 150ms;-moz-transition:opacity 150ms;transition:opacity 150ms}#chart-6db846ae-03a2-49c5-931c-78d20ed6715d .tooltip .label{fill:rgba(0,0,0,.87)}#chart-6db846ae-03a2-49c5-931c-78d20ed6715d .tooltip .label{fill:rgba(0,0,0,.87)}#chart-6db846ae-03a2-49c5-931c-78d20ed6715d .tooltip .legend{font-size:.8em;fill:rgba(0,0,0,.54)}#chart-6db846ae-03a2-49c5-931c-78d20ed6715d .tooltip .x_label{font-size:.6em;fill:rgba(0,0,0,1)}#chart-6db846ae-03a2-49c5-931c-78d20ed6715d .tooltip .xlink{font-size:.5em;text-decoration:underline}#chart-6db846ae-03a2-49c5-931c-78d20ed6715d .tooltip .value{font-size:1.5em}#chart-6db846ae-03a2-49c5-931c-78d20ed6715d .bound{font-size:.5em}#chart-6db846ae-03a2-49c5-931c-78d20ed6715d .max-value{font-size:.75em;fill:rgba(0,0,0,.54)}#chart-6db846ae-03a2-49c5-931c-78d20ed6715d .map-element{fill:rgba(255,255,255,1);stroke:rgba(0,0,0,.54) !important}#chart-6db846ae-03a2-49c5-931c-78d20ed6715d .map-element .reactive{fill-opacity:inherit;stroke-opacity:inherit}#chart-6db846ae-03a2-49c5-931c-78d20ed6715d .color-0,#chart-6db846ae-03a2-49c5-931c-78d20ed6715d .color-0 a:visited{stroke:#909090;fill:#909090}#chart-6db846ae-03a2-49c5-931c-78d20ed6715d .color-1,#chart-6db846ae-03a2-49c5-931c-78d20ed6715d .color-1 a:visited{stroke:#000000;fill:#000000}#chart-6db846ae-03a2-49c5-931c-78d20ed6715d .color-2,#chart-6db846ae-03a2-49c5-931c-78d20ed6715d .color-2 a:visited{stroke:#ff0500;fill:#ff0500}#chart-6db846ae-03a2-49c5-931c-78d20ed6715d .color-3,#chart-6db846ae-03a2-49c5-931c-78d20ed6715d .color-3 a:visited{stroke:#323299;fill:#323299}#chart-6db846ae-03a2-49c5-931c-78d20ed6715d .color-4,#chart-6db846ae-03a2-49c5-931c-78d20ed6715d .color-4 a:visited{stroke:#a3413f;fill:#a3413f}#chart-6db846ae-03a2-49c5-931c-78d20ed6715d .color-5,#chart-6db846ae-03a2-49c5-931c-78d20ed6715d .color-5 a:visited{stroke:#a3413f;fill:#a3413f}#chart-6db846ae-03a2-49c5-931c-78d20ed6715d .color-6,#chart-6db846ae-03a2-49c5-931c-78d20ed6715d .color-6 a:visited{stroke:#a3413f;fill:#a3413f}#chart-6db846ae-03a2-49c5-931c-78d20ed6715d .color-7,#chart-6db846ae-03a2-49c5-931c-78d20ed6715d .color-7 a:visited{stroke:#a3413f;fill:#a3413f}#chart-6db846ae-03a2-49c5-931c-78d20ed6715d .color-8,#chart-6db846ae-03a2-49c5-931c-78d20ed6715d .color-8 a:visited{stroke:#a3413f;fill:#a3413f}#chart-6db846ae-03a2-49c5-931c-78d20ed6715d .color-9,#chart-6db846ae-03a2-49c5-931c-78d20ed6715d .color-9 a:visited{stroke:#657fff;fill:#657fff}#chart-6db846ae-03a2-49c5-931c-78d20ed6715d .color-10,#chart-6db846ae-03a2-49c5-931c-78d20ed6715d .color-10 a:visited{stroke:#657fff;fill:#657fff}#chart-6db846ae-03a2-49c5-931c-78d20ed6715d .color-11,#chart-6db846ae-03a2-49c5-931c-78d20ed6715d .color-11 a:visited{stroke:#657fff;fill:#657fff}#chart-6db846ae-03a2-49c5-931c-78d20ed6715d .color-12,#chart-6db846ae-03a2-49c5-931c-78d20ed6715d .color-12 a:visited{stroke:#657fff;fill:#657fff}#chart-6db846ae-03a2-49c5-931c-78d20ed6715d .color-13,#chart-6db846ae-03a2-49c5-931c-78d20ed6715d .color-13 a:visited{stroke:#657fff;fill:#657fff}#chart-6db846ae-03a2-49c5-931c-78d20ed6715d .text-overlay .color-0 text{fill:black}#chart-6db846ae-03a2-49c5-931c-78d20ed6715d .text-overlay .color-1 text{fill:white}#chart-6db846ae-03a2-49c5-931c-78d20ed6715d .text-overlay .color-2 text{fill:black}#chart-6db846ae-03a2-49c5-931c-78d20ed6715d .text-overlay .color-3 text{fill:black}#chart-6db846ae-03a2-49c5-931c-78d20ed6715d .text-overlay .color-4 text{fill:black}#chart-6db846ae-03a2-49c5-931c-78d20ed6715d .text-overlay .color-5 text{fill:black}#chart-6db846ae-03a2-49c5-931c-78d20ed6715d .text-overlay .color-6 text{fill:black}#chart-6db846ae-03a2-49c5-931c-78d20ed6715d .text-overlay .color-7 text{fill:black}#chart-6db846ae-03a2-49c5-931c-78d20ed6715d .text-overlay .color-8 text{fill:black}#chart-6db846ae-03a2-49c5-931c-78d20ed6715d .text-overlay .color-9 text{fill:black}#chart-6db846ae-03a2-49c5-931c-78d20ed6715d .text-overlay .color-10 text{fill:black}#chart-6db846ae-03a2-49c5-931c-78d20ed6715d .text-overlay .color-11 text{fill:black}#chart-6db846ae-03a2-49c5-931c-78d20ed6715d .text-overlay .color-12 text{fill:black}#chart-6db846ae-03a2-49c5-931c-78d20ed6715d .text-overlay .color-13 text{fill:black}#chart-6db846ae-03a2-49c5-931c-78d20ed6715d .series.serie-1{stroke-width:5}#chart-6db846ae-03a2-49c5-931c-78d20ed6715d .series.serie-2{stroke-width:3}#chart-6db846ae-03a2-49c5-931c-78d20ed6715d .series.serie-3{stroke-width:3}#chart-6db846ae-03a2-49c5-931c-78d20ed6715d .series.serie-4{stroke-width:2;stroke-dasharray:2,2}#chart-6db846ae-03a2-49c5-931c-78d20ed6715d .series.serie-5{stroke-width:2;stroke-dasharray:2,2}#chart-6db846ae-03a2-49c5-931c-78d20ed6715d .series.serie-6{stroke-width:2;stroke-dasharray:2,2}#chart-6db846ae-03a2-49c5-931c-78d20ed6715d .series.serie-7{stroke-width:2;stroke-dasharray:2,2}#chart-6db846ae-03a2-49c5-931c-78d20ed6715d .series.serie-8{stroke-width:2;stroke-dasharray:2,2}#chart-6db846ae-03a2-49c5-931c-78d20ed6715d .series.serie-9{stroke-width:2;stroke-dasharray:2,2}#chart-6db846ae-03a2-49c5-931c-78d20ed6715d .series.serie-10{stroke-width:2;stroke-dasharray:2,2}#chart-6db846ae-03a2-49c5-931c-78d20ed6715d .series.serie-11{stroke-width:2;stroke-dasharray:2,2}#chart-6db846ae-03a2-49c5-931c-78d20ed6715d .series.serie-12{stroke-width:2;stroke-dasharray:2,2}#chart-6db846ae-03a2-49c5-931c-78d20ed6715d .series.serie-13{stroke-width:2;stroke-dasharray:2,2}
#chart-6db846ae-03a2-49c5-931c-78d20ed6715d text.no_data{text-anchor:middle}#chart-6db846ae-03a2-49c5-931c-78d20ed6715d .guide.line{fill:none}#chart-6db846ae-03a2-49c5-931c-78d20ed6715d .centered{text-anchor:middle}#chart-6db846ae-03a2-49c5-931c-78d20ed6715d .title{text-anchor:middle}#chart-6db846ae-03a2-49c5-931c-78d20ed6715d .legends .legend text{fill-opacity:1}#chart-6db846ae-03a2-49c5-931c-78d20ed6715d .axis.x text{text-anchor:middle}#chart-6db846ae-03a2-49c5-931c-78d20ed6715d .axis.x:not(.web) text[transform]{text-anchor:start}#chart-6db846ae-03a2-49c5-931c-78d20ed6715d .axis.x:not(.web) text[transform].backwards{text-anchor:end}#chart-6db846ae-03a2-49c5-931c-78d20ed6715d .axis.y text{text-anchor:end}#chart-6db846ae-03a2-49c5-931c-78d20ed6715d .axis.y text[transform].backwards{text-anchor:start}#chart-6db846ae-03a2-49c5-931c-78d20ed6715d .axis.y2 text{text-anchor:start}#chart-6db846ae-03a2-49c5-931c-78d20ed6715d .axis.y2 text[transform].backwards{text-anchor:end}#chart-6db846ae-03a2-49c5-931c-78d20ed6715d .axis .guide.line{stroke-dasharray:4,4}#chart-6db846ae-03a2-49c5-931c-78d20ed6715d .axis .major.guide.line{stroke-dasharray:6,6}#chart-6db846ae-03a2-49c5-931c-78d20ed6715d .horizontal .axis.y .guide.line,#chart-6db846ae-03a2-49c5-931c-78d20ed6715d .horizontal .axis.y2 .guide.line,#chart-6db846ae-03a2-49c5-931c-78d20ed6715d .vertical .axis.x .guide.line{opacity:0}#chart-6db846ae-03a2-49c5-931c-78d20ed6715d .horizontal .axis.always_show .guide.line,#chart-6db846ae-03a2-49c5-931c-78d20ed6715d .vertical .axis.always_show .guide.line{opacity:1 !important}#chart-6db846ae-03a2-49c5-931c-78d20ed6715d .axis.y .guides:hover .guide.line,#chart-6db846ae-03a2-49c5-931c-78d20ed6715d .axis.y2 .guides:hover .guide.line,#chart-6db846ae-03a2-49c5-931c-78d20ed6715d .axis.x .guides:hover .guide.line{opacity:1}#chart-6db846ae-03a2-49c5-931c-78d20ed6715d .axis .guides:hover text{opacity:1}#chart-6db846ae-03a2-49c5-931c-78d20ed6715d .nofill{fill:none}#chart-6db846ae-03a2-49c5-931c-78d20ed6715d .subtle-fill{fill-opacity:.2}#chart-6db846ae-03a2-49c5-931c-78d20ed6715d .dot{stroke-width:1px;fill-opacity:1}#chart-6db846ae-03a2-49c5-931c-78d20ed6715d .dot.active{stroke-width:5px}#chart-6db846ae-03a2-49c5-931c-78d20ed6715d .dot.negative{fill:transparent}#chart-6db846ae-03a2-49c5-931c-78d20ed6715d text,#chart-6db846ae-03a2-49c5-931c-78d20ed6715d tspan{stroke:none !important}#chart-6db846ae-03a2-49c5-931c-78d20ed6715d .series text.active{opacity:1}#chart-6db846ae-03a2-49c5-931c-78d20ed6715d .tooltip rect{fill-opacity:.95;stroke-width:.5}#chart-6db846ae-03a2-49c5-931c-78d20ed6715d .tooltip text{fill-opacity:1}#chart-6db846ae-03a2-49c5-931c-78d20ed6715d .showable{visibility:hidden}#chart-6db846ae-03a2-49c5-931c-78d20ed6715d .showable.shown{visibility:visible}#chart-6db846ae-03a2-49c5-931c-78d20ed6715d .gauge-background{fill:rgba(229,229,229,1);stroke:none}#chart-6db846ae-03a2-49c5-931c-78d20ed6715d .bg-lines{stroke:rgba(249,249,249,1);stroke-width:2px}</style><script type="text/javascript">window.pygal = window.pygal || {};window.pygal.config = window.pygal.config || {};window.pygal.config['6db846ae-03a2-49c5-931c-78d20ed6715d'] = {"allow_interruptions": false, "x_label_rotation": 60, "y_title": "Density", "stack_from_top": false, "stroke": true, "include_x_axis": false, "defs": [], "truncate_label": null, "legend_at_bottom_columns": null, "show_minor_y_labels": true, "show_x_labels": true, "tooltip_fancy_mode": true, "show_legend": true, "print_labels": false, "disable_xml_declaration": false, "secondary_range": null, "x_labels": ["-8.96", "-8.76", "-8.56", "-8.36", "-8.16", "-7.96", "-7.76", "-7.56", "-7.36", "-7.16", "-6.96", "-6.76", "-6.56", "-6.36", "-6.16", "-5.96", "-5.76", "-5.56", "-5.36", "-5.16", "-4.96", "-4.76", "-4.56", "-4.36", "-4.16", "-3.96", "-3.76", "-3.56", "-3.36", "-3.16", "-2.96", "-2.76", "-2.56", "-2.36", "-2.16", "-1.96", "-1.76", "-1.56", "-1.36", "-1.16", "-0.96", "-0.76", "-0.56", "-0.36", "-0.16", "0.04", "0.24", "0.44", "0.64", "0.84", "1.04", "1.24", "1.43", "1.63", "1.83", "2.03", "2.23", "2.43", "2.63", "2.83"], "interpolation_precision": 250, "force_uri_protocol": "https", "classes": ["pygal-chart"], "css": ["file://style.css", "file://graph.css"], "margin": 20, "style": {"opacity_hover": ".8", "foreground": "rgba(0, 0, 0, .87)", "foreground_subtle": "rgba(0, 0, 0, .54)", "value_colors": [], "legend_font_family": "Consolas, \"Liberation Mono\", Menlo, Courier, monospace", "tooltip_font_family": "Consolas, \"Liberation Mono\", Menlo, Courier, monospace", "stroke_opacity_hover": ".9", "no_data_font_size": 64, "guide_stroke_dasharray": "4,4", "title_font_family": "Consolas, \"Liberation Mono\", Menlo, Courier, monospace", "label_font_family": "Consolas, \"Liberation Mono\", Menlo, Courier, monospace", "ci_colors": [], "background": "rgba(249, 249, 249, 1)", "colors": ["#909090", "#000000", "#ff0500", "#323299", "#a3413f", "#a3413f", "#a3413f", "#a3413f", "#a3413f", "#657fff", "#657fff", "#657fff", "#657fff", "#657fff"], "value_font_family": "Consolas, \"Liberation Mono\", Menlo, Courier, monospace", "font_family": "Consolas, \"Liberation Mono\", Menlo, Courier, monospace", "value_background": "rgba(229, 229, 229, 1)", "stroke_opacity": ".8", "title_font_size": 16, "no_data_font_family": "Consolas, \"Liberation Mono\", Menlo, Courier, monospace", "label_font_size": 10, "major_guide_stroke_dasharray": "6,6", "major_label_font_size": 10, "transition": "150ms", "opacity": ".7", "legend_font_size": 10, "value_label_font_family": "Consolas, \"Liberation Mono\", Menlo, Courier, monospace", "major_label_font_family": "Consolas, \"Liberation Mono\", Menlo, Courier, monospace", "plot_background": "rgba(255, 255, 255, 1)", "value_label_font_size": 10, "foreground_strong": "rgba(0, 0, 0, 1)", "tooltip_font_size": 14, "value_font_size": 16}, "order_min": null, "interpolation_parameters": {}, "show_dots": false, "y_labels_major": null, "box_mode": "extremes", "fill": false, "show_minor_x_labels": false, "js": ["//kozea.github.io/pygal.js/2.0.x/pygal-tooltips.min.js"], "explicit_size": false, "formatter": null, "x_labels_major": null, "legends": ["Data", "GMM", "i=0", "i=1", "i=0 k=0", "i=0 k=1", "i=0 k=2", "i=0 k=3", "i=0 k=4", "i=1 k=0", "i=1 k=1", "i=1 k=2", "i=1 k=3", "i=1 k=4"], "zero": 0, "strict": false, "print_values": false, "margin_bottom": null, "dynamic_print_values": false, "print_zeroes": true, "logarithmic": false, "x_labels_major_count": null, "margin_left": null, "legend_box_size": 12, "max_scale": 16, "dots_size": 2.5, "show_y_guides": true, "truncate_legend": null, "interpolate": null, "y_labels_major_every": null, "legend_at_bottom": false, "inner_radius": 0, "tooltip_border_radius": 0, "show_x_guides": false, "x_labels_major_every": 2, "show_y_labels": true, "pretty_print": false, "rounded_bars": null, "missing_value_fill_truncation": "x", "y_label_rotation": 0, "height": 600, "show_only_major_dots": false, "spacing": 10, "inverse_y_axis": false, "xrange": null, "margin_right": null, "no_prefix": false, "range": [0, 0.27578580090479526], "margin_top": null, "no_data_text": "No data", "y_labels_major_count": null, "half_pie": false, "width": 800, "title": "Iteration #15", "stroke_style": null, "y_labels": null, "print_values_position": "center", "x_title": "Observation", "min_scale": 4}</script><script type="text/javascript" xlink:href="https://kozea.github.io/pygal.js/2.0.x/pygal-tooltips.min.js" /></defs><title>Iteration #15</title><g class="graph line-graph vertical"><rect class="background" height="600" width="800" x="0" y="0" /><g class="plot" transform="translate(144, 46)"><rect class="background" height="472.01923788646684" width="636.0" x="0" y="0" /><g class="axis y always_show"><g class="guides"><path class="axis major line" d="M0.000000 462.941945 h636.000000" /><text class="major" x="-5" y="466.44194485">0</text><title>0</title></g><g class="guides"><path class="guide line" d="M0.000000 430.027658 h636.000000" /><text class="" x="-5" y="433.527657724">0.02</text><title>0.02</title></g><g class="guides"><path class="guide line" d="M0.000000 397.113371 h636.000000" /><text class="" x="-5" y="400.613370598">0.04</text><title>0.04</title></g><g class="guides"><path class="guide line" d="M0.000000 364.199083 h636.000000" /><text class="" x="-5" y="367.699083472">0.06</text><title>0.06</title></g><g class="guides"><path class="guide line" d="M0.000000 331.284796 h636.000000" /><text class="" x="-5" y="334.784796346">0.08</text><title>0.08</title></g><g class="guides"><path class="guide line" d="M0.000000 298.370509 h636.000000" /><text class="" x="-5" y="301.87050922">0.1</text><title>0.1</title></g><g class="guides"><path class="guide line" d="M0.000000 265.456222 h636.000000" /><text class="" x="-5" y="268.956222094">0.12</text><title>0.12</title></g><g class="guides"><path class="guide line" d="M0.000000 232.541935 h636.000000" /><text class="" x="-5" y="236.041934968">0.14</text><title>0.14</title></g><g class="guides"><path class="guide line" d="M0.000000 199.627648 h636.000000" /><text class="" x="-5" y="203.127647841">0.16</text><title>0.16</title></g><g class="guides"><path class="guide line" d="M0.000000 166.713361 h636.000000" /><text class="" x="-5" y="170.213360715">0.18</text><title>0.18</title></g><g class="guides"><path class="guide line" d="M0.000000 133.799074 h636.000000" /><text class="" x="-5" y="137.299073589">0.2</text><title>0.2</title></g><g class="guides"><path class="guide line" d="M0.000000 100.884786 h636.000000" /><text class="" x="-5" y="104.384786463">0.22</text><title>0.22</title></g><g class="guides"><path class="guide line" d="M0.000000 67.970499 h636.000000" /><text class="" x="-5" y="71.4704993371">0.24</text><title>0.24</title></g><g class="guides"><path class="guide line" d="M0.000000 35.056212 h636.000000" /><text class="" x="-5" y="38.5562122111">0.26</text><title>0.26</title></g></g><g class="axis x"><g class="guides"><path class="major line" d="M12.230769 0.000000 v472.019238" /><text class="major" transform="rotate(60 12.230769 487.019238)" x="12.230769230769232" y="487.01923788646684">-8.96</text></g><g class="guides"><path class="major guide line" d="M32.960887 0.000000 v472.019238" /><text class="major" transform="rotate(60 32.960887 487.019238)" x="32.96088657105606" y="487.01923788646684">-8.56</text></g><g class="guides"><path class="major guide line" d="M53.691004 0.000000 v472.019238" /><text class="major" transform="rotate(60 53.691004 487.019238)" x="53.6910039113429" y="487.01923788646684">-8.16</text></g><g class="guides"><path class="major guide line" d="M74.421121 0.000000 v472.019238" /><text class="major" transform="rotate(60 74.421121 487.019238)" x="74.42112125162973" y="487.01923788646684">-7.76</text></g><g class="guides"><path class="major guide line" d="M95.151239 0.000000 v472.019238" /><text class="major" transform="rotate(60 95.151239 487.019238)" x="95.15123859191655" y="487.01923788646684">-7.36</text></g><g class="guides"><path class="major guide line" d="M115.881356 0.000000 v472.019238" /><text class="major" transform="rotate(60 115.881356 487.019238)" x="115.88135593220338" y="487.01923788646684">-6.96</text></g><g class="guides"><path class="major guide line" d="M136.611473 0.000000 v472.019238" /><text class="major" transform="rotate(60 136.611473 487.019238)" x="136.61147327249023" y="487.01923788646684">-6.56</text></g><g class="guides"><path class="major guide line" d="M157.341591 0.000000 v472.019238" /><text class="major" transform="rotate(60 157.341591 487.019238)" x="157.34159061277705" y="487.01923788646684">-6.16</text></g><g class="guides"><path class="major guide line" d="M178.071708 0.000000 v472.019238" /><text class="major" transform="rotate(60 178.071708 487.019238)" x="178.0717079530639" y="487.01923788646684">-5.76</text></g><g class="guides"><path class="major guide line" d="M198.801825 0.000000 v472.019238" /><text class="major" transform="rotate(60 198.801825 487.019238)" x="198.80182529335073" y="487.01923788646684">-5.36</text></g><g class="guides"><path class="major guide line" d="M219.531943 0.000000 v472.019238" /><text class="major" transform="rotate(60 219.531943 487.019238)" x="219.53194263363756" y="487.01923788646684">-4.96</text></g><g class="guides"><path class="major guide line" d="M240.262060 0.000000 v472.019238" /><text class="major" transform="rotate(60 240.262060 487.019238)" x="240.2620599739244" y="487.01923788646684">-4.56</text></g><g class="guides"><path class="major guide line" d="M260.992177 0.000000 v472.019238" /><text class="major" transform="rotate(60 260.992177 487.019238)" x="260.99217731421123" y="487.01923788646684">-4.16</text></g><g class="guides"><path class="major guide line" d="M281.722295 0.000000 v472.019238" /><text class="major" transform="rotate(60 281.722295 487.019238)" x="281.722294654498" y="487.01923788646684">-3.76</text></g><g class="guides"><path class="major guide line" d="M302.452412 0.000000 v472.019238" /><text class="major" transform="rotate(60 302.452412 487.019238)" x="302.4524119947849" y="487.01923788646684">-3.36</text></g><g class="guides"><path class="major guide line" d="M323.182529 0.000000 v472.019238" /><text class="major" transform="rotate(60 323.182529 487.019238)" x="323.1825293350717" y="487.01923788646684">-2.96</text></g><g class="guides"><path class="major guide line" d="M343.912647 0.000000 v472.019238" /><text class="major" transform="rotate(60 343.912647 487.019238)" x="343.91264667535853" y="487.01923788646684">-2.56</text></g><g class="guides"><path class="major guide line" d="M364.642764 0.000000 v472.019238" /><text class="major" transform="rotate(60 364.642764 487.019238)" x="364.64276401564535" y="487.01923788646684">-2.16</text></g><g class="guides"><path class="major guide line" d="M385.372881 0.000000 v472.019238" /><text class="major" transform="rotate(60 385.372881 487.019238)" x="385.37288135593224" y="487.01923788646684">-1.76</text></g><g class="guides"><path class="major guide line" d="M406.102999 0.000000 v472.019238" /><text class="major" transform="rotate(60 406.102999 487.019238)" x="406.102998696219" y="487.01923788646684">-1.36</text></g><g class="guides"><path class="major guide line" d="M426.833116 0.000000 v472.019238" /><text class="major" transform="rotate(60 426.833116 487.019238)" x="426.8331160365058" y="487.01923788646684">-0.96</text></g><g class="guides"><path class="major guide line" d="M447.563233 0.000000 v472.019238" /><text class="major" transform="rotate(60 447.563233 487.019238)" x="447.56323337679265" y="487.01923788646684">-0.56</text></g><g class="guides"><path class="major guide line" d="M468.293351 0.000000 v472.019238" /><text class="major" transform="rotate(60 468.293351 487.019238)" x="468.29335071707953" y="487.01923788646684">-0.16</text></g><g class="guides"><path class="major guide line" d="M489.023468 0.000000 v472.019238" /><text class="major" transform="rotate(60 489.023468 487.019238)" x="489.02346805736636" y="487.01923788646684">0.24</text></g><g class="guides"><path class="major guide line" d="M509.753585 0.000000 v472.019238" /><text class="major" transform="rotate(60 509.753585 487.019238)" x="509.75358539765324" y="487.01923788646684">0.64</text></g><g class="guides"><path class="major guide line" d="M530.483703 0.000000 v472.019238" /><text class="major" transform="rotate(60 530.483703 487.019238)" x="530.48370273794" y="487.01923788646684">1.04</text></g><g class="guides"><path class="major guide line" d="M551.213820 0.000000 v472.019238" /><text class="major" transform="rotate(60 551.213820 487.019238)" x="551.213820078227" y="487.01923788646684">1.43</text></g><g class="guides"><path class="major guide line" d="M571.943937 0.000000 v472.019238" /><text class="major" transform="rotate(60 571.943937 487.019238)" x="571.9439374185138" y="487.01923788646684">1.83</text></g><g class="guides"><path class="major guide line" d="M592.674055 0.000000 v472.019238" /><text class="major" transform="rotate(60 592.674055 487.019238)" x="592.6740547588006" y="487.01923788646684">2.23</text></g><g class="guides"><path class="major guide line" d="M613.404172 0.000000 v472.019238" /><text class="major" transform="rotate(60 613.404172 487.019238)" x="613.4041720990874" y="487.01923788646684">2.63</text></g></g><g class="series serie-0 color-0"><path class="line reactive" d="M12.230769 462.941945 L12.230769 462.019456 22.595828 462.941945 32.960887 461.096967 43.325945 462.019456 53.691004 459.251988 64.056063 462.019456 74.421121 458.329499 84.786180 462.019456 95.151239 458.329499 105.516297 462.019456 115.881356 448.182119 126.246415 460.174477 136.611473 457.407010 146.976532 457.407010 157.341591 451.872075 167.706649 448.182119 178.071708 454.639543 188.436767 445.414651 198.801825 442.647184 209.166884 436.189760 219.531943 437.112249 229.897001 392.832771 240.262060 396.522728 250.627119 376.227967 260.992177 355.933206 271.357236 351.320760 281.722295 325.491065 292.087353 277.521630 302.452412 283.056565 312.817471 202.800010 323.182529 188.040184 333.547588 169.590402 343.912647 123.465945 354.277705 95.791271 364.642764 67.194108 375.007823 82.876423 385.372881 60.736684 395.737940 80.108956 406.102999 29.372054 416.468057 9.077293 426.833116 70.884065 437.198175 69.039086 447.563233 41.364413 457.928292 40.441923 468.293351 91.178826 478.658409 140.993239 489.023468 214.792369 499.388527 259.071847 509.753585 321.801108 520.118644 364.235608 530.483703 408.515086 540.848761 430.654825 551.213820 448.182119 561.578879 455.562032 571.943937 458.329499 582.308996 458.329499 592.674055 462.019456 603.039113 462.941945 613.404172 462.019456 623.769231 462.941945" /></g><g class="series serie-1 color-1"><path class="line reactive nofill" d="M12.230769 462.904427 L22.595828 462.877810 32.960887 462.834405 43.325945 462.765071 53.691004 462.656592 64.056063 462.490379 74.421121 462.241006 84.786180 461.874711 95.151239 461.348049 105.516297 460.606976 115.881356 459.586709 126.246415 458.212759 136.611473 456.403527 146.976532 454.074747 157.341591 451.145822 167.706649 447.547624 178.071708 443.230505 188.436767 438.169895 198.801825 432.364850 209.166884 425.822560 219.531943 418.520584 229.897001 410.341205 240.262060 400.982691 250.627119 389.872102 260.992177 376.128725 271.357236 358.641789 281.722295 336.311763 292.087353 308.450510 302.452412 275.251277 312.817471 238.152295 323.182529 199.865031 333.547588 163.877971 343.912647 133.450352 354.277705 110.441472 364.642764 94.534786 375.007823 83.378418 385.372881 74.062389 395.737940 65.620663 406.102999 60.024534 416.468057 58.830485 426.833116 58.767377 437.198175 54.140648 447.563233 45.418005 457.928292 42.814530 468.293351 59.356069 478.658409 101.003297 489.023468 163.045813 499.388527 233.817243 509.753585 301.057372 520.118644 356.524882 530.483703 397.297226 540.848761 424.538454 551.213820 441.378572 561.578879 451.179256 571.943937 456.641008 582.308996 459.601150 592.674055 461.181026 603.039113 462.018255 613.404172 462.460455 623.769231 462.693251" /></g><g class="series serie-2 color-2"><path class="line reactive nofill" d="M12.230769 462.941945 L22.595828 462.941945 32.960887 462.941945 43.325945 462.941945 53.691004 462.941945 64.056063 462.941945 74.421121 462.941945 84.786180 462.941945 95.151239 462.941945 105.516297 462.941945 115.881356 462.941945 126.246415 462.941945 136.611473 462.941945 146.976532 462.941945 157.341591 462.941945 167.706649 462.941945 178.071708 462.941945 188.436767 462.941944 198.801825 462.941944 209.166884 462.941941 219.531943 462.941933 229.897001 462.941910 240.262060 462.941844 250.627119 462.941666 260.992177 462.941189 271.357236 462.939937 281.722295 462.936704 292.087353 462.928460 302.452412 462.907637 312.817471 462.855410 323.182529 462.725445 333.547588 462.406195 343.912647 461.639801 354.277705 459.866272 364.642764 455.969937 375.007823 447.963649 385.372881 432.782994 395.737940 406.542230 406.102999 365.661838 416.468057 308.965632 426.833116 240.079591 437.198175 168.644064 447.563233 108.807045 457.928292 74.758657 468.293351 75.131453 478.658409 109.323151 489.023468 167.925524 499.388527 236.923223 509.753585 303.109296 520.118644 357.889429 530.483703 398.197055 540.848761 425.123058 551.213820 441.751764 561.578879 451.413090 571.943937 456.784757 582.308996 459.687838 592.674055 461.232305 603.039113 462.048009 613.404172 462.477390 623.769231 462.702705" /></g><g class="series serie-3 color-3"><path class="line reactive nofill" d="M12.230769 462.904427 L22.595828 462.877810 32.960887 462.834405 43.325945 462.765071 53.691004 462.656592 64.056063 462.490379 74.421121 462.241006 84.786180 461.874711 95.151239 461.348049 105.516297 460.606976 115.881356 459.586709 126.246415 458.212759 136.611473 456.403527 146.976532 454.074747 157.341591 451.145822 167.706649 447.547624 178.071708 443.230505 188.436767 438.169896 198.801825 432.364852 209.166884 425.822564 219.531943 418.520596 229.897001 410.341240 240.262060 400.982791 250.627119 389.872381 260.992177 376.129481 271.357236 358.643797 281.722295 336.317004 292.087353 308.463995 302.452412 275.285586 312.817471 238.238829 323.182529 200.081531 333.547588 164.413721 343.912647 134.752496 354.277705 113.517145 364.642764 101.506794 375.007823 98.356714 385.372881 104.221340 395.737940 122.020378 406.102999 157.304642 416.468057 212.806798 426.833116 281.629731 437.198175 348.438528 447.563233 399.552905 457.928292 430.997818 468.293351 447.166560 478.658409 454.622090 489.023468 458.062233 499.388527 459.835965 509.753585 460.890021 520.118644 461.577397 530.483703 462.042116 540.848761 462.357341 551.213820 462.568753 561.578879 462.708111 571.943937 462.798195 582.308996 462.855257 592.674055 462.890665 603.039113 462.912190 613.404172 462.925010 623.769231 462.932490" /></g><g class="series serie-4 color-4"><path class="line reactive nofill" d="M12.230769 462.941945 L22.595828 462.941945 32.960887 462.941945 43.325945 462.941945 53.691004 462.941945 64.056063 462.941945 74.421121 462.941945 84.786180 462.941945 95.151239 462.941945 105.516297 462.941945 115.881356 462.941945 126.246415 462.941945 136.611473 462.941945 146.976532 462.941945 157.341591 462.941945 167.706649 462.941945 178.071708 462.941945 188.436767 462.941945 198.801825 462.941945 209.166884 462.941945 219.531943 462.941945 229.897001 462.941945 240.262060 462.941945 250.627119 462.941945 260.992177 462.941944 271.357236 462.941939 281.722295 462.941906 292.087353 462.941719 302.452412 462.940762 312.817471 462.936368 323.182529 462.918269 333.547588 462.851427 343.912647 462.630302 354.277705 461.975716 364.642764 460.244187 375.007823 456.158872 385.372881 447.583384 395.737940 431.625311 406.102999 405.437663 416.468057 367.853921 426.833116 321.345614 437.198175 273.062167 447.563233 233.640934 457.928292 213.577941 468.293351 218.732705 478.658409 247.569092 489.023468 291.893013 499.388527 340.607062 509.753585 384.150186 520.118644 417.242407 530.483703 439.072442 540.848761 451.714641 551.213820 458.186314 561.578879 461.127928 571.943937 462.318820 582.308996 462.749188 592.674055 462.888249 603.039113 462.928474 613.404172 462.938902 623.769231 462.941326" /></g><g class="series serie-5 color-5"><path class="line reactive nofill" d="M12.230769 462.941945 L22.595828 462.941945 32.960887 462.941945 43.325945 462.941945 53.691004 462.941945 64.056063 462.941945 74.421121 462.941945 84.786180 462.941945 95.151239 462.941945 105.516297 462.941945 115.881356 462.941945 126.246415 462.941945 136.611473 462.941945 146.976532 462.941945 157.341591 462.941945 167.706649 462.941945 178.071708 462.941945 188.436767 462.941945 198.801825 462.941945 209.166884 462.941945 219.531943 462.941945 229.897001 462.941945 240.262060 462.941944 250.627119 462.941941 260.992177 462.941927 271.357236 462.941862 281.722295 462.941590 292.087353 462.940550 302.452412 462.936875 312.817471 462.924911 323.182529 462.889069 333.547588 462.790278 343.912647 462.539963 354.277705 461.957477 364.642764 460.714135 375.007823 458.283552 385.372881 453.941262 395.737940 446.872679 406.102999 436.432665 416.468057 422.532666 426.833116 406.024478 437.198175 388.863593 447.563233 373.854121 457.928292 363.943887 468.293351 361.289860 478.658409 366.495285 489.023468 378.386928 499.388527 394.444739 509.753585 411.669076 520.118644 427.478275 530.483703 440.276669 540.848761 449.556906 551.213820 455.637965 561.578879 459.259123 571.943937 461.226079 582.308996 462.203247 592.674055 462.648091 603.039113 462.833931 613.404172 462.905258 623.769231 462.930431" /></g><g class="series serie-6 color-6"><path class="line reactive nofill" d="M12.230769 462.941945 L22.595828 462.941945 32.960887 462.941945 43.325945 462.941945 53.691004 462.941945 64.056063 462.941945 74.421121 462.941945 84.786180 462.941945 95.151239 462.941945 105.516297 462.941945 115.881356 462.941945 126.246415 462.941945 136.611473 462.941945 146.976532 462.941945 157.341591 462.941945 167.706649 462.941945 178.071708 462.941945 188.436767 462.941945 198.801825 462.941945 209.166884 462.941945 219.531943 462.941944 229.897001 462.941942 240.262060 462.941932 250.627119 462.941899 260.992177 462.941786 271.357236 462.941428 281.722295 462.940366 292.087353 462.937397 302.452412 462.929605 312.817471 462.910398 323.182529 462.865954 333.547588 462.769479 343.912647 462.573151 354.277705 462.198920 364.642764 461.531481 375.007823 460.419279 385.372881 458.690893 395.737940 456.192437 406.102999 452.845072 416.468057 448.710771 426.833116 444.043171 437.198175 439.295517 447.563233 435.065556 457.928292 431.978695 468.293351 430.538170 478.658409 430.990999 489.023468 433.258734 499.388527 436.959676 509.753585 441.513911 520.118644 446.291470 530.483703 450.751769 540.848761 454.533177 551.213820 457.476900 561.578879 459.595419 571.943937 461.011161 582.308996 461.892373 592.674055 462.404381 603.039113 462.682535 613.404172 462.823999 623.769231 462.891419" /></g><g class="series serie-7 color-7"><path class="line reactive nofill" d="M12.230769 462.941945 L22.595828 462.941945 32.960887 462.941945 43.325945 462.941945 53.691004 462.941945 64.056063 462.941945 74.421121 462.941945 84.786180 462.941945 95.151239 462.941945 105.516297 462.941945 115.881356 462.941945 126.246415 462.941945 136.611473 462.941945 146.976532 462.941945 157.341591 462.941945 167.706649 462.941945 178.071708 462.941945 188.436767 462.941945 198.801825 462.941944 209.166884 462.941943 219.531943 462.941939 229.897001 462.941926 240.262060 462.941891 250.627119 462.941798 260.992177 462.941559 271.357236 462.940974 281.722295 462.939611 292.087353 462.936581 302.452412 462.930157 312.817471 462.917175 323.182529 462.892173 333.547588 462.846313 343.912647 462.766244 354.277705 462.633269 364.642764 462.423398 375.007823 462.108975 385.372881 461.662486 395.737940 461.062716 406.102999 460.302643 416.468057 459.397449 426.833116 458.390220 437.198175 457.352695 447.563233 456.379176 457.928292 455.573484 468.293351 455.031106 478.658409 454.820667 489.023468 454.969671 499.388527 455.458593 509.753585 456.225087 520.118644 457.177039 530.483703 458.210712 540.848761 459.229051 551.213820 460.155780 561.578879 460.942741 571.943937 461.570231 582.308996 462.041979 592.674055 462.377340 603.039113 462.603242 613.404172 462.747655 623.769231 462.835375" /></g><g class="series serie-8 color-8"><path class="line reactive nofill" d="M12.230769 462.941945 L22.595828 462.941945 32.960887 462.941945 43.325945 462.941945 53.691004 462.941945 64.056063 462.941945 74.421121 462.941945 84.786180 462.941945 95.151239 462.941945 105.516297 462.941945 115.881356 462.941945 126.246415 462.941945 136.611473 462.941945 146.976532 462.941945 157.341591 462.941945 167.706649 462.941945 178.071708 462.941945 188.436767 462.941945 198.801825 462.941944 209.166884 462.941943 219.531943 462.941940 229.897001 462.941932 240.262060 462.941911 250.627119 462.941863 260.992177 462.941754 271.357236 462.941514 281.722295 462.941010 292.087353 462.939992 302.452412 462.938017 312.817471 462.934338 323.182529 462.927760 333.547588 462.916477 343.912647 462.897920 354.277705 462.868669 364.642764 462.824516 375.007823 462.760750 385.372881 462.672748 395.737940 462.556867 406.102999 462.411574 416.468057 462.238605 426.833116 462.043886 437.198175 461.837872 447.563233 461.635039 457.928292 461.452430 468.293351 461.307392 478.658409 461.214887 489.023468 461.184957 499.388527 461.220932 509.753585 461.318815 520.118644 461.468017 530.483703 461.653242 540.848761 461.857061 551.213820 462.062584 561.578879 462.255659 571.943937 462.426246 582.308996 462.568831 592.674055 462.682024 603.039113 462.767606 613.404172 462.829355 623.769231 462.871935" /></g><g class="series serie-9 color-9"><path class="line reactive nofill" d="M12.230769 462.941945 L22.595828 462.941945 32.960887 462.941945 43.325945 462.941945 53.691004 462.941945 64.056063 462.941945 74.421121 462.941945 84.786180 462.941945 95.151239 462.941945 105.516297 462.941945 115.881356 462.941945 126.246415 462.941945 136.611473 462.941945 146.976532 462.941945 157.341591 462.941945 167.706649 462.941945 178.071708 462.941945 188.436767 462.941945 198.801825 462.941945 209.166884 462.941945 219.531943 462.941945 229.897001 462.941945 240.262060 462.941945 250.627119 462.941945 260.992177 462.941945 271.357236 462.941945 281.722295 462.941945 292.087353 462.941943 302.452412 462.941915 312.817471 462.941548 323.182529 462.937848 333.547588 462.909072 343.912647 462.736650 354.277705 461.944171 364.642764 459.167909 375.007823 451.832322 385.372881 437.490521 395.737940 417.564047 406.102999 399.977384 416.468057 394.948432 426.833116 405.799569 437.198175 425.568028 447.563233 443.918094 457.928292 455.405826 468.293351 460.618584 478.658409 462.384496 489.023468 462.837854 499.388527 462.926818 509.753585 462.940234 520.118644 462.941794 530.483703 462.941935 540.848761 462.941944 551.213820 462.941945 561.578879 462.941945 571.943937 462.941945 582.308996 462.941945 592.674055 462.941945 603.039113 462.941945 613.404172 462.941945 623.769231 462.941945" /></g><g class="series serie-10 color-10"><path class="line reactive nofill" d="M12.230769 462.941945 L22.595828 462.941945 32.960887 462.941945 43.325945 462.941945 53.691004 462.941945 64.056063 462.941945 74.421121 462.941945 84.786180 462.941945 95.151239 462.941945 105.516297 462.941945 115.881356 462.941945 126.246415 462.941945 136.611473 462.941945 146.976532 462.941945 157.341591 462.941945 167.706649 462.941945 178.071708 462.941945 188.436767 462.941945 198.801825 462.941945 209.166884 462.941945 219.531943 462.941945 229.897001 462.941945 240.262060 462.941944 250.627119 462.941937 260.992177 462.941874 271.357236 462.941400 281.722295 462.938354 292.087353 462.921782 302.452412 462.845476 312.817471 462.548713 323.182529 461.576297 333.547588 458.901219 343.912647 452.755800 354.277705 441.064814 364.642764 422.910536 375.007823 400.533784 385.372881 380.050080 395.737940 369.139872 406.102999 372.505606 416.468057 388.656536 426.833116 410.955027 437.198175 431.945304 447.563233 447.196128 457.928292 456.127260 468.293351 460.429154 478.658409 462.152545 489.023468 462.730660 499.388527 462.893765 509.753585 462.932584 520.118644 462.940395 530.483703 462.941726 540.848761 462.941919 551.213820 462.941942 561.578879 462.941945 571.943937 462.941945 582.308996 462.941945 592.674055 462.941945 603.039113 462.941945 613.404172 462.941945 623.769231 462.941945" /></g><g class="series serie-11 color-11"><path class="line reactive nofill" d="M12.230769 462.941945 L22.595828 462.941945 32.960887 462.941945 43.325945 462.941945 53.691004 462.941945 64.056063 462.941945 74.421121 462.941945 84.786180 462.941945 95.151239 462.941945 105.516297 462.941945 115.881356 462.941945 126.246415 462.941945 136.611473 462.941945 146.976532 462.941945 157.341591 462.941945 167.706649 462.941944 178.071708 462.941939 188.436767 462.941913 198.801825 462.941778 209.166884 462.941158 219.531943 462.938576 229.897001 462.928825 240.262060 462.895470 250.627119 462.792207 260.992177 462.503130 271.357236 461.772264 281.722295 460.106056 292.087353 456.688097 302.452412 450.397786 312.817471 440.055835 323.182529 424.963373 333.547588 405.617286 343.912647 384.240895 354.277705 364.664066 364.642764 351.315466 375.007823 347.619226 385.372881 354.574527 395.737940 370.318959 406.102999 390.934894 416.468057 412.024397 426.833116 430.193089 437.198175 443.783468 447.563233 452.747536 457.928292 458.007943 468.293351 460.769880 478.658409 462.072219 489.023468 462.625186 499.388527 462.837012 509.753585 462.910327 520.118644 462.933280 530.483703 462.939785 540.848761 462.941455 551.213820 462.941844 561.578879 462.941926 571.943937 462.941942 582.308996 462.941944 592.674055 462.941945 603.039113 462.941945 613.404172 462.941945 623.769231 462.941945" /></g><g class="series serie-12 color-12"><path class="line reactive nofill" d="M12.230769 462.941945 L22.595828 462.941945 32.960887 462.941945 43.325945 462.941945 53.691004 462.941945 64.056063 462.941945 74.421121 462.941945 84.786180 462.941945 95.151239 462.941945 105.516297 462.941944 115.881356 462.941941 126.246415 462.941928 136.611473 462.941870 146.976532 462.941634 157.341591 462.940751 167.706649 462.937676 178.071708 462.927755 188.436767 462.898072 198.801825 462.815783 209.166884 462.604519 219.531943 462.102585 229.897001 461.000001 240.262060 458.763220 250.627119 454.578803 260.992177 447.374629 271.357236 435.990837 281.722295 419.545106 292.087353 397.950205 302.452412 372.415218 312.817471 345.664617 323.182529 321.632921 333.547588 304.582372 343.912647 297.883656 354.277705 302.931273 364.642764 318.670910 375.007823 341.957945 385.372881 368.580340 395.737940 394.490709 406.102999 416.758550 416.468057 433.961236 426.833116 446.027772 437.198175 453.760499 447.563233 458.306515 457.928292 460.765300 468.293351 461.991332 478.658409 462.555811 489.023468 462.796066 499.388527 462.890687 509.753585 462.925193 520.118644 462.936853 530.483703 462.940505 540.848761 462.941566 551.213820 462.941852 561.578879 462.941924 571.943937 462.941940 582.308996 462.941944 592.674055 462.941945 603.039113 462.941945 613.404172 462.941945 623.769231 462.941945" /></g><g class="series serie-13 color-13"><path class="line reactive nofill" d="M12.230769 462.904427 L22.595828 462.877810 32.960887 462.834405 43.325945 462.765071 53.691004 462.656592 64.056063 462.490379 74.421121 462.241006 84.786180 461.874711 95.151239 461.348049 105.516297 460.606977 115.881356 459.586713 126.246415 458.212776 136.611473 456.403602 146.976532 454.075058 157.341591 451.147017 167.706649 447.551894 178.071708 443.244700 188.436767 438.213801 198.801825 432.491180 209.166884 426.160776 219.531943 419.363324 229.897001 412.296304 240.262060 405.207991 250.627119 398.385268 260.992177 392.135683 271.357236 386.765131 281.722295 382.553323 292.087353 379.729747 302.452412 378.452970 312.817471 378.795896 323.182529 380.738872 333.547588 384.171552 343.912647 388.903275 354.277705 394.680600 364.642764 401.209751 375.007823 408.181217 385.372881 415.293651 395.737940 422.274570 406.102999 428.895987 416.468057 434.983977 426.833116 440.422053 437.198175 445.149009 447.563233 449.152411 457.928292 452.459268 468.293351 455.125389 478.658409 457.224799 489.023468 458.840246 499.388527 460.055462 509.753585 460.949461 520.118644 461.592854 530.483703 462.045944 540.848761 462.358237 551.213820 462.568949 561.578879 462.708151 571.943937 462.798203 582.308996 462.855258 592.674055 462.890665 603.039113 462.912190 613.404172 462.925010 623.769231 462.932490" /></g></g><g class="titles"><text class="title plot_title" x="400.0" y="26">Iteration #15</text><text class="title" x="462.0" y="580.0">Observation</text><text class="title" transform="rotate(-90 64.000000 282.009619)" x="64.0" y="308.0096189432334">Density</text></g><g class="plot overlay" transform="translate(144, 46)"><g class="series serie-0 color-0" /><g class="series serie-1 color-1" /><g class="series serie-2 color-2" /><g class="series serie-3 color-3" /><g class="series serie-4 color-4" /><g class="series serie-5 color-5" /><g class="series serie-6 color-6" /><g class="series serie-7 color-7" /><g class="series serie-8 color-8" /><g class="series serie-9 color-9" /><g class="series serie-10 color-10" /><g class="series serie-11 color-11" /><g class="series serie-12 color-12" /><g class="series serie-13 color-13" /></g><g class="plot text-overlay" transform="translate(144, 46)"><g class="series serie-0 color-0" /><g class="series serie-1 color-1" /><g class="series serie-2 color-2" /><g class="series serie-3 color-3" /><g class="series serie-4 color-4" /><g class="series serie-5 color-5" /><g class="series serie-6 color-6" /><g class="series serie-7 color-7" /><g class="series serie-8 color-8" /><g class="series serie-9 color-9" /><g class="series serie-10 color-10" /><g class="series serie-11 color-11" /><g class="series serie-12 color-12" /><g class="series serie-13 color-13" /></g><g class="plot tooltip-overlay" transform="translate(144, 46)"><g class="tooltip" style="opacity: 0" transform="translate(0 0)"><rect class="tooltip-box" height="0" rx="0" ry="0" width="0" /><g class="text" /></g></g><g class="legends" transform="translate(10, 56)"><g class="legend reactive activate-serie" id="activate-serie-0"><rect class="color-0 reactive" height="12" width="12" x="0.0" y="0.0" /><text x="17.0" y="9.0">Data</text></g><g class="legend reactive activate-serie" id="activate-serie-1"><rect class="color-1 reactive" height="12" width="12" x="0.0" y="18.0" /><text x="17.0" y="27.0">GMM</text></g><g class="legend reactive activate-serie" id="activate-serie-2"><rect class="color-2 reactive" height="12" width="12" x="0.0" y="36.0" /><text x="17.0" y="45.0">i=0</text></g><g class="legend reactive activate-serie" id="activate-serie-3"><rect class="color-3 reactive" height="12" width="12" x="0.0" y="54.0" /><text x="17.0" y="63.0">i=1</text></g><g class="legend reactive activate-serie" id="activate-serie-4"><rect class="color-4 reactive" height="12" width="12" x="0.0" y="72.0" /><text x="17.0" y="81.0">i=0 k=0</text></g><g class="legend reactive activate-serie" id="activate-serie-5"><rect class="color-5 reactive" height="12" width="12" x="0.0" y="90.0" /><text x="17.0" y="99.0">i=0 k=1</text></g><g class="legend reactive activate-serie" id="activate-serie-6"><rect class="color-6 reactive" height="12" width="12" x="0.0" y="108.0" /><text x="17.0" y="117.0">i=0 k=2</text></g><g class="legend reactive activate-serie" id="activate-serie-7"><rect class="color-7 reactive" height="12" width="12" x="0.0" y="126.0" /><text x="17.0" y="135.0">i=0 k=3</text></g><g class="legend reactive activate-serie" id="activate-serie-8"><rect class="color-8 reactive" height="12" width="12" x="0.0" y="144.0" /><text x="17.0" y="153.0">i=0 k=4</text></g><g class="legend reactive activate-serie" id="activate-serie-9"><rect class="color-9 reactive" height="12" width="12" x="0.0" y="162.0" /><text x="17.0" y="171.0">i=1 k=0</text></g><g class="legend reactive activate-serie" id="activate-serie-10"><rect class="color-10 reactive" height="12" width="12" x="0.0" y="180.0" /><text x="17.0" y="189.0">i=1 k=1</text></g><g class="legend reactive activate-serie" id="activate-serie-11"><rect class="color-11 reactive" height="12" width="12" x="0.0" y="198.0" /><text x="17.0" y="207.0">i=1 k=2</text></g><g class="legend reactive activate-serie" id="activate-serie-12"><rect class="color-12 reactive" height="12" width="12" x="0.0" y="216.0" /><text x="17.0" y="225.0">i=1 k=3</text></g><g class="legend reactive activate-serie" id="activate-serie-13"><rect class="color-13 reactive" height="12" width="12" x="0.0" y="234.0" /><text x="17.0" y="243.0">i=1 k=4</text></g></g><g class="legends" transform="translate(790, 56)" /></g></svg>