<?xml version='1.0' encoding='utf-8'?>
<svg xmlns:xlink="http://www.w3.org/1999/xlink" class="pygal-chart" id="chart-4082c77b-e53d-4001-8bac-ebe6373b810b" viewBox="0 0 800 600" xmlns="http://www.w3.org/2000/svg"><!--Generated with pygal 2.4.0 (etree) ©Kozea 2012-2016 on 2017-12-19--><!--http://pygal.org--><!--http://github.com/Kozea/pygal--><defs><style type="text/css">#chart-4082c77b-e53d-4001-8bac-ebe6373b810b{-webkit-user-select:none;-webkit-font-smoothing:antialiased;font-family:Consolas,"Liberation Mono",Menlo,Courier,monospace}#chart-4082c77b-e53d-4001-8bac-ebe6373b810b .title{font-family:Consolas,"Liberation Mono",Menlo,Courier,monospace;font-size:16px}#chart-4082c77b-e53d-4001-8bac-ebe6373b810b .legends .legend text{font-family:Consolas,"Liberation Mono",Menlo,Courier,monospace;font-size:10px}#chart-4082c77b-e53d-4001-8bac-ebe6373b810b .axis text{font-family:Consolas,"Liberation Mono",Menlo,Courier,monospace;font-size:10px}#chart-4082c77b-e53d-4001-8bac-ebe6373b810b .axis text.major{font-family:Consolas,"Liberation Mono",Menlo,Courier,monospace;font-size:10px}#chart-4082c77b-e53d-4001-8bac-ebe6373b810b .text-overlay text.value{font-family:Consolas,"Liberation Mono",Menlo,Courier,monospace;font-size:16px}#chart-4082c77b-e53d-4001-8bac-ebe6373b810b .text-overlay text.label{font-family:Consolas,"Liberation Mono",Menlo,Courier,monospace;font-size:10px}#chart-4082c77b-e53d-4001-8bac-ebe6373b810b .tooltip{font-family:Consolas,"Liberation Mono",Menlo,Courier,monospace;font-size:14px}#chart-4082c77b-e53d-4001-8bac-ebe6373b810b text.no_data{font-family:Consolas,"Liberation Mono",Menlo,Courier,monospace;font-size:64px}
#chart-4082c77b-e53d-4001-8bac-ebe6373b810b{background-color:rgba(249,249,249,1)}#chart-4082c77b-e53d-4001-8bac-ebe6373b810b path,#chart-4082c77b-e53d-4001-8bac-ebe6373b810b line,#chart-4082c77b-e53d-4001-8bac-ebe6373b810b rect,#chart-4082c77b-e53d-4001-8bac-ebe6373b810b circle{-webkit-transition:150ms;-moz-transition:150ms;transition:150ms}#chart-4082c77b-e53d-4001-8bac-ebe6373b810b .graph &gt; .background{fill:rgba(249,249,249,1)}#chart-4082c77b-e53d-4001-8bac-ebe6373b810b .plot &gt; .background{fill:rgba(255,255,255,1)}#chart-4082c77b-e53d-4001-8bac-ebe6373b810b .graph{fill:rgba(0,0,0,.87)}#chart-4082c77b-e53d-4001-8bac-ebe6373b810b text.no_data{fill:rgba(0,0,0,1)}#chart-4082c77b-e53d-4001-8bac-ebe6373b810b .title{fill:rgba(0,0,0,1)}#chart-4082c77b-e53d-4001-8bac-ebe6373b810b .legends .legend text{fill:rgba(0,0,0,.87)}#chart-4082c77b-e53d-4001-8bac-ebe6373b810b .legends .legend:hover text{fill:rgba(0,0,0,1)}#chart-4082c77b-e53d-4001-8bac-ebe6373b810b .axis .line{stroke:rgba(0,0,0,1)}#chart-4082c77b-e53d-4001-8bac-ebe6373b810b .axis .guide.line{stroke:rgba(0,0,0,.54)}#chart-4082c77b-e53d-4001-8bac-ebe6373b810b .axis .major.line{stroke:rgba(0,0,0,.87)}#chart-4082c77b-e53d-4001-8bac-ebe6373b810b .axis text.major{fill:rgba(0,0,0,1)}#chart-4082c77b-e53d-4001-8bac-ebe6373b810b .axis.y .guides:hover .guide.line,#chart-4082c77b-e53d-4001-8bac-ebe6373b810b .line-graph .axis.x .guides:hover .guide.line,#chart-4082c77b-e53d-4001-8bac-ebe6373b810b .stackedline-graph .axis.x .guides:hover .guide.line,#chart-4082c77b-e53d-4001-8bac-ebe6373b810b .xy-graph .axis.x .guides:hover .guide.line{stroke:rgba(0,0,0,1)}#chart-4082c77b-e53d-4001-8bac-ebe6373b810b .axis .guides:hover text{fill:rgba(0,0,0,1)}#chart-4082c77b-e53d-4001-8bac-ebe6373b810b .reactive{fill-opacity:.7;stroke-opacity:.8}#chart-4082c77b-e53d-4001-8bac-ebe6373b810b .ci{stroke:rgba(0,0,0,.87)}#chart-4082c77b-e53d-4001-8bac-ebe6373b810b .reactive.active,#chart-4082c77b-e53d-4001-8bac-ebe6373b810b .active .reactive{fill-opacity:.8;stroke-opacity:.9;stroke-width:4}#chart-4082c77b-e53d-4001-8bac-ebe6373b810b .ci .reactive.active{stroke-width:1.5}#chart-4082c77b-e53d-4001-8bac-ebe6373b810b .series text{fill:rgba(0,0,0,1)}#chart-4082c77b-e53d-4001-8bac-ebe6373b810b .tooltip rect{fill:rgba(255,255,255,1);stroke:rgba(0,0,0,1);-webkit-transition:opacity 150ms;-moz-transition:opacity 150ms;transition:opacity 150ms}#chart-4082c77b-e53d-4001-8bac-ebe6373b810b .tooltip .label{fill:rgba(0,0,0,.87)}#chart-4082c77b-e53d-4001-8bac-ebe6373b810b .tooltip .label{fill:rgba(0,0,0,.87)}#chart-4082c77b-e53d-4001-8bac-ebe6373b810b .tooltip .legend{font-size:.8em;fill:rgba(0,0,0,.54)}#chart-4082c77b-e53d-4001-8bac-ebe6373b810b .tooltip .x_label{font-size:.6em;fill:rgba(0,0,0,1)}#chart-4082c77b-e53d-4001-8bac-ebe6373b810b .tooltip .xlink{font-size:.5em;text-decoration:underline}#chart-4082c77b-e53d-4001-8bac-ebe6373b810b .tooltip .value{font-size:1.5em}#chart-4082c77b-e53d-4001-8bac-ebe6373b810b .bound{font-size:.5em}#chart-4082c77b-e53d-4001-8bac-ebe6373b810b .max-value{font-size:.75em;fill:rgba(0,0,0,.54)}#chart-4082c77b-e53d-4001-8bac-ebe6373b810b .map-element{fill:rgba(255,255,255,1);stroke:rgba(0,0,0,.54) !important}#chart-4082c77b-e53d-4001-8bac-ebe6373b810b .map-element .reactive{fill-opacity:inherit;stroke-opacity:inherit}#chart-4082c77b-e53d-4001-8bac-ebe6373b810b .color-0,#chart-4082c77b-e53d-4001-8bac-ebe6373b810b .color-0 a:visited{stroke:#909090;fill:#909090}#chart-4082c77b-e53d-4001-8bac-ebe6373b810b .color-1,#chart-4082c77b-e53d-4001-8bac-ebe6373b810b .color-1 a:visited{stroke:#000000;fill:#000000}#chart-4082c77b-e53d-4001-8bac-ebe6373b810b .color-2,#chart-4082c77b-e53d-4001-8bac-ebe6373b810b .color-2 a:visited{stroke:#ff0500;fill:#ff0500}#chart-4082c77b-e53d-4001-8bac-ebe6373b810b .color-3,#chart-4082c77b-e53d-4001-8bac-ebe6373b810b .color-3 a:visited{stroke:#323299;fill:#323299}#chart-4082c77b-e53d-4001-8bac-ebe6373b810b .color-4,#chart-4082c77b-e53d-4001-8bac-ebe6373b810b .color-4 a:visited{stroke:#a3413f;fill:#a3413f}#chart-4082c77b-e53d-4001-8bac-ebe6373b810b .color-5,#chart-4082c77b-e53d-4001-8bac-ebe6373b810b .color-5 a:visited{stroke:#a3413f;fill:#a3413f}#chart-4082c77b-e53d-4001-8bac-ebe6373b810b .color-6,#chart-4082c77b-e53d-4001-8bac-ebe6373b810b .color-6 a:visited{stroke:#a3413f;fill:#a3413f}#chart-4082c77b-e53d-4001-8bac-ebe6373b810b .color-7,#chart-4082c77b-e53d-4001-8bac-ebe6373b810b .color-7 a:visited{stroke:#a3413f;fill:#a3413f}#chart-4082c77b-e53d-4001-8bac-ebe6373b810b .color-8,#chart-4082c77b-e53d-4001-8bac-ebe6373b810b .color-8 a:visited{stroke:#a3413f;fill:#a3413f}#chart-4082c77b-e53d-4001-8bac-ebe6373b810b .color-9,#chart-4082c77b-e53d-4001-8bac-ebe6373b810b .color-9 a:visited{stroke:#657fff;fill:#657fff}#chart-4082c77b-e53d-4001-8bac-ebe6373b810b .color-10,#chart-4082c77b-e53d-4001-8bac-ebe6373b810b .color-10 a:visited{stroke:#657fff;fill:#657fff}#chart-4082c77b-e53d-4001-8bac-ebe6373b810b .color-11,#chart-4082c77b-e53d-4001-8bac-ebe6373b810b .color-11 a:visited{stroke:#657fff;fill:#657fff}#chart-4082c77b-e53d-4001-8bac-ebe6373b810b .color-12,#chart-4082c77b-e53d-4001-8bac-ebe6373b810b .color-12 a:visited{stroke:#657fff;fill:#657fff}#chart-4082c77b-e53d-4001-8bac-ebe6373b810b .color-13,#chart-4082c77b-e53d-4001-8bac-ebe6373b810b .color-13 a:visited{stroke:#657fff;fill:#657fff}#chart-4082c77b-e53d-4001-8bac-ebe6373b810b .text-overlay .color-0 text{fill:black}#chart-4082c77b-e53d-4001-8bac-ebe6373b810b .text-overlay .color-1 text{fill:white}#chart-4082c77b-e53d-4001-8bac-ebe6373b810b .text-overlay .color-2 text{fill:black}#chart-4082c77b-e53d-4001-8bac-ebe6373b810b .text-overlay .color-3 text{fill:black}#chart-4082c77b-e53d-4001-8bac-ebe6373b810b .text-overlay .color-4 text{fill:black}#chart-4082c77b-e53d-4001-8bac-ebe6373b810b .text-overlay .color-5 text{fill:black}#chart-4082c77b-e53d-4001-8bac-ebe6373b810b .text-overlay .color-6 text{fill:black}#chart-4082c77b-e53d-4001-8bac-ebe6373b810b .text-overlay .color-7 text{fill:black}#chart-4082c77b-e53d-4001-8bac-ebe6373b810b .text-overlay .color-8 text{fill:black}#chart-4082c77b-e53d-4001-8bac-ebe6373b810b .text-overlay .color-9 text{fill:black}#chart-4082c77b-e53d-4001-8bac-ebe6373b810b .text-overlay .color-10 text{fill:black}#chart-4082c77b-e53d-4001-8bac-ebe6373b810b .text-overlay .color-11 text{fill:black}#chart-4082c77b-e53d-4001-8bac-ebe6373b810b .text-overlay .color-12 text{fill:black}#chart-4082c77b-e53d-4001-8bac-ebe6373b810b .text-overlay .color-13 text{fill:black}#chart-4082c77b-e53d-4001-8bac-ebe6373b810b .series.serie-1{stroke-width:5}#chart-4082c77b-e53d-4001-8bac-ebe6373b810b .series.serie-2{stroke-width:3}#chart-4082c77b-e53d-4001-8bac-ebe6373b810b .series.serie-3{stroke-width:3}#chart-4082c77b-e53d-4001-8bac-ebe6373b810b .series.serie-4{stroke-width:2;stroke-dasharray:2,2}#chart-4082c77b-e53d-4001-8bac-ebe6373b810b .series.serie-5{stroke-width:2;stroke-dasharray:2,2}#chart-4082c77b-e53d-4001-8bac-ebe6373b810b .series.serie-6{stroke-width:2;stroke-dasharray:2,2}#chart-4082c77b-e53d-4001-8bac-ebe6373b810b .series.serie-7{stroke-width:2;stroke-dasharray:2,2}#chart-4082c77b-e53d-4001-8bac-ebe6373b810b .series.serie-8{stroke-width:2;stroke-dasharray:2,2}#chart-4082c77b-e53d-4001-8bac-ebe6373b810b .series.serie-9{stroke-width:2;stroke-dasharray:2,2}#chart-4082c77b-e53d-4001-8bac-ebe6373b810b .series.serie-10{stroke-width:2;stroke-dasharray:2,2}#chart-4082c77b-e53d-4001-8bac-ebe6373b810b .series.serie-11{stroke-width:2;stroke-dasharray:2,2}#chart-4082c77b-e53d-4001-8bac-ebe6373b810b .series.serie-12{stroke-width:2;stroke-dasharray:2,2}#chart-4082c77b-e53d-4001-8bac-ebe6373b810b .series.serie-13{stroke-width:2;stroke-dasharray:2,2}
#chart-4082c77b-e53d-4001-8bac-ebe6373b810b text.no_data{text-anchor:middle}#chart-4082c77b-e53d-4001-8bac-ebe6373b810b .guide.line{fill:none}#chart-4082c77b-e53d-4001-8bac-ebe6373b810b .centered{text-anchor:middle}#chart-4082c77b-e53d-4001-8bac-ebe6373b810b .title{text-anchor:middle}#chart-4082c77b-e53d-4001-8bac-ebe6373b810b .legends .legend text{fill-opacity:1}#chart-4082c77b-e53d-4001-8bac-ebe6373b810b .axis.x text{text-anchor:middle}#chart-4082c77b-e53d-4001-8bac-ebe6373b810b .axis.x:not(.web) text[transform]{text-anchor:start}#chart-4082c77b-e53d-4001-8bac-ebe6373b810b .axis.x:not(.web) text[transform].backwards{text-anchor:end}#chart-4082c77b-e53d-4001-8bac-ebe6373b810b .axis.y text{text-anchor:end}#chart-4082c77b-e53d-4001-8bac-ebe6373b810b .axis.y text[transform].backwards{text-anchor:start}#chart-4082c77b-e53d-4001-8bac-ebe6373b810b .axis.y2 text{text-anchor:start}#chart-4082c77b-e53d-4001-8bac-ebe6373b810b .axis.y2 text[transform].backwards{text-anchor:end}#chart-4082c77b-e53d-4001-8bac-ebe6373b810b .axis .guide.line{stroke-dasharray:4,4}#chart-4082c77b-e53d-4001-8bac-ebe6373b810b .axis .major.guide.line{stroke-dasharray:6,6}#chart-4082c77b-e53d-4001-8bac-ebe6373b810b .horizontal .axis.y .guide.line,#chart-4082c77b-e53d-4001-8bac-ebe6373b810b .horizontal .axis.y2 .guide.line,#chart-4082c77b-e53d-4001-8bac-ebe6373b810b .vertical .axis.x .guide.line{opacity:0}#chart-4082c77b-e53d-4001-8bac-ebe6373b810b .horizontal .axis.always_show .guide.line,#chart-4082c77b-e53d-4001-8bac-ebe6373b810b .vertical .axis.always_show .guide.line{opacity:1 !important}#chart-4082c77b-e53d-4001-8bac-ebe6373b810b .axis.y .guides:hover .guide.line,#chart-4082c77b-e53d-4001-8bac-ebe6373b810b .axis.y2 .guides:hover .guide.line,#chart-4082c77b-e53d-4001-8bac-ebe6373b810b .axis.x .guides:hover .guide.line{opacity:1}#chart-4082c77b-e53d-4001-8bac-ebe6373b810b .axis .guides:hover text{opacity:1}#chart-4082c77b-e53d-4001-8bac-ebe6373b810b .nofill{fill:none}#chart-4082c77b-e53d-4001-8bac-ebe6373b810b .subtle-fill{fill-opacity:.2}#chart-4082c77b-e53d-4001-8bac-ebe6373b810b .dot{stroke-width:1px;fill-opacity:1}#chart-4082c77b-e53d-4001-8bac-ebe6373b810b .dot.active{stroke-width:5px}#chart-4082c77b-e53d-4001-8bac-ebe6373b810b .dot.negative{fill:transparent}#chart-4082c77b-e53d-4001-8bac-ebe6373b810b text,#chart-4082c77b-e53d-4001-8bac-ebe6373b810b tspan{stroke:none !important}#chart-4082c77b-e53d-4001-8bac-ebe6373b810b .series text.active{opacity:1}#chart-4082c77b-e53d-4001-8bac-ebe6373b810b .tooltip rect{fill-opacity:.95;stroke-width:.5}#chart-4082c77b-e53d-4001-8bac-ebe6373b810b .tooltip text{fill-opacity:1}#chart-4082c77b-e53d-4001-8bac-ebe6373b810b .showable{visibility:hidden}#chart-4082c77b-e53d-4001-8bac-ebe6373b810b .showable.shown{visibility:visible}#chart-4082c77b-e53d-4001-8bac-ebe6373b810b .gauge-background{fill:rgba(229,229,229,1);stroke:none}#chart-4082c77b-e53d-4001-8bac-ebe6373b810b .bg-lines{stroke:rgba(249,249,249,1);stroke-width:2px}</style><script type="text/javascript">window.pygal = window.pygal || {};window.pygal.config = window.pygal.config || {};window.pygal.config['4082c77b-e53d-4001-8bac-ebe6373b810b'] = {"css": ["file://style.css", "file://graph.css"], "include_x_axis": false, "min_scale": 4, "print_zeroes": true, "show_x_labels": true, "stroke": true, "show_minor_y_labels": true, "inner_radius": 0, "fill": false, "pretty_print": false, "js": ["//kozea.github.io/pygal.js/2.0.x/pygal-tooltips.min.js"], "x_labels": ["-8.96", "-8.76", "-8.56", "-8.36", "-8.16", "-7.96", "-7.76", "-7.56", "-7.36", "-7.16", "-6.96", "-6.76", "-6.56", "-6.36", "-6.16", "-5.96", "-5.76", "-5.56", "-5.36", "-5.16", "-4.96", "-4.76", "-4.56", "-4.36", "-4.16", "-3.96", "-3.76", "-3.56", "-3.36", "-3.16", "-2.96", "-2.76", "-2.56", "-2.36", "-2.16", "-1.96", "-1.76", "-1.56", "-1.36", "-1.16", "-0.96", "-0.76", "-0.56", "-0.36", "-0.16", "0.04", "0.24", "0.44", "0.64", "0.84", "1.04", "1.24", "1.43", "1.63", "1.83", "2.03", "2.23", "2.43", "2.63", "2.83"], "logarithmic": false, "show_minor_x_labels": false, "formatter": null, "tooltip_fancy_mode": true, "defs": [], "stroke_style": null, "spacing": 10, "show_only_major_dots": false, "half_pie": false, "show_legend": true, "dynamic_print_values": false, "max_scale": 16, "explicit_size": false, "y_label_rotation": 0, "y_labels": null, "x_labels_major": null, "margin_top": null, "interpolation_precision": 250, "xrange": null, "order_min": null, "y_title": "Density", "title": "Iteration #4", "x_label_rotation": 60, "interpolation_parameters": {}, "stack_from_top": false, "truncate_legend": null, "x_title": "Observation", "show_y_guides": true, "no_prefix": false, "print_values_position": "center", "show_y_labels": true, "classes": ["pygal-chart"], "force_uri_protocol": "https", "x_labels_major_count": null, "allow_interruptions": false, "width": 800, "height": 600, "secondary_range": null, "box_mode": "extremes", "margin_left": null, "y_labels_major": null, "margin_right": null, "zero": 0, "dots_size": 2.5, "no_data_text": "No data", "show_dots": false, "range": [0, 0.27578580090479526], "truncate_label": null, "margin_bottom": null, "y_labels_major_every": null, "show_x_guides": false, "disable_xml_declaration": false, "print_values": false, "x_labels_major_every": 2, "print_labels": false, "y_labels_major_count": null, "interpolate": null, "legend_at_bottom": false, "style": {"value_font_size": 16, "tooltip_font_family": "Consolas, \"Liberation Mono\", Menlo, Courier, monospace", "major_label_font_family": "Consolas, \"Liberation Mono\", Menlo, Courier, monospace", "value_colors": [], "value_background": "rgba(229, 229, 229, 1)", "foreground_strong": "rgba(0, 0, 0, 1)", "opacity": ".7", "font_family": "Consolas, \"Liberation Mono\", Menlo, Courier, monospace", "label_font_size": 10, "transition": "150ms", "title_font_family": "Consolas, \"Liberation Mono\", Menlo, Courier, monospace", "background": "rgba(249, 249, 249, 1)", "stroke_opacity": ".8", "no_data_font_size": 64, "value_label_font_family": "Consolas, \"Liberation Mono\", Menlo, Courier, monospace", "value_label_font_size": 10, "value_font_family": "Consolas, \"Liberation Mono\", Menlo, Courier, monospace", "plot_background": "rgba(255, 255, 255, 1)", "colors": ["#909090", "#000000", "#ff0500", "#323299", "#a3413f", "#a3413f", "#a3413f", "#a3413f", "#a3413f", "#657fff", "#657fff", "#657fff", "#657fff", "#657fff"], "legend_font_size": 10, "guide_stroke_dasharray": "4,4", "major_label_font_size": 10, "stroke_opacity_hover": ".9", "major_guide_stroke_dasharray": "6,6", "opacity_hover": ".8", "no_data_font_family": "Consolas, \"Liberation Mono\", Menlo, Courier, monospace", "title_font_size": 16, "ci_colors": [], "foreground": "rgba(0, 0, 0, .87)", "foreground_subtle": "rgba(0, 0, 0, .54)", "legend_font_family": "Consolas, \"Liberation Mono\", Menlo, Courier, monospace", "label_font_family": "Consolas, \"Liberation Mono\", Menlo, Courier, monospace", "tooltip_font_size": 14}, "strict": false, "legend_box_size": 12, "tooltip_border_radius": 0, "margin": 20, "legends": ["Data", "GMM", "i=0", "i=1", "i=0 k=0", "i=0 k=1", "i=0 k=2", "i=0 k=3", "i=0 k=4", "i=1 k=0", "i=1 k=1", "i=1 k=2", "i=1 k=3", "i=1 k=4"], "inverse_y_axis": false, "legend_at_bottom_columns": null, "rounded_bars": null, "missing_value_fill_truncation": "x"}</script><script type="text/javascript" xlink:href="https://kozea.github.io/pygal.js/2.0.x/pygal-tooltips.min.js" /></defs><title>Iteration #4</title><g class="graph line-graph vertical"><rect class="background" height="600" width="800" x="0" y="0" /><g class="plot" transform="translate(144, 46)"><rect class="background" height="472.01923788646684" width="636.0" x="0" y="0" /><g class="axis y always_show"><g class="guides"><path class="axis major line" d="M0.000000 462.941945 h636.000000" /><text class="major" x="-5" y="466.44194485">0</text><title>0</title></g><g class="guides"><path class="guide line" d="M0.000000 430.027658 h636.000000" /><text class="" x="-5" y="433.527657724">0.02</text><title>0.02</title></g><g class="guides"><path class="guide line" d="M0.000000 397.113371 h636.000000" /><text class="" x="-5" y="400.613370598">0.04</text><title>0.04</title></g><g class="guides"><path class="guide line" d="M0.000000 364.199083 h636.000000" /><text class="" x="-5" y="367.699083472">0.06</text><title>0.06</title></g><g class="guides"><path class="guide line" d="M0.000000 331.284796 h636.000000" /><text class="" x="-5" y="334.784796346">0.08</text><title>0.08</title></g><g class="guides"><path class="guide line" d="M0.000000 298.370509 h636.000000" /><text class="" x="-5" y="301.87050922">0.1</text><title>0.1</title></g><g class="guides"><path class="guide line" d="M0.000000 265.456222 h636.000000" /><text class="" x="-5" y="268.956222094">0.12</text><title>0.12</title></g><g class="guides"><path class="guide line" d="M0.000000 232.541935 h636.000000" /><text class="" x="-5" y="236.041934968">0.14</text><title>0.14</title></g><g class="guides"><path class="guide line" d="M0.000000 199.627648 h636.000000" /><text class="" x="-5" y="203.127647841">0.16</text><title>0.16</title></g><g class="guides"><path class="guide line" d="M0.000000 166.713361 h636.000000" /><text class="" x="-5" y="170.213360715">0.18</text><title>0.18</title></g><g class="guides"><path class="guide line" d="M0.000000 133.799074 h636.000000" /><text class="" x="-5" y="137.299073589">0.2</text><title>0.2</title></g><g class="guides"><path class="guide line" d="M0.000000 100.884786 h636.000000" /><text class="" x="-5" y="104.384786463">0.22</text><title>0.22</title></g><g class="guides"><path class="guide line" d="M0.000000 67.970499 h636.000000" /><text class="" x="-5" y="71.4704993371">0.24</text><title>0.24</title></g><g class="guides"><path class="guide line" d="M0.000000 35.056212 h636.000000" /><text class="" x="-5" y="38.5562122111">0.26</text><title>0.26</title></g></g><g class="axis x"><g class="guides"><path class="major line" d="M12.230769 0.000000 v472.019238" /><text class="major" transform="rotate(60 12.230769 487.019238)" x="12.230769230769232" y="487.01923788646684">-8.96</text></g><g class="guides"><path class="major guide line" d="M32.960887 0.000000 v472.019238" /><text class="major" transform="rotate(60 32.960887 487.019238)" x="32.96088657105606" y="487.01923788646684">-8.56</text></g><g class="guides"><path class="major guide line" d="M53.691004 0.000000 v472.019238" /><text class="major" transform="rotate(60 53.691004 487.019238)" x="53.6910039113429" y="487.01923788646684">-8.16</text></g><g class="guides"><path class="major guide line" d="M74.421121 0.000000 v472.019238" /><text class="major" transform="rotate(60 74.421121 487.019238)" x="74.42112125162973" y="487.01923788646684">-7.76</text></g><g class="guides"><path class="major guide line" d="M95.151239 0.000000 v472.019238" /><text class="major" transform="rotate(60 95.151239 487.019238)" x="95.15123859191655" y="487.01923788646684">-7.36</text></g><g class="guides"><path class="major guide line" d="M115.881356 0.000000 v472.019238" /><text class="major" transform="rotate(60 115.881356 487.019238)" x="115.88135593220338" y="487.01923788646684">-6.96</text></g><g class="guides"><path class="major guide line" d="M136.611473 0.000000 v472.019238" /><text class="major" transform="rotate(60 136.611473 487.019238)" x="136.61147327249023" y="487.01923788646684">-6.56</text></g><g class="guides"><path class="major guide line" d="M157.341591 0.000000 v472.019238" /><text class="major" transform="rotate(60 157.341591 487.019238)" x="157.34159061277705" y="487.01923788646684">-6.16</text></g><g class="guides"><path class="major guide line" d="M178.071708 0.000000 v472.019238" /><text class="major" transform="rotate(60 178.071708 487.019238)" x="178.0717079530639" y="487.01923788646684">-5.76</text></g><g class="guides"><path class="major guide line" d="M198.801825 0.000000 v472.019238" /><text class="major" transform="rotate(60 198.801825 487.019238)" x="198.80182529335073" y="487.01923788646684">-5.36</text></g><g class="guides"><path class="major guide line" d="M219.531943 0.000000 v472.019238" /><text class="major" transform="rotate(60 219.531943 487.019238)" x="219.53194263363756" y="487.01923788646684">-4.96</text></g><g class="guides"><path class="major guide line" d="M240.262060 0.000000 v472.019238" /><text class="major" transform="rotate(60 240.262060 487.019238)" x="240.2620599739244" y="487.01923788646684">-4.56</text></g><g class="guides"><path class="major guide line" d="M260.992177 0.000000 v472.019238" /><text class="major" transform="rotate(60 260.992177 487.019238)" x="260.99217731421123" y="487.01923788646684">-4.16</text></g><g class="guides"><path class="major guide line" d="M281.722295 0.000000 v472.019238" /><text class="major" transform="rotate(60 281.722295 487.019238)" x="281.722294654498" y="487.01923788646684">-3.76</text></g><g class="guides"><path class="major guide line" d="M302.452412 0.000000 v472.019238" /><text class="major" transform="rotate(60 302.452412 487.019238)" x="302.4524119947849" y="487.01923788646684">-3.36</text></g><g class="guides"><path class="major guide line" d="M323.182529 0.000000 v472.019238" /><text class="major" transform="rotate(60 323.182529 487.019238)" x="323.1825293350717" y="487.01923788646684">-2.96</text></g><g class="guides"><path class="major guide line" d="M343.912647 0.000000 v472.019238" /><text class="major" transform="rotate(60 343.912647 487.019238)" x="343.91264667535853" y="487.01923788646684">-2.56</text></g><g class="guides"><path class="major guide line" d="M364.642764 0.000000 v472.019238" /><text class="major" transform="rotate(60 364.642764 487.019238)" x="364.64276401564535" y="487.01923788646684">-2.16</text></g><g class="guides"><path class="major guide line" d="M385.372881 0.000000 v472.019238" /><text class="major" transform="rotate(60 385.372881 487.019238)" x="385.37288135593224" y="487.01923788646684">-1.76</text></g><g class="guides"><path class="major guide line" d="M406.102999 0.000000 v472.019238" /><text class="major" transform="rotate(60 406.102999 487.019238)" x="406.102998696219" y="487.01923788646684">-1.36</text></g><g class="guides"><path class="major guide line" d="M426.833116 0.000000 v472.019238" /><text class="major" transform="rotate(60 426.833116 487.019238)" x="426.8331160365058" y="487.01923788646684">-0.96</text></g><g class="guides"><path class="major guide line" d="M447.563233 0.000000 v472.019238" /><text class="major" transform="rotate(60 447.563233 487.019238)" x="447.56323337679265" y="487.01923788646684">-0.56</text></g><g class="guides"><path class="major guide line" d="M468.293351 0.000000 v472.019238" /><text class="major" transform="rotate(60 468.293351 487.019238)" x="468.29335071707953" y="487.01923788646684">-0.16</text></g><g class="guides"><path class="major guide line" d="M489.023468 0.000000 v472.019238" /><text class="major" transform="rotate(60 489.023468 487.019238)" x="489.02346805736636" y="487.01923788646684">0.24</text></g><g class="guides"><path class="major guide line" d="M509.753585 0.000000 v472.019238" /><text class="major" transform="rotate(60 509.753585 487.019238)" x="509.75358539765324" y="487.01923788646684">0.64</text></g><g class="guides"><path class="major guide line" d="M530.483703 0.000000 v472.019238" /><text class="major" transform="rotate(60 530.483703 487.019238)" x="530.48370273794" y="487.01923788646684">1.04</text></g><g class="guides"><path class="major guide line" d="M551.213820 0.000000 v472.019238" /><text class="major" transform="rotate(60 551.213820 487.019238)" x="551.213820078227" y="487.01923788646684">1.43</text></g><g class="guides"><path class="major guide line" d="M571.943937 0.000000 v472.019238" /><text class="major" transform="rotate(60 571.943937 487.019238)" x="571.9439374185138" y="487.01923788646684">1.83</text></g><g class="guides"><path class="major guide line" d="M592.674055 0.000000 v472.019238" /><text class="major" transform="rotate(60 592.674055 487.019238)" x="592.6740547588006" y="487.01923788646684">2.23</text></g><g class="guides"><path class="major guide line" d="M613.404172 0.000000 v472.019238" /><text class="major" transform="rotate(60 613.404172 487.019238)" x="613.4041720990874" y="487.01923788646684">2.63</text></g></g><g class="series serie-0 color-0"><path class="line reactive" d="M12.230769 462.941945 L12.230769 462.019456 22.595828 462.941945 32.960887 461.096967 43.325945 462.019456 53.691004 459.251988 64.056063 462.019456 74.421121 458.329499 84.786180 462.019456 95.151239 458.329499 105.516297 462.019456 115.881356 448.182119 126.246415 460.174477 136.611473 457.407010 146.976532 457.407010 157.341591 451.872075 167.706649 448.182119 178.071708 454.639543 188.436767 445.414651 198.801825 442.647184 209.166884 436.189760 219.531943 437.112249 229.897001 392.832771 240.262060 396.522728 250.627119 376.227967 260.992177 355.933206 271.357236 351.320760 281.722295 325.491065 292.087353 277.521630 302.452412 283.056565 312.817471 202.800010 323.182529 188.040184 333.547588 169.590402 343.912647 123.465945 354.277705 95.791271 364.642764 67.194108 375.007823 82.876423 385.372881 60.736684 395.737940 80.108956 406.102999 29.372054 416.468057 9.077293 426.833116 70.884065 437.198175 69.039086 447.563233 41.364413 457.928292 40.441923 468.293351 91.178826 478.658409 140.993239 489.023468 214.792369 499.388527 259.071847 509.753585 321.801108 520.118644 364.235608 530.483703 408.515086 540.848761 430.654825 551.213820 448.182119 561.578879 455.562032 571.943937 458.329499 582.308996 458.329499 592.674055 462.019456 603.039113 462.941945 613.404172 462.019456 623.769231 462.941945" /></g><g class="series serie-1 color-1"><path class="line reactive nofill" d="M12.230769 462.890696 L22.595828 462.858501 32.960887 462.808364 43.325945 462.731687 53.691004 462.616539 64.056063 462.446745 74.421121 462.200901 84.786180 461.851381 95.151239 461.363401 105.516297 460.694262 115.881356 459.792813 126.246415 458.599183 136.611473 457.044700 146.976532 455.051786 157.341591 452.533493 167.706649 449.392169 178.071708 445.516777 188.436767 440.778480 198.801825 435.024565 209.166884 428.071437 219.531943 419.698399 229.897001 409.645018 240.262060 397.615818 250.627119 383.296519 260.992177 366.385664 271.357236 346.643811 281.722295 323.959317 292.087353 298.424829 302.452412 270.412106 312.817471 240.625284 323.182529 210.105935 333.547588 180.160709 343.912647 152.189951 354.277705 127.420179 364.642764 106.588395 375.007823 89.683540 385.372881 75.893299 395.737940 63.889713 406.102999 52.478456 416.468057 41.443424 426.833116 32.223895 437.198175 28.002199 447.563233 32.959859 457.928292 50.849115 468.293351 83.429552 478.658409 129.478392 489.023468 184.860162 499.388527 243.640693 509.753585 299.743034 520.118644 348.447131 530.483703 387.208325 540.848761 415.659517 551.213820 435.020563 561.578879 447.295845 571.943937 454.584668 582.308996 458.661568 592.674055 460.824300 603.039113 461.921219 613.404172 462.458151 623.769231 462.714456" /></g><g class="series serie-2 color-2"><path class="line reactive nofill" d="M12.230769 462.941945 L22.595828 462.941945 32.960887 462.941945 43.325945 462.941945 53.691004 462.941945 64.056063 462.941945 74.421121 462.941945 84.786180 462.941945 95.151239 462.941945 105.516297 462.941945 115.881356 462.941945 126.246415 462.941945 136.611473 462.941944 146.976532 462.941944 157.341591 462.941942 167.706649 462.941936 178.071708 462.941922 188.436767 462.941887 198.801825 462.941802 209.166884 462.941601 219.531943 462.941143 229.897001 462.940127 240.262060 462.937931 250.627119 462.933293 260.992177 462.923678 271.357236 462.904033 281.722295 462.864271 292.087353 462.784180 302.452412 462.623257 312.817471 462.301052 323.182529 461.661517 333.547588 460.413995 343.912647 458.047760 354.277705 453.731365 364.642764 446.236030 375.007823 433.958468 385.372881 415.141643 395.737940 388.366649 406.102999 353.285267 416.468057 311.392390 426.833116 266.479188 437.198175 224.387336 447.563233 191.893220 457.928292 174.948077 468.293351 176.888084 478.658409 197.355337 489.023468 232.410547 499.388527 275.787336 509.753585 320.735693 520.118644 361.708016 530.483703 395.328200 540.848761 420.492668 551.213820 437.827493 561.578879 448.893827 571.943937 455.481315 582.308996 459.160388 592.674055 461.101000 603.039113 462.074969 613.404172 462.543965 623.769231 462.762589" /></g><g class="series serie-3 color-3"><path class="line reactive nofill" d="M12.230769 462.890696 L22.595828 462.858501 32.960887 462.808364 43.325945 462.731687 53.691004 462.616539 64.056063 462.446745 74.421121 462.200901 84.786180 461.851381 95.151239 461.363401 105.516297 460.694262 115.881356 459.792813 126.246415 458.599184 136.611473 457.044700 146.976532 455.051787 157.341591 452.533496 167.706649 449.392178 178.071708 445.516799 188.436767 440.778538 198.801825 435.024708 209.166884 428.071781 219.531943 419.699201 229.897001 409.646836 240.262060 397.619831 250.627119 383.305172 260.992177 366.403932 271.357236 346.681723 281.722295 324.036991 292.087353 298.582594 302.452412 270.730795 312.817471 241.266177 323.182529 211.386363 333.547588 182.688659 343.912647 157.084135 354.277705 136.630759 364.642764 123.294310 375.007823 118.667017 385.372881 123.693600 395.737940 138.465009 406.102999 162.135134 416.468057 192.992978 426.833116 228.686652 437.198175 266.556808 447.563233 304.008583 457.928292 338.842983 468.293351 369.483413 478.658409 395.065000 489.023468 415.391560 499.388527 430.795302 509.753585 441.949285 520.118644 449.681060 530.483703 454.822069 540.848761 458.108794 551.213820 460.135015 561.578879 461.343963 571.943937 462.045298 582.308996 462.443125 592.674055 462.665246 603.039113 462.788195 613.404172 462.856131 623.769231 462.893812" /></g><g class="series serie-4 color-4"><path class="line reactive nofill" d="M12.230769 462.941945 L22.595828 462.941945 32.960887 462.941945 43.325945 462.941945 53.691004 462.941945 64.056063 462.941945 74.421121 462.941945 84.786180 462.941945 95.151239 462.941945 105.516297 462.941945 115.881356 462.941945 126.246415 462.941945 136.611473 462.941945 146.976532 462.941945 157.341591 462.941945 167.706649 462.941945 178.071708 462.941945 188.436767 462.941945 198.801825 462.941945 209.166884 462.941945 219.531943 462.941945 229.897001 462.941944 240.262060 462.941938 250.627119 462.941914 260.992177 462.941811 271.357236 462.941405 281.722295 462.939929 292.087353 462.934944 302.452412 462.919367 312.817471 462.874303 323.182529 462.753707 333.547588 462.455354 343.912647 461.773561 354.277705 460.335961 364.642764 457.542831 375.007823 452.551407 385.372881 444.367401 395.737940 432.098495 406.102999 415.367647 416.468057 394.779295 426.833116 372.225673 437.198175 350.794710 447.563233 334.159522 457.928292 325.572780 468.293351 326.833029 478.658409 337.671525 489.023468 355.845479 499.388527 377.893496 509.753585 400.205155 520.118644 419.954380 530.483703 435.581193 540.848761 446.765694 551.213820 454.058276 561.578879 458.410137 571.943937 460.794533 582.308996 461.996745 592.674055 462.555492 603.039113 462.795176 613.404172 462.890168 623.769231 462.924978" /></g><g class="series serie-5 color-5"><path class="line reactive nofill" d="M12.230769 462.941945 L22.595828 462.941945 32.960887 462.941945 43.325945 462.941945 53.691004 462.941945 64.056063 462.941945 74.421121 462.941945 84.786180 462.941945 95.151239 462.941945 105.516297 462.941945 115.881356 462.941945 126.246415 462.941945 136.611473 462.941945 146.976532 462.941945 157.341591 462.941945 167.706649 462.941945 178.071708 462.941945 188.436767 462.941945 198.801825 462.941945 209.166884 462.941945 219.531943 462.941944 229.897001 462.941943 240.262060 462.941935 250.627119 462.941901 260.992177 462.941771 271.357236 462.941301 281.722295 462.939720 292.087353 462.934772 302.452412 462.920356 312.817471 462.881287 323.182529 462.782848 333.547588 462.552402 343.912647 462.051592 354.277705 461.042244 364.642764 459.158185 375.007823 455.906730 385.372881 450.731076 395.737940 443.157168 406.102999 433.017151 416.468057 420.690012 426.833116 407.251921 437.198175 394.420953 447.563233 384.240033 457.928292 378.557511 468.293351 378.481221 478.658409 384.026379 489.023468 394.110648 499.388527 406.898523 509.753585 420.344971 520.118644 432.718201 530.483703 442.923369 540.848761 450.564429 551.213820 455.797817 561.578879 459.092657 571.943937 461.005849 582.308996 462.032892 592.674055 462.543502 603.039113 462.778918 613.404172 462.879677 623.769231 462.919743" /></g><g class="series serie-6 color-6"><path class="line reactive nofill" d="M12.230769 462.941945 L22.595828 462.941945 32.960887 462.941945 43.325945 462.941945 53.691004 462.941945 64.056063 462.941945 74.421121 462.941945 84.786180 462.941945 95.151239 462.941945 105.516297 462.941945 115.881356 462.941945 126.246415 462.941945 136.611473 462.941945 146.976532 462.941945 157.341591 462.941945 167.706649 462.941945 178.071708 462.941945 188.436767 462.941945 198.801825 462.941945 209.166884 462.941944 219.531943 462.941940 229.897001 462.941926 240.262060 462.941876 250.627119 462.941713 260.992177 462.941208 271.357236 462.939729 281.722295 462.935662 292.087353 462.925139 302.452412 462.899530 312.817471 462.840953 323.182529 462.715077 333.547588 462.461126 343.912647 461.980533 354.277705 461.128277 364.642764 459.713998 375.007823 457.521746 385.372881 454.355286 395.737940 450.108202 406.102999 444.845109 416.468057 438.866621 426.833116 432.724216 437.198175 427.159363 447.563233 422.965727 457.928292 420.806080 468.293351 421.041147 478.658409 423.631056 489.023468 428.146403 499.388527 433.884693 509.753585 440.048791 520.118644 445.925183 530.483703 451.008430 540.848761 455.046438 551.213820 458.013478 561.578879 460.039501 571.943937 461.329310 582.308996 462.096611 592.674055 462.523883 603.039113 462.746882 613.404172 462.856078 623.769231 462.906283" /></g><g class="series serie-7 color-7"><path class="line reactive nofill" d="M12.230769 462.941945 L22.595828 462.941945 32.960887 462.941945 43.325945 462.941945 53.691004 462.941945 64.056063 462.941945 74.421121 462.941945 84.786180 462.941945 95.151239 462.941945 105.516297 462.941945 115.881356 462.941945 126.246415 462.941945 136.611473 462.941945 146.976532 462.941945 157.341591 462.941945 167.706649 462.941945 178.071708 462.941944 188.436767 462.941942 198.801825 462.941937 209.166884 462.941920 219.531943 462.941872 229.897001 462.941735 240.262060 462.941373 250.627119 462.940457 260.992177 462.938246 271.357236 462.933166 281.722295 462.922057 292.087353 462.898935 302.452412 462.853154 312.817471 462.766965 323.182529 462.612766 333.547588 462.350795 343.912647 461.928536 354.277705 461.283527 364.642764 460.351194 375.007823 459.078460 385.372881 457.442042 395.737940 455.467950 406.102999 453.246389 416.468057 450.935492 426.833116 448.748794 437.198175 446.925542 447.563233 445.688601 457.928292 445.199902 468.293351 445.525638 478.658409 446.621551 489.023468 448.342805 499.388527 450.475404 509.753585 452.779767 520.118644 455.034254 530.483703 457.067935 540.848761 458.776688 551.213820 460.122452 561.578879 461.120055 571.943937 461.818128 582.308996 462.280199 592.674055 462.569974 603.039113 462.742351 613.404172 462.839707 623.769231 462.891954" /></g><g class="series serie-8 color-8"><path class="line reactive nofill" d="M12.230769 462.941945 L22.595828 462.941945 32.960887 462.941945 43.325945 462.941945 53.691004 462.941945 64.056063 462.941945 74.421121 462.941945 84.786180 462.941945 95.151239 462.941945 105.516297 462.941945 115.881356 462.941945 126.246415 462.941945 136.611473 462.941944 146.976532 462.941944 157.341591 462.941942 167.706649 462.941936 178.071708 462.941923 188.436767 462.941889 198.801825 462.941810 209.166884 462.941627 219.531943 462.941222 229.897001 462.940359 240.262060 462.938588 250.627119 462.935087 260.992177 462.928422 271.357236 462.916211 281.722295 462.894682 292.087353 462.858170 302.452412 462.798629 312.817471 462.705323 323.182529 462.564899 333.547588 462.362096 343.912647 462.081317 354.277705 461.709136 364.642764 461.237602 375.007823 460.667904 385.372881 460.013617 395.737940 459.302614 406.102999 458.576749 416.468057 457.888750 426.833116 457.296363 437.198175 456.854547 447.563233 456.607116 457.928292 456.579583 468.293351 456.774829 478.658409 457.172605 489.023468 457.732992 499.388527 458.402999 509.753585 459.124789 520.118644 459.843777 530.483703 460.515053 540.848761 461.107198 551.213820 461.603249 561.578879 461.999256 571.943937 462.301274 582.308996 462.521720 592.674055 462.675928 603.039113 462.779421 613.404172 462.846114 623.769231 462.887410" /></g><g class="series serie-9 color-9"><path class="line reactive nofill" d="M12.230769 462.941945 L22.595828 462.941945 32.960887 462.941945 43.325945 462.941945 53.691004 462.941945 64.056063 462.941945 74.421121 462.941945 84.786180 462.941945 95.151239 462.941945 105.516297 462.941945 115.881356 462.941944 126.246415 462.941942 136.611473 462.941934 146.976532 462.941909 157.341591 462.941833 167.706649 462.941617 178.071708 462.941025 188.436767 462.939480 198.801825 462.935632 209.166884 462.926503 219.531943 462.905856 229.897001 462.861373 240.262060 462.770094 250.627119 462.591779 260.992177 462.260316 271.357236 461.674368 281.722295 460.690025 292.087353 459.120004 302.452412 456.745143 312.817471 453.343438 323.182529 448.738547 333.547588 442.863354 343.912647 435.825878 354.277705 427.957691 364.642764 419.822715 375.007823 412.170229 385.372881 405.830237 395.737940 401.568442 406.102999 399.934896 416.468057 401.147444 426.833116 405.044022 437.198175 411.118224 447.563233 418.627362 457.928292 426.741225 468.293351 434.690530 478.658409 441.879166 489.023468 447.940138 499.388527 452.734337 509.753585 456.306702 520.118644 458.821519 530.483703 460.497502 540.848761 461.556561 551.213820 462.191856 561.578879 462.553966 571.943937 462.750230 582.308996 462.851443 592.674055 462.901131 603.039113 462.924361 613.404172 462.934708 623.769231 462.939099" /></g><g class="series serie-10 color-10"><path class="line reactive nofill" d="M12.230769 462.941945 L22.595828 462.941945 32.960887 462.941945 43.325945 462.941945 53.691004 462.941945 64.056063 462.941945 74.421121 462.941945 84.786180 462.941944 95.151239 462.941941 105.516297 462.941933 115.881356 462.941908 126.246415 462.941836 136.611473 462.941640 146.976532 462.941124 157.341591 462.939826 167.706649 462.936695 178.071708 462.929461 188.436767 462.913452 198.801825 462.879534 209.166884 462.810744 219.531943 462.677241 229.897001 462.429397 240.262060 461.989458 250.627119 461.243180 260.992177 460.034192 271.357236 458.165204 281.722295 455.410890 292.087353 451.546539 302.452412 446.393633 312.817471 439.878324 323.182529 432.092228 333.547588 423.339248 343.912647 414.149988 354.277705 405.249145 364.642764 397.471561 375.007823 391.637260 385.372881 388.410227 395.737940 388.174231 406.102999 390.957781 416.468057 396.428456 426.833116 403.958194 437.198175 412.741803 447.563233 421.937834 457.928292 430.797957 468.293351 438.758286 478.658409 445.479938 489.023468 450.841086 499.388527 454.893942 509.753585 457.804940 520.118644 459.795054 530.483703 461.091810 540.848761 461.898006 551.213820 462.376622 561.578879 462.648134 571.943937 462.795394 582.308996 462.871790 592.674055 462.909713 603.039113 462.927733 613.404172 462.935931 623.769231 462.939502" /></g><g class="series serie-11 color-11"><path class="line reactive nofill" d="M12.230769 462.941945 L22.595828 462.941945 32.960887 462.941945 43.325945 462.941944 53.691004 462.941943 64.056063 462.941938 74.421121 462.941926 84.786180 462.941891 95.151239 462.941797 105.516297 462.941555 115.881356 462.940952 126.246415 462.939511 136.611473 462.936191 146.976532 462.928839 157.341591 462.913172 167.706649 462.881066 178.071708 462.817804 188.436767 462.697979 198.801825 462.479869 209.166884 462.098485 219.531943 461.458116 229.897001 460.426176 240.262060 458.831154 250.627119 456.468315 260.992177 453.116820 271.357236 448.570645 281.722295 442.682768 292.087353 435.417709 302.452412 426.902631 312.817471 417.463510 323.182529 407.632122 333.547588 398.113326 343.912647 389.710259 354.277705 383.216116 364.642764 379.291778 375.007823 378.355195 385.372881 380.508089 395.737940 385.517759 406.102999 392.858501 416.468057 401.802432 426.833116 411.538021 437.198175 421.289709 447.563233 430.414637 457.928292 438.461140 468.293351 445.184888 478.658409 450.528736 489.023468 454.578891 499.388527 457.511774 509.753585 459.543895 520.118644 460.892605 530.483703 461.750797 540.848761 462.274700 551.213820 462.581721 561.578879 462.754520 571.943937 462.847962 582.308996 462.896525 592.674055 462.920791 603.039113 462.932449 613.404172 462.937837 623.769231 462.940232" /></g><g class="series serie-12 color-12"><path class="line reactive nofill" d="M12.230769 462.941942 L22.595828 462.941937 32.960887 462.941924 43.325945 462.941889 53.691004 462.941802 64.056063 462.941590 74.421121 462.941089 84.786180 462.939949 95.151239 462.937436 105.516297 462.932083 115.881356 462.921058 126.246415 462.899111 136.611473 462.856889 146.976532 462.778404 157.341591 462.637471 167.706649 462.393060 178.071708 461.983831 188.436767 461.322529 198.801825 460.291584 209.166884 458.741869 219.531943 456.497067 229.897001 453.366088 240.262060 449.165219 250.627119 443.749966 260.992177 437.053921 271.357236 429.128964 281.722295 420.178429 292.087353 410.573611 302.452412 400.845104 312.817471 391.644223 323.182529 383.675897 333.547588 377.611471 343.912647 373.995927 354.277705 373.167182 364.642764 375.204008 375.007823 379.913678 385.372881 386.862046 395.737940 395.439535 406.102999 404.949151 416.468057 414.698958 426.833116 424.082218 437.198175 432.633008 447.563233 440.051878 457.928292 446.202972 468.293351 451.089281 478.658409 454.815351 489.023468 457.546758 499.388527 459.473699 509.753585 460.783114 520.118644 461.640779 530.483703 462.182577 540.848761 462.512826 551.213820 462.707140 561.578879 462.817538 571.943937 462.878121 582.308996 462.910240 592.674055 462.926694 603.039113 462.934842 613.404172 462.938742 623.769231 462.940546" /></g><g class="series serie-13 color-13"><path class="line reactive nofill" d="M12.230769 462.890698 L22.595828 462.858509 32.960887 462.808385 43.325945 462.731743 53.691004 462.616684 64.056063 462.447106 74.421121 462.201776 84.786180 461.853432 95.151239 461.368062 105.516297 460.704527 115.881356 459.814731 126.246415 458.644564 136.611473 457.135826 146.976532 455.229291 157.341591 452.868973 167.706649 450.007519 178.071708 446.612457 188.436767 442.672877 198.801825 438.205868 209.166884 433.261960 219.531943 427.928699 229.897001 422.331581 240.262060 416.631686 250.627119 411.019711 260.992177 405.706462 271.357236 400.910321 281.722295 396.842657 292.087353 393.692511 302.452412 391.612064 312.817471 390.704463 323.182529 391.015347 333.547588 392.529040 343.912647 395.169863 354.277705 398.808404 364.642764 403.272028 375.007823 408.358434 385.372881 413.850781 395.737940 419.532822 406.102999 425.202586 416.468057 430.683468 426.833116 435.831977 437.198175 440.541844 447.563233 444.744652 457.928292 448.407468 468.293351 451.528208 478.658409 454.129587 489.023468 456.252467 499.388527 457.949329 509.753585 459.278414 520.118644 460.298882 530.483703 461.067163 540.848761 461.634480 551.213820 462.045456 561.578879 462.337585 571.943937 462.541371 582.308996 462.680906 592.674055 462.774696 603.039113 462.836589 613.404172 462.876694 623.769231 462.902212" /></g></g><g class="titles"><text class="title plot_title" x="400.0" y="26">Iteration #4</text><text class="title" x="462.0" y="580.0">Observation</text><text class="title" transform="rotate(-90 64.000000 282.009619)" x="64.0" y="308.0096189432334">Density</text></g><g class="plot overlay" transform="translate(144, 46)"><g class="series serie-0 color-0" /><g class="series serie-1 color-1" /><g class="series serie-2 color-2" /><g class="series serie-3 color-3" /><g class="series serie-4 color-4" /><g class="series serie-5 color-5" /><g class="series serie-6 color-6" /><g class="series serie-7 color-7" /><g class="series serie-8 color-8" /><g class="series serie-9 color-9" /><g class="series serie-10 color-10" /><g class="series serie-11 color-11" /><g class="series serie-12 color-12" /><g class="series serie-13 color-13" /></g><g class="plot text-overlay" transform="translate(144, 46)"><g class="series serie-0 color-0" /><g class="series serie-1 color-1" /><g class="series serie-2 color-2" /><g class="series serie-3 color-3" /><g class="series serie-4 color-4" /><g class="series serie-5 color-5" /><g class="series serie-6 color-6" /><g class="series serie-7 color-7" /><g class="series serie-8 color-8" /><g class="series serie-9 color-9" /><g class="series serie-10 color-10" /><g class="series serie-11 color-11" /><g class="series serie-12 color-12" /><g class="series serie-13 color-13" /></g><g class="plot tooltip-overlay" transform="translate(144, 46)"><g class="tooltip" style="opacity: 0" transform="translate(0 0)"><rect class="tooltip-box" height="0" rx="0" ry="0" width="0" /><g class="text" /></g></g><g class="legends" transform="translate(10, 56)"><g class="legend reactive activate-serie" id="activate-serie-0"><rect class="color-0 reactive" height="12" width="12" x="0.0" y="0.0" /><text x="17.0" y="9.0">Data</text></g><g class="legend reactive activate-serie" id="activate-serie-1"><rect class="color-1 reactive" height="12" width="12" x="0.0" y="18.0" /><text x="17.0" y="27.0">GMM</text></g><g class="legend reactive activate-serie" id="activate-serie-2"><rect class="color-2 reactive" height="12" width="12" x="0.0" y="36.0" /><text x="17.0" y="45.0">i=0</text></g><g class="legend reactive activate-serie" id="activate-serie-3"><rect class="color-3 reactive" height="12" width="12" x="0.0" y="54.0" /><text x="17.0" y="63.0">i=1</text></g><g class="legend reactive activate-serie" id="activate-serie-4"><rect class="color-4 reactive" height="12" width="12" x="0.0" y="72.0" /><text x="17.0" y="81.0">i=0 k=0</text></g><g class="legend reactive activate-serie" id="activate-serie-5"><rect class="color-5 reactive" height="12" width="12" x="0.0" y="90.0" /><text x="17.0" y="99.0">i=0 k=1</text></g><g class="legend reactive activate-serie" id="activate-serie-6"><rect class="color-6 reactive" height="12" width="12" x="0.0" y="108.0" /><text x="17.0" y="117.0">i=0 k=2</text></g><g class="legend reactive activate-serie" id="activate-serie-7"><rect class="color-7 reactive" height="12" width="12" x="0.0" y="126.0" /><text x="17.0" y="135.0">i=0 k=3</text></g><g class="legend reactive activate-serie" id="activate-serie-8"><rect class="color-8 reactive" height="12" width="12" x="0.0" y="144.0" /><text x="17.0" y="153.0">i=0 k=4</text></g><g class="legend reactive activate-serie" id="activate-serie-9"><rect class="color-9 reactive" height="12" width="12" x="0.0" y="162.0" /><text x="17.0" y="171.0">i=1 k=0</text></g><g class="legend reactive activate-serie" id="activate-serie-10"><rect class="color-10 reactive" height="12" width="12" x="0.0" y="180.0" /><text x="17.0" y="189.0">i=1 k=1</text></g><g class="legend reactive activate-serie" id="activate-serie-11"><rect class="color-11 reactive" height="12" width="12" x="0.0" y="198.0" /><text x="17.0" y="207.0">i=1 k=2</text></g><g class="legend reactive activate-serie" id="activate-serie-12"><rect class="color-12 reactive" height="12" width="12" x="0.0" y="216.0" /><text x="17.0" y="225.0">i=1 k=3</text></g><g class="legend reactive activate-serie" id="activate-serie-13"><rect class="color-13 reactive" height="12" width="12" x="0.0" y="234.0" /><text x="17.0" y="243.0">i=1 k=4</text></g></g><g class="legends" transform="translate(790, 56)" /></g></svg>