<?xml version='1.0' encoding='utf-8'?>
<svg xmlns:xlink="http://www.w3.org/1999/xlink" class="pygal-chart" id="chart-94c972ba-3a07-43ca-bd73-c2259746129a" viewBox="0 0 800 600" xmlns="http://www.w3.org/2000/svg"><!--Generated with pygal 2.4.0 (etree) ©Kozea 2012-2016 on 2018-01-18--><!--http://pygal.org--><!--http://github.com/Kozea/pygal--><defs><style type="text/css">#chart-94c972ba-3a07-43ca-bd73-c2259746129a{-webkit-user-select:none;-webkit-font-smoothing:antialiased;font-family:Consolas,"Liberation Mono",Menlo,Courier,monospace}#chart-94c972ba-3a07-43ca-bd73-c2259746129a .title{font-family:Consolas,"Liberation Mono",Menlo,Courier,monospace;font-size:16px}#chart-94c972ba-3a07-43ca-bd73-c2259746129a .legends .legend text{font-family:Consolas,"Liberation Mono",Menlo,Courier,monospace;font-size:10px}#chart-94c972ba-3a07-43ca-bd73-c2259746129a .axis text{font-family:Consolas,"Liberation Mono",Menlo,Courier,monospace;font-size:10px}#chart-94c972ba-3a07-43ca-bd73-c2259746129a .axis text.major{font-family:Consolas,"Liberation Mono",Menlo,Courier,monospace;font-size:10px}#chart-94c972ba-3a07-43ca-bd73-c2259746129a .text-overlay text.value{font-family:Consolas,"Liberation Mono",Menlo,Courier,monospace;font-size:16px}#chart-94c972ba-3a07-43ca-bd73-c2259746129a .text-overlay text.label{font-family:Consolas,"Liberation Mono",Menlo,Courier,monospace;font-size:10px}#chart-94c972ba-3a07-43ca-bd73-c2259746129a .tooltip{font-family:Consolas,"Liberation Mono",Menlo,Courier,monospace;font-size:14px}#chart-94c972ba-3a07-43ca-bd73-c2259746129a text.no_data{font-family:Consolas,"Liberation Mono",Menlo,Courier,monospace;font-size:64px}
#chart-94c972ba-3a07-43ca-bd73-c2259746129a{background-color:rgba(249,249,249,1)}#chart-94c972ba-3a07-43ca-bd73-c2259746129a path,#chart-94c972ba-3a07-43ca-bd73-c2259746129a line,#chart-94c972ba-3a07-43ca-bd73-c2259746129a rect,#chart-94c972ba-3a07-43ca-bd73-c2259746129a circle{-webkit-transition:150ms;-moz-transition:150ms;transition:150ms}#chart-94c972ba-3a07-43ca-bd73-c2259746129a .graph &gt; .background{fill:rgba(249,249,249,1)}#chart-94c972ba-3a07-43ca-bd73-c2259746129a .plot &gt; .background{fill:rgba(255,255,255,1)}#chart-94c972ba-3a07-43ca-bd73-c2259746129a .graph{fill:rgba(0,0,0,.87)}#chart-94c972ba-3a07-43ca-bd73-c2259746129a text.no_data{fill:rgba(0,0,0,1)}#chart-94c972ba-3a07-43ca-bd73-c2259746129a .title{fill:rgba(0,0,0,1)}#chart-94c972ba-3a07-43ca-bd73-c2259746129a .legends .legend text{fill:rgba(0,0,0,.87)}#chart-94c972ba-3a07-43ca-bd73-c2259746129a .legends .legend:hover text{fill:rgba(0,0,0,1)}#chart-94c972ba-3a07-43ca-bd73-c2259746129a .axis .line{stroke:rgba(0,0,0,1)}#chart-94c972ba-3a07-43ca-bd73-c2259746129a .axis .guide.line{stroke:rgba(0,0,0,.54)}#chart-94c972ba-3a07-43ca-bd73-c2259746129a .axis .major.line{stroke:rgba(0,0,0,.87)}#chart-94c972ba-3a07-43ca-bd73-c2259746129a .axis text.major{fill:rgba(0,0,0,1)}#chart-94c972ba-3a07-43ca-bd73-c2259746129a .axis.y .guides:hover .guide.line,#chart-94c972ba-3a07-43ca-bd73-c2259746129a .line-graph .axis.x .guides:hover .guide.line,#chart-94c972ba-3a07-43ca-bd73-c2259746129a .stackedline-graph .axis.x .guides:hover .guide.line,#chart-94c972ba-3a07-43ca-bd73-c2259746129a .xy-graph .axis.x .guides:hover .guide.line{stroke:rgba(0,0,0,1)}#chart-94c972ba-3a07-43ca-bd73-c2259746129a .axis .guides:hover text{fill:rgba(0,0,0,1)}#chart-94c972ba-3a07-43ca-bd73-c2259746129a .reactive{fill-opacity:.7;stroke-opacity:.8}#chart-94c972ba-3a07-43ca-bd73-c2259746129a .ci{stroke:rgba(0,0,0,.87)}#chart-94c972ba-3a07-43ca-bd73-c2259746129a .reactive.active,#chart-94c972ba-3a07-43ca-bd73-c2259746129a .active .reactive{fill-opacity:.8;stroke-opacity:.9;stroke-width:4}#chart-94c972ba-3a07-43ca-bd73-c2259746129a .ci .reactive.active{stroke-width:1.5}#chart-94c972ba-3a07-43ca-bd73-c2259746129a .series text{fill:rgba(0,0,0,1)}#chart-94c972ba-3a07-43ca-bd73-c2259746129a .tooltip rect{fill:rgba(255,255,255,1);stroke:rgba(0,0,0,1);-webkit-transition:opacity 150ms;-moz-transition:opacity 150ms;transition:opacity 150ms}#chart-94c972ba-3a07-43ca-bd73-c2259746129a .tooltip .label{fill:rgba(0,0,0,.87)}#chart-94c972ba-3a07-43ca-bd73-c2259746129a .tooltip .label{fill:rgba(0,0,0,.87)}#chart-94c972ba-3a07-43ca-bd73-c2259746129a .tooltip .legend{font-size:.8em;fill:rgba(0,0,0,.54)}#chart-94c972ba-3a07-43ca-bd73-c2259746129a .tooltip .x_label{font-size:.6em;fill:rgba(0,0,0,1)}#chart-94c972ba-3a07-43ca-bd73-c2259746129a .tooltip .xlink{font-size:.5em;text-decoration:underline}#chart-94c972ba-3a07-43ca-bd73-c2259746129a .tooltip .value{font-size:1.5em}#chart-94c972ba-3a07-43ca-bd73-c2259746129a .bound{font-size:.5em}#chart-94c972ba-3a07-43ca-bd73-c2259746129a .max-value{font-size:.75em;fill:rgba(0,0,0,.54)}#chart-94c972ba-3a07-43ca-bd73-c2259746129a .map-element{fill:rgba(255,255,255,1);stroke:rgba(0,0,0,.54) !important}#chart-94c972ba-3a07-43ca-bd73-c2259746129a .map-element .reactive{fill-opacity:inherit;stroke-opacity:inherit}#chart-94c972ba-3a07-43ca-bd73-c2259746129a .color-0,#chart-94c972ba-3a07-43ca-bd73-c2259746129a .color-0 a:visited{stroke:#909090;fill:#909090}#chart-94c972ba-3a07-43ca-bd73-c2259746129a .color-1,#chart-94c972ba-3a07-43ca-bd73-c2259746129a .color-1 a:visited{stroke:#000000;fill:#000000}#chart-94c972ba-3a07-43ca-bd73-c2259746129a .color-2,#chart-94c972ba-3a07-43ca-bd73-c2259746129a .color-2 a:visited{stroke:#ff0500;fill:#ff0500}#chart-94c972ba-3a07-43ca-bd73-c2259746129a .color-3,#chart-94c972ba-3a07-43ca-bd73-c2259746129a .color-3 a:visited{stroke:#323299;fill:#323299}#chart-94c972ba-3a07-43ca-bd73-c2259746129a .color-4,#chart-94c972ba-3a07-43ca-bd73-c2259746129a .color-4 a:visited{stroke:#a3413f;fill:#a3413f}#chart-94c972ba-3a07-43ca-bd73-c2259746129a .color-5,#chart-94c972ba-3a07-43ca-bd73-c2259746129a .color-5 a:visited{stroke:#a3413f;fill:#a3413f}#chart-94c972ba-3a07-43ca-bd73-c2259746129a .color-6,#chart-94c972ba-3a07-43ca-bd73-c2259746129a .color-6 a:visited{stroke:#a3413f;fill:#a3413f}#chart-94c972ba-3a07-43ca-bd73-c2259746129a .color-7,#chart-94c972ba-3a07-43ca-bd73-c2259746129a .color-7 a:visited{stroke:#a3413f;fill:#a3413f}#chart-94c972ba-3a07-43ca-bd73-c2259746129a .color-8,#chart-94c972ba-3a07-43ca-bd73-c2259746129a .color-8 a:visited{stroke:#a3413f;fill:#a3413f}#chart-94c972ba-3a07-43ca-bd73-c2259746129a .color-9,#chart-94c972ba-3a07-43ca-bd73-c2259746129a .color-9 a:visited{stroke:#657fff;fill:#657fff}#chart-94c972ba-3a07-43ca-bd73-c2259746129a .color-10,#chart-94c972ba-3a07-43ca-bd73-c2259746129a .color-10 a:visited{stroke:#657fff;fill:#657fff}#chart-94c972ba-3a07-43ca-bd73-c2259746129a .color-11,#chart-94c972ba-3a07-43ca-bd73-c2259746129a .color-11 a:visited{stroke:#657fff;fill:#657fff}#chart-94c972ba-3a07-43ca-bd73-c2259746129a .color-12,#chart-94c972ba-3a07-43ca-bd73-c2259746129a .color-12 a:visited{stroke:#657fff;fill:#657fff}#chart-94c972ba-3a07-43ca-bd73-c2259746129a .color-13,#chart-94c972ba-3a07-43ca-bd73-c2259746129a .color-13 a:visited{stroke:#657fff;fill:#657fff}#chart-94c972ba-3a07-43ca-bd73-c2259746129a .text-overlay .color-0 text{fill:black}#chart-94c972ba-3a07-43ca-bd73-c2259746129a .text-overlay .color-1 text{fill:white}#chart-94c972ba-3a07-43ca-bd73-c2259746129a .text-overlay .color-2 text{fill:black}#chart-94c972ba-3a07-43ca-bd73-c2259746129a .text-overlay .color-3 text{fill:black}#chart-94c972ba-3a07-43ca-bd73-c2259746129a .text-overlay .color-4 text{fill:black}#chart-94c972ba-3a07-43ca-bd73-c2259746129a .text-overlay .color-5 text{fill:black}#chart-94c972ba-3a07-43ca-bd73-c2259746129a .text-overlay .color-6 text{fill:black}#chart-94c972ba-3a07-43ca-bd73-c2259746129a .text-overlay .color-7 text{fill:black}#chart-94c972ba-3a07-43ca-bd73-c2259746129a .text-overlay .color-8 text{fill:black}#chart-94c972ba-3a07-43ca-bd73-c2259746129a .text-overlay .color-9 text{fill:black}#chart-94c972ba-3a07-43ca-bd73-c2259746129a .text-overlay .color-10 text{fill:black}#chart-94c972ba-3a07-43ca-bd73-c2259746129a .text-overlay .color-11 text{fill:black}#chart-94c972ba-3a07-43ca-bd73-c2259746129a .text-overlay .color-12 text{fill:black}#chart-94c972ba-3a07-43ca-bd73-c2259746129a .text-overlay .color-13 text{fill:black}#chart-94c972ba-3a07-43ca-bd73-c2259746129a .series.serie-1{stroke-width:5}#chart-94c972ba-3a07-43ca-bd73-c2259746129a .series.serie-2{stroke-width:3}#chart-94c972ba-3a07-43ca-bd73-c2259746129a .series.serie-3{stroke-width:3}#chart-94c972ba-3a07-43ca-bd73-c2259746129a .series.serie-4{stroke-width:2;stroke-dasharray:2,2}#chart-94c972ba-3a07-43ca-bd73-c2259746129a .series.serie-5{stroke-width:2;stroke-dasharray:2,2}#chart-94c972ba-3a07-43ca-bd73-c2259746129a .series.serie-6{stroke-width:2;stroke-dasharray:2,2}#chart-94c972ba-3a07-43ca-bd73-c2259746129a .series.serie-7{stroke-width:2;stroke-dasharray:2,2}#chart-94c972ba-3a07-43ca-bd73-c2259746129a .series.serie-8{stroke-width:2;stroke-dasharray:2,2}#chart-94c972ba-3a07-43ca-bd73-c2259746129a .series.serie-9{stroke-width:2;stroke-dasharray:2,2}#chart-94c972ba-3a07-43ca-bd73-c2259746129a .series.serie-10{stroke-width:2;stroke-dasharray:2,2}#chart-94c972ba-3a07-43ca-bd73-c2259746129a .series.serie-11{stroke-width:2;stroke-dasharray:2,2}#chart-94c972ba-3a07-43ca-bd73-c2259746129a .series.serie-12{stroke-width:2;stroke-dasharray:2,2}#chart-94c972ba-3a07-43ca-bd73-c2259746129a .series.serie-13{stroke-width:2;stroke-dasharray:2,2}
#chart-94c972ba-3a07-43ca-bd73-c2259746129a text.no_data{text-anchor:middle}#chart-94c972ba-3a07-43ca-bd73-c2259746129a .guide.line{fill:none}#chart-94c972ba-3a07-43ca-bd73-c2259746129a .centered{text-anchor:middle}#chart-94c972ba-3a07-43ca-bd73-c2259746129a .title{text-anchor:middle}#chart-94c972ba-3a07-43ca-bd73-c2259746129a .legends .legend text{fill-opacity:1}#chart-94c972ba-3a07-43ca-bd73-c2259746129a .axis.x text{text-anchor:middle}#chart-94c972ba-3a07-43ca-bd73-c2259746129a .axis.x:not(.web) text[transform]{text-anchor:start}#chart-94c972ba-3a07-43ca-bd73-c2259746129a .axis.x:not(.web) text[transform].backwards{text-anchor:end}#chart-94c972ba-3a07-43ca-bd73-c2259746129a .axis.y text{text-anchor:end}#chart-94c972ba-3a07-43ca-bd73-c2259746129a .axis.y text[transform].backwards{text-anchor:start}#chart-94c972ba-3a07-43ca-bd73-c2259746129a .axis.y2 text{text-anchor:start}#chart-94c972ba-3a07-43ca-bd73-c2259746129a .axis.y2 text[transform].backwards{text-anchor:end}#chart-94c972ba-3a07-43ca-bd73-c2259746129a .axis .guide.line{stroke-dasharray:4,4}#chart-94c972ba-3a07-43ca-bd73-c2259746129a .axis .major.guide.line{stroke-dasharray:6,6}#chart-94c972ba-3a07-43ca-bd73-c2259746129a .horizontal .axis.y .guide.line,#chart-94c972ba-3a07-43ca-bd73-c2259746129a .horizontal .axis.y2 .guide.line,#chart-94c972ba-3a07-43ca-bd73-c2259746129a .vertical .axis.x .guide.line{opacity:0}#chart-94c972ba-3a07-43ca-bd73-c2259746129a .horizontal .axis.always_show .guide.line,#chart-94c972ba-3a07-43ca-bd73-c2259746129a .vertical .axis.always_show .guide.line{opacity:1 !important}#chart-94c972ba-3a07-43ca-bd73-c2259746129a .axis.y .guides:hover .guide.line,#chart-94c972ba-3a07-43ca-bd73-c2259746129a .axis.y2 .guides:hover .guide.line,#chart-94c972ba-3a07-43ca-bd73-c2259746129a .axis.x .guides:hover .guide.line{opacity:1}#chart-94c972ba-3a07-43ca-bd73-c2259746129a .axis .guides:hover text{opacity:1}#chart-94c972ba-3a07-43ca-bd73-c2259746129a .nofill{fill:none}#chart-94c972ba-3a07-43ca-bd73-c2259746129a .subtle-fill{fill-opacity:.2}#chart-94c972ba-3a07-43ca-bd73-c2259746129a .dot{stroke-width:1px;fill-opacity:1}#chart-94c972ba-3a07-43ca-bd73-c2259746129a .dot.active{stroke-width:5px}#chart-94c972ba-3a07-43ca-bd73-c2259746129a .dot.negative{fill:transparent}#chart-94c972ba-3a07-43ca-bd73-c2259746129a text,#chart-94c972ba-3a07-43ca-bd73-c2259746129a tspan{stroke:none !important}#chart-94c972ba-3a07-43ca-bd73-c2259746129a .series text.active{opacity:1}#chart-94c972ba-3a07-43ca-bd73-c2259746129a .tooltip rect{fill-opacity:.95;stroke-width:.5}#chart-94c972ba-3a07-43ca-bd73-c2259746129a .tooltip text{fill-opacity:1}#chart-94c972ba-3a07-43ca-bd73-c2259746129a .showable{visibility:hidden}#chart-94c972ba-3a07-43ca-bd73-c2259746129a .showable.shown{visibility:visible}#chart-94c972ba-3a07-43ca-bd73-c2259746129a .gauge-background{fill:rgba(229,229,229,1);stroke:none}#chart-94c972ba-3a07-43ca-bd73-c2259746129a .bg-lines{stroke:rgba(249,249,249,1);stroke-width:2px}</style><script type="text/javascript">window.pygal = window.pygal || {};window.pygal.config = window.pygal.config || {};window.pygal.config['94c972ba-3a07-43ca-bd73-c2259746129a'] = {"allow_interruptions": false, "x_label_rotation": 60, "y_title": "Density", "stack_from_top": false, "stroke": true, "include_x_axis": false, "defs": [], "truncate_label": null, "legend_at_bottom_columns": null, "show_minor_y_labels": true, "show_x_labels": true, "tooltip_fancy_mode": true, "show_legend": true, "print_labels": false, "disable_xml_declaration": false, "secondary_range": null, "x_labels": ["-8.96", "-8.76", "-8.56", "-8.36", "-8.16", "-7.96", "-7.76", "-7.56", "-7.36", "-7.16", "-6.96", "-6.76", "-6.56", "-6.36", "-6.16", "-5.96", "-5.76", "-5.56", "-5.36", "-5.16", "-4.96", "-4.76", "-4.56", "-4.36", "-4.16", "-3.96", "-3.76", "-3.56", "-3.36", "-3.16", "-2.96", "-2.76", "-2.56", "-2.36", "-2.16", "-1.96", "-1.76", "-1.56", "-1.36", "-1.16", "-0.96", "-0.76", "-0.56", "-0.36", "-0.16", "0.04", "0.24", "0.44", "0.64", "0.84", "1.04", "1.24", "1.43", "1.63", "1.83", "2.03", "2.23", "2.43", "2.63", "2.83"], "interpolation_precision": 250, "force_uri_protocol": "https", "classes": ["pygal-chart"], "css": ["file://style.css", "file://graph.css"], "margin": 20, "style": {"opacity_hover": ".8", "foreground": "rgba(0, 0, 0, .87)", "foreground_subtle": "rgba(0, 0, 0, .54)", "value_colors": [], "legend_font_family": "Consolas, \"Liberation Mono\", Menlo, Courier, monospace", "tooltip_font_family": "Consolas, \"Liberation Mono\", Menlo, Courier, monospace", "stroke_opacity_hover": ".9", "no_data_font_size": 64, "guide_stroke_dasharray": "4,4", "title_font_family": "Consolas, \"Liberation Mono\", Menlo, Courier, monospace", "label_font_family": "Consolas, \"Liberation Mono\", Menlo, Courier, monospace", "ci_colors": [], "background": "rgba(249, 249, 249, 1)", "colors": ["#909090", "#000000", "#ff0500", "#323299", "#a3413f", "#a3413f", "#a3413f", "#a3413f", "#a3413f", "#657fff", "#657fff", "#657fff", "#657fff", "#657fff"], "value_font_family": "Consolas, \"Liberation Mono\", Menlo, Courier, monospace", "font_family": "Consolas, \"Liberation Mono\", Menlo, Courier, monospace", "value_background": "rgba(229, 229, 229, 1)", "stroke_opacity": ".8", "title_font_size": 16, "no_data_font_family": "Consolas, \"Liberation Mono\", Menlo, Courier, monospace", "label_font_size": 10, "major_guide_stroke_dasharray": "6,6", "major_label_font_size": 10, "transition": "150ms", "opacity": ".7", "legend_font_size": 10, "value_label_font_family": "Consolas, \"Liberation Mono\", Menlo, Courier, monospace", "major_label_font_family": "Consolas, \"Liberation Mono\", Menlo, Courier, monospace", "plot_background": "rgba(255, 255, 255, 1)", "value_label_font_size": 10, "foreground_strong": "rgba(0, 0, 0, 1)", "tooltip_font_size": 14, "value_font_size": 16}, "order_min": null, "interpolation_parameters": {}, "show_dots": false, "y_labels_major": null, "box_mode": "extremes", "fill": false, "show_minor_x_labels": false, "js": ["//kozea.github.io/pygal.js/2.0.x/pygal-tooltips.min.js"], "explicit_size": false, "formatter": null, "x_labels_major": null, "legends": ["Data", "GMM", "i=0", "i=1", "i=0 k=0", "i=0 k=1", "i=0 k=2", "i=0 k=3", "i=0 k=4", "i=1 k=0", "i=1 k=1", "i=1 k=2", "i=1 k=3", "i=1 k=4"], "zero": 0, "strict": false, "print_values": false, "margin_bottom": null, "dynamic_print_values": false, "print_zeroes": true, "logarithmic": false, "x_labels_major_count": null, "margin_left": null, "legend_box_size": 12, "max_scale": 16, "dots_size": 2.5, "show_y_guides": true, "truncate_legend": null, "interpolate": null, "y_labels_major_every": null, "legend_at_bottom": false, "inner_radius": 0, "tooltip_border_radius": 0, "show_x_guides": false, "x_labels_major_every": 2, "show_y_labels": true, "pretty_print": false, "rounded_bars": null, "missing_value_fill_truncation": "x", "y_label_rotation": 0, "height": 600, "show_only_major_dots": false, "spacing": 10, "inverse_y_axis": false, "xrange": null, "margin_right": null, "no_prefix": false, "range": [0, 0.27578580090479526], "margin_top": null, "no_data_text": "No data", "y_labels_major_count": null, "half_pie": false, "width": 800, "title": "Iteration #2", "stroke_style": null, "y_labels": null, "print_values_position": "center", "x_title": "Observation", "min_scale": 4}</script><script type="text/javascript" xlink:href="https://kozea.github.io/pygal.js/2.0.x/pygal-tooltips.min.js" /></defs><title>Iteration #2</title><g class="graph line-graph vertical"><rect class="background" height="600" width="800" x="0" y="0" /><g class="plot" transform="translate(144, 46)"><rect class="background" height="472.01923788646684" width="636.0" x="0" y="0" /><g class="axis y always_show"><g class="guides"><path class="axis major line" d="M0.000000 462.941945 h636.000000" /><text class="major" x="-5" y="466.44194485">0</text><title>0</title></g><g class="guides"><path class="guide line" d="M0.000000 430.027658 h636.000000" /><text class="" x="-5" y="433.527657724">0.02</text><title>0.02</title></g><g class="guides"><path class="guide line" d="M0.000000 397.113371 h636.000000" /><text class="" x="-5" y="400.613370598">0.04</text><title>0.04</title></g><g class="guides"><path class="guide line" d="M0.000000 364.199083 h636.000000" /><text class="" x="-5" y="367.699083472">0.06</text><title>0.06</title></g><g class="guides"><path class="guide line" d="M0.000000 331.284796 h636.000000" /><text class="" x="-5" y="334.784796346">0.08</text><title>0.08</title></g><g class="guides"><path class="guide line" d="M0.000000 298.370509 h636.000000" /><text class="" x="-5" y="301.87050922">0.1</text><title>0.1</title></g><g class="guides"><path class="guide line" d="M0.000000 265.456222 h636.000000" /><text class="" x="-5" y="268.956222094">0.12</text><title>0.12</title></g><g class="guides"><path class="guide line" d="M0.000000 232.541935 h636.000000" /><text class="" x="-5" y="236.041934968">0.14</text><title>0.14</title></g><g class="guides"><path class="guide line" d="M0.000000 199.627648 h636.000000" /><text class="" x="-5" y="203.127647841">0.16</text><title>0.16</title></g><g class="guides"><path class="guide line" d="M0.000000 166.713361 h636.000000" /><text class="" x="-5" y="170.213360715">0.18</text><title>0.18</title></g><g class="guides"><path class="guide line" d="M0.000000 133.799074 h636.000000" /><text class="" x="-5" y="137.299073589">0.2</text><title>0.2</title></g><g class="guides"><path class="guide line" d="M0.000000 100.884786 h636.000000" /><text class="" x="-5" y="104.384786463">0.22</text><title>0.22</title></g><g class="guides"><path class="guide line" d="M0.000000 67.970499 h636.000000" /><text class="" x="-5" y="71.4704993371">0.24</text><title>0.24</title></g><g class="guides"><path class="guide line" d="M0.000000 35.056212 h636.000000" /><text class="" x="-5" y="38.5562122111">0.26</text><title>0.26</title></g></g><g class="axis x"><g class="guides"><path class="major line" d="M12.230769 0.000000 v472.019238" /><text class="major" transform="rotate(60 12.230769 487.019238)" x="12.230769230769232" y="487.01923788646684">-8.96</text></g><g class="guides"><path class="major guide line" d="M32.960887 0.000000 v472.019238" /><text class="major" transform="rotate(60 32.960887 487.019238)" x="32.96088657105606" y="487.01923788646684">-8.56</text></g><g class="guides"><path class="major guide line" d="M53.691004 0.000000 v472.019238" /><text class="major" transform="rotate(60 53.691004 487.019238)" x="53.6910039113429" y="487.01923788646684">-8.16</text></g><g class="guides"><path class="major guide line" d="M74.421121 0.000000 v472.019238" /><text class="major" transform="rotate(60 74.421121 487.019238)" x="74.42112125162973" y="487.01923788646684">-7.76</text></g><g class="guides"><path class="major guide line" d="M95.151239 0.000000 v472.019238" /><text class="major" transform="rotate(60 95.151239 487.019238)" x="95.15123859191655" y="487.01923788646684">-7.36</text></g><g class="guides"><path class="major guide line" d="M115.881356 0.000000 v472.019238" /><text class="major" transform="rotate(60 115.881356 487.019238)" x="115.88135593220338" y="487.01923788646684">-6.96</text></g><g class="guides"><path class="major guide line" d="M136.611473 0.000000 v472.019238" /><text class="major" transform="rotate(60 136.611473 487.019238)" x="136.61147327249023" y="487.01923788646684">-6.56</text></g><g class="guides"><path class="major guide line" d="M157.341591 0.000000 v472.019238" /><text class="major" transform="rotate(60 157.341591 487.019238)" x="157.34159061277705" y="487.01923788646684">-6.16</text></g><g class="guides"><path class="major guide line" d="M178.071708 0.000000 v472.019238" /><text class="major" transform="rotate(60 178.071708 487.019238)" x="178.0717079530639" y="487.01923788646684">-5.76</text></g><g class="guides"><path class="major guide line" d="M198.801825 0.000000 v472.019238" /><text class="major" transform="rotate(60 198.801825 487.019238)" x="198.80182529335073" y="487.01923788646684">-5.36</text></g><g class="guides"><path class="major guide line" d="M219.531943 0.000000 v472.019238" /><text class="major" transform="rotate(60 219.531943 487.019238)" x="219.53194263363756" y="487.01923788646684">-4.96</text></g><g class="guides"><path class="major guide line" d="M240.262060 0.000000 v472.019238" /><text class="major" transform="rotate(60 240.262060 487.019238)" x="240.2620599739244" y="487.01923788646684">-4.56</text></g><g class="guides"><path class="major guide line" d="M260.992177 0.000000 v472.019238" /><text class="major" transform="rotate(60 260.992177 487.019238)" x="260.99217731421123" y="487.01923788646684">-4.16</text></g><g class="guides"><path class="major guide line" d="M281.722295 0.000000 v472.019238" /><text class="major" transform="rotate(60 281.722295 487.019238)" x="281.722294654498" y="487.01923788646684">-3.76</text></g><g class="guides"><path class="major guide line" d="M302.452412 0.000000 v472.019238" /><text class="major" transform="rotate(60 302.452412 487.019238)" x="302.4524119947849" y="487.01923788646684">-3.36</text></g><g class="guides"><path class="major guide line" d="M323.182529 0.000000 v472.019238" /><text class="major" transform="rotate(60 323.182529 487.019238)" x="323.1825293350717" y="487.01923788646684">-2.96</text></g><g class="guides"><path class="major guide line" d="M343.912647 0.000000 v472.019238" /><text class="major" transform="rotate(60 343.912647 487.019238)" x="343.91264667535853" y="487.01923788646684">-2.56</text></g><g class="guides"><path class="major guide line" d="M364.642764 0.000000 v472.019238" /><text class="major" transform="rotate(60 364.642764 487.019238)" x="364.64276401564535" y="487.01923788646684">-2.16</text></g><g class="guides"><path class="major guide line" d="M385.372881 0.000000 v472.019238" /><text class="major" transform="rotate(60 385.372881 487.019238)" x="385.37288135593224" y="487.01923788646684">-1.76</text></g><g class="guides"><path class="major guide line" d="M406.102999 0.000000 v472.019238" /><text class="major" transform="rotate(60 406.102999 487.019238)" x="406.102998696219" y="487.01923788646684">-1.36</text></g><g class="guides"><path class="major guide line" d="M426.833116 0.000000 v472.019238" /><text class="major" transform="rotate(60 426.833116 487.019238)" x="426.8331160365058" y="487.01923788646684">-0.96</text></g><g class="guides"><path class="major guide line" d="M447.563233 0.000000 v472.019238" /><text class="major" transform="rotate(60 447.563233 487.019238)" x="447.56323337679265" y="487.01923788646684">-0.56</text></g><g class="guides"><path class="major guide line" d="M468.293351 0.000000 v472.019238" /><text class="major" transform="rotate(60 468.293351 487.019238)" x="468.29335071707953" y="487.01923788646684">-0.16</text></g><g class="guides"><path class="major guide line" d="M489.023468 0.000000 v472.019238" /><text class="major" transform="rotate(60 489.023468 487.019238)" x="489.02346805736636" y="487.01923788646684">0.24</text></g><g class="guides"><path class="major guide line" d="M509.753585 0.000000 v472.019238" /><text class="major" transform="rotate(60 509.753585 487.019238)" x="509.75358539765324" y="487.01923788646684">0.64</text></g><g class="guides"><path class="major guide line" d="M530.483703 0.000000 v472.019238" /><text class="major" transform="rotate(60 530.483703 487.019238)" x="530.48370273794" y="487.01923788646684">1.04</text></g><g class="guides"><path class="major guide line" d="M551.213820 0.000000 v472.019238" /><text class="major" transform="rotate(60 551.213820 487.019238)" x="551.213820078227" y="487.01923788646684">1.43</text></g><g class="guides"><path class="major guide line" d="M571.943937 0.000000 v472.019238" /><text class="major" transform="rotate(60 571.943937 487.019238)" x="571.9439374185138" y="487.01923788646684">1.83</text></g><g class="guides"><path class="major guide line" d="M592.674055 0.000000 v472.019238" /><text class="major" transform="rotate(60 592.674055 487.019238)" x="592.6740547588006" y="487.01923788646684">2.23</text></g><g class="guides"><path class="major guide line" d="M613.404172 0.000000 v472.019238" /><text class="major" transform="rotate(60 613.404172 487.019238)" x="613.4041720990874" y="487.01923788646684">2.63</text></g></g><g class="series serie-0 color-0"><path class="line reactive" d="M12.230769 462.941945 L12.230769 462.019456 22.595828 462.941945 32.960887 461.096967 43.325945 462.019456 53.691004 459.251988 64.056063 462.019456 74.421121 458.329499 84.786180 462.019456 95.151239 458.329499 105.516297 462.019456 115.881356 448.182119 126.246415 460.174477 136.611473 457.407010 146.976532 457.407010 157.341591 451.872075 167.706649 448.182119 178.071708 454.639543 188.436767 445.414651 198.801825 442.647184 209.166884 436.189760 219.531943 437.112249 229.897001 392.832771 240.262060 396.522728 250.627119 376.227967 260.992177 355.933206 271.357236 351.320760 281.722295 325.491065 292.087353 277.521630 302.452412 283.056565 312.817471 202.800010 323.182529 188.040184 333.547588 169.590402 343.912647 123.465945 354.277705 95.791271 364.642764 67.194108 375.007823 82.876423 385.372881 60.736684 395.737940 80.108956 406.102999 29.372054 416.468057 9.077293 426.833116 70.884065 437.198175 69.039086 447.563233 41.364413 457.928292 40.441923 468.293351 91.178826 478.658409 140.993239 489.023468 214.792369 499.388527 259.071847 509.753585 321.801108 520.118644 364.235608 530.483703 408.515086 540.848761 430.654825 551.213820 448.182119 561.578879 455.562032 571.943937 458.329499 582.308996 458.329499 592.674055 462.019456 603.039113 462.941945 613.404172 462.019456 623.769231 462.941945" /></g><g class="series serie-1 color-1"><path class="line reactive nofill" d="M12.230769 462.930040 L22.595828 462.919790 32.960887 462.901603 43.325945 462.870064 53.691004 462.816625 64.056063 462.728155 74.421121 462.585074 84.786180 462.359048 95.151239 462.010346 105.516297 461.485064 115.881356 460.712595 126.246415 459.603882 136.611473 458.051155 146.976532 455.929909 157.341591 453.103774 167.706649 449.432576 178.071708 444.783127 188.436767 439.041194 198.801825 432.121708 209.166884 423.972976 219.531943 414.570225 229.897001 403.895125 240.262060 391.901938 250.627119 378.477576 260.992177 363.410490 271.357236 346.388458 281.722295 327.043416 292.087353 305.049706 302.452412 280.261474 312.817471 252.852251 323.182529 223.405370 333.547588 192.907044 343.912647 162.618024 354.277705 133.839935 364.642764 107.639344 375.007823 84.634265 385.372881 64.962567 395.737940 48.503178 406.102999 35.288778 416.468057 25.896056 426.833116 21.576661 437.198175 24.075851 447.563233 35.304724 457.928292 57.002612 468.293351 90.274677 478.658409 134.844848 489.023468 188.281060 499.388527 245.890358 509.753585 301.761533 520.118644 350.578661 530.483703 389.174823 540.848761 417.002493 551.213820 435.507114 561.578879 447.023688 571.943937 453.848358 582.308996 457.769221 592.674055 459.989170 603.039113 461.243553 613.404172 461.956488 623.769231 462.365545" /></g><g class="series serie-2 color-2"><path class="line reactive nofill" d="M12.230769 462.941945 L22.595828 462.941945 32.960887 462.941945 43.325945 462.941945 53.691004 462.941945 64.056063 462.941945 74.421121 462.941945 84.786180 462.941945 95.151239 462.941945 105.516297 462.941945 115.881356 462.941945 126.246415 462.941944 136.611473 462.941944 146.976532 462.941943 157.341591 462.941940 167.706649 462.941934 178.071708 462.941923 188.436767 462.941901 198.801825 462.941859 209.166884 462.941779 219.531943 462.941628 229.897001 462.941352 240.262060 462.940851 250.627119 462.939953 260.992177 462.938361 271.357236 462.935559 281.722295 462.930658 292.087353 462.922107 302.452412 462.907182 312.817471 462.880996 323.182529 462.834531 333.547588 462.750461 343.912647 462.593846 354.277705 462.291110 364.642764 461.684296 375.007823 460.440591 385.372881 457.900571 395.737940 452.886095 406.102999 443.582871 416.468057 427.737937 426.833116 403.442121 437.198175 370.514117 447.563233 331.932806 457.928292 294.243427 468.293351 266.035384 478.658409 254.724042 489.023468 263.268714 499.388527 288.849093 509.753585 324.334245 520.118644 361.518110 530.483703 394.122231 540.848761 419.134903 551.213820 436.412255 561.578879 447.417819 571.943937 454.030392 582.308996 457.859081 592.674055 460.035722 603.039113 461.268194 613.404172 461.969541 623.769231 462.372380" /></g><g class="series serie-3 color-3"><path class="line reactive nofill" d="M12.230769 462.930040 L22.595828 462.919790 32.960887 462.901603 43.325945 462.870064 53.691004 462.816625 64.056063 462.728155 74.421121 462.585074 84.786180 462.359048 95.151239 462.010346 105.516297 461.485064 115.881356 460.712595 126.246415 459.603883 136.611473 458.051157 146.976532 455.929911 157.341591 453.103779 167.706649 449.432587 178.071708 444.783148 188.436767 439.041238 198.801825 432.121794 209.166884 423.973143 219.531943 414.570542 229.897001 403.895718 240.262060 391.903032 250.627119 378.479567 260.992177 363.414074 271.357236 346.394844 281.722295 327.054703 292.087353 305.069544 302.452412 280.296236 312.817471 252.913200 323.182529 223.512783 333.547588 193.098527 343.912647 162.966123 354.277705 134.490770 364.642764 108.896992 375.007823 87.135619 385.372881 70.003941 395.737940 58.559028 406.102999 54.647853 416.468057 61.100064 426.833116 81.076485 437.198175 116.503679 447.563233 166.313862 457.928292 225.701130 468.293351 287.181238 478.658409 343.062751 489.023468 387.954290 499.388527 419.983210 509.753585 440.369233 520.118644 452.002497 530.483703 457.994536 540.848761 460.809535 551.213820 462.036804 561.578879 462.547813 571.943937 462.759911 582.308996 462.852085 592.674055 462.895393 603.039113 462.917303 613.404172 462.928893 623.769231 462.935110" /></g><g class="series serie-4 color-4"><path class="line reactive nofill" d="M12.230769 462.941945 L22.595828 462.941945 32.960887 462.941945 43.325945 462.941945 53.691004 462.941945 64.056063 462.941945 74.421121 462.941945 84.786180 462.941945 95.151239 462.941945 105.516297 462.941945 115.881356 462.941945 126.246415 462.941945 136.611473 462.941945 146.976532 462.941945 157.341591 462.941945 167.706649 462.941945 178.071708 462.941945 188.436767 462.941945 198.801825 462.941945 209.166884 462.941945 219.531943 462.941945 229.897001 462.941945 240.262060 462.941945 250.627119 462.941945 260.992177 462.941945 271.357236 462.941945 281.722295 462.941945 292.087353 462.941943 302.452412 462.941933 312.817471 462.941870 323.182529 462.941510 333.547588 462.939704 343.912647 462.931637 354.277705 462.899639 364.642764 462.787045 375.007823 462.436000 385.372881 461.467731 395.737940 459.109968 406.102999 454.056265 416.468057 444.561175 426.833116 429.023024 437.198175 407.104484 447.563233 380.941806 457.928292 355.516092 468.293351 337.394369 478.658409 332.049931 489.023468 341.204757 499.388527 361.937921 509.753585 388.183651 520.118644 413.580781 530.483703 433.867148 540.848761 447.664410 551.213820 455.780590 561.578879 459.947320 571.943937 461.824838 582.308996 462.570193 592.674055 462.831584 603.039113 462.912718 613.404172 462.935040 623.769231 462.940490" /></g><g class="series serie-5 color-5"><path class="line reactive nofill" d="M12.230769 462.941945 L22.595828 462.941945 32.960887 462.941945 43.325945 462.941945 53.691004 462.941945 64.056063 462.941945 74.421121 462.941945 84.786180 462.941945 95.151239 462.941945 105.516297 462.941945 115.881356 462.941945 126.246415 462.941945 136.611473 462.941945 146.976532 462.941945 157.341591 462.941945 167.706649 462.941945 178.071708 462.941945 188.436767 462.941945 198.801825 462.941945 209.166884 462.941945 219.531943 462.941945 229.897001 462.941945 240.262060 462.941945 250.627119 462.941945 260.992177 462.941945 271.357236 462.941943 281.722295 462.941936 292.087353 462.941901 302.452412 462.941751 312.817471 462.941165 323.182529 462.939048 333.547588 462.932036 343.912647 462.910712 354.277705 462.851232 364.642764 462.699180 375.007823 462.343298 385.372881 461.581689 395.737940 460.093974 406.102999 457.447601 416.468057 453.174938 426.833116 446.943697 437.198175 438.795751 447.563233 429.361206 457.928292 419.909389 468.293351 412.129588 478.658409 407.657004 489.023468 407.516438 499.388527 411.741019 509.753585 419.359532 520.118644 428.758956 530.483703 438.237556 540.848761 446.490520 551.213820 452.847133 561.578879 457.234283 571.943937 459.968338 582.308996 461.514451 592.674055 462.310508 603.039113 462.684579 613.404172 462.845287 623.769231 462.908495" /></g><g class="series serie-6 color-6"><path class="line reactive nofill" d="M12.230769 462.941945 L22.595828 462.941945 32.960887 462.941945 43.325945 462.941945 53.691004 462.941945 64.056063 462.941945 74.421121 462.941945 84.786180 462.941945 95.151239 462.941945 105.516297 462.941945 115.881356 462.941945 126.246415 462.941945 136.611473 462.941945 146.976532 462.941945 157.341591 462.941945 167.706649 462.941945 178.071708 462.941945 188.436767 462.941945 198.801825 462.941945 209.166884 462.941945 219.531943 462.941945 229.897001 462.941944 240.262060 462.941941 250.627119 462.941932 260.992177 462.941902 271.357236 462.941810 281.722295 462.941539 292.087353 462.940790 302.452412 462.938832 312.817471 462.933996 323.182529 462.922711 333.547588 462.897846 343.912647 462.846143 354.277705 462.744743 364.642764 462.557319 375.007823 462.231133 385.372881 461.697257 395.737940 460.876775 406.102999 459.695257 416.468057 458.105631 426.833116 456.115762 437.198175 453.812787 447.563233 451.373557 457.928292 449.051877 468.293351 447.139465 478.658409 445.907205 489.023468 445.542510 499.388527 446.102640 509.753585 447.499980 520.118644 449.524485 530.483703 451.895375 540.848761 454.324591 551.213820 456.572379 561.578879 458.480916 571.943937 459.981550 582.308996 461.080485 592.674055 461.832905 603.039113 462.315865 613.404172 462.607055 623.769231 462.772213" /></g><g class="series serie-7 color-7"><path class="line reactive nofill" d="M12.230769 462.941945 L22.595828 462.941945 32.960887 462.941945 43.325945 462.941945 53.691004 462.941945 64.056063 462.941945 74.421121 462.941945 84.786180 462.941945 95.151239 462.941945 105.516297 462.941945 115.881356 462.941945 126.246415 462.941945 136.611473 462.941945 146.976532 462.941945 157.341591 462.941945 167.706649 462.941945 178.071708 462.941944 188.436767 462.941943 198.801825 462.941941 209.166884 462.941934 219.531943 462.941917 229.897001 462.941877 240.262060 462.941784 250.627119 462.941577 260.992177 462.941133 271.357236 462.940213 281.722295 462.938379 292.087353 462.934855 302.452412 462.928334 312.817471 462.916716 323.182529 462.896790 333.547588 462.863912 343.912647 462.811742 354.277705 462.732179 364.642764 462.615642 375.007823 462.451851 385.372881 462.231206 395.737940 461.946742 406.102999 461.596440 416.468057 461.185515 426.833116 460.728096 437.198175 460.247702 447.563233 459.776043 457.928292 459.349999 468.293351 459.007043 478.658409 458.779871 489.023468 458.691275 499.388527 458.750375 509.753585 458.951073 520.118644 459.273090 530.483703 459.685340 540.848761 460.150870 551.213820 460.632277 561.578879 461.096508 571.943937 461.518237 582.308996 461.881437 592.674055 462.179200 603.039113 462.412262 613.404172 462.586785 623.769231 462.712010" /></g><g class="series serie-8 color-8"><path class="line reactive nofill" d="M12.230769 462.941945 L22.595828 462.941945 32.960887 462.941945 43.325945 462.941945 53.691004 462.941945 64.056063 462.941945 74.421121 462.941945 84.786180 462.941945 95.151239 462.941945 105.516297 462.941945 115.881356 462.941945 126.246415 462.941944 136.611473 462.941944 146.976532 462.941943 157.341591 462.941940 167.706649 462.941934 178.071708 462.941924 188.436767 462.941903 198.801825 462.941863 209.166884 462.941789 219.531943 462.941656 229.897001 462.941421 240.262060 462.941015 250.627119 462.940334 260.992177 462.939216 271.357236 462.937428 281.722295 462.934639 292.087353 462.930397 302.452412 462.924110 312.817471 462.915029 323.182529 462.902251 333.547588 462.884742 343.912647 462.861391 354.277705 462.831096 364.642764 462.792890 375.007823 462.746089 385.372881 462.690466 395.737940 462.626416 406.102999 462.555087 416.468057 462.478457 426.833116 462.399321 437.198175 462.321171 447.563233 462.247973 457.928292 462.183848 468.293351 462.132698 478.658409 462.097810 489.023468 462.081513 499.388527 462.084917 509.753585 462.107788 520.118644 462.148577 530.483703 462.204592 540.848761 462.272291 551.213820 462.347654 561.578879 462.426571 571.943937 462.505209 582.308996 462.580294 592.674055 462.649304 603.039113 462.710550 613.404172 462.763153 623.769231 462.806951" /></g><g class="series serie-9 color-9"><path class="line reactive nofill" d="M12.230769 462.941945 L22.595828 462.941945 32.960887 462.941945 43.325945 462.941945 53.691004 462.941945 64.056063 462.941945 74.421121 462.941945 84.786180 462.941945 95.151239 462.941945 105.516297 462.941945 115.881356 462.941945 126.246415 462.941945 136.611473 462.941945 146.976532 462.941945 157.341591 462.941945 167.706649 462.941945 178.071708 462.941945 188.436767 462.941945 198.801825 462.941945 209.166884 462.941945 219.531943 462.941945 229.897001 462.941945 240.262060 462.941945 250.627119 462.941944 260.992177 462.941939 271.357236 462.941909 281.722295 462.941736 292.087353 462.940852 302.452412 462.936821 312.817471 462.920417 323.182529 462.860908 333.547588 462.668664 343.912647 462.116322 354.277705 460.707340 364.642764 457.523609 375.007823 451.171914 385.372881 440.036663 395.737940 423.008192 406.102999 400.569752 416.468057 375.667252 426.833116 353.538233 437.198175 340.078637 447.563233 339.330475 457.928292 351.527435 468.293351 372.977448 478.658409 397.862030 489.023468 420.765574 499.388527 438.454816 509.753585 450.205362 520.118644 457.007031 530.483703 460.464395 540.848761 462.015378 551.213820 462.631505 561.578879 462.848764 571.943937 462.916888 582.308996 462.935909 592.674055 462.940642 603.039113 462.941693 613.404172 462.941901 623.769231 462.941938" /></g><g class="series serie-10 color-10"><path class="line reactive nofill" d="M12.230769 462.941945 L22.595828 462.941945 32.960887 462.941945 43.325945 462.941945 53.691004 462.941945 64.056063 462.941945 74.421121 462.941945 84.786180 462.941945 95.151239 462.941945 105.516297 462.941945 115.881356 462.941945 126.246415 462.941945 136.611473 462.941945 146.976532 462.941945 157.341591 462.941945 167.706649 462.941945 178.071708 462.941945 188.436767 462.941945 198.801825 462.941944 209.166884 462.941941 219.531943 462.941927 229.897001 462.941858 240.262060 462.941558 250.627119 462.940356 260.992177 462.935946 271.357236 462.921113 281.722295 462.875398 292.087353 462.746400 302.452412 462.413393 312.817471 461.627778 323.182529 459.936315 333.547588 456.618656 343.912647 450.705008 354.277705 441.158591 364.642764 427.272281 375.007823 409.214576 385.372881 388.500568 395.737940 368.066134 406.102999 351.712729 416.468057 342.990764 426.833116 343.951400 437.198175 354.363741 447.563233 371.804861 457.928292 392.574809 468.293351 412.965323 478.658409 430.291718 489.023468 443.320645 499.388527 452.095395 509.753585 457.426536 520.118644 460.362144 530.483703 461.831961 540.848761 462.502636 551.213820 462.782009 561.578879 462.888385 571.943937 462.925446 582.308996 462.937270 592.674055 462.940726 603.039113 462.941653 613.404172 462.941880 623.769231 462.941932" /></g><g class="series serie-11 color-11"><path class="line reactive nofill" d="M12.230769 462.941945 L22.595828 462.941945 32.960887 462.941945 43.325945 462.941945 53.691004 462.941945 64.056063 462.941945 74.421121 462.941945 84.786180 462.941945 95.151239 462.941945 105.516297 462.941945 115.881356 462.941945 126.246415 462.941945 136.611473 462.941945 146.976532 462.941944 157.341591 462.941941 167.706649 462.941927 178.071708 462.941870 188.436767 462.941655 198.801825 462.940900 209.166884 462.938420 219.531943 462.930825 229.897001 462.909139 240.262060 462.851436 250.627119 462.708421 260.992177 462.378475 271.357236 461.670470 281.722295 460.258812 292.087353 457.646843 302.452412 453.169476 312.817471 446.075174 323.182529 435.717608 333.547588 421.847759 343.912647 404.932170 354.277705 386.361181 364.642764 368.397521 375.007823 353.785380 385.372881 345.083280 395.737940 343.935389 406.102999 350.564805 416.468057 363.702854 426.833116 380.985088 437.198175 399.644595 447.563233 417.224340 457.928292 432.061814 468.293351 443.435752 478.658409 451.418997 489.023468 456.576153 499.388527 459.653134 509.753585 461.352947 520.118644 462.223977 530.483703 462.638566 540.848761 462.822061 551.213820 462.897641 561.578879 462.926634 571.943937 462.936996 582.308996 462.940449 592.674055 462.941522 603.039113 462.941833 613.404172 462.941917 623.769231 462.941938" /></g><g class="series serie-12 color-12"><path class="line reactive nofill" d="M12.230769 462.941945 L22.595828 462.941945 32.960887 462.941945 43.325945 462.941945 53.691004 462.941945 64.056063 462.941945 74.421121 462.941945 84.786180 462.941944 95.151239 462.941942 105.516297 462.941935 115.881356 462.941910 126.246415 462.941820 136.611473 462.941528 146.976532 462.940625 157.341591 462.937987 167.706649 462.930716 178.071708 462.911790 188.436767 462.865308 198.801825 462.757608 209.166884 462.522309 219.531943 462.037841 229.897001 461.098411 240.262060 459.384242 250.627119 456.444024 260.992177 451.709731 271.357236 444.566306 281.722295 434.490410 292.087353 421.249719 302.452412 405.120275 312.817471 387.047092 323.182529 368.661816 333.547588 352.097441 343.912647 339.604681 354.277705 333.056463 364.642764 333.488664 375.007823 340.831823 385.372881 353.929415 395.737940 370.836072 406.102999 389.289973 416.468057 407.201865 426.833116 423.017678 437.198175 435.877915 447.563233 445.578571 457.928292 452.399000 468.293351 456.883294 478.658409 459.646789 489.023468 461.245803 499.388527 462.115651 509.753585 462.560973 520.118644 462.775704 530.483703 462.873290 540.848761 462.915111 551.213820 462.932019 561.578879 462.938470 571.943937 462.940793 582.308996 462.941584 592.674055 462.941838 603.039113 462.941915 613.404172 462.941937 623.769231 462.941943" /></g><g class="series serie-13 color-13"><path class="line reactive nofill" d="M12.230769 462.930040 L22.595828 462.919790 32.960887 462.901603 43.325945 462.870064 53.691004 462.816625 64.056063 462.728155 74.421121 462.585074 84.786180 462.359049 95.151239 462.010349 105.516297 461.485074 115.881356 460.712630 126.246415 459.604007 136.611473 458.051573 146.976532 455.931232 157.341591 453.107741 167.706649 449.443834 178.071708 444.813378 188.436767 439.118164 198.801825 432.307176 209.166884 424.396306 219.531943 415.485784 229.897001 405.772144 240.262060 395.551631 250.627119 385.212602 260.992177 375.215762 271.357236 366.062825 281.722295 358.256126 292.087353 352.253510 302.452412 348.424050 312.817471 347.010517 323.182529 348.103916 333.547588 351.633787 343.912647 357.375723 354.277705 364.974973 364.642764 373.982697 375.007823 383.899704 385.372881 394.221794 395.737940 404.481020 406.102999 414.278374 416.468057 423.305108 426.833116 431.351865 437.198175 438.306570 447.563233 444.143395 457.928292 448.905852 468.293351 452.687200 478.658409 455.610996 489.023468 457.813895 499.388527 459.431994 509.753585 460.591195 520.118644 461.401420 530.483703 461.954103 540.848761 462.322128 551.213820 462.561409 561.578879 462.713340 571.943937 462.807566 582.308996 462.864653 592.674055 462.898445 603.039113 462.917989 613.404172 462.929036 623.769231 462.935139" /></g></g><g class="titles"><text class="title plot_title" x="400.0" y="26">Iteration #2</text><text class="title" x="462.0" y="580.0">Observation</text><text class="title" transform="rotate(-90 64.000000 282.009619)" x="64.0" y="308.0096189432334">Density</text></g><g class="plot overlay" transform="translate(144, 46)"><g class="series serie-0 color-0" /><g class="series serie-1 color-1" /><g class="series serie-2 color-2" /><g class="series serie-3 color-3" /><g class="series serie-4 color-4" /><g class="series serie-5 color-5" /><g class="series serie-6 color-6" /><g class="series serie-7 color-7" /><g class="series serie-8 color-8" /><g class="series serie-9 color-9" /><g class="series serie-10 color-10" /><g class="series serie-11 color-11" /><g class="series serie-12 color-12" /><g class="series serie-13 color-13" /></g><g class="plot text-overlay" transform="translate(144, 46)"><g class="series serie-0 color-0" /><g class="series serie-1 color-1" /><g class="series serie-2 color-2" /><g class="series serie-3 color-3" /><g class="series serie-4 color-4" /><g class="series serie-5 color-5" /><g class="series serie-6 color-6" /><g class="series serie-7 color-7" /><g class="series serie-8 color-8" /><g class="series serie-9 color-9" /><g class="series serie-10 color-10" /><g class="series serie-11 color-11" /><g class="series serie-12 color-12" /><g class="series serie-13 color-13" /></g><g class="plot tooltip-overlay" transform="translate(144, 46)"><g class="tooltip" style="opacity: 0" transform="translate(0 0)"><rect class="tooltip-box" height="0" rx="0" ry="0" width="0" /><g class="text" /></g></g><g class="legends" transform="translate(10, 56)"><g class="legend reactive activate-serie" id="activate-serie-0"><rect class="color-0 reactive" height="12" width="12" x="0.0" y="0.0" /><text x="17.0" y="9.0">Data</text></g><g class="legend reactive activate-serie" id="activate-serie-1"><rect class="color-1 reactive" height="12" width="12" x="0.0" y="18.0" /><text x="17.0" y="27.0">GMM</text></g><g class="legend reactive activate-serie" id="activate-serie-2"><rect class="color-2 reactive" height="12" width="12" x="0.0" y="36.0" /><text x="17.0" y="45.0">i=0</text></g><g class="legend reactive activate-serie" id="activate-serie-3"><rect class="color-3 reactive" height="12" width="12" x="0.0" y="54.0" /><text x="17.0" y="63.0">i=1</text></g><g class="legend reactive activate-serie" id="activate-serie-4"><rect class="color-4 reactive" height="12" width="12" x="0.0" y="72.0" /><text x="17.0" y="81.0">i=0 k=0</text></g><g class="legend reactive activate-serie" id="activate-serie-5"><rect class="color-5 reactive" height="12" width="12" x="0.0" y="90.0" /><text x="17.0" y="99.0">i=0 k=1</text></g><g class="legend reactive activate-serie" id="activate-serie-6"><rect class="color-6 reactive" height="12" width="12" x="0.0" y="108.0" /><text x="17.0" y="117.0">i=0 k=2</text></g><g class="legend reactive activate-serie" id="activate-serie-7"><rect class="color-7 reactive" height="12" width="12" x="0.0" y="126.0" /><text x="17.0" y="135.0">i=0 k=3</text></g><g class="legend reactive activate-serie" id="activate-serie-8"><rect class="color-8 reactive" height="12" width="12" x="0.0" y="144.0" /><text x="17.0" y="153.0">i=0 k=4</text></g><g class="legend reactive activate-serie" id="activate-serie-9"><rect class="color-9 reactive" height="12" width="12" x="0.0" y="162.0" /><text x="17.0" y="171.0">i=1 k=0</text></g><g class="legend reactive activate-serie" id="activate-serie-10"><rect class="color-10 reactive" height="12" width="12" x="0.0" y="180.0" /><text x="17.0" y="189.0">i=1 k=1</text></g><g class="legend reactive activate-serie" id="activate-serie-11"><rect class="color-11 reactive" height="12" width="12" x="0.0" y="198.0" /><text x="17.0" y="207.0">i=1 k=2</text></g><g class="legend reactive activate-serie" id="activate-serie-12"><rect class="color-12 reactive" height="12" width="12" x="0.0" y="216.0" /><text x="17.0" y="225.0">i=1 k=3</text></g><g class="legend reactive activate-serie" id="activate-serie-13"><rect class="color-13 reactive" height="12" width="12" x="0.0" y="234.0" /><text x="17.0" y="243.0">i=1 k=4</text></g></g><g class="legends" transform="translate(790, 56)" /></g></svg>