<?xml version='1.0' encoding='utf-8'?>
<svg xmlns:xlink="http://www.w3.org/1999/xlink" class="pygal-chart" id="chart-b6041e8e-3a2e-4609-a464-37d2b76733c2" viewBox="0 0 800 600" xmlns="http://www.w3.org/2000/svg"><!--Generated with pygal 2.4.0 (etree) ©Kozea 2012-2016 on 2017-12-19--><!--http://pygal.org--><!--http://github.com/Kozea/pygal--><defs><style type="text/css">#chart-b6041e8e-3a2e-4609-a464-37d2b76733c2{-webkit-user-select:none;-webkit-font-smoothing:antialiased;font-family:Consolas,"Liberation Mono",Menlo,Courier,monospace}#chart-b6041e8e-3a2e-4609-a464-37d2b76733c2 .title{font-family:Consolas,"Liberation Mono",Menlo,Courier,monospace;font-size:16px}#chart-b6041e8e-3a2e-4609-a464-37d2b76733c2 .legends .legend text{font-family:Consolas,"Liberation Mono",Menlo,Courier,monospace;font-size:10px}#chart-b6041e8e-3a2e-4609-a464-37d2b76733c2 .axis text{font-family:Consolas,"Liberation Mono",Menlo,Courier,monospace;font-size:10px}#chart-b6041e8e-3a2e-4609-a464-37d2b76733c2 .axis text.major{font-family:Consolas,"Liberation Mono",Menlo,Courier,monospace;font-size:10px}#chart-b6041e8e-3a2e-4609-a464-37d2b76733c2 .text-overlay text.value{font-family:Consolas,"Liberation Mono",Menlo,Courier,monospace;font-size:16px}#chart-b6041e8e-3a2e-4609-a464-37d2b76733c2 .text-overlay text.label{font-family:Consolas,"Liberation Mono",Menlo,Courier,monospace;font-size:10px}#chart-b6041e8e-3a2e-4609-a464-37d2b76733c2 .tooltip{font-family:Consolas,"Liberation Mono",Menlo,Courier,monospace;font-size:14px}#chart-b6041e8e-3a2e-4609-a464-37d2b76733c2 text.no_data{font-family:Consolas,"Liberation Mono",Menlo,Courier,monospace;font-size:64px}
#chart-b6041e8e-3a2e-4609-a464-37d2b76733c2{background-color:rgba(249,249,249,1)}#chart-b6041e8e-3a2e-4609-a464-37d2b76733c2 path,#chart-b6041e8e-3a2e-4609-a464-37d2b76733c2 line,#chart-b6041e8e-3a2e-4609-a464-37d2b76733c2 rect,#chart-b6041e8e-3a2e-4609-a464-37d2b76733c2 circle{-webkit-transition:150ms;-moz-transition:150ms;transition:150ms}#chart-b6041e8e-3a2e-4609-a464-37d2b76733c2 .graph &gt; .background{fill:rgba(249,249,249,1)}#chart-b6041e8e-3a2e-4609-a464-37d2b76733c2 .plot &gt; .background{fill:rgba(255,255,255,1)}#chart-b6041e8e-3a2e-4609-a464-37d2b76733c2 .graph{fill:rgba(0,0,0,.87)}#chart-b6041e8e-3a2e-4609-a464-37d2b76733c2 text.no_data{fill:rgba(0,0,0,1)}#chart-b6041e8e-3a2e-4609-a464-37d2b76733c2 .title{fill:rgba(0,0,0,1)}#chart-b6041e8e-3a2e-4609-a464-37d2b76733c2 .legends .legend text{fill:rgba(0,0,0,.87)}#chart-b6041e8e-3a2e-4609-a464-37d2b76733c2 .legends .legend:hover text{fill:rgba(0,0,0,1)}#chart-b6041e8e-3a2e-4609-a464-37d2b76733c2 .axis .line{stroke:rgba(0,0,0,1)}#chart-b6041e8e-3a2e-4609-a464-37d2b76733c2 .axis .guide.line{stroke:rgba(0,0,0,.54)}#chart-b6041e8e-3a2e-4609-a464-37d2b76733c2 .axis .major.line{stroke:rgba(0,0,0,.87)}#chart-b6041e8e-3a2e-4609-a464-37d2b76733c2 .axis text.major{fill:rgba(0,0,0,1)}#chart-b6041e8e-3a2e-4609-a464-37d2b76733c2 .axis.y .guides:hover .guide.line,#chart-b6041e8e-3a2e-4609-a464-37d2b76733c2 .line-graph .axis.x .guides:hover .guide.line,#chart-b6041e8e-3a2e-4609-a464-37d2b76733c2 .stackedline-graph .axis.x .guides:hover .guide.line,#chart-b6041e8e-3a2e-4609-a464-37d2b76733c2 .xy-graph .axis.x .guides:hover .guide.line{stroke:rgba(0,0,0,1)}#chart-b6041e8e-3a2e-4609-a464-37d2b76733c2 .axis .guides:hover text{fill:rgba(0,0,0,1)}#chart-b6041e8e-3a2e-4609-a464-37d2b76733c2 .reactive{fill-opacity:.7;stroke-opacity:.8}#chart-b6041e8e-3a2e-4609-a464-37d2b76733c2 .ci{stroke:rgba(0,0,0,.87)}#chart-b6041e8e-3a2e-4609-a464-37d2b76733c2 .reactive.active,#chart-b6041e8e-3a2e-4609-a464-37d2b76733c2 .active .reactive{fill-opacity:.8;stroke-opacity:.9;stroke-width:4}#chart-b6041e8e-3a2e-4609-a464-37d2b76733c2 .ci .reactive.active{stroke-width:1.5}#chart-b6041e8e-3a2e-4609-a464-37d2b76733c2 .series text{fill:rgba(0,0,0,1)}#chart-b6041e8e-3a2e-4609-a464-37d2b76733c2 .tooltip rect{fill:rgba(255,255,255,1);stroke:rgba(0,0,0,1);-webkit-transition:opacity 150ms;-moz-transition:opacity 150ms;transition:opacity 150ms}#chart-b6041e8e-3a2e-4609-a464-37d2b76733c2 .tooltip .label{fill:rgba(0,0,0,.87)}#chart-b6041e8e-3a2e-4609-a464-37d2b76733c2 .tooltip .label{fill:rgba(0,0,0,.87)}#chart-b6041e8e-3a2e-4609-a464-37d2b76733c2 .tooltip .legend{font-size:.8em;fill:rgba(0,0,0,.54)}#chart-b6041e8e-3a2e-4609-a464-37d2b76733c2 .tooltip .x_label{font-size:.6em;fill:rgba(0,0,0,1)}#chart-b6041e8e-3a2e-4609-a464-37d2b76733c2 .tooltip .xlink{font-size:.5em;text-decoration:underline}#chart-b6041e8e-3a2e-4609-a464-37d2b76733c2 .tooltip .value{font-size:1.5em}#chart-b6041e8e-3a2e-4609-a464-37d2b76733c2 .bound{font-size:.5em}#chart-b6041e8e-3a2e-4609-a464-37d2b76733c2 .max-value{font-size:.75em;fill:rgba(0,0,0,.54)}#chart-b6041e8e-3a2e-4609-a464-37d2b76733c2 .map-element{fill:rgba(255,255,255,1);stroke:rgba(0,0,0,.54) !important}#chart-b6041e8e-3a2e-4609-a464-37d2b76733c2 .map-element .reactive{fill-opacity:inherit;stroke-opacity:inherit}#chart-b6041e8e-3a2e-4609-a464-37d2b76733c2 .color-0,#chart-b6041e8e-3a2e-4609-a464-37d2b76733c2 .color-0 a:visited{stroke:#909090;fill:#909090}#chart-b6041e8e-3a2e-4609-a464-37d2b76733c2 .color-1,#chart-b6041e8e-3a2e-4609-a464-37d2b76733c2 .color-1 a:visited{stroke:#000000;fill:#000000}#chart-b6041e8e-3a2e-4609-a464-37d2b76733c2 .color-2,#chart-b6041e8e-3a2e-4609-a464-37d2b76733c2 .color-2 a:visited{stroke:#ff0500;fill:#ff0500}#chart-b6041e8e-3a2e-4609-a464-37d2b76733c2 .color-3,#chart-b6041e8e-3a2e-4609-a464-37d2b76733c2 .color-3 a:visited{stroke:#323299;fill:#323299}#chart-b6041e8e-3a2e-4609-a464-37d2b76733c2 .color-4,#chart-b6041e8e-3a2e-4609-a464-37d2b76733c2 .color-4 a:visited{stroke:#a3413f;fill:#a3413f}#chart-b6041e8e-3a2e-4609-a464-37d2b76733c2 .color-5,#chart-b6041e8e-3a2e-4609-a464-37d2b76733c2 .color-5 a:visited{stroke:#a3413f;fill:#a3413f}#chart-b6041e8e-3a2e-4609-a464-37d2b76733c2 .color-6,#chart-b6041e8e-3a2e-4609-a464-37d2b76733c2 .color-6 a:visited{stroke:#a3413f;fill:#a3413f}#chart-b6041e8e-3a2e-4609-a464-37d2b76733c2 .color-7,#chart-b6041e8e-3a2e-4609-a464-37d2b76733c2 .color-7 a:visited{stroke:#a3413f;fill:#a3413f}#chart-b6041e8e-3a2e-4609-a464-37d2b76733c2 .color-8,#chart-b6041e8e-3a2e-4609-a464-37d2b76733c2 .color-8 a:visited{stroke:#a3413f;fill:#a3413f}#chart-b6041e8e-3a2e-4609-a464-37d2b76733c2 .color-9,#chart-b6041e8e-3a2e-4609-a464-37d2b76733c2 .color-9 a:visited{stroke:#657fff;fill:#657fff}#chart-b6041e8e-3a2e-4609-a464-37d2b76733c2 .color-10,#chart-b6041e8e-3a2e-4609-a464-37d2b76733c2 .color-10 a:visited{stroke:#657fff;fill:#657fff}#chart-b6041e8e-3a2e-4609-a464-37d2b76733c2 .color-11,#chart-b6041e8e-3a2e-4609-a464-37d2b76733c2 .color-11 a:visited{stroke:#657fff;fill:#657fff}#chart-b6041e8e-3a2e-4609-a464-37d2b76733c2 .color-12,#chart-b6041e8e-3a2e-4609-a464-37d2b76733c2 .color-12 a:visited{stroke:#657fff;fill:#657fff}#chart-b6041e8e-3a2e-4609-a464-37d2b76733c2 .color-13,#chart-b6041e8e-3a2e-4609-a464-37d2b76733c2 .color-13 a:visited{stroke:#657fff;fill:#657fff}#chart-b6041e8e-3a2e-4609-a464-37d2b76733c2 .text-overlay .color-0 text{fill:black}#chart-b6041e8e-3a2e-4609-a464-37d2b76733c2 .text-overlay .color-1 text{fill:white}#chart-b6041e8e-3a2e-4609-a464-37d2b76733c2 .text-overlay .color-2 text{fill:black}#chart-b6041e8e-3a2e-4609-a464-37d2b76733c2 .text-overlay .color-3 text{fill:black}#chart-b6041e8e-3a2e-4609-a464-37d2b76733c2 .text-overlay .color-4 text{fill:black}#chart-b6041e8e-3a2e-4609-a464-37d2b76733c2 .text-overlay .color-5 text{fill:black}#chart-b6041e8e-3a2e-4609-a464-37d2b76733c2 .text-overlay .color-6 text{fill:black}#chart-b6041e8e-3a2e-4609-a464-37d2b76733c2 .text-overlay .color-7 text{fill:black}#chart-b6041e8e-3a2e-4609-a464-37d2b76733c2 .text-overlay .color-8 text{fill:black}#chart-b6041e8e-3a2e-4609-a464-37d2b76733c2 .text-overlay .color-9 text{fill:black}#chart-b6041e8e-3a2e-4609-a464-37d2b76733c2 .text-overlay .color-10 text{fill:black}#chart-b6041e8e-3a2e-4609-a464-37d2b76733c2 .text-overlay .color-11 text{fill:black}#chart-b6041e8e-3a2e-4609-a464-37d2b76733c2 .text-overlay .color-12 text{fill:black}#chart-b6041e8e-3a2e-4609-a464-37d2b76733c2 .text-overlay .color-13 text{fill:black}#chart-b6041e8e-3a2e-4609-a464-37d2b76733c2 .series.serie-1{stroke-width:5}#chart-b6041e8e-3a2e-4609-a464-37d2b76733c2 .series.serie-2{stroke-width:3}#chart-b6041e8e-3a2e-4609-a464-37d2b76733c2 .series.serie-3{stroke-width:3}#chart-b6041e8e-3a2e-4609-a464-37d2b76733c2 .series.serie-4{stroke-width:2;stroke-dasharray:2,2}#chart-b6041e8e-3a2e-4609-a464-37d2b76733c2 .series.serie-5{stroke-width:2;stroke-dasharray:2,2}#chart-b6041e8e-3a2e-4609-a464-37d2b76733c2 .series.serie-6{stroke-width:2;stroke-dasharray:2,2}#chart-b6041e8e-3a2e-4609-a464-37d2b76733c2 .series.serie-7{stroke-width:2;stroke-dasharray:2,2}#chart-b6041e8e-3a2e-4609-a464-37d2b76733c2 .series.serie-8{stroke-width:2;stroke-dasharray:2,2}#chart-b6041e8e-3a2e-4609-a464-37d2b76733c2 .series.serie-9{stroke-width:2;stroke-dasharray:2,2}#chart-b6041e8e-3a2e-4609-a464-37d2b76733c2 .series.serie-10{stroke-width:2;stroke-dasharray:2,2}#chart-b6041e8e-3a2e-4609-a464-37d2b76733c2 .series.serie-11{stroke-width:2;stroke-dasharray:2,2}#chart-b6041e8e-3a2e-4609-a464-37d2b76733c2 .series.serie-12{stroke-width:2;stroke-dasharray:2,2}#chart-b6041e8e-3a2e-4609-a464-37d2b76733c2 .series.serie-13{stroke-width:2;stroke-dasharray:2,2}
#chart-b6041e8e-3a2e-4609-a464-37d2b76733c2 text.no_data{text-anchor:middle}#chart-b6041e8e-3a2e-4609-a464-37d2b76733c2 .guide.line{fill:none}#chart-b6041e8e-3a2e-4609-a464-37d2b76733c2 .centered{text-anchor:middle}#chart-b6041e8e-3a2e-4609-a464-37d2b76733c2 .title{text-anchor:middle}#chart-b6041e8e-3a2e-4609-a464-37d2b76733c2 .legends .legend text{fill-opacity:1}#chart-b6041e8e-3a2e-4609-a464-37d2b76733c2 .axis.x text{text-anchor:middle}#chart-b6041e8e-3a2e-4609-a464-37d2b76733c2 .axis.x:not(.web) text[transform]{text-anchor:start}#chart-b6041e8e-3a2e-4609-a464-37d2b76733c2 .axis.x:not(.web) text[transform].backwards{text-anchor:end}#chart-b6041e8e-3a2e-4609-a464-37d2b76733c2 .axis.y text{text-anchor:end}#chart-b6041e8e-3a2e-4609-a464-37d2b76733c2 .axis.y text[transform].backwards{text-anchor:start}#chart-b6041e8e-3a2e-4609-a464-37d2b76733c2 .axis.y2 text{text-anchor:start}#chart-b6041e8e-3a2e-4609-a464-37d2b76733c2 .axis.y2 text[transform].backwards{text-anchor:end}#chart-b6041e8e-3a2e-4609-a464-37d2b76733c2 .axis .guide.line{stroke-dasharray:4,4}#chart-b6041e8e-3a2e-4609-a464-37d2b76733c2 .axis .major.guide.line{stroke-dasharray:6,6}#chart-b6041e8e-3a2e-4609-a464-37d2b76733c2 .horizontal .axis.y .guide.line,#chart-b6041e8e-3a2e-4609-a464-37d2b76733c2 .horizontal .axis.y2 .guide.line,#chart-b6041e8e-3a2e-4609-a464-37d2b76733c2 .vertical .axis.x .guide.line{opacity:0}#chart-b6041e8e-3a2e-4609-a464-37d2b76733c2 .horizontal .axis.always_show .guide.line,#chart-b6041e8e-3a2e-4609-a464-37d2b76733c2 .vertical .axis.always_show .guide.line{opacity:1 !important}#chart-b6041e8e-3a2e-4609-a464-37d2b76733c2 .axis.y .guides:hover .guide.line,#chart-b6041e8e-3a2e-4609-a464-37d2b76733c2 .axis.y2 .guides:hover .guide.line,#chart-b6041e8e-3a2e-4609-a464-37d2b76733c2 .axis.x .guides:hover .guide.line{opacity:1}#chart-b6041e8e-3a2e-4609-a464-37d2b76733c2 .axis .guides:hover text{opacity:1}#chart-b6041e8e-3a2e-4609-a464-37d2b76733c2 .nofill{fill:none}#chart-b6041e8e-3a2e-4609-a464-37d2b76733c2 .subtle-fill{fill-opacity:.2}#chart-b6041e8e-3a2e-4609-a464-37d2b76733c2 .dot{stroke-width:1px;fill-opacity:1}#chart-b6041e8e-3a2e-4609-a464-37d2b76733c2 .dot.active{stroke-width:5px}#chart-b6041e8e-3a2e-4609-a464-37d2b76733c2 .dot.negative{fill:transparent}#chart-b6041e8e-3a2e-4609-a464-37d2b76733c2 text,#chart-b6041e8e-3a2e-4609-a464-37d2b76733c2 tspan{stroke:none !important}#chart-b6041e8e-3a2e-4609-a464-37d2b76733c2 .series text.active{opacity:1}#chart-b6041e8e-3a2e-4609-a464-37d2b76733c2 .tooltip rect{fill-opacity:.95;stroke-width:.5}#chart-b6041e8e-3a2e-4609-a464-37d2b76733c2 .tooltip text{fill-opacity:1}#chart-b6041e8e-3a2e-4609-a464-37d2b76733c2 .showable{visibility:hidden}#chart-b6041e8e-3a2e-4609-a464-37d2b76733c2 .showable.shown{visibility:visible}#chart-b6041e8e-3a2e-4609-a464-37d2b76733c2 .gauge-background{fill:rgba(229,229,229,1);stroke:none}#chart-b6041e8e-3a2e-4609-a464-37d2b76733c2 .bg-lines{stroke:rgba(249,249,249,1);stroke-width:2px}</style><script type="text/javascript">window.pygal = window.pygal || {};window.pygal.config = window.pygal.config || {};window.pygal.config['b6041e8e-3a2e-4609-a464-37d2b76733c2'] = {"css": ["file://style.css", "file://graph.css"], "include_x_axis": false, "min_scale": 4, "print_zeroes": true, "show_x_labels": true, "stroke": true, "show_minor_y_labels": true, "inner_radius": 0, "fill": false, "pretty_print": false, "js": ["//kozea.github.io/pygal.js/2.0.x/pygal-tooltips.min.js"], "x_labels": ["-8.96", "-8.76", "-8.56", "-8.36", "-8.16", "-7.96", "-7.76", "-7.56", "-7.36", "-7.16", "-6.96", "-6.76", "-6.56", "-6.36", "-6.16", "-5.96", "-5.76", "-5.56", "-5.36", "-5.16", "-4.96", "-4.76", "-4.56", "-4.36", "-4.16", "-3.96", "-3.76", "-3.56", "-3.36", "-3.16", "-2.96", "-2.76", "-2.56", "-2.36", "-2.16", "-1.96", "-1.76", "-1.56", "-1.36", "-1.16", "-0.96", "-0.76", "-0.56", "-0.36", "-0.16", "0.04", "0.24", "0.44", "0.64", "0.84", "1.04", "1.24", "1.43", "1.63", "1.83", "2.03", "2.23", "2.43", "2.63", "2.83"], "logarithmic": false, "show_minor_x_labels": false, "formatter": null, "tooltip_fancy_mode": true, "defs": [], "stroke_style": null, "spacing": 10, "show_only_major_dots": false, "half_pie": false, "show_legend": true, "dynamic_print_values": false, "max_scale": 16, "explicit_size": false, "y_label_rotation": 0, "y_labels": null, "x_labels_major": null, "margin_top": null, "interpolation_precision": 250, "xrange": null, "order_min": null, "y_title": "Density", "title": "Iteration #8", "x_label_rotation": 60, "interpolation_parameters": {}, "stack_from_top": false, "truncate_legend": null, "x_title": "Observation", "show_y_guides": true, "no_prefix": false, "print_values_position": "center", "show_y_labels": true, "classes": ["pygal-chart"], "force_uri_protocol": "https", "x_labels_major_count": null, "allow_interruptions": false, "width": 800, "height": 600, "secondary_range": null, "box_mode": "extremes", "margin_left": null, "y_labels_major": null, "margin_right": null, "zero": 0, "dots_size": 2.5, "no_data_text": "No data", "show_dots": false, "range": [0, 0.27578580090479526], "truncate_label": null, "margin_bottom": null, "y_labels_major_every": null, "show_x_guides": false, "disable_xml_declaration": false, "print_values": false, "x_labels_major_every": 2, "print_labels": false, "y_labels_major_count": null, "interpolate": null, "legend_at_bottom": false, "style": {"value_font_size": 16, "tooltip_font_family": "Consolas, \"Liberation Mono\", Menlo, Courier, monospace", "major_label_font_family": "Consolas, \"Liberation Mono\", Menlo, Courier, monospace", "value_colors": [], "value_background": "rgba(229, 229, 229, 1)", "foreground_strong": "rgba(0, 0, 0, 1)", "opacity": ".7", "font_family": "Consolas, \"Liberation Mono\", Menlo, Courier, monospace", "label_font_size": 10, "transition": "150ms", "title_font_family": "Consolas, \"Liberation Mono\", Menlo, Courier, monospace", "background": "rgba(249, 249, 249, 1)", "stroke_opacity": ".8", "no_data_font_size": 64, "value_label_font_family": "Consolas, \"Liberation Mono\", Menlo, Courier, monospace", "value_label_font_size": 10, "value_font_family": "Consolas, \"Liberation Mono\", Menlo, Courier, monospace", "plot_background": "rgba(255, 255, 255, 1)", "colors": ["#909090", "#000000", "#ff0500", "#323299", "#a3413f", "#a3413f", "#a3413f", "#a3413f", "#a3413f", "#657fff", "#657fff", "#657fff", "#657fff", "#657fff"], "legend_font_size": 10, "guide_stroke_dasharray": "4,4", "major_label_font_size": 10, "stroke_opacity_hover": ".9", "major_guide_stroke_dasharray": "6,6", "opacity_hover": ".8", "no_data_font_family": "Consolas, \"Liberation Mono\", Menlo, Courier, monospace", "title_font_size": 16, "ci_colors": [], "foreground": "rgba(0, 0, 0, .87)", "foreground_subtle": "rgba(0, 0, 0, .54)", "legend_font_family": "Consolas, \"Liberation Mono\", Menlo, Courier, monospace", "label_font_family": "Consolas, \"Liberation Mono\", Menlo, Courier, monospace", "tooltip_font_size": 14}, "strict": false, "legend_box_size": 12, "tooltip_border_radius": 0, "margin": 20, "legends": ["Data", "GMM", "i=0", "i=1", "i=0 k=0", "i=0 k=1", "i=0 k=2", "i=0 k=3", "i=0 k=4", "i=1 k=0", "i=1 k=1", "i=1 k=2", "i=1 k=3", "i=1 k=4"], "inverse_y_axis": false, "legend_at_bottom_columns": null, "rounded_bars": null, "missing_value_fill_truncation": "x"}</script><script type="text/javascript" xlink:href="https://kozea.github.io/pygal.js/2.0.x/pygal-tooltips.min.js" /></defs><title>Iteration #8</title><g class="graph line-graph vertical"><rect class="background" height="600" width="800" x="0" y="0" /><g class="plot" transform="translate(144, 46)"><rect class="background" height="472.01923788646684" width="636.0" x="0" y="0" /><g class="axis y always_show"><g class="guides"><path class="axis major line" d="M0.000000 462.941945 h636.000000" /><text class="major" x="-5" y="466.44194485">0</text><title>0</title></g><g class="guides"><path class="guide line" d="M0.000000 430.027658 h636.000000" /><text class="" x="-5" y="433.527657724">0.02</text><title>0.02</title></g><g class="guides"><path class="guide line" d="M0.000000 397.113371 h636.000000" /><text class="" x="-5" y="400.613370598">0.04</text><title>0.04</title></g><g class="guides"><path class="guide line" d="M0.000000 364.199083 h636.000000" /><text class="" x="-5" y="367.699083472">0.06</text><title>0.06</title></g><g class="guides"><path class="guide line" d="M0.000000 331.284796 h636.000000" /><text class="" x="-5" y="334.784796346">0.08</text><title>0.08</title></g><g class="guides"><path class="guide line" d="M0.000000 298.370509 h636.000000" /><text class="" x="-5" y="301.87050922">0.1</text><title>0.1</title></g><g class="guides"><path class="guide line" d="M0.000000 265.456222 h636.000000" /><text class="" x="-5" y="268.956222094">0.12</text><title>0.12</title></g><g class="guides"><path class="guide line" d="M0.000000 232.541935 h636.000000" /><text class="" x="-5" y="236.041934968">0.14</text><title>0.14</title></g><g class="guides"><path class="guide line" d="M0.000000 199.627648 h636.000000" /><text class="" x="-5" y="203.127647841">0.16</text><title>0.16</title></g><g class="guides"><path class="guide line" d="M0.000000 166.713361 h636.000000" /><text class="" x="-5" y="170.213360715">0.18</text><title>0.18</title></g><g class="guides"><path class="guide line" d="M0.000000 133.799074 h636.000000" /><text class="" x="-5" y="137.299073589">0.2</text><title>0.2</title></g><g class="guides"><path class="guide line" d="M0.000000 100.884786 h636.000000" /><text class="" x="-5" y="104.384786463">0.22</text><title>0.22</title></g><g class="guides"><path class="guide line" d="M0.000000 67.970499 h636.000000" /><text class="" x="-5" y="71.4704993371">0.24</text><title>0.24</title></g><g class="guides"><path class="guide line" d="M0.000000 35.056212 h636.000000" /><text class="" x="-5" y="38.5562122111">0.26</text><title>0.26</title></g></g><g class="axis x"><g class="guides"><path class="major line" d="M12.230769 0.000000 v472.019238" /><text class="major" transform="rotate(60 12.230769 487.019238)" x="12.230769230769232" y="487.01923788646684">-8.96</text></g><g class="guides"><path class="major guide line" d="M32.960887 0.000000 v472.019238" /><text class="major" transform="rotate(60 32.960887 487.019238)" x="32.96088657105606" y="487.01923788646684">-8.56</text></g><g class="guides"><path class="major guide line" d="M53.691004 0.000000 v472.019238" /><text class="major" transform="rotate(60 53.691004 487.019238)" x="53.6910039113429" y="487.01923788646684">-8.16</text></g><g class="guides"><path class="major guide line" d="M74.421121 0.000000 v472.019238" /><text class="major" transform="rotate(60 74.421121 487.019238)" x="74.42112125162973" y="487.01923788646684">-7.76</text></g><g class="guides"><path class="major guide line" d="M95.151239 0.000000 v472.019238" /><text class="major" transform="rotate(60 95.151239 487.019238)" x="95.15123859191655" y="487.01923788646684">-7.36</text></g><g class="guides"><path class="major guide line" d="M115.881356 0.000000 v472.019238" /><text class="major" transform="rotate(60 115.881356 487.019238)" x="115.88135593220338" y="487.01923788646684">-6.96</text></g><g class="guides"><path class="major guide line" d="M136.611473 0.000000 v472.019238" /><text class="major" transform="rotate(60 136.611473 487.019238)" x="136.61147327249023" y="487.01923788646684">-6.56</text></g><g class="guides"><path class="major guide line" d="M157.341591 0.000000 v472.019238" /><text class="major" transform="rotate(60 157.341591 487.019238)" x="157.34159061277705" y="487.01923788646684">-6.16</text></g><g class="guides"><path class="major guide line" d="M178.071708 0.000000 v472.019238" /><text class="major" transform="rotate(60 178.071708 487.019238)" x="178.0717079530639" y="487.01923788646684">-5.76</text></g><g class="guides"><path class="major guide line" d="M198.801825 0.000000 v472.019238" /><text class="major" transform="rotate(60 198.801825 487.019238)" x="198.80182529335073" y="487.01923788646684">-5.36</text></g><g class="guides"><path class="major guide line" d="M219.531943 0.000000 v472.019238" /><text class="major" transform="rotate(60 219.531943 487.019238)" x="219.53194263363756" y="487.01923788646684">-4.96</text></g><g class="guides"><path class="major guide line" d="M240.262060 0.000000 v472.019238" /><text class="major" transform="rotate(60 240.262060 487.019238)" x="240.2620599739244" y="487.01923788646684">-4.56</text></g><g class="guides"><path class="major guide line" d="M260.992177 0.000000 v472.019238" /><text class="major" transform="rotate(60 260.992177 487.019238)" x="260.99217731421123" y="487.01923788646684">-4.16</text></g><g class="guides"><path class="major guide line" d="M281.722295 0.000000 v472.019238" /><text class="major" transform="rotate(60 281.722295 487.019238)" x="281.722294654498" y="487.01923788646684">-3.76</text></g><g class="guides"><path class="major guide line" d="M302.452412 0.000000 v472.019238" /><text class="major" transform="rotate(60 302.452412 487.019238)" x="302.4524119947849" y="487.01923788646684">-3.36</text></g><g class="guides"><path class="major guide line" d="M323.182529 0.000000 v472.019238" /><text class="major" transform="rotate(60 323.182529 487.019238)" x="323.1825293350717" y="487.01923788646684">-2.96</text></g><g class="guides"><path class="major guide line" d="M343.912647 0.000000 v472.019238" /><text class="major" transform="rotate(60 343.912647 487.019238)" x="343.91264667535853" y="487.01923788646684">-2.56</text></g><g class="guides"><path class="major guide line" d="M364.642764 0.000000 v472.019238" /><text class="major" transform="rotate(60 364.642764 487.019238)" x="364.64276401564535" y="487.01923788646684">-2.16</text></g><g class="guides"><path class="major guide line" d="M385.372881 0.000000 v472.019238" /><text class="major" transform="rotate(60 385.372881 487.019238)" x="385.37288135593224" y="487.01923788646684">-1.76</text></g><g class="guides"><path class="major guide line" d="M406.102999 0.000000 v472.019238" /><text class="major" transform="rotate(60 406.102999 487.019238)" x="406.102998696219" y="487.01923788646684">-1.36</text></g><g class="guides"><path class="major guide line" d="M426.833116 0.000000 v472.019238" /><text class="major" transform="rotate(60 426.833116 487.019238)" x="426.8331160365058" y="487.01923788646684">-0.96</text></g><g class="guides"><path class="major guide line" d="M447.563233 0.000000 v472.019238" /><text class="major" transform="rotate(60 447.563233 487.019238)" x="447.56323337679265" y="487.01923788646684">-0.56</text></g><g class="guides"><path class="major guide line" d="M468.293351 0.000000 v472.019238" /><text class="major" transform="rotate(60 468.293351 487.019238)" x="468.29335071707953" y="487.01923788646684">-0.16</text></g><g class="guides"><path class="major guide line" d="M489.023468 0.000000 v472.019238" /><text class="major" transform="rotate(60 489.023468 487.019238)" x="489.02346805736636" y="487.01923788646684">0.24</text></g><g class="guides"><path class="major guide line" d="M509.753585 0.000000 v472.019238" /><text class="major" transform="rotate(60 509.753585 487.019238)" x="509.75358539765324" y="487.01923788646684">0.64</text></g><g class="guides"><path class="major guide line" d="M530.483703 0.000000 v472.019238" /><text class="major" transform="rotate(60 530.483703 487.019238)" x="530.48370273794" y="487.01923788646684">1.04</text></g><g class="guides"><path class="major guide line" d="M551.213820 0.000000 v472.019238" /><text class="major" transform="rotate(60 551.213820 487.019238)" x="551.213820078227" y="487.01923788646684">1.43</text></g><g class="guides"><path class="major guide line" d="M571.943937 0.000000 v472.019238" /><text class="major" transform="rotate(60 571.943937 487.019238)" x="571.9439374185138" y="487.01923788646684">1.83</text></g><g class="guides"><path class="major guide line" d="M592.674055 0.000000 v472.019238" /><text class="major" transform="rotate(60 592.674055 487.019238)" x="592.6740547588006" y="487.01923788646684">2.23</text></g><g class="guides"><path class="major guide line" d="M613.404172 0.000000 v472.019238" /><text class="major" transform="rotate(60 613.404172 487.019238)" x="613.4041720990874" y="487.01923788646684">2.63</text></g></g><g class="series serie-0 color-0"><path class="line reactive" d="M12.230769 462.941945 L12.230769 462.019456 22.595828 462.941945 32.960887 461.096967 43.325945 462.019456 53.691004 459.251988 64.056063 462.019456 74.421121 458.329499 84.786180 462.019456 95.151239 458.329499 105.516297 462.019456 115.881356 448.182119 126.246415 460.174477 136.611473 457.407010 146.976532 457.407010 157.341591 451.872075 167.706649 448.182119 178.071708 454.639543 188.436767 445.414651 198.801825 442.647184 209.166884 436.189760 219.531943 437.112249 229.897001 392.832771 240.262060 396.522728 250.627119 376.227967 260.992177 355.933206 271.357236 351.320760 281.722295 325.491065 292.087353 277.521630 302.452412 283.056565 312.817471 202.800010 323.182529 188.040184 333.547588 169.590402 343.912647 123.465945 354.277705 95.791271 364.642764 67.194108 375.007823 82.876423 385.372881 60.736684 395.737940 80.108956 406.102999 29.372054 416.468057 9.077293 426.833116 70.884065 437.198175 69.039086 447.563233 41.364413 457.928292 40.441923 468.293351 91.178826 478.658409 140.993239 489.023468 214.792369 499.388527 259.071847 509.753585 321.801108 520.118644 364.235608 530.483703 408.515086 540.848761 430.654825 551.213820 448.182119 561.578879 455.562032 571.943937 458.329499 582.308996 458.329499 592.674055 462.019456 603.039113 462.941945 613.404172 462.019456 623.769231 462.941945" /></g><g class="series serie-1 color-1"><path class="line reactive nofill" d="M12.230769 462.865944 L22.595828 462.820289 32.960887 462.750493 43.325945 462.645737 53.691004 462.491390 64.056063 462.268174 74.421121 461.951362 84.786180 461.510129 95.151239 460.907213 105.516297 460.099046 115.881356 459.036496 126.246415 457.666336 136.611473 455.933347 146.976532 453.782785 157.341591 451.162516 167.706649 448.023698 178.071708 444.318383 188.436767 439.992056 198.801825 434.969220 209.166884 429.130939 219.531943 422.285142 229.897001 414.133562 240.262060 404.243169 250.627119 392.034123 260.992177 376.799531 271.357236 357.773159 281.722295 334.258425 292.087353 305.823450 302.452412 272.550389 312.817471 235.299761 323.182529 195.912439 333.547588 157.232607 343.912647 122.818718 354.277705 96.253442 364.642764 80.099198 375.007823 74.764688 385.372881 77.769747 395.737940 83.968986 406.102999 87.061507 416.468057 82.138021 426.833116 68.305737 437.198175 50.025755 447.563233 36.126496 457.928292 36.557189 468.293351 58.259272 478.658409 102.183535 489.023468 162.929789 499.388527 231.035111 509.753585 296.551291 520.118644 352.109092 530.483703 394.299022 540.848761 423.300692 551.213820 441.502811 561.578879 452.016601 571.943937 457.652543 582.308996 460.483391 592.674055 461.831102 603.039113 462.447558 613.404172 462.722584 623.769231 462.844053" /></g><g class="series serie-2 color-2"><path class="line reactive nofill" d="M12.230769 462.941945 L22.595828 462.941945 32.960887 462.941945 43.325945 462.941945 53.691004 462.941945 64.056063 462.941945 74.421121 462.941945 84.786180 462.941945 95.151239 462.941945 105.516297 462.941945 115.881356 462.941945 126.246415 462.941945 136.611473 462.941945 146.976532 462.941945 157.341591 462.941945 167.706649 462.941945 178.071708 462.941944 188.436767 462.941944 198.801825 462.941941 209.166884 462.941933 219.531943 462.941908 229.897001 462.941840 240.262060 462.941655 250.627119 462.941168 260.992177 462.939918 271.357236 462.936780 281.722295 462.929019 292.087353 462.909995 302.452412 462.863653 312.817471 462.751602 323.182529 462.484441 333.547588 461.862995 343.912647 460.470584 354.277705 457.503399 364.642764 451.558131 375.007823 440.466822 385.372881 421.364906 395.737940 391.233418 406.102999 348.059597 416.468057 292.434852 426.833116 228.942767 437.198175 166.391375 447.563233 116.187661 457.928292 89.031359 468.293351 91.187493 478.658409 122.116227 489.023468 174.692118 499.388527 237.891348 509.753585 300.556290 520.118644 354.483213 530.483703 395.737568 540.848761 424.191756 551.213820 442.063812 561.578879 452.372598 571.943937 457.878402 582.308996 460.625750 592.674055 461.919861 603.039113 462.502151 613.404172 462.755658 623.769231 462.863771" /></g><g class="series serie-3 color-3"><path class="line reactive nofill" d="M12.230769 462.865944 L22.595828 462.820289 32.960887 462.750493 43.325945 462.645737 53.691004 462.491390 64.056063 462.268174 74.421121 461.951362 84.786180 461.510129 95.151239 460.907213 105.516297 460.099046 115.881356 459.036496 126.246415 457.666336 136.611473 455.933347 146.976532 453.782785 157.341591 451.162516 167.706649 448.023698 178.071708 444.318383 188.436767 439.992057 198.801825 434.969224 209.166884 429.130951 219.531943 422.285178 229.897001 414.133667 240.262060 404.243459 250.627119 392.034901 260.992177 376.801557 271.357236 357.778323 281.722295 334.271351 292.087353 305.855400 302.452412 272.628682 312.817471 235.490104 323.182529 196.369943 333.547588 158.311558 343.912647 125.290079 354.277705 101.691988 364.642764 91.483012 375.007823 97.239810 385.372881 119.346786 395.737940 155.677512 406.102999 201.943855 416.468057 252.645113 426.833116 302.304915 437.198175 346.576325 447.563233 382.880781 457.928292 410.467774 468.293351 430.013724 478.658409 443.009253 489.023468 451.179615 499.388527 456.085708 509.753585 458.936946 520.118644 460.567823 530.483703 461.503399 540.848761 462.050881 551.213820 462.380943 561.578879 462.585947 571.943937 462.716086 582.308996 462.799586 592.674055 462.853186 603.039113 462.887351 613.404172 462.908871 623.769231 462.922226" /></g><g class="series serie-4 color-4"><path class="line reactive nofill" d="M12.230769 462.941945 L22.595828 462.941945 32.960887 462.941945 43.325945 462.941945 53.691004 462.941945 64.056063 462.941945 74.421121 462.941945 84.786180 462.941945 95.151239 462.941945 105.516297 462.941945 115.881356 462.941945 126.246415 462.941945 136.611473 462.941945 146.976532 462.941945 157.341591 462.941945 167.706649 462.941945 178.071708 462.941945 188.436767 462.941945 198.801825 462.941945 209.166884 462.941945 219.531943 462.941945 229.897001 462.941945 240.262060 462.941945 250.627119 462.941943 260.992177 462.941932 271.357236 462.941879 281.722295 462.941629 292.087353 462.940554 302.452412 462.936334 312.817471 462.921218 323.182529 462.871819 333.547588 462.724647 343.912647 462.325271 354.277705 461.339138 364.642764 459.126612 375.007823 454.624128 385.372881 446.334157 395.737940 432.572293 406.102999 412.079944 416.468057 384.927926 426.833116 353.350299 437.198175 321.945607 447.563233 296.805924 457.928292 283.656365 468.293351 285.746520 478.658409 302.549010 489.023468 329.975043 499.388527 361.987033 509.753585 392.741972 520.118644 418.235306 530.483703 436.866443 540.848761 449.012977 551.213820 456.127495 561.578879 459.888654 571.943937 461.689002 582.308996 462.471054 592.674055 462.779863 603.039113 462.890850 613.404172 462.927193 623.769231 462.938044" /></g><g class="series serie-5 color-5"><path class="line reactive nofill" d="M12.230769 462.941945 L22.595828 462.941945 32.960887 462.941945 43.325945 462.941945 53.691004 462.941945 64.056063 462.941945 74.421121 462.941945 84.786180 462.941945 95.151239 462.941945 105.516297 462.941945 115.881356 462.941945 126.246415 462.941945 136.611473 462.941945 146.976532 462.941945 157.341591 462.941945 167.706649 462.941945 178.071708 462.941945 188.436767 462.941945 198.801825 462.941945 209.166884 462.941945 219.531943 462.941945 229.897001 462.941945 240.262060 462.941944 250.627119 462.941942 260.992177 462.941928 271.357236 462.941862 281.722295 462.941580 292.087353 462.940464 302.452412 462.936407 312.817471 462.922875 323.182529 462.881469 333.547588 462.765328 343.912647 462.466960 354.277705 461.765608 364.642764 460.259156 375.007823 457.307587 385.372881 452.044986 395.737940 443.534460 406.102999 431.111975 416.468057 414.868390 426.833116 396.079958 437.198175 377.306147 447.563233 361.938903 457.928292 353.239429 468.293351 353.217913 478.658409 361.879463 489.023468 377.222136 499.388527 395.988109 509.753585 414.783466 520.118644 431.043237 530.483703 443.484919 540.848761 452.012884 551.213820 457.288772 561.578879 460.249141 571.943937 461.760754 582.308996 462.464813 592.674055 462.764460 603.039113 462.881147 613.404172 462.922766 623.769231 462.936374" /></g><g class="series serie-6 color-6"><path class="line reactive nofill" d="M12.230769 462.941945 L22.595828 462.941945 32.960887 462.941945 43.325945 462.941945 53.691004 462.941945 64.056063 462.941945 74.421121 462.941945 84.786180 462.941945 95.151239 462.941945 105.516297 462.941945 115.881356 462.941945 126.246415 462.941945 136.611473 462.941945 146.976532 462.941945 157.341591 462.941945 167.706649 462.941945 178.071708 462.941945 188.436767 462.941945 198.801825 462.941945 209.166884 462.941945 219.531943 462.941945 229.897001 462.941944 240.262060 462.941941 250.627119 462.941928 260.992177 462.941876 271.357236 462.941676 281.722295 462.940971 292.087353 462.938662 302.452412 462.931638 312.817471 462.911825 323.182529 462.860002 333.547588 462.734404 343.912647 462.452594 354.277705 461.867795 364.642764 460.746939 375.007823 458.766203 385.372881 455.546599 395.737940 450.748953 406.102999 444.226979 416.468057 436.199895 426.833116 427.368388 437.198175 418.887795 447.563233 412.152520 457.928292 408.430625 468.293351 408.475750 478.658409 412.278547 489.023468 419.069835 499.388527 427.574013 509.753585 436.398472 520.118644 444.396692 530.483703 450.879518 540.848761 455.637897 551.213820 458.824579 561.578879 460.781207 571.943937 461.886315 582.308996 462.461826 592.674055 462.738657 603.039113 462.861813 613.404172 462.912540 623.769231 462.931900" /></g><g class="series serie-7 color-7"><path class="line reactive nofill" d="M12.230769 462.941945 L22.595828 462.941945 32.960887 462.941945 43.325945 462.941945 53.691004 462.941945 64.056063 462.941945 74.421121 462.941945 84.786180 462.941945 95.151239 462.941945 105.516297 462.941945 115.881356 462.941945 126.246415 462.941945 136.611473 462.941945 146.976532 462.941945 157.341591 462.941945 167.706649 462.941945 178.071708 462.941945 188.436767 462.941945 198.801825 462.941945 209.166884 462.941944 219.531943 462.941943 229.897001 462.941936 240.262060 462.941913 250.627119 462.941835 260.992177 462.941593 271.357236 462.940877 281.722295 462.938889 292.087353 462.933700 302.452412 462.920966 312.817471 462.891597 323.182529 462.827988 333.547588 462.698687 343.912647 462.452207 354.277705 462.012061 364.642764 461.276763 375.007823 460.129638 385.372881 458.462422 395.737940 456.212659 406.102999 453.407963 416.468057 450.202580 426.833116 446.887721 437.198175 443.861038 447.563233 441.553619 457.928292 440.330793 468.293351 440.397647 478.658409 441.742776 489.023468 444.141459 499.388527 447.217062 509.753585 450.537598 520.118644 453.713501 530.483703 456.466775 540.848761 458.657032 551.213820 460.267702 561.578879 461.367861 571.943937 462.068123 582.308996 462.484450 592.674055 462.716044 603.039113 462.836744 613.404172 462.895740 623.769231 462.922806" /></g><g class="series serie-8 color-8"><path class="line reactive nofill" d="M12.230769 462.941945 L22.595828 462.941945 32.960887 462.941945 43.325945 462.941945 53.691004 462.941945 64.056063 462.941945 74.421121 462.941945 84.786180 462.941945 95.151239 462.941945 105.516297 462.941945 115.881356 462.941945 126.246415 462.941945 136.611473 462.941945 146.976532 462.941945 157.341591 462.941945 167.706649 462.941945 178.071708 462.941944 188.436767 462.941944 198.801825 462.941941 209.166884 462.941933 219.531943 462.941911 229.897001 462.941850 240.262060 462.941692 250.627119 462.941299 260.992177 462.940369 271.357236 462.938266 281.722295 462.933729 292.087353 462.924395 302.452412 462.906086 312.817471 462.871866 323.182529 462.810943 333.547588 462.707708 343.912647 462.541332 354.277705 462.286576 364.642764 461.916441 375.007823 461.407045 385.372881 460.744521 395.737940 459.932833 406.102999 459.000515 416.468057 458.003841 426.833116 457.024181 437.198175 456.158567 447.563233 455.504474 457.928292 455.141928 468.293351 455.117442 478.658409 455.434211 489.023468 456.051425 499.388527 456.892911 509.753585 457.862562 520.118644 458.862257 530.483703 459.807694 540.848761 460.638745 551.213820 461.323043 561.578879 461.853516 571.943937 462.241989 582.308996 462.511386 592.674055 462.688616 603.039113 462.799375 613.404172 462.865198 623.769231 462.902427" /></g><g class="series serie-9 color-9"><path class="line reactive nofill" d="M12.230769 462.941945 L22.595828 462.941945 32.960887 462.941945 43.325945 462.941945 53.691004 462.941945 64.056063 462.941945 74.421121 462.941945 84.786180 462.941945 95.151239 462.941945 105.516297 462.941945 115.881356 462.941945 126.246415 462.941945 136.611473 462.941945 146.976532 462.941945 157.341591 462.941944 167.706649 462.941941 178.071708 462.941926 188.436767 462.941866 198.801825 462.941634 209.166884 462.940800 219.531943 462.938029 229.897001 462.929496 240.262060 462.905166 250.627119 462.840966 260.992177 462.684284 271.357236 462.330939 281.722295 461.595395 292.087353 460.184039 302.452412 457.692462 312.817471 453.655839 323.182529 447.675751 333.547588 439.617678 343.912647 429.823855 354.277705 419.239812 364.642764 409.347468 375.007823 401.859346 385.372881 398.243323 395.737940 399.254677 406.102999 404.679291 416.468057 413.407424 426.833116 423.803304 437.198175 434.202157 447.563233 443.329061 457.928292 450.503119 468.293351 455.610368 478.658409 458.925928 489.023468 460.897508 499.388527 461.974710 509.753585 462.516670 520.118644 462.768169 530.483703 462.875954 540.848761 462.918655 551.213820 462.934306 561.578879 462.939616 571.943937 462.941285 582.308996 462.941771 592.674055 462.941902 603.039113 462.941935 613.404172 462.941943 623.769231 462.941944" /></g><g class="series serie-10 color-10"><path class="line reactive nofill" d="M12.230769 462.941945 L22.595828 462.941945 32.960887 462.941945 43.325945 462.941945 53.691004 462.941945 64.056063 462.941945 74.421121 462.941945 84.786180 462.941945 95.151239 462.941945 105.516297 462.941945 115.881356 462.941945 126.246415 462.941944 136.611473 462.941942 146.976532 462.941933 157.341591 462.941896 167.706649 462.941764 178.071708 462.941308 188.436767 462.939844 198.801825 462.935445 209.166884 462.923079 219.531943 462.890566 229.897001 462.810659 240.262060 462.627188 250.627119 462.233909 260.992177 461.447580 271.357236 459.982704 281.722295 457.443672 292.087353 453.356897 302.452412 447.264171 312.817471 438.881886 323.182529 428.297701 333.547588 416.137443 343.912647 403.613045 354.277705 392.380559 364.642764 384.202919 375.007823 380.502490 385.372881 381.957368 395.737940 388.298503 406.102999 398.390923 416.468057 410.565414 426.833116 423.067701 437.198175 434.459954 447.563233 443.853509 457.928292 450.938871 468.293351 455.860258 478.658409 459.021791 489.023468 460.905880 499.388527 461.949738 509.753585 462.488280 520.118644 462.747324 530.483703 462.863608 540.848761 462.912360 551.213820 462.931462 561.578879 462.938460 571.943937 462.940858 582.308996 462.941627 592.674055 462.941857 603.039113 462.941922 613.404172 462.941939 623.769231 462.941944" /></g><g class="series serie-11 color-11"><path class="line reactive nofill" d="M12.230769 462.941945 L22.595828 462.941945 32.960887 462.941945 43.325945 462.941945 53.691004 462.941945 64.056063 462.941945 74.421121 462.941945 84.786180 462.941945 95.151239 462.941943 105.516297 462.941939 115.881356 462.941924 126.246415 462.941872 136.611473 462.941703 146.976532 462.941180 157.341591 462.939655 167.706649 462.935448 178.071708 462.924475 188.436767 462.897430 198.801825 462.834455 209.166884 462.695981 219.531943 462.408583 229.897001 461.845933 240.262060 460.807660 250.627119 459.003429 260.992177 456.054527 271.357236 451.528319 281.722295 445.017971 292.087353 436.267928 302.452412 425.324788 312.817471 412.669852 323.182529 399.275381 333.547588 386.533862 343.912647 376.043774 354.277705 369.288142 364.642764 367.292239 375.007823 370.368738 385.372881 378.037500 395.737940 389.148296 406.102999 402.163303 416.468057 415.503937 426.833116 427.855018 437.198175 438.349162 447.563233 446.607158 457.928292 452.660298 468.293351 456.809193 478.658409 459.475443 489.023468 461.085120 499.388527 461.999417 509.753585 462.488567 520.118644 462.735278 530.483703 462.852671 540.848761 462.905400 551.213820 462.927769 561.578879 462.936734 571.943937 462.940129 582.308996 462.941346 592.674055 462.941757 603.039113 462.941889 613.404172 462.941929 623.769231 462.941941" /></g><g class="series serie-12 color-12"><path class="line reactive nofill" d="M12.230769 462.941945 L22.595828 462.941945 32.960887 462.941945 43.325945 462.941944 53.691004 462.941943 64.056063 462.941939 74.421121 462.941925 84.786180 462.941882 95.151239 462.941753 105.516297 462.941390 115.881356 462.940409 126.246415 462.937879 136.611473 462.931653 146.976532 462.917029 157.341591 462.884261 167.706649 462.814231 178.071708 462.671535 188.436767 462.394412 198.801825 461.881714 209.166884 460.978621 219.531943 459.465098 229.897001 457.053765 240.262060 453.405678 250.627119 448.172041 260.992177 441.065394 271.357236 431.954776 281.722295 420.967318 292.087353 408.567645 302.452412 395.581894 312.817471 383.140083 323.182529 372.530058 333.547588 364.983940 343.912647 361.444240 354.277705 362.370566 364.642764 367.641598 375.007823 376.581187 385.372881 388.100821 395.737940 400.917049 406.102999 413.784004 416.468057 425.683629 426.833116 435.936295 437.198175 444.222716 447.563233 450.533334 457.928292 455.075831 468.293351 458.173253 478.658409 460.177295 489.023468 461.409154 499.388527 462.129250 509.753585 462.529872 520.118644 462.742132 530.483703 462.849289 540.848761 462.900856 551.213820 462.924520 561.578879 462.934878 571.943937 462.939204 582.308996 462.940928 592.674055 462.941584 603.039113 462.941823 613.404172 462.941905 623.769231 462.941933" /></g><g class="series serie-13 color-13"><path class="line reactive nofill" d="M12.230769 462.865944 L22.595828 462.820289 32.960887 462.750494 43.325945 462.645737 53.691004 462.491392 64.056063 462.268180 74.421121 461.951382 84.786180 461.510192 95.151239 460.907406 105.516297 460.099606 115.881356 459.038053 126.246415 457.670475 136.611473 455.943884 146.976532 453.808478 157.341591 451.222538 167.706649 448.158094 178.071708 444.606918 188.436767 440.586284 198.801825 436.143754 209.166884 431.360250 219.531943 426.350682 229.897001 421.261594 240.262060 416.265546 250.627119 411.552336 260.992177 407.317552 271.357236 403.749366 281.722295 401.014774 292.087353 399.246670 302.452412 398.533146 312.817471 398.910223 323.182529 400.358831 333.547588 402.806414 343.912647 406.132945 354.277705 410.180688 364.642764 414.766568 375.007823 419.695829 385.372881 424.775553 395.737940 429.826766 406.102999 434.694114 416.468057 439.252488 426.833116 443.410377 437.198175 447.110115 447.563233 450.325497 457.928292 453.057436 468.293351 455.328431 478.658409 457.176576 489.023468 458.649733 499.388527 459.800372 509.753585 460.681337 520.118644 461.342699 530.483703 461.829657 540.848761 462.181389 551.213820 462.430667 561.578879 462.604039 571.943937 462.722389 582.308996 462.801693 592.674055 462.853864 603.039113 462.887561 613.404172 462.908933 623.769231 462.922244" /></g></g><g class="titles"><text class="title plot_title" x="400.0" y="26">Iteration #8</text><text class="title" x="462.0" y="580.0">Observation</text><text class="title" transform="rotate(-90 64.000000 282.009619)" x="64.0" y="308.0096189432334">Density</text></g><g class="plot overlay" transform="translate(144, 46)"><g class="series serie-0 color-0" /><g class="series serie-1 color-1" /><g class="series serie-2 color-2" /><g class="series serie-3 color-3" /><g class="series serie-4 color-4" /><g class="series serie-5 color-5" /><g class="series serie-6 color-6" /><g class="series serie-7 color-7" /><g class="series serie-8 color-8" /><g class="series serie-9 color-9" /><g class="series serie-10 color-10" /><g class="series serie-11 color-11" /><g class="series serie-12 color-12" /><g class="series serie-13 color-13" /></g><g class="plot text-overlay" transform="translate(144, 46)"><g class="series serie-0 color-0" /><g class="series serie-1 color-1" /><g class="series serie-2 color-2" /><g class="series serie-3 color-3" /><g class="series serie-4 color-4" /><g class="series serie-5 color-5" /><g class="series serie-6 color-6" /><g class="series serie-7 color-7" /><g class="series serie-8 color-8" /><g class="series serie-9 color-9" /><g class="series serie-10 color-10" /><g class="series serie-11 color-11" /><g class="series serie-12 color-12" /><g class="series serie-13 color-13" /></g><g class="plot tooltip-overlay" transform="translate(144, 46)"><g class="tooltip" style="opacity: 0" transform="translate(0 0)"><rect class="tooltip-box" height="0" rx="0" ry="0" width="0" /><g class="text" /></g></g><g class="legends" transform="translate(10, 56)"><g class="legend reactive activate-serie" id="activate-serie-0"><rect class="color-0 reactive" height="12" width="12" x="0.0" y="0.0" /><text x="17.0" y="9.0">Data</text></g><g class="legend reactive activate-serie" id="activate-serie-1"><rect class="color-1 reactive" height="12" width="12" x="0.0" y="18.0" /><text x="17.0" y="27.0">GMM</text></g><g class="legend reactive activate-serie" id="activate-serie-2"><rect class="color-2 reactive" height="12" width="12" x="0.0" y="36.0" /><text x="17.0" y="45.0">i=0</text></g><g class="legend reactive activate-serie" id="activate-serie-3"><rect class="color-3 reactive" height="12" width="12" x="0.0" y="54.0" /><text x="17.0" y="63.0">i=1</text></g><g class="legend reactive activate-serie" id="activate-serie-4"><rect class="color-4 reactive" height="12" width="12" x="0.0" y="72.0" /><text x="17.0" y="81.0">i=0 k=0</text></g><g class="legend reactive activate-serie" id="activate-serie-5"><rect class="color-5 reactive" height="12" width="12" x="0.0" y="90.0" /><text x="17.0" y="99.0">i=0 k=1</text></g><g class="legend reactive activate-serie" id="activate-serie-6"><rect class="color-6 reactive" height="12" width="12" x="0.0" y="108.0" /><text x="17.0" y="117.0">i=0 k=2</text></g><g class="legend reactive activate-serie" id="activate-serie-7"><rect class="color-7 reactive" height="12" width="12" x="0.0" y="126.0" /><text x="17.0" y="135.0">i=0 k=3</text></g><g class="legend reactive activate-serie" id="activate-serie-8"><rect class="color-8 reactive" height="12" width="12" x="0.0" y="144.0" /><text x="17.0" y="153.0">i=0 k=4</text></g><g class="legend reactive activate-serie" id="activate-serie-9"><rect class="color-9 reactive" height="12" width="12" x="0.0" y="162.0" /><text x="17.0" y="171.0">i=1 k=0</text></g><g class="legend reactive activate-serie" id="activate-serie-10"><rect class="color-10 reactive" height="12" width="12" x="0.0" y="180.0" /><text x="17.0" y="189.0">i=1 k=1</text></g><g class="legend reactive activate-serie" id="activate-serie-11"><rect class="color-11 reactive" height="12" width="12" x="0.0" y="198.0" /><text x="17.0" y="207.0">i=1 k=2</text></g><g class="legend reactive activate-serie" id="activate-serie-12"><rect class="color-12 reactive" height="12" width="12" x="0.0" y="216.0" /><text x="17.0" y="225.0">i=1 k=3</text></g><g class="legend reactive activate-serie" id="activate-serie-13"><rect class="color-13 reactive" height="12" width="12" x="0.0" y="234.0" /><text x="17.0" y="243.0">i=1 k=4</text></g></g><g class="legends" transform="translate(790, 56)" /></g></svg>