<?xml version='1.0' encoding='utf-8'?>
<svg xmlns:xlink="http://www.w3.org/1999/xlink" class="pygal-chart" id="chart-abd549f5-5ae1-4e2a-8de3-c6ecbb5bb50f" viewBox="0 0 800 600" xmlns="http://www.w3.org/2000/svg"><!--Generated with pygal 2.4.0 (etree) ©Kozea 2012-2016 on 2018-01-18--><!--http://pygal.org--><!--http://github.com/Kozea/pygal--><defs><style type="text/css">#chart-abd549f5-5ae1-4e2a-8de3-c6ecbb5bb50f{-webkit-user-select:none;-webkit-font-smoothing:antialiased;font-family:Consolas,"Liberation Mono",Menlo,Courier,monospace}#chart-abd549f5-5ae1-4e2a-8de3-c6ecbb5bb50f .title{font-family:Consolas,"Liberation Mono",Menlo,Courier,monospace;font-size:16px}#chart-abd549f5-5ae1-4e2a-8de3-c6ecbb5bb50f .legends .legend text{font-family:Consolas,"Liberation Mono",Menlo,Courier,monospace;font-size:10px}#chart-abd549f5-5ae1-4e2a-8de3-c6ecbb5bb50f .axis text{font-family:Consolas,"Liberation Mono",Menlo,Courier,monospace;font-size:10px}#chart-abd549f5-5ae1-4e2a-8de3-c6ecbb5bb50f .axis text.major{font-family:Consolas,"Liberation Mono",Menlo,Courier,monospace;font-size:10px}#chart-abd549f5-5ae1-4e2a-8de3-c6ecbb5bb50f .text-overlay text.value{font-family:Consolas,"Liberation Mono",Menlo,Courier,monospace;font-size:16px}#chart-abd549f5-5ae1-4e2a-8de3-c6ecbb5bb50f .text-overlay text.label{font-family:Consolas,"Liberation Mono",Menlo,Courier,monospace;font-size:10px}#chart-abd549f5-5ae1-4e2a-8de3-c6ecbb5bb50f .tooltip{font-family:Consolas,"Liberation Mono",Menlo,Courier,monospace;font-size:14px}#chart-abd549f5-5ae1-4e2a-8de3-c6ecbb5bb50f text.no_data{font-family:Consolas,"Liberation Mono",Menlo,Courier,monospace;font-size:64px}
#chart-abd549f5-5ae1-4e2a-8de3-c6ecbb5bb50f{background-color:rgba(249,249,249,1)}#chart-abd549f5-5ae1-4e2a-8de3-c6ecbb5bb50f path,#chart-abd549f5-5ae1-4e2a-8de3-c6ecbb5bb50f line,#chart-abd549f5-5ae1-4e2a-8de3-c6ecbb5bb50f rect,#chart-abd549f5-5ae1-4e2a-8de3-c6ecbb5bb50f circle{-webkit-transition:150ms;-moz-transition:150ms;transition:150ms}#chart-abd549f5-5ae1-4e2a-8de3-c6ecbb5bb50f .graph &gt; .background{fill:rgba(249,249,249,1)}#chart-abd549f5-5ae1-4e2a-8de3-c6ecbb5bb50f .plot &gt; .background{fill:rgba(255,255,255,1)}#chart-abd549f5-5ae1-4e2a-8de3-c6ecbb5bb50f .graph{fill:rgba(0,0,0,.87)}#chart-abd549f5-5ae1-4e2a-8de3-c6ecbb5bb50f text.no_data{fill:rgba(0,0,0,1)}#chart-abd549f5-5ae1-4e2a-8de3-c6ecbb5bb50f .title{fill:rgba(0,0,0,1)}#chart-abd549f5-5ae1-4e2a-8de3-c6ecbb5bb50f .legends .legend text{fill:rgba(0,0,0,.87)}#chart-abd549f5-5ae1-4e2a-8de3-c6ecbb5bb50f .legends .legend:hover text{fill:rgba(0,0,0,1)}#chart-abd549f5-5ae1-4e2a-8de3-c6ecbb5bb50f .axis .line{stroke:rgba(0,0,0,1)}#chart-abd549f5-5ae1-4e2a-8de3-c6ecbb5bb50f .axis .guide.line{stroke:rgba(0,0,0,.54)}#chart-abd549f5-5ae1-4e2a-8de3-c6ecbb5bb50f .axis .major.line{stroke:rgba(0,0,0,.87)}#chart-abd549f5-5ae1-4e2a-8de3-c6ecbb5bb50f .axis text.major{fill:rgba(0,0,0,1)}#chart-abd549f5-5ae1-4e2a-8de3-c6ecbb5bb50f .axis.y .guides:hover .guide.line,#chart-abd549f5-5ae1-4e2a-8de3-c6ecbb5bb50f .line-graph .axis.x .guides:hover .guide.line,#chart-abd549f5-5ae1-4e2a-8de3-c6ecbb5bb50f .stackedline-graph .axis.x .guides:hover .guide.line,#chart-abd549f5-5ae1-4e2a-8de3-c6ecbb5bb50f .xy-graph .axis.x .guides:hover .guide.line{stroke:rgba(0,0,0,1)}#chart-abd549f5-5ae1-4e2a-8de3-c6ecbb5bb50f .axis .guides:hover text{fill:rgba(0,0,0,1)}#chart-abd549f5-5ae1-4e2a-8de3-c6ecbb5bb50f .reactive{fill-opacity:.7;stroke-opacity:.8}#chart-abd549f5-5ae1-4e2a-8de3-c6ecbb5bb50f .ci{stroke:rgba(0,0,0,.87)}#chart-abd549f5-5ae1-4e2a-8de3-c6ecbb5bb50f .reactive.active,#chart-abd549f5-5ae1-4e2a-8de3-c6ecbb5bb50f .active .reactive{fill-opacity:.8;stroke-opacity:.9;stroke-width:4}#chart-abd549f5-5ae1-4e2a-8de3-c6ecbb5bb50f .ci .reactive.active{stroke-width:1.5}#chart-abd549f5-5ae1-4e2a-8de3-c6ecbb5bb50f .series text{fill:rgba(0,0,0,1)}#chart-abd549f5-5ae1-4e2a-8de3-c6ecbb5bb50f .tooltip rect{fill:rgba(255,255,255,1);stroke:rgba(0,0,0,1);-webkit-transition:opacity 150ms;-moz-transition:opacity 150ms;transition:opacity 150ms}#chart-abd549f5-5ae1-4e2a-8de3-c6ecbb5bb50f .tooltip .label{fill:rgba(0,0,0,.87)}#chart-abd549f5-5ae1-4e2a-8de3-c6ecbb5bb50f .tooltip .label{fill:rgba(0,0,0,.87)}#chart-abd549f5-5ae1-4e2a-8de3-c6ecbb5bb50f .tooltip .legend{font-size:.8em;fill:rgba(0,0,0,.54)}#chart-abd549f5-5ae1-4e2a-8de3-c6ecbb5bb50f .tooltip .x_label{font-size:.6em;fill:rgba(0,0,0,1)}#chart-abd549f5-5ae1-4e2a-8de3-c6ecbb5bb50f .tooltip .xlink{font-size:.5em;text-decoration:underline}#chart-abd549f5-5ae1-4e2a-8de3-c6ecbb5bb50f .tooltip .value{font-size:1.5em}#chart-abd549f5-5ae1-4e2a-8de3-c6ecbb5bb50f .bound{font-size:.5em}#chart-abd549f5-5ae1-4e2a-8de3-c6ecbb5bb50f .max-value{font-size:.75em;fill:rgba(0,0,0,.54)}#chart-abd549f5-5ae1-4e2a-8de3-c6ecbb5bb50f .map-element{fill:rgba(255,255,255,1);stroke:rgba(0,0,0,.54) !important}#chart-abd549f5-5ae1-4e2a-8de3-c6ecbb5bb50f .map-element .reactive{fill-opacity:inherit;stroke-opacity:inherit}#chart-abd549f5-5ae1-4e2a-8de3-c6ecbb5bb50f .color-0,#chart-abd549f5-5ae1-4e2a-8de3-c6ecbb5bb50f .color-0 a:visited{stroke:#909090;fill:#909090}#chart-abd549f5-5ae1-4e2a-8de3-c6ecbb5bb50f .color-1,#chart-abd549f5-5ae1-4e2a-8de3-c6ecbb5bb50f .color-1 a:visited{stroke:#000000;fill:#000000}#chart-abd549f5-5ae1-4e2a-8de3-c6ecbb5bb50f .color-2,#chart-abd549f5-5ae1-4e2a-8de3-c6ecbb5bb50f .color-2 a:visited{stroke:#ff0500;fill:#ff0500}#chart-abd549f5-5ae1-4e2a-8de3-c6ecbb5bb50f .color-3,#chart-abd549f5-5ae1-4e2a-8de3-c6ecbb5bb50f .color-3 a:visited{stroke:#323299;fill:#323299}#chart-abd549f5-5ae1-4e2a-8de3-c6ecbb5bb50f .color-4,#chart-abd549f5-5ae1-4e2a-8de3-c6ecbb5bb50f .color-4 a:visited{stroke:#a3413f;fill:#a3413f}#chart-abd549f5-5ae1-4e2a-8de3-c6ecbb5bb50f .color-5,#chart-abd549f5-5ae1-4e2a-8de3-c6ecbb5bb50f .color-5 a:visited{stroke:#a3413f;fill:#a3413f}#chart-abd549f5-5ae1-4e2a-8de3-c6ecbb5bb50f .color-6,#chart-abd549f5-5ae1-4e2a-8de3-c6ecbb5bb50f .color-6 a:visited{stroke:#a3413f;fill:#a3413f}#chart-abd549f5-5ae1-4e2a-8de3-c6ecbb5bb50f .color-7,#chart-abd549f5-5ae1-4e2a-8de3-c6ecbb5bb50f .color-7 a:visited{stroke:#a3413f;fill:#a3413f}#chart-abd549f5-5ae1-4e2a-8de3-c6ecbb5bb50f .color-8,#chart-abd549f5-5ae1-4e2a-8de3-c6ecbb5bb50f .color-8 a:visited{stroke:#a3413f;fill:#a3413f}#chart-abd549f5-5ae1-4e2a-8de3-c6ecbb5bb50f .color-9,#chart-abd549f5-5ae1-4e2a-8de3-c6ecbb5bb50f .color-9 a:visited{stroke:#657fff;fill:#657fff}#chart-abd549f5-5ae1-4e2a-8de3-c6ecbb5bb50f .color-10,#chart-abd549f5-5ae1-4e2a-8de3-c6ecbb5bb50f .color-10 a:visited{stroke:#657fff;fill:#657fff}#chart-abd549f5-5ae1-4e2a-8de3-c6ecbb5bb50f .color-11,#chart-abd549f5-5ae1-4e2a-8de3-c6ecbb5bb50f .color-11 a:visited{stroke:#657fff;fill:#657fff}#chart-abd549f5-5ae1-4e2a-8de3-c6ecbb5bb50f .color-12,#chart-abd549f5-5ae1-4e2a-8de3-c6ecbb5bb50f .color-12 a:visited{stroke:#657fff;fill:#657fff}#chart-abd549f5-5ae1-4e2a-8de3-c6ecbb5bb50f .color-13,#chart-abd549f5-5ae1-4e2a-8de3-c6ecbb5bb50f .color-13 a:visited{stroke:#657fff;fill:#657fff}#chart-abd549f5-5ae1-4e2a-8de3-c6ecbb5bb50f .text-overlay .color-0 text{fill:black}#chart-abd549f5-5ae1-4e2a-8de3-c6ecbb5bb50f .text-overlay .color-1 text{fill:white}#chart-abd549f5-5ae1-4e2a-8de3-c6ecbb5bb50f .text-overlay .color-2 text{fill:black}#chart-abd549f5-5ae1-4e2a-8de3-c6ecbb5bb50f .text-overlay .color-3 text{fill:black}#chart-abd549f5-5ae1-4e2a-8de3-c6ecbb5bb50f .text-overlay .color-4 text{fill:black}#chart-abd549f5-5ae1-4e2a-8de3-c6ecbb5bb50f .text-overlay .color-5 text{fill:black}#chart-abd549f5-5ae1-4e2a-8de3-c6ecbb5bb50f .text-overlay .color-6 text{fill:black}#chart-abd549f5-5ae1-4e2a-8de3-c6ecbb5bb50f .text-overlay .color-7 text{fill:black}#chart-abd549f5-5ae1-4e2a-8de3-c6ecbb5bb50f .text-overlay .color-8 text{fill:black}#chart-abd549f5-5ae1-4e2a-8de3-c6ecbb5bb50f .text-overlay .color-9 text{fill:black}#chart-abd549f5-5ae1-4e2a-8de3-c6ecbb5bb50f .text-overlay .color-10 text{fill:black}#chart-abd549f5-5ae1-4e2a-8de3-c6ecbb5bb50f .text-overlay .color-11 text{fill:black}#chart-abd549f5-5ae1-4e2a-8de3-c6ecbb5bb50f .text-overlay .color-12 text{fill:black}#chart-abd549f5-5ae1-4e2a-8de3-c6ecbb5bb50f .text-overlay .color-13 text{fill:black}#chart-abd549f5-5ae1-4e2a-8de3-c6ecbb5bb50f .series.serie-1{stroke-width:5}#chart-abd549f5-5ae1-4e2a-8de3-c6ecbb5bb50f .series.serie-2{stroke-width:3}#chart-abd549f5-5ae1-4e2a-8de3-c6ecbb5bb50f .series.serie-3{stroke-width:3}#chart-abd549f5-5ae1-4e2a-8de3-c6ecbb5bb50f .series.serie-4{stroke-width:2;stroke-dasharray:2,2}#chart-abd549f5-5ae1-4e2a-8de3-c6ecbb5bb50f .series.serie-5{stroke-width:2;stroke-dasharray:2,2}#chart-abd549f5-5ae1-4e2a-8de3-c6ecbb5bb50f .series.serie-6{stroke-width:2;stroke-dasharray:2,2}#chart-abd549f5-5ae1-4e2a-8de3-c6ecbb5bb50f .series.serie-7{stroke-width:2;stroke-dasharray:2,2}#chart-abd549f5-5ae1-4e2a-8de3-c6ecbb5bb50f .series.serie-8{stroke-width:2;stroke-dasharray:2,2}#chart-abd549f5-5ae1-4e2a-8de3-c6ecbb5bb50f .series.serie-9{stroke-width:2;stroke-dasharray:2,2}#chart-abd549f5-5ae1-4e2a-8de3-c6ecbb5bb50f .series.serie-10{stroke-width:2;stroke-dasharray:2,2}#chart-abd549f5-5ae1-4e2a-8de3-c6ecbb5bb50f .series.serie-11{stroke-width:2;stroke-dasharray:2,2}#chart-abd549f5-5ae1-4e2a-8de3-c6ecbb5bb50f .series.serie-12{stroke-width:2;stroke-dasharray:2,2}#chart-abd549f5-5ae1-4e2a-8de3-c6ecbb5bb50f .series.serie-13{stroke-width:2;stroke-dasharray:2,2}
#chart-abd549f5-5ae1-4e2a-8de3-c6ecbb5bb50f text.no_data{text-anchor:middle}#chart-abd549f5-5ae1-4e2a-8de3-c6ecbb5bb50f .guide.line{fill:none}#chart-abd549f5-5ae1-4e2a-8de3-c6ecbb5bb50f .centered{text-anchor:middle}#chart-abd549f5-5ae1-4e2a-8de3-c6ecbb5bb50f .title{text-anchor:middle}#chart-abd549f5-5ae1-4e2a-8de3-c6ecbb5bb50f .legends .legend text{fill-opacity:1}#chart-abd549f5-5ae1-4e2a-8de3-c6ecbb5bb50f .axis.x text{text-anchor:middle}#chart-abd549f5-5ae1-4e2a-8de3-c6ecbb5bb50f .axis.x:not(.web) text[transform]{text-anchor:start}#chart-abd549f5-5ae1-4e2a-8de3-c6ecbb5bb50f .axis.x:not(.web) text[transform].backwards{text-anchor:end}#chart-abd549f5-5ae1-4e2a-8de3-c6ecbb5bb50f .axis.y text{text-anchor:end}#chart-abd549f5-5ae1-4e2a-8de3-c6ecbb5bb50f .axis.y text[transform].backwards{text-anchor:start}#chart-abd549f5-5ae1-4e2a-8de3-c6ecbb5bb50f .axis.y2 text{text-anchor:start}#chart-abd549f5-5ae1-4e2a-8de3-c6ecbb5bb50f .axis.y2 text[transform].backwards{text-anchor:end}#chart-abd549f5-5ae1-4e2a-8de3-c6ecbb5bb50f .axis .guide.line{stroke-dasharray:4,4}#chart-abd549f5-5ae1-4e2a-8de3-c6ecbb5bb50f .axis .major.guide.line{stroke-dasharray:6,6}#chart-abd549f5-5ae1-4e2a-8de3-c6ecbb5bb50f .horizontal .axis.y .guide.line,#chart-abd549f5-5ae1-4e2a-8de3-c6ecbb5bb50f .horizontal .axis.y2 .guide.line,#chart-abd549f5-5ae1-4e2a-8de3-c6ecbb5bb50f .vertical .axis.x .guide.line{opacity:0}#chart-abd549f5-5ae1-4e2a-8de3-c6ecbb5bb50f .horizontal .axis.always_show .guide.line,#chart-abd549f5-5ae1-4e2a-8de3-c6ecbb5bb50f .vertical .axis.always_show .guide.line{opacity:1 !important}#chart-abd549f5-5ae1-4e2a-8de3-c6ecbb5bb50f .axis.y .guides:hover .guide.line,#chart-abd549f5-5ae1-4e2a-8de3-c6ecbb5bb50f .axis.y2 .guides:hover .guide.line,#chart-abd549f5-5ae1-4e2a-8de3-c6ecbb5bb50f .axis.x .guides:hover .guide.line{opacity:1}#chart-abd549f5-5ae1-4e2a-8de3-c6ecbb5bb50f .axis .guides:hover text{opacity:1}#chart-abd549f5-5ae1-4e2a-8de3-c6ecbb5bb50f .nofill{fill:none}#chart-abd549f5-5ae1-4e2a-8de3-c6ecbb5bb50f .subtle-fill{fill-opacity:.2}#chart-abd549f5-5ae1-4e2a-8de3-c6ecbb5bb50f .dot{stroke-width:1px;fill-opacity:1}#chart-abd549f5-5ae1-4e2a-8de3-c6ecbb5bb50f .dot.active{stroke-width:5px}#chart-abd549f5-5ae1-4e2a-8de3-c6ecbb5bb50f .dot.negative{fill:transparent}#chart-abd549f5-5ae1-4e2a-8de3-c6ecbb5bb50f text,#chart-abd549f5-5ae1-4e2a-8de3-c6ecbb5bb50f tspan{stroke:none !important}#chart-abd549f5-5ae1-4e2a-8de3-c6ecbb5bb50f .series text.active{opacity:1}#chart-abd549f5-5ae1-4e2a-8de3-c6ecbb5bb50f .tooltip rect{fill-opacity:.95;stroke-width:.5}#chart-abd549f5-5ae1-4e2a-8de3-c6ecbb5bb50f .tooltip text{fill-opacity:1}#chart-abd549f5-5ae1-4e2a-8de3-c6ecbb5bb50f .showable{visibility:hidden}#chart-abd549f5-5ae1-4e2a-8de3-c6ecbb5bb50f .showable.shown{visibility:visible}#chart-abd549f5-5ae1-4e2a-8de3-c6ecbb5bb50f .gauge-background{fill:rgba(229,229,229,1);stroke:none}#chart-abd549f5-5ae1-4e2a-8de3-c6ecbb5bb50f .bg-lines{stroke:rgba(249,249,249,1);stroke-width:2px}</style><script type="text/javascript">window.pygal = window.pygal || {};window.pygal.config = window.pygal.config || {};window.pygal.config['abd549f5-5ae1-4e2a-8de3-c6ecbb5bb50f'] = {"allow_interruptions": false, "x_label_rotation": 60, "y_title": "Density", "stack_from_top": false, "stroke": true, "include_x_axis": false, "defs": [], "truncate_label": null, "legend_at_bottom_columns": null, "show_minor_y_labels": true, "show_x_labels": true, "tooltip_fancy_mode": true, "show_legend": true, "print_labels": false, "disable_xml_declaration": false, "secondary_range": null, "x_labels": ["-8.96", "-8.76", "-8.56", "-8.36", "-8.16", "-7.96", "-7.76", "-7.56", "-7.36", "-7.16", "-6.96", "-6.76", "-6.56", "-6.36", "-6.16", "-5.96", "-5.76", "-5.56", "-5.36", "-5.16", "-4.96", "-4.76", "-4.56", "-4.36", "-4.16", "-3.96", "-3.76", "-3.56", "-3.36", "-3.16", "-2.96", "-2.76", "-2.56", "-2.36", "-2.16", "-1.96", "-1.76", "-1.56", "-1.36", "-1.16", "-0.96", "-0.76", "-0.56", "-0.36", "-0.16", "0.04", "0.24", "0.44", "0.64", "0.84", "1.04", "1.24", "1.43", "1.63", "1.83", "2.03", "2.23", "2.43", "2.63", "2.83"], "interpolation_precision": 250, "force_uri_protocol": "https", "classes": ["pygal-chart"], "css": ["file://style.css", "file://graph.css"], "margin": 20, "style": {"opacity_hover": ".8", "foreground": "rgba(0, 0, 0, .87)", "foreground_subtle": "rgba(0, 0, 0, .54)", "value_colors": [], "legend_font_family": "Consolas, \"Liberation Mono\", Menlo, Courier, monospace", "tooltip_font_family": "Consolas, \"Liberation Mono\", Menlo, Courier, monospace", "stroke_opacity_hover": ".9", "no_data_font_size": 64, "guide_stroke_dasharray": "4,4", "title_font_family": "Consolas, \"Liberation Mono\", Menlo, Courier, monospace", "label_font_family": "Consolas, \"Liberation Mono\", Menlo, Courier, monospace", "ci_colors": [], "background": "rgba(249, 249, 249, 1)", "colors": ["#909090", "#000000", "#ff0500", "#323299", "#a3413f", "#a3413f", "#a3413f", "#a3413f", "#a3413f", "#657fff", "#657fff", "#657fff", "#657fff", "#657fff"], "value_font_family": "Consolas, \"Liberation Mono\", Menlo, Courier, monospace", "font_family": "Consolas, \"Liberation Mono\", Menlo, Courier, monospace", "value_background": "rgba(229, 229, 229, 1)", "stroke_opacity": ".8", "title_font_size": 16, "no_data_font_family": "Consolas, \"Liberation Mono\", Menlo, Courier, monospace", "label_font_size": 10, "major_guide_stroke_dasharray": "6,6", "major_label_font_size": 10, "transition": "150ms", "opacity": ".7", "legend_font_size": 10, "value_label_font_family": "Consolas, \"Liberation Mono\", Menlo, Courier, monospace", "major_label_font_family": "Consolas, \"Liberation Mono\", Menlo, Courier, monospace", "plot_background": "rgba(255, 255, 255, 1)", "value_label_font_size": 10, "foreground_strong": "rgba(0, 0, 0, 1)", "tooltip_font_size": 14, "value_font_size": 16}, "order_min": null, "interpolation_parameters": {}, "show_dots": false, "y_labels_major": null, "box_mode": "extremes", "fill": false, "show_minor_x_labels": false, "js": ["//kozea.github.io/pygal.js/2.0.x/pygal-tooltips.min.js"], "explicit_size": false, "formatter": null, "x_labels_major": null, "legends": ["Data", "GMM", "i=0", "i=1", "i=0 k=0", "i=0 k=1", "i=0 k=2", "i=0 k=3", "i=0 k=4", "i=1 k=0", "i=1 k=1", "i=1 k=2", "i=1 k=3", "i=1 k=4"], "zero": 0, "strict": false, "print_values": false, "margin_bottom": null, "dynamic_print_values": false, "print_zeroes": true, "logarithmic": false, "x_labels_major_count": null, "margin_left": null, "legend_box_size": 12, "max_scale": 16, "dots_size": 2.5, "show_y_guides": true, "truncate_legend": null, "interpolate": null, "y_labels_major_every": null, "legend_at_bottom": false, "inner_radius": 0, "tooltip_border_radius": 0, "show_x_guides": false, "x_labels_major_every": 2, "show_y_labels": true, "pretty_print": false, "rounded_bars": null, "missing_value_fill_truncation": "x", "y_label_rotation": 0, "height": 600, "show_only_major_dots": false, "spacing": 10, "inverse_y_axis": false, "xrange": null, "margin_right": null, "no_prefix": false, "range": [0, 0.27578580090479526], "margin_top": null, "no_data_text": "No data", "y_labels_major_count": null, "half_pie": false, "width": 800, "title": "Iteration #9", "stroke_style": null, "y_labels": null, "print_values_position": "center", "x_title": "Observation", "min_scale": 4}</script><script type="text/javascript" xlink:href="https://kozea.github.io/pygal.js/2.0.x/pygal-tooltips.min.js" /></defs><title>Iteration #9</title><g class="graph line-graph vertical"><rect class="background" height="600" width="800" x="0" y="0" /><g class="plot" transform="translate(144, 46)"><rect class="background" height="472.01923788646684" width="636.0" x="0" y="0" /><g class="axis y always_show"><g class="guides"><path class="axis major line" d="M0.000000 462.941945 h636.000000" /><text class="major" x="-5" y="466.44194485">0</text><title>0</title></g><g class="guides"><path class="guide line" d="M0.000000 430.027658 h636.000000" /><text class="" x="-5" y="433.527657724">0.02</text><title>0.02</title></g><g class="guides"><path class="guide line" d="M0.000000 397.113371 h636.000000" /><text class="" x="-5" y="400.613370598">0.04</text><title>0.04</title></g><g class="guides"><path class="guide line" d="M0.000000 364.199083 h636.000000" /><text class="" x="-5" y="367.699083472">0.06</text><title>0.06</title></g><g class="guides"><path class="guide line" d="M0.000000 331.284796 h636.000000" /><text class="" x="-5" y="334.784796346">0.08</text><title>0.08</title></g><g class="guides"><path class="guide line" d="M0.000000 298.370509 h636.000000" /><text class="" x="-5" y="301.87050922">0.1</text><title>0.1</title></g><g class="guides"><path class="guide line" d="M0.000000 265.456222 h636.000000" /><text class="" x="-5" y="268.956222094">0.12</text><title>0.12</title></g><g class="guides"><path class="guide line" d="M0.000000 232.541935 h636.000000" /><text class="" x="-5" y="236.041934968">0.14</text><title>0.14</title></g><g class="guides"><path class="guide line" d="M0.000000 199.627648 h636.000000" /><text class="" x="-5" y="203.127647841">0.16</text><title>0.16</title></g><g class="guides"><path class="guide line" d="M0.000000 166.713361 h636.000000" /><text class="" x="-5" y="170.213360715">0.18</text><title>0.18</title></g><g class="guides"><path class="guide line" d="M0.000000 133.799074 h636.000000" /><text class="" x="-5" y="137.299073589">0.2</text><title>0.2</title></g><g class="guides"><path class="guide line" d="M0.000000 100.884786 h636.000000" /><text class="" x="-5" y="104.384786463">0.22</text><title>0.22</title></g><g class="guides"><path class="guide line" d="M0.000000 67.970499 h636.000000" /><text class="" x="-5" y="71.4704993371">0.24</text><title>0.24</title></g><g class="guides"><path class="guide line" d="M0.000000 35.056212 h636.000000" /><text class="" x="-5" y="38.5562122111">0.26</text><title>0.26</title></g></g><g class="axis x"><g class="guides"><path class="major line" d="M12.230769 0.000000 v472.019238" /><text class="major" transform="rotate(60 12.230769 487.019238)" x="12.230769230769232" y="487.01923788646684">-8.96</text></g><g class="guides"><path class="major guide line" d="M32.960887 0.000000 v472.019238" /><text class="major" transform="rotate(60 32.960887 487.019238)" x="32.96088657105606" y="487.01923788646684">-8.56</text></g><g class="guides"><path class="major guide line" d="M53.691004 0.000000 v472.019238" /><text class="major" transform="rotate(60 53.691004 487.019238)" x="53.6910039113429" y="487.01923788646684">-8.16</text></g><g class="guides"><path class="major guide line" d="M74.421121 0.000000 v472.019238" /><text class="major" transform="rotate(60 74.421121 487.019238)" x="74.42112125162973" y="487.01923788646684">-7.76</text></g><g class="guides"><path class="major guide line" d="M95.151239 0.000000 v472.019238" /><text class="major" transform="rotate(60 95.151239 487.019238)" x="95.15123859191655" y="487.01923788646684">-7.36</text></g><g class="guides"><path class="major guide line" d="M115.881356 0.000000 v472.019238" /><text class="major" transform="rotate(60 115.881356 487.019238)" x="115.88135593220338" y="487.01923788646684">-6.96</text></g><g class="guides"><path class="major guide line" d="M136.611473 0.000000 v472.019238" /><text class="major" transform="rotate(60 136.611473 487.019238)" x="136.61147327249023" y="487.01923788646684">-6.56</text></g><g class="guides"><path class="major guide line" d="M157.341591 0.000000 v472.019238" /><text class="major" transform="rotate(60 157.341591 487.019238)" x="157.34159061277705" y="487.01923788646684">-6.16</text></g><g class="guides"><path class="major guide line" d="M178.071708 0.000000 v472.019238" /><text class="major" transform="rotate(60 178.071708 487.019238)" x="178.0717079530639" y="487.01923788646684">-5.76</text></g><g class="guides"><path class="major guide line" d="M198.801825 0.000000 v472.019238" /><text class="major" transform="rotate(60 198.801825 487.019238)" x="198.80182529335073" y="487.01923788646684">-5.36</text></g><g class="guides"><path class="major guide line" d="M219.531943 0.000000 v472.019238" /><text class="major" transform="rotate(60 219.531943 487.019238)" x="219.53194263363756" y="487.01923788646684">-4.96</text></g><g class="guides"><path class="major guide line" d="M240.262060 0.000000 v472.019238" /><text class="major" transform="rotate(60 240.262060 487.019238)" x="240.2620599739244" y="487.01923788646684">-4.56</text></g><g class="guides"><path class="major guide line" d="M260.992177 0.000000 v472.019238" /><text class="major" transform="rotate(60 260.992177 487.019238)" x="260.99217731421123" y="487.01923788646684">-4.16</text></g><g class="guides"><path class="major guide line" d="M281.722295 0.000000 v472.019238" /><text class="major" transform="rotate(60 281.722295 487.019238)" x="281.722294654498" y="487.01923788646684">-3.76</text></g><g class="guides"><path class="major guide line" d="M302.452412 0.000000 v472.019238" /><text class="major" transform="rotate(60 302.452412 487.019238)" x="302.4524119947849" y="487.01923788646684">-3.36</text></g><g class="guides"><path class="major guide line" d="M323.182529 0.000000 v472.019238" /><text class="major" transform="rotate(60 323.182529 487.019238)" x="323.1825293350717" y="487.01923788646684">-2.96</text></g><g class="guides"><path class="major guide line" d="M343.912647 0.000000 v472.019238" /><text class="major" transform="rotate(60 343.912647 487.019238)" x="343.91264667535853" y="487.01923788646684">-2.56</text></g><g class="guides"><path class="major guide line" d="M364.642764 0.000000 v472.019238" /><text class="major" transform="rotate(60 364.642764 487.019238)" x="364.64276401564535" y="487.01923788646684">-2.16</text></g><g class="guides"><path class="major guide line" d="M385.372881 0.000000 v472.019238" /><text class="major" transform="rotate(60 385.372881 487.019238)" x="385.37288135593224" y="487.01923788646684">-1.76</text></g><g class="guides"><path class="major guide line" d="M406.102999 0.000000 v472.019238" /><text class="major" transform="rotate(60 406.102999 487.019238)" x="406.102998696219" y="487.01923788646684">-1.36</text></g><g class="guides"><path class="major guide line" d="M426.833116 0.000000 v472.019238" /><text class="major" transform="rotate(60 426.833116 487.019238)" x="426.8331160365058" y="487.01923788646684">-0.96</text></g><g class="guides"><path class="major guide line" d="M447.563233 0.000000 v472.019238" /><text class="major" transform="rotate(60 447.563233 487.019238)" x="447.56323337679265" y="487.01923788646684">-0.56</text></g><g class="guides"><path class="major guide line" d="M468.293351 0.000000 v472.019238" /><text class="major" transform="rotate(60 468.293351 487.019238)" x="468.29335071707953" y="487.01923788646684">-0.16</text></g><g class="guides"><path class="major guide line" d="M489.023468 0.000000 v472.019238" /><text class="major" transform="rotate(60 489.023468 487.019238)" x="489.02346805736636" y="487.01923788646684">0.24</text></g><g class="guides"><path class="major guide line" d="M509.753585 0.000000 v472.019238" /><text class="major" transform="rotate(60 509.753585 487.019238)" x="509.75358539765324" y="487.01923788646684">0.64</text></g><g class="guides"><path class="major guide line" d="M530.483703 0.000000 v472.019238" /><text class="major" transform="rotate(60 530.483703 487.019238)" x="530.48370273794" y="487.01923788646684">1.04</text></g><g class="guides"><path class="major guide line" d="M551.213820 0.000000 v472.019238" /><text class="major" transform="rotate(60 551.213820 487.019238)" x="551.213820078227" y="487.01923788646684">1.43</text></g><g class="guides"><path class="major guide line" d="M571.943937 0.000000 v472.019238" /><text class="major" transform="rotate(60 571.943937 487.019238)" x="571.9439374185138" y="487.01923788646684">1.83</text></g><g class="guides"><path class="major guide line" d="M592.674055 0.000000 v472.019238" /><text class="major" transform="rotate(60 592.674055 487.019238)" x="592.6740547588006" y="487.01923788646684">2.23</text></g><g class="guides"><path class="major guide line" d="M613.404172 0.000000 v472.019238" /><text class="major" transform="rotate(60 613.404172 487.019238)" x="613.4041720990874" y="487.01923788646684">2.63</text></g></g><g class="series serie-0 color-0"><path class="line reactive" d="M12.230769 462.941945 L12.230769 462.019456 22.595828 462.941945 32.960887 461.096967 43.325945 462.019456 53.691004 459.251988 64.056063 462.019456 74.421121 458.329499 84.786180 462.019456 95.151239 458.329499 105.516297 462.019456 115.881356 448.182119 126.246415 460.174477 136.611473 457.407010 146.976532 457.407010 157.341591 451.872075 167.706649 448.182119 178.071708 454.639543 188.436767 445.414651 198.801825 442.647184 209.166884 436.189760 219.531943 437.112249 229.897001 392.832771 240.262060 396.522728 250.627119 376.227967 260.992177 355.933206 271.357236 351.320760 281.722295 325.491065 292.087353 277.521630 302.452412 283.056565 312.817471 202.800010 323.182529 188.040184 333.547588 169.590402 343.912647 123.465945 354.277705 95.791271 364.642764 67.194108 375.007823 82.876423 385.372881 60.736684 395.737940 80.108956 406.102999 29.372054 416.468057 9.077293 426.833116 70.884065 437.198175 69.039086 447.563233 41.364413 457.928292 40.441923 468.293351 91.178826 478.658409 140.993239 489.023468 214.792369 499.388527 259.071847 509.753585 321.801108 520.118644 364.235608 530.483703 408.515086 540.848761 430.654825 551.213820 448.182119 561.578879 455.562032 571.943937 458.329499 582.308996 458.329499 592.674055 462.019456 603.039113 462.941945 613.404172 462.019456 623.769231 462.941945" /></g><g class="series serie-1 color-1"><path class="line reactive nofill" d="M12.230769 462.915646 L22.595828 462.895785 32.960887 462.862529 43.325945 462.808015 53.691004 462.720552 64.056063 462.583213 74.421121 462.372181 84.786180 462.054911 95.151239 461.588301 105.516297 460.917117 115.881356 459.973074 126.246415 458.675026 136.611473 456.930780 146.976532 454.641000 157.341591 451.705479 167.706649 448.031636 178.071708 443.544370 188.436767 438.195184 198.801825 431.966667 209.166884 424.866236 219.531943 416.901288 229.897001 408.028732 240.262060 398.078440 250.627119 386.665000 260.992177 373.123879 271.357236 356.527748 281.722295 335.839856 292.087353 310.227381 302.452412 279.484503 312.817471 244.423101 323.182529 207.026535 333.547588 170.190977 343.912647 137.034276 354.277705 109.986437 364.642764 90.057642 375.007823 76.688816 385.372881 68.362092 395.737940 63.620943 406.102999 61.538295 416.468057 60.934555 426.833116 59.414303 437.198175 54.611163 447.563233 47.901692 457.928292 46.778819 468.293351 61.906548 478.658409 100.154930 489.023468 159.454446 499.388527 229.652439 509.753585 298.071182 520.118644 355.203873 530.483703 397.200541 540.848761 424.991170 551.213820 441.902753 561.578879 451.571949 571.943937 456.876577 582.308996 459.721444 592.674055 461.233702 603.039113 462.036801 613.404172 462.463939 623.769231 462.691181" /></g><g class="series serie-2 color-2"><path class="line reactive nofill" d="M12.230769 462.941945 L22.595828 462.941945 32.960887 462.941945 43.325945 462.941945 53.691004 462.941945 64.056063 462.941945 74.421121 462.941945 84.786180 462.941945 95.151239 462.941945 105.516297 462.941945 115.881356 462.941945 126.246415 462.941945 136.611473 462.941945 146.976532 462.941945 157.341591 462.941945 167.706649 462.941945 178.071708 462.941944 188.436767 462.941944 198.801825 462.941942 209.166884 462.941936 219.531943 462.941921 229.897001 462.941883 240.262060 462.941786 250.627119 462.941546 260.992177 462.940967 271.357236 462.939595 281.722295 462.936411 292.087353 462.929135 302.452412 462.912716 312.817471 462.875958 323.182529 462.793856 333.547588 462.609950 343.912647 462.196046 354.277705 461.264570 364.642764 459.195910 375.007823 454.750516 385.372881 445.709135 395.737940 428.667625 406.102999 399.452475 416.468057 354.665432 426.833116 294.343183 437.198175 224.591306 447.563233 158.088511 457.928292 110.832744 468.293351 95.837646 478.658409 117.145675 489.023468 167.974389 499.388527 234.190189 509.753585 300.699794 520.118644 356.826375 530.483703 398.230687 540.848761 425.646860 551.213820 442.315655 561.578879 451.827733 571.943937 457.032102 582.308996 459.814183 592.674055 461.287917 603.039113 462.067869 613.404172 462.481391 623.769231 462.700790" /></g><g class="series serie-3 color-3"><path class="line reactive nofill" d="M12.230769 462.915646 L22.595828 462.895785 32.960887 462.862529 43.325945 462.808015 53.691004 462.720552 64.056063 462.583213 74.421121 462.372181 84.786180 462.054911 95.151239 461.588301 105.516297 460.917117 115.881356 459.973074 126.246415 458.675026 136.611473 456.930780 146.976532 454.641000 157.341591 451.705479 167.706649 448.031636 178.071708 443.544371 188.436767 438.195185 198.801825 431.966670 209.166884 424.866244 219.531943 416.901311 229.897001 408.028794 240.262060 398.078599 250.627119 386.665399 260.992177 373.124857 271.357236 356.530097 281.722295 335.845390 292.087353 310.240191 302.452412 279.513731 312.817471 244.489088 323.182529 207.174624 333.547588 170.522972 343.912647 137.780175 354.277705 111.663812 364.642764 93.803677 375.007823 84.880245 385.372881 85.594902 395.737940 97.895263 406.102999 125.027765 416.468057 169.211068 426.833116 228.013065 437.198175 292.961802 447.563233 352.755125 457.928292 398.888019 468.293351 429.010847 478.658409 445.951200 489.023468 454.422002 499.388527 458.404194 509.753585 460.313333 520.118644 461.319443 530.483703 461.911798 540.848761 462.286254 551.213820 462.529042 561.578879 462.686161 571.943937 462.786419 582.308996 462.849206 592.674055 462.887730 603.039113 462.910877 613.404172 462.924493 623.769231 462.932336" /></g><g class="series serie-4 color-4"><path class="line reactive nofill" d="M12.230769 462.941945 L22.595828 462.941945 32.960887 462.941945 43.325945 462.941945 53.691004 462.941945 64.056063 462.941945 74.421121 462.941945 84.786180 462.941945 95.151239 462.941945 105.516297 462.941945 115.881356 462.941945 126.246415 462.941945 136.611473 462.941945 146.976532 462.941945 157.341591 462.941945 167.706649 462.941945 178.071708 462.941945 188.436767 462.941945 198.801825 462.941945 209.166884 462.941945 219.531943 462.941945 229.897001 462.941945 240.262060 462.941945 250.627119 462.941945 260.992177 462.941945 271.357236 462.941945 281.722295 462.941942 292.087353 462.941927 302.452412 462.941825 312.817471 462.941234 323.182529 462.938193 333.547588 462.924309 343.912647 462.868186 354.277705 462.667446 364.642764 462.032900 375.007823 460.263110 385.372881 455.917340 395.737940 446.550642 406.102999 428.907341 416.468057 400.057459 426.833116 359.551133 437.198175 311.677806 447.563233 266.014783 457.928292 234.807494 468.293351 227.766630 478.658409 247.213109 489.023468 286.849681 499.388527 335.036816 509.753585 380.271314 520.118644 415.394175 530.483703 438.607320 540.848761 451.859521 551.213820 458.450764 561.578879 461.322367 571.943937 462.422238 582.308996 462.793546 592.674055 462.904238 603.039113 462.933419 613.404172 462.940230 623.769231 462.941638" /></g><g class="series serie-5 color-5"><path class="line reactive nofill" d="M12.230769 462.941945 L22.595828 462.941945 32.960887 462.941945 43.325945 462.941945 53.691004 462.941945 64.056063 462.941945 74.421121 462.941945 84.786180 462.941945 95.151239 462.941945 105.516297 462.941945 115.881356 462.941945 126.246415 462.941945 136.611473 462.941945 146.976532 462.941945 157.341591 462.941945 167.706649 462.941945 178.071708 462.941945 188.436767 462.941945 198.801825 462.941945 209.166884 462.941945 219.531943 462.941945 229.897001 462.941945 240.262060 462.941945 250.627119 462.941944 260.992177 462.941942 271.357236 462.941930 281.722295 462.941873 292.087353 462.941620 302.452412 462.940604 312.817471 462.936857 323.182529 462.924210 333.547588 462.885152 343.912647 462.774862 354.277705 462.490343 364.642764 461.820537 375.007823 460.383621 385.372881 457.579891 395.737940 452.616930 406.102999 444.676347 416.468057 433.255320 426.833116 418.614621 437.198175 402.133215 447.563233 386.303957 457.928292 374.204690 468.293351 368.546372 478.658409 370.688838 489.023468 380.110714 499.388527 394.615163 509.753585 411.160811 520.118644 426.889403 530.483703 439.880636 540.848761 449.389559 551.213820 455.624974 561.578879 459.312580 571.943937 461.288028 582.308996 462.249508 592.674055 462.675608 603.039113 462.847828 613.404172 462.911390 623.769231 462.932831" /></g><g class="series serie-6 color-6"><path class="line reactive nofill" d="M12.230769 462.941945 L22.595828 462.941945 32.960887 462.941945 43.325945 462.941945 53.691004 462.941945 64.056063 462.941945 74.421121 462.941945 84.786180 462.941945 95.151239 462.941945 105.516297 462.941945 115.881356 462.941945 126.246415 462.941945 136.611473 462.941945 146.976532 462.941945 157.341591 462.941945 167.706649 462.941945 178.071708 462.941945 188.436767 462.941945 198.801825 462.941945 209.166884 462.941945 219.531943 462.941944 229.897001 462.941943 240.262060 462.941937 250.627119 462.941917 260.992177 462.941846 271.357236 462.941616 281.722295 462.940920 292.087353 462.938933 302.452412 462.933610 312.817471 462.920219 323.182529 462.888599 333.547588 462.818562 343.912647 462.673130 354.277705 462.390265 364.642764 461.875451 375.007823 460.999866 385.372881 459.610651 395.737940 457.559292 406.102999 454.749431 416.468057 451.196343 426.833116 447.079477 437.198175 442.762762 447.563233 438.760973 457.928292 435.647060 468.293351 433.920024 478.658409 433.874398 489.023468 435.518124 499.388527 438.570297 509.753585 442.539642 520.118644 446.853620 530.483703 450.991617 540.848761 454.580407 551.213820 457.430952 561.578879 459.520489 571.943937 460.941027 582.308996 461.839682 592.674055 462.369968 603.039113 462.662363 613.404172 462.813216 623.769231 462.886113" /></g><g class="series serie-7 color-7"><path class="line reactive nofill" d="M12.230769 462.941945 L22.595828 462.941945 32.960887 462.941945 43.325945 462.941945 53.691004 462.941945 64.056063 462.941945 74.421121 462.941945 84.786180 462.941945 95.151239 462.941945 105.516297 462.941945 115.881356 462.941945 126.246415 462.941945 136.611473 462.941945 146.976532 462.941945 157.341591 462.941945 167.706649 462.941945 178.071708 462.941945 188.436767 462.941945 198.801825 462.941944 209.166884 462.941942 219.531943 462.941936 229.897001 462.941919 240.262060 462.941873 250.627119 462.941754 260.992177 462.941459 271.357236 462.940762 281.722295 462.939183 292.087353 462.935772 302.452412 462.928732 312.817471 462.914864 323.182529 462.888794 333.547588 462.842054 343.912647 462.762175 354.277705 462.632143 364.642764 462.430704 375.007823 462.134072 385.372881 461.719484 395.737940 461.170605 406.102999 460.484162 416.468057 459.676366 426.833116 458.787131 437.198175 457.879994 447.563233 457.036412 457.928292 456.344509 468.293351 455.884197 478.658409 455.712050 489.023468 455.849880 499.388527 456.280196 509.753585 456.949849 520.118644 457.780823 530.483703 458.685135 540.848761 459.579932 551.213820 460.399279 561.578879 461.100519 571.943937 461.664936 582.308996 462.093920 592.674055 462.402685 603.039113 462.613576 613.404172 462.750475 623.769231 462.835036" /></g><g class="series serie-8 color-8"><path class="line reactive nofill" d="M12.230769 462.941945 L22.595828 462.941945 32.960887 462.941945 43.325945 462.941945 53.691004 462.941945 64.056063 462.941945 74.421121 462.941945 84.786180 462.941945 95.151239 462.941945 105.516297 462.941945 115.881356 462.941945 126.246415 462.941945 136.611473 462.941945 146.976532 462.941945 157.341591 462.941945 167.706649 462.941945 178.071708 462.941945 188.436767 462.941944 198.801825 462.941943 209.166884 462.941939 219.531943 462.941931 229.897001 462.941911 240.262060 462.941866 250.627119 462.941766 260.992177 462.941554 271.357236 462.941122 281.722295 462.940272 292.087353 462.938662 302.452412 462.935724 312.817471 462.930564 323.182529 462.921839 333.547588 462.907652 343.912647 462.885471 354.277705 462.852151 364.642764 462.804097 375.007823 462.737627 385.372881 462.649549 395.737940 462.537936 406.102999 462.402972 416.468057 462.247724 426.833116 462.078600 437.198175 461.905308 447.563233 461.740166 457.928292 461.596771 468.293351 461.488202 478.658409 461.425060 489.023468 461.413769 499.388527 461.455497 509.753585 461.545957 520.118644 461.676133 530.483703 461.833760 540.848761 462.005222 551.213820 462.177465 561.578879 462.339557 571.943937 462.483653 582.308996 462.605307 592.674055 462.703196 603.039113 462.778462 613.404172 462.833861 623.769231 462.872952" /></g><g class="series serie-9 color-9"><path class="line reactive nofill" d="M12.230769 462.941945 L22.595828 462.941945 32.960887 462.941945 43.325945 462.941945 53.691004 462.941945 64.056063 462.941945 74.421121 462.941945 84.786180 462.941945 95.151239 462.941945 105.516297 462.941945 115.881356 462.941945 126.246415 462.941945 136.611473 462.941945 146.976532 462.941945 157.341591 462.941945 167.706649 462.941945 178.071708 462.941945 188.436767 462.941945 198.801825 462.941945 209.166884 462.941945 219.531943 462.941945 229.897001 462.941945 240.262060 462.941945 250.627119 462.941945 260.992177 462.941945 271.357236 462.941944 281.722295 462.941939 292.087353 462.941880 302.452412 462.941383 312.817471 462.937897 323.182529 462.917615 333.547588 462.819911 343.912647 462.431219 354.277705 461.158485 364.642764 457.745482 375.007823 450.308508 385.372881 437.314552 395.737940 419.565243 406.102999 401.681826 416.468057 390.753393 426.833116 391.963248 437.198175 404.710587 447.563233 423.080320 457.928292 440.174081 468.293351 452.091220 478.658409 458.627107 489.023468 461.510287 499.388527 462.545591 509.753585 462.850387 520.118644 462.924298 530.483703 462.939107 540.848761 462.941564 551.213820 462.941902 561.578879 462.941941 571.943937 462.941945 582.308996 462.941945 592.674055 462.941945 603.039113 462.941945 613.404172 462.941945 623.769231 462.941945" /></g><g class="series serie-10 color-10"><path class="line reactive nofill" d="M12.230769 462.941945 L22.595828 462.941945 32.960887 462.941945 43.325945 462.941945 53.691004 462.941945 64.056063 462.941945 74.421121 462.941945 84.786180 462.941945 95.151239 462.941945 105.516297 462.941945 115.881356 462.941945 126.246415 462.941945 136.611473 462.941945 146.976532 462.941945 157.341591 462.941945 167.706649 462.941945 178.071708 462.941945 188.436767 462.941945 198.801825 462.941945 209.166884 462.941945 219.531943 462.941945 229.897001 462.941943 240.262060 462.941934 250.627119 462.941865 260.992177 462.941446 271.357236 462.939190 281.722295 462.928579 292.087353 462.884944 302.452412 462.728279 312.817471 462.237965 323.182529 460.903206 333.547588 457.752296 343.912647 451.330418 354.277705 440.106166 364.642764 423.467378 375.007823 402.963668 385.372881 382.839518 395.737940 368.910646 406.102999 365.919042 416.468057 374.948329 426.833116 392.795909 437.198175 413.791192 447.563233 432.670560 457.928292 446.554567 468.293351 455.144331 478.658409 459.680658 489.023468 461.743021 499.388527 462.554537 509.753585 462.831912 520.118644 462.914475 530.483703 462.935917 540.848761 462.940782 551.213820 462.941748 561.578879 462.941915 571.943937 462.941941 582.308996 462.941944 592.674055 462.941945 603.039113 462.941945 613.404172 462.941945 623.769231 462.941945" /></g><g class="series serie-11 color-11"><path class="line reactive nofill" d="M12.230769 462.941945 L22.595828 462.941945 32.960887 462.941945 43.325945 462.941945 53.691004 462.941945 64.056063 462.941945 74.421121 462.941945 84.786180 462.941945 95.151239 462.941945 105.516297 462.941945 115.881356 462.941945 126.246415 462.941945 136.611473 462.941945 146.976532 462.941945 157.341591 462.941944 167.706649 462.941942 178.071708 462.941930 188.436767 462.941869 198.801825 462.941602 209.166884 462.940516 219.531943 462.936470 229.897001 462.922673 240.262060 462.879633 250.627119 462.756885 260.992177 462.437127 271.357236 461.677082 281.722295 460.030973 292.087353 456.788504 302.452412 450.994264 312.817471 441.634331 323.182529 428.038233 333.547588 410.425658 343.912647 390.364444 354.277705 370.813105 364.642764 355.524505 375.007823 347.904404 385.372881 349.782716 395.737940 360.700738 406.102999 378.092784 416.468057 398.264219 426.833116 417.657659 437.198175 433.819629 447.563233 445.739512 457.928292 453.608554 468.293351 458.290642 478.658409 460.812848 489.023468 462.046783 499.388527 462.596249 509.753585 462.819322 520.118644 462.901993 530.483703 462.929989 540.848761 462.938658 551.213820 462.941115 561.578879 462.941752 571.943937 462.941904 582.308996 462.941937 592.674055 462.941943 603.039113 462.941945 613.404172 462.941945 623.769231 462.941945" /></g><g class="series serie-12 color-12"><path class="line reactive nofill" d="M12.230769 462.941945 L22.595828 462.941945 32.960887 462.941945 43.325945 462.941945 53.691004 462.941945 64.056063 462.941945 74.421121 462.941945 84.786180 462.941945 95.151239 462.941945 105.516297 462.941944 115.881356 462.941942 126.246415 462.941932 136.611473 462.941888 146.976532 462.941713 157.341591 462.941060 167.706649 462.938799 178.071708 462.931522 188.436767 462.909754 198.801825 462.849272 209.166884 462.693266 219.531943 462.319946 229.897001 461.491828 240.262060 459.790715 250.627119 456.559005 260.992177 450.890895 271.357236 441.734299 281.722295 428.154423 292.087353 409.753414 302.452412 387.140765 312.817471 362.249381 323.182529 338.266106 333.547588 319.051928 343.912647 308.152089 354.277705 307.732626 364.642764 317.878978 375.007823 336.567639 385.372881 360.323724 395.737940 385.271885 406.102999 408.146272 416.468057 426.908784 426.833116 440.855698 437.198175 450.323526 447.563233 456.222221 457.928292 459.606442 468.293351 461.398700 478.658409 462.276409 489.023468 462.674415 499.388527 462.841706 509.753585 462.906937 520.118644 462.930549 530.483703 462.938487 540.848761 462.940967 551.213820 462.941687 561.578879 462.941881 571.943937 462.941930 582.308996 462.941942 592.674055 462.941944 603.039113 462.941945 613.404172 462.941945 623.769231 462.941945" /></g><g class="series serie-13 color-13"><path class="line reactive nofill" d="M12.230769 462.915646 L22.595828 462.895785 32.960887 462.862529 43.325945 462.808015 53.691004 462.720552 64.056063 462.583213 74.421121 462.372181 84.786180 462.054911 95.151239 461.588301 105.516297 460.917117 115.881356 459.973077 126.246415 458.675039 136.611473 456.930836 146.976532 454.641232 157.341591 451.706365 167.706649 448.034784 178.071708 443.554808 188.436767 438.227451 198.801825 432.059685 209.166884 425.116352 219.531943 417.528785 229.897001 409.498183 240.262060 401.292152 250.627119 393.233478 260.992177 385.681224 271.357236 379.005362 281.722295 373.557256 292.087353 369.639229 302.452412 367.476819 312.817471 367.197293 323.182529 368.817243 333.547588 372.240959 343.912647 377.269785 354.277705 383.621209 364.642764 390.955113 375.007823 398.903806 385.372881 407.102171 395.737940 415.214530 406.102999 422.955621 416.468057 430.104122 426.833116 436.508330 437.198175 442.084646 447.563233 446.810292 457.928292 450.712155 468.293351 453.853733 478.658409 456.321957 489.023468 458.215275 499.388527 459.633891 509.753585 460.672554 520.118644 461.415907 530.483703 461.936078 540.848761 462.292062 551.213820 462.530370 561.578879 462.686450 571.943937 462.786479 582.308996 462.849218 592.674055 462.887733 603.039113 462.910877 613.404172 462.924493 623.769231 462.932336" /></g></g><g class="titles"><text class="title plot_title" x="400.0" y="26">Iteration #9</text><text class="title" x="462.0" y="580.0">Observation</text><text class="title" transform="rotate(-90 64.000000 282.009619)" x="64.0" y="308.0096189432334">Density</text></g><g class="plot overlay" transform="translate(144, 46)"><g class="series serie-0 color-0" /><g class="series serie-1 color-1" /><g class="series serie-2 color-2" /><g class="series serie-3 color-3" /><g class="series serie-4 color-4" /><g class="series serie-5 color-5" /><g class="series serie-6 color-6" /><g class="series serie-7 color-7" /><g class="series serie-8 color-8" /><g class="series serie-9 color-9" /><g class="series serie-10 color-10" /><g class="series serie-11 color-11" /><g class="series serie-12 color-12" /><g class="series serie-13 color-13" /></g><g class="plot text-overlay" transform="translate(144, 46)"><g class="series serie-0 color-0" /><g class="series serie-1 color-1" /><g class="series serie-2 color-2" /><g class="series serie-3 color-3" /><g class="series serie-4 color-4" /><g class="series serie-5 color-5" /><g class="series serie-6 color-6" /><g class="series serie-7 color-7" /><g class="series serie-8 color-8" /><g class="series serie-9 color-9" /><g class="series serie-10 color-10" /><g class="series serie-11 color-11" /><g class="series serie-12 color-12" /><g class="series serie-13 color-13" /></g><g class="plot tooltip-overlay" transform="translate(144, 46)"><g class="tooltip" style="opacity: 0" transform="translate(0 0)"><rect class="tooltip-box" height="0" rx="0" ry="0" width="0" /><g class="text" /></g></g><g class="legends" transform="translate(10, 56)"><g class="legend reactive activate-serie" id="activate-serie-0"><rect class="color-0 reactive" height="12" width="12" x="0.0" y="0.0" /><text x="17.0" y="9.0">Data</text></g><g class="legend reactive activate-serie" id="activate-serie-1"><rect class="color-1 reactive" height="12" width="12" x="0.0" y="18.0" /><text x="17.0" y="27.0">GMM</text></g><g class="legend reactive activate-serie" id="activate-serie-2"><rect class="color-2 reactive" height="12" width="12" x="0.0" y="36.0" /><text x="17.0" y="45.0">i=0</text></g><g class="legend reactive activate-serie" id="activate-serie-3"><rect class="color-3 reactive" height="12" width="12" x="0.0" y="54.0" /><text x="17.0" y="63.0">i=1</text></g><g class="legend reactive activate-serie" id="activate-serie-4"><rect class="color-4 reactive" height="12" width="12" x="0.0" y="72.0" /><text x="17.0" y="81.0">i=0 k=0</text></g><g class="legend reactive activate-serie" id="activate-serie-5"><rect class="color-5 reactive" height="12" width="12" x="0.0" y="90.0" /><text x="17.0" y="99.0">i=0 k=1</text></g><g class="legend reactive activate-serie" id="activate-serie-6"><rect class="color-6 reactive" height="12" width="12" x="0.0" y="108.0" /><text x="17.0" y="117.0">i=0 k=2</text></g><g class="legend reactive activate-serie" id="activate-serie-7"><rect class="color-7 reactive" height="12" width="12" x="0.0" y="126.0" /><text x="17.0" y="135.0">i=0 k=3</text></g><g class="legend reactive activate-serie" id="activate-serie-8"><rect class="color-8 reactive" height="12" width="12" x="0.0" y="144.0" /><text x="17.0" y="153.0">i=0 k=4</text></g><g class="legend reactive activate-serie" id="activate-serie-9"><rect class="color-9 reactive" height="12" width="12" x="0.0" y="162.0" /><text x="17.0" y="171.0">i=1 k=0</text></g><g class="legend reactive activate-serie" id="activate-serie-10"><rect class="color-10 reactive" height="12" width="12" x="0.0" y="180.0" /><text x="17.0" y="189.0">i=1 k=1</text></g><g class="legend reactive activate-serie" id="activate-serie-11"><rect class="color-11 reactive" height="12" width="12" x="0.0" y="198.0" /><text x="17.0" y="207.0">i=1 k=2</text></g><g class="legend reactive activate-serie" id="activate-serie-12"><rect class="color-12 reactive" height="12" width="12" x="0.0" y="216.0" /><text x="17.0" y="225.0">i=1 k=3</text></g><g class="legend reactive activate-serie" id="activate-serie-13"><rect class="color-13 reactive" height="12" width="12" x="0.0" y="234.0" /><text x="17.0" y="243.0">i=1 k=4</text></g></g><g class="legends" transform="translate(790, 56)" /></g></svg>