<?xml version='1.0' encoding='utf-8'?>
<svg xmlns:xlink="http://www.w3.org/1999/xlink" class="pygal-chart" id="chart-e4fe1cfc-2c20-4ee8-8936-00ae51c07733" viewBox="0 0 800 600" xmlns="http://www.w3.org/2000/svg"><!--Generated with pygal 2.4.0 (etree) ©Kozea 2012-2016 on 2017-12-19--><!--http://pygal.org--><!--http://github.com/Kozea/pygal--><defs><style type="text/css">#chart-e4fe1cfc-2c20-4ee8-8936-00ae51c07733{-webkit-user-select:none;-webkit-font-smoothing:antialiased;font-family:Consolas,"Liberation Mono",Menlo,Courier,monospace}#chart-e4fe1cfc-2c20-4ee8-8936-00ae51c07733 .title{font-family:Consolas,"Liberation Mono",Menlo,Courier,monospace;font-size:16px}#chart-e4fe1cfc-2c20-4ee8-8936-00ae51c07733 .legends .legend text{font-family:Consolas,"Liberation Mono",Menlo,Courier,monospace;font-size:10px}#chart-e4fe1cfc-2c20-4ee8-8936-00ae51c07733 .axis text{font-family:Consolas,"Liberation Mono",Menlo,Courier,monospace;font-size:10px}#chart-e4fe1cfc-2c20-4ee8-8936-00ae51c07733 .axis text.major{font-family:Consolas,"Liberation Mono",Menlo,Courier,monospace;font-size:10px}#chart-e4fe1cfc-2c20-4ee8-8936-00ae51c07733 .text-overlay text.value{font-family:Consolas,"Liberation Mono",Menlo,Courier,monospace;font-size:16px}#chart-e4fe1cfc-2c20-4ee8-8936-00ae51c07733 .text-overlay text.label{font-family:Consolas,"Liberation Mono",Menlo,Courier,monospace;font-size:10px}#chart-e4fe1cfc-2c20-4ee8-8936-00ae51c07733 .tooltip{font-family:Consolas,"Liberation Mono",Menlo,Courier,monospace;font-size:14px}#chart-e4fe1cfc-2c20-4ee8-8936-00ae51c07733 text.no_data{font-family:Consolas,"Liberation Mono",Menlo,Courier,monospace;font-size:64px}
#chart-e4fe1cfc-2c20-4ee8-8936-00ae51c07733{background-color:rgba(249,249,249,1)}#chart-e4fe1cfc-2c20-4ee8-8936-00ae51c07733 path,#chart-e4fe1cfc-2c20-4ee8-8936-00ae51c07733 line,#chart-e4fe1cfc-2c20-4ee8-8936-00ae51c07733 rect,#chart-e4fe1cfc-2c20-4ee8-8936-00ae51c07733 circle{-webkit-transition:150ms;-moz-transition:150ms;transition:150ms}#chart-e4fe1cfc-2c20-4ee8-8936-00ae51c07733 .graph &gt; .background{fill:rgba(249,249,249,1)}#chart-e4fe1cfc-2c20-4ee8-8936-00ae51c07733 .plot &gt; .background{fill:rgba(255,255,255,1)}#chart-e4fe1cfc-2c20-4ee8-8936-00ae51c07733 .graph{fill:rgba(0,0,0,.87)}#chart-e4fe1cfc-2c20-4ee8-8936-00ae51c07733 text.no_data{fill:rgba(0,0,0,1)}#chart-e4fe1cfc-2c20-4ee8-8936-00ae51c07733 .title{fill:rgba(0,0,0,1)}#chart-e4fe1cfc-2c20-4ee8-8936-00ae51c07733 .legends .legend text{fill:rgba(0,0,0,.87)}#chart-e4fe1cfc-2c20-4ee8-8936-00ae51c07733 .legends .legend:hover text{fill:rgba(0,0,0,1)}#chart-e4fe1cfc-2c20-4ee8-8936-00ae51c07733 .axis .line{stroke:rgba(0,0,0,1)}#chart-e4fe1cfc-2c20-4ee8-8936-00ae51c07733 .axis .guide.line{stroke:rgba(0,0,0,.54)}#chart-e4fe1cfc-2c20-4ee8-8936-00ae51c07733 .axis .major.line{stroke:rgba(0,0,0,.87)}#chart-e4fe1cfc-2c20-4ee8-8936-00ae51c07733 .axis text.major{fill:rgba(0,0,0,1)}#chart-e4fe1cfc-2c20-4ee8-8936-00ae51c07733 .axis.y .guides:hover .guide.line,#chart-e4fe1cfc-2c20-4ee8-8936-00ae51c07733 .line-graph .axis.x .guides:hover .guide.line,#chart-e4fe1cfc-2c20-4ee8-8936-00ae51c07733 .stackedline-graph .axis.x .guides:hover .guide.line,#chart-e4fe1cfc-2c20-4ee8-8936-00ae51c07733 .xy-graph .axis.x .guides:hover .guide.line{stroke:rgba(0,0,0,1)}#chart-e4fe1cfc-2c20-4ee8-8936-00ae51c07733 .axis .guides:hover text{fill:rgba(0,0,0,1)}#chart-e4fe1cfc-2c20-4ee8-8936-00ae51c07733 .reactive{fill-opacity:.7;stroke-opacity:.8}#chart-e4fe1cfc-2c20-4ee8-8936-00ae51c07733 .ci{stroke:rgba(0,0,0,.87)}#chart-e4fe1cfc-2c20-4ee8-8936-00ae51c07733 .reactive.active,#chart-e4fe1cfc-2c20-4ee8-8936-00ae51c07733 .active .reactive{fill-opacity:.8;stroke-opacity:.9;stroke-width:4}#chart-e4fe1cfc-2c20-4ee8-8936-00ae51c07733 .ci .reactive.active{stroke-width:1.5}#chart-e4fe1cfc-2c20-4ee8-8936-00ae51c07733 .series text{fill:rgba(0,0,0,1)}#chart-e4fe1cfc-2c20-4ee8-8936-00ae51c07733 .tooltip rect{fill:rgba(255,255,255,1);stroke:rgba(0,0,0,1);-webkit-transition:opacity 150ms;-moz-transition:opacity 150ms;transition:opacity 150ms}#chart-e4fe1cfc-2c20-4ee8-8936-00ae51c07733 .tooltip .label{fill:rgba(0,0,0,.87)}#chart-e4fe1cfc-2c20-4ee8-8936-00ae51c07733 .tooltip .label{fill:rgba(0,0,0,.87)}#chart-e4fe1cfc-2c20-4ee8-8936-00ae51c07733 .tooltip .legend{font-size:.8em;fill:rgba(0,0,0,.54)}#chart-e4fe1cfc-2c20-4ee8-8936-00ae51c07733 .tooltip .x_label{font-size:.6em;fill:rgba(0,0,0,1)}#chart-e4fe1cfc-2c20-4ee8-8936-00ae51c07733 .tooltip .xlink{font-size:.5em;text-decoration:underline}#chart-e4fe1cfc-2c20-4ee8-8936-00ae51c07733 .tooltip .value{font-size:1.5em}#chart-e4fe1cfc-2c20-4ee8-8936-00ae51c07733 .bound{font-size:.5em}#chart-e4fe1cfc-2c20-4ee8-8936-00ae51c07733 .max-value{font-size:.75em;fill:rgba(0,0,0,.54)}#chart-e4fe1cfc-2c20-4ee8-8936-00ae51c07733 .map-element{fill:rgba(255,255,255,1);stroke:rgba(0,0,0,.54) !important}#chart-e4fe1cfc-2c20-4ee8-8936-00ae51c07733 .map-element .reactive{fill-opacity:inherit;stroke-opacity:inherit}#chart-e4fe1cfc-2c20-4ee8-8936-00ae51c07733 .color-0,#chart-e4fe1cfc-2c20-4ee8-8936-00ae51c07733 .color-0 a:visited{stroke:#909090;fill:#909090}#chart-e4fe1cfc-2c20-4ee8-8936-00ae51c07733 .color-1,#chart-e4fe1cfc-2c20-4ee8-8936-00ae51c07733 .color-1 a:visited{stroke:#000000;fill:#000000}#chart-e4fe1cfc-2c20-4ee8-8936-00ae51c07733 .color-2,#chart-e4fe1cfc-2c20-4ee8-8936-00ae51c07733 .color-2 a:visited{stroke:#ff0500;fill:#ff0500}#chart-e4fe1cfc-2c20-4ee8-8936-00ae51c07733 .color-3,#chart-e4fe1cfc-2c20-4ee8-8936-00ae51c07733 .color-3 a:visited{stroke:#323299;fill:#323299}#chart-e4fe1cfc-2c20-4ee8-8936-00ae51c07733 .color-4,#chart-e4fe1cfc-2c20-4ee8-8936-00ae51c07733 .color-4 a:visited{stroke:#a3413f;fill:#a3413f}#chart-e4fe1cfc-2c20-4ee8-8936-00ae51c07733 .color-5,#chart-e4fe1cfc-2c20-4ee8-8936-00ae51c07733 .color-5 a:visited{stroke:#a3413f;fill:#a3413f}#chart-e4fe1cfc-2c20-4ee8-8936-00ae51c07733 .color-6,#chart-e4fe1cfc-2c20-4ee8-8936-00ae51c07733 .color-6 a:visited{stroke:#a3413f;fill:#a3413f}#chart-e4fe1cfc-2c20-4ee8-8936-00ae51c07733 .color-7,#chart-e4fe1cfc-2c20-4ee8-8936-00ae51c07733 .color-7 a:visited{stroke:#a3413f;fill:#a3413f}#chart-e4fe1cfc-2c20-4ee8-8936-00ae51c07733 .color-8,#chart-e4fe1cfc-2c20-4ee8-8936-00ae51c07733 .color-8 a:visited{stroke:#a3413f;fill:#a3413f}#chart-e4fe1cfc-2c20-4ee8-8936-00ae51c07733 .color-9,#chart-e4fe1cfc-2c20-4ee8-8936-00ae51c07733 .color-9 a:visited{stroke:#657fff;fill:#657fff}#chart-e4fe1cfc-2c20-4ee8-8936-00ae51c07733 .color-10,#chart-e4fe1cfc-2c20-4ee8-8936-00ae51c07733 .color-10 a:visited{stroke:#657fff;fill:#657fff}#chart-e4fe1cfc-2c20-4ee8-8936-00ae51c07733 .color-11,#chart-e4fe1cfc-2c20-4ee8-8936-00ae51c07733 .color-11 a:visited{stroke:#657fff;fill:#657fff}#chart-e4fe1cfc-2c20-4ee8-8936-00ae51c07733 .color-12,#chart-e4fe1cfc-2c20-4ee8-8936-00ae51c07733 .color-12 a:visited{stroke:#657fff;fill:#657fff}#chart-e4fe1cfc-2c20-4ee8-8936-00ae51c07733 .color-13,#chart-e4fe1cfc-2c20-4ee8-8936-00ae51c07733 .color-13 a:visited{stroke:#657fff;fill:#657fff}#chart-e4fe1cfc-2c20-4ee8-8936-00ae51c07733 .text-overlay .color-0 text{fill:black}#chart-e4fe1cfc-2c20-4ee8-8936-00ae51c07733 .text-overlay .color-1 text{fill:white}#chart-e4fe1cfc-2c20-4ee8-8936-00ae51c07733 .text-overlay .color-2 text{fill:black}#chart-e4fe1cfc-2c20-4ee8-8936-00ae51c07733 .text-overlay .color-3 text{fill:black}#chart-e4fe1cfc-2c20-4ee8-8936-00ae51c07733 .text-overlay .color-4 text{fill:black}#chart-e4fe1cfc-2c20-4ee8-8936-00ae51c07733 .text-overlay .color-5 text{fill:black}#chart-e4fe1cfc-2c20-4ee8-8936-00ae51c07733 .text-overlay .color-6 text{fill:black}#chart-e4fe1cfc-2c20-4ee8-8936-00ae51c07733 .text-overlay .color-7 text{fill:black}#chart-e4fe1cfc-2c20-4ee8-8936-00ae51c07733 .text-overlay .color-8 text{fill:black}#chart-e4fe1cfc-2c20-4ee8-8936-00ae51c07733 .text-overlay .color-9 text{fill:black}#chart-e4fe1cfc-2c20-4ee8-8936-00ae51c07733 .text-overlay .color-10 text{fill:black}#chart-e4fe1cfc-2c20-4ee8-8936-00ae51c07733 .text-overlay .color-11 text{fill:black}#chart-e4fe1cfc-2c20-4ee8-8936-00ae51c07733 .text-overlay .color-12 text{fill:black}#chart-e4fe1cfc-2c20-4ee8-8936-00ae51c07733 .text-overlay .color-13 text{fill:black}#chart-e4fe1cfc-2c20-4ee8-8936-00ae51c07733 .series.serie-1{stroke-width:5}#chart-e4fe1cfc-2c20-4ee8-8936-00ae51c07733 .series.serie-2{stroke-width:3}#chart-e4fe1cfc-2c20-4ee8-8936-00ae51c07733 .series.serie-3{stroke-width:3}#chart-e4fe1cfc-2c20-4ee8-8936-00ae51c07733 .series.serie-4{stroke-width:2;stroke-dasharray:2,2}#chart-e4fe1cfc-2c20-4ee8-8936-00ae51c07733 .series.serie-5{stroke-width:2;stroke-dasharray:2,2}#chart-e4fe1cfc-2c20-4ee8-8936-00ae51c07733 .series.serie-6{stroke-width:2;stroke-dasharray:2,2}#chart-e4fe1cfc-2c20-4ee8-8936-00ae51c07733 .series.serie-7{stroke-width:2;stroke-dasharray:2,2}#chart-e4fe1cfc-2c20-4ee8-8936-00ae51c07733 .series.serie-8{stroke-width:2;stroke-dasharray:2,2}#chart-e4fe1cfc-2c20-4ee8-8936-00ae51c07733 .series.serie-9{stroke-width:2;stroke-dasharray:2,2}#chart-e4fe1cfc-2c20-4ee8-8936-00ae51c07733 .series.serie-10{stroke-width:2;stroke-dasharray:2,2}#chart-e4fe1cfc-2c20-4ee8-8936-00ae51c07733 .series.serie-11{stroke-width:2;stroke-dasharray:2,2}#chart-e4fe1cfc-2c20-4ee8-8936-00ae51c07733 .series.serie-12{stroke-width:2;stroke-dasharray:2,2}#chart-e4fe1cfc-2c20-4ee8-8936-00ae51c07733 .series.serie-13{stroke-width:2;stroke-dasharray:2,2}
#chart-e4fe1cfc-2c20-4ee8-8936-00ae51c07733 text.no_data{text-anchor:middle}#chart-e4fe1cfc-2c20-4ee8-8936-00ae51c07733 .guide.line{fill:none}#chart-e4fe1cfc-2c20-4ee8-8936-00ae51c07733 .centered{text-anchor:middle}#chart-e4fe1cfc-2c20-4ee8-8936-00ae51c07733 .title{text-anchor:middle}#chart-e4fe1cfc-2c20-4ee8-8936-00ae51c07733 .legends .legend text{fill-opacity:1}#chart-e4fe1cfc-2c20-4ee8-8936-00ae51c07733 .axis.x text{text-anchor:middle}#chart-e4fe1cfc-2c20-4ee8-8936-00ae51c07733 .axis.x:not(.web) text[transform]{text-anchor:start}#chart-e4fe1cfc-2c20-4ee8-8936-00ae51c07733 .axis.x:not(.web) text[transform].backwards{text-anchor:end}#chart-e4fe1cfc-2c20-4ee8-8936-00ae51c07733 .axis.y text{text-anchor:end}#chart-e4fe1cfc-2c20-4ee8-8936-00ae51c07733 .axis.y text[transform].backwards{text-anchor:start}#chart-e4fe1cfc-2c20-4ee8-8936-00ae51c07733 .axis.y2 text{text-anchor:start}#chart-e4fe1cfc-2c20-4ee8-8936-00ae51c07733 .axis.y2 text[transform].backwards{text-anchor:end}#chart-e4fe1cfc-2c20-4ee8-8936-00ae51c07733 .axis .guide.line{stroke-dasharray:4,4}#chart-e4fe1cfc-2c20-4ee8-8936-00ae51c07733 .axis .major.guide.line{stroke-dasharray:6,6}#chart-e4fe1cfc-2c20-4ee8-8936-00ae51c07733 .horizontal .axis.y .guide.line,#chart-e4fe1cfc-2c20-4ee8-8936-00ae51c07733 .horizontal .axis.y2 .guide.line,#chart-e4fe1cfc-2c20-4ee8-8936-00ae51c07733 .vertical .axis.x .guide.line{opacity:0}#chart-e4fe1cfc-2c20-4ee8-8936-00ae51c07733 .horizontal .axis.always_show .guide.line,#chart-e4fe1cfc-2c20-4ee8-8936-00ae51c07733 .vertical .axis.always_show .guide.line{opacity:1 !important}#chart-e4fe1cfc-2c20-4ee8-8936-00ae51c07733 .axis.y .guides:hover .guide.line,#chart-e4fe1cfc-2c20-4ee8-8936-00ae51c07733 .axis.y2 .guides:hover .guide.line,#chart-e4fe1cfc-2c20-4ee8-8936-00ae51c07733 .axis.x .guides:hover .guide.line{opacity:1}#chart-e4fe1cfc-2c20-4ee8-8936-00ae51c07733 .axis .guides:hover text{opacity:1}#chart-e4fe1cfc-2c20-4ee8-8936-00ae51c07733 .nofill{fill:none}#chart-e4fe1cfc-2c20-4ee8-8936-00ae51c07733 .subtle-fill{fill-opacity:.2}#chart-e4fe1cfc-2c20-4ee8-8936-00ae51c07733 .dot{stroke-width:1px;fill-opacity:1}#chart-e4fe1cfc-2c20-4ee8-8936-00ae51c07733 .dot.active{stroke-width:5px}#chart-e4fe1cfc-2c20-4ee8-8936-00ae51c07733 .dot.negative{fill:transparent}#chart-e4fe1cfc-2c20-4ee8-8936-00ae51c07733 text,#chart-e4fe1cfc-2c20-4ee8-8936-00ae51c07733 tspan{stroke:none !important}#chart-e4fe1cfc-2c20-4ee8-8936-00ae51c07733 .series text.active{opacity:1}#chart-e4fe1cfc-2c20-4ee8-8936-00ae51c07733 .tooltip rect{fill-opacity:.95;stroke-width:.5}#chart-e4fe1cfc-2c20-4ee8-8936-00ae51c07733 .tooltip text{fill-opacity:1}#chart-e4fe1cfc-2c20-4ee8-8936-00ae51c07733 .showable{visibility:hidden}#chart-e4fe1cfc-2c20-4ee8-8936-00ae51c07733 .showable.shown{visibility:visible}#chart-e4fe1cfc-2c20-4ee8-8936-00ae51c07733 .gauge-background{fill:rgba(229,229,229,1);stroke:none}#chart-e4fe1cfc-2c20-4ee8-8936-00ae51c07733 .bg-lines{stroke:rgba(249,249,249,1);stroke-width:2px}</style><script type="text/javascript">window.pygal = window.pygal || {};window.pygal.config = window.pygal.config || {};window.pygal.config['e4fe1cfc-2c20-4ee8-8936-00ae51c07733'] = {"css": ["file://style.css", "file://graph.css"], "include_x_axis": false, "min_scale": 4, "print_zeroes": true, "show_x_labels": true, "stroke": true, "show_minor_y_labels": true, "inner_radius": 0, "fill": false, "pretty_print": false, "js": ["//kozea.github.io/pygal.js/2.0.x/pygal-tooltips.min.js"], "x_labels": ["-8.96", "-8.76", "-8.56", "-8.36", "-8.16", "-7.96", "-7.76", "-7.56", "-7.36", "-7.16", "-6.96", "-6.76", "-6.56", "-6.36", "-6.16", "-5.96", "-5.76", "-5.56", "-5.36", "-5.16", "-4.96", "-4.76", "-4.56", "-4.36", "-4.16", "-3.96", "-3.76", "-3.56", "-3.36", "-3.16", "-2.96", "-2.76", "-2.56", "-2.36", "-2.16", "-1.96", "-1.76", "-1.56", "-1.36", "-1.16", "-0.96", "-0.76", "-0.56", "-0.36", "-0.16", "0.04", "0.24", "0.44", "0.64", "0.84", "1.04", "1.24", "1.43", "1.63", "1.83", "2.03", "2.23", "2.43", "2.63", "2.83"], "logarithmic": false, "show_minor_x_labels": false, "formatter": null, "tooltip_fancy_mode": true, "defs": [], "stroke_style": null, "spacing": 10, "show_only_major_dots": false, "half_pie": false, "show_legend": true, "dynamic_print_values": false, "max_scale": 16, "explicit_size": false, "y_label_rotation": 0, "y_labels": null, "x_labels_major": null, "margin_top": null, "interpolation_precision": 250, "xrange": null, "order_min": null, "y_title": "Density", "title": "Iteration #13", "x_label_rotation": 60, "interpolation_parameters": {}, "stack_from_top": false, "truncate_legend": null, "x_title": "Observation", "show_y_guides": true, "no_prefix": false, "print_values_position": "center", "show_y_labels": true, "classes": ["pygal-chart"], "force_uri_protocol": "https", "x_labels_major_count": null, "allow_interruptions": false, "width": 800, "height": 600, "secondary_range": null, "box_mode": "extremes", "margin_left": null, "y_labels_major": null, "margin_right": null, "zero": 0, "dots_size": 2.5, "no_data_text": "No data", "show_dots": false, "range": [0, 0.27578580090479526], "truncate_label": null, "margin_bottom": null, "y_labels_major_every": null, "show_x_guides": false, "disable_xml_declaration": false, "print_values": false, "x_labels_major_every": 2, "print_labels": false, "y_labels_major_count": null, "interpolate": null, "legend_at_bottom": false, "style": {"value_font_size": 16, "tooltip_font_family": "Consolas, \"Liberation Mono\", Menlo, Courier, monospace", "major_label_font_family": "Consolas, \"Liberation Mono\", Menlo, Courier, monospace", "value_colors": [], "value_background": "rgba(229, 229, 229, 1)", "foreground_strong": "rgba(0, 0, 0, 1)", "opacity": ".7", "font_family": "Consolas, \"Liberation Mono\", Menlo, Courier, monospace", "label_font_size": 10, "transition": "150ms", "title_font_family": "Consolas, \"Liberation Mono\", Menlo, Courier, monospace", "background": "rgba(249, 249, 249, 1)", "stroke_opacity": ".8", "no_data_font_size": 64, "value_label_font_family": "Consolas, \"Liberation Mono\", Menlo, Courier, monospace", "value_label_font_size": 10, "value_font_family": "Consolas, \"Liberation Mono\", Menlo, Courier, monospace", "plot_background": "rgba(255, 255, 255, 1)", "colors": ["#909090", "#000000", "#ff0500", "#323299", "#a3413f", "#a3413f", "#a3413f", "#a3413f", "#a3413f", "#657fff", "#657fff", "#657fff", "#657fff", "#657fff"], "legend_font_size": 10, "guide_stroke_dasharray": "4,4", "major_label_font_size": 10, "stroke_opacity_hover": ".9", "major_guide_stroke_dasharray": "6,6", "opacity_hover": ".8", "no_data_font_family": "Consolas, \"Liberation Mono\", Menlo, Courier, monospace", "title_font_size": 16, "ci_colors": [], "foreground": "rgba(0, 0, 0, .87)", "foreground_subtle": "rgba(0, 0, 0, .54)", "legend_font_family": "Consolas, \"Liberation Mono\", Menlo, Courier, monospace", "label_font_family": "Consolas, \"Liberation Mono\", Menlo, Courier, monospace", "tooltip_font_size": 14}, "strict": false, "legend_box_size": 12, "tooltip_border_radius": 0, "margin": 20, "legends": ["Data", "GMM", "i=0", "i=1", "i=0 k=0", "i=0 k=1", "i=0 k=2", "i=0 k=3", "i=0 k=4", "i=1 k=0", "i=1 k=1", "i=1 k=2", "i=1 k=3", "i=1 k=4"], "inverse_y_axis": false, "legend_at_bottom_columns": null, "rounded_bars": null, "missing_value_fill_truncation": "x"}</script><script type="text/javascript" xlink:href="https://kozea.github.io/pygal.js/2.0.x/pygal-tooltips.min.js" /></defs><title>Iteration #13</title><g class="graph line-graph vertical"><rect class="background" height="600" width="800" x="0" y="0" /><g class="plot" transform="translate(144, 46)"><rect class="background" height="472.01923788646684" width="636.0" x="0" y="0" /><g class="axis y always_show"><g class="guides"><path class="axis major line" d="M0.000000 462.941945 h636.000000" /><text class="major" x="-5" y="466.44194485">0</text><title>0</title></g><g class="guides"><path class="guide line" d="M0.000000 430.027658 h636.000000" /><text class="" x="-5" y="433.527657724">0.02</text><title>0.02</title></g><g class="guides"><path class="guide line" d="M0.000000 397.113371 h636.000000" /><text class="" x="-5" y="400.613370598">0.04</text><title>0.04</title></g><g class="guides"><path class="guide line" d="M0.000000 364.199083 h636.000000" /><text class="" x="-5" y="367.699083472">0.06</text><title>0.06</title></g><g class="guides"><path class="guide line" d="M0.000000 331.284796 h636.000000" /><text class="" x="-5" y="334.784796346">0.08</text><title>0.08</title></g><g class="guides"><path class="guide line" d="M0.000000 298.370509 h636.000000" /><text class="" x="-5" y="301.87050922">0.1</text><title>0.1</title></g><g class="guides"><path class="guide line" d="M0.000000 265.456222 h636.000000" /><text class="" x="-5" y="268.956222094">0.12</text><title>0.12</title></g><g class="guides"><path class="guide line" d="M0.000000 232.541935 h636.000000" /><text class="" x="-5" y="236.041934968">0.14</text><title>0.14</title></g><g class="guides"><path class="guide line" d="M0.000000 199.627648 h636.000000" /><text class="" x="-5" y="203.127647841">0.16</text><title>0.16</title></g><g class="guides"><path class="guide line" d="M0.000000 166.713361 h636.000000" /><text class="" x="-5" y="170.213360715">0.18</text><title>0.18</title></g><g class="guides"><path class="guide line" d="M0.000000 133.799074 h636.000000" /><text class="" x="-5" y="137.299073589">0.2</text><title>0.2</title></g><g class="guides"><path class="guide line" d="M0.000000 100.884786 h636.000000" /><text class="" x="-5" y="104.384786463">0.22</text><title>0.22</title></g><g class="guides"><path class="guide line" d="M0.000000 67.970499 h636.000000" /><text class="" x="-5" y="71.4704993371">0.24</text><title>0.24</title></g><g class="guides"><path class="guide line" d="M0.000000 35.056212 h636.000000" /><text class="" x="-5" y="38.5562122111">0.26</text><title>0.26</title></g></g><g class="axis x"><g class="guides"><path class="major line" d="M12.230769 0.000000 v472.019238" /><text class="major" transform="rotate(60 12.230769 487.019238)" x="12.230769230769232" y="487.01923788646684">-8.96</text></g><g class="guides"><path class="major guide line" d="M32.960887 0.000000 v472.019238" /><text class="major" transform="rotate(60 32.960887 487.019238)" x="32.96088657105606" y="487.01923788646684">-8.56</text></g><g class="guides"><path class="major guide line" d="M53.691004 0.000000 v472.019238" /><text class="major" transform="rotate(60 53.691004 487.019238)" x="53.6910039113429" y="487.01923788646684">-8.16</text></g><g class="guides"><path class="major guide line" d="M74.421121 0.000000 v472.019238" /><text class="major" transform="rotate(60 74.421121 487.019238)" x="74.42112125162973" y="487.01923788646684">-7.76</text></g><g class="guides"><path class="major guide line" d="M95.151239 0.000000 v472.019238" /><text class="major" transform="rotate(60 95.151239 487.019238)" x="95.15123859191655" y="487.01923788646684">-7.36</text></g><g class="guides"><path class="major guide line" d="M115.881356 0.000000 v472.019238" /><text class="major" transform="rotate(60 115.881356 487.019238)" x="115.88135593220338" y="487.01923788646684">-6.96</text></g><g class="guides"><path class="major guide line" d="M136.611473 0.000000 v472.019238" /><text class="major" transform="rotate(60 136.611473 487.019238)" x="136.61147327249023" y="487.01923788646684">-6.56</text></g><g class="guides"><path class="major guide line" d="M157.341591 0.000000 v472.019238" /><text class="major" transform="rotate(60 157.341591 487.019238)" x="157.34159061277705" y="487.01923788646684">-6.16</text></g><g class="guides"><path class="major guide line" d="M178.071708 0.000000 v472.019238" /><text class="major" transform="rotate(60 178.071708 487.019238)" x="178.0717079530639" y="487.01923788646684">-5.76</text></g><g class="guides"><path class="major guide line" d="M198.801825 0.000000 v472.019238" /><text class="major" transform="rotate(60 198.801825 487.019238)" x="198.80182529335073" y="487.01923788646684">-5.36</text></g><g class="guides"><path class="major guide line" d="M219.531943 0.000000 v472.019238" /><text class="major" transform="rotate(60 219.531943 487.019238)" x="219.53194263363756" y="487.01923788646684">-4.96</text></g><g class="guides"><path class="major guide line" d="M240.262060 0.000000 v472.019238" /><text class="major" transform="rotate(60 240.262060 487.019238)" x="240.2620599739244" y="487.01923788646684">-4.56</text></g><g class="guides"><path class="major guide line" d="M260.992177 0.000000 v472.019238" /><text class="major" transform="rotate(60 260.992177 487.019238)" x="260.99217731421123" y="487.01923788646684">-4.16</text></g><g class="guides"><path class="major guide line" d="M281.722295 0.000000 v472.019238" /><text class="major" transform="rotate(60 281.722295 487.019238)" x="281.722294654498" y="487.01923788646684">-3.76</text></g><g class="guides"><path class="major guide line" d="M302.452412 0.000000 v472.019238" /><text class="major" transform="rotate(60 302.452412 487.019238)" x="302.4524119947849" y="487.01923788646684">-3.36</text></g><g class="guides"><path class="major guide line" d="M323.182529 0.000000 v472.019238" /><text class="major" transform="rotate(60 323.182529 487.019238)" x="323.1825293350717" y="487.01923788646684">-2.96</text></g><g class="guides"><path class="major guide line" d="M343.912647 0.000000 v472.019238" /><text class="major" transform="rotate(60 343.912647 487.019238)" x="343.91264667535853" y="487.01923788646684">-2.56</text></g><g class="guides"><path class="major guide line" d="M364.642764 0.000000 v472.019238" /><text class="major" transform="rotate(60 364.642764 487.019238)" x="364.64276401564535" y="487.01923788646684">-2.16</text></g><g class="guides"><path class="major guide line" d="M385.372881 0.000000 v472.019238" /><text class="major" transform="rotate(60 385.372881 487.019238)" x="385.37288135593224" y="487.01923788646684">-1.76</text></g><g class="guides"><path class="major guide line" d="M406.102999 0.000000 v472.019238" /><text class="major" transform="rotate(60 406.102999 487.019238)" x="406.102998696219" y="487.01923788646684">-1.36</text></g><g class="guides"><path class="major guide line" d="M426.833116 0.000000 v472.019238" /><text class="major" transform="rotate(60 426.833116 487.019238)" x="426.8331160365058" y="487.01923788646684">-0.96</text></g><g class="guides"><path class="major guide line" d="M447.563233 0.000000 v472.019238" /><text class="major" transform="rotate(60 447.563233 487.019238)" x="447.56323337679265" y="487.01923788646684">-0.56</text></g><g class="guides"><path class="major guide line" d="M468.293351 0.000000 v472.019238" /><text class="major" transform="rotate(60 468.293351 487.019238)" x="468.29335071707953" y="487.01923788646684">-0.16</text></g><g class="guides"><path class="major guide line" d="M489.023468 0.000000 v472.019238" /><text class="major" transform="rotate(60 489.023468 487.019238)" x="489.02346805736636" y="487.01923788646684">0.24</text></g><g class="guides"><path class="major guide line" d="M509.753585 0.000000 v472.019238" /><text class="major" transform="rotate(60 509.753585 487.019238)" x="509.75358539765324" y="487.01923788646684">0.64</text></g><g class="guides"><path class="major guide line" d="M530.483703 0.000000 v472.019238" /><text class="major" transform="rotate(60 530.483703 487.019238)" x="530.48370273794" y="487.01923788646684">1.04</text></g><g class="guides"><path class="major guide line" d="M551.213820 0.000000 v472.019238" /><text class="major" transform="rotate(60 551.213820 487.019238)" x="551.213820078227" y="487.01923788646684">1.43</text></g><g class="guides"><path class="major guide line" d="M571.943937 0.000000 v472.019238" /><text class="major" transform="rotate(60 571.943937 487.019238)" x="571.9439374185138" y="487.01923788646684">1.83</text></g><g class="guides"><path class="major guide line" d="M592.674055 0.000000 v472.019238" /><text class="major" transform="rotate(60 592.674055 487.019238)" x="592.6740547588006" y="487.01923788646684">2.23</text></g><g class="guides"><path class="major guide line" d="M613.404172 0.000000 v472.019238" /><text class="major" transform="rotate(60 613.404172 487.019238)" x="613.4041720990874" y="487.01923788646684">2.63</text></g></g><g class="series serie-0 color-0"><path class="line reactive" d="M12.230769 462.941945 L12.230769 462.019456 22.595828 462.941945 32.960887 461.096967 43.325945 462.019456 53.691004 459.251988 64.056063 462.019456 74.421121 458.329499 84.786180 462.019456 95.151239 458.329499 105.516297 462.019456 115.881356 448.182119 126.246415 460.174477 136.611473 457.407010 146.976532 457.407010 157.341591 451.872075 167.706649 448.182119 178.071708 454.639543 188.436767 445.414651 198.801825 442.647184 209.166884 436.189760 219.531943 437.112249 229.897001 392.832771 240.262060 396.522728 250.627119 376.227967 260.992177 355.933206 271.357236 351.320760 281.722295 325.491065 292.087353 277.521630 302.452412 283.056565 312.817471 202.800010 323.182529 188.040184 333.547588 169.590402 343.912647 123.465945 354.277705 95.791271 364.642764 67.194108 375.007823 82.876423 385.372881 60.736684 395.737940 80.108956 406.102999 29.372054 416.468057 9.077293 426.833116 70.884065 437.198175 69.039086 447.563233 41.364413 457.928292 40.441923 468.293351 91.178826 478.658409 140.993239 489.023468 214.792369 499.388527 259.071847 509.753585 321.801108 520.118644 364.235608 530.483703 408.515086 540.848761 430.654825 551.213820 448.182119 561.578879 455.562032 571.943937 458.329499 582.308996 458.329499 592.674055 462.019456 603.039113 462.941945 613.404172 462.019456 623.769231 462.941945" /></g><g class="series serie-1 color-1"><path class="line reactive nofill" d="M12.230769 462.861837 L22.595828 462.813530 32.960887 462.739652 43.325945 462.628782 53.691004 462.465533 64.056063 462.229715 74.421121 461.895580 84.786180 461.431259 95.151239 460.798567 105.516297 459.953351 115.881356 458.846526 126.246415 457.425880 136.611473 455.638549 146.976532 453.433780 157.341591 450.765199 167.706649 447.591287 178.071708 443.872270 188.436767 439.561346 198.801825 434.588451 209.166884 428.835948 219.531943 422.108109 229.897001 414.099733 240.262060 404.373238 250.627119 392.356301 260.992177 377.371973 271.357236 358.708909 281.722295 335.732043 292.087353 308.027723 302.452412 275.577336 312.817471 238.959051 323.182529 199.572373 333.547588 159.834371 343.912647 123.195039 354.277705 93.718218 364.642764 75.019465 375.007823 68.680186 385.372881 72.799092 395.737940 81.718955 406.102999 87.701541 416.468057 84.300971 426.833116 69.940766 437.198175 49.649704 447.563233 33.645364 457.928292 33.172626 468.293351 55.633084 478.658409 101.483307 489.023468 164.332549 499.388527 233.856675 509.753585 299.759977 520.118644 354.840745 530.483703 396.120594 540.848761 424.195684 551.213820 441.701560 561.578879 451.813552 571.943937 457.290402 582.308996 460.113984 592.674055 461.525488 603.039113 462.223951 613.404172 462.572550 623.769231 462.750007" /></g><g class="series serie-2 color-2"><path class="line reactive nofill" d="M12.230769 462.941945 L22.595828 462.941945 32.960887 462.941945 43.325945 462.941945 53.691004 462.941945 64.056063 462.941945 74.421121 462.941945 84.786180 462.941945 95.151239 462.941945 105.516297 462.941945 115.881356 462.941945 126.246415 462.941945 136.611473 462.941945 146.976532 462.941945 157.341591 462.941945 167.706649 462.941945 178.071708 462.941944 188.436767 462.941942 198.801825 462.941936 209.166884 462.941920 219.531943 462.941879 229.897001 462.941775 240.262060 462.941518 250.627119 462.940899 260.992177 462.939430 271.357236 462.935959 281.722295 462.927710 292.087353 462.907840 302.452412 462.859267 312.817471 462.739706 323.182529 462.447779 333.547588 461.753280 343.912647 460.170547 354.277705 456.763987 364.642764 449.916668 375.007823 437.177125 385.372881 415.402153 395.737940 381.450920 406.102999 333.537273 416.468057 272.955102 426.833116 205.398112 437.198175 140.865608 447.563233 91.548595 457.928292 68.119467 468.293351 75.938343 478.658409 113.029325 489.023468 170.880031 499.388527 237.625830 509.753585 301.988819 520.118644 356.198383 530.483703 396.967857 540.848761 424.732240 551.213820 442.042988 561.578879 452.030132 571.943937 457.426588 582.308996 460.198566 592.674055 461.577260 603.039113 462.255141 613.404172 462.591030 623.769231 462.760772" /></g><g class="series serie-3 color-3"><path class="line reactive nofill" d="M12.230769 462.861837 L22.595828 462.813530 32.960887 462.739652 43.325945 462.628782 53.691004 462.465533 64.056063 462.229715 74.421121 461.895580 84.786180 461.431259 95.151239 460.798567 105.516297 459.953351 115.881356 458.846526 126.246415 457.425880 136.611473 455.638549 146.976532 453.433780 157.341591 450.765199 167.706649 447.591288 178.071708 443.872271 188.436767 439.561349 198.801825 434.588459 209.166884 428.835973 219.531943 422.108175 229.897001 414.099902 240.262060 404.373665 250.627119 392.357347 260.992177 377.374488 271.357236 358.714895 281.722295 335.746278 292.087353 308.061827 302.452412 275.660013 312.817471 239.161290 323.182529 200.066538 333.547588 161.023036 343.912647 125.966438 354.277705 99.896176 364.642764 88.044741 375.007823 94.445006 385.372881 120.338884 395.737940 163.209979 406.102999 217.106213 416.468057 274.287814 426.833116 327.484599 437.198175 371.726041 447.563233 405.038714 457.928292 427.995103 468.293351 442.636685 478.658409 451.395927 489.023468 456.394463 499.388527 459.172790 509.753585 460.713103 520.118644 461.584308 530.483703 462.094682 540.848761 462.405388 551.213820 462.600516 561.578879 462.725366 571.943937 462.805759 582.308996 462.857363 592.674055 462.890174 603.039113 462.910755 613.404172 462.923464 623.769231 462.931179" /></g><g class="series serie-4 color-4"><path class="line reactive nofill" d="M12.230769 462.941945 L22.595828 462.941945 32.960887 462.941945 43.325945 462.941945 53.691004 462.941945 64.056063 462.941945 74.421121 462.941945 84.786180 462.941945 95.151239 462.941945 105.516297 462.941945 115.881356 462.941945 126.246415 462.941945 136.611473 462.941945 146.976532 462.941945 157.341591 462.941945 167.706649 462.941945 178.071708 462.941945 188.436767 462.941945 198.801825 462.941945 209.166884 462.941945 219.531943 462.941945 229.897001 462.941945 240.262060 462.941944 250.627119 462.941941 260.992177 462.941926 271.357236 462.941846 281.722295 462.941478 292.087353 462.939926 302.452412 462.933956 312.817471 462.912995 323.182529 462.845873 333.547588 462.649970 343.912647 462.129307 354.277705 460.870623 364.642764 458.106931 375.007823 452.606068 385.372881 442.707256 395.737940 426.663782 406.102999 403.376607 416.468057 373.376295 426.833116 339.606215 437.198175 307.404165 447.563233 283.310469 457.928292 272.952910 468.293351 278.918061 478.658409 299.704644 489.023468 330.335639 499.388527 364.289353 509.753585 395.729084 520.118644 421.005093 530.483703 438.979076 540.848761 450.402412 551.213820 456.932650 561.578879 460.304611 571.943937 461.881944 582.308996 462.551781 592.674055 462.810426 603.039113 462.901345 613.404172 462.930467 623.769231 462.938973" /></g><g class="series serie-5 color-5"><path class="line reactive nofill" d="M12.230769 462.941945 L22.595828 462.941945 32.960887 462.941945 43.325945 462.941945 53.691004 462.941945 64.056063 462.941945 74.421121 462.941945 84.786180 462.941945 95.151239 462.941945 105.516297 462.941945 115.881356 462.941945 126.246415 462.941945 136.611473 462.941945 146.976532 462.941945 157.341591 462.941945 167.706649 462.941945 178.071708 462.941945 188.436767 462.941945 198.801825 462.941945 209.166884 462.941945 219.531943 462.941945 229.897001 462.941945 240.262060 462.941944 250.627119 462.941940 260.992177 462.941918 271.357236 462.941821 281.722295 462.941412 292.087353 462.939829 302.452412 462.934198 312.817471 462.915819 323.182529 462.860785 333.547588 462.709697 343.912647 462.329732 354.277705 461.455340 364.642764 459.616649 375.007823 456.090114 385.372881 449.936517 395.737940 440.202266 406.102999 426.316265 416.468057 408.600804 426.833116 388.671935 437.198175 369.435854 447.563233 354.497328 457.928292 347.086144 468.293351 348.925039 478.658409 359.579588 489.023468 376.624766 499.388527 396.541078 509.753585 415.888443 520.118644 432.226852 530.483703 444.472519 540.848761 452.711450 551.213820 457.721812 561.578879 460.488320 571.943937 461.879573 582.308996 462.518218 592.674055 462.786263 603.039113 462.889254 613.404172 462.925518 623.769231 462.937227" /></g><g class="series serie-6 color-6"><path class="line reactive nofill" d="M12.230769 462.941945 L22.595828 462.941945 32.960887 462.941945 43.325945 462.941945 53.691004 462.941945 64.056063 462.941945 74.421121 462.941945 84.786180 462.941945 95.151239 462.941945 105.516297 462.941945 115.881356 462.941945 126.246415 462.941945 136.611473 462.941945 146.976532 462.941945 157.341591 462.941945 167.706649 462.941945 178.071708 462.941945 188.436767 462.941945 198.801825 462.941945 209.166884 462.941945 219.531943 462.941945 229.897001 462.941944 240.262060 462.941941 250.627119 462.941928 260.992177 462.941873 271.357236 462.941663 281.722295 462.940917 292.087353 462.938453 302.452412 462.930915 312.817471 462.909539 323.182529 462.853380 333.547588 462.716810 343.912647 462.409614 354.277705 461.771168 364.642764 460.546860 375.007823 458.384495 385.372881 454.875594 395.737940 449.662300 406.102999 442.606670 416.468057 433.977323 426.833116 424.567697 437.198175 415.652294 447.563233 408.736046 457.928292 405.148151 468.293351 405.626710 478.658409 410.071476 489.023468 417.578037 499.388527 426.737494 509.753585 436.065756 520.118644 444.384096 530.483703 451.022891 540.848761 455.821451 551.213820 458.985248 561.578879 460.896869 571.943937 461.958748 582.308996 462.502276 592.674055 462.759065 603.039113 462.871190 613.404172 462.916482 623.769231 462.933422" /></g><g class="series serie-7 color-7"><path class="line reactive nofill" d="M12.230769 462.941945 L22.595828 462.941945 32.960887 462.941945 43.325945 462.941945 53.691004 462.941945 64.056063 462.941945 74.421121 462.941945 84.786180 462.941945 95.151239 462.941945 105.516297 462.941945 115.881356 462.941945 126.246415 462.941945 136.611473 462.941945 146.976532 462.941945 157.341591 462.941945 167.706649 462.941945 178.071708 462.941945 188.436767 462.941945 198.801825 462.941945 209.166884 462.941944 219.531943 462.941943 229.897001 462.941938 240.262060 462.941920 250.627119 462.941857 260.992177 462.941659 271.357236 462.941061 281.722295 462.939373 292.087353 462.934889 302.452412 462.923694 312.817471 462.897448 323.182529 462.839674 333.547588 462.720363 343.912647 462.489386 354.277705 462.070628 364.642764 461.360563 375.007823 460.236380 385.372881 458.578403 395.737940 456.307869 406.102999 453.434104 416.468057 450.096666 426.833116 446.582623 437.198175 443.301687 447.563233 440.714517 457.928292 439.228679 468.293351 439.093851 478.658409 440.333217 489.023468 442.736952 499.388527 445.920304 509.753585 449.424199 520.118644 452.822254 530.483703 455.800429 540.848761 458.191069 551.213820 459.962626 561.578879 461.180697 571.943937 461.960459 582.308996 462.426351 592.674055 462.686621 603.039113 462.822756 613.404172 462.889495 623.769231 462.920188" /></g><g class="series serie-8 color-8"><path class="line reactive nofill" d="M12.230769 462.941945 L22.595828 462.941945 32.960887 462.941945 43.325945 462.941945 53.691004 462.941945 64.056063 462.941945 74.421121 462.941945 84.786180 462.941945 95.151239 462.941945 105.516297 462.941945 115.881356 462.941945 126.246415 462.941945 136.611473 462.941945 146.976532 462.941945 157.341591 462.941945 167.706649 462.941945 178.071708 462.941944 188.436767 462.941942 198.801825 462.941936 209.166884 462.941921 219.531943 462.941881 229.897001 462.941783 240.262060 462.941548 250.627119 462.941012 260.992177 462.939833 271.357236 462.937346 281.722295 462.932310 292.087353 462.922523 302.452412 462.904283 312.817471 462.871685 323.182529 462.815846 333.547588 462.724220 343.912647 462.580288 354.277705 462.364008 364.642764 462.053445 375.007823 461.627847 385.372881 461.072161 395.737940 460.382483 406.102999 459.571407 416.468057 458.671792 426.833116 457.737422 437.198175 456.839386 447.563233 456.058015 457.928292 455.471364 468.293351 455.142463 478.658409 455.108178 489.023468 455.372415 499.388527 455.905381 509.753585 456.649117 520.118644 457.527867 530.483703 458.460721 540.848761 459.373638 551.213820 460.208432 561.578879 460.927415 571.943937 461.513644 582.308996 461.967721 592.674055 462.302664 603.039113 462.538376 613.404172 462.696848 623.769231 462.798742" /></g><g class="series serie-9 color-9"><path class="line reactive nofill" d="M12.230769 462.941945 L22.595828 462.941945 32.960887 462.941945 43.325945 462.941945 53.691004 462.941945 64.056063 462.941945 74.421121 462.941945 84.786180 462.941945 95.151239 462.941945 105.516297 462.941945 115.881356 462.941945 126.246415 462.941945 136.611473 462.941945 146.976532 462.941945 157.341591 462.941945 167.706649 462.941945 178.071708 462.941945 188.436767 462.941944 198.801825 462.941940 209.166884 462.941915 219.531943 462.941788 229.897001 462.941187 240.262060 462.938639 250.627119 462.928907 260.992177 462.895464 271.357236 462.792155 281.722295 462.505605 292.087353 461.792975 302.452412 460.207098 312.817471 457.057607 323.182529 451.497294 333.547588 442.821021 343.912647 430.965245 354.277705 417.005252 364.642764 403.289784 375.007823 392.920189 385.372881 388.643421 395.737940 391.678348 406.102999 401.155151 416.468057 414.517579 426.833116 428.635746 437.198175 440.972372 447.563233 450.224174 457.928292 456.287057 468.293351 459.794118 478.658409 461.596018 489.023468 462.421743 499.388527 462.760199 509.753585 462.884547 520.118644 462.925559 530.483703 462.937716 540.848761 462.940958 551.213820 462.941737 561.578879 462.941905 571.943937 462.941938 582.308996 462.941944 592.674055 462.941945 603.039113 462.941945 613.404172 462.941945 623.769231 462.941945" /></g><g class="series serie-10 color-10"><path class="line reactive nofill" d="M12.230769 462.941945 L22.595828 462.941945 32.960887 462.941945 43.325945 462.941945 53.691004 462.941945 64.056063 462.941945 74.421121 462.941945 84.786180 462.941945 95.151239 462.941945 105.516297 462.941945 115.881356 462.941945 126.246415 462.941945 136.611473 462.941945 146.976532 462.941944 157.341591 462.941942 167.706649 462.941929 178.071708 462.941873 188.436767 462.941644 198.801825 462.940779 209.166884 462.937757 219.531943 462.928019 229.897001 462.899083 240.262060 462.819833 250.627119 462.619923 260.992177 462.155896 271.357236 461.165905 281.722295 459.227495 292.087353 455.751187 302.452412 450.056678 312.817471 441.569676 323.182529 430.128914 333.547588 416.310319 343.912647 401.600604 354.277705 388.251598 364.642764 378.760926 375.007823 375.120137 385.372881 378.135459 395.737940 387.137572 406.102999 400.223116 416.468057 414.908899 426.833116 428.891656 437.198175 440.599023 447.563233 449.371389 457.928292 455.312485 468.293351 458.971598 478.658409 461.029444 489.023468 462.089211 499.388527 462.590009 509.753585 462.807498 520.118644 462.894403 530.483703 462.926384 540.848761 462.937230 551.213820 462.940623 561.578879 462.941602 571.943937 462.941862 582.308996 462.941927 592.674055 462.941941 603.039113 462.941944 613.404172 462.941945 623.769231 462.941945" /></g><g class="series serie-11 color-11"><path class="line reactive nofill" d="M12.230769 462.941945 L22.595828 462.941945 32.960887 462.941945 43.325945 462.941945 53.691004 462.941945 64.056063 462.941945 74.421121 462.941945 84.786180 462.941945 95.151239 462.941944 105.516297 462.941943 115.881356 462.941936 126.246415 462.941910 136.611473 462.941818 146.976532 462.941514 157.341591 462.940560 167.706649 462.937750 178.071708 462.929952 188.436767 462.909589 198.801825 462.859573 209.166884 462.744059 219.531943 462.493350 229.897001 461.982332 240.262060 461.004888 250.627119 459.252233 260.992177 456.309915 271.357236 451.693189 281.722295 444.938053 292.087353 435.750502 302.452412 424.189237 312.817471 410.825379 323.182529 396.803579 333.547588 383.740143 343.912647 373.442446 354.277705 367.506417 364.642764 366.912705 375.007823 371.761682 385.372881 381.245695 395.737940 393.869100 406.102999 407.833711 416.468057 421.453268 426.833116 433.467434 437.198175 443.182826 447.563233 450.442450 457.928292 455.480528 468.293351 458.738996 478.658409 460.707906 489.023468 461.821394 499.388527 462.411578 509.753585 462.705067 520.118644 462.842111 530.483703 462.902241 540.848761 462.927045 551.213820 462.936668 561.578879 462.940182 571.943937 462.941389 582.308996 462.941779 592.674055 462.941898 603.039113 462.941933 613.404172 462.941942 623.769231 462.941944" /></g><g class="series serie-12 color-12"><path class="line reactive nofill" d="M12.230769 462.941945 L22.595828 462.941945 32.960887 462.941945 43.325945 462.941945 53.691004 462.941944 64.056063 462.941940 74.421121 462.941929 84.786180 462.941892 95.151239 462.941780 105.516297 462.941451 115.881356 462.940536 126.246415 462.938111 136.611473 462.931989 146.976532 462.917275 157.341591 462.883608 167.706649 462.810312 178.071708 462.658513 188.436767 462.359587 198.801825 461.800146 209.166884 460.805714 219.531943 459.128082 229.897001 456.444533 240.262060 452.379268 250.627119 446.556207 260.992177 438.686100 271.357236 428.678960 281.722295 416.757858 292.087353 403.537641 302.452412 390.029470 312.817471 377.544641 323.182529 367.498774 333.547588 361.152219 343.912647 359.351091 354.277705 362.342110 364.642764 369.717136 375.007823 380.504576 385.372881 393.379454 395.737940 406.929502 406.102999 419.903925 416.468057 431.386200 426.833116 440.863780 437.198175 448.201659 447.563233 453.551045 457.928292 457.232855 468.293351 459.629986 478.658409 461.108527 489.023468 461.973452 499.388527 462.453754 509.753585 462.707122 520.118644 462.834162 530.483703 462.894736 540.848761 462.922214 551.213820 462.934076 561.578879 462.938950 571.943937 462.940857 582.308996 462.941568 592.674055 462.941820 603.039113 462.941906 613.404172 462.941933 623.769231 462.941941" /></g><g class="series serie-13 color-13"><path class="line reactive nofill" d="M12.230769 462.861837 L22.595828 462.813530 32.960887 462.739652 43.325945 462.628782 53.691004 462.465534 64.056063 462.229720 74.421121 461.895596 84.786180 461.431312 95.151239 460.798733 105.516297 459.953847 115.881356 458.847943 126.246415 457.429748 136.611473 455.648631 146.976532 453.458882 157.341591 450.824923 167.706649 447.727131 178.071708 444.167767 188.436767 440.176364 198.801825 435.813802 209.166884 431.174308 219.531943 426.384715 229.897001 421.600546 240.262060 416.998816 250.627119 412.767856 260.992177 409.094893 271.357236 406.152465 281.722295 404.085046 292.087353 402.997302 302.452412 402.945310 312.817471 403.931766 323.182529 405.905757 333.547588 408.767114 343.912647 412.374831 354.277705 416.558577 364.642764 421.131969 375.007823 425.906201 385.372881 430.702635 395.737940 435.363236 406.102999 439.758090 416.468057 443.789648 426.833116 447.393763 437.198175 450.537941 447.563233 453.217436 457.928292 455.449958 468.293351 457.269767 478.658409 458.721812 489.023468 459.856441 499.388527 460.725028 509.753585 461.376649 520.118644 461.855853 530.483703 462.201384 540.848761 462.445720 551.213820 462.615192 561.578879 462.730507 571.943937 462.807491 582.308996 462.857925 592.674055 462.890349 603.039113 462.910808 613.404172 462.923479 623.769231 462.931184" /></g></g><g class="titles"><text class="title plot_title" x="400.0" y="26">Iteration #13</text><text class="title" x="462.0" y="580.0">Observation</text><text class="title" transform="rotate(-90 64.000000 282.009619)" x="64.0" y="308.0096189432334">Density</text></g><g class="plot overlay" transform="translate(144, 46)"><g class="series serie-0 color-0" /><g class="series serie-1 color-1" /><g class="series serie-2 color-2" /><g class="series serie-3 color-3" /><g class="series serie-4 color-4" /><g class="series serie-5 color-5" /><g class="series serie-6 color-6" /><g class="series serie-7 color-7" /><g class="series serie-8 color-8" /><g class="series serie-9 color-9" /><g class="series serie-10 color-10" /><g class="series serie-11 color-11" /><g class="series serie-12 color-12" /><g class="series serie-13 color-13" /></g><g class="plot text-overlay" transform="translate(144, 46)"><g class="series serie-0 color-0" /><g class="series serie-1 color-1" /><g class="series serie-2 color-2" /><g class="series serie-3 color-3" /><g class="series serie-4 color-4" /><g class="series serie-5 color-5" /><g class="series serie-6 color-6" /><g class="series serie-7 color-7" /><g class="series serie-8 color-8" /><g class="series serie-9 color-9" /><g class="series serie-10 color-10" /><g class="series serie-11 color-11" /><g class="series serie-12 color-12" /><g class="series serie-13 color-13" /></g><g class="plot tooltip-overlay" transform="translate(144, 46)"><g class="tooltip" style="opacity: 0" transform="translate(0 0)"><rect class="tooltip-box" height="0" rx="0" ry="0" width="0" /><g class="text" /></g></g><g class="legends" transform="translate(10, 56)"><g class="legend reactive activate-serie" id="activate-serie-0"><rect class="color-0 reactive" height="12" width="12" x="0.0" y="0.0" /><text x="17.0" y="9.0">Data</text></g><g class="legend reactive activate-serie" id="activate-serie-1"><rect class="color-1 reactive" height="12" width="12" x="0.0" y="18.0" /><text x="17.0" y="27.0">GMM</text></g><g class="legend reactive activate-serie" id="activate-serie-2"><rect class="color-2 reactive" height="12" width="12" x="0.0" y="36.0" /><text x="17.0" y="45.0">i=0</text></g><g class="legend reactive activate-serie" id="activate-serie-3"><rect class="color-3 reactive" height="12" width="12" x="0.0" y="54.0" /><text x="17.0" y="63.0">i=1</text></g><g class="legend reactive activate-serie" id="activate-serie-4"><rect class="color-4 reactive" height="12" width="12" x="0.0" y="72.0" /><text x="17.0" y="81.0">i=0 k=0</text></g><g class="legend reactive activate-serie" id="activate-serie-5"><rect class="color-5 reactive" height="12" width="12" x="0.0" y="90.0" /><text x="17.0" y="99.0">i=0 k=1</text></g><g class="legend reactive activate-serie" id="activate-serie-6"><rect class="color-6 reactive" height="12" width="12" x="0.0" y="108.0" /><text x="17.0" y="117.0">i=0 k=2</text></g><g class="legend reactive activate-serie" id="activate-serie-7"><rect class="color-7 reactive" height="12" width="12" x="0.0" y="126.0" /><text x="17.0" y="135.0">i=0 k=3</text></g><g class="legend reactive activate-serie" id="activate-serie-8"><rect class="color-8 reactive" height="12" width="12" x="0.0" y="144.0" /><text x="17.0" y="153.0">i=0 k=4</text></g><g class="legend reactive activate-serie" id="activate-serie-9"><rect class="color-9 reactive" height="12" width="12" x="0.0" y="162.0" /><text x="17.0" y="171.0">i=1 k=0</text></g><g class="legend reactive activate-serie" id="activate-serie-10"><rect class="color-10 reactive" height="12" width="12" x="0.0" y="180.0" /><text x="17.0" y="189.0">i=1 k=1</text></g><g class="legend reactive activate-serie" id="activate-serie-11"><rect class="color-11 reactive" height="12" width="12" x="0.0" y="198.0" /><text x="17.0" y="207.0">i=1 k=2</text></g><g class="legend reactive activate-serie" id="activate-serie-12"><rect class="color-12 reactive" height="12" width="12" x="0.0" y="216.0" /><text x="17.0" y="225.0">i=1 k=3</text></g><g class="legend reactive activate-serie" id="activate-serie-13"><rect class="color-13 reactive" height="12" width="12" x="0.0" y="234.0" /><text x="17.0" y="243.0">i=1 k=4</text></g></g><g class="legends" transform="translate(790, 56)" /></g></svg>