<?xml version='1.0' encoding='utf-8'?>
<svg xmlns:xlink="http://www.w3.org/1999/xlink" class="pygal-chart" id="chart-ffcce123-58ed-47f8-9b07-918aa2a1d8de" viewBox="0 0 800 600" xmlns="http://www.w3.org/2000/svg"><!--Generated with pygal 2.4.0 (etree) ©Kozea 2012-2016 on 2018-02-06--><!--http://pygal.org--><!--http://github.com/Kozea/pygal--><defs><style type="text/css">#chart-ffcce123-58ed-47f8-9b07-918aa2a1d8de{-webkit-user-select:none;-webkit-font-smoothing:antialiased;font-family:Consolas,"Liberation Mono",Menlo,Courier,monospace}#chart-ffcce123-58ed-47f8-9b07-918aa2a1d8de .title{font-family:Consolas,"Liberation Mono",Menlo,Courier,monospace;font-size:16px}#chart-ffcce123-58ed-47f8-9b07-918aa2a1d8de .legends .legend text{font-family:Consolas,"Liberation Mono",Menlo,Courier,monospace;font-size:10px}#chart-ffcce123-58ed-47f8-9b07-918aa2a1d8de .axis text{font-family:Consolas,"Liberation Mono",Menlo,Courier,monospace;font-size:10px}#chart-ffcce123-58ed-47f8-9b07-918aa2a1d8de .axis text.major{font-family:Consolas,"Liberation Mono",Menlo,Courier,monospace;font-size:10px}#chart-ffcce123-58ed-47f8-9b07-918aa2a1d8de .text-overlay text.value{font-family:Consolas,"Liberation Mono",Menlo,Courier,monospace;font-size:16px}#chart-ffcce123-58ed-47f8-9b07-918aa2a1d8de .text-overlay text.label{font-family:Consolas,"Liberation Mono",Menlo,Courier,monospace;font-size:10px}#chart-ffcce123-58ed-47f8-9b07-918aa2a1d8de .tooltip{font-family:Consolas,"Liberation Mono",Menlo,Courier,monospace;font-size:14px}#chart-ffcce123-58ed-47f8-9b07-918aa2a1d8de text.no_data{font-family:Consolas,"Liberation Mono",Menlo,Courier,monospace;font-size:64px}
#chart-ffcce123-58ed-47f8-9b07-918aa2a1d8de{background-color:rgba(249,249,249,1)}#chart-ffcce123-58ed-47f8-9b07-918aa2a1d8de path,#chart-ffcce123-58ed-47f8-9b07-918aa2a1d8de line,#chart-ffcce123-58ed-47f8-9b07-918aa2a1d8de rect,#chart-ffcce123-58ed-47f8-9b07-918aa2a1d8de circle{-webkit-transition:150ms;-moz-transition:150ms;transition:150ms}#chart-ffcce123-58ed-47f8-9b07-918aa2a1d8de .graph &gt; .background{fill:rgba(249,249,249,1)}#chart-ffcce123-58ed-47f8-9b07-918aa2a1d8de .plot &gt; .background{fill:rgba(255,255,255,1)}#chart-ffcce123-58ed-47f8-9b07-918aa2a1d8de .graph{fill:rgba(0,0,0,.87)}#chart-ffcce123-58ed-47f8-9b07-918aa2a1d8de text.no_data{fill:rgba(0,0,0,1)}#chart-ffcce123-58ed-47f8-9b07-918aa2a1d8de .title{fill:rgba(0,0,0,1)}#chart-ffcce123-58ed-47f8-9b07-918aa2a1d8de .legends .legend text{fill:rgba(0,0,0,.87)}#chart-ffcce123-58ed-47f8-9b07-918aa2a1d8de .legends .legend:hover text{fill:rgba(0,0,0,1)}#chart-ffcce123-58ed-47f8-9b07-918aa2a1d8de .axis .line{stroke:rgba(0,0,0,1)}#chart-ffcce123-58ed-47f8-9b07-918aa2a1d8de .axis .guide.line{stroke:rgba(0,0,0,.54)}#chart-ffcce123-58ed-47f8-9b07-918aa2a1d8de .axis .major.line{stroke:rgba(0,0,0,.87)}#chart-ffcce123-58ed-47f8-9b07-918aa2a1d8de .axis text.major{fill:rgba(0,0,0,1)}#chart-ffcce123-58ed-47f8-9b07-918aa2a1d8de .axis.y .guides:hover .guide.line,#chart-ffcce123-58ed-47f8-9b07-918aa2a1d8de .line-graph .axis.x .guides:hover .guide.line,#chart-ffcce123-58ed-47f8-9b07-918aa2a1d8de .stackedline-graph .axis.x .guides:hover .guide.line,#chart-ffcce123-58ed-47f8-9b07-918aa2a1d8de .xy-graph .axis.x .guides:hover .guide.line{stroke:rgba(0,0,0,1)}#chart-ffcce123-58ed-47f8-9b07-918aa2a1d8de .axis .guides:hover text{fill:rgba(0,0,0,1)}#chart-ffcce123-58ed-47f8-9b07-918aa2a1d8de .reactive{fill-opacity:.7;stroke-opacity:.8}#chart-ffcce123-58ed-47f8-9b07-918aa2a1d8de .ci{stroke:rgba(0,0,0,.87)}#chart-ffcce123-58ed-47f8-9b07-918aa2a1d8de .reactive.active,#chart-ffcce123-58ed-47f8-9b07-918aa2a1d8de .active .reactive{fill-opacity:.8;stroke-opacity:.9;stroke-width:4}#chart-ffcce123-58ed-47f8-9b07-918aa2a1d8de .ci .reactive.active{stroke-width:1.5}#chart-ffcce123-58ed-47f8-9b07-918aa2a1d8de .series text{fill:rgba(0,0,0,1)}#chart-ffcce123-58ed-47f8-9b07-918aa2a1d8de .tooltip rect{fill:rgba(255,255,255,1);stroke:rgba(0,0,0,1);-webkit-transition:opacity 150ms;-moz-transition:opacity 150ms;transition:opacity 150ms}#chart-ffcce123-58ed-47f8-9b07-918aa2a1d8de .tooltip .label{fill:rgba(0,0,0,.87)}#chart-ffcce123-58ed-47f8-9b07-918aa2a1d8de .tooltip .label{fill:rgba(0,0,0,.87)}#chart-ffcce123-58ed-47f8-9b07-918aa2a1d8de .tooltip .legend{font-size:.8em;fill:rgba(0,0,0,.54)}#chart-ffcce123-58ed-47f8-9b07-918aa2a1d8de .tooltip .x_label{font-size:.6em;fill:rgba(0,0,0,1)}#chart-ffcce123-58ed-47f8-9b07-918aa2a1d8de .tooltip .xlink{font-size:.5em;text-decoration:underline}#chart-ffcce123-58ed-47f8-9b07-918aa2a1d8de .tooltip .value{font-size:1.5em}#chart-ffcce123-58ed-47f8-9b07-918aa2a1d8de .bound{font-size:.5em}#chart-ffcce123-58ed-47f8-9b07-918aa2a1d8de .max-value{font-size:.75em;fill:rgba(0,0,0,.54)}#chart-ffcce123-58ed-47f8-9b07-918aa2a1d8de .map-element{fill:rgba(255,255,255,1);stroke:rgba(0,0,0,.54) !important}#chart-ffcce123-58ed-47f8-9b07-918aa2a1d8de .map-element .reactive{fill-opacity:inherit;stroke-opacity:inherit}#chart-ffcce123-58ed-47f8-9b07-918aa2a1d8de .color-0,#chart-ffcce123-58ed-47f8-9b07-918aa2a1d8de .color-0 a:visited{stroke:#909090;fill:#909090}#chart-ffcce123-58ed-47f8-9b07-918aa2a1d8de .color-1,#chart-ffcce123-58ed-47f8-9b07-918aa2a1d8de .color-1 a:visited{stroke:#000000;fill:#000000}#chart-ffcce123-58ed-47f8-9b07-918aa2a1d8de .color-2,#chart-ffcce123-58ed-47f8-9b07-918aa2a1d8de .color-2 a:visited{stroke:#ff0500;fill:#ff0500}#chart-ffcce123-58ed-47f8-9b07-918aa2a1d8de .color-3,#chart-ffcce123-58ed-47f8-9b07-918aa2a1d8de .color-3 a:visited{stroke:#323299;fill:#323299}#chart-ffcce123-58ed-47f8-9b07-918aa2a1d8de .color-4,#chart-ffcce123-58ed-47f8-9b07-918aa2a1d8de .color-4 a:visited{stroke:#a3413f;fill:#a3413f}#chart-ffcce123-58ed-47f8-9b07-918aa2a1d8de .color-5,#chart-ffcce123-58ed-47f8-9b07-918aa2a1d8de .color-5 a:visited{stroke:#a3413f;fill:#a3413f}#chart-ffcce123-58ed-47f8-9b07-918aa2a1d8de .color-6,#chart-ffcce123-58ed-47f8-9b07-918aa2a1d8de .color-6 a:visited{stroke:#657fff;fill:#657fff}#chart-ffcce123-58ed-47f8-9b07-918aa2a1d8de .color-7,#chart-ffcce123-58ed-47f8-9b07-918aa2a1d8de .color-7 a:visited{stroke:#657fff;fill:#657fff}#chart-ffcce123-58ed-47f8-9b07-918aa2a1d8de .text-overlay .color-0 text{fill:black}#chart-ffcce123-58ed-47f8-9b07-918aa2a1d8de .text-overlay .color-1 text{fill:white}#chart-ffcce123-58ed-47f8-9b07-918aa2a1d8de .text-overlay .color-2 text{fill:black}#chart-ffcce123-58ed-47f8-9b07-918aa2a1d8de .text-overlay .color-3 text{fill:black}#chart-ffcce123-58ed-47f8-9b07-918aa2a1d8de .text-overlay .color-4 text{fill:black}#chart-ffcce123-58ed-47f8-9b07-918aa2a1d8de .text-overlay .color-5 text{fill:black}#chart-ffcce123-58ed-47f8-9b07-918aa2a1d8de .text-overlay .color-6 text{fill:black}#chart-ffcce123-58ed-47f8-9b07-918aa2a1d8de .text-overlay .color-7 text{fill:black}#chart-ffcce123-58ed-47f8-9b07-918aa2a1d8de .series.serie-1{stroke-width:5}#chart-ffcce123-58ed-47f8-9b07-918aa2a1d8de .series.serie-2{stroke-width:3}#chart-ffcce123-58ed-47f8-9b07-918aa2a1d8de .series.serie-3{stroke-width:3}#chart-ffcce123-58ed-47f8-9b07-918aa2a1d8de .series.serie-4{stroke-width:2;stroke-dasharray:2,2}#chart-ffcce123-58ed-47f8-9b07-918aa2a1d8de .series.serie-5{stroke-width:2;stroke-dasharray:2,2}#chart-ffcce123-58ed-47f8-9b07-918aa2a1d8de .series.serie-6{stroke-width:2;stroke-dasharray:2,2}#chart-ffcce123-58ed-47f8-9b07-918aa2a1d8de .series.serie-7{stroke-width:2;stroke-dasharray:2,2}
#chart-ffcce123-58ed-47f8-9b07-918aa2a1d8de text.no_data{text-anchor:middle}#chart-ffcce123-58ed-47f8-9b07-918aa2a1d8de .guide.line{fill:none}#chart-ffcce123-58ed-47f8-9b07-918aa2a1d8de .centered{text-anchor:middle}#chart-ffcce123-58ed-47f8-9b07-918aa2a1d8de .title{text-anchor:middle}#chart-ffcce123-58ed-47f8-9b07-918aa2a1d8de .legends .legend text{fill-opacity:1}#chart-ffcce123-58ed-47f8-9b07-918aa2a1d8de .axis.x text{text-anchor:middle}#chart-ffcce123-58ed-47f8-9b07-918aa2a1d8de .axis.x:not(.web) text[transform]{text-anchor:start}#chart-ffcce123-58ed-47f8-9b07-918aa2a1d8de .axis.x:not(.web) text[transform].backwards{text-anchor:end}#chart-ffcce123-58ed-47f8-9b07-918aa2a1d8de .axis.y text{text-anchor:end}#chart-ffcce123-58ed-47f8-9b07-918aa2a1d8de .axis.y text[transform].backwards{text-anchor:start}#chart-ffcce123-58ed-47f8-9b07-918aa2a1d8de .axis.y2 text{text-anchor:start}#chart-ffcce123-58ed-47f8-9b07-918aa2a1d8de .axis.y2 text[transform].backwards{text-anchor:end}#chart-ffcce123-58ed-47f8-9b07-918aa2a1d8de .axis .guide.line{stroke-dasharray:4,4}#chart-ffcce123-58ed-47f8-9b07-918aa2a1d8de .axis .major.guide.line{stroke-dasharray:6,6}#chart-ffcce123-58ed-47f8-9b07-918aa2a1d8de .horizontal .axis.y .guide.line,#chart-ffcce123-58ed-47f8-9b07-918aa2a1d8de .horizontal .axis.y2 .guide.line,#chart-ffcce123-58ed-47f8-9b07-918aa2a1d8de .vertical .axis.x .guide.line{opacity:0}#chart-ffcce123-58ed-47f8-9b07-918aa2a1d8de .horizontal .axis.always_show .guide.line,#chart-ffcce123-58ed-47f8-9b07-918aa2a1d8de .vertical .axis.always_show .guide.line{opacity:1 !important}#chart-ffcce123-58ed-47f8-9b07-918aa2a1d8de .axis.y .guides:hover .guide.line,#chart-ffcce123-58ed-47f8-9b07-918aa2a1d8de .axis.y2 .guides:hover .guide.line,#chart-ffcce123-58ed-47f8-9b07-918aa2a1d8de .axis.x .guides:hover .guide.line{opacity:1}#chart-ffcce123-58ed-47f8-9b07-918aa2a1d8de .axis .guides:hover text{opacity:1}#chart-ffcce123-58ed-47f8-9b07-918aa2a1d8de .nofill{fill:none}#chart-ffcce123-58ed-47f8-9b07-918aa2a1d8de .subtle-fill{fill-opacity:.2}#chart-ffcce123-58ed-47f8-9b07-918aa2a1d8de .dot{stroke-width:1px;fill-opacity:1}#chart-ffcce123-58ed-47f8-9b07-918aa2a1d8de .dot.active{stroke-width:5px}#chart-ffcce123-58ed-47f8-9b07-918aa2a1d8de .dot.negative{fill:transparent}#chart-ffcce123-58ed-47f8-9b07-918aa2a1d8de text,#chart-ffcce123-58ed-47f8-9b07-918aa2a1d8de tspan{stroke:none !important}#chart-ffcce123-58ed-47f8-9b07-918aa2a1d8de .series text.active{opacity:1}#chart-ffcce123-58ed-47f8-9b07-918aa2a1d8de .tooltip rect{fill-opacity:.95;stroke-width:.5}#chart-ffcce123-58ed-47f8-9b07-918aa2a1d8de .tooltip text{fill-opacity:1}#chart-ffcce123-58ed-47f8-9b07-918aa2a1d8de .showable{visibility:hidden}#chart-ffcce123-58ed-47f8-9b07-918aa2a1d8de .showable.shown{visibility:visible}#chart-ffcce123-58ed-47f8-9b07-918aa2a1d8de .gauge-background{fill:rgba(229,229,229,1);stroke:none}#chart-ffcce123-58ed-47f8-9b07-918aa2a1d8de .bg-lines{stroke:rgba(249,249,249,1);stroke-width:2px}</style><script type="text/javascript">window.pygal = window.pygal || {};window.pygal.config = window.pygal.config || {};window.pygal.config['ffcce123-58ed-47f8-9b07-918aa2a1d8de'] = {"height": 600, "margin": 20, "no_data_text": "No data", "min_scale": 4, "tooltip_border_radius": 0, "print_zeroes": true, "margin_left": null, "tooltip_fancy_mode": true, "stack_from_top": false, "title": "Iteration #4", "y_labels_major_count": null, "fill": false, "stroke_style": null, "print_values": false, "y_labels_major_every": null, "dots_size": 2.5, "x_labels_major_count": null, "legend_box_size": 12, "legends": ["Data", "GMM", "i=0", "i=1", "i=0 k=0", "i=0 k=1", "i=1 k=0", "i=1 k=1"], "pretty_print": false, "print_labels": false, "range": [0, 0.27578580090479526], "y_label_rotation": 0, "margin_bottom": null, "x_labels_major_every": 2, "include_x_axis": false, "legend_at_bottom": false, "zero": 0, "show_legend": true, "y_labels": null, "strict": false, "box_mode": "extremes", "show_minor_y_labels": true, "show_minor_x_labels": false, "secondary_range": null, "show_dots": false, "order_min": null, "margin_top": null, "truncate_legend": null, "spacing": 10, "classes": ["pygal-chart"], "margin_right": null, "allow_interruptions": false, "interpolation_parameters": {}, "max_scale": 16, "js": ["//kozea.github.io/pygal.js/2.0.x/pygal-tooltips.min.js"], "css": ["file://style.css", "file://graph.css"], "truncate_label": null, "show_y_labels": true, "show_only_major_dots": false, "x_title": "Observation", "x_label_rotation": 60, "formatter": null, "disable_xml_declaration": false, "legend_at_bottom_columns": null, "stroke": true, "print_values_position": "center", "y_title": "Density", "y_labels_major": null, "inner_radius": 0, "defs": [], "dynamic_print_values": false, "half_pie": false, "interpolation_precision": 250, "logarithmic": false, "rounded_bars": null, "x_labels_major": null, "show_x_guides": false, "missing_value_fill_truncation": "x", "x_labels": ["-8.96", "-8.76", "-8.56", "-8.36", "-8.16", "-7.96", "-7.76", "-7.56", "-7.36", "-7.16", "-6.96", "-6.76", "-6.56", "-6.36", "-6.16", "-5.96", "-5.76", "-5.56", "-5.36", "-5.16", "-4.96", "-4.76", "-4.56", "-4.36", "-4.16", "-3.96", "-3.76", "-3.56", "-3.36", "-3.16", "-2.96", "-2.76", "-2.56", "-2.36", "-2.16", "-1.96", "-1.76", "-1.56", "-1.36", "-1.16", "-0.96", "-0.76", "-0.56", "-0.36", "-0.16", "0.04", "0.24", "0.44", "0.64", "0.84", "1.04", "1.24", "1.43", "1.63", "1.83", "2.03", "2.23", "2.43", "2.63", "2.83"], "no_prefix": false, "width": 800, "force_uri_protocol": "https", "inverse_y_axis": false, "show_y_guides": true, "xrange": null, "show_x_labels": true, "interpolate": null, "style": {"major_label_font_size": 10, "guide_stroke_dasharray": "4,4", "major_label_font_family": "Consolas, \"Liberation Mono\", Menlo, Courier, monospace", "transition": "150ms", "background": "rgba(249, 249, 249, 1)", "foreground_strong": "rgba(0, 0, 0, 1)", "plot_background": "rgba(255, 255, 255, 1)", "value_font_family": "Consolas, \"Liberation Mono\", Menlo, Courier, monospace", "stroke_opacity": ".8", "ci_colors": [], "foreground_subtle": "rgba(0, 0, 0, .54)", "value_font_size": 16, "title_font_family": "Consolas, \"Liberation Mono\", Menlo, Courier, monospace", "title_font_size": 16, "tooltip_font_size": 14, "colors": ["#909090", "#000000", "#ff0500", "#323299", "#a3413f", "#a3413f", "#657fff", "#657fff"], "opacity": ".7", "label_font_family": "Consolas, \"Liberation Mono\", Menlo, Courier, monospace", "value_label_font_family": "Consolas, \"Liberation Mono\", Menlo, Courier, monospace", "foreground": "rgba(0, 0, 0, .87)", "stroke_opacity_hover": ".9", "value_label_font_size": 10, "font_family": "Consolas, \"Liberation Mono\", Menlo, Courier, monospace", "legend_font_size": 10, "tooltip_font_family": "Consolas, \"Liberation Mono\", Menlo, Courier, monospace", "no_data_font_size": 64, "major_guide_stroke_dasharray": "6,6", "opacity_hover": ".8", "legend_font_family": "Consolas, \"Liberation Mono\", Menlo, Courier, monospace", "value_colors": [], "label_font_size": 10, "no_data_font_family": "Consolas, \"Liberation Mono\", Menlo, Courier, monospace", "value_background": "rgba(229, 229, 229, 1)"}, "explicit_size": false}</script><script type="text/javascript" xlink:href="https://kozea.github.io/pygal.js/2.0.x/pygal-tooltips.min.js" /></defs><title>Iteration #4</title><g class="graph line-graph vertical"><rect class="background" height="600" width="800" x="0" y="0" /><g class="plot" transform="translate(144, 46)"><rect class="background" height="472.01923788646684" width="636.0" x="0" y="0" /><g class="axis y always_show"><g class="guides"><path class="axis major line" d="M0.000000 462.941945 h636.000000" /><text class="major" x="-5" y="466.44194485">0</text><title>0</title></g><g class="guides"><path class="guide line" d="M0.000000 430.027658 h636.000000" /><text class="" x="-5" y="433.527657724">0.02</text><title>0.02</title></g><g class="guides"><path class="guide line" d="M0.000000 397.113371 h636.000000" /><text class="" x="-5" y="400.613370598">0.04</text><title>0.04</title></g><g class="guides"><path class="guide line" d="M0.000000 364.199083 h636.000000" /><text class="" x="-5" y="367.699083472">0.06</text><title>0.06</title></g><g class="guides"><path class="guide line" d="M0.000000 331.284796 h636.000000" /><text class="" x="-5" y="334.784796346">0.08</text><title>0.08</title></g><g class="guides"><path class="guide line" d="M0.000000 298.370509 h636.000000" /><text class="" x="-5" y="301.87050922">0.1</text><title>0.1</title></g><g class="guides"><path class="guide line" d="M0.000000 265.456222 h636.000000" /><text class="" x="-5" y="268.956222094">0.12</text><title>0.12</title></g><g class="guides"><path class="guide line" d="M0.000000 232.541935 h636.000000" /><text class="" x="-5" y="236.041934968">0.14</text><title>0.14</title></g><g class="guides"><path class="guide line" d="M0.000000 199.627648 h636.000000" /><text class="" x="-5" y="203.127647841">0.16</text><title>0.16</title></g><g class="guides"><path class="guide line" d="M0.000000 166.713361 h636.000000" /><text class="" x="-5" y="170.213360715">0.18</text><title>0.18</title></g><g class="guides"><path class="guide line" d="M0.000000 133.799074 h636.000000" /><text class="" x="-5" y="137.299073589">0.2</text><title>0.2</title></g><g class="guides"><path class="guide line" d="M0.000000 100.884786 h636.000000" /><text class="" x="-5" y="104.384786463">0.22</text><title>0.22</title></g><g class="guides"><path class="guide line" d="M0.000000 67.970499 h636.000000" /><text class="" x="-5" y="71.4704993371">0.24</text><title>0.24</title></g><g class="guides"><path class="guide line" d="M0.000000 35.056212 h636.000000" /><text class="" x="-5" y="38.5562122111">0.26</text><title>0.26</title></g></g><g class="axis x"><g class="guides"><path class="major line" d="M12.230769 0.000000 v472.019238" /><text class="major" transform="rotate(60 12.230769 487.019238)" x="12.230769230769232" y="487.01923788646684">-8.96</text></g><g class="guides"><path class="major guide line" d="M32.960887 0.000000 v472.019238" /><text class="major" transform="rotate(60 32.960887 487.019238)" x="32.96088657105606" y="487.01923788646684">-8.56</text></g><g class="guides"><path class="major guide line" d="M53.691004 0.000000 v472.019238" /><text class="major" transform="rotate(60 53.691004 487.019238)" x="53.6910039113429" y="487.01923788646684">-8.16</text></g><g class="guides"><path class="major guide line" d="M74.421121 0.000000 v472.019238" /><text class="major" transform="rotate(60 74.421121 487.019238)" x="74.42112125162973" y="487.01923788646684">-7.76</text></g><g class="guides"><path class="major guide line" d="M95.151239 0.000000 v472.019238" /><text class="major" transform="rotate(60 95.151239 487.019238)" x="95.15123859191655" y="487.01923788646684">-7.36</text></g><g class="guides"><path class="major guide line" d="M115.881356 0.000000 v472.019238" /><text class="major" transform="rotate(60 115.881356 487.019238)" x="115.88135593220338" y="487.01923788646684">-6.96</text></g><g class="guides"><path class="major guide line" d="M136.611473 0.000000 v472.019238" /><text class="major" transform="rotate(60 136.611473 487.019238)" x="136.61147327249023" y="487.01923788646684">-6.56</text></g><g class="guides"><path class="major guide line" d="M157.341591 0.000000 v472.019238" /><text class="major" transform="rotate(60 157.341591 487.019238)" x="157.34159061277705" y="487.01923788646684">-6.16</text></g><g class="guides"><path class="major guide line" d="M178.071708 0.000000 v472.019238" /><text class="major" transform="rotate(60 178.071708 487.019238)" x="178.0717079530639" y="487.01923788646684">-5.76</text></g><g class="guides"><path class="major guide line" d="M198.801825 0.000000 v472.019238" /><text class="major" transform="rotate(60 198.801825 487.019238)" x="198.80182529335073" y="487.01923788646684">-5.36</text></g><g class="guides"><path class="major guide line" d="M219.531943 0.000000 v472.019238" /><text class="major" transform="rotate(60 219.531943 487.019238)" x="219.53194263363756" y="487.01923788646684">-4.96</text></g><g class="guides"><path class="major guide line" d="M240.262060 0.000000 v472.019238" /><text class="major" transform="rotate(60 240.262060 487.019238)" x="240.2620599739244" y="487.01923788646684">-4.56</text></g><g class="guides"><path class="major guide line" d="M260.992177 0.000000 v472.019238" /><text class="major" transform="rotate(60 260.992177 487.019238)" x="260.99217731421123" y="487.01923788646684">-4.16</text></g><g class="guides"><path class="major guide line" d="M281.722295 0.000000 v472.019238" /><text class="major" transform="rotate(60 281.722295 487.019238)" x="281.722294654498" y="487.01923788646684">-3.76</text></g><g class="guides"><path class="major guide line" d="M302.452412 0.000000 v472.019238" /><text class="major" transform="rotate(60 302.452412 487.019238)" x="302.4524119947849" y="487.01923788646684">-3.36</text></g><g class="guides"><path class="major guide line" d="M323.182529 0.000000 v472.019238" /><text class="major" transform="rotate(60 323.182529 487.019238)" x="323.1825293350717" y="487.01923788646684">-2.96</text></g><g class="guides"><path class="major guide line" d="M343.912647 0.000000 v472.019238" /><text class="major" transform="rotate(60 343.912647 487.019238)" x="343.91264667535853" y="487.01923788646684">-2.56</text></g><g class="guides"><path class="major guide line" d="M364.642764 0.000000 v472.019238" /><text class="major" transform="rotate(60 364.642764 487.019238)" x="364.64276401564535" y="487.01923788646684">-2.16</text></g><g class="guides"><path class="major guide line" d="M385.372881 0.000000 v472.019238" /><text class="major" transform="rotate(60 385.372881 487.019238)" x="385.37288135593224" y="487.01923788646684">-1.76</text></g><g class="guides"><path class="major guide line" d="M406.102999 0.000000 v472.019238" /><text class="major" transform="rotate(60 406.102999 487.019238)" x="406.102998696219" y="487.01923788646684">-1.36</text></g><g class="guides"><path class="major guide line" d="M426.833116 0.000000 v472.019238" /><text class="major" transform="rotate(60 426.833116 487.019238)" x="426.8331160365058" y="487.01923788646684">-0.96</text></g><g class="guides"><path class="major guide line" d="M447.563233 0.000000 v472.019238" /><text class="major" transform="rotate(60 447.563233 487.019238)" x="447.56323337679265" y="487.01923788646684">-0.56</text></g><g class="guides"><path class="major guide line" d="M468.293351 0.000000 v472.019238" /><text class="major" transform="rotate(60 468.293351 487.019238)" x="468.29335071707953" y="487.01923788646684">-0.16</text></g><g class="guides"><path class="major guide line" d="M489.023468 0.000000 v472.019238" /><text class="major" transform="rotate(60 489.023468 487.019238)" x="489.02346805736636" y="487.01923788646684">0.24</text></g><g class="guides"><path class="major guide line" d="M509.753585 0.000000 v472.019238" /><text class="major" transform="rotate(60 509.753585 487.019238)" x="509.75358539765324" y="487.01923788646684">0.64</text></g><g class="guides"><path class="major guide line" d="M530.483703 0.000000 v472.019238" /><text class="major" transform="rotate(60 530.483703 487.019238)" x="530.48370273794" y="487.01923788646684">1.04</text></g><g class="guides"><path class="major guide line" d="M551.213820 0.000000 v472.019238" /><text class="major" transform="rotate(60 551.213820 487.019238)" x="551.213820078227" y="487.01923788646684">1.43</text></g><g class="guides"><path class="major guide line" d="M571.943937 0.000000 v472.019238" /><text class="major" transform="rotate(60 571.943937 487.019238)" x="571.9439374185138" y="487.01923788646684">1.83</text></g><g class="guides"><path class="major guide line" d="M592.674055 0.000000 v472.019238" /><text class="major" transform="rotate(60 592.674055 487.019238)" x="592.6740547588006" y="487.01923788646684">2.23</text></g><g class="guides"><path class="major guide line" d="M613.404172 0.000000 v472.019238" /><text class="major" transform="rotate(60 613.404172 487.019238)" x="613.4041720990874" y="487.01923788646684">2.63</text></g></g><g class="series serie-0 color-0"><path class="line reactive" d="M12.230769 462.941945 L12.230769 462.019456 22.595828 462.941945 32.960887 461.096967 43.325945 462.019456 53.691004 459.251988 64.056063 462.019456 74.421121 458.329499 84.786180 462.019456 95.151239 458.329499 105.516297 462.019456 115.881356 448.182119 126.246415 460.174477 136.611473 457.407010 146.976532 457.407010 157.341591 451.872075 167.706649 448.182119 178.071708 454.639543 188.436767 445.414651 198.801825 442.647184 209.166884 436.189760 219.531943 437.112249 229.897001 392.832771 240.262060 396.522728 250.627119 376.227967 260.992177 355.933206 271.357236 351.320760 281.722295 325.491065 292.087353 277.521630 302.452412 283.056565 312.817471 202.800010 323.182529 188.040184 333.547588 169.590402 343.912647 123.465945 354.277705 95.791271 364.642764 67.194108 375.007823 82.876423 385.372881 60.736684 395.737940 80.108956 406.102999 29.372054 416.468057 9.077293 426.833116 70.884065 437.198175 69.039086 447.563233 41.364413 457.928292 40.441923 468.293351 91.178826 478.658409 140.993239 489.023468 214.792369 499.388527 259.071847 509.753585 321.801108 520.118644 364.235608 530.483703 408.515086 540.848761 430.654825 551.213820 448.182119 561.578879 455.562032 571.943937 458.329499 582.308996 458.329499 592.674055 462.019456 603.039113 462.941945 613.404172 462.019456 623.769231 462.941945" /></g><g class="series serie-1 color-1"><path class="line reactive nofill" d="M12.230769 462.932136 L22.595828 462.923663 32.960887 462.908584 43.325945 462.882343 53.691004 462.837695 64.056063 462.763422 74.421121 462.642639 84.786180 462.450653 95.151239 462.152419 105.516297 461.699732 115.881356 461.028441 126.246415 460.056133 136.611473 458.680896 146.976532 456.781900 157.341591 454.222492 167.706649 450.856279 178.071708 446.536037 188.436767 441.124194 198.801825 434.502066 209.166884 426.573186 219.531943 417.254858 229.897001 406.452819 240.262060 394.018593 250.627119 379.699121 260.992177 363.102458 271.357236 343.716361 281.722295 321.018117 292.087353 294.692743 302.452412 264.927957 312.817471 232.689599 323.182529 199.830976 333.547588 168.893992 343.912647 142.545964 354.277705 122.752777 364.642764 109.959229 375.007823 102.644416 385.372881 97.568681 395.737940 90.807730 406.102999 79.335996 416.468057 62.604277 426.833116 43.417665 437.198175 27.581941 447.563233 22.250960 457.928292 33.502243 468.293351 64.094833 478.658409 112.356454 489.023468 172.660302 499.388527 237.228544 509.753585 298.437091 520.118644 350.687502 530.483703 391.260139 540.848761 420.108682 551.213820 438.981196 561.578879 450.382941 571.943937 456.764776 582.308996 460.084401 592.674055 461.694403 603.039113 462.425276 613.404172 462.737389 623.769231 462.863641" /></g><g class="series serie-2 color-2"><path class="line reactive nofill" d="M12.230769 462.941945 L22.595828 462.941945 32.960887 462.941945 43.325945 462.941945 53.691004 462.941945 64.056063 462.941945 74.421121 462.941945 84.786180 462.941945 95.151239 462.941945 105.516297 462.941945 115.881356 462.941945 126.246415 462.941945 136.611473 462.941945 146.976532 462.941945 157.341591 462.941945 167.706649 462.941945 178.071708 462.941944 188.436767 462.941942 198.801825 462.941934 209.166884 462.941903 219.531943 462.941790 229.897001 462.941406 240.262060 462.940180 250.627119 462.936483 260.992177 462.925975 271.357236 462.897809 281.722295 462.826576 292.087353 462.656523 302.452412 462.273107 312.817471 461.456213 323.182529 459.810877 333.547588 456.677558 343.912647 451.037323 354.277705 441.449095 364.642764 426.082776 375.007823 402.931489 385.372881 370.275234 395.737940 327.399843 406.102999 275.439047 416.468057 218.039944 426.833116 161.448494 437.198175 113.690769 447.563233 82.841915 457.928292 74.831369 468.293351 91.585671 478.658409 130.304890 489.023468 184.234708 499.388527 244.638588 509.753585 303.161351 520.118644 353.689051 530.483703 393.157941 540.848761 421.299547 551.213820 439.720433 561.578879 450.835530 571.943937 457.037392 582.308996 460.245665 592.674055 461.787970 603.039113 462.478483 613.404172 462.767028 623.769231 462.879810" /></g><g class="series serie-3 color-3"><path class="line reactive nofill" d="M12.230769 462.932136 L22.595828 462.923663 32.960887 462.908584 43.325945 462.882343 53.691004 462.837695 64.056063 462.763422 74.421121 462.642639 84.786180 462.450653 95.151239 462.152419 105.516297 461.699732 115.881356 461.028441 126.246415 460.056133 136.611473 458.680896 146.976532 456.781900 157.341591 454.222492 167.706649 450.856279 178.071708 446.536037 188.436767 441.124197 198.801825 434.502077 209.166884 426.573228 219.531943 417.255014 229.897001 406.453358 240.262060 394.020358 250.627119 379.704583 260.992177 363.118427 271.357236 343.760496 281.722295 321.133486 292.087353 294.978165 302.452412 265.596794 312.817471 234.175332 323.182529 202.962043 333.547588 175.158379 343.912647 154.450586 354.277705 144.245627 364.642764 146.818398 375.007823 162.654872 385.372881 190.235391 395.737940 226.349832 406.102999 266.838893 416.468057 307.506278 426.833116 344.911115 437.198175 376.833117 447.563233 402.350991 457.928292 421.612819 468.293351 435.451107 478.658409 444.993508 489.023468 451.367538 499.388527 455.531901 509.753585 458.217685 520.118644 459.940396 530.483703 461.044142 540.848761 461.751080 551.213820 462.202708 561.578879 462.489356 571.943937 462.669328 582.308996 462.780680 592.674055 462.848377 603.039113 462.888738 613.404172 462.912306 623.769231 462.925776" /></g><g class="series serie-4 color-4"><path class="line reactive nofill" d="M12.230769 462.941945 L22.595828 462.941945 32.960887 462.941945 43.325945 462.941945 53.691004 462.941945 64.056063 462.941945 74.421121 462.941945 84.786180 462.941945 95.151239 462.941945 105.516297 462.941945 115.881356 462.941945 126.246415 462.941945 136.611473 462.941945 146.976532 462.941945 157.341591 462.941945 167.706649 462.941945 178.071708 462.941944 188.436767 462.941942 198.801825 462.941934 209.166884 462.941903 219.531943 462.941790 229.897001 462.941408 240.262060 462.940190 250.627119 462.936532 260.992177 462.926189 271.357236 462.898671 281.722295 462.829801 292.087353 462.667732 302.452412 462.309298 312.817471 461.564743 323.182529 460.113188 333.547588 457.459737 343.912647 452.917109 354.277705 445.645336 364.642764 434.783636 375.007823 419.689160 385.372881 400.254077 395.737940 377.215497 406.102999 352.328461 416.468057 328.274315 426.833116 308.245523 437.198175 295.270453 447.563233 291.467227 457.928292 297.478191 468.293351 312.292492 478.658409 333.524104 489.023468 358.040216 499.388527 382.712636 509.753585 405.046371 520.118644 423.521675 530.483703 437.616580 540.848761 447.590341 551.213820 454.161557 561.578879 458.203503 571.943937 460.529156 582.308996 461.782727 592.674055 462.416445 603.039113 462.717173 613.404172 462.851231 623.769231 462.907401" /></g><g class="series serie-5 color-5"><path class="line reactive nofill" d="M12.230769 462.941945 L22.595828 462.941945 32.960887 462.941945 43.325945 462.941945 53.691004 462.941945 64.056063 462.941945 74.421121 462.941945 84.786180 462.941945 95.151239 462.941945 105.516297 462.941945 115.881356 462.941945 126.246415 462.941945 136.611473 462.941945 146.976532 462.941945 157.341591 462.941945 167.706649 462.941945 178.071708 462.941945 188.436767 462.941945 198.801825 462.941945 209.166884 462.941945 219.531943 462.941944 229.897001 462.941943 240.262060 462.941934 250.627119 462.941896 260.992177 462.941731 271.357236 462.941083 281.722295 462.938720 292.087353 462.930735 302.452412 462.905754 312.817471 462.833414 323.182529 462.639634 333.547588 462.159765 343.912647 461.062158 354.277705 458.745703 364.642764 454.241085 375.007823 446.184274 385.372881 432.963102 395.737940 413.126292 406.102999 386.052531 416.468057 352.707573 426.833116 316.144916 437.198175 281.362262 447.563233 254.316633 457.928292 240.295123 468.293351 242.235124 478.658409 259.722731 489.023468 289.136437 499.388527 324.867897 509.753585 361.056925 520.118644 393.109320 530.483703 418.483307 540.848761 436.651151 551.213820 448.500821 561.578879 455.573971 571.943937 459.450181 582.308996 461.404883 592.674055 462.313470 603.039113 462.703255 613.404172 462.857741 623.769231 462.914353" /></g><g class="series serie-6 color-6"><path class="line reactive nofill" d="M12.230769 462.932136 L22.595828 462.923663 32.960887 462.908584 43.325945 462.882343 53.691004 462.837695 64.056063 462.763422 74.421121 462.642639 84.786180 462.450653 95.151239 462.152420 105.516297 461.699736 115.881356 461.028457 126.246415 460.056192 136.611473 458.681108 146.976532 456.782623 157.341591 454.224821 167.706649 450.863365 178.071708 446.556402 188.436767 441.179478 198.801825 434.643817 209.166884 426.916479 219.531943 418.040138 229.897001 408.149542 240.262060 397.481465 250.627119 386.375172 260.992177 375.261285 271.357236 364.638307 281.722295 355.037911 292.087353 346.981976 302.452412 340.936052 312.817471 337.264934 323.182529 336.196258 333.547588 337.797133 343.912647 341.967170 354.277705 348.448899 364.642764 356.854080 375.007823 366.702164 385.372881 377.465618 395.737940 388.616179 406.102999 399.666495 416.468057 410.202760 426.833116 419.905748 437.198175 428.559506 447.563233 436.048788 457.928292 442.347542 468.293351 447.501531 478.658409 451.608264 489.023468 454.797052 499.388527 457.211319 509.753585 458.994455 520.118644 460.279735 530.483703 461.184159 540.848761 461.805648 551.213820 462.222794 561.578879 462.496339 571.943937 462.671622 582.308996 462.781392 592.674055 462.848586 603.039113 462.888796 613.404172 462.912321 623.769231 462.925780" /></g><g class="series serie-7 color-7"><path class="line reactive nofill" d="M12.230769 462.941945 L22.595828 462.941945 32.960887 462.941945 43.325945 462.941945 53.691004 462.941945 64.056063 462.941945 74.421121 462.941945 84.786180 462.941945 95.151239 462.941944 105.516297 462.941941 115.881356 462.941930 126.246415 462.941886 136.611473 462.941733 146.976532 462.941222 157.341591 462.939616 167.706649 462.934859 178.071708 462.921580 188.436767 462.886663 198.801825 462.800205 209.166884 462.598694 219.531943 462.156821 229.897001 461.245761 240.262060 459.480839 250.627119 456.271355 260.992177 450.799087 271.357236 442.064134 281.722295 429.037520 292.087353 410.938134 302.452412 387.602688 312.817471 359.852342 323.182529 329.707730 333.547588 300.303191 343.912647 275.425361 354.277705 258.738673 364.642764 252.906263 375.007823 258.894652 385.372881 275.711718 395.737940 300.675597 406.102999 330.114344 416.468057 360.245462 426.833116 387.947313 437.198175 411.215556 447.563233 429.244148 457.928292 442.207222 468.293351 450.891521 478.658409 456.327189 489.023468 459.512430 499.388527 461.262527 509.753585 462.165175 520.118644 462.602606 530.483703 462.801928 540.848761 462.887377 551.213820 462.921859 561.578879 462.934961 571.943937 462.939652 582.308996 462.941234 592.674055 462.941736 603.039113 462.941887 613.404172 462.941930 623.769231 462.941941" /></g></g><g class="titles"><text class="title plot_title" x="400.0" y="26">Iteration #4</text><text class="title" x="462.0" y="580.0">Observation</text><text class="title" transform="rotate(-90 64.000000 282.009619)" x="64.0" y="308.0096189432334">Density</text></g><g class="plot overlay" transform="translate(144, 46)"><g class="series serie-0 color-0" /><g class="series serie-1 color-1" /><g class="series serie-2 color-2" /><g class="series serie-3 color-3" /><g class="series serie-4 color-4" /><g class="series serie-5 color-5" /><g class="series serie-6 color-6" /><g class="series serie-7 color-7" /></g><g class="plot text-overlay" transform="translate(144, 46)"><g class="series serie-0 color-0" /><g class="series serie-1 color-1" /><g class="series serie-2 color-2" /><g class="series serie-3 color-3" /><g class="series serie-4 color-4" /><g class="series serie-5 color-5" /><g class="series serie-6 color-6" /><g class="series serie-7 color-7" /></g><g class="plot tooltip-overlay" transform="translate(144, 46)"><g class="tooltip" style="opacity: 0" transform="translate(0 0)"><rect class="tooltip-box" height="0" rx="0" ry="0" width="0" /><g class="text" /></g></g><g class="legends" transform="translate(10, 56)"><g class="legend reactive activate-serie" id="activate-serie-0"><rect class="color-0 reactive" height="12" width="12" x="0.0" y="0.0" /><text x="17.0" y="9.0">Data</text></g><g class="legend reactive activate-serie" id="activate-serie-1"><rect class="color-1 reactive" height="12" width="12" x="0.0" y="18.0" /><text x="17.0" y="27.0">GMM</text></g><g class="legend reactive activate-serie" id="activate-serie-2"><rect class="color-2 reactive" height="12" width="12" x="0.0" y="36.0" /><text x="17.0" y="45.0">i=0</text></g><g class="legend reactive activate-serie" id="activate-serie-3"><rect class="color-3 reactive" height="12" width="12" x="0.0" y="54.0" /><text x="17.0" y="63.0">i=1</text></g><g class="legend reactive activate-serie" id="activate-serie-4"><rect class="color-4 reactive" height="12" width="12" x="0.0" y="72.0" /><text x="17.0" y="81.0">i=0 k=0</text></g><g class="legend reactive activate-serie" id="activate-serie-5"><rect class="color-5 reactive" height="12" width="12" x="0.0" y="90.0" /><text x="17.0" y="99.0">i=0 k=1</text></g><g class="legend reactive activate-serie" id="activate-serie-6"><rect class="color-6 reactive" height="12" width="12" x="0.0" y="108.0" /><text x="17.0" y="117.0">i=1 k=0</text></g><g class="legend reactive activate-serie" id="activate-serie-7"><rect class="color-7 reactive" height="12" width="12" x="0.0" y="126.0" /><text x="17.0" y="135.0">i=1 k=1</text></g></g><g class="legends" transform="translate(790, 56)" /></g></svg>