<?xml version='1.0' encoding='utf-8'?>
<svg xmlns:xlink="http://www.w3.org/1999/xlink" class="pygal-chart" id="chart-3b464878-6834-4d84-82c3-c83a766907d8" viewBox="0 0 800 600" xmlns="http://www.w3.org/2000/svg"><!--Generated with pygal 2.4.0 (etree) ©Kozea 2012-2016 on 2018-01-18--><!--http://pygal.org--><!--http://github.com/Kozea/pygal--><defs><style type="text/css">#chart-3b464878-6834-4d84-82c3-c83a766907d8{-webkit-user-select:none;-webkit-font-smoothing:antialiased;font-family:Consolas,"Liberation Mono",Menlo,Courier,monospace}#chart-3b464878-6834-4d84-82c3-c83a766907d8 .title{font-family:Consolas,"Liberation Mono",Menlo,Courier,monospace;font-size:16px}#chart-3b464878-6834-4d84-82c3-c83a766907d8 .legends .legend text{font-family:Consolas,"Liberation Mono",Menlo,Courier,monospace;font-size:10px}#chart-3b464878-6834-4d84-82c3-c83a766907d8 .axis text{font-family:Consolas,"Liberation Mono",Menlo,Courier,monospace;font-size:10px}#chart-3b464878-6834-4d84-82c3-c83a766907d8 .axis text.major{font-family:Consolas,"Liberation Mono",Menlo,Courier,monospace;font-size:10px}#chart-3b464878-6834-4d84-82c3-c83a766907d8 .text-overlay text.value{font-family:Consolas,"Liberation Mono",Menlo,Courier,monospace;font-size:16px}#chart-3b464878-6834-4d84-82c3-c83a766907d8 .text-overlay text.label{font-family:Consolas,"Liberation Mono",Menlo,Courier,monospace;font-size:10px}#chart-3b464878-6834-4d84-82c3-c83a766907d8 .tooltip{font-family:Consolas,"Liberation Mono",Menlo,Courier,monospace;font-size:14px}#chart-3b464878-6834-4d84-82c3-c83a766907d8 text.no_data{font-family:Consolas,"Liberation Mono",Menlo,Courier,monospace;font-size:64px}
#chart-3b464878-6834-4d84-82c3-c83a766907d8{background-color:rgba(249,249,249,1)}#chart-3b464878-6834-4d84-82c3-c83a766907d8 path,#chart-3b464878-6834-4d84-82c3-c83a766907d8 line,#chart-3b464878-6834-4d84-82c3-c83a766907d8 rect,#chart-3b464878-6834-4d84-82c3-c83a766907d8 circle{-webkit-transition:150ms;-moz-transition:150ms;transition:150ms}#chart-3b464878-6834-4d84-82c3-c83a766907d8 .graph &gt; .background{fill:rgba(249,249,249,1)}#chart-3b464878-6834-4d84-82c3-c83a766907d8 .plot &gt; .background{fill:rgba(255,255,255,1)}#chart-3b464878-6834-4d84-82c3-c83a766907d8 .graph{fill:rgba(0,0,0,.87)}#chart-3b464878-6834-4d84-82c3-c83a766907d8 text.no_data{fill:rgba(0,0,0,1)}#chart-3b464878-6834-4d84-82c3-c83a766907d8 .title{fill:rgba(0,0,0,1)}#chart-3b464878-6834-4d84-82c3-c83a766907d8 .legends .legend text{fill:rgba(0,0,0,.87)}#chart-3b464878-6834-4d84-82c3-c83a766907d8 .legends .legend:hover text{fill:rgba(0,0,0,1)}#chart-3b464878-6834-4d84-82c3-c83a766907d8 .axis .line{stroke:rgba(0,0,0,1)}#chart-3b464878-6834-4d84-82c3-c83a766907d8 .axis .guide.line{stroke:rgba(0,0,0,.54)}#chart-3b464878-6834-4d84-82c3-c83a766907d8 .axis .major.line{stroke:rgba(0,0,0,.87)}#chart-3b464878-6834-4d84-82c3-c83a766907d8 .axis text.major{fill:rgba(0,0,0,1)}#chart-3b464878-6834-4d84-82c3-c83a766907d8 .axis.y .guides:hover .guide.line,#chart-3b464878-6834-4d84-82c3-c83a766907d8 .line-graph .axis.x .guides:hover .guide.line,#chart-3b464878-6834-4d84-82c3-c83a766907d8 .stackedline-graph .axis.x .guides:hover .guide.line,#chart-3b464878-6834-4d84-82c3-c83a766907d8 .xy-graph .axis.x .guides:hover .guide.line{stroke:rgba(0,0,0,1)}#chart-3b464878-6834-4d84-82c3-c83a766907d8 .axis .guides:hover text{fill:rgba(0,0,0,1)}#chart-3b464878-6834-4d84-82c3-c83a766907d8 .reactive{fill-opacity:.7;stroke-opacity:.8}#chart-3b464878-6834-4d84-82c3-c83a766907d8 .ci{stroke:rgba(0,0,0,.87)}#chart-3b464878-6834-4d84-82c3-c83a766907d8 .reactive.active,#chart-3b464878-6834-4d84-82c3-c83a766907d8 .active .reactive{fill-opacity:.8;stroke-opacity:.9;stroke-width:4}#chart-3b464878-6834-4d84-82c3-c83a766907d8 .ci .reactive.active{stroke-width:1.5}#chart-3b464878-6834-4d84-82c3-c83a766907d8 .series text{fill:rgba(0,0,0,1)}#chart-3b464878-6834-4d84-82c3-c83a766907d8 .tooltip rect{fill:rgba(255,255,255,1);stroke:rgba(0,0,0,1);-webkit-transition:opacity 150ms;-moz-transition:opacity 150ms;transition:opacity 150ms}#chart-3b464878-6834-4d84-82c3-c83a766907d8 .tooltip .label{fill:rgba(0,0,0,.87)}#chart-3b464878-6834-4d84-82c3-c83a766907d8 .tooltip .label{fill:rgba(0,0,0,.87)}#chart-3b464878-6834-4d84-82c3-c83a766907d8 .tooltip .legend{font-size:.8em;fill:rgba(0,0,0,.54)}#chart-3b464878-6834-4d84-82c3-c83a766907d8 .tooltip .x_label{font-size:.6em;fill:rgba(0,0,0,1)}#chart-3b464878-6834-4d84-82c3-c83a766907d8 .tooltip .xlink{font-size:.5em;text-decoration:underline}#chart-3b464878-6834-4d84-82c3-c83a766907d8 .tooltip .value{font-size:1.5em}#chart-3b464878-6834-4d84-82c3-c83a766907d8 .bound{font-size:.5em}#chart-3b464878-6834-4d84-82c3-c83a766907d8 .max-value{font-size:.75em;fill:rgba(0,0,0,.54)}#chart-3b464878-6834-4d84-82c3-c83a766907d8 .map-element{fill:rgba(255,255,255,1);stroke:rgba(0,0,0,.54) !important}#chart-3b464878-6834-4d84-82c3-c83a766907d8 .map-element .reactive{fill-opacity:inherit;stroke-opacity:inherit}#chart-3b464878-6834-4d84-82c3-c83a766907d8 .color-0,#chart-3b464878-6834-4d84-82c3-c83a766907d8 .color-0 a:visited{stroke:#909090;fill:#909090}#chart-3b464878-6834-4d84-82c3-c83a766907d8 .color-1,#chart-3b464878-6834-4d84-82c3-c83a766907d8 .color-1 a:visited{stroke:#000000;fill:#000000}#chart-3b464878-6834-4d84-82c3-c83a766907d8 .color-2,#chart-3b464878-6834-4d84-82c3-c83a766907d8 .color-2 a:visited{stroke:#ff0500;fill:#ff0500}#chart-3b464878-6834-4d84-82c3-c83a766907d8 .color-3,#chart-3b464878-6834-4d84-82c3-c83a766907d8 .color-3 a:visited{stroke:#323299;fill:#323299}#chart-3b464878-6834-4d84-82c3-c83a766907d8 .color-4,#chart-3b464878-6834-4d84-82c3-c83a766907d8 .color-4 a:visited{stroke:#a3413f;fill:#a3413f}#chart-3b464878-6834-4d84-82c3-c83a766907d8 .color-5,#chart-3b464878-6834-4d84-82c3-c83a766907d8 .color-5 a:visited{stroke:#a3413f;fill:#a3413f}#chart-3b464878-6834-4d84-82c3-c83a766907d8 .color-6,#chart-3b464878-6834-4d84-82c3-c83a766907d8 .color-6 a:visited{stroke:#a3413f;fill:#a3413f}#chart-3b464878-6834-4d84-82c3-c83a766907d8 .color-7,#chart-3b464878-6834-4d84-82c3-c83a766907d8 .color-7 a:visited{stroke:#a3413f;fill:#a3413f}#chart-3b464878-6834-4d84-82c3-c83a766907d8 .color-8,#chart-3b464878-6834-4d84-82c3-c83a766907d8 .color-8 a:visited{stroke:#a3413f;fill:#a3413f}#chart-3b464878-6834-4d84-82c3-c83a766907d8 .color-9,#chart-3b464878-6834-4d84-82c3-c83a766907d8 .color-9 a:visited{stroke:#657fff;fill:#657fff}#chart-3b464878-6834-4d84-82c3-c83a766907d8 .color-10,#chart-3b464878-6834-4d84-82c3-c83a766907d8 .color-10 a:visited{stroke:#657fff;fill:#657fff}#chart-3b464878-6834-4d84-82c3-c83a766907d8 .color-11,#chart-3b464878-6834-4d84-82c3-c83a766907d8 .color-11 a:visited{stroke:#657fff;fill:#657fff}#chart-3b464878-6834-4d84-82c3-c83a766907d8 .color-12,#chart-3b464878-6834-4d84-82c3-c83a766907d8 .color-12 a:visited{stroke:#657fff;fill:#657fff}#chart-3b464878-6834-4d84-82c3-c83a766907d8 .color-13,#chart-3b464878-6834-4d84-82c3-c83a766907d8 .color-13 a:visited{stroke:#657fff;fill:#657fff}#chart-3b464878-6834-4d84-82c3-c83a766907d8 .text-overlay .color-0 text{fill:black}#chart-3b464878-6834-4d84-82c3-c83a766907d8 .text-overlay .color-1 text{fill:white}#chart-3b464878-6834-4d84-82c3-c83a766907d8 .text-overlay .color-2 text{fill:black}#chart-3b464878-6834-4d84-82c3-c83a766907d8 .text-overlay .color-3 text{fill:black}#chart-3b464878-6834-4d84-82c3-c83a766907d8 .text-overlay .color-4 text{fill:black}#chart-3b464878-6834-4d84-82c3-c83a766907d8 .text-overlay .color-5 text{fill:black}#chart-3b464878-6834-4d84-82c3-c83a766907d8 .text-overlay .color-6 text{fill:black}#chart-3b464878-6834-4d84-82c3-c83a766907d8 .text-overlay .color-7 text{fill:black}#chart-3b464878-6834-4d84-82c3-c83a766907d8 .text-overlay .color-8 text{fill:black}#chart-3b464878-6834-4d84-82c3-c83a766907d8 .text-overlay .color-9 text{fill:black}#chart-3b464878-6834-4d84-82c3-c83a766907d8 .text-overlay .color-10 text{fill:black}#chart-3b464878-6834-4d84-82c3-c83a766907d8 .text-overlay .color-11 text{fill:black}#chart-3b464878-6834-4d84-82c3-c83a766907d8 .text-overlay .color-12 text{fill:black}#chart-3b464878-6834-4d84-82c3-c83a766907d8 .text-overlay .color-13 text{fill:black}#chart-3b464878-6834-4d84-82c3-c83a766907d8 .series.serie-1{stroke-width:5}#chart-3b464878-6834-4d84-82c3-c83a766907d8 .series.serie-2{stroke-width:3}#chart-3b464878-6834-4d84-82c3-c83a766907d8 .series.serie-3{stroke-width:3}#chart-3b464878-6834-4d84-82c3-c83a766907d8 .series.serie-4{stroke-width:2;stroke-dasharray:2,2}#chart-3b464878-6834-4d84-82c3-c83a766907d8 .series.serie-5{stroke-width:2;stroke-dasharray:2,2}#chart-3b464878-6834-4d84-82c3-c83a766907d8 .series.serie-6{stroke-width:2;stroke-dasharray:2,2}#chart-3b464878-6834-4d84-82c3-c83a766907d8 .series.serie-7{stroke-width:2;stroke-dasharray:2,2}#chart-3b464878-6834-4d84-82c3-c83a766907d8 .series.serie-8{stroke-width:2;stroke-dasharray:2,2}#chart-3b464878-6834-4d84-82c3-c83a766907d8 .series.serie-9{stroke-width:2;stroke-dasharray:2,2}#chart-3b464878-6834-4d84-82c3-c83a766907d8 .series.serie-10{stroke-width:2;stroke-dasharray:2,2}#chart-3b464878-6834-4d84-82c3-c83a766907d8 .series.serie-11{stroke-width:2;stroke-dasharray:2,2}#chart-3b464878-6834-4d84-82c3-c83a766907d8 .series.serie-12{stroke-width:2;stroke-dasharray:2,2}#chart-3b464878-6834-4d84-82c3-c83a766907d8 .series.serie-13{stroke-width:2;stroke-dasharray:2,2}
#chart-3b464878-6834-4d84-82c3-c83a766907d8 text.no_data{text-anchor:middle}#chart-3b464878-6834-4d84-82c3-c83a766907d8 .guide.line{fill:none}#chart-3b464878-6834-4d84-82c3-c83a766907d8 .centered{text-anchor:middle}#chart-3b464878-6834-4d84-82c3-c83a766907d8 .title{text-anchor:middle}#chart-3b464878-6834-4d84-82c3-c83a766907d8 .legends .legend text{fill-opacity:1}#chart-3b464878-6834-4d84-82c3-c83a766907d8 .axis.x text{text-anchor:middle}#chart-3b464878-6834-4d84-82c3-c83a766907d8 .axis.x:not(.web) text[transform]{text-anchor:start}#chart-3b464878-6834-4d84-82c3-c83a766907d8 .axis.x:not(.web) text[transform].backwards{text-anchor:end}#chart-3b464878-6834-4d84-82c3-c83a766907d8 .axis.y text{text-anchor:end}#chart-3b464878-6834-4d84-82c3-c83a766907d8 .axis.y text[transform].backwards{text-anchor:start}#chart-3b464878-6834-4d84-82c3-c83a766907d8 .axis.y2 text{text-anchor:start}#chart-3b464878-6834-4d84-82c3-c83a766907d8 .axis.y2 text[transform].backwards{text-anchor:end}#chart-3b464878-6834-4d84-82c3-c83a766907d8 .axis .guide.line{stroke-dasharray:4,4}#chart-3b464878-6834-4d84-82c3-c83a766907d8 .axis .major.guide.line{stroke-dasharray:6,6}#chart-3b464878-6834-4d84-82c3-c83a766907d8 .horizontal .axis.y .guide.line,#chart-3b464878-6834-4d84-82c3-c83a766907d8 .horizontal .axis.y2 .guide.line,#chart-3b464878-6834-4d84-82c3-c83a766907d8 .vertical .axis.x .guide.line{opacity:0}#chart-3b464878-6834-4d84-82c3-c83a766907d8 .horizontal .axis.always_show .guide.line,#chart-3b464878-6834-4d84-82c3-c83a766907d8 .vertical .axis.always_show .guide.line{opacity:1 !important}#chart-3b464878-6834-4d84-82c3-c83a766907d8 .axis.y .guides:hover .guide.line,#chart-3b464878-6834-4d84-82c3-c83a766907d8 .axis.y2 .guides:hover .guide.line,#chart-3b464878-6834-4d84-82c3-c83a766907d8 .axis.x .guides:hover .guide.line{opacity:1}#chart-3b464878-6834-4d84-82c3-c83a766907d8 .axis .guides:hover text{opacity:1}#chart-3b464878-6834-4d84-82c3-c83a766907d8 .nofill{fill:none}#chart-3b464878-6834-4d84-82c3-c83a766907d8 .subtle-fill{fill-opacity:.2}#chart-3b464878-6834-4d84-82c3-c83a766907d8 .dot{stroke-width:1px;fill-opacity:1}#chart-3b464878-6834-4d84-82c3-c83a766907d8 .dot.active{stroke-width:5px}#chart-3b464878-6834-4d84-82c3-c83a766907d8 .dot.negative{fill:transparent}#chart-3b464878-6834-4d84-82c3-c83a766907d8 text,#chart-3b464878-6834-4d84-82c3-c83a766907d8 tspan{stroke:none !important}#chart-3b464878-6834-4d84-82c3-c83a766907d8 .series text.active{opacity:1}#chart-3b464878-6834-4d84-82c3-c83a766907d8 .tooltip rect{fill-opacity:.95;stroke-width:.5}#chart-3b464878-6834-4d84-82c3-c83a766907d8 .tooltip text{fill-opacity:1}#chart-3b464878-6834-4d84-82c3-c83a766907d8 .showable{visibility:hidden}#chart-3b464878-6834-4d84-82c3-c83a766907d8 .showable.shown{visibility:visible}#chart-3b464878-6834-4d84-82c3-c83a766907d8 .gauge-background{fill:rgba(229,229,229,1);stroke:none}#chart-3b464878-6834-4d84-82c3-c83a766907d8 .bg-lines{stroke:rgba(249,249,249,1);stroke-width:2px}</style><script type="text/javascript">window.pygal = window.pygal || {};window.pygal.config = window.pygal.config || {};window.pygal.config['3b464878-6834-4d84-82c3-c83a766907d8'] = {"allow_interruptions": false, "x_label_rotation": 60, "y_title": "Density", "stack_from_top": false, "stroke": true, "include_x_axis": false, "defs": [], "truncate_label": null, "legend_at_bottom_columns": null, "show_minor_y_labels": true, "show_x_labels": true, "tooltip_fancy_mode": true, "show_legend": true, "print_labels": false, "disable_xml_declaration": false, "secondary_range": null, "x_labels": ["-8.96", "-8.76", "-8.56", "-8.36", "-8.16", "-7.96", "-7.76", "-7.56", "-7.36", "-7.16", "-6.96", "-6.76", "-6.56", "-6.36", "-6.16", "-5.96", "-5.76", "-5.56", "-5.36", "-5.16", "-4.96", "-4.76", "-4.56", "-4.36", "-4.16", "-3.96", "-3.76", "-3.56", "-3.36", "-3.16", "-2.96", "-2.76", "-2.56", "-2.36", "-2.16", "-1.96", "-1.76", "-1.56", "-1.36", "-1.16", "-0.96", "-0.76", "-0.56", "-0.36", "-0.16", "0.04", "0.24", "0.44", "0.64", "0.84", "1.04", "1.24", "1.43", "1.63", "1.83", "2.03", "2.23", "2.43", "2.63", "2.83"], "interpolation_precision": 250, "force_uri_protocol": "https", "classes": ["pygal-chart"], "css": ["file://style.css", "file://graph.css"], "margin": 20, "style": {"opacity_hover": ".8", "foreground": "rgba(0, 0, 0, .87)", "foreground_subtle": "rgba(0, 0, 0, .54)", "value_colors": [], "legend_font_family": "Consolas, \"Liberation Mono\", Menlo, Courier, monospace", "tooltip_font_family": "Consolas, \"Liberation Mono\", Menlo, Courier, monospace", "stroke_opacity_hover": ".9", "no_data_font_size": 64, "guide_stroke_dasharray": "4,4", "title_font_family": "Consolas, \"Liberation Mono\", Menlo, Courier, monospace", "label_font_family": "Consolas, \"Liberation Mono\", Menlo, Courier, monospace", "ci_colors": [], "background": "rgba(249, 249, 249, 1)", "colors": ["#909090", "#000000", "#ff0500", "#323299", "#a3413f", "#a3413f", "#a3413f", "#a3413f", "#a3413f", "#657fff", "#657fff", "#657fff", "#657fff", "#657fff"], "value_font_family": "Consolas, \"Liberation Mono\", Menlo, Courier, monospace", "font_family": "Consolas, \"Liberation Mono\", Menlo, Courier, monospace", "value_background": "rgba(229, 229, 229, 1)", "stroke_opacity": ".8", "title_font_size": 16, "no_data_font_family": "Consolas, \"Liberation Mono\", Menlo, Courier, monospace", "label_font_size": 10, "major_guide_stroke_dasharray": "6,6", "major_label_font_size": 10, "transition": "150ms", "opacity": ".7", "legend_font_size": 10, "value_label_font_family": "Consolas, \"Liberation Mono\", Menlo, Courier, monospace", "major_label_font_family": "Consolas, \"Liberation Mono\", Menlo, Courier, monospace", "plot_background": "rgba(255, 255, 255, 1)", "value_label_font_size": 10, "foreground_strong": "rgba(0, 0, 0, 1)", "tooltip_font_size": 14, "value_font_size": 16}, "order_min": null, "interpolation_parameters": {}, "show_dots": false, "y_labels_major": null, "box_mode": "extremes", "fill": false, "show_minor_x_labels": false, "js": ["//kozea.github.io/pygal.js/2.0.x/pygal-tooltips.min.js"], "explicit_size": false, "formatter": null, "x_labels_major": null, "legends": ["Data", "GMM", "i=0", "i=1", "i=0 k=0", "i=0 k=1", "i=0 k=2", "i=0 k=3", "i=0 k=4", "i=1 k=0", "i=1 k=1", "i=1 k=2", "i=1 k=3", "i=1 k=4"], "zero": 0, "strict": false, "print_values": false, "margin_bottom": null, "dynamic_print_values": false, "print_zeroes": true, "logarithmic": false, "x_labels_major_count": null, "margin_left": null, "legend_box_size": 12, "max_scale": 16, "dots_size": 2.5, "show_y_guides": true, "truncate_legend": null, "interpolate": null, "y_labels_major_every": null, "legend_at_bottom": false, "inner_radius": 0, "tooltip_border_radius": 0, "show_x_guides": false, "x_labels_major_every": 2, "show_y_labels": true, "pretty_print": false, "rounded_bars": null, "missing_value_fill_truncation": "x", "y_label_rotation": 0, "height": 600, "show_only_major_dots": false, "spacing": 10, "inverse_y_axis": false, "xrange": null, "margin_right": null, "no_prefix": false, "range": [0, 0.27578580090479526], "margin_top": null, "no_data_text": "No data", "y_labels_major_count": null, "half_pie": false, "width": 800, "title": "Iteration #1", "stroke_style": null, "y_labels": null, "print_values_position": "center", "x_title": "Observation", "min_scale": 4}</script><script type="text/javascript" xlink:href="https://kozea.github.io/pygal.js/2.0.x/pygal-tooltips.min.js" /></defs><title>Iteration #1</title><g class="graph line-graph vertical"><rect class="background" height="600" width="800" x="0" y="0" /><g class="plot" transform="translate(144, 46)"><rect class="background" height="472.01923788646684" width="636.0" x="0" y="0" /><g class="axis y always_show"><g class="guides"><path class="axis major line" d="M0.000000 462.941945 h636.000000" /><text class="major" x="-5" y="466.44194485">0</text><title>0</title></g><g class="guides"><path class="guide line" d="M0.000000 430.027658 h636.000000" /><text class="" x="-5" y="433.527657724">0.02</text><title>0.02</title></g><g class="guides"><path class="guide line" d="M0.000000 397.113371 h636.000000" /><text class="" x="-5" y="400.613370598">0.04</text><title>0.04</title></g><g class="guides"><path class="guide line" d="M0.000000 364.199083 h636.000000" /><text class="" x="-5" y="367.699083472">0.06</text><title>0.06</title></g><g class="guides"><path class="guide line" d="M0.000000 331.284796 h636.000000" /><text class="" x="-5" y="334.784796346">0.08</text><title>0.08</title></g><g class="guides"><path class="guide line" d="M0.000000 298.370509 h636.000000" /><text class="" x="-5" y="301.87050922">0.1</text><title>0.1</title></g><g class="guides"><path class="guide line" d="M0.000000 265.456222 h636.000000" /><text class="" x="-5" y="268.956222094">0.12</text><title>0.12</title></g><g class="guides"><path class="guide line" d="M0.000000 232.541935 h636.000000" /><text class="" x="-5" y="236.041934968">0.14</text><title>0.14</title></g><g class="guides"><path class="guide line" d="M0.000000 199.627648 h636.000000" /><text class="" x="-5" y="203.127647841">0.16</text><title>0.16</title></g><g class="guides"><path class="guide line" d="M0.000000 166.713361 h636.000000" /><text class="" x="-5" y="170.213360715">0.18</text><title>0.18</title></g><g class="guides"><path class="guide line" d="M0.000000 133.799074 h636.000000" /><text class="" x="-5" y="137.299073589">0.2</text><title>0.2</title></g><g class="guides"><path class="guide line" d="M0.000000 100.884786 h636.000000" /><text class="" x="-5" y="104.384786463">0.22</text><title>0.22</title></g><g class="guides"><path class="guide line" d="M0.000000 67.970499 h636.000000" /><text class="" x="-5" y="71.4704993371">0.24</text><title>0.24</title></g><g class="guides"><path class="guide line" d="M0.000000 35.056212 h636.000000" /><text class="" x="-5" y="38.5562122111">0.26</text><title>0.26</title></g></g><g class="axis x"><g class="guides"><path class="major line" d="M12.230769 0.000000 v472.019238" /><text class="major" transform="rotate(60 12.230769 487.019238)" x="12.230769230769232" y="487.01923788646684">-8.96</text></g><g class="guides"><path class="major guide line" d="M32.960887 0.000000 v472.019238" /><text class="major" transform="rotate(60 32.960887 487.019238)" x="32.96088657105606" y="487.01923788646684">-8.56</text></g><g class="guides"><path class="major guide line" d="M53.691004 0.000000 v472.019238" /><text class="major" transform="rotate(60 53.691004 487.019238)" x="53.6910039113429" y="487.01923788646684">-8.16</text></g><g class="guides"><path class="major guide line" d="M74.421121 0.000000 v472.019238" /><text class="major" transform="rotate(60 74.421121 487.019238)" x="74.42112125162973" y="487.01923788646684">-7.76</text></g><g class="guides"><path class="major guide line" d="M95.151239 0.000000 v472.019238" /><text class="major" transform="rotate(60 95.151239 487.019238)" x="95.15123859191655" y="487.01923788646684">-7.36</text></g><g class="guides"><path class="major guide line" d="M115.881356 0.000000 v472.019238" /><text class="major" transform="rotate(60 115.881356 487.019238)" x="115.88135593220338" y="487.01923788646684">-6.96</text></g><g class="guides"><path class="major guide line" d="M136.611473 0.000000 v472.019238" /><text class="major" transform="rotate(60 136.611473 487.019238)" x="136.61147327249023" y="487.01923788646684">-6.56</text></g><g class="guides"><path class="major guide line" d="M157.341591 0.000000 v472.019238" /><text class="major" transform="rotate(60 157.341591 487.019238)" x="157.34159061277705" y="487.01923788646684">-6.16</text></g><g class="guides"><path class="major guide line" d="M178.071708 0.000000 v472.019238" /><text class="major" transform="rotate(60 178.071708 487.019238)" x="178.0717079530639" y="487.01923788646684">-5.76</text></g><g class="guides"><path class="major guide line" d="M198.801825 0.000000 v472.019238" /><text class="major" transform="rotate(60 198.801825 487.019238)" x="198.80182529335073" y="487.01923788646684">-5.36</text></g><g class="guides"><path class="major guide line" d="M219.531943 0.000000 v472.019238" /><text class="major" transform="rotate(60 219.531943 487.019238)" x="219.53194263363756" y="487.01923788646684">-4.96</text></g><g class="guides"><path class="major guide line" d="M240.262060 0.000000 v472.019238" /><text class="major" transform="rotate(60 240.262060 487.019238)" x="240.2620599739244" y="487.01923788646684">-4.56</text></g><g class="guides"><path class="major guide line" d="M260.992177 0.000000 v472.019238" /><text class="major" transform="rotate(60 260.992177 487.019238)" x="260.99217731421123" y="487.01923788646684">-4.16</text></g><g class="guides"><path class="major guide line" d="M281.722295 0.000000 v472.019238" /><text class="major" transform="rotate(60 281.722295 487.019238)" x="281.722294654498" y="487.01923788646684">-3.76</text></g><g class="guides"><path class="major guide line" d="M302.452412 0.000000 v472.019238" /><text class="major" transform="rotate(60 302.452412 487.019238)" x="302.4524119947849" y="487.01923788646684">-3.36</text></g><g class="guides"><path class="major guide line" d="M323.182529 0.000000 v472.019238" /><text class="major" transform="rotate(60 323.182529 487.019238)" x="323.1825293350717" y="487.01923788646684">-2.96</text></g><g class="guides"><path class="major guide line" d="M343.912647 0.000000 v472.019238" /><text class="major" transform="rotate(60 343.912647 487.019238)" x="343.91264667535853" y="487.01923788646684">-2.56</text></g><g class="guides"><path class="major guide line" d="M364.642764 0.000000 v472.019238" /><text class="major" transform="rotate(60 364.642764 487.019238)" x="364.64276401564535" y="487.01923788646684">-2.16</text></g><g class="guides"><path class="major guide line" d="M385.372881 0.000000 v472.019238" /><text class="major" transform="rotate(60 385.372881 487.019238)" x="385.37288135593224" y="487.01923788646684">-1.76</text></g><g class="guides"><path class="major guide line" d="M406.102999 0.000000 v472.019238" /><text class="major" transform="rotate(60 406.102999 487.019238)" x="406.102998696219" y="487.01923788646684">-1.36</text></g><g class="guides"><path class="major guide line" d="M426.833116 0.000000 v472.019238" /><text class="major" transform="rotate(60 426.833116 487.019238)" x="426.8331160365058" y="487.01923788646684">-0.96</text></g><g class="guides"><path class="major guide line" d="M447.563233 0.000000 v472.019238" /><text class="major" transform="rotate(60 447.563233 487.019238)" x="447.56323337679265" y="487.01923788646684">-0.56</text></g><g class="guides"><path class="major guide line" d="M468.293351 0.000000 v472.019238" /><text class="major" transform="rotate(60 468.293351 487.019238)" x="468.29335071707953" y="487.01923788646684">-0.16</text></g><g class="guides"><path class="major guide line" d="M489.023468 0.000000 v472.019238" /><text class="major" transform="rotate(60 489.023468 487.019238)" x="489.02346805736636" y="487.01923788646684">0.24</text></g><g class="guides"><path class="major guide line" d="M509.753585 0.000000 v472.019238" /><text class="major" transform="rotate(60 509.753585 487.019238)" x="509.75358539765324" y="487.01923788646684">0.64</text></g><g class="guides"><path class="major guide line" d="M530.483703 0.000000 v472.019238" /><text class="major" transform="rotate(60 530.483703 487.019238)" x="530.48370273794" y="487.01923788646684">1.04</text></g><g class="guides"><path class="major guide line" d="M551.213820 0.000000 v472.019238" /><text class="major" transform="rotate(60 551.213820 487.019238)" x="551.213820078227" y="487.01923788646684">1.43</text></g><g class="guides"><path class="major guide line" d="M571.943937 0.000000 v472.019238" /><text class="major" transform="rotate(60 571.943937 487.019238)" x="571.9439374185138" y="487.01923788646684">1.83</text></g><g class="guides"><path class="major guide line" d="M592.674055 0.000000 v472.019238" /><text class="major" transform="rotate(60 592.674055 487.019238)" x="592.6740547588006" y="487.01923788646684">2.23</text></g><g class="guides"><path class="major guide line" d="M613.404172 0.000000 v472.019238" /><text class="major" transform="rotate(60 613.404172 487.019238)" x="613.4041720990874" y="487.01923788646684">2.63</text></g></g><g class="series serie-0 color-0"><path class="line reactive" d="M12.230769 462.941945 L12.230769 462.019456 22.595828 462.941945 32.960887 461.096967 43.325945 462.019456 53.691004 459.251988 64.056063 462.019456 74.421121 458.329499 84.786180 462.019456 95.151239 458.329499 105.516297 462.019456 115.881356 448.182119 126.246415 460.174477 136.611473 457.407010 146.976532 457.407010 157.341591 451.872075 167.706649 448.182119 178.071708 454.639543 188.436767 445.414651 198.801825 442.647184 209.166884 436.189760 219.531943 437.112249 229.897001 392.832771 240.262060 396.522728 250.627119 376.227967 260.992177 355.933206 271.357236 351.320760 281.722295 325.491065 292.087353 277.521630 302.452412 283.056565 312.817471 202.800010 323.182529 188.040184 333.547588 169.590402 343.912647 123.465945 354.277705 95.791271 364.642764 67.194108 375.007823 82.876423 385.372881 60.736684 395.737940 80.108956 406.102999 29.372054 416.468057 9.077293 426.833116 70.884065 437.198175 69.039086 447.563233 41.364413 457.928292 40.441923 468.293351 91.178826 478.658409 140.993239 489.023468 214.792369 499.388527 259.071847 509.753585 321.801108 520.118644 364.235608 530.483703 408.515086 540.848761 430.654825 551.213820 448.182119 561.578879 455.562032 571.943937 458.329499 582.308996 458.329499 592.674055 462.019456 603.039113 462.941945 613.404172 462.019456 623.769231 462.941945" /></g><g class="series serie-1 color-1"><path class="line reactive nofill" d="M12.230769 462.916956 L22.595828 462.897455 32.960887 462.864338 43.325945 462.809305 53.691004 462.719830 64.056063 462.577518 74.421121 462.356112 84.786180 462.019231 95.151239 461.518005 105.516297 460.788924 115.881356 459.752323 126.246415 458.312071 136.611473 456.357073 146.976532 453.765154 157.341591 450.409655 167.706649 446.168589 178.071708 440.935517 188.436767 434.630319 198.801825 427.207151 209.166884 418.656253 219.531943 408.996586 229.897001 398.257940 240.262060 386.454384 250.627119 373.555096 260.992177 359.462240 271.357236 344.006446 281.722295 326.967053 292.087353 308.116656 302.452412 287.280238 312.817471 264.391998 323.182529 239.531251 333.547588 212.923199 343.912647 184.900646 354.277705 155.839231 364.642764 126.103704 375.007823 96.073586 385.372881 66.331139 395.737940 38.044676 406.102999 13.425503 416.468057 -4.072680 426.833116 -10.217983 437.198175 -1.264722 447.563233 24.419297 457.928292 65.260963 468.293351 116.681265 478.658409 172.570241 489.023468 227.208752 499.388527 276.624363 509.753585 318.903717 520.118644 353.703892 530.483703 381.537850 540.848761 403.253047 551.213820 419.787097 561.578879 432.082551 571.943937 441.039232 582.308996 447.463319 592.674055 452.026588 603.039113 455.252758 613.404172 457.530028 623.769231 459.137276" /></g><g class="series serie-2 color-2"><path class="line reactive nofill" d="M12.230769 462.941945 L22.595828 462.941945 32.960887 462.941945 43.325945 462.941945 53.691004 462.941945 64.056063 462.941945 74.421121 462.941945 84.786180 462.941945 95.151239 462.941945 105.516297 462.941945 115.881356 462.941945 126.246415 462.941944 136.611473 462.941944 146.976532 462.941942 157.341591 462.941940 167.706649 462.941934 178.071708 462.941923 188.436767 462.941901 198.801825 462.941859 209.166884 462.941777 219.531943 462.941621 229.897001 462.941325 240.262060 462.940772 250.627119 462.939742 260.992177 462.937837 271.357236 462.934327 281.722295 462.927877 292.087353 462.916023 302.452412 462.894164 312.817471 462.853578 323.182529 462.777487 333.547588 462.633312 343.912647 462.358055 354.277705 461.832660 364.642764 460.841948 375.007823 459.022433 385.372881 455.814097 395.737940 450.453411 406.102999 442.063009 416.468057 429.886700 426.833116 413.664727 437.198175 394.045025 447.563233 372.829249 457.928292 352.838943 468.293351 337.316078 478.658409 329.009808 489.023468 329.311709 499.388527 337.830469 509.753585 352.597323 520.118644 370.780659 530.483703 389.559651 540.848761 406.792543 551.213820 421.288940 561.578879 432.717657 571.943937 441.318406 582.308996 447.594751 592.674055 452.092899 603.039113 455.287781 613.404172 457.548866 623.769231 459.147394" /></g><g class="series serie-3 color-3"><path class="line reactive nofill" d="M12.230769 462.916956 L22.595828 462.897455 32.960887 462.864338 43.325945 462.809305 53.691004 462.719830 64.056063 462.577518 74.421121 462.356112 84.786180 462.019231 95.151239 461.518005 105.516297 460.788924 115.881356 459.752323 126.246415 458.312071 136.611473 456.357074 146.976532 453.765157 157.341591 450.409660 167.706649 446.168600 178.071708 440.935539 188.436767 434.630363 198.801825 427.207237 209.166884 418.656421 219.531943 408.996910 229.897001 398.258560 240.262060 386.455557 250.627119 373.557299 260.992177 359.466348 271.357236 344.014065 281.722295 326.981121 292.087353 308.142578 302.452412 287.328019 312.817471 264.480364 323.182529 239.695708 333.547588 213.231832 343.912647 185.484535 354.277705 156.948516 364.642764 128.203701 375.007823 99.993098 385.372881 73.458987 395.737940 50.533209 406.102999 34.304439 416.468057 28.982564 426.833116 39.059235 437.198175 67.632198 447.563233 114.531993 457.928292 175.363965 468.293351 242.307132 478.658409 306.502378 489.023468 360.838987 499.388527 401.735839 509.753585 429.248338 520.118644 445.865178 530.483703 454.920144 540.848761 459.402449 551.213820 461.440102 561.578879 462.306839 571.943937 462.662771 582.308996 462.810513 592.674055 462.875634 603.039113 462.906922 613.404172 462.923107 623.769231 462.931827" /></g><g class="series serie-4 color-4"><path class="line reactive nofill" d="M12.230769 462.941945 L22.595828 462.941945 32.960887 462.941945 43.325945 462.941945 53.691004 462.941945 64.056063 462.941945 74.421121 462.941945 84.786180 462.941945 95.151239 462.941945 105.516297 462.941945 115.881356 462.941945 126.246415 462.941945 136.611473 462.941945 146.976532 462.941945 157.341591 462.941945 167.706649 462.941945 178.071708 462.941945 188.436767 462.941945 198.801825 462.941945 209.166884 462.941945 219.531943 462.941945 229.897001 462.941945 240.262060 462.941945 250.627119 462.941945 260.992177 462.941943 271.357236 462.941938 281.722295 462.941910 292.087353 462.941786 302.452412 462.941288 312.817471 462.939435 323.182529 462.933105 333.547588 462.913243 343.912647 462.856017 354.277705 462.704756 364.642764 462.338287 375.007823 461.525426 385.372881 459.877229 395.737940 456.828389 406.102999 451.697619 416.468057 443.873783 426.833116 433.127951 437.198175 419.961850 447.563233 405.813752 457.928292 392.930428 468.293351 383.833220 478.658409 380.525254 489.023468 383.775370 499.388527 392.827995 509.753585 405.688331 520.118644 419.835990 530.483703 433.018780 540.848761 443.789965 551.213820 451.639934 561.578879 456.792532 571.943937 459.856999 582.308996 461.515033 592.674055 462.333414 603.039113 462.702666 613.404172 462.855196 623.769231 462.912948" /></g><g class="series serie-5 color-5"><path class="line reactive nofill" d="M12.230769 462.941945 L22.595828 462.941945 32.960887 462.941945 43.325945 462.941945 53.691004 462.941945 64.056063 462.941945 74.421121 462.941945 84.786180 462.941945 95.151239 462.941945 105.516297 462.941945 115.881356 462.941945 126.246415 462.941945 136.611473 462.941945 146.976532 462.941945 157.341591 462.941945 167.706649 462.941945 178.071708 462.941945 188.436767 462.941945 198.801825 462.941945 209.166884 462.941945 219.531943 462.941944 229.897001 462.941943 240.262060 462.941939 250.627119 462.941925 260.992177 462.941879 271.357236 462.941736 281.722295 462.941314 292.087353 462.940135 302.452412 462.937020 312.817471 462.929243 323.182529 462.910874 333.547588 462.869874 343.912647 462.783417 354.277705 462.611277 364.642764 462.287886 375.007823 461.715127 385.372881 460.759807 395.737940 459.261306 406.102999 457.054822 416.468057 454.012554 426.833116 450.098562 437.198175 445.424295 447.563233 440.284491 457.928292 435.152157 468.293351 430.619948 478.658409 427.292728 489.023468 425.656388 499.388527 425.961670 509.753585 428.161232 520.118644 431.921669 530.483703 436.706303 540.848761 441.900451 551.213820 446.938986 561.578879 451.400429 571.943937 455.048542 582.308996 457.822716 592.674055 459.793590 603.039113 461.105823 613.404172 461.926495 623.769231 462.409403" /></g><g class="series serie-6 color-6"><path class="line reactive nofill" d="M12.230769 462.941945 L22.595828 462.941945 32.960887 462.941945 43.325945 462.941945 53.691004 462.941945 64.056063 462.941945 74.421121 462.941945 84.786180 462.941945 95.151239 462.941945 105.516297 462.941945 115.881356 462.941945 126.246415 462.941945 136.611473 462.941945 146.976532 462.941945 157.341591 462.941945 167.706649 462.941945 178.071708 462.941945 188.436767 462.941944 198.801825 462.941942 209.166884 462.941937 219.531943 462.941923 229.897001 462.941889 240.262060 462.941806 250.627119 462.941610 260.992177 462.941168 271.357236 462.940204 281.722295 462.938178 292.087353 462.934071 302.452412 462.926049 312.817471 462.910953 323.182529 462.883588 333.547588 462.835820 343.912647 462.755555 354.277705 462.625783 364.642764 462.424009 375.007823 462.122490 385.372881 461.689799 395.737940 461.094097 406.102999 460.308289 416.468057 459.316737 426.833116 458.122597 437.198175 456.754307 447.563233 455.269340 457.928292 453.753498 468.293351 452.314650 478.658409 451.071016 489.023468 450.135518 499.388527 449.598973 509.753585 449.515578 520.118644 449.893890 530.483703 450.695378 540.848761 451.840890 551.213820 453.223528 561.578879 454.725043 571.943937 456.232262 582.308996 457.650464 592.674055 458.911678 603.039113 459.977307 613.404172 460.835787 623.769231 461.496866" /></g><g class="series serie-7 color-7"><path class="line reactive nofill" d="M12.230769 462.941945 L22.595828 462.941945 32.960887 462.941945 43.325945 462.941945 53.691004 462.941945 64.056063 462.941945 74.421121 462.941945 84.786180 462.941945 95.151239 462.941945 105.516297 462.941945 115.881356 462.941945 126.246415 462.941945 136.611473 462.941945 146.976532 462.941944 157.341591 462.941944 167.706649 462.941942 178.071708 462.941938 188.436767 462.941930 198.801825 462.941913 209.166884 462.941879 219.531943 462.941810 229.897001 462.941674 240.262060 462.941415 250.627119 462.940934 260.992177 462.940063 271.357236 462.938525 281.722295 462.935878 292.087353 462.931441 302.452412 462.924195 312.817471 462.912668 323.182529 462.894813 333.547588 462.867887 343.912647 462.828366 354.277705 462.771930 364.642764 462.693551 375.007823 462.587733 385.372881 462.448941 395.737940 462.272210 406.102999 462.053928 416.468057 461.792719 426.833116 461.490317 437.198175 461.152285 447.563233 460.788412 457.928292 460.412657 468.293351 460.042528 478.658409 459.697887 489.023468 459.399262 499.388527 459.165861 509.753585 459.013537 520.118644 458.953007 530.483703 458.988610 540.848761 459.117789 551.213820 459.331397 561.578879 459.614764 571.943937 459.949368 582.308996 460.314824 592.674055 460.690920 603.039113 461.059396 613.404172 461.405285 623.769231 461.717681" /></g><g class="series serie-8 color-8"><path class="line reactive nofill" d="M12.230769 462.941945 L22.595828 462.941945 32.960887 462.941945 43.325945 462.941945 53.691004 462.941945 64.056063 462.941945 74.421121 462.941945 84.786180 462.941945 95.151239 462.941945 105.516297 462.941945 115.881356 462.941945 126.246415 462.941944 136.611473 462.941944 146.976532 462.941943 157.341591 462.941941 167.706649 462.941937 178.071708 462.941930 188.436767 462.941917 198.801825 462.941893 209.166884 462.941851 219.531943 462.941778 229.897001 462.941654 240.262060 462.941446 250.627119 462.941107 260.992177 462.940562 271.357236 462.939703 281.722295 462.938377 292.087353 462.936370 302.452412 462.933391 312.817471 462.929060 323.182529 462.922887 333.547588 462.914268 343.912647 462.902480 354.277705 462.886693 364.642764 462.865995 375.007823 462.839436 385.372881 462.806100 395.737940 462.765189 406.102999 462.716130 416.468057 462.658687 426.833116 462.593078 437.198175 462.520068 447.563233 462.441033 457.928292 462.357982 468.293351 462.273511 478.658409 462.190702 489.023468 462.112951 499.388527 462.043749 509.753585 461.986424 520.118644 461.943882 530.483703 461.918359 540.848761 461.911227 551.213820 461.922874 561.578879 461.952669 571.943937 461.999014 582.308996 462.059493 592.674055 462.131076 603.039113 462.210368 613.404172 462.293881 623.769231 462.378276" /></g><g class="series serie-9 color-9"><path class="line reactive nofill" d="M12.230769 462.941945 L22.595828 462.941945 32.960887 462.941945 43.325945 462.941945 53.691004 462.941945 64.056063 462.941945 74.421121 462.941945 84.786180 462.941945 95.151239 462.941945 105.516297 462.941945 115.881356 462.941945 126.246415 462.941945 136.611473 462.941945 146.976532 462.941945 157.341591 462.941945 167.706649 462.941945 178.071708 462.941945 188.436767 462.941945 198.801825 462.941945 209.166884 462.941945 219.531943 462.941945 229.897001 462.941945 240.262060 462.941945 250.627119 462.941943 260.992177 462.941935 271.357236 462.941888 281.722295 462.941635 292.087353 462.940419 302.452412 462.935178 312.817471 462.914886 323.182529 462.844413 333.547588 462.625041 343.912647 462.013722 354.277705 460.491077 364.642764 457.108426 375.007823 450.425413 385.372881 438.732756 395.737940 420.731565 406.102999 396.598032 416.468057 368.942411 426.833116 342.883389 437.198175 324.711620 447.563233 319.473516 457.928292 328.711153 468.293351 349.730388 478.658409 376.867908 489.023468 403.949502 499.388527 426.494811 509.753585 442.643013 520.118644 452.750734 530.483703 458.329606 540.848761 461.060206 551.213820 462.249890 561.578879 462.712507 571.943937 462.873375 582.308996 462.923472 592.674055 462.937459 603.039113 462.940963 613.404172 462.941751 623.769231 462.941910" /></g><g class="series serie-10 color-10"><path class="line reactive nofill" d="M12.230769 462.941945 L22.595828 462.941945 32.960887 462.941945 43.325945 462.941945 53.691004 462.941945 64.056063 462.941945 74.421121 462.941945 84.786180 462.941945 95.151239 462.941945 105.516297 462.941945 115.881356 462.941945 126.246415 462.941945 136.611473 462.941945 146.976532 462.941945 157.341591 462.941945 167.706649 462.941945 178.071708 462.941945 188.436767 462.941945 198.801825 462.941945 209.166884 462.941943 219.531943 462.941934 229.897001 462.941892 240.262060 462.941699 250.627119 462.940900 260.992177 462.937857 271.357236 462.927246 281.722295 462.893344 292.087353 462.794188 302.452412 462.528908 312.817471 461.880324 323.182529 460.433015 333.547588 457.490062 343.912647 452.049054 354.277705 442.930501 364.642764 429.139171 375.007823 410.441268 385.372881 387.967007 395.737940 364.494154 406.102999 344.082285 416.468057 330.994301 426.833116 328.260600 437.198175 336.540541 447.563233 353.864489 457.928292 376.394002 468.293351 399.800117 478.658409 420.585822 489.023468 436.817090 499.388527 448.125970 509.753585 455.216113 520.118644 459.237707 530.483703 461.308926 540.848761 462.280000 551.213820 462.695232 561.578879 462.857398 571.943937 462.915304 582.308996 462.934226 592.674055 462.939889 603.039113 462.941441 613.404172 462.941831 623.769231 462.941921" /></g><g class="series serie-11 color-11"><path class="line reactive nofill" d="M12.230769 462.941945 L22.595828 462.941945 32.960887 462.941945 43.325945 462.941945 53.691004 462.941945 64.056063 462.941945 74.421121 462.941945 84.786180 462.941945 95.151239 462.941945 105.516297 462.941945 115.881356 462.941945 126.246415 462.941945 136.611473 462.941945 146.976532 462.941944 157.341591 462.941943 167.706649 462.941935 178.071708 462.941902 188.436767 462.941774 198.801825 462.941312 209.166884 462.939751 219.531943 462.934832 229.897001 462.920376 240.262060 462.880777 250.627119 462.779701 260.992177 462.539457 271.357236 462.008095 281.722295 460.915464 292.087353 458.829043 302.452412 455.134753 312.817471 449.081349 323.182529 439.927019 333.547588 427.200027 343.912647 411.027676 354.277705 392.418060 364.642764 373.338166 375.007823 356.464646 385.372881 344.602826 395.737940 339.931995 406.102999 343.352524 416.468057 354.202807 426.833116 370.467951 437.198175 389.390036 447.563233 408.226631 457.928292 424.873561 468.293351 438.169972 478.658409 447.865555 489.023468 454.360217 499.388527 458.373244 509.753585 460.667103 520.118644 461.882568 530.483703 462.480531 540.848761 462.753983 551.213820 462.870332 561.578879 462.916426 571.943937 462.933440 582.308996 462.939294 592.674055 462.941172 603.039113 462.941734 613.404172 462.941891 623.769231 462.941932" /></g><g class="series serie-12 color-12"><path class="line reactive nofill" d="M12.230769 462.941945 L22.595828 462.941945 32.960887 462.941945 43.325945 462.941945 53.691004 462.941945 64.056063 462.941945 74.421121 462.941944 84.786180 462.941942 95.151239 462.941935 105.516297 462.941912 115.881356 462.941836 126.246415 462.941602 136.611473 462.940917 146.976532 462.939012 157.341591 462.933984 167.706649 462.921373 178.071708 462.891347 188.436767 462.823489 198.801825 462.677981 209.166884 462.382064 219.531943 461.811599 229.897001 460.769789 240.262060 458.968799 250.627119 456.024564 260.992177 451.478564 271.357236 444.859898 281.722295 435.793417 292.087353 424.143994 302.452412 410.166107 312.817471 394.609761 323.182529 378.728915 333.547588 364.155556 343.912647 352.641122 354.277705 345.715871 364.642764 344.355920 375.007823 348.757583 385.372881 358.290899 395.737940 371.647503 406.102999 387.135011 416.468057 403.026698 426.833116 417.867582 437.198175 430.665502 447.563233 440.942812 457.928292 448.669799 468.293351 454.128680 478.658409 457.761725 489.023468 460.043778 499.388527 461.398602 509.753585 462.159659 520.118644 462.564519 530.483703 462.768619 540.848761 462.866182 551.213820 462.910423 561.578879 462.929461 571.943937 462.937239 582.308996 462.940256 592.674055 462.941368 603.039113 462.941757 613.404172 462.941887 623.769231 462.941928" /></g><g class="series serie-13 color-13"><path class="line reactive nofill" d="M12.230769 462.916956 L22.595828 462.897455 32.960887 462.864338 43.325945 462.809305 53.691004 462.719831 64.056063 462.577518 74.421121 462.356113 84.786180 462.019233 95.151239 461.518014 105.516297 460.788957 115.881356 459.752432 126.246415 458.312415 136.611473 456.358102 146.976532 453.768090 157.341591 450.417624 167.706649 446.189182 178.071708 440.986180 188.436767 434.748989 198.801825 427.471834 209.166884 419.218498 219.531943 410.134380 229.897001 400.452338 240.262060 390.490117 250.627119 380.637970 260.992177 371.336314 271.357236 363.044717 281.722295 356.205040 292.087353 351.202714 302.452412 348.330852 312.817471 347.761823 323.182529 349.530126 333.547588 353.528926 343.912647 359.520740 354.277705 367.160786 364.642764 376.029797 375.007823 385.671968 385.372881 395.633278 395.737940 405.495773 406.102999 414.904367 416.468057 423.584127 426.833116 431.347492 437.198175 438.092279 447.563233 443.792324 457.928292 448.483230 468.293351 452.245754 478.658409 455.189147 489.023468 457.436179 499.388527 459.110992 509.753585 460.330229 520.118644 461.197429 530.483703 461.800240 540.848761 462.209858 551.213820 462.482005 561.578879 462.658825 571.943937 462.771192 582.308996 462.841044 592.674055 462.883526 603.039113 462.908806 613.404172 462.923526 623.769231 462.931915" /></g></g><g class="titles"><text class="title plot_title" x="400.0" y="26">Iteration #1</text><text class="title" x="462.0" y="580.0">Observation</text><text class="title" transform="rotate(-90 64.000000 282.009619)" x="64.0" y="308.0096189432334">Density</text></g><g class="plot overlay" transform="translate(144, 46)"><g class="series serie-0 color-0" /><g class="series serie-1 color-1" /><g class="series serie-2 color-2" /><g class="series serie-3 color-3" /><g class="series serie-4 color-4" /><g class="series serie-5 color-5" /><g class="series serie-6 color-6" /><g class="series serie-7 color-7" /><g class="series serie-8 color-8" /><g class="series serie-9 color-9" /><g class="series serie-10 color-10" /><g class="series serie-11 color-11" /><g class="series serie-12 color-12" /><g class="series serie-13 color-13" /></g><g class="plot text-overlay" transform="translate(144, 46)"><g class="series serie-0 color-0" /><g class="series serie-1 color-1" /><g class="series serie-2 color-2" /><g class="series serie-3 color-3" /><g class="series serie-4 color-4" /><g class="series serie-5 color-5" /><g class="series serie-6 color-6" /><g class="series serie-7 color-7" /><g class="series serie-8 color-8" /><g class="series serie-9 color-9" /><g class="series serie-10 color-10" /><g class="series serie-11 color-11" /><g class="series serie-12 color-12" /><g class="series serie-13 color-13" /></g><g class="plot tooltip-overlay" transform="translate(144, 46)"><g class="tooltip" style="opacity: 0" transform="translate(0 0)"><rect class="tooltip-box" height="0" rx="0" ry="0" width="0" /><g class="text" /></g></g><g class="legends" transform="translate(10, 56)"><g class="legend reactive activate-serie" id="activate-serie-0"><rect class="color-0 reactive" height="12" width="12" x="0.0" y="0.0" /><text x="17.0" y="9.0">Data</text></g><g class="legend reactive activate-serie" id="activate-serie-1"><rect class="color-1 reactive" height="12" width="12" x="0.0" y="18.0" /><text x="17.0" y="27.0">GMM</text></g><g class="legend reactive activate-serie" id="activate-serie-2"><rect class="color-2 reactive" height="12" width="12" x="0.0" y="36.0" /><text x="17.0" y="45.0">i=0</text></g><g class="legend reactive activate-serie" id="activate-serie-3"><rect class="color-3 reactive" height="12" width="12" x="0.0" y="54.0" /><text x="17.0" y="63.0">i=1</text></g><g class="legend reactive activate-serie" id="activate-serie-4"><rect class="color-4 reactive" height="12" width="12" x="0.0" y="72.0" /><text x="17.0" y="81.0">i=0 k=0</text></g><g class="legend reactive activate-serie" id="activate-serie-5"><rect class="color-5 reactive" height="12" width="12" x="0.0" y="90.0" /><text x="17.0" y="99.0">i=0 k=1</text></g><g class="legend reactive activate-serie" id="activate-serie-6"><rect class="color-6 reactive" height="12" width="12" x="0.0" y="108.0" /><text x="17.0" y="117.0">i=0 k=2</text></g><g class="legend reactive activate-serie" id="activate-serie-7"><rect class="color-7 reactive" height="12" width="12" x="0.0" y="126.0" /><text x="17.0" y="135.0">i=0 k=3</text></g><g class="legend reactive activate-serie" id="activate-serie-8"><rect class="color-8 reactive" height="12" width="12" x="0.0" y="144.0" /><text x="17.0" y="153.0">i=0 k=4</text></g><g class="legend reactive activate-serie" id="activate-serie-9"><rect class="color-9 reactive" height="12" width="12" x="0.0" y="162.0" /><text x="17.0" y="171.0">i=1 k=0</text></g><g class="legend reactive activate-serie" id="activate-serie-10"><rect class="color-10 reactive" height="12" width="12" x="0.0" y="180.0" /><text x="17.0" y="189.0">i=1 k=1</text></g><g class="legend reactive activate-serie" id="activate-serie-11"><rect class="color-11 reactive" height="12" width="12" x="0.0" y="198.0" /><text x="17.0" y="207.0">i=1 k=2</text></g><g class="legend reactive activate-serie" id="activate-serie-12"><rect class="color-12 reactive" height="12" width="12" x="0.0" y="216.0" /><text x="17.0" y="225.0">i=1 k=3</text></g><g class="legend reactive activate-serie" id="activate-serie-13"><rect class="color-13 reactive" height="12" width="12" x="0.0" y="234.0" /><text x="17.0" y="243.0">i=1 k=4</text></g></g><g class="legends" transform="translate(790, 56)" /></g></svg>