<?xml version='1.0' encoding='utf-8'?>
<svg xmlns:xlink="http://www.w3.org/1999/xlink" class="pygal-chart" id="chart-71b5c35b-a7c1-4a97-8a7a-098b0261bfd6" viewBox="0 0 800 600" xmlns="http://www.w3.org/2000/svg"><!--Generated with pygal 2.4.0 (etree) ©Kozea 2012-2016 on 2018-04-14--><!--http://pygal.org--><!--http://github.com/Kozea/pygal--><defs><style type="text/css">#chart-71b5c35b-a7c1-4a97-8a7a-098b0261bfd6{-webkit-user-select:none;-webkit-font-smoothing:antialiased;font-family:Consolas,"Liberation Mono",Menlo,Courier,monospace}#chart-71b5c35b-a7c1-4a97-8a7a-098b0261bfd6 .title{font-family:Consolas,"Liberation Mono",Menlo,Courier,monospace;font-size:16px}#chart-71b5c35b-a7c1-4a97-8a7a-098b0261bfd6 .legends .legend text{font-family:Consolas,"Liberation Mono",Menlo,Courier,monospace;font-size:10px}#chart-71b5c35b-a7c1-4a97-8a7a-098b0261bfd6 .axis text{font-family:Consolas,"Liberation Mono",Menlo,Courier,monospace;font-size:10px}#chart-71b5c35b-a7c1-4a97-8a7a-098b0261bfd6 .axis text.major{font-family:Consolas,"Liberation Mono",Menlo,Courier,monospace;font-size:10px}#chart-71b5c35b-a7c1-4a97-8a7a-098b0261bfd6 .text-overlay text.value{font-family:Consolas,"Liberation Mono",Menlo,Courier,monospace;font-size:16px}#chart-71b5c35b-a7c1-4a97-8a7a-098b0261bfd6 .text-overlay text.label{font-family:Consolas,"Liberation Mono",Menlo,Courier,monospace;font-size:10px}#chart-71b5c35b-a7c1-4a97-8a7a-098b0261bfd6 .tooltip{font-family:Consolas,"Liberation Mono",Menlo,Courier,monospace;font-size:14px}#chart-71b5c35b-a7c1-4a97-8a7a-098b0261bfd6 text.no_data{font-family:Consolas,"Liberation Mono",Menlo,Courier,monospace;font-size:64px}
#chart-71b5c35b-a7c1-4a97-8a7a-098b0261bfd6{background-color:rgba(249,249,249,1)}#chart-71b5c35b-a7c1-4a97-8a7a-098b0261bfd6 path,#chart-71b5c35b-a7c1-4a97-8a7a-098b0261bfd6 line,#chart-71b5c35b-a7c1-4a97-8a7a-098b0261bfd6 rect,#chart-71b5c35b-a7c1-4a97-8a7a-098b0261bfd6 circle{-webkit-transition:150ms;-moz-transition:150ms;transition:150ms}#chart-71b5c35b-a7c1-4a97-8a7a-098b0261bfd6 .graph &gt; .background{fill:rgba(249,249,249,1)}#chart-71b5c35b-a7c1-4a97-8a7a-098b0261bfd6 .plot &gt; .background{fill:rgba(255,255,255,1)}#chart-71b5c35b-a7c1-4a97-8a7a-098b0261bfd6 .graph{fill:rgba(0,0,0,.87)}#chart-71b5c35b-a7c1-4a97-8a7a-098b0261bfd6 text.no_data{fill:rgba(0,0,0,1)}#chart-71b5c35b-a7c1-4a97-8a7a-098b0261bfd6 .title{fill:rgba(0,0,0,1)}#chart-71b5c35b-a7c1-4a97-8a7a-098b0261bfd6 .legends .legend text{fill:rgba(0,0,0,.87)}#chart-71b5c35b-a7c1-4a97-8a7a-098b0261bfd6 .legends .legend:hover text{fill:rgba(0,0,0,1)}#chart-71b5c35b-a7c1-4a97-8a7a-098b0261bfd6 .axis .line{stroke:rgba(0,0,0,1)}#chart-71b5c35b-a7c1-4a97-8a7a-098b0261bfd6 .axis .guide.line{stroke:rgba(0,0,0,.54)}#chart-71b5c35b-a7c1-4a97-8a7a-098b0261bfd6 .axis .major.line{stroke:rgba(0,0,0,.87)}#chart-71b5c35b-a7c1-4a97-8a7a-098b0261bfd6 .axis text.major{fill:rgba(0,0,0,1)}#chart-71b5c35b-a7c1-4a97-8a7a-098b0261bfd6 .axis.y .guides:hover .guide.line,#chart-71b5c35b-a7c1-4a97-8a7a-098b0261bfd6 .line-graph .axis.x .guides:hover .guide.line,#chart-71b5c35b-a7c1-4a97-8a7a-098b0261bfd6 .stackedline-graph .axis.x .guides:hover .guide.line,#chart-71b5c35b-a7c1-4a97-8a7a-098b0261bfd6 .xy-graph .axis.x .guides:hover .guide.line{stroke:rgba(0,0,0,1)}#chart-71b5c35b-a7c1-4a97-8a7a-098b0261bfd6 .axis .guides:hover text{fill:rgba(0,0,0,1)}#chart-71b5c35b-a7c1-4a97-8a7a-098b0261bfd6 .reactive{fill-opacity:.7;stroke-opacity:.8}#chart-71b5c35b-a7c1-4a97-8a7a-098b0261bfd6 .ci{stroke:rgba(0,0,0,.87)}#chart-71b5c35b-a7c1-4a97-8a7a-098b0261bfd6 .reactive.active,#chart-71b5c35b-a7c1-4a97-8a7a-098b0261bfd6 .active .reactive{fill-opacity:.8;stroke-opacity:.9;stroke-width:4}#chart-71b5c35b-a7c1-4a97-8a7a-098b0261bfd6 .ci .reactive.active{stroke-width:1.5}#chart-71b5c35b-a7c1-4a97-8a7a-098b0261bfd6 .series text{fill:rgba(0,0,0,1)}#chart-71b5c35b-a7c1-4a97-8a7a-098b0261bfd6 .tooltip rect{fill:rgba(255,255,255,1);stroke:rgba(0,0,0,1);-webkit-transition:opacity 150ms;-moz-transition:opacity 150ms;transition:opacity 150ms}#chart-71b5c35b-a7c1-4a97-8a7a-098b0261bfd6 .tooltip .label{fill:rgba(0,0,0,.87)}#chart-71b5c35b-a7c1-4a97-8a7a-098b0261bfd6 .tooltip .label{fill:rgba(0,0,0,.87)}#chart-71b5c35b-a7c1-4a97-8a7a-098b0261bfd6 .tooltip .legend{font-size:.8em;fill:rgba(0,0,0,.54)}#chart-71b5c35b-a7c1-4a97-8a7a-098b0261bfd6 .tooltip .x_label{font-size:.6em;fill:rgba(0,0,0,1)}#chart-71b5c35b-a7c1-4a97-8a7a-098b0261bfd6 .tooltip .xlink{font-size:.5em;text-decoration:underline}#chart-71b5c35b-a7c1-4a97-8a7a-098b0261bfd6 .tooltip .value{font-size:1.5em}#chart-71b5c35b-a7c1-4a97-8a7a-098b0261bfd6 .bound{font-size:.5em}#chart-71b5c35b-a7c1-4a97-8a7a-098b0261bfd6 .max-value{font-size:.75em;fill:rgba(0,0,0,.54)}#chart-71b5c35b-a7c1-4a97-8a7a-098b0261bfd6 .map-element{fill:rgba(255,255,255,1);stroke:rgba(0,0,0,.54) !important}#chart-71b5c35b-a7c1-4a97-8a7a-098b0261bfd6 .map-element .reactive{fill-opacity:inherit;stroke-opacity:inherit}#chart-71b5c35b-a7c1-4a97-8a7a-098b0261bfd6 .color-0,#chart-71b5c35b-a7c1-4a97-8a7a-098b0261bfd6 .color-0 a:visited{stroke:#909090;fill:#909090}#chart-71b5c35b-a7c1-4a97-8a7a-098b0261bfd6 .color-1,#chart-71b5c35b-a7c1-4a97-8a7a-098b0261bfd6 .color-1 a:visited{stroke:#000000;fill:#000000}#chart-71b5c35b-a7c1-4a97-8a7a-098b0261bfd6 .color-2,#chart-71b5c35b-a7c1-4a97-8a7a-098b0261bfd6 .color-2 a:visited{stroke:#ff0500;fill:#ff0500}#chart-71b5c35b-a7c1-4a97-8a7a-098b0261bfd6 .color-3,#chart-71b5c35b-a7c1-4a97-8a7a-098b0261bfd6 .color-3 a:visited{stroke:#323299;fill:#323299}#chart-71b5c35b-a7c1-4a97-8a7a-098b0261bfd6 .color-4,#chart-71b5c35b-a7c1-4a97-8a7a-098b0261bfd6 .color-4 a:visited{stroke:#a3413f;fill:#a3413f}#chart-71b5c35b-a7c1-4a97-8a7a-098b0261bfd6 .color-5,#chart-71b5c35b-a7c1-4a97-8a7a-098b0261bfd6 .color-5 a:visited{stroke:#a3413f;fill:#a3413f}#chart-71b5c35b-a7c1-4a97-8a7a-098b0261bfd6 .color-6,#chart-71b5c35b-a7c1-4a97-8a7a-098b0261bfd6 .color-6 a:visited{stroke:#657fff;fill:#657fff}#chart-71b5c35b-a7c1-4a97-8a7a-098b0261bfd6 .color-7,#chart-71b5c35b-a7c1-4a97-8a7a-098b0261bfd6 .color-7 a:visited{stroke:#657fff;fill:#657fff}#chart-71b5c35b-a7c1-4a97-8a7a-098b0261bfd6 .text-overlay .color-0 text{fill:black}#chart-71b5c35b-a7c1-4a97-8a7a-098b0261bfd6 .text-overlay .color-1 text{fill:white}#chart-71b5c35b-a7c1-4a97-8a7a-098b0261bfd6 .text-overlay .color-2 text{fill:black}#chart-71b5c35b-a7c1-4a97-8a7a-098b0261bfd6 .text-overlay .color-3 text{fill:black}#chart-71b5c35b-a7c1-4a97-8a7a-098b0261bfd6 .text-overlay .color-4 text{fill:black}#chart-71b5c35b-a7c1-4a97-8a7a-098b0261bfd6 .text-overlay .color-5 text{fill:black}#chart-71b5c35b-a7c1-4a97-8a7a-098b0261bfd6 .text-overlay .color-6 text{fill:black}#chart-71b5c35b-a7c1-4a97-8a7a-098b0261bfd6 .text-overlay .color-7 text{fill:black}#chart-71b5c35b-a7c1-4a97-8a7a-098b0261bfd6 .series.serie-1{stroke-width:5}#chart-71b5c35b-a7c1-4a97-8a7a-098b0261bfd6 .series.serie-2{stroke-width:3}#chart-71b5c35b-a7c1-4a97-8a7a-098b0261bfd6 .series.serie-3{stroke-width:3}#chart-71b5c35b-a7c1-4a97-8a7a-098b0261bfd6 .series.serie-4{stroke-width:2;stroke-dasharray:2,2}#chart-71b5c35b-a7c1-4a97-8a7a-098b0261bfd6 .series.serie-5{stroke-width:2;stroke-dasharray:2,2}#chart-71b5c35b-a7c1-4a97-8a7a-098b0261bfd6 .series.serie-6{stroke-width:2;stroke-dasharray:2,2}#chart-71b5c35b-a7c1-4a97-8a7a-098b0261bfd6 .series.serie-7{stroke-width:2;stroke-dasharray:2,2}
#chart-71b5c35b-a7c1-4a97-8a7a-098b0261bfd6 text.no_data{text-anchor:middle}#chart-71b5c35b-a7c1-4a97-8a7a-098b0261bfd6 .guide.line{fill:none}#chart-71b5c35b-a7c1-4a97-8a7a-098b0261bfd6 .centered{text-anchor:middle}#chart-71b5c35b-a7c1-4a97-8a7a-098b0261bfd6 .title{text-anchor:middle}#chart-71b5c35b-a7c1-4a97-8a7a-098b0261bfd6 .legends .legend text{fill-opacity:1}#chart-71b5c35b-a7c1-4a97-8a7a-098b0261bfd6 .axis.x text{text-anchor:middle}#chart-71b5c35b-a7c1-4a97-8a7a-098b0261bfd6 .axis.x:not(.web) text[transform]{text-anchor:start}#chart-71b5c35b-a7c1-4a97-8a7a-098b0261bfd6 .axis.x:not(.web) text[transform].backwards{text-anchor:end}#chart-71b5c35b-a7c1-4a97-8a7a-098b0261bfd6 .axis.y text{text-anchor:end}#chart-71b5c35b-a7c1-4a97-8a7a-098b0261bfd6 .axis.y text[transform].backwards{text-anchor:start}#chart-71b5c35b-a7c1-4a97-8a7a-098b0261bfd6 .axis.y2 text{text-anchor:start}#chart-71b5c35b-a7c1-4a97-8a7a-098b0261bfd6 .axis.y2 text[transform].backwards{text-anchor:end}#chart-71b5c35b-a7c1-4a97-8a7a-098b0261bfd6 .axis .guide.line{stroke-dasharray:4,4}#chart-71b5c35b-a7c1-4a97-8a7a-098b0261bfd6 .axis .major.guide.line{stroke-dasharray:6,6}#chart-71b5c35b-a7c1-4a97-8a7a-098b0261bfd6 .horizontal .axis.y .guide.line,#chart-71b5c35b-a7c1-4a97-8a7a-098b0261bfd6 .horizontal .axis.y2 .guide.line,#chart-71b5c35b-a7c1-4a97-8a7a-098b0261bfd6 .vertical .axis.x .guide.line{opacity:0}#chart-71b5c35b-a7c1-4a97-8a7a-098b0261bfd6 .horizontal .axis.always_show .guide.line,#chart-71b5c35b-a7c1-4a97-8a7a-098b0261bfd6 .vertical .axis.always_show .guide.line{opacity:1 !important}#chart-71b5c35b-a7c1-4a97-8a7a-098b0261bfd6 .axis.y .guides:hover .guide.line,#chart-71b5c35b-a7c1-4a97-8a7a-098b0261bfd6 .axis.y2 .guides:hover .guide.line,#chart-71b5c35b-a7c1-4a97-8a7a-098b0261bfd6 .axis.x .guides:hover .guide.line{opacity:1}#chart-71b5c35b-a7c1-4a97-8a7a-098b0261bfd6 .axis .guides:hover text{opacity:1}#chart-71b5c35b-a7c1-4a97-8a7a-098b0261bfd6 .nofill{fill:none}#chart-71b5c35b-a7c1-4a97-8a7a-098b0261bfd6 .subtle-fill{fill-opacity:.2}#chart-71b5c35b-a7c1-4a97-8a7a-098b0261bfd6 .dot{stroke-width:1px;fill-opacity:1}#chart-71b5c35b-a7c1-4a97-8a7a-098b0261bfd6 .dot.active{stroke-width:5px}#chart-71b5c35b-a7c1-4a97-8a7a-098b0261bfd6 .dot.negative{fill:transparent}#chart-71b5c35b-a7c1-4a97-8a7a-098b0261bfd6 text,#chart-71b5c35b-a7c1-4a97-8a7a-098b0261bfd6 tspan{stroke:none !important}#chart-71b5c35b-a7c1-4a97-8a7a-098b0261bfd6 .series text.active{opacity:1}#chart-71b5c35b-a7c1-4a97-8a7a-098b0261bfd6 .tooltip rect{fill-opacity:.95;stroke-width:.5}#chart-71b5c35b-a7c1-4a97-8a7a-098b0261bfd6 .tooltip text{fill-opacity:1}#chart-71b5c35b-a7c1-4a97-8a7a-098b0261bfd6 .showable{visibility:hidden}#chart-71b5c35b-a7c1-4a97-8a7a-098b0261bfd6 .showable.shown{visibility:visible}#chart-71b5c35b-a7c1-4a97-8a7a-098b0261bfd6 .gauge-background{fill:rgba(229,229,229,1);stroke:none}#chart-71b5c35b-a7c1-4a97-8a7a-098b0261bfd6 .bg-lines{stroke:rgba(249,249,249,1);stroke-width:2px}</style><script type="text/javascript">window.pygal = window.pygal || {};window.pygal.config = window.pygal.config || {};window.pygal.config['71b5c35b-a7c1-4a97-8a7a-098b0261bfd6'] = {"height": 600, "stack_from_top": false, "strict": false, "y_labels_major_every": null, "secondary_range": null, "show_dots": false, "force_uri_protocol": "https", "margin_right": null, "print_labels": false, "spacing": 10, "title": "Iteration #8", "interpolation_precision": 250, "dynamic_print_values": false, "show_y_guides": true, "x_labels_major_count": null, "stroke_style": null, "include_x_axis": false, "width": 800, "css": ["file://style.css", "file://graph.css"], "truncate_label": null, "print_zeroes": true, "no_data_text": "No data", "x_title": "Observation", "tooltip_fancy_mode": true, "xrange": null, "show_legend": true, "show_minor_x_labels": false, "range": [0, 0.27578580090479526], "show_y_labels": true, "legends": ["Data", "GMM", "i=0", "i=1", "i=0 k=0", "i=0 k=1", "i=1 k=0", "i=1 k=1"], "truncate_legend": null, "half_pie": false, "x_labels": ["-8.96", "-8.76", "-8.56", "-8.36", "-8.16", "-7.96", "-7.76", "-7.56", "-7.36", "-7.16", "-6.96", "-6.76", "-6.56", "-6.36", "-6.16", "-5.96", "-5.76", "-5.56", "-5.36", "-5.16", "-4.96", "-4.76", "-4.56", "-4.36", "-4.16", "-3.96", "-3.76", "-3.56", "-3.36", "-3.16", "-2.96", "-2.76", "-2.56", "-2.36", "-2.16", "-1.96", "-1.76", "-1.56", "-1.36", "-1.16", "-0.96", "-0.76", "-0.56", "-0.36", "-0.16", "0.04", "0.24", "0.44", "0.64", "0.84", "1.04", "1.24", "1.43", "1.63", "1.83", "2.03", "2.23", "2.43", "2.63", "2.83"], "classes": ["pygal-chart"], "legend_box_size": 12, "rounded_bars": null, "print_values_position": "center", "x_label_rotation": 60, "y_labels_major": null, "fill": false, "legend_at_bottom_columns": null, "margin": 20, "js": ["//kozea.github.io/pygal.js/2.0.x/pygal-tooltips.min.js"], "explicit_size": false, "tooltip_border_radius": 0, "margin_top": null, "interpolate": null, "stroke": true, "defs": [], "show_minor_y_labels": true, "y_labels": null, "y_label_rotation": 0, "margin_left": null, "show_only_major_dots": false, "x_labels_major_every": 2, "y_title": "Density", "legend_at_bottom": false, "style": {"opacity_hover": ".8", "foreground": "rgba(0, 0, 0, .87)", "value_label_font_size": 10, "foreground_strong": "rgba(0, 0, 0, 1)", "background": "rgba(249, 249, 249, 1)", "no_data_font_size": 64, "tooltip_font_size": 14, "foreground_subtle": "rgba(0, 0, 0, .54)", "value_colors": [], "title_font_size": 16, "major_label_font_family": "Consolas, \"Liberation Mono\", Menlo, Courier, monospace", "opacity": ".7", "value_font_family": "Consolas, \"Liberation Mono\", Menlo, Courier, monospace", "label_font_family": "Consolas, \"Liberation Mono\", Menlo, Courier, monospace", "colors": ["#909090", "#000000", "#ff0500", "#323299", "#a3413f", "#a3413f", "#657fff", "#657fff"], "value_font_size": 16, "plot_background": "rgba(255, 255, 255, 1)", "guide_stroke_dasharray": "4,4", "no_data_font_family": "Consolas, \"Liberation Mono\", Menlo, Courier, monospace", "major_label_font_size": 10, "stroke_opacity_hover": ".9", "value_background": "rgba(229, 229, 229, 1)", "stroke_opacity": ".8", "value_label_font_family": "Consolas, \"Liberation Mono\", Menlo, Courier, monospace", "title_font_family": "Consolas, \"Liberation Mono\", Menlo, Courier, monospace", "legend_font_family": "Consolas, \"Liberation Mono\", Menlo, Courier, monospace", "legend_font_size": 10, "label_font_size": 10, "transition": "150ms", "major_guide_stroke_dasharray": "6,6", "font_family": "Consolas, \"Liberation Mono\", Menlo, Courier, monospace", "ci_colors": [], "tooltip_font_family": "Consolas, \"Liberation Mono\", Menlo, Courier, monospace"}, "max_scale": 16, "missing_value_fill_truncation": "x", "interpolation_parameters": {}, "pretty_print": false, "box_mode": "extremes", "margin_bottom": null, "y_labels_major_count": null, "formatter": null, "disable_xml_declaration": false, "dots_size": 2.5, "inner_radius": 0, "min_scale": 4, "no_prefix": false, "logarithmic": false, "show_x_labels": true, "order_min": null, "inverse_y_axis": false, "zero": 0, "show_x_guides": false, "print_values": false, "x_labels_major": null, "allow_interruptions": false}</script><script type="text/javascript" xlink:href="https://kozea.github.io/pygal.js/2.0.x/pygal-tooltips.min.js" /></defs><title>Iteration #8</title><g class="graph line-graph vertical"><rect class="background" height="600" width="800" x="0" y="0" /><g class="plot" transform="translate(144, 46)"><rect class="background" height="472.01923788646684" width="636.0" x="0" y="0" /><g class="axis y always_show"><g class="guides"><path class="axis major line" d="M0.000000 462.941945 h636.000000" /><text class="major" x="-5" y="466.44194485018863">0</text><title>0</title></g><g class="guides"><path class="guide line" d="M0.000000 430.027658 h636.000000" /><text class="" x="-5" y="433.52765772410197">0.02</text><title>0.02</title></g><g class="guides"><path class="guide line" d="M0.000000 397.113371 h636.000000" /><text class="" x="-5" y="400.61337059801525">0.04</text><title>0.04</title></g><g class="guides"><path class="guide line" d="M0.000000 364.199083 h636.000000" /><text class="" x="-5" y="367.6990834719286">0.06</text><title>0.06</title></g><g class="guides"><path class="guide line" d="M0.000000 331.284796 h636.000000" /><text class="" x="-5" y="334.78479634584187">0.08</text><title>0.08</title></g><g class="guides"><path class="guide line" d="M0.000000 298.370509 h636.000000" /><text class="" x="-5" y="301.8705092197552">0.1</text><title>0.1</title></g><g class="guides"><path class="guide line" d="M0.000000 265.456222 h636.000000" /><text class="" x="-5" y="268.95622209366854">0.12</text><title>0.12</title></g><g class="guides"><path class="guide line" d="M0.000000 232.541935 h636.000000" /><text class="" x="-5" y="236.04193496758182">0.14</text><title>0.14</title></g><g class="guides"><path class="guide line" d="M0.000000 199.627648 h636.000000" /><text class="" x="-5" y="203.12764784149516">0.16</text><title>0.16</title></g><g class="guides"><path class="guide line" d="M0.000000 166.713361 h636.000000" /><text class="" x="-5" y="170.2133607154085">0.18</text><title>0.18</title></g><g class="guides"><path class="guide line" d="M0.000000 133.799074 h636.000000" /><text class="" x="-5" y="137.29907358932178">0.2</text><title>0.2</title></g><g class="guides"><path class="guide line" d="M0.000000 100.884786 h636.000000" /><text class="" x="-5" y="104.38478646323512">0.22</text><title>0.22</title></g><g class="guides"><path class="guide line" d="M0.000000 67.970499 h636.000000" /><text class="" x="-5" y="71.4704993371484">0.24</text><title>0.24</title></g><g class="guides"><path class="guide line" d="M0.000000 35.056212 h636.000000" /><text class="" x="-5" y="38.556212211061734">0.26</text><title>0.26</title></g></g><g class="axis x"><g class="guides"><path class="major line" d="M12.230769 0.000000 v472.019238" /><text class="major" transform="rotate(60 12.230769 487.019238)" x="12.230769230769232" y="487.01923788646684">-8.96</text></g><g class="guides"><path class="major guide line" d="M32.960887 0.000000 v472.019238" /><text class="major" transform="rotate(60 32.960887 487.019238)" x="32.96088657105606" y="487.01923788646684">-8.56</text></g><g class="guides"><path class="major guide line" d="M53.691004 0.000000 v472.019238" /><text class="major" transform="rotate(60 53.691004 487.019238)" x="53.6910039113429" y="487.01923788646684">-8.16</text></g><g class="guides"><path class="major guide line" d="M74.421121 0.000000 v472.019238" /><text class="major" transform="rotate(60 74.421121 487.019238)" x="74.42112125162973" y="487.01923788646684">-7.76</text></g><g class="guides"><path class="major guide line" d="M95.151239 0.000000 v472.019238" /><text class="major" transform="rotate(60 95.151239 487.019238)" x="95.15123859191655" y="487.01923788646684">-7.36</text></g><g class="guides"><path class="major guide line" d="M115.881356 0.000000 v472.019238" /><text class="major" transform="rotate(60 115.881356 487.019238)" x="115.88135593220338" y="487.01923788646684">-6.96</text></g><g class="guides"><path class="major guide line" d="M136.611473 0.000000 v472.019238" /><text class="major" transform="rotate(60 136.611473 487.019238)" x="136.61147327249023" y="487.01923788646684">-6.56</text></g><g class="guides"><path class="major guide line" d="M157.341591 0.000000 v472.019238" /><text class="major" transform="rotate(60 157.341591 487.019238)" x="157.34159061277705" y="487.01923788646684">-6.16</text></g><g class="guides"><path class="major guide line" d="M178.071708 0.000000 v472.019238" /><text class="major" transform="rotate(60 178.071708 487.019238)" x="178.0717079530639" y="487.01923788646684">-5.76</text></g><g class="guides"><path class="major guide line" d="M198.801825 0.000000 v472.019238" /><text class="major" transform="rotate(60 198.801825 487.019238)" x="198.80182529335073" y="487.01923788646684">-5.36</text></g><g class="guides"><path class="major guide line" d="M219.531943 0.000000 v472.019238" /><text class="major" transform="rotate(60 219.531943 487.019238)" x="219.53194263363756" y="487.01923788646684">-4.96</text></g><g class="guides"><path class="major guide line" d="M240.262060 0.000000 v472.019238" /><text class="major" transform="rotate(60 240.262060 487.019238)" x="240.2620599739244" y="487.01923788646684">-4.56</text></g><g class="guides"><path class="major guide line" d="M260.992177 0.000000 v472.019238" /><text class="major" transform="rotate(60 260.992177 487.019238)" x="260.99217731421123" y="487.01923788646684">-4.16</text></g><g class="guides"><path class="major guide line" d="M281.722295 0.000000 v472.019238" /><text class="major" transform="rotate(60 281.722295 487.019238)" x="281.722294654498" y="487.01923788646684">-3.76</text></g><g class="guides"><path class="major guide line" d="M302.452412 0.000000 v472.019238" /><text class="major" transform="rotate(60 302.452412 487.019238)" x="302.4524119947849" y="487.01923788646684">-3.36</text></g><g class="guides"><path class="major guide line" d="M323.182529 0.000000 v472.019238" /><text class="major" transform="rotate(60 323.182529 487.019238)" x="323.1825293350717" y="487.01923788646684">-2.96</text></g><g class="guides"><path class="major guide line" d="M343.912647 0.000000 v472.019238" /><text class="major" transform="rotate(60 343.912647 487.019238)" x="343.91264667535853" y="487.01923788646684">-2.56</text></g><g class="guides"><path class="major guide line" d="M364.642764 0.000000 v472.019238" /><text class="major" transform="rotate(60 364.642764 487.019238)" x="364.64276401564535" y="487.01923788646684">-2.16</text></g><g class="guides"><path class="major guide line" d="M385.372881 0.000000 v472.019238" /><text class="major" transform="rotate(60 385.372881 487.019238)" x="385.37288135593224" y="487.01923788646684">-1.76</text></g><g class="guides"><path class="major guide line" d="M406.102999 0.000000 v472.019238" /><text class="major" transform="rotate(60 406.102999 487.019238)" x="406.102998696219" y="487.01923788646684">-1.36</text></g><g class="guides"><path class="major guide line" d="M426.833116 0.000000 v472.019238" /><text class="major" transform="rotate(60 426.833116 487.019238)" x="426.8331160365058" y="487.01923788646684">-0.96</text></g><g class="guides"><path class="major guide line" d="M447.563233 0.000000 v472.019238" /><text class="major" transform="rotate(60 447.563233 487.019238)" x="447.56323337679265" y="487.01923788646684">-0.56</text></g><g class="guides"><path class="major guide line" d="M468.293351 0.000000 v472.019238" /><text class="major" transform="rotate(60 468.293351 487.019238)" x="468.29335071707953" y="487.01923788646684">-0.16</text></g><g class="guides"><path class="major guide line" d="M489.023468 0.000000 v472.019238" /><text class="major" transform="rotate(60 489.023468 487.019238)" x="489.02346805736636" y="487.01923788646684">0.24</text></g><g class="guides"><path class="major guide line" d="M509.753585 0.000000 v472.019238" /><text class="major" transform="rotate(60 509.753585 487.019238)" x="509.75358539765324" y="487.01923788646684">0.64</text></g><g class="guides"><path class="major guide line" d="M530.483703 0.000000 v472.019238" /><text class="major" transform="rotate(60 530.483703 487.019238)" x="530.48370273794" y="487.01923788646684">1.04</text></g><g class="guides"><path class="major guide line" d="M551.213820 0.000000 v472.019238" /><text class="major" transform="rotate(60 551.213820 487.019238)" x="551.213820078227" y="487.01923788646684">1.43</text></g><g class="guides"><path class="major guide line" d="M571.943937 0.000000 v472.019238" /><text class="major" transform="rotate(60 571.943937 487.019238)" x="571.9439374185138" y="487.01923788646684">1.83</text></g><g class="guides"><path class="major guide line" d="M592.674055 0.000000 v472.019238" /><text class="major" transform="rotate(60 592.674055 487.019238)" x="592.6740547588006" y="487.01923788646684">2.23</text></g><g class="guides"><path class="major guide line" d="M613.404172 0.000000 v472.019238" /><text class="major" transform="rotate(60 613.404172 487.019238)" x="613.4041720990874" y="487.01923788646684">2.63</text></g></g><g class="series serie-0 color-0"><path class="line reactive" d="M12.230769 462.941945 L12.230769 462.019456 22.595828 462.941945 32.960887 461.096967 43.325945 462.019456 53.691004 459.251988 64.056063 462.019456 74.421121 458.329499 84.786180 462.019456 95.151239 458.329499 105.516297 462.019456 115.881356 448.182119 126.246415 460.174477 136.611473 457.407010 146.976532 457.407010 157.341591 451.872075 167.706649 448.182119 178.071708 454.639543 188.436767 445.414651 198.801825 442.647184 209.166884 436.189760 219.531943 437.112249 229.897001 392.832771 240.262060 396.522728 250.627119 376.227967 260.992177 355.933206 271.357236 351.320760 281.722295 325.491065 292.087353 277.521630 302.452412 283.056565 312.817471 202.800010 323.182529 188.040184 333.547588 169.590402 343.912647 123.465945 354.277705 95.791271 364.642764 67.194108 375.007823 82.876423 385.372881 60.736684 395.737940 80.108956 406.102999 29.372054 416.468057 9.077293 426.833116 70.884065 437.198175 69.039086 447.563233 41.364413 457.928292 40.441923 468.293351 91.178826 478.658409 140.993239 489.023468 214.792369 499.388527 259.071847 509.753585 321.801108 520.118644 364.235608 530.483703 408.515086 540.848761 430.654825 551.213820 448.182119 561.578879 455.562032 571.943937 458.329499 582.308996 458.329499 592.674055 462.019456 603.039113 462.941945 613.404172 462.019456 623.769231 462.941945" /></g><g class="series serie-1 color-1"><path class="line reactive nofill" d="M12.230769 462.922747 L22.595828 462.907684 32.960887 462.882012 43.325945 462.839173 53.691004 462.769193 64.056063 462.657293 74.421121 462.482171 84.786180 462.213971 95.151239 461.812079 105.516297 461.222936 115.881356 460.378231 126.246415 459.193931 136.611473 457.570721 146.976532 455.396475 157.341591 452.551317 167.706649 448.915606 178.071708 444.380752 188.436767 438.861939 198.801825 432.310507 209.166884 424.721550 219.531943 416.129202 229.897001 406.578591 240.262060 396.062042 250.627119 384.412787 260.992177 371.169108 271.357236 355.458732 281.722295 335.998028 292.087353 311.322735 302.452412 280.321765 312.817471 243.003836 323.182529 201.219616 333.547588 158.904042 343.912647 121.448211 354.277705 94.139413 364.642764 80.123746 375.007823 78.772210 385.372881 85.365153 395.737940 92.533912 406.102999 93.093729 416.468057 83.166296 426.833116 64.217728 437.198175 43.006525 447.563233 29.315831 457.928292 32.345187 468.293351 57.273885 478.658409 103.436648 489.023468 164.781748 499.388527 232.213826 509.753585 296.636578 520.118644 351.396290 530.483703 393.351203 540.848761 422.559078 551.213820 441.135931 561.578879 451.973817 571.943937 457.793097 582.308996 460.678206 592.674055 462.004047 603.039113 462.571841 613.404172 462.800369 623.769231 462.888035" /></g><g class="series serie-2 color-2"><path class="line reactive nofill" d="M12.230769 462.941945 L22.595828 462.941945 32.960887 462.941945 43.325945 462.941945 53.691004 462.941945 64.056063 462.941945 74.421121 462.941945 84.786180 462.941945 95.151239 462.941945 105.516297 462.941945 115.881356 462.941945 126.246415 462.941945 136.611473 462.941945 146.976532 462.941945 157.341591 462.941945 167.706649 462.941945 178.071708 462.941945 188.436767 462.941945 198.801825 462.941945 209.166884 462.941944 219.531943 462.941939 229.897001 462.941918 240.262060 462.941831 250.627119 462.941494 260.992177 462.940267 271.357236 462.936110 281.722295 462.922947 292.087353 462.884036 302.452412 462.776624 312.817471 462.499829 323.182529 461.834223 333.547588 460.341619 343.912647 457.223279 354.277705 451.161947 364.642764 440.220257 375.007823 421.922181 385.372881 393.667537 395.737940 353.567446 406.102999 301.604158 416.468057 240.747518 426.833116 177.443003 437.198175 120.920865 447.563233 81.179180 457.928292 66.152853 468.293351 79.141029 478.658409 117.630593 489.023468 174.088476 499.388527 238.380795 509.753585 300.747817 520.118644 354.135091 530.483703 395.162461 540.848761 423.742172 551.213820 441.896610 561.578879 452.454264 571.943937 458.090859 582.308996 460.859187 592.674055 462.111896 603.039113 462.634846 613.404172 462.836451 623.769231 462.908291" /></g><g class="series serie-3 color-3"><path class="line reactive nofill" d="M12.230769 462.922747 L22.595828 462.907684 32.960887 462.882012 43.325945 462.839173 53.691004 462.769193 64.056063 462.657293 74.421121 462.482171 84.786180 462.213971 95.151239 461.812079 105.516297 461.222936 115.881356 460.378231 126.246415 459.193931 136.611473 457.570721 146.976532 455.396475 157.341591 452.551317 167.706649 448.915606 178.071708 444.380752 188.436767 438.861939 198.801825 432.310508 209.166884 424.721551 219.531943 416.129208 229.897001 406.578618 240.262060 396.062156 250.627119 384.413239 260.992177 371.170786 271.357236 355.464567 281.722295 336.017025 292.087353 311.380644 302.452412 280.487086 312.817471 243.445952 323.182529 202.327337 333.547588 161.504368 343.912647 127.166877 354.277705 105.919411 364.642764 102.845434 375.007823 119.791974 385.372881 154.639561 395.737940 201.908411 406.102999 254.431516 416.468057 305.360723 426.833116 349.716670 437.198175 385.027605 447.563233 411.078595 457.928292 429.134278 468.293351 441.074801 478.658409 448.748000 489.023468 453.635216 499.388527 456.774976 509.753585 458.830706 520.118644 460.203144 530.483703 461.130687 540.848761 461.758850 551.213820 462.181266 561.578879 462.461498 571.943937 462.644183 582.308996 462.760964 592.674055 462.834095 603.039113 462.878939 613.404172 462.905863 623.769231 462.921689" /></g><g class="series serie-4 color-4"><path class="line reactive nofill" d="M12.230769 462.941945 L22.595828 462.941945 32.960887 462.941945 43.325945 462.941945 53.691004 462.941945 64.056063 462.941945 74.421121 462.941945 84.786180 462.941945 95.151239 462.941945 105.516297 462.941945 115.881356 462.941945 126.246415 462.941945 136.611473 462.941945 146.976532 462.941945 157.341591 462.941945 167.706649 462.941945 178.071708 462.941945 188.436767 462.941945 198.801825 462.941945 209.166884 462.941944 219.531943 462.941939 229.897001 462.941919 240.262060 462.941835 250.627119 462.941513 260.992177 462.940358 271.357236 462.936503 281.722295 462.924531 292.087353 462.889938 302.452412 462.796985 312.817471 462.564851 323.182529 462.026418 333.547588 460.867448 343.912647 458.554877 354.277705 454.283185 364.642764 446.992088 375.007823 435.521300 385.372881 418.945429 395.737940 397.058139 406.102999 370.863316 416.468057 342.837584 426.833116 316.731473 437.198175 296.823466 447.563233 286.794162 457.928292 288.618344 468.293351 301.931163 478.658409 324.147047 489.023468 351.278297 499.388527 379.098350 509.753585 404.186552 520.118644 424.514160 530.483703 439.485471 540.848761 449.579071 551.213820 455.837064 561.578879 459.416341 571.943937 461.309156 582.308996 462.236203 592.674055 462.657248 603.039113 462.834759 613.404172 462.904282 623.769231 462.929594" /></g><g class="series serie-5 color-5"><path class="line reactive nofill" d="M12.230769 462.941945 L22.595828 462.941945 32.960887 462.941945 43.325945 462.941945 53.691004 462.941945 64.056063 462.941945 74.421121 462.941945 84.786180 462.941945 95.151239 462.941945 105.516297 462.941945 115.881356 462.941945 126.246415 462.941945 136.611473 462.941945 146.976532 462.941945 157.341591 462.941945 167.706649 462.941945 178.071708 462.941945 188.436767 462.941945 198.801825 462.941945 209.166884 462.941945 219.531943 462.941945 229.897001 462.941944 240.262060 462.941941 250.627119 462.941926 260.992177 462.941854 271.357236 462.941552 281.722295 462.940361 292.087353 462.936043 302.452412 462.921583 312.817471 462.876922 323.182529 462.749750 333.547588 462.416116 343.912647 461.610347 354.277705 459.820707 364.642764 456.170114 375.007823 449.342826 385.372881 437.664053 395.737940 419.451252 406.102999 393.682788 416.468057 360.851879 426.833116 323.653474 437.198175 287.039344 447.563233 257.326963 457.928292 240.476454 468.293351 240.151811 478.658409 256.425491 489.023468 285.752124 499.388527 322.224389 509.753585 359.503210 520.118644 392.562875 530.483703 418.618935 540.848761 437.105047 551.213820 449.001491 561.578879 455.979868 571.943937 459.723647 582.308996 461.564929 592.674055 462.396593 603.039113 462.742032 613.404172 462.874114 623.769231 462.920642" /></g><g class="series serie-6 color-6"><path class="line reactive nofill" d="M12.230769 462.922747 L22.595828 462.907684 32.960887 462.882012 43.325945 462.839173 53.691004 462.769193 64.056063 462.657293 74.421121 462.482171 84.786180 462.213971 95.151239 461.812079 105.516297 461.222936 115.881356 460.378232 126.246415 459.193932 136.611473 457.570727 146.976532 455.396502 157.341591 452.551437 167.706649 448.916100 178.071708 444.382652 188.436767 438.868735 198.801825 432.333116 209.166884 424.791500 219.531943 416.330491 229.897001 407.117315 240.262060 397.403034 250.627119 387.517391 260.992177 377.854312 271.357236 368.848300 281.722295 360.943322 292.087353 354.557120 302.452412 350.044837 312.817471 347.666365 323.182529 347.561563 333.547588 349.736636 343.912647 354.063534 354.277705 360.292426 364.642764 368.075589 375.007823 376.999504 385.372881 386.621075 395.737940 396.503555 406.102999 406.248213 416.468057 415.518712 426.833116 424.056468 437.198175 431.686631 447.563233 438.315572 457.928292 443.921651 468.293351 448.541559 478.658409 452.254566 489.023468 455.166801 499.388527 457.397145 509.753585 459.065770 520.118644 460.285743 530.483703 461.157681 540.848761 461.767055 551.213820 462.183585 561.578879 462.462108 571.943937 462.644332 582.308996 462.760998 592.674055 462.834102 603.039113 462.878941 613.404172 462.905863 623.769231 462.921689" /></g><g class="series serie-7 color-7"><path class="line reactive nofill" d="M12.230769 462.941945 L22.595828 462.941945 32.960887 462.941945 43.325945 462.941945 53.691004 462.941945 64.056063 462.941945 74.421121 462.941945 84.786180 462.941945 95.151239 462.941945 105.516297 462.941945 115.881356 462.941945 126.246415 462.941944 136.611473 462.941939 146.976532 462.941918 157.341591 462.941825 167.706649 462.941451 178.071708 462.940045 188.436767 462.935149 198.801825 462.919337 209.166884 462.871996 219.531943 462.740661 229.897001 462.403248 240.262060 461.601067 250.627119 459.837793 260.992177 456.258418 271.357236 449.558212 281.722295 438.015648 292.087353 419.765470 302.452412 393.384194 312.817471 358.721532 323.182529 317.707719 333.547588 274.709677 343.912647 236.045288 354.277705 208.568930 364.642764 197.711790 375.007823 205.734415 385.372881 230.960431 395.737940 268.346801 406.102999 311.125248 416.468057 352.783957 426.833116 388.602147 437.198175 416.282918 447.563233 435.704969 457.928292 448.154572 468.293351 455.475187 478.658409 459.435379 489.023468 461.410360 499.388527 462.319775 509.753585 462.706881 520.118644 462.859347 530.483703 462.914951 540.848761 462.933740 551.213820 462.939625 561.578879 462.941335 571.943937 462.941796 582.308996 462.941911 592.674055 462.941938 603.039113 462.941943 613.404172 462.941945 623.769231 462.941945" /></g></g><g class="titles"><text class="title plot_title" x="400.0" y="26">Iteration #8</text><text class="title" x="462.0" y="580.0">Observation</text><text class="title" transform="rotate(-90 64.000000 282.009619)" x="64.0" y="308.0096189432334">Density</text></g><g class="plot overlay" transform="translate(144, 46)"><g class="series serie-0 color-0" /><g class="series serie-1 color-1" /><g class="series serie-2 color-2" /><g class="series serie-3 color-3" /><g class="series serie-4 color-4" /><g class="series serie-5 color-5" /><g class="series serie-6 color-6" /><g class="series serie-7 color-7" /></g><g class="plot text-overlay" transform="translate(144, 46)"><g class="series serie-0 color-0" /><g class="series serie-1 color-1" /><g class="series serie-2 color-2" /><g class="series serie-3 color-3" /><g class="series serie-4 color-4" /><g class="series serie-5 color-5" /><g class="series serie-6 color-6" /><g class="series serie-7 color-7" /></g><g class="plot tooltip-overlay" transform="translate(144, 46)"><g class="tooltip" style="opacity: 0" transform="translate(0 0)"><rect class="tooltip-box" height="0" rx="0" ry="0" width="0" /><g class="text" /></g></g><g class="legends" transform="translate(10, 56)"><g class="legend reactive activate-serie" id="activate-serie-0"><rect class="color-0 reactive" height="12" width="12" x="0.0" y="0.0" /><text x="17.0" y="9.0">Data</text></g><g class="legend reactive activate-serie" id="activate-serie-1"><rect class="color-1 reactive" height="12" width="12" x="0.0" y="18.0" /><text x="17.0" y="27.0">GMM</text></g><g class="legend reactive activate-serie" id="activate-serie-2"><rect class="color-2 reactive" height="12" width="12" x="0.0" y="36.0" /><text x="17.0" y="45.0">i=0</text></g><g class="legend reactive activate-serie" id="activate-serie-3"><rect class="color-3 reactive" height="12" width="12" x="0.0" y="54.0" /><text x="17.0" y="63.0">i=1</text></g><g class="legend reactive activate-serie" id="activate-serie-4"><rect class="color-4 reactive" height="12" width="12" x="0.0" y="72.0" /><text x="17.0" y="81.0">i=0 k=0</text></g><g class="legend reactive activate-serie" id="activate-serie-5"><rect class="color-5 reactive" height="12" width="12" x="0.0" y="90.0" /><text x="17.0" y="99.0">i=0 k=1</text></g><g class="legend reactive activate-serie" id="activate-serie-6"><rect class="color-6 reactive" height="12" width="12" x="0.0" y="108.0" /><text x="17.0" y="117.0">i=1 k=0</text></g><g class="legend reactive activate-serie" id="activate-serie-7"><rect class="color-7 reactive" height="12" width="12" x="0.0" y="126.0" /><text x="17.0" y="135.0">i=1 k=1</text></g></g><g class="legends" transform="translate(790, 56)" /></g></svg>