<?xml version='1.0' encoding='utf-8'?>
<svg xmlns:xlink="http://www.w3.org/1999/xlink" class="pygal-chart" id="chart-e499c2b5-7b08-4349-925b-852d7234b905" viewBox="0 0 800 600" xmlns="http://www.w3.org/2000/svg"><!--Generated with pygal 2.4.0 (etree) ©Kozea 2012-2016 on 2018-01-18--><!--http://pygal.org--><!--http://github.com/Kozea/pygal--><defs><style type="text/css">#chart-e499c2b5-7b08-4349-925b-852d7234b905{-webkit-user-select:none;-webkit-font-smoothing:antialiased;font-family:Consolas,"Liberation Mono",Menlo,Courier,monospace}#chart-e499c2b5-7b08-4349-925b-852d7234b905 .title{font-family:Consolas,"Liberation Mono",Menlo,Courier,monospace;font-size:16px}#chart-e499c2b5-7b08-4349-925b-852d7234b905 .legends .legend text{font-family:Consolas,"Liberation Mono",Menlo,Courier,monospace;font-size:10px}#chart-e499c2b5-7b08-4349-925b-852d7234b905 .axis text{font-family:Consolas,"Liberation Mono",Menlo,Courier,monospace;font-size:10px}#chart-e499c2b5-7b08-4349-925b-852d7234b905 .axis text.major{font-family:Consolas,"Liberation Mono",Menlo,Courier,monospace;font-size:10px}#chart-e499c2b5-7b08-4349-925b-852d7234b905 .text-overlay text.value{font-family:Consolas,"Liberation Mono",Menlo,Courier,monospace;font-size:16px}#chart-e499c2b5-7b08-4349-925b-852d7234b905 .text-overlay text.label{font-family:Consolas,"Liberation Mono",Menlo,Courier,monospace;font-size:10px}#chart-e499c2b5-7b08-4349-925b-852d7234b905 .tooltip{font-family:Consolas,"Liberation Mono",Menlo,Courier,monospace;font-size:14px}#chart-e499c2b5-7b08-4349-925b-852d7234b905 text.no_data{font-family:Consolas,"Liberation Mono",Menlo,Courier,monospace;font-size:64px}
#chart-e499c2b5-7b08-4349-925b-852d7234b905{background-color:rgba(249,249,249,1)}#chart-e499c2b5-7b08-4349-925b-852d7234b905 path,#chart-e499c2b5-7b08-4349-925b-852d7234b905 line,#chart-e499c2b5-7b08-4349-925b-852d7234b905 rect,#chart-e499c2b5-7b08-4349-925b-852d7234b905 circle{-webkit-transition:150ms;-moz-transition:150ms;transition:150ms}#chart-e499c2b5-7b08-4349-925b-852d7234b905 .graph &gt; .background{fill:rgba(249,249,249,1)}#chart-e499c2b5-7b08-4349-925b-852d7234b905 .plot &gt; .background{fill:rgba(255,255,255,1)}#chart-e499c2b5-7b08-4349-925b-852d7234b905 .graph{fill:rgba(0,0,0,.87)}#chart-e499c2b5-7b08-4349-925b-852d7234b905 text.no_data{fill:rgba(0,0,0,1)}#chart-e499c2b5-7b08-4349-925b-852d7234b905 .title{fill:rgba(0,0,0,1)}#chart-e499c2b5-7b08-4349-925b-852d7234b905 .legends .legend text{fill:rgba(0,0,0,.87)}#chart-e499c2b5-7b08-4349-925b-852d7234b905 .legends .legend:hover text{fill:rgba(0,0,0,1)}#chart-e499c2b5-7b08-4349-925b-852d7234b905 .axis .line{stroke:rgba(0,0,0,1)}#chart-e499c2b5-7b08-4349-925b-852d7234b905 .axis .guide.line{stroke:rgba(0,0,0,.54)}#chart-e499c2b5-7b08-4349-925b-852d7234b905 .axis .major.line{stroke:rgba(0,0,0,.87)}#chart-e499c2b5-7b08-4349-925b-852d7234b905 .axis text.major{fill:rgba(0,0,0,1)}#chart-e499c2b5-7b08-4349-925b-852d7234b905 .axis.y .guides:hover .guide.line,#chart-e499c2b5-7b08-4349-925b-852d7234b905 .line-graph .axis.x .guides:hover .guide.line,#chart-e499c2b5-7b08-4349-925b-852d7234b905 .stackedline-graph .axis.x .guides:hover .guide.line,#chart-e499c2b5-7b08-4349-925b-852d7234b905 .xy-graph .axis.x .guides:hover .guide.line{stroke:rgba(0,0,0,1)}#chart-e499c2b5-7b08-4349-925b-852d7234b905 .axis .guides:hover text{fill:rgba(0,0,0,1)}#chart-e499c2b5-7b08-4349-925b-852d7234b905 .reactive{fill-opacity:.7;stroke-opacity:.8}#chart-e499c2b5-7b08-4349-925b-852d7234b905 .ci{stroke:rgba(0,0,0,.87)}#chart-e499c2b5-7b08-4349-925b-852d7234b905 .reactive.active,#chart-e499c2b5-7b08-4349-925b-852d7234b905 .active .reactive{fill-opacity:.8;stroke-opacity:.9;stroke-width:4}#chart-e499c2b5-7b08-4349-925b-852d7234b905 .ci .reactive.active{stroke-width:1.5}#chart-e499c2b5-7b08-4349-925b-852d7234b905 .series text{fill:rgba(0,0,0,1)}#chart-e499c2b5-7b08-4349-925b-852d7234b905 .tooltip rect{fill:rgba(255,255,255,1);stroke:rgba(0,0,0,1);-webkit-transition:opacity 150ms;-moz-transition:opacity 150ms;transition:opacity 150ms}#chart-e499c2b5-7b08-4349-925b-852d7234b905 .tooltip .label{fill:rgba(0,0,0,.87)}#chart-e499c2b5-7b08-4349-925b-852d7234b905 .tooltip .label{fill:rgba(0,0,0,.87)}#chart-e499c2b5-7b08-4349-925b-852d7234b905 .tooltip .legend{font-size:.8em;fill:rgba(0,0,0,.54)}#chart-e499c2b5-7b08-4349-925b-852d7234b905 .tooltip .x_label{font-size:.6em;fill:rgba(0,0,0,1)}#chart-e499c2b5-7b08-4349-925b-852d7234b905 .tooltip .xlink{font-size:.5em;text-decoration:underline}#chart-e499c2b5-7b08-4349-925b-852d7234b905 .tooltip .value{font-size:1.5em}#chart-e499c2b5-7b08-4349-925b-852d7234b905 .bound{font-size:.5em}#chart-e499c2b5-7b08-4349-925b-852d7234b905 .max-value{font-size:.75em;fill:rgba(0,0,0,.54)}#chart-e499c2b5-7b08-4349-925b-852d7234b905 .map-element{fill:rgba(255,255,255,1);stroke:rgba(0,0,0,.54) !important}#chart-e499c2b5-7b08-4349-925b-852d7234b905 .map-element .reactive{fill-opacity:inherit;stroke-opacity:inherit}#chart-e499c2b5-7b08-4349-925b-852d7234b905 .color-0,#chart-e499c2b5-7b08-4349-925b-852d7234b905 .color-0 a:visited{stroke:#909090;fill:#909090}#chart-e499c2b5-7b08-4349-925b-852d7234b905 .color-1,#chart-e499c2b5-7b08-4349-925b-852d7234b905 .color-1 a:visited{stroke:#000000;fill:#000000}#chart-e499c2b5-7b08-4349-925b-852d7234b905 .color-2,#chart-e499c2b5-7b08-4349-925b-852d7234b905 .color-2 a:visited{stroke:#ff0500;fill:#ff0500}#chart-e499c2b5-7b08-4349-925b-852d7234b905 .color-3,#chart-e499c2b5-7b08-4349-925b-852d7234b905 .color-3 a:visited{stroke:#323299;fill:#323299}#chart-e499c2b5-7b08-4349-925b-852d7234b905 .color-4,#chart-e499c2b5-7b08-4349-925b-852d7234b905 .color-4 a:visited{stroke:#a3413f;fill:#a3413f}#chart-e499c2b5-7b08-4349-925b-852d7234b905 .color-5,#chart-e499c2b5-7b08-4349-925b-852d7234b905 .color-5 a:visited{stroke:#a3413f;fill:#a3413f}#chart-e499c2b5-7b08-4349-925b-852d7234b905 .color-6,#chart-e499c2b5-7b08-4349-925b-852d7234b905 .color-6 a:visited{stroke:#a3413f;fill:#a3413f}#chart-e499c2b5-7b08-4349-925b-852d7234b905 .color-7,#chart-e499c2b5-7b08-4349-925b-852d7234b905 .color-7 a:visited{stroke:#a3413f;fill:#a3413f}#chart-e499c2b5-7b08-4349-925b-852d7234b905 .color-8,#chart-e499c2b5-7b08-4349-925b-852d7234b905 .color-8 a:visited{stroke:#a3413f;fill:#a3413f}#chart-e499c2b5-7b08-4349-925b-852d7234b905 .color-9,#chart-e499c2b5-7b08-4349-925b-852d7234b905 .color-9 a:visited{stroke:#657fff;fill:#657fff}#chart-e499c2b5-7b08-4349-925b-852d7234b905 .color-10,#chart-e499c2b5-7b08-4349-925b-852d7234b905 .color-10 a:visited{stroke:#657fff;fill:#657fff}#chart-e499c2b5-7b08-4349-925b-852d7234b905 .color-11,#chart-e499c2b5-7b08-4349-925b-852d7234b905 .color-11 a:visited{stroke:#657fff;fill:#657fff}#chart-e499c2b5-7b08-4349-925b-852d7234b905 .color-12,#chart-e499c2b5-7b08-4349-925b-852d7234b905 .color-12 a:visited{stroke:#657fff;fill:#657fff}#chart-e499c2b5-7b08-4349-925b-852d7234b905 .color-13,#chart-e499c2b5-7b08-4349-925b-852d7234b905 .color-13 a:visited{stroke:#657fff;fill:#657fff}#chart-e499c2b5-7b08-4349-925b-852d7234b905 .text-overlay .color-0 text{fill:black}#chart-e499c2b5-7b08-4349-925b-852d7234b905 .text-overlay .color-1 text{fill:white}#chart-e499c2b5-7b08-4349-925b-852d7234b905 .text-overlay .color-2 text{fill:black}#chart-e499c2b5-7b08-4349-925b-852d7234b905 .text-overlay .color-3 text{fill:black}#chart-e499c2b5-7b08-4349-925b-852d7234b905 .text-overlay .color-4 text{fill:black}#chart-e499c2b5-7b08-4349-925b-852d7234b905 .text-overlay .color-5 text{fill:black}#chart-e499c2b5-7b08-4349-925b-852d7234b905 .text-overlay .color-6 text{fill:black}#chart-e499c2b5-7b08-4349-925b-852d7234b905 .text-overlay .color-7 text{fill:black}#chart-e499c2b5-7b08-4349-925b-852d7234b905 .text-overlay .color-8 text{fill:black}#chart-e499c2b5-7b08-4349-925b-852d7234b905 .text-overlay .color-9 text{fill:black}#chart-e499c2b5-7b08-4349-925b-852d7234b905 .text-overlay .color-10 text{fill:black}#chart-e499c2b5-7b08-4349-925b-852d7234b905 .text-overlay .color-11 text{fill:black}#chart-e499c2b5-7b08-4349-925b-852d7234b905 .text-overlay .color-12 text{fill:black}#chart-e499c2b5-7b08-4349-925b-852d7234b905 .text-overlay .color-13 text{fill:black}#chart-e499c2b5-7b08-4349-925b-852d7234b905 .series.serie-1{stroke-width:5}#chart-e499c2b5-7b08-4349-925b-852d7234b905 .series.serie-2{stroke-width:3}#chart-e499c2b5-7b08-4349-925b-852d7234b905 .series.serie-3{stroke-width:3}#chart-e499c2b5-7b08-4349-925b-852d7234b905 .series.serie-4{stroke-width:2;stroke-dasharray:2,2}#chart-e499c2b5-7b08-4349-925b-852d7234b905 .series.serie-5{stroke-width:2;stroke-dasharray:2,2}#chart-e499c2b5-7b08-4349-925b-852d7234b905 .series.serie-6{stroke-width:2;stroke-dasharray:2,2}#chart-e499c2b5-7b08-4349-925b-852d7234b905 .series.serie-7{stroke-width:2;stroke-dasharray:2,2}#chart-e499c2b5-7b08-4349-925b-852d7234b905 .series.serie-8{stroke-width:2;stroke-dasharray:2,2}#chart-e499c2b5-7b08-4349-925b-852d7234b905 .series.serie-9{stroke-width:2;stroke-dasharray:2,2}#chart-e499c2b5-7b08-4349-925b-852d7234b905 .series.serie-10{stroke-width:2;stroke-dasharray:2,2}#chart-e499c2b5-7b08-4349-925b-852d7234b905 .series.serie-11{stroke-width:2;stroke-dasharray:2,2}#chart-e499c2b5-7b08-4349-925b-852d7234b905 .series.serie-12{stroke-width:2;stroke-dasharray:2,2}#chart-e499c2b5-7b08-4349-925b-852d7234b905 .series.serie-13{stroke-width:2;stroke-dasharray:2,2}
#chart-e499c2b5-7b08-4349-925b-852d7234b905 text.no_data{text-anchor:middle}#chart-e499c2b5-7b08-4349-925b-852d7234b905 .guide.line{fill:none}#chart-e499c2b5-7b08-4349-925b-852d7234b905 .centered{text-anchor:middle}#chart-e499c2b5-7b08-4349-925b-852d7234b905 .title{text-anchor:middle}#chart-e499c2b5-7b08-4349-925b-852d7234b905 .legends .legend text{fill-opacity:1}#chart-e499c2b5-7b08-4349-925b-852d7234b905 .axis.x text{text-anchor:middle}#chart-e499c2b5-7b08-4349-925b-852d7234b905 .axis.x:not(.web) text[transform]{text-anchor:start}#chart-e499c2b5-7b08-4349-925b-852d7234b905 .axis.x:not(.web) text[transform].backwards{text-anchor:end}#chart-e499c2b5-7b08-4349-925b-852d7234b905 .axis.y text{text-anchor:end}#chart-e499c2b5-7b08-4349-925b-852d7234b905 .axis.y text[transform].backwards{text-anchor:start}#chart-e499c2b5-7b08-4349-925b-852d7234b905 .axis.y2 text{text-anchor:start}#chart-e499c2b5-7b08-4349-925b-852d7234b905 .axis.y2 text[transform].backwards{text-anchor:end}#chart-e499c2b5-7b08-4349-925b-852d7234b905 .axis .guide.line{stroke-dasharray:4,4}#chart-e499c2b5-7b08-4349-925b-852d7234b905 .axis .major.guide.line{stroke-dasharray:6,6}#chart-e499c2b5-7b08-4349-925b-852d7234b905 .horizontal .axis.y .guide.line,#chart-e499c2b5-7b08-4349-925b-852d7234b905 .horizontal .axis.y2 .guide.line,#chart-e499c2b5-7b08-4349-925b-852d7234b905 .vertical .axis.x .guide.line{opacity:0}#chart-e499c2b5-7b08-4349-925b-852d7234b905 .horizontal .axis.always_show .guide.line,#chart-e499c2b5-7b08-4349-925b-852d7234b905 .vertical .axis.always_show .guide.line{opacity:1 !important}#chart-e499c2b5-7b08-4349-925b-852d7234b905 .axis.y .guides:hover .guide.line,#chart-e499c2b5-7b08-4349-925b-852d7234b905 .axis.y2 .guides:hover .guide.line,#chart-e499c2b5-7b08-4349-925b-852d7234b905 .axis.x .guides:hover .guide.line{opacity:1}#chart-e499c2b5-7b08-4349-925b-852d7234b905 .axis .guides:hover text{opacity:1}#chart-e499c2b5-7b08-4349-925b-852d7234b905 .nofill{fill:none}#chart-e499c2b5-7b08-4349-925b-852d7234b905 .subtle-fill{fill-opacity:.2}#chart-e499c2b5-7b08-4349-925b-852d7234b905 .dot{stroke-width:1px;fill-opacity:1}#chart-e499c2b5-7b08-4349-925b-852d7234b905 .dot.active{stroke-width:5px}#chart-e499c2b5-7b08-4349-925b-852d7234b905 .dot.negative{fill:transparent}#chart-e499c2b5-7b08-4349-925b-852d7234b905 text,#chart-e499c2b5-7b08-4349-925b-852d7234b905 tspan{stroke:none !important}#chart-e499c2b5-7b08-4349-925b-852d7234b905 .series text.active{opacity:1}#chart-e499c2b5-7b08-4349-925b-852d7234b905 .tooltip rect{fill-opacity:.95;stroke-width:.5}#chart-e499c2b5-7b08-4349-925b-852d7234b905 .tooltip text{fill-opacity:1}#chart-e499c2b5-7b08-4349-925b-852d7234b905 .showable{visibility:hidden}#chart-e499c2b5-7b08-4349-925b-852d7234b905 .showable.shown{visibility:visible}#chart-e499c2b5-7b08-4349-925b-852d7234b905 .gauge-background{fill:rgba(229,229,229,1);stroke:none}#chart-e499c2b5-7b08-4349-925b-852d7234b905 .bg-lines{stroke:rgba(249,249,249,1);stroke-width:2px}</style><script type="text/javascript">window.pygal = window.pygal || {};window.pygal.config = window.pygal.config || {};window.pygal.config['e499c2b5-7b08-4349-925b-852d7234b905'] = {"allow_interruptions": false, "x_label_rotation": 60, "y_title": "Density", "stack_from_top": false, "stroke": true, "include_x_axis": false, "defs": [], "truncate_label": null, "legend_at_bottom_columns": null, "show_minor_y_labels": true, "show_x_labels": true, "tooltip_fancy_mode": true, "show_legend": true, "print_labels": false, "disable_xml_declaration": false, "secondary_range": null, "x_labels": ["-8.96", "-8.76", "-8.56", "-8.36", "-8.16", "-7.96", "-7.76", "-7.56", "-7.36", "-7.16", "-6.96", "-6.76", "-6.56", "-6.36", "-6.16", "-5.96", "-5.76", "-5.56", "-5.36", "-5.16", "-4.96", "-4.76", "-4.56", "-4.36", "-4.16", "-3.96", "-3.76", "-3.56", "-3.36", "-3.16", "-2.96", "-2.76", "-2.56", "-2.36", "-2.16", "-1.96", "-1.76", "-1.56", "-1.36", "-1.16", "-0.96", "-0.76", "-0.56", "-0.36", "-0.16", "0.04", "0.24", "0.44", "0.64", "0.84", "1.04", "1.24", "1.43", "1.63", "1.83", "2.03", "2.23", "2.43", "2.63", "2.83"], "interpolation_precision": 250, "force_uri_protocol": "https", "classes": ["pygal-chart"], "css": ["file://style.css", "file://graph.css"], "margin": 20, "style": {"opacity_hover": ".8", "foreground": "rgba(0, 0, 0, .87)", "foreground_subtle": "rgba(0, 0, 0, .54)", "value_colors": [], "legend_font_family": "Consolas, \"Liberation Mono\", Menlo, Courier, monospace", "tooltip_font_family": "Consolas, \"Liberation Mono\", Menlo, Courier, monospace", "stroke_opacity_hover": ".9", "no_data_font_size": 64, "guide_stroke_dasharray": "4,4", "title_font_family": "Consolas, \"Liberation Mono\", Menlo, Courier, monospace", "label_font_family": "Consolas, \"Liberation Mono\", Menlo, Courier, monospace", "ci_colors": [], "background": "rgba(249, 249, 249, 1)", "colors": ["#909090", "#000000", "#ff0500", "#323299", "#a3413f", "#a3413f", "#a3413f", "#a3413f", "#a3413f", "#657fff", "#657fff", "#657fff", "#657fff", "#657fff"], "value_font_family": "Consolas, \"Liberation Mono\", Menlo, Courier, monospace", "font_family": "Consolas, \"Liberation Mono\", Menlo, Courier, monospace", "value_background": "rgba(229, 229, 229, 1)", "stroke_opacity": ".8", "title_font_size": 16, "no_data_font_family": "Consolas, \"Liberation Mono\", Menlo, Courier, monospace", "label_font_size": 10, "major_guide_stroke_dasharray": "6,6", "major_label_font_size": 10, "transition": "150ms", "opacity": ".7", "legend_font_size": 10, "value_label_font_family": "Consolas, \"Liberation Mono\", Menlo, Courier, monospace", "major_label_font_family": "Consolas, \"Liberation Mono\", Menlo, Courier, monospace", "plot_background": "rgba(255, 255, 255, 1)", "value_label_font_size": 10, "foreground_strong": "rgba(0, 0, 0, 1)", "tooltip_font_size": 14, "value_font_size": 16}, "order_min": null, "interpolation_parameters": {}, "show_dots": false, "y_labels_major": null, "box_mode": "extremes", "fill": false, "show_minor_x_labels": false, "js": ["//kozea.github.io/pygal.js/2.0.x/pygal-tooltips.min.js"], "explicit_size": false, "formatter": null, "x_labels_major": null, "legends": ["Data", "GMM", "i=0", "i=1", "i=0 k=0", "i=0 k=1", "i=0 k=2", "i=0 k=3", "i=0 k=4", "i=1 k=0", "i=1 k=1", "i=1 k=2", "i=1 k=3", "i=1 k=4"], "zero": 0, "strict": false, "print_values": false, "margin_bottom": null, "dynamic_print_values": false, "print_zeroes": true, "logarithmic": false, "x_labels_major_count": null, "margin_left": null, "legend_box_size": 12, "max_scale": 16, "dots_size": 2.5, "show_y_guides": true, "truncate_legend": null, "interpolate": null, "y_labels_major_every": null, "legend_at_bottom": false, "inner_radius": 0, "tooltip_border_radius": 0, "show_x_guides": false, "x_labels_major_every": 2, "show_y_labels": true, "pretty_print": false, "rounded_bars": null, "missing_value_fill_truncation": "x", "y_label_rotation": 0, "height": 600, "show_only_major_dots": false, "spacing": 10, "inverse_y_axis": false, "xrange": null, "margin_right": null, "no_prefix": false, "range": [0, 0.27578580090479526], "margin_top": null, "no_data_text": "No data", "y_labels_major_count": null, "half_pie": false, "width": 800, "title": "Iteration #3", "stroke_style": null, "y_labels": null, "print_values_position": "center", "x_title": "Observation", "min_scale": 4}</script><script type="text/javascript" xlink:href="https://kozea.github.io/pygal.js/2.0.x/pygal-tooltips.min.js" /></defs><title>Iteration #3</title><g class="graph line-graph vertical"><rect class="background" height="600" width="800" x="0" y="0" /><g class="plot" transform="translate(144, 46)"><rect class="background" height="472.01923788646684" width="636.0" x="0" y="0" /><g class="axis y always_show"><g class="guides"><path class="axis major line" d="M0.000000 462.941945 h636.000000" /><text class="major" x="-5" y="466.44194485">0</text><title>0</title></g><g class="guides"><path class="guide line" d="M0.000000 430.027658 h636.000000" /><text class="" x="-5" y="433.527657724">0.02</text><title>0.02</title></g><g class="guides"><path class="guide line" d="M0.000000 397.113371 h636.000000" /><text class="" x="-5" y="400.613370598">0.04</text><title>0.04</title></g><g class="guides"><path class="guide line" d="M0.000000 364.199083 h636.000000" /><text class="" x="-5" y="367.699083472">0.06</text><title>0.06</title></g><g class="guides"><path class="guide line" d="M0.000000 331.284796 h636.000000" /><text class="" x="-5" y="334.784796346">0.08</text><title>0.08</title></g><g class="guides"><path class="guide line" d="M0.000000 298.370509 h636.000000" /><text class="" x="-5" y="301.87050922">0.1</text><title>0.1</title></g><g class="guides"><path class="guide line" d="M0.000000 265.456222 h636.000000" /><text class="" x="-5" y="268.956222094">0.12</text><title>0.12</title></g><g class="guides"><path class="guide line" d="M0.000000 232.541935 h636.000000" /><text class="" x="-5" y="236.041934968">0.14</text><title>0.14</title></g><g class="guides"><path class="guide line" d="M0.000000 199.627648 h636.000000" /><text class="" x="-5" y="203.127647841">0.16</text><title>0.16</title></g><g class="guides"><path class="guide line" d="M0.000000 166.713361 h636.000000" /><text class="" x="-5" y="170.213360715">0.18</text><title>0.18</title></g><g class="guides"><path class="guide line" d="M0.000000 133.799074 h636.000000" /><text class="" x="-5" y="137.299073589">0.2</text><title>0.2</title></g><g class="guides"><path class="guide line" d="M0.000000 100.884786 h636.000000" /><text class="" x="-5" y="104.384786463">0.22</text><title>0.22</title></g><g class="guides"><path class="guide line" d="M0.000000 67.970499 h636.000000" /><text class="" x="-5" y="71.4704993371">0.24</text><title>0.24</title></g><g class="guides"><path class="guide line" d="M0.000000 35.056212 h636.000000" /><text class="" x="-5" y="38.5562122111">0.26</text><title>0.26</title></g></g><g class="axis x"><g class="guides"><path class="major line" d="M12.230769 0.000000 v472.019238" /><text class="major" transform="rotate(60 12.230769 487.019238)" x="12.230769230769232" y="487.01923788646684">-8.96</text></g><g class="guides"><path class="major guide line" d="M32.960887 0.000000 v472.019238" /><text class="major" transform="rotate(60 32.960887 487.019238)" x="32.96088657105606" y="487.01923788646684">-8.56</text></g><g class="guides"><path class="major guide line" d="M53.691004 0.000000 v472.019238" /><text class="major" transform="rotate(60 53.691004 487.019238)" x="53.6910039113429" y="487.01923788646684">-8.16</text></g><g class="guides"><path class="major guide line" d="M74.421121 0.000000 v472.019238" /><text class="major" transform="rotate(60 74.421121 487.019238)" x="74.42112125162973" y="487.01923788646684">-7.76</text></g><g class="guides"><path class="major guide line" d="M95.151239 0.000000 v472.019238" /><text class="major" transform="rotate(60 95.151239 487.019238)" x="95.15123859191655" y="487.01923788646684">-7.36</text></g><g class="guides"><path class="major guide line" d="M115.881356 0.000000 v472.019238" /><text class="major" transform="rotate(60 115.881356 487.019238)" x="115.88135593220338" y="487.01923788646684">-6.96</text></g><g class="guides"><path class="major guide line" d="M136.611473 0.000000 v472.019238" /><text class="major" transform="rotate(60 136.611473 487.019238)" x="136.61147327249023" y="487.01923788646684">-6.56</text></g><g class="guides"><path class="major guide line" d="M157.341591 0.000000 v472.019238" /><text class="major" transform="rotate(60 157.341591 487.019238)" x="157.34159061277705" y="487.01923788646684">-6.16</text></g><g class="guides"><path class="major guide line" d="M178.071708 0.000000 v472.019238" /><text class="major" transform="rotate(60 178.071708 487.019238)" x="178.0717079530639" y="487.01923788646684">-5.76</text></g><g class="guides"><path class="major guide line" d="M198.801825 0.000000 v472.019238" /><text class="major" transform="rotate(60 198.801825 487.019238)" x="198.80182529335073" y="487.01923788646684">-5.36</text></g><g class="guides"><path class="major guide line" d="M219.531943 0.000000 v472.019238" /><text class="major" transform="rotate(60 219.531943 487.019238)" x="219.53194263363756" y="487.01923788646684">-4.96</text></g><g class="guides"><path class="major guide line" d="M240.262060 0.000000 v472.019238" /><text class="major" transform="rotate(60 240.262060 487.019238)" x="240.2620599739244" y="487.01923788646684">-4.56</text></g><g class="guides"><path class="major guide line" d="M260.992177 0.000000 v472.019238" /><text class="major" transform="rotate(60 260.992177 487.019238)" x="260.99217731421123" y="487.01923788646684">-4.16</text></g><g class="guides"><path class="major guide line" d="M281.722295 0.000000 v472.019238" /><text class="major" transform="rotate(60 281.722295 487.019238)" x="281.722294654498" y="487.01923788646684">-3.76</text></g><g class="guides"><path class="major guide line" d="M302.452412 0.000000 v472.019238" /><text class="major" transform="rotate(60 302.452412 487.019238)" x="302.4524119947849" y="487.01923788646684">-3.36</text></g><g class="guides"><path class="major guide line" d="M323.182529 0.000000 v472.019238" /><text class="major" transform="rotate(60 323.182529 487.019238)" x="323.1825293350717" y="487.01923788646684">-2.96</text></g><g class="guides"><path class="major guide line" d="M343.912647 0.000000 v472.019238" /><text class="major" transform="rotate(60 343.912647 487.019238)" x="343.91264667535853" y="487.01923788646684">-2.56</text></g><g class="guides"><path class="major guide line" d="M364.642764 0.000000 v472.019238" /><text class="major" transform="rotate(60 364.642764 487.019238)" x="364.64276401564535" y="487.01923788646684">-2.16</text></g><g class="guides"><path class="major guide line" d="M385.372881 0.000000 v472.019238" /><text class="major" transform="rotate(60 385.372881 487.019238)" x="385.37288135593224" y="487.01923788646684">-1.76</text></g><g class="guides"><path class="major guide line" d="M406.102999 0.000000 v472.019238" /><text class="major" transform="rotate(60 406.102999 487.019238)" x="406.102998696219" y="487.01923788646684">-1.36</text></g><g class="guides"><path class="major guide line" d="M426.833116 0.000000 v472.019238" /><text class="major" transform="rotate(60 426.833116 487.019238)" x="426.8331160365058" y="487.01923788646684">-0.96</text></g><g class="guides"><path class="major guide line" d="M447.563233 0.000000 v472.019238" /><text class="major" transform="rotate(60 447.563233 487.019238)" x="447.56323337679265" y="487.01923788646684">-0.56</text></g><g class="guides"><path class="major guide line" d="M468.293351 0.000000 v472.019238" /><text class="major" transform="rotate(60 468.293351 487.019238)" x="468.29335071707953" y="487.01923788646684">-0.16</text></g><g class="guides"><path class="major guide line" d="M489.023468 0.000000 v472.019238" /><text class="major" transform="rotate(60 489.023468 487.019238)" x="489.02346805736636" y="487.01923788646684">0.24</text></g><g class="guides"><path class="major guide line" d="M509.753585 0.000000 v472.019238" /><text class="major" transform="rotate(60 509.753585 487.019238)" x="509.75358539765324" y="487.01923788646684">0.64</text></g><g class="guides"><path class="major guide line" d="M530.483703 0.000000 v472.019238" /><text class="major" transform="rotate(60 530.483703 487.019238)" x="530.48370273794" y="487.01923788646684">1.04</text></g><g class="guides"><path class="major guide line" d="M551.213820 0.000000 v472.019238" /><text class="major" transform="rotate(60 551.213820 487.019238)" x="551.213820078227" y="487.01923788646684">1.43</text></g><g class="guides"><path class="major guide line" d="M571.943937 0.000000 v472.019238" /><text class="major" transform="rotate(60 571.943937 487.019238)" x="571.9439374185138" y="487.01923788646684">1.83</text></g><g class="guides"><path class="major guide line" d="M592.674055 0.000000 v472.019238" /><text class="major" transform="rotate(60 592.674055 487.019238)" x="592.6740547588006" y="487.01923788646684">2.23</text></g><g class="guides"><path class="major guide line" d="M613.404172 0.000000 v472.019238" /><text class="major" transform="rotate(60 613.404172 487.019238)" x="613.4041720990874" y="487.01923788646684">2.63</text></g></g><g class="series serie-0 color-0"><path class="line reactive" d="M12.230769 462.941945 L12.230769 462.019456 22.595828 462.941945 32.960887 461.096967 43.325945 462.019456 53.691004 459.251988 64.056063 462.019456 74.421121 458.329499 84.786180 462.019456 95.151239 458.329499 105.516297 462.019456 115.881356 448.182119 126.246415 460.174477 136.611473 457.407010 146.976532 457.407010 157.341591 451.872075 167.706649 448.182119 178.071708 454.639543 188.436767 445.414651 198.801825 442.647184 209.166884 436.189760 219.531943 437.112249 229.897001 392.832771 240.262060 396.522728 250.627119 376.227967 260.992177 355.933206 271.357236 351.320760 281.722295 325.491065 292.087353 277.521630 302.452412 283.056565 312.817471 202.800010 323.182529 188.040184 333.547588 169.590402 343.912647 123.465945 354.277705 95.791271 364.642764 67.194108 375.007823 82.876423 385.372881 60.736684 395.737940 80.108956 406.102999 29.372054 416.468057 9.077293 426.833116 70.884065 437.198175 69.039086 447.563233 41.364413 457.928292 40.441923 468.293351 91.178826 478.658409 140.993239 489.023468 214.792369 499.388527 259.071847 509.753585 321.801108 520.118644 364.235608 530.483703 408.515086 540.848761 430.654825 551.213820 448.182119 561.578879 455.562032 571.943937 458.329499 582.308996 458.329499 592.674055 462.019456 603.039113 462.941945 613.404172 462.019456 623.769231 462.941945" /></g><g class="series serie-1 color-1"><path class="line reactive nofill" d="M12.230769 462.930118 L22.595828 462.919930 32.960887 462.901850 43.325945 462.870496 53.691004 462.817369 64.056063 462.729421 74.421121 462.587204 84.786180 462.362588 95.151239 462.016155 105.516297 461.494472 115.881356 460.727624 126.246415 459.627550 136.611473 458.087888 146.976532 455.986099 157.341591 453.188561 167.706649 449.558948 178.071708 444.969492 188.436767 439.313541 198.801825 432.516177 209.166884 424.538009 219.531943 415.366166 229.897001 404.987476 240.262060 393.343258 250.627119 380.273801 260.992177 365.472143 271.357236 348.476364 281.722295 328.730140 292.087353 305.726058 302.452412 279.214583 312.817471 249.423047 323.182529 217.201628 333.547588 184.016519 343.912647 151.752784 354.277705 122.361000 364.642764 97.455793 375.007823 78.013963 385.372881 64.283833 395.737940 55.886149 406.102999 51.934235 416.468057 51.034030 426.833116 51.383339 437.198175 51.549963 447.563233 52.129908 457.928292 57.206903 468.293351 73.660151 478.658409 107.573840 489.023468 159.810831 499.388527 224.279188 509.753585 290.505498 520.118644 348.574004 530.483703 392.902324 540.848761 422.910990 551.213820 441.275758 561.578879 451.651763 571.943937 457.186684 582.308996 460.035706 592.674055 461.476927 603.039113 462.202460 613.404172 462.568264 623.769231 462.753272" /></g><g class="series serie-2 color-2"><path class="line reactive nofill" d="M12.230769 462.941945 L22.595828 462.941945 32.960887 462.941945 43.325945 462.941945 53.691004 462.941945 64.056063 462.941945 74.421121 462.941945 84.786180 462.941945 95.151239 462.941945 105.516297 462.941945 115.881356 462.941945 126.246415 462.941945 136.611473 462.941945 146.976532 462.941945 157.341591 462.941945 167.706649 462.941945 178.071708 462.941944 188.436767 462.941944 198.801825 462.941942 209.166884 462.941937 219.531943 462.941925 229.897001 462.941896 240.262060 462.941832 250.627119 462.941688 260.992177 462.941373 271.357236 462.940699 281.722295 462.939280 292.087353 462.936337 302.452412 462.930307 312.817471 462.918041 323.182529 462.893138 333.547588 462.842279 343.912647 462.736748 354.277705 462.511967 364.642764 462.018332 375.007823 460.910639 385.372881 458.431211 395.737940 453.072908 406.102999 442.249909 416.468057 422.374948 426.833116 389.945872 437.198175 343.925676 447.563233 288.563733 457.928292 234.488076 468.293351 195.994586 478.658409 184.900042 489.023468 204.514927 499.388527 247.977621 509.753585 302.121486 520.118644 353.928520 530.483703 395.291263 540.848761 423.984599 551.213820 441.781346 561.578879 451.905960 571.943937 457.321687 582.308996 460.109505 592.674055 461.517485 603.039113 462.224544 613.404172 462.580091 623.769231 462.759481" /></g><g class="series serie-3 color-3"><path class="line reactive nofill" d="M12.230769 462.930118 L22.595828 462.919930 32.960887 462.901850 43.325945 462.870496 53.691004 462.817369 64.056063 462.729421 74.421121 462.587204 84.786180 462.362588 95.151239 462.016155 105.516297 461.494472 115.881356 460.727624 126.246415 459.627550 136.611473 458.087888 146.976532 455.986099 157.341591 453.188562 167.706649 449.558948 178.071708 444.969493 188.436767 439.313542 198.801825 432.516180 209.166884 424.538017 219.531943 415.366186 229.897001 404.987525 240.262060 393.343370 250.627119 380.274058 260.992177 365.472715 271.357236 348.477610 281.722295 328.732806 292.087353 305.731665 302.452412 279.226221 312.817471 249.446951 323.182529 217.250436 333.547588 184.116185 343.912647 151.957981 354.277705 122.790978 364.642764 98.379406 375.007823 80.045269 385.372881 68.794567 395.737940 65.755186 406.102999 72.626271 416.468057 91.601027 426.833116 124.379411 437.198175 170.566232 447.563233 226.508120 457.928292 285.660772 468.293351 340.607510 478.658409 385.615743 489.023468 418.237849 499.388527 439.243512 509.753585 451.325957 520.118644 457.587429 530.483703 460.553005 540.848761 461.868336 551.213820 462.436356 561.578879 462.687747 571.943937 462.806941 582.308996 462.868146 592.674055 462.901387 603.039113 462.919861 613.404172 462.930118 623.769231 462.935735" /></g><g class="series serie-4 color-4"><path class="line reactive nofill" d="M12.230769 462.941945 L22.595828 462.941945 32.960887 462.941945 43.325945 462.941945 53.691004 462.941945 64.056063 462.941945 74.421121 462.941945 84.786180 462.941945 95.151239 462.941945 105.516297 462.941945 115.881356 462.941945 126.246415 462.941945 136.611473 462.941945 146.976532 462.941945 157.341591 462.941945 167.706649 462.941945 178.071708 462.941945 188.436767 462.941945 198.801825 462.941945 209.166884 462.941945 219.531943 462.941945 229.897001 462.941945 240.262060 462.941945 250.627119 462.941945 260.992177 462.941945 271.357236 462.941945 281.722295 462.941945 292.087353 462.941945 302.452412 462.941943 312.817471 462.941928 323.182529 462.941822 333.547588 462.941152 343.912647 462.937464 354.277705 462.919731 364.642764 462.845351 375.007823 462.573578 385.372881 461.709915 395.737940 459.328087 406.102999 453.645204 416.468057 441.967028 426.833116 421.438939 437.198175 390.919371 447.563233 353.327570 457.928292 316.631218 468.293351 291.666693 478.658409 287.099852 489.023468 304.612801 499.388527 337.913547 509.753585 376.352240 520.118644 410.348256 530.483703 434.925643 540.848761 449.853208 551.213820 457.579109 561.578879 461.014859 571.943937 462.334625 582.308996 462.774086 592.674055 462.901256 603.039113 462.933295 613.404172 462.940332 623.769231 462.941681" /></g><g class="series serie-5 color-5"><path class="line reactive nofill" d="M12.230769 462.941945 L22.595828 462.941945 32.960887 462.941945 43.325945 462.941945 53.691004 462.941945 64.056063 462.941945 74.421121 462.941945 84.786180 462.941945 95.151239 462.941945 105.516297 462.941945 115.881356 462.941945 126.246415 462.941945 136.611473 462.941945 146.976532 462.941945 157.341591 462.941945 167.706649 462.941945 178.071708 462.941945 188.436767 462.941945 198.801825 462.941945 209.166884 462.941945 219.531943 462.941945 229.897001 462.941945 240.262060 462.941945 250.627119 462.941945 260.992177 462.941945 271.357236 462.941945 281.722295 462.941944 292.087353 462.941937 302.452412 462.941901 312.817471 462.941724 323.182529 462.940935 333.547588 462.937752 343.912647 462.926147 354.277705 462.887903 364.642764 462.774115 375.007823 462.468790 385.372881 461.730967 395.737940 460.128305 406.102999 457.007233 416.468057 451.577983 426.833116 443.187774 437.198175 431.768357 447.563233 418.282458 457.928292 404.860208 468.293351 394.367167 478.658409 389.441805 489.023468 391.424686 499.388527 399.768799 509.753585 412.283356 520.118644 426.063499 530.483703 438.569950 540.848761 448.319887 551.213820 454.978062 561.578879 459.004267 571.943937 461.174465 582.308996 462.221721 592.674055 462.675517 603.039113 462.852472 613.404172 462.914668 623.769231 462.934395" /></g><g class="series serie-6 color-6"><path class="line reactive nofill" d="M12.230769 462.941945 L22.595828 462.941945 32.960887 462.941945 43.325945 462.941945 53.691004 462.941945 64.056063 462.941945 74.421121 462.941945 84.786180 462.941945 95.151239 462.941945 105.516297 462.941945 115.881356 462.941945 126.246415 462.941945 136.611473 462.941945 146.976532 462.941945 157.341591 462.941945 167.706649 462.941945 178.071708 462.941945 188.436767 462.941945 198.801825 462.941945 209.166884 462.941945 219.531943 462.941945 229.897001 462.941945 240.262060 462.941945 250.627119 462.941944 260.992177 462.941940 271.357236 462.941924 281.722295 462.941867 292.087353 462.941671 302.452412 462.941039 312.817471 462.939147 323.182529 462.933859 333.547588 462.920084 343.912647 462.886653 354.277705 462.811113 364.642764 462.652329 375.007823 462.342170 385.372881 461.779929 395.737940 460.835770 406.102999 459.370578 416.468057 457.276522 426.833116 454.534033 437.198175 451.268425 447.563233 447.779355 457.928292 444.517141 468.293351 441.996470 478.658409 440.666035 489.023468 440.778433 499.388527 442.311928 509.753585 444.977307 520.118644 448.306860 530.483703 451.787964 540.848761 454.989101 551.213820 457.637098 561.578879 459.631539 571.943937 461.009321 582.308996 461.886413 592.674055 462.402616 603.039113 462.684139 613.404172 462.826655 623.769231 462.893712" /></g><g class="series serie-7 color-7"><path class="line reactive nofill" d="M12.230769 462.941945 L22.595828 462.941945 32.960887 462.941945 43.325945 462.941945 53.691004 462.941945 64.056063 462.941945 74.421121 462.941945 84.786180 462.941945 95.151239 462.941945 105.516297 462.941945 115.881356 462.941945 126.246415 462.941945 136.611473 462.941945 146.976532 462.941945 157.341591 462.941945 167.706649 462.941945 178.071708 462.941945 188.436767 462.941945 198.801825 462.941945 209.166884 462.941944 219.531943 462.941943 229.897001 462.941940 240.262060 462.941930 250.627119 462.941901 260.992177 462.941824 271.357236 462.941624 281.722295 462.941135 292.087353 462.939991 302.452412 462.937446 312.817471 462.932054 323.182529 462.921184 333.547588 462.900347 343.912647 462.862374 354.277705 462.796642 364.642764 462.688639 375.007823 462.520384 385.372881 462.272184 395.737940 461.926104 406.102999 461.471068 416.468057 460.908779 426.833116 460.258983 437.198175 459.562062 447.563233 458.877192 457.928292 458.275221 468.293351 457.827065 478.658409 457.590092 489.023468 457.596077 499.388527 457.844204 509.753585 458.301254 520.118644 458.908901 530.483703 459.595924 540.848761 460.291800 551.213820 460.938137 561.578879 461.495546 571.943937 461.945243 582.308996 462.286271 592.674055 462.530174 603.039113 462.695074 613.404172 462.800649 623.769231 462.864742" /></g><g class="series serie-8 color-8"><path class="line reactive nofill" d="M12.230769 462.941945 L22.595828 462.941945 32.960887 462.941945 43.325945 462.941945 53.691004 462.941945 64.056063 462.941945 74.421121 462.941945 84.786180 462.941945 95.151239 462.941945 105.516297 462.941945 115.881356 462.941945 126.246415 462.941945 136.611473 462.941945 146.976532 462.941945 157.341591 462.941945 167.706649 462.941945 178.071708 462.941944 188.436767 462.941944 198.801825 462.941942 209.166884 462.941937 219.531943 462.941926 229.897001 462.941901 240.262060 462.941847 250.627119 462.941733 260.992177 462.941499 271.357236 462.941040 281.722295 462.940168 292.087353 462.938573 302.452412 462.935758 312.817471 462.930968 323.182529 462.923117 333.547588 462.910723 343.912647 462.891889 354.277705 462.864358 364.642764 462.825677 375.007823 462.773495 385.372881 462.705996 395.737940 462.622420 406.102999 462.523606 416.468057 462.412416 426.833116 462.293923 437.198175 462.175241 447.563233 462.064938 457.928292 461.972068 468.293351 461.904970 478.658409 461.870037 489.023468 461.870710 499.388527 461.906922 509.753585 461.975108 520.118644 462.068784 530.483703 462.179561 540.848761 462.298383 551.213820 462.416720 561.578879 462.527527 571.943937 462.625812 582.308996 462.708794 592.674055 462.775701 603.039113 462.827344 613.404172 462.865566 623.769231 462.892730" /></g><g class="series serie-9 color-9"><path class="line reactive nofill" d="M12.230769 462.941945 L22.595828 462.941945 32.960887 462.941945 43.325945 462.941945 53.691004 462.941945 64.056063 462.941945 74.421121 462.941945 84.786180 462.941945 95.151239 462.941945 105.516297 462.941945 115.881356 462.941945 126.246415 462.941945 136.611473 462.941945 146.976532 462.941945 157.341591 462.941945 167.706649 462.941945 178.071708 462.941945 188.436767 462.941945 198.801825 462.941945 209.166884 462.941945 219.531943 462.941945 229.897001 462.941945 240.262060 462.941945 250.627119 462.941944 260.992177 462.941940 271.357236 462.941914 281.722295 462.941755 292.087353 462.940901 302.452412 462.936849 312.817471 462.919819 323.182529 462.856544 333.547588 462.648890 343.912647 462.047909 354.277705 460.517120 364.642764 457.095050 375.007823 450.407949 385.372881 439.054304 395.737940 422.467916 406.102999 401.974350 416.468057 381.294771 426.833116 365.733790 437.198175 360.049450 447.563233 366.117692 457.928292 381.938393 468.293351 402.693834 478.658409 423.103511 489.023468 439.522288 499.388527 450.702034 509.753585 457.254785 520.118644 460.592679 530.483703 462.079188 540.848761 462.660260 551.213820 462.860181 561.578879 462.920845 571.943937 462.937104 582.308996 462.940958 592.674055 462.941766 603.039113 462.941916 613.404172 462.941941 623.769231 462.941944" /></g><g class="series serie-10 color-10"><path class="line reactive nofill" d="M12.230769 462.941945 L22.595828 462.941945 32.960887 462.941945 43.325945 462.941945 53.691004 462.941945 64.056063 462.941945 74.421121 462.941945 84.786180 462.941945 95.151239 462.941945 105.516297 462.941945 115.881356 462.941945 126.246415 462.941945 136.611473 462.941945 146.976532 462.941945 157.341591 462.941945 167.706649 462.941945 178.071708 462.941945 188.436767 462.941945 198.801825 462.941945 209.166884 462.941943 219.531943 462.941933 229.897001 462.941883 240.262060 462.941648 250.627119 462.940651 260.992177 462.936786 271.357236 462.923135 281.722295 462.879256 292.087353 462.750975 302.452412 462.410182 312.817471 461.588469 323.182529 459.793020 333.547588 456.245365 343.912647 449.924587 354.277705 439.812159 364.642764 425.375561 375.007823 407.171233 385.372881 387.260051 395.737940 369.065463 406.102999 356.502984 416.468057 352.629767 426.833116 358.439776 437.198175 372.450785 447.563233 391.316717 457.928292 411.121052 468.293351 428.671261 478.658409 442.225288 489.023468 451.494843 499.388527 457.160312 509.753585 460.272725 520.118644 461.815533 530.483703 462.507445 540.848761 462.788744 551.213820 462.892570 561.578879 462.927399 571.943937 462.938028 582.308996 462.940981 592.674055 462.941728 603.039113 462.941900 613.404172 462.941936 623.769231 462.941943" /></g><g class="series serie-11 color-11"><path class="line reactive nofill" d="M12.230769 462.941945 L22.595828 462.941945 32.960887 462.941945 43.325945 462.941945 53.691004 462.941945 64.056063 462.941945 74.421121 462.941945 84.786180 462.941945 95.151239 462.941945 105.516297 462.941945 115.881356 462.941945 126.246415 462.941945 136.611473 462.941945 146.976532 462.941944 157.341591 462.941942 167.706649 462.941933 178.071708 462.941893 188.436767 462.941734 198.801825 462.941140 209.166884 462.939084 219.531943 462.932473 229.897001 462.912752 240.262060 462.858177 250.627119 462.718157 260.992177 462.385331 271.357236 461.653016 281.722295 460.163108 292.087353 457.364234 302.452412 452.518586 312.817471 444.806915 323.182529 433.566283 333.547588 418.640705 343.912647 400.740149 354.277705 381.631039 364.642764 363.983355 375.007823 350.813184 385.372881 344.654302 395.737940 346.764837 406.102999 356.708670 416.468057 372.502184 426.833116 391.258797 437.198175 410.044638 447.563233 426.599940 457.928292 439.696224 468.293351 449.098761 478.658409 455.266779 489.023468 458.980091 499.388527 461.037941 509.753585 462.090030 520.118644 462.587063 530.483703 462.804310 540.848761 462.892247 551.213820 462.925238 561.578879 462.936716 571.943937 462.940421 582.308996 462.941531 592.674055 462.941840 603.039113 462.941920 613.404172 462.941939 623.769231 462.941944" /></g><g class="series serie-12 color-12"><path class="line reactive nofill" d="M12.230769 462.941945 L22.595828 462.941945 32.960887 462.941945 43.325945 462.941945 53.691004 462.941945 64.056063 462.941945 74.421121 462.941945 84.786180 462.941945 95.151239 462.941944 105.516297 462.941942 115.881356 462.941933 126.246415 462.941897 136.611473 462.941767 146.976532 462.941326 157.341591 462.939914 167.706649 462.935676 178.071708 462.923723 188.436767 462.892069 198.801825 462.813404 209.166884 462.630010 219.531943 462.229170 229.897001 461.408361 240.262060 459.835030 250.627119 457.015179 260.992177 452.296279 271.357236 444.936885 281.722295 434.268297 292.087353 419.944964 302.452412 402.232031 312.817471 382.228122 323.182529 361.899729 333.547588 343.838466 343.912647 330.747662 354.277705 324.786647 364.642764 326.988864 375.007823 336.969022 385.372881 353.033262 395.737940 372.649078 406.102999 393.095948 416.468057 412.067903 426.833116 428.050608 437.198175 440.409640 447.563233 449.240693 457.928292 455.097151 468.293351 458.712635 478.658409 460.794984 489.023468 461.915713 499.388527 462.480061 509.753585 462.746201 520.118644 462.863834 530.483703 462.912596 540.848761 462.931561 551.213820 462.938486 561.578879 462.940860 571.943937 462.941624 582.308996 462.941856 592.674055 462.941922 603.039113 462.941939 613.404172 462.941944 623.769231 462.941945" /></g><g class="series serie-13 color-13"><path class="line reactive nofill" d="M12.230769 462.930118 L22.595828 462.919930 32.960887 462.901850 43.325945 462.870496 53.691004 462.817369 64.056063 462.729421 74.421121 462.587204 84.786180 462.362588 95.151239 462.016155 105.516297 461.494475 115.881356 460.727636 126.246415 459.627598 136.611473 458.088066 146.976532 455.986719 157.341591 453.190595 167.706649 449.565228 178.071708 444.987766 188.436767 439.363628 198.801825 432.645526 209.166884 424.852816 219.531943 416.088445 229.897001 406.550364 240.262060 396.534350 250.627119 386.425906 260.992177 376.680158 271.357236 367.790439 281.722295 360.248169 292.087353 354.498369 302.452412 350.896353 312.817471 349.671405 323.182529 350.902639 333.547588 354.510538 343.912647 360.265453 354.277705 367.811792 364.642764 376.704355 375.007823 386.451661 385.372881 396.560427 395.737940 406.575671 406.102999 416.112099 416.468057 424.874181 426.833116 432.664219 437.198175 439.379498 447.563233 445.000858 457.928292 449.575732 468.293351 453.198798 478.658409 455.992960 489.023468 458.092693 499.388527 459.630944 509.753585 460.729996 520.118644 461.496098 530.483703 462.017245 540.848761 462.363303 551.213820 462.587661 561.578879 462.729707 571.943937 462.817543 582.308996 462.870600 592.674055 462.901911 603.039113 462.919965 613.404172 462.930138 623.769231 462.935739" /></g></g><g class="titles"><text class="title plot_title" x="400.0" y="26">Iteration #3</text><text class="title" x="462.0" y="580.0">Observation</text><text class="title" transform="rotate(-90 64.000000 282.009619)" x="64.0" y="308.0096189432334">Density</text></g><g class="plot overlay" transform="translate(144, 46)"><g class="series serie-0 color-0" /><g class="series serie-1 color-1" /><g class="series serie-2 color-2" /><g class="series serie-3 color-3" /><g class="series serie-4 color-4" /><g class="series serie-5 color-5" /><g class="series serie-6 color-6" /><g class="series serie-7 color-7" /><g class="series serie-8 color-8" /><g class="series serie-9 color-9" /><g class="series serie-10 color-10" /><g class="series serie-11 color-11" /><g class="series serie-12 color-12" /><g class="series serie-13 color-13" /></g><g class="plot text-overlay" transform="translate(144, 46)"><g class="series serie-0 color-0" /><g class="series serie-1 color-1" /><g class="series serie-2 color-2" /><g class="series serie-3 color-3" /><g class="series serie-4 color-4" /><g class="series serie-5 color-5" /><g class="series serie-6 color-6" /><g class="series serie-7 color-7" /><g class="series serie-8 color-8" /><g class="series serie-9 color-9" /><g class="series serie-10 color-10" /><g class="series serie-11 color-11" /><g class="series serie-12 color-12" /><g class="series serie-13 color-13" /></g><g class="plot tooltip-overlay" transform="translate(144, 46)"><g class="tooltip" style="opacity: 0" transform="translate(0 0)"><rect class="tooltip-box" height="0" rx="0" ry="0" width="0" /><g class="text" /></g></g><g class="legends" transform="translate(10, 56)"><g class="legend reactive activate-serie" id="activate-serie-0"><rect class="color-0 reactive" height="12" width="12" x="0.0" y="0.0" /><text x="17.0" y="9.0">Data</text></g><g class="legend reactive activate-serie" id="activate-serie-1"><rect class="color-1 reactive" height="12" width="12" x="0.0" y="18.0" /><text x="17.0" y="27.0">GMM</text></g><g class="legend reactive activate-serie" id="activate-serie-2"><rect class="color-2 reactive" height="12" width="12" x="0.0" y="36.0" /><text x="17.0" y="45.0">i=0</text></g><g class="legend reactive activate-serie" id="activate-serie-3"><rect class="color-3 reactive" height="12" width="12" x="0.0" y="54.0" /><text x="17.0" y="63.0">i=1</text></g><g class="legend reactive activate-serie" id="activate-serie-4"><rect class="color-4 reactive" height="12" width="12" x="0.0" y="72.0" /><text x="17.0" y="81.0">i=0 k=0</text></g><g class="legend reactive activate-serie" id="activate-serie-5"><rect class="color-5 reactive" height="12" width="12" x="0.0" y="90.0" /><text x="17.0" y="99.0">i=0 k=1</text></g><g class="legend reactive activate-serie" id="activate-serie-6"><rect class="color-6 reactive" height="12" width="12" x="0.0" y="108.0" /><text x="17.0" y="117.0">i=0 k=2</text></g><g class="legend reactive activate-serie" id="activate-serie-7"><rect class="color-7 reactive" height="12" width="12" x="0.0" y="126.0" /><text x="17.0" y="135.0">i=0 k=3</text></g><g class="legend reactive activate-serie" id="activate-serie-8"><rect class="color-8 reactive" height="12" width="12" x="0.0" y="144.0" /><text x="17.0" y="153.0">i=0 k=4</text></g><g class="legend reactive activate-serie" id="activate-serie-9"><rect class="color-9 reactive" height="12" width="12" x="0.0" y="162.0" /><text x="17.0" y="171.0">i=1 k=0</text></g><g class="legend reactive activate-serie" id="activate-serie-10"><rect class="color-10 reactive" height="12" width="12" x="0.0" y="180.0" /><text x="17.0" y="189.0">i=1 k=1</text></g><g class="legend reactive activate-serie" id="activate-serie-11"><rect class="color-11 reactive" height="12" width="12" x="0.0" y="198.0" /><text x="17.0" y="207.0">i=1 k=2</text></g><g class="legend reactive activate-serie" id="activate-serie-12"><rect class="color-12 reactive" height="12" width="12" x="0.0" y="216.0" /><text x="17.0" y="225.0">i=1 k=3</text></g><g class="legend reactive activate-serie" id="activate-serie-13"><rect class="color-13 reactive" height="12" width="12" x="0.0" y="234.0" /><text x="17.0" y="243.0">i=1 k=4</text></g></g><g class="legends" transform="translate(790, 56)" /></g></svg>