<?xml version='1.0' encoding='utf-8'?>
<svg xmlns:xlink="http://www.w3.org/1999/xlink" class="pygal-chart" id="chart-33cce958-a686-4d8d-a903-b6f64efc4715" viewBox="0 0 800 600" xmlns="http://www.w3.org/2000/svg"><!--Generated with pygal 2.4.0 (etree) ©Kozea 2012-2016 on 2018-01-17--><!--http://pygal.org--><!--http://github.com/Kozea/pygal--><defs><style type="text/css">#chart-33cce958-a686-4d8d-a903-b6f64efc4715{-webkit-user-select:none;-webkit-font-smoothing:antialiased;font-family:Consolas,"Liberation Mono",Menlo,Courier,monospace}#chart-33cce958-a686-4d8d-a903-b6f64efc4715 .title{font-family:Consolas,"Liberation Mono",Menlo,Courier,monospace;font-size:16px}#chart-33cce958-a686-4d8d-a903-b6f64efc4715 .legends .legend text{font-family:Consolas,"Liberation Mono",Menlo,Courier,monospace;font-size:10px}#chart-33cce958-a686-4d8d-a903-b6f64efc4715 .axis text{font-family:Consolas,"Liberation Mono",Menlo,Courier,monospace;font-size:10px}#chart-33cce958-a686-4d8d-a903-b6f64efc4715 .axis text.major{font-family:Consolas,"Liberation Mono",Menlo,Courier,monospace;font-size:10px}#chart-33cce958-a686-4d8d-a903-b6f64efc4715 .text-overlay text.value{font-family:Consolas,"Liberation Mono",Menlo,Courier,monospace;font-size:16px}#chart-33cce958-a686-4d8d-a903-b6f64efc4715 .text-overlay text.label{font-family:Consolas,"Liberation Mono",Menlo,Courier,monospace;font-size:10px}#chart-33cce958-a686-4d8d-a903-b6f64efc4715 .tooltip{font-family:Consolas,"Liberation Mono",Menlo,Courier,monospace;font-size:14px}#chart-33cce958-a686-4d8d-a903-b6f64efc4715 text.no_data{font-family:Consolas,"Liberation Mono",Menlo,Courier,monospace;font-size:64px}
#chart-33cce958-a686-4d8d-a903-b6f64efc4715{background-color:rgba(249,249,249,1)}#chart-33cce958-a686-4d8d-a903-b6f64efc4715 path,#chart-33cce958-a686-4d8d-a903-b6f64efc4715 line,#chart-33cce958-a686-4d8d-a903-b6f64efc4715 rect,#chart-33cce958-a686-4d8d-a903-b6f64efc4715 circle{-webkit-transition:150ms;-moz-transition:150ms;transition:150ms}#chart-33cce958-a686-4d8d-a903-b6f64efc4715 .graph &gt; .background{fill:rgba(249,249,249,1)}#chart-33cce958-a686-4d8d-a903-b6f64efc4715 .plot &gt; .background{fill:rgba(255,255,255,1)}#chart-33cce958-a686-4d8d-a903-b6f64efc4715 .graph{fill:rgba(0,0,0,.87)}#chart-33cce958-a686-4d8d-a903-b6f64efc4715 text.no_data{fill:rgba(0,0,0,1)}#chart-33cce958-a686-4d8d-a903-b6f64efc4715 .title{fill:rgba(0,0,0,1)}#chart-33cce958-a686-4d8d-a903-b6f64efc4715 .legends .legend text{fill:rgba(0,0,0,.87)}#chart-33cce958-a686-4d8d-a903-b6f64efc4715 .legends .legend:hover text{fill:rgba(0,0,0,1)}#chart-33cce958-a686-4d8d-a903-b6f64efc4715 .axis .line{stroke:rgba(0,0,0,1)}#chart-33cce958-a686-4d8d-a903-b6f64efc4715 .axis .guide.line{stroke:rgba(0,0,0,.54)}#chart-33cce958-a686-4d8d-a903-b6f64efc4715 .axis .major.line{stroke:rgba(0,0,0,.87)}#chart-33cce958-a686-4d8d-a903-b6f64efc4715 .axis text.major{fill:rgba(0,0,0,1)}#chart-33cce958-a686-4d8d-a903-b6f64efc4715 .axis.y .guides:hover .guide.line,#chart-33cce958-a686-4d8d-a903-b6f64efc4715 .line-graph .axis.x .guides:hover .guide.line,#chart-33cce958-a686-4d8d-a903-b6f64efc4715 .stackedline-graph .axis.x .guides:hover .guide.line,#chart-33cce958-a686-4d8d-a903-b6f64efc4715 .xy-graph .axis.x .guides:hover .guide.line{stroke:rgba(0,0,0,1)}#chart-33cce958-a686-4d8d-a903-b6f64efc4715 .axis .guides:hover text{fill:rgba(0,0,0,1)}#chart-33cce958-a686-4d8d-a903-b6f64efc4715 .reactive{fill-opacity:.7;stroke-opacity:.8}#chart-33cce958-a686-4d8d-a903-b6f64efc4715 .ci{stroke:rgba(0,0,0,.87)}#chart-33cce958-a686-4d8d-a903-b6f64efc4715 .reactive.active,#chart-33cce958-a686-4d8d-a903-b6f64efc4715 .active .reactive{fill-opacity:.8;stroke-opacity:.9;stroke-width:4}#chart-33cce958-a686-4d8d-a903-b6f64efc4715 .ci .reactive.active{stroke-width:1.5}#chart-33cce958-a686-4d8d-a903-b6f64efc4715 .series text{fill:rgba(0,0,0,1)}#chart-33cce958-a686-4d8d-a903-b6f64efc4715 .tooltip rect{fill:rgba(255,255,255,1);stroke:rgba(0,0,0,1);-webkit-transition:opacity 150ms;-moz-transition:opacity 150ms;transition:opacity 150ms}#chart-33cce958-a686-4d8d-a903-b6f64efc4715 .tooltip .label{fill:rgba(0,0,0,.87)}#chart-33cce958-a686-4d8d-a903-b6f64efc4715 .tooltip .label{fill:rgba(0,0,0,.87)}#chart-33cce958-a686-4d8d-a903-b6f64efc4715 .tooltip .legend{font-size:.8em;fill:rgba(0,0,0,.54)}#chart-33cce958-a686-4d8d-a903-b6f64efc4715 .tooltip .x_label{font-size:.6em;fill:rgba(0,0,0,1)}#chart-33cce958-a686-4d8d-a903-b6f64efc4715 .tooltip .xlink{font-size:.5em;text-decoration:underline}#chart-33cce958-a686-4d8d-a903-b6f64efc4715 .tooltip .value{font-size:1.5em}#chart-33cce958-a686-4d8d-a903-b6f64efc4715 .bound{font-size:.5em}#chart-33cce958-a686-4d8d-a903-b6f64efc4715 .max-value{font-size:.75em;fill:rgba(0,0,0,.54)}#chart-33cce958-a686-4d8d-a903-b6f64efc4715 .map-element{fill:rgba(255,255,255,1);stroke:rgba(0,0,0,.54) !important}#chart-33cce958-a686-4d8d-a903-b6f64efc4715 .map-element .reactive{fill-opacity:inherit;stroke-opacity:inherit}#chart-33cce958-a686-4d8d-a903-b6f64efc4715 .color-0,#chart-33cce958-a686-4d8d-a903-b6f64efc4715 .color-0 a:visited{stroke:#909090;fill:#909090}#chart-33cce958-a686-4d8d-a903-b6f64efc4715 .color-1,#chart-33cce958-a686-4d8d-a903-b6f64efc4715 .color-1 a:visited{stroke:#000000;fill:#000000}#chart-33cce958-a686-4d8d-a903-b6f64efc4715 .color-2,#chart-33cce958-a686-4d8d-a903-b6f64efc4715 .color-2 a:visited{stroke:#ff0500;fill:#ff0500}#chart-33cce958-a686-4d8d-a903-b6f64efc4715 .color-3,#chart-33cce958-a686-4d8d-a903-b6f64efc4715 .color-3 a:visited{stroke:#323299;fill:#323299}#chart-33cce958-a686-4d8d-a903-b6f64efc4715 .color-4,#chart-33cce958-a686-4d8d-a903-b6f64efc4715 .color-4 a:visited{stroke:#a3413f;fill:#a3413f}#chart-33cce958-a686-4d8d-a903-b6f64efc4715 .color-5,#chart-33cce958-a686-4d8d-a903-b6f64efc4715 .color-5 a:visited{stroke:#a3413f;fill:#a3413f}#chart-33cce958-a686-4d8d-a903-b6f64efc4715 .color-6,#chart-33cce958-a686-4d8d-a903-b6f64efc4715 .color-6 a:visited{stroke:#a3413f;fill:#a3413f}#chart-33cce958-a686-4d8d-a903-b6f64efc4715 .color-7,#chart-33cce958-a686-4d8d-a903-b6f64efc4715 .color-7 a:visited{stroke:#a3413f;fill:#a3413f}#chart-33cce958-a686-4d8d-a903-b6f64efc4715 .color-8,#chart-33cce958-a686-4d8d-a903-b6f64efc4715 .color-8 a:visited{stroke:#a3413f;fill:#a3413f}#chart-33cce958-a686-4d8d-a903-b6f64efc4715 .color-9,#chart-33cce958-a686-4d8d-a903-b6f64efc4715 .color-9 a:visited{stroke:#657fff;fill:#657fff}#chart-33cce958-a686-4d8d-a903-b6f64efc4715 .color-10,#chart-33cce958-a686-4d8d-a903-b6f64efc4715 .color-10 a:visited{stroke:#657fff;fill:#657fff}#chart-33cce958-a686-4d8d-a903-b6f64efc4715 .color-11,#chart-33cce958-a686-4d8d-a903-b6f64efc4715 .color-11 a:visited{stroke:#657fff;fill:#657fff}#chart-33cce958-a686-4d8d-a903-b6f64efc4715 .color-12,#chart-33cce958-a686-4d8d-a903-b6f64efc4715 .color-12 a:visited{stroke:#657fff;fill:#657fff}#chart-33cce958-a686-4d8d-a903-b6f64efc4715 .color-13,#chart-33cce958-a686-4d8d-a903-b6f64efc4715 .color-13 a:visited{stroke:#657fff;fill:#657fff}#chart-33cce958-a686-4d8d-a903-b6f64efc4715 .text-overlay .color-0 text{fill:black}#chart-33cce958-a686-4d8d-a903-b6f64efc4715 .text-overlay .color-1 text{fill:white}#chart-33cce958-a686-4d8d-a903-b6f64efc4715 .text-overlay .color-2 text{fill:black}#chart-33cce958-a686-4d8d-a903-b6f64efc4715 .text-overlay .color-3 text{fill:black}#chart-33cce958-a686-4d8d-a903-b6f64efc4715 .text-overlay .color-4 text{fill:black}#chart-33cce958-a686-4d8d-a903-b6f64efc4715 .text-overlay .color-5 text{fill:black}#chart-33cce958-a686-4d8d-a903-b6f64efc4715 .text-overlay .color-6 text{fill:black}#chart-33cce958-a686-4d8d-a903-b6f64efc4715 .text-overlay .color-7 text{fill:black}#chart-33cce958-a686-4d8d-a903-b6f64efc4715 .text-overlay .color-8 text{fill:black}#chart-33cce958-a686-4d8d-a903-b6f64efc4715 .text-overlay .color-9 text{fill:black}#chart-33cce958-a686-4d8d-a903-b6f64efc4715 .text-overlay .color-10 text{fill:black}#chart-33cce958-a686-4d8d-a903-b6f64efc4715 .text-overlay .color-11 text{fill:black}#chart-33cce958-a686-4d8d-a903-b6f64efc4715 .text-overlay .color-12 text{fill:black}#chart-33cce958-a686-4d8d-a903-b6f64efc4715 .text-overlay .color-13 text{fill:black}#chart-33cce958-a686-4d8d-a903-b6f64efc4715 .series.serie-1{stroke-width:5}#chart-33cce958-a686-4d8d-a903-b6f64efc4715 .series.serie-2{stroke-width:3}#chart-33cce958-a686-4d8d-a903-b6f64efc4715 .series.serie-3{stroke-width:3}#chart-33cce958-a686-4d8d-a903-b6f64efc4715 .series.serie-4{stroke-width:2;stroke-dasharray:2,2}#chart-33cce958-a686-4d8d-a903-b6f64efc4715 .series.serie-5{stroke-width:2;stroke-dasharray:2,2}#chart-33cce958-a686-4d8d-a903-b6f64efc4715 .series.serie-6{stroke-width:2;stroke-dasharray:2,2}#chart-33cce958-a686-4d8d-a903-b6f64efc4715 .series.serie-7{stroke-width:2;stroke-dasharray:2,2}#chart-33cce958-a686-4d8d-a903-b6f64efc4715 .series.serie-8{stroke-width:2;stroke-dasharray:2,2}#chart-33cce958-a686-4d8d-a903-b6f64efc4715 .series.serie-9{stroke-width:2;stroke-dasharray:2,2}#chart-33cce958-a686-4d8d-a903-b6f64efc4715 .series.serie-10{stroke-width:2;stroke-dasharray:2,2}#chart-33cce958-a686-4d8d-a903-b6f64efc4715 .series.serie-11{stroke-width:2;stroke-dasharray:2,2}#chart-33cce958-a686-4d8d-a903-b6f64efc4715 .series.serie-12{stroke-width:2;stroke-dasharray:2,2}#chart-33cce958-a686-4d8d-a903-b6f64efc4715 .series.serie-13{stroke-width:2;stroke-dasharray:2,2}
#chart-33cce958-a686-4d8d-a903-b6f64efc4715 text.no_data{text-anchor:middle}#chart-33cce958-a686-4d8d-a903-b6f64efc4715 .guide.line{fill:none}#chart-33cce958-a686-4d8d-a903-b6f64efc4715 .centered{text-anchor:middle}#chart-33cce958-a686-4d8d-a903-b6f64efc4715 .title{text-anchor:middle}#chart-33cce958-a686-4d8d-a903-b6f64efc4715 .legends .legend text{fill-opacity:1}#chart-33cce958-a686-4d8d-a903-b6f64efc4715 .axis.x text{text-anchor:middle}#chart-33cce958-a686-4d8d-a903-b6f64efc4715 .axis.x:not(.web) text[transform]{text-anchor:start}#chart-33cce958-a686-4d8d-a903-b6f64efc4715 .axis.x:not(.web) text[transform].backwards{text-anchor:end}#chart-33cce958-a686-4d8d-a903-b6f64efc4715 .axis.y text{text-anchor:end}#chart-33cce958-a686-4d8d-a903-b6f64efc4715 .axis.y text[transform].backwards{text-anchor:start}#chart-33cce958-a686-4d8d-a903-b6f64efc4715 .axis.y2 text{text-anchor:start}#chart-33cce958-a686-4d8d-a903-b6f64efc4715 .axis.y2 text[transform].backwards{text-anchor:end}#chart-33cce958-a686-4d8d-a903-b6f64efc4715 .axis .guide.line{stroke-dasharray:4,4}#chart-33cce958-a686-4d8d-a903-b6f64efc4715 .axis .major.guide.line{stroke-dasharray:6,6}#chart-33cce958-a686-4d8d-a903-b6f64efc4715 .horizontal .axis.y .guide.line,#chart-33cce958-a686-4d8d-a903-b6f64efc4715 .horizontal .axis.y2 .guide.line,#chart-33cce958-a686-4d8d-a903-b6f64efc4715 .vertical .axis.x .guide.line{opacity:0}#chart-33cce958-a686-4d8d-a903-b6f64efc4715 .horizontal .axis.always_show .guide.line,#chart-33cce958-a686-4d8d-a903-b6f64efc4715 .vertical .axis.always_show .guide.line{opacity:1 !important}#chart-33cce958-a686-4d8d-a903-b6f64efc4715 .axis.y .guides:hover .guide.line,#chart-33cce958-a686-4d8d-a903-b6f64efc4715 .axis.y2 .guides:hover .guide.line,#chart-33cce958-a686-4d8d-a903-b6f64efc4715 .axis.x .guides:hover .guide.line{opacity:1}#chart-33cce958-a686-4d8d-a903-b6f64efc4715 .axis .guides:hover text{opacity:1}#chart-33cce958-a686-4d8d-a903-b6f64efc4715 .nofill{fill:none}#chart-33cce958-a686-4d8d-a903-b6f64efc4715 .subtle-fill{fill-opacity:.2}#chart-33cce958-a686-4d8d-a903-b6f64efc4715 .dot{stroke-width:1px;fill-opacity:1}#chart-33cce958-a686-4d8d-a903-b6f64efc4715 .dot.active{stroke-width:5px}#chart-33cce958-a686-4d8d-a903-b6f64efc4715 .dot.negative{fill:transparent}#chart-33cce958-a686-4d8d-a903-b6f64efc4715 text,#chart-33cce958-a686-4d8d-a903-b6f64efc4715 tspan{stroke:none !important}#chart-33cce958-a686-4d8d-a903-b6f64efc4715 .series text.active{opacity:1}#chart-33cce958-a686-4d8d-a903-b6f64efc4715 .tooltip rect{fill-opacity:.95;stroke-width:.5}#chart-33cce958-a686-4d8d-a903-b6f64efc4715 .tooltip text{fill-opacity:1}#chart-33cce958-a686-4d8d-a903-b6f64efc4715 .showable{visibility:hidden}#chart-33cce958-a686-4d8d-a903-b6f64efc4715 .showable.shown{visibility:visible}#chart-33cce958-a686-4d8d-a903-b6f64efc4715 .gauge-background{fill:rgba(229,229,229,1);stroke:none}#chart-33cce958-a686-4d8d-a903-b6f64efc4715 .bg-lines{stroke:rgba(249,249,249,1);stroke-width:2px}</style><script type="text/javascript">window.pygal = window.pygal || {};window.pygal.config = window.pygal.config || {};window.pygal.config['33cce958-a686-4d8d-a903-b6f64efc4715'] = {"disable_xml_declaration": false, "css": ["file://style.css", "file://graph.css"], "show_y_labels": true, "show_y_guides": true, "stroke": true, "force_uri_protocol": "https", "legend_at_bottom": false, "truncate_legend": null, "tooltip_border_radius": 0, "explicit_size": false, "show_dots": false, "inverse_y_axis": false, "x_label_rotation": 60, "margin_left": null, "box_mode": "extremes", "zero": 0, "no_data_text": "No data", "show_legend": true, "legend_at_bottom_columns": null, "logarithmic": false, "order_min": null, "height": 600, "y_title": "Density", "range": [0, 0.27578580090479526], "stroke_style": null, "rounded_bars": null, "print_values_position": "center", "xrange": null, "y_label_rotation": 0, "defs": [], "y_labels_major_count": null, "no_prefix": false, "pretty_print": false, "dots_size": 2.5, "half_pie": false, "secondary_range": null, "x_labels_major_count": null, "interpolation_precision": 250, "interpolate": null, "truncate_label": null, "margin_right": null, "x_labels_major_every": 2, "x_labels": ["-8.96", "-8.76", "-8.56", "-8.36", "-8.16", "-7.96", "-7.76", "-7.56", "-7.36", "-7.16", "-6.96", "-6.76", "-6.56", "-6.36", "-6.16", "-5.96", "-5.76", "-5.56", "-5.36", "-5.16", "-4.96", "-4.76", "-4.56", "-4.36", "-4.16", "-3.96", "-3.76", "-3.56", "-3.36", "-3.16", "-2.96", "-2.76", "-2.56", "-2.36", "-2.16", "-1.96", "-1.76", "-1.56", "-1.36", "-1.16", "-0.96", "-0.76", "-0.56", "-0.36", "-0.16", "0.04", "0.24", "0.44", "0.64", "0.84", "1.04", "1.24", "1.43", "1.63", "1.83", "2.03", "2.23", "2.43", "2.63", "2.83"], "include_x_axis": false, "width": 800, "show_x_guides": false, "formatter": null, "show_minor_x_labels": false, "spacing": 10, "stack_from_top": false, "legend_box_size": 12, "strict": false, "classes": ["pygal-chart"], "js": ["//kozea.github.io/pygal.js/2.0.x/pygal-tooltips.min.js"], "show_x_labels": true, "x_title": "Observation", "print_values": false, "title": "Iteration #14", "dynamic_print_values": false, "max_scale": 16, "margin": 20, "legends": ["Data", "GMM", "i=0", "i=1", "i=0 k=0", "i=0 k=1", "i=0 k=2", "i=0 k=3", "i=0 k=4", "i=1 k=0", "i=1 k=1", "i=1 k=2", "i=1 k=3", "i=1 k=4"], "interpolation_parameters": {}, "allow_interruptions": false, "min_scale": 4, "style": {"transition": "150ms", "label_font_size": 10, "major_label_font_size": 10, "value_colors": [], "title_font_family": "Consolas, \"Liberation Mono\", Menlo, Courier, monospace", "value_font_family": "Consolas, \"Liberation Mono\", Menlo, Courier, monospace", "no_data_font_size": 64, "guide_stroke_dasharray": "4,4", "tooltip_font_size": 14, "tooltip_font_family": "Consolas, \"Liberation Mono\", Menlo, Courier, monospace", "background": "rgba(249, 249, 249, 1)", "value_label_font_family": "Consolas, \"Liberation Mono\", Menlo, Courier, monospace", "stroke_opacity_hover": ".9", "ci_colors": [], "value_font_size": 16, "plot_background": "rgba(255, 255, 255, 1)", "label_font_family": "Consolas, \"Liberation Mono\", Menlo, Courier, monospace", "foreground": "rgba(0, 0, 0, .87)", "major_label_font_family": "Consolas, \"Liberation Mono\", Menlo, Courier, monospace", "stroke_opacity": ".8", "colors": ["#909090", "#000000", "#ff0500", "#323299", "#a3413f", "#a3413f", "#a3413f", "#a3413f", "#a3413f", "#657fff", "#657fff", "#657fff", "#657fff", "#657fff"], "value_label_font_size": 10, "value_background": "rgba(229, 229, 229, 1)", "no_data_font_family": "Consolas, \"Liberation Mono\", Menlo, Courier, monospace", "legend_font_size": 10, "foreground_strong": "rgba(0, 0, 0, 1)", "legend_font_family": "Consolas, \"Liberation Mono\", Menlo, Courier, monospace", "title_font_size": 16, "foreground_subtle": "rgba(0, 0, 0, .54)", "major_guide_stroke_dasharray": "6,6", "font_family": "Consolas, \"Liberation Mono\", Menlo, Courier, monospace", "opacity_hover": ".8", "opacity": ".7"}, "margin_top": null, "x_labels_major": null, "print_zeroes": true, "y_labels": null, "fill": false, "y_labels_major_every": null, "inner_radius": 0, "margin_bottom": null, "show_only_major_dots": false, "missing_value_fill_truncation": "x", "y_labels_major": null, "tooltip_fancy_mode": true, "show_minor_y_labels": true, "print_labels": false}</script><script type="text/javascript" xlink:href="https://kozea.github.io/pygal.js/2.0.x/pygal-tooltips.min.js" /></defs><title>Iteration #14</title><g class="graph line-graph vertical"><rect class="background" height="600" width="800" x="0" y="0" /><g class="plot" transform="translate(144, 46)"><rect class="background" height="472.01923788646684" width="636.0" x="0" y="0" /><g class="axis y always_show"><g class="guides"><path class="axis major line" d="M0.000000 462.941945 h636.000000" /><text class="major" x="-5" y="466.44194485">0</text><title>0</title></g><g class="guides"><path class="guide line" d="M0.000000 430.027658 h636.000000" /><text class="" x="-5" y="433.527657724">0.02</text><title>0.02</title></g><g class="guides"><path class="guide line" d="M0.000000 397.113371 h636.000000" /><text class="" x="-5" y="400.613370598">0.04</text><title>0.04</title></g><g class="guides"><path class="guide line" d="M0.000000 364.199083 h636.000000" /><text class="" x="-5" y="367.699083472">0.06</text><title>0.06</title></g><g class="guides"><path class="guide line" d="M0.000000 331.284796 h636.000000" /><text class="" x="-5" y="334.784796346">0.08</text><title>0.08</title></g><g class="guides"><path class="guide line" d="M0.000000 298.370509 h636.000000" /><text class="" x="-5" y="301.87050922">0.1</text><title>0.1</title></g><g class="guides"><path class="guide line" d="M0.000000 265.456222 h636.000000" /><text class="" x="-5" y="268.956222094">0.12</text><title>0.12</title></g><g class="guides"><path class="guide line" d="M0.000000 232.541935 h636.000000" /><text class="" x="-5" y="236.041934968">0.14</text><title>0.14</title></g><g class="guides"><path class="guide line" d="M0.000000 199.627648 h636.000000" /><text class="" x="-5" y="203.127647841">0.16</text><title>0.16</title></g><g class="guides"><path class="guide line" d="M0.000000 166.713361 h636.000000" /><text class="" x="-5" y="170.213360715">0.18</text><title>0.18</title></g><g class="guides"><path class="guide line" d="M0.000000 133.799074 h636.000000" /><text class="" x="-5" y="137.299073589">0.2</text><title>0.2</title></g><g class="guides"><path class="guide line" d="M0.000000 100.884786 h636.000000" /><text class="" x="-5" y="104.384786463">0.22</text><title>0.22</title></g><g class="guides"><path class="guide line" d="M0.000000 67.970499 h636.000000" /><text class="" x="-5" y="71.4704993371">0.24</text><title>0.24</title></g><g class="guides"><path class="guide line" d="M0.000000 35.056212 h636.000000" /><text class="" x="-5" y="38.5562122111">0.26</text><title>0.26</title></g></g><g class="axis x"><g class="guides"><path class="major line" d="M12.230769 0.000000 v472.019238" /><text class="major" transform="rotate(60 12.230769 487.019238)" x="12.230769230769232" y="487.01923788646684">-8.96</text></g><g class="guides"><path class="major guide line" d="M32.960887 0.000000 v472.019238" /><text class="major" transform="rotate(60 32.960887 487.019238)" x="32.96088657105606" y="487.01923788646684">-8.56</text></g><g class="guides"><path class="major guide line" d="M53.691004 0.000000 v472.019238" /><text class="major" transform="rotate(60 53.691004 487.019238)" x="53.6910039113429" y="487.01923788646684">-8.16</text></g><g class="guides"><path class="major guide line" d="M74.421121 0.000000 v472.019238" /><text class="major" transform="rotate(60 74.421121 487.019238)" x="74.42112125162973" y="487.01923788646684">-7.76</text></g><g class="guides"><path class="major guide line" d="M95.151239 0.000000 v472.019238" /><text class="major" transform="rotate(60 95.151239 487.019238)" x="95.15123859191655" y="487.01923788646684">-7.36</text></g><g class="guides"><path class="major guide line" d="M115.881356 0.000000 v472.019238" /><text class="major" transform="rotate(60 115.881356 487.019238)" x="115.88135593220338" y="487.01923788646684">-6.96</text></g><g class="guides"><path class="major guide line" d="M136.611473 0.000000 v472.019238" /><text class="major" transform="rotate(60 136.611473 487.019238)" x="136.61147327249023" y="487.01923788646684">-6.56</text></g><g class="guides"><path class="major guide line" d="M157.341591 0.000000 v472.019238" /><text class="major" transform="rotate(60 157.341591 487.019238)" x="157.34159061277705" y="487.01923788646684">-6.16</text></g><g class="guides"><path class="major guide line" d="M178.071708 0.000000 v472.019238" /><text class="major" transform="rotate(60 178.071708 487.019238)" x="178.0717079530639" y="487.01923788646684">-5.76</text></g><g class="guides"><path class="major guide line" d="M198.801825 0.000000 v472.019238" /><text class="major" transform="rotate(60 198.801825 487.019238)" x="198.80182529335073" y="487.01923788646684">-5.36</text></g><g class="guides"><path class="major guide line" d="M219.531943 0.000000 v472.019238" /><text class="major" transform="rotate(60 219.531943 487.019238)" x="219.53194263363756" y="487.01923788646684">-4.96</text></g><g class="guides"><path class="major guide line" d="M240.262060 0.000000 v472.019238" /><text class="major" transform="rotate(60 240.262060 487.019238)" x="240.2620599739244" y="487.01923788646684">-4.56</text></g><g class="guides"><path class="major guide line" d="M260.992177 0.000000 v472.019238" /><text class="major" transform="rotate(60 260.992177 487.019238)" x="260.99217731421123" y="487.01923788646684">-4.16</text></g><g class="guides"><path class="major guide line" d="M281.722295 0.000000 v472.019238" /><text class="major" transform="rotate(60 281.722295 487.019238)" x="281.722294654498" y="487.01923788646684">-3.76</text></g><g class="guides"><path class="major guide line" d="M302.452412 0.000000 v472.019238" /><text class="major" transform="rotate(60 302.452412 487.019238)" x="302.4524119947849" y="487.01923788646684">-3.36</text></g><g class="guides"><path class="major guide line" d="M323.182529 0.000000 v472.019238" /><text class="major" transform="rotate(60 323.182529 487.019238)" x="323.1825293350717" y="487.01923788646684">-2.96</text></g><g class="guides"><path class="major guide line" d="M343.912647 0.000000 v472.019238" /><text class="major" transform="rotate(60 343.912647 487.019238)" x="343.91264667535853" y="487.01923788646684">-2.56</text></g><g class="guides"><path class="major guide line" d="M364.642764 0.000000 v472.019238" /><text class="major" transform="rotate(60 364.642764 487.019238)" x="364.64276401564535" y="487.01923788646684">-2.16</text></g><g class="guides"><path class="major guide line" d="M385.372881 0.000000 v472.019238" /><text class="major" transform="rotate(60 385.372881 487.019238)" x="385.37288135593224" y="487.01923788646684">-1.76</text></g><g class="guides"><path class="major guide line" d="M406.102999 0.000000 v472.019238" /><text class="major" transform="rotate(60 406.102999 487.019238)" x="406.102998696219" y="487.01923788646684">-1.36</text></g><g class="guides"><path class="major guide line" d="M426.833116 0.000000 v472.019238" /><text class="major" transform="rotate(60 426.833116 487.019238)" x="426.8331160365058" y="487.01923788646684">-0.96</text></g><g class="guides"><path class="major guide line" d="M447.563233 0.000000 v472.019238" /><text class="major" transform="rotate(60 447.563233 487.019238)" x="447.56323337679265" y="487.01923788646684">-0.56</text></g><g class="guides"><path class="major guide line" d="M468.293351 0.000000 v472.019238" /><text class="major" transform="rotate(60 468.293351 487.019238)" x="468.29335071707953" y="487.01923788646684">-0.16</text></g><g class="guides"><path class="major guide line" d="M489.023468 0.000000 v472.019238" /><text class="major" transform="rotate(60 489.023468 487.019238)" x="489.02346805736636" y="487.01923788646684">0.24</text></g><g class="guides"><path class="major guide line" d="M509.753585 0.000000 v472.019238" /><text class="major" transform="rotate(60 509.753585 487.019238)" x="509.75358539765324" y="487.01923788646684">0.64</text></g><g class="guides"><path class="major guide line" d="M530.483703 0.000000 v472.019238" /><text class="major" transform="rotate(60 530.483703 487.019238)" x="530.48370273794" y="487.01923788646684">1.04</text></g><g class="guides"><path class="major guide line" d="M551.213820 0.000000 v472.019238" /><text class="major" transform="rotate(60 551.213820 487.019238)" x="551.213820078227" y="487.01923788646684">1.43</text></g><g class="guides"><path class="major guide line" d="M571.943937 0.000000 v472.019238" /><text class="major" transform="rotate(60 571.943937 487.019238)" x="571.9439374185138" y="487.01923788646684">1.83</text></g><g class="guides"><path class="major guide line" d="M592.674055 0.000000 v472.019238" /><text class="major" transform="rotate(60 592.674055 487.019238)" x="592.6740547588006" y="487.01923788646684">2.23</text></g><g class="guides"><path class="major guide line" d="M613.404172 0.000000 v472.019238" /><text class="major" transform="rotate(60 613.404172 487.019238)" x="613.4041720990874" y="487.01923788646684">2.63</text></g></g><g class="series serie-0 color-0"><path class="line reactive" d="M12.230769 462.941945 L12.230769 462.019456 22.595828 462.941945 32.960887 461.096967 43.325945 462.019456 53.691004 459.251988 64.056063 462.019456 74.421121 458.329499 84.786180 462.019456 95.151239 458.329499 105.516297 462.019456 115.881356 448.182119 126.246415 460.174477 136.611473 457.407010 146.976532 457.407010 157.341591 451.872075 167.706649 448.182119 178.071708 454.639543 188.436767 445.414651 198.801825 442.647184 209.166884 436.189760 219.531943 437.112249 229.897001 392.832771 240.262060 396.522728 250.627119 376.227967 260.992177 355.933206 271.357236 351.320760 281.722295 325.491065 292.087353 277.521630 302.452412 283.056565 312.817471 202.800010 323.182529 188.040184 333.547588 169.590402 343.912647 123.465945 354.277705 95.791271 364.642764 67.194108 375.007823 82.876423 385.372881 60.736684 395.737940 80.108956 406.102999 29.372054 416.468057 9.077293 426.833116 70.884065 437.198175 69.039086 447.563233 41.364413 457.928292 40.441923 468.293351 91.178826 478.658409 140.993239 489.023468 214.792369 499.388527 259.071847 509.753585 321.801108 520.118644 364.235608 530.483703 408.515086 540.848761 430.654825 551.213820 448.182119 561.578879 455.562032 571.943937 458.329499 582.308996 458.329499 592.674055 462.019456 603.039113 462.941945 613.404172 462.019456 623.769231 462.941945" /></g><g class="series serie-1 color-1"><path class="line reactive nofill" d="M12.230769 462.906319 L22.595828 462.880806 32.960887 462.839036 43.325945 462.772057 53.691004 462.666872 64.056063 462.505117 74.421121 462.261569 84.786180 461.902590 95.151239 461.384707 105.516297 460.653596 115.881356 459.643828 126.246415 458.279790 136.611473 456.478177 146.976532 454.152381 157.341591 451.218852 167.706649 447.605045 178.071708 443.257779 188.436767 438.149475 198.801825 432.277740 209.166884 425.651459 219.531943 418.255064 229.897001 409.984927 240.262060 400.561483 250.627119 389.439897 260.992177 375.766673 271.357236 358.446079 281.722295 336.369252 292.087353 308.807654 302.452412 275.887177 312.817471 238.966557 323.182529 200.686602 333.547588 164.498156 343.912647 133.681013 354.277705 110.187854 364.642764 93.862076 375.007823 82.556122 385.372881 73.522389 395.737940 65.685395 406.102999 60.518409 416.468057 59.166226 426.833116 58.660321 437.198175 53.976131 447.563233 45.655459 457.928292 43.344100 468.293351 59.696591 478.658409 100.883848 489.023468 162.594594 499.388527 233.329423 509.753585 300.735458 520.118644 356.404420 530.483703 397.311318 540.848761 424.604336 551.213820 441.443209 561.578879 451.223308 571.943937 456.664889 582.308996 459.611663 592.674055 461.184480 603.039113 462.018634 613.404172 462.459789 623.769231 462.692412" /></g><g class="series serie-2 color-2"><path class="line reactive nofill" d="M12.230769 462.941945 L22.595828 462.941945 32.960887 462.941945 43.325945 462.941945 53.691004 462.941945 64.056063 462.941945 74.421121 462.941945 84.786180 462.941945 95.151239 462.941945 105.516297 462.941945 115.881356 462.941945 126.246415 462.941945 136.611473 462.941945 146.976532 462.941945 157.341591 462.941945 167.706649 462.941945 178.071708 462.941945 188.436767 462.941944 198.801825 462.941943 209.166884 462.941940 219.531943 462.941931 229.897001 462.941905 240.262060 462.941834 250.627119 462.941642 260.992177 462.941137 271.357236 462.939833 281.722295 462.936522 292.087353 462.928231 302.452412 462.907677 312.817471 462.857062 323.182529 462.733170 333.547588 462.432771 343.912647 461.717496 354.277705 460.067000 364.642764 456.433788 375.007823 448.924746 385.372881 434.565835 395.737940 409.493027 406.102999 369.999347 416.468057 314.594671 426.833116 246.477856 437.198175 174.940642 447.563233 114.072782 457.928292 78.372893 468.293351 77.007833 478.658409 109.860438 489.023468 167.739324 499.388527 236.549012 509.753585 302.843089 520.118644 357.799665 530.483703 398.229071 540.848761 425.199536 551.213820 441.822591 561.578879 451.460668 571.943937 456.810583 582.308996 459.699382 592.674055 461.236281 603.039113 462.048637 613.404172 462.476833 623.769231 462.701908" /></g><g class="series serie-3 color-3"><path class="line reactive nofill" d="M12.230769 462.906319 L22.595828 462.880806 32.960887 462.839036 43.325945 462.772057 53.691004 462.666872 64.056063 462.505117 74.421121 462.261569 84.786180 461.902590 95.151239 461.384707 105.516297 460.653596 115.881356 459.643828 126.246415 458.279790 136.611473 456.478177 146.976532 454.152381 157.341591 451.218852 167.706649 447.605045 178.071708 443.257779 188.436767 438.149475 198.801825 432.277741 209.166884 425.651464 219.531943 418.255078 229.897001 409.984966 240.262060 400.561594 250.627119 389.440199 260.992177 375.767480 271.357236 358.448191 281.722295 336.374676 292.087353 308.821368 302.452412 275.921444 312.817471 239.051439 323.182529 200.895377 333.547588 165.007330 343.912647 134.905462 354.277705 113.062799 364.642764 100.370232 375.007823 96.573320 385.372881 101.898499 395.737940 119.134313 406.102999 153.461007 416.468057 207.513499 426.833116 275.124409 437.198175 341.977434 447.563233 394.524622 457.928292 427.913153 468.293351 445.630704 478.658409 453.965355 489.023468 457.797215 499.388527 459.722356 509.753585 460.834314 520.118644 461.546700 530.483703 462.024193 540.848761 462.346745 551.213820 462.562563 561.578879 462.704584 571.943937 462.796251 582.308996 462.854226 592.674055 462.890144 603.039113 462.911942 613.404172 462.924901 623.769231 462.932449" /></g><g class="series serie-4 color-4"><path class="line reactive nofill" d="M12.230769 462.941945 L22.595828 462.941945 32.960887 462.941945 43.325945 462.941945 53.691004 462.941945 64.056063 462.941945 74.421121 462.941945 84.786180 462.941945 95.151239 462.941945 105.516297 462.941945 115.881356 462.941945 126.246415 462.941945 136.611473 462.941945 146.976532 462.941945 157.341591 462.941945 167.706649 462.941945 178.071708 462.941945 188.436767 462.941945 198.801825 462.941945 209.166884 462.941945 219.531943 462.941945 229.897001 462.941945 240.262060 462.941945 250.627119 462.941945 260.992177 462.941944 271.357236 462.941941 281.722295 462.941917 292.087353 462.941776 302.452412 462.941036 312.817471 462.937543 323.182529 462.922775 333.547588 462.866866 343.912647 462.677513 354.277705 462.104434 364.642764 460.556596 375.007823 456.832556 385.372881 448.870842 395.737940 433.798369 406.102999 408.661683 416.468057 372.029065 426.833116 326.013626 437.198175 277.483966 447.563233 237.059671 457.928292 215.539970 468.293351 219.268303 478.658409 247.118643 489.023468 291.043285 499.388527 339.821257 509.753585 383.641804 520.118644 417.011435 530.483703 439.019093 540.848761 451.737018 551.213820 458.222516 561.578879 461.154411 571.943937 462.333104 582.308996 462.755463 592.674055 462.890581 603.039113 462.929223 613.404172 462.939111 623.769231 462.941377" /></g><g class="series serie-5 color-5"><path class="line reactive nofill" d="M12.230769 462.941945 L22.595828 462.941945 32.960887 462.941945 43.325945 462.941945 53.691004 462.941945 64.056063 462.941945 74.421121 462.941945 84.786180 462.941945 95.151239 462.941945 105.516297 462.941945 115.881356 462.941945 126.246415 462.941945 136.611473 462.941945 146.976532 462.941945 157.341591 462.941945 167.706649 462.941945 178.071708 462.941945 188.436767 462.941945 198.801825 462.941945 209.166884 462.941945 219.531943 462.941945 229.897001 462.941945 240.262060 462.941944 250.627119 462.941942 260.992177 462.941930 271.357236 462.941874 281.722295 462.941640 292.087353 462.940732 302.452412 462.937481 312.817471 462.926777 323.182529 462.894343 333.547588 462.803982 343.912647 462.572667 354.277705 462.029104 364.642764 460.857985 375.007823 458.548199 385.372881 454.386707 395.737940 447.557532 406.102999 437.392506 416.468057 423.755721 426.833116 407.436310 437.198175 390.332628 447.563233 375.221820 457.928292 365.070108 468.293351 362.093813 478.658409 366.973251 489.023468 378.600133 499.388527 394.486518 509.753585 411.629295 520.118644 427.420336 530.483703 440.232191 540.848761 449.533333 551.213820 455.630439 561.578879 459.259964 571.943937 461.229535 582.308996 462.206440 592.674055 462.650192 603.039113 462.835065 613.404172 462.905785 623.769231 462.930647" /></g><g class="series serie-6 color-6"><path class="line reactive nofill" d="M12.230769 462.941945 L22.595828 462.941945 32.960887 462.941945 43.325945 462.941945 53.691004 462.941945 64.056063 462.941945 74.421121 462.941945 84.786180 462.941945 95.151239 462.941945 105.516297 462.941945 115.881356 462.941945 126.246415 462.941945 136.611473 462.941945 146.976532 462.941945 157.341591 462.941945 167.706649 462.941945 178.071708 462.941945 188.436767 462.941945 198.801825 462.941945 209.166884 462.941945 219.531943 462.941944 229.897001 462.941942 240.262060 462.941932 250.627119 462.941898 260.992177 462.941785 271.357236 462.941428 281.722295 462.940368 292.087353 462.937413 302.452412 462.929675 312.817471 462.910636 323.182529 462.866659 333.547588 462.771344 343.912647 462.577632 354.277705 462.208796 364.642764 461.551560 375.007823 460.457081 385.372881 458.756947 395.737940 456.299730 406.102999 453.007228 416.468057 448.938883 426.833116 444.341836 437.198175 439.659268 447.563233 435.477218 457.928292 432.410833 468.293351 430.957788 478.658409 431.366307 489.023468 433.565833 499.388527 437.186951 509.753585 441.662832 520.118644 446.373927 530.483703 450.785333 540.848761 454.536137 551.213820 457.464584 561.578879 459.578470 571.943937 460.995554 582.308996 461.880502 592.674055 462.396453 603.039113 462.677762 613.404172 462.821373 623.769231 462.890087" /></g><g class="series serie-7 color-7"><path class="line reactive nofill" d="M12.230769 462.941945 L22.595828 462.941945 32.960887 462.941945 43.325945 462.941945 53.691004 462.941945 64.056063 462.941945 74.421121 462.941945 84.786180 462.941945 95.151239 462.941945 105.516297 462.941945 115.881356 462.941945 126.246415 462.941945 136.611473 462.941945 146.976532 462.941945 157.341591 462.941945 167.706649 462.941945 178.071708 462.941945 188.436767 462.941945 198.801825 462.941944 209.166884 462.941943 219.531943 462.941938 229.897001 462.941924 240.262060 462.941886 250.627119 462.941785 260.992177 462.941528 271.357236 462.940906 281.722295 462.939465 292.087353 462.936283 302.452412 462.929582 312.817471 462.916122 323.182529 462.890354 333.547588 462.843355 343.912647 462.761736 354.277705 462.626873 364.642764 462.415042 375.007823 462.099113 385.372881 461.652392 395.737940 461.054711 406.102999 460.300139 416.468057 459.404706 426.833116 458.411758 437.198175 457.392413 447.563233 456.439377 457.928292 455.654055 468.293351 455.129138 478.658409 454.930686 489.023468 455.084474 499.388527 455.570491 509.753585 456.327218 520.118644 457.264420 530.483703 458.280779 540.848761 459.281631 551.213820 460.192591 561.578879 460.966653 571.943937 461.584506 582.308996 462.049672 592.674055 462.380945 603.039113 462.604567 613.404172 462.747874 623.769231 462.835165" /></g><g class="series serie-8 color-8"><path class="line reactive nofill" d="M12.230769 462.941945 L22.595828 462.941945 32.960887 462.941945 43.325945 462.941945 53.691004 462.941945 64.056063 462.941945 74.421121 462.941945 84.786180 462.941945 95.151239 462.941945 105.516297 462.941945 115.881356 462.941945 126.246415 462.941945 136.611473 462.941945 146.976532 462.941945 157.341591 462.941945 167.706649 462.941945 178.071708 462.941945 188.436767 462.941945 198.801825 462.941944 209.166884 462.941943 219.531943 462.941939 229.897001 462.941929 240.262060 462.941906 250.627119 462.941852 260.992177 462.941729 271.357236 462.941464 281.722295 462.940911 292.087353 462.939806 302.452412 462.937683 312.817471 462.933764 323.182529 462.926818 333.547588 462.915004 343.912647 462.895726 354.277705 462.865572 364.642764 462.820384 375.007823 462.755576 385.372881 462.666726 395.737940 462.550464 406.102999 462.405570 416.468057 462.234075 426.833116 462.042106 437.198175 461.840146 447.563233 461.642475 457.928292 461.465706 468.293351 461.326570 478.658409 461.239330 489.023468 461.213379 499.388527 461.251574 509.753585 461.349720 520.118644 461.497326 530.483703 461.679454 540.848761 461.879198 551.213820 462.080241 561.578879 462.268949 571.943937 462.435662 582.308996 462.575085 592.674055 462.685889 603.039113 462.769800 613.404172 462.830469 623.769231 462.872411" /></g><g class="series serie-9 color-9"><path class="line reactive nofill" d="M12.230769 462.941945 L22.595828 462.941945 32.960887 462.941945 43.325945 462.941945 53.691004 462.941945 64.056063 462.941945 74.421121 462.941945 84.786180 462.941945 95.151239 462.941945 105.516297 462.941945 115.881356 462.941945 126.246415 462.941945 136.611473 462.941945 146.976532 462.941945 157.341591 462.941945 167.706649 462.941945 178.071708 462.941945 188.436767 462.941945 198.801825 462.941945 209.166884 462.941945 219.531943 462.941945 229.897001 462.941945 240.262060 462.941945 250.627119 462.941945 260.992177 462.941945 271.357236 462.941945 281.722295 462.941945 292.087353 462.941942 302.452412 462.941896 312.817471 462.941361 323.182529 462.936430 333.547588 462.900963 343.912647 462.702293 354.277705 461.839091 364.642764 458.948010 375.007823 451.559629 385.372881 437.414524 395.737940 417.888305 406.102999 400.367144 416.468057 394.548308 426.833116 404.114693 437.198175 423.123155 447.563233 441.731773 457.928292 454.051020 468.293351 460.009051 478.658409 462.180581 489.023468 462.786407 499.388527 462.916940 509.753585 462.938781 520.118644 462.941630 530.483703 462.941920 540.848761 462.941943 551.213820 462.941945 561.578879 462.941945 571.943937 462.941945 582.308996 462.941945 592.674055 462.941945 603.039113 462.941945 613.404172 462.941945 623.769231 462.941945" /></g><g class="series serie-10 color-10"><path class="line reactive nofill" d="M12.230769 462.941945 L22.595828 462.941945 32.960887 462.941945 43.325945 462.941945 53.691004 462.941945 64.056063 462.941945 74.421121 462.941945 84.786180 462.941945 95.151239 462.941945 105.516297 462.941945 115.881356 462.941945 126.246415 462.941945 136.611473 462.941945 146.976532 462.941945 157.341591 462.941945 167.706649 462.941945 178.071708 462.941945 188.436767 462.941945 198.801825 462.941945 209.166884 462.941945 219.531943 462.941945 229.897001 462.941945 240.262060 462.941944 250.627119 462.941934 260.992177 462.941853 271.357236 462.941264 281.722295 462.937643 292.087353 462.918699 302.452412 462.834443 312.817471 462.516532 323.182529 461.501363 333.547588 458.767509 343.912647 452.590749 354.277705 440.977722 364.642764 423.060232 375.007823 400.974387 385.372881 380.549460 395.737940 369.197950 406.102999 371.671127 416.468057 386.900027 426.833116 408.728524 437.198175 429.867451 447.563233 445.675130 457.928292 455.228225 468.293351 459.993126 478.658409 461.977305 489.023468 462.671913 499.388527 462.877261 509.753585 462.928686 520.118644 462.939619 530.483703 462.941596 540.848761 462.941900 551.213820 462.941940 561.578879 462.941944 571.943937 462.941945 582.308996 462.941945 592.674055 462.941945 603.039113 462.941945 613.404172 462.941945 623.769231 462.941945" /></g><g class="series serie-11 color-11"><path class="line reactive nofill" d="M12.230769 462.941945 L22.595828 462.941945 32.960887 462.941945 43.325945 462.941945 53.691004 462.941945 64.056063 462.941945 74.421121 462.941945 84.786180 462.941945 95.151239 462.941945 105.516297 462.941945 115.881356 462.941945 126.246415 462.941945 136.611473 462.941945 146.976532 462.941945 157.341591 462.941945 167.706649 462.941944 178.071708 462.941938 188.436767 462.941907 198.801825 462.941754 209.166884 462.941065 219.531943 462.938249 229.897001 462.927798 240.262060 462.892613 250.627119 462.785228 260.992177 462.488403 271.357236 461.746218 281.722295 460.070110 292.087353 456.658460 302.452412 450.417599 312.817471 440.200244 323.182529 425.323204 333.547588 406.252920 343.912647 385.119094 354.277705 365.615981 364.642764 352.059267 375.007823 347.858694 385.372881 354.130656 395.737940 369.218291 406.102999 389.399531 416.468057 410.371703 426.833116 428.708115 437.198175 442.633137 447.563233 451.966383 457.928292 457.538353 468.293351 460.518396 478.658409 461.951719 489.023468 462.573366 499.388527 462.816965 509.753585 462.903338 520.118644 462.931081 530.483703 462.939160 540.848761 462.941294 551.213820 462.941806 561.578879 462.941918 571.943937 462.941940 582.308996 462.941944 592.674055 462.941945 603.039113 462.941945 613.404172 462.941945 623.769231 462.941945" /></g><g class="series serie-12 color-12"><path class="line reactive nofill" d="M12.230769 462.941945 L22.595828 462.941945 32.960887 462.941945 43.325945 462.941945 53.691004 462.941945 64.056063 462.941945 74.421121 462.941945 84.786180 462.941945 95.151239 462.941945 105.516297 462.941944 115.881356 462.941942 126.246415 462.941929 136.611473 462.941876 146.976532 462.941660 157.341591 462.940847 167.706649 462.938005 178.071708 462.928795 188.436767 462.901125 198.801825 462.824086 209.166884 462.625436 219.531943 462.151365 229.897001 461.105227 240.262060 458.972997 250.627119 454.964854 260.992177 448.029461 271.357236 437.012593 281.722295 421.007624 292.087353 399.863085 302.452412 374.687960 312.817471 348.094568 323.182529 323.932566 333.547588 306.445890 343.912647 299.072133 354.277705 303.342718 364.642764 318.365055 375.007823 341.126252 385.372881 367.477012 395.737940 393.356121 406.102999 415.764552 416.468057 433.192191 426.833116 445.493004 437.198175 453.422951 447.563233 458.111921 457.928292 460.662423 468.293351 461.941312 478.658409 462.533398 489.023468 462.786797 499.388527 462.887144 509.753585 462.923941 520.118644 462.936443 530.483703 462.940381 540.848761 462.941532 551.213820 462.941843 561.578879 462.941922 571.943937 462.941940 582.308996 462.941944 592.674055 462.941945 603.039113 462.941945 613.404172 462.941945 623.769231 462.941945" /></g><g class="series serie-13 color-13"><path class="line reactive nofill" d="M12.230769 462.906319 L22.595828 462.880806 32.960887 462.839036 43.325945 462.772057 53.691004 462.666872 64.056063 462.505117 74.421121 462.261569 84.786180 461.902590 95.151239 461.384708 105.516297 460.653597 115.881356 459.643831 126.246415 458.279805 136.611473 456.478245 146.976532 454.152666 157.341591 451.219950 167.706649 447.608986 178.071708 443.270936 188.436767 438.190333 198.801825 432.395791 209.166884 425.968852 219.531943 419.049353 229.897001 411.835831 240.262060 404.579875 250.627119 397.574019 260.992177 391.133599 271.357236 385.573951 281.722295 381.185133 292.087353 378.206962 302.452412 376.807325 312.817471 377.066513 323.182529 378.969592 333.547588 382.407828 343.912647 387.188973 354.277705 393.055066 364.642764 399.705447 375.007823 406.822138 385.372881 414.094627 395.737940 421.241425 406.102999 428.026433 416.468057 434.269049 426.833116 439.847853 437.198175 444.698518 447.563233 448.807195 457.928292 452.200912 468.293351 454.936598 478.658409 457.090131 489.023468 458.746510 499.388527 459.991825 509.753585 460.907347 520.118644 461.565707 530.483703 462.028915 540.848761 462.347855 551.213820 462.562808 561.578879 462.704635 571.943937 462.796261 582.308996 462.854228 592.674055 462.890145 603.039113 462.911942 613.404172 462.924901 623.769231 462.932449" /></g></g><g class="titles"><text class="title plot_title" x="400.0" y="26">Iteration #14</text><text class="title" x="462.0" y="580.0">Observation</text><text class="title" transform="rotate(-90 64.000000 282.009619)" x="64.0" y="308.0096189432334">Density</text></g><g class="plot overlay" transform="translate(144, 46)"><g class="series serie-0 color-0" /><g class="series serie-1 color-1" /><g class="series serie-2 color-2" /><g class="series serie-3 color-3" /><g class="series serie-4 color-4" /><g class="series serie-5 color-5" /><g class="series serie-6 color-6" /><g class="series serie-7 color-7" /><g class="series serie-8 color-8" /><g class="series serie-9 color-9" /><g class="series serie-10 color-10" /><g class="series serie-11 color-11" /><g class="series serie-12 color-12" /><g class="series serie-13 color-13" /></g><g class="plot text-overlay" transform="translate(144, 46)"><g class="series serie-0 color-0" /><g class="series serie-1 color-1" /><g class="series serie-2 color-2" /><g class="series serie-3 color-3" /><g class="series serie-4 color-4" /><g class="series serie-5 color-5" /><g class="series serie-6 color-6" /><g class="series serie-7 color-7" /><g class="series serie-8 color-8" /><g class="series serie-9 color-9" /><g class="series serie-10 color-10" /><g class="series serie-11 color-11" /><g class="series serie-12 color-12" /><g class="series serie-13 color-13" /></g><g class="plot tooltip-overlay" transform="translate(144, 46)"><g class="tooltip" style="opacity: 0" transform="translate(0 0)"><rect class="tooltip-box" height="0" rx="0" ry="0" width="0" /><g class="text" /></g></g><g class="legends" transform="translate(10, 56)"><g class="legend reactive activate-serie" id="activate-serie-0"><rect class="color-0 reactive" height="12" width="12" x="0.0" y="0.0" /><text x="17.0" y="9.0">Data</text></g><g class="legend reactive activate-serie" id="activate-serie-1"><rect class="color-1 reactive" height="12" width="12" x="0.0" y="18.0" /><text x="17.0" y="27.0">GMM</text></g><g class="legend reactive activate-serie" id="activate-serie-2"><rect class="color-2 reactive" height="12" width="12" x="0.0" y="36.0" /><text x="17.0" y="45.0">i=0</text></g><g class="legend reactive activate-serie" id="activate-serie-3"><rect class="color-3 reactive" height="12" width="12" x="0.0" y="54.0" /><text x="17.0" y="63.0">i=1</text></g><g class="legend reactive activate-serie" id="activate-serie-4"><rect class="color-4 reactive" height="12" width="12" x="0.0" y="72.0" /><text x="17.0" y="81.0">i=0 k=0</text></g><g class="legend reactive activate-serie" id="activate-serie-5"><rect class="color-5 reactive" height="12" width="12" x="0.0" y="90.0" /><text x="17.0" y="99.0">i=0 k=1</text></g><g class="legend reactive activate-serie" id="activate-serie-6"><rect class="color-6 reactive" height="12" width="12" x="0.0" y="108.0" /><text x="17.0" y="117.0">i=0 k=2</text></g><g class="legend reactive activate-serie" id="activate-serie-7"><rect class="color-7 reactive" height="12" width="12" x="0.0" y="126.0" /><text x="17.0" y="135.0">i=0 k=3</text></g><g class="legend reactive activate-serie" id="activate-serie-8"><rect class="color-8 reactive" height="12" width="12" x="0.0" y="144.0" /><text x="17.0" y="153.0">i=0 k=4</text></g><g class="legend reactive activate-serie" id="activate-serie-9"><rect class="color-9 reactive" height="12" width="12" x="0.0" y="162.0" /><text x="17.0" y="171.0">i=1 k=0</text></g><g class="legend reactive activate-serie" id="activate-serie-10"><rect class="color-10 reactive" height="12" width="12" x="0.0" y="180.0" /><text x="17.0" y="189.0">i=1 k=1</text></g><g class="legend reactive activate-serie" id="activate-serie-11"><rect class="color-11 reactive" height="12" width="12" x="0.0" y="198.0" /><text x="17.0" y="207.0">i=1 k=2</text></g><g class="legend reactive activate-serie" id="activate-serie-12"><rect class="color-12 reactive" height="12" width="12" x="0.0" y="216.0" /><text x="17.0" y="225.0">i=1 k=3</text></g><g class="legend reactive activate-serie" id="activate-serie-13"><rect class="color-13 reactive" height="12" width="12" x="0.0" y="234.0" /><text x="17.0" y="243.0">i=1 k=4</text></g></g><g class="legends" transform="translate(790, 56)" /></g></svg>