<?xml version='1.0' encoding='utf-8'?>
<svg xmlns:xlink="http://www.w3.org/1999/xlink" class="pygal-chart" id="chart-2dbd1052-037d-471d-8440-82d11df5e70e" viewBox="0 0 800 600" xmlns="http://www.w3.org/2000/svg"><!--Generated with pygal 2.4.0 (etree) ©Kozea 2012-2016 on 2017-12-18--><!--http://pygal.org--><!--http://github.com/Kozea/pygal--><defs><style type="text/css">#chart-2dbd1052-037d-471d-8440-82d11df5e70e{-webkit-user-select:none;-webkit-font-smoothing:antialiased;font-family:Consolas,"Liberation Mono",Menlo,Courier,monospace}#chart-2dbd1052-037d-471d-8440-82d11df5e70e .title{font-family:Consolas,"Liberation Mono",Menlo,Courier,monospace;font-size:16px}#chart-2dbd1052-037d-471d-8440-82d11df5e70e .legends .legend text{font-family:Consolas,"Liberation Mono",Menlo,Courier,monospace;font-size:10px}#chart-2dbd1052-037d-471d-8440-82d11df5e70e .axis text{font-family:Consolas,"Liberation Mono",Menlo,Courier,monospace;font-size:10px}#chart-2dbd1052-037d-471d-8440-82d11df5e70e .axis text.major{font-family:Consolas,"Liberation Mono",Menlo,Courier,monospace;font-size:10px}#chart-2dbd1052-037d-471d-8440-82d11df5e70e .text-overlay text.value{font-family:Consolas,"Liberation Mono",Menlo,Courier,monospace;font-size:16px}#chart-2dbd1052-037d-471d-8440-82d11df5e70e .text-overlay text.label{font-family:Consolas,"Liberation Mono",Menlo,Courier,monospace;font-size:10px}#chart-2dbd1052-037d-471d-8440-82d11df5e70e .tooltip{font-family:Consolas,"Liberation Mono",Menlo,Courier,monospace;font-size:14px}#chart-2dbd1052-037d-471d-8440-82d11df5e70e text.no_data{font-family:Consolas,"Liberation Mono",Menlo,Courier,monospace;font-size:64px}
#chart-2dbd1052-037d-471d-8440-82d11df5e70e{background-color:rgba(249,249,249,1)}#chart-2dbd1052-037d-471d-8440-82d11df5e70e path,#chart-2dbd1052-037d-471d-8440-82d11df5e70e line,#chart-2dbd1052-037d-471d-8440-82d11df5e70e rect,#chart-2dbd1052-037d-471d-8440-82d11df5e70e circle{-webkit-transition:150ms;-moz-transition:150ms;transition:150ms}#chart-2dbd1052-037d-471d-8440-82d11df5e70e .graph &gt; .background{fill:rgba(249,249,249,1)}#chart-2dbd1052-037d-471d-8440-82d11df5e70e .plot &gt; .background{fill:rgba(255,255,255,1)}#chart-2dbd1052-037d-471d-8440-82d11df5e70e .graph{fill:rgba(0,0,0,.87)}#chart-2dbd1052-037d-471d-8440-82d11df5e70e text.no_data{fill:rgba(0,0,0,1)}#chart-2dbd1052-037d-471d-8440-82d11df5e70e .title{fill:rgba(0,0,0,1)}#chart-2dbd1052-037d-471d-8440-82d11df5e70e .legends .legend text{fill:rgba(0,0,0,.87)}#chart-2dbd1052-037d-471d-8440-82d11df5e70e .legends .legend:hover text{fill:rgba(0,0,0,1)}#chart-2dbd1052-037d-471d-8440-82d11df5e70e .axis .line{stroke:rgba(0,0,0,1)}#chart-2dbd1052-037d-471d-8440-82d11df5e70e .axis .guide.line{stroke:rgba(0,0,0,.54)}#chart-2dbd1052-037d-471d-8440-82d11df5e70e .axis .major.line{stroke:rgba(0,0,0,.87)}#chart-2dbd1052-037d-471d-8440-82d11df5e70e .axis text.major{fill:rgba(0,0,0,1)}#chart-2dbd1052-037d-471d-8440-82d11df5e70e .axis.y .guides:hover .guide.line,#chart-2dbd1052-037d-471d-8440-82d11df5e70e .line-graph .axis.x .guides:hover .guide.line,#chart-2dbd1052-037d-471d-8440-82d11df5e70e .stackedline-graph .axis.x .guides:hover .guide.line,#chart-2dbd1052-037d-471d-8440-82d11df5e70e .xy-graph .axis.x .guides:hover .guide.line{stroke:rgba(0,0,0,1)}#chart-2dbd1052-037d-471d-8440-82d11df5e70e .axis .guides:hover text{fill:rgba(0,0,0,1)}#chart-2dbd1052-037d-471d-8440-82d11df5e70e .reactive{fill-opacity:.7;stroke-opacity:.8}#chart-2dbd1052-037d-471d-8440-82d11df5e70e .ci{stroke:rgba(0,0,0,.87)}#chart-2dbd1052-037d-471d-8440-82d11df5e70e .reactive.active,#chart-2dbd1052-037d-471d-8440-82d11df5e70e .active .reactive{fill-opacity:.8;stroke-opacity:.9;stroke-width:4}#chart-2dbd1052-037d-471d-8440-82d11df5e70e .ci .reactive.active{stroke-width:1.5}#chart-2dbd1052-037d-471d-8440-82d11df5e70e .series text{fill:rgba(0,0,0,1)}#chart-2dbd1052-037d-471d-8440-82d11df5e70e .tooltip rect{fill:rgba(255,255,255,1);stroke:rgba(0,0,0,1);-webkit-transition:opacity 150ms;-moz-transition:opacity 150ms;transition:opacity 150ms}#chart-2dbd1052-037d-471d-8440-82d11df5e70e .tooltip .label{fill:rgba(0,0,0,.87)}#chart-2dbd1052-037d-471d-8440-82d11df5e70e .tooltip .label{fill:rgba(0,0,0,.87)}#chart-2dbd1052-037d-471d-8440-82d11df5e70e .tooltip .legend{font-size:.8em;fill:rgba(0,0,0,.54)}#chart-2dbd1052-037d-471d-8440-82d11df5e70e .tooltip .x_label{font-size:.6em;fill:rgba(0,0,0,1)}#chart-2dbd1052-037d-471d-8440-82d11df5e70e .tooltip .xlink{font-size:.5em;text-decoration:underline}#chart-2dbd1052-037d-471d-8440-82d11df5e70e .tooltip .value{font-size:1.5em}#chart-2dbd1052-037d-471d-8440-82d11df5e70e .bound{font-size:.5em}#chart-2dbd1052-037d-471d-8440-82d11df5e70e .max-value{font-size:.75em;fill:rgba(0,0,0,.54)}#chart-2dbd1052-037d-471d-8440-82d11df5e70e .map-element{fill:rgba(255,255,255,1);stroke:rgba(0,0,0,.54) !important}#chart-2dbd1052-037d-471d-8440-82d11df5e70e .map-element .reactive{fill-opacity:inherit;stroke-opacity:inherit}#chart-2dbd1052-037d-471d-8440-82d11df5e70e .color-0,#chart-2dbd1052-037d-471d-8440-82d11df5e70e .color-0 a:visited{stroke:#909090;fill:#909090}#chart-2dbd1052-037d-471d-8440-82d11df5e70e .color-1,#chart-2dbd1052-037d-471d-8440-82d11df5e70e .color-1 a:visited{stroke:#000000;fill:#000000}#chart-2dbd1052-037d-471d-8440-82d11df5e70e .color-2,#chart-2dbd1052-037d-471d-8440-82d11df5e70e .color-2 a:visited{stroke:#ff0500;fill:#ff0500}#chart-2dbd1052-037d-471d-8440-82d11df5e70e .color-3,#chart-2dbd1052-037d-471d-8440-82d11df5e70e .color-3 a:visited{stroke:#323299;fill:#323299}#chart-2dbd1052-037d-471d-8440-82d11df5e70e .color-4,#chart-2dbd1052-037d-471d-8440-82d11df5e70e .color-4 a:visited{stroke:#a3413f;fill:#a3413f}#chart-2dbd1052-037d-471d-8440-82d11df5e70e .color-5,#chart-2dbd1052-037d-471d-8440-82d11df5e70e .color-5 a:visited{stroke:#a3413f;fill:#a3413f}#chart-2dbd1052-037d-471d-8440-82d11df5e70e .color-6,#chart-2dbd1052-037d-471d-8440-82d11df5e70e .color-6 a:visited{stroke:#a3413f;fill:#a3413f}#chart-2dbd1052-037d-471d-8440-82d11df5e70e .color-7,#chart-2dbd1052-037d-471d-8440-82d11df5e70e .color-7 a:visited{stroke:#a3413f;fill:#a3413f}#chart-2dbd1052-037d-471d-8440-82d11df5e70e .color-8,#chart-2dbd1052-037d-471d-8440-82d11df5e70e .color-8 a:visited{stroke:#a3413f;fill:#a3413f}#chart-2dbd1052-037d-471d-8440-82d11df5e70e .color-9,#chart-2dbd1052-037d-471d-8440-82d11df5e70e .color-9 a:visited{stroke:#657fff;fill:#657fff}#chart-2dbd1052-037d-471d-8440-82d11df5e70e .color-10,#chart-2dbd1052-037d-471d-8440-82d11df5e70e .color-10 a:visited{stroke:#657fff;fill:#657fff}#chart-2dbd1052-037d-471d-8440-82d11df5e70e .color-11,#chart-2dbd1052-037d-471d-8440-82d11df5e70e .color-11 a:visited{stroke:#657fff;fill:#657fff}#chart-2dbd1052-037d-471d-8440-82d11df5e70e .color-12,#chart-2dbd1052-037d-471d-8440-82d11df5e70e .color-12 a:visited{stroke:#657fff;fill:#657fff}#chart-2dbd1052-037d-471d-8440-82d11df5e70e .color-13,#chart-2dbd1052-037d-471d-8440-82d11df5e70e .color-13 a:visited{stroke:#657fff;fill:#657fff}#chart-2dbd1052-037d-471d-8440-82d11df5e70e .text-overlay .color-0 text{fill:black}#chart-2dbd1052-037d-471d-8440-82d11df5e70e .text-overlay .color-1 text{fill:white}#chart-2dbd1052-037d-471d-8440-82d11df5e70e .text-overlay .color-2 text{fill:black}#chart-2dbd1052-037d-471d-8440-82d11df5e70e .text-overlay .color-3 text{fill:black}#chart-2dbd1052-037d-471d-8440-82d11df5e70e .text-overlay .color-4 text{fill:black}#chart-2dbd1052-037d-471d-8440-82d11df5e70e .text-overlay .color-5 text{fill:black}#chart-2dbd1052-037d-471d-8440-82d11df5e70e .text-overlay .color-6 text{fill:black}#chart-2dbd1052-037d-471d-8440-82d11df5e70e .text-overlay .color-7 text{fill:black}#chart-2dbd1052-037d-471d-8440-82d11df5e70e .text-overlay .color-8 text{fill:black}#chart-2dbd1052-037d-471d-8440-82d11df5e70e .text-overlay .color-9 text{fill:black}#chart-2dbd1052-037d-471d-8440-82d11df5e70e .text-overlay .color-10 text{fill:black}#chart-2dbd1052-037d-471d-8440-82d11df5e70e .text-overlay .color-11 text{fill:black}#chart-2dbd1052-037d-471d-8440-82d11df5e70e .text-overlay .color-12 text{fill:black}#chart-2dbd1052-037d-471d-8440-82d11df5e70e .text-overlay .color-13 text{fill:black}#chart-2dbd1052-037d-471d-8440-82d11df5e70e .series.serie-1{stroke-width:5}#chart-2dbd1052-037d-471d-8440-82d11df5e70e .series.serie-2{stroke-width:3}#chart-2dbd1052-037d-471d-8440-82d11df5e70e .series.serie-3{stroke-width:3}#chart-2dbd1052-037d-471d-8440-82d11df5e70e .series.serie-4{stroke-width:2;stroke-dasharray:2,2}#chart-2dbd1052-037d-471d-8440-82d11df5e70e .series.serie-5{stroke-width:2;stroke-dasharray:2,2}#chart-2dbd1052-037d-471d-8440-82d11df5e70e .series.serie-6{stroke-width:2;stroke-dasharray:2,2}#chart-2dbd1052-037d-471d-8440-82d11df5e70e .series.serie-7{stroke-width:2;stroke-dasharray:2,2}#chart-2dbd1052-037d-471d-8440-82d11df5e70e .series.serie-8{stroke-width:2;stroke-dasharray:2,2}#chart-2dbd1052-037d-471d-8440-82d11df5e70e .series.serie-9{stroke-width:2;stroke-dasharray:2,2}#chart-2dbd1052-037d-471d-8440-82d11df5e70e .series.serie-10{stroke-width:2;stroke-dasharray:2,2}#chart-2dbd1052-037d-471d-8440-82d11df5e70e .series.serie-11{stroke-width:2;stroke-dasharray:2,2}#chart-2dbd1052-037d-471d-8440-82d11df5e70e .series.serie-12{stroke-width:2;stroke-dasharray:2,2}#chart-2dbd1052-037d-471d-8440-82d11df5e70e .series.serie-13{stroke-width:2;stroke-dasharray:2,2}
#chart-2dbd1052-037d-471d-8440-82d11df5e70e text.no_data{text-anchor:middle}#chart-2dbd1052-037d-471d-8440-82d11df5e70e .guide.line{fill:none}#chart-2dbd1052-037d-471d-8440-82d11df5e70e .centered{text-anchor:middle}#chart-2dbd1052-037d-471d-8440-82d11df5e70e .title{text-anchor:middle}#chart-2dbd1052-037d-471d-8440-82d11df5e70e .legends .legend text{fill-opacity:1}#chart-2dbd1052-037d-471d-8440-82d11df5e70e .axis.x text{text-anchor:middle}#chart-2dbd1052-037d-471d-8440-82d11df5e70e .axis.x:not(.web) text[transform]{text-anchor:start}#chart-2dbd1052-037d-471d-8440-82d11df5e70e .axis.x:not(.web) text[transform].backwards{text-anchor:end}#chart-2dbd1052-037d-471d-8440-82d11df5e70e .axis.y text{text-anchor:end}#chart-2dbd1052-037d-471d-8440-82d11df5e70e .axis.y text[transform].backwards{text-anchor:start}#chart-2dbd1052-037d-471d-8440-82d11df5e70e .axis.y2 text{text-anchor:start}#chart-2dbd1052-037d-471d-8440-82d11df5e70e .axis.y2 text[transform].backwards{text-anchor:end}#chart-2dbd1052-037d-471d-8440-82d11df5e70e .axis .guide.line{stroke-dasharray:4,4}#chart-2dbd1052-037d-471d-8440-82d11df5e70e .axis .major.guide.line{stroke-dasharray:6,6}#chart-2dbd1052-037d-471d-8440-82d11df5e70e .horizontal .axis.y .guide.line,#chart-2dbd1052-037d-471d-8440-82d11df5e70e .horizontal .axis.y2 .guide.line,#chart-2dbd1052-037d-471d-8440-82d11df5e70e .vertical .axis.x .guide.line{opacity:0}#chart-2dbd1052-037d-471d-8440-82d11df5e70e .horizontal .axis.always_show .guide.line,#chart-2dbd1052-037d-471d-8440-82d11df5e70e .vertical .axis.always_show .guide.line{opacity:1 !important}#chart-2dbd1052-037d-471d-8440-82d11df5e70e .axis.y .guides:hover .guide.line,#chart-2dbd1052-037d-471d-8440-82d11df5e70e .axis.y2 .guides:hover .guide.line,#chart-2dbd1052-037d-471d-8440-82d11df5e70e .axis.x .guides:hover .guide.line{opacity:1}#chart-2dbd1052-037d-471d-8440-82d11df5e70e .axis .guides:hover text{opacity:1}#chart-2dbd1052-037d-471d-8440-82d11df5e70e .nofill{fill:none}#chart-2dbd1052-037d-471d-8440-82d11df5e70e .subtle-fill{fill-opacity:.2}#chart-2dbd1052-037d-471d-8440-82d11df5e70e .dot{stroke-width:1px;fill-opacity:1}#chart-2dbd1052-037d-471d-8440-82d11df5e70e .dot.active{stroke-width:5px}#chart-2dbd1052-037d-471d-8440-82d11df5e70e .dot.negative{fill:transparent}#chart-2dbd1052-037d-471d-8440-82d11df5e70e text,#chart-2dbd1052-037d-471d-8440-82d11df5e70e tspan{stroke:none !important}#chart-2dbd1052-037d-471d-8440-82d11df5e70e .series text.active{opacity:1}#chart-2dbd1052-037d-471d-8440-82d11df5e70e .tooltip rect{fill-opacity:.95;stroke-width:.5}#chart-2dbd1052-037d-471d-8440-82d11df5e70e .tooltip text{fill-opacity:1}#chart-2dbd1052-037d-471d-8440-82d11df5e70e .showable{visibility:hidden}#chart-2dbd1052-037d-471d-8440-82d11df5e70e .showable.shown{visibility:visible}#chart-2dbd1052-037d-471d-8440-82d11df5e70e .gauge-background{fill:rgba(229,229,229,1);stroke:none}#chart-2dbd1052-037d-471d-8440-82d11df5e70e .bg-lines{stroke:rgba(249,249,249,1);stroke-width:2px}</style><script type="text/javascript">window.pygal = window.pygal || {};window.pygal.config = window.pygal.config || {};window.pygal.config['2dbd1052-037d-471d-8440-82d11df5e70e'] = {"interpolate": null, "pretty_print": false, "x_labels_major": null, "no_data_text": "No data", "inverse_y_axis": false, "truncate_legend": null, "css": ["file://style.css", "file://graph.css"], "secondary_range": null, "formatter": null, "interpolation_precision": 250, "zero": 0, "allow_interruptions": false, "defs": [], "width": 800, "xrange": null, "margin_top": null, "y_title": "Density", "show_only_major_dots": false, "rounded_bars": null, "legends": ["Data", "GMM", "i=0", "i=1", "i=0 k=0", "i=0 k=1", "i=0 k=2", "i=0 k=3", "i=0 k=4", "i=1 k=0", "i=1 k=1", "i=1 k=2", "i=1 k=3", "i=1 k=4"], "print_values": false, "show_x_labels": true, "x_labels_major_count": null, "truncate_label": null, "x_labels": ["-8.96", "-8.76", "-8.56", "-8.36", "-8.16", "-7.96", "-7.76", "-7.56", "-7.36", "-7.16", "-6.96", "-6.76", "-6.56", "-6.36", "-6.16", "-5.96", "-5.76", "-5.56", "-5.36", "-5.16", "-4.96", "-4.76", "-4.56", "-4.36", "-4.16", "-3.96", "-3.76", "-3.56", "-3.36", "-3.16", "-2.96", "-2.76", "-2.56", "-2.36", "-2.16", "-1.96", "-1.76", "-1.56", "-1.36", "-1.16", "-0.96", "-0.76", "-0.56", "-0.36", "-0.16", "0.04", "0.24", "0.44", "0.64", "0.84", "1.04", "1.24", "1.43", "1.63", "1.83", "2.03", "2.23", "2.43", "2.63", "2.83"], "title": "Iteration #14", "show_y_guides": true, "show_x_guides": false, "fill": false, "print_zeroes": true, "show_y_labels": true, "js": ["//kozea.github.io/pygal.js/2.0.x/pygal-tooltips.min.js"], "order_min": null, "print_labels": false, "margin": 20, "inner_radius": 0, "legend_at_bottom": false, "dots_size": 2.5, "explicit_size": false, "show_minor_y_labels": true, "y_labels": null, "margin_right": null, "show_legend": true, "no_prefix": false, "style": {"foreground_strong": "rgba(0, 0, 0, 1)", "ci_colors": [], "stroke_opacity_hover": ".9", "foreground_subtle": "rgba(0, 0, 0, .54)", "opacity_hover": ".8", "label_font_family": "Consolas, \"Liberation Mono\", Menlo, Courier, monospace", "opacity": ".7", "tooltip_font_family": "Consolas, \"Liberation Mono\", Menlo, Courier, monospace", "stroke_opacity": ".8", "colors": ["#909090", "#000000", "#ff0500", "#323299", "#a3413f", "#a3413f", "#a3413f", "#a3413f", "#a3413f", "#657fff", "#657fff", "#657fff", "#657fff", "#657fff"], "transition": "150ms", "value_label_font_size": 10, "no_data_font_size": 64, "guide_stroke_dasharray": "4,4", "tooltip_font_size": 14, "major_label_font_family": "Consolas, \"Liberation Mono\", Menlo, Courier, monospace", "label_font_size": 10, "value_colors": [], "font_family": "Consolas, \"Liberation Mono\", Menlo, Courier, monospace", "major_label_font_size": 10, "legend_font_family": "Consolas, \"Liberation Mono\", Menlo, Courier, monospace", "value_font_size": 16, "legend_font_size": 10, "major_guide_stroke_dasharray": "6,6", "title_font_family": "Consolas, \"Liberation Mono\", Menlo, Courier, monospace", "plot_background": "rgba(255, 255, 255, 1)", "value_font_family": "Consolas, \"Liberation Mono\", Menlo, Courier, monospace", "background": "rgba(249, 249, 249, 1)", "foreground": "rgba(0, 0, 0, .87)", "title_font_size": 16, "value_background": "rgba(229, 229, 229, 1)", "value_label_font_family": "Consolas, \"Liberation Mono\", Menlo, Courier, monospace", "no_data_font_family": "Consolas, \"Liberation Mono\", Menlo, Courier, monospace"}, "margin_bottom": null, "tooltip_fancy_mode": true, "logarithmic": false, "missing_value_fill_truncation": "x", "spacing": 10, "max_scale": 16, "y_labels_major_count": null, "x_title": "Observation", "stroke": true, "y_label_rotation": 0, "show_dots": false, "half_pie": false, "legend_box_size": 12, "dynamic_print_values": false, "legend_at_bottom_columns": null, "disable_xml_declaration": false, "classes": ["pygal-chart"], "margin_left": null, "force_uri_protocol": "https", "x_label_rotation": 60, "print_values_position": "center", "x_labels_major_every": 2, "strict": false, "height": 600, "stack_from_top": false, "include_x_axis": false, "y_labels_major_every": null, "box_mode": "extremes", "interpolation_parameters": {}, "min_scale": 4, "show_minor_x_labels": false, "stroke_style": null, "range": [0, 0.27578580090479526], "tooltip_border_radius": 0, "y_labels_major": null}</script><script type="text/javascript" xlink:href="https://kozea.github.io/pygal.js/2.0.x/pygal-tooltips.min.js" /></defs><title>Iteration #14</title><g class="graph line-graph vertical"><rect class="background" height="600" width="800" x="0" y="0" /><g class="plot" transform="translate(144, 46)"><rect class="background" height="472.01923788646684" width="636.0" x="0" y="0" /><g class="axis y always_show"><g class="guides"><path class="axis major line" d="M0.000000 462.941945 h636.000000" /><text class="major" x="-5" y="466.44194485">0</text><title>0</title></g><g class="guides"><path class="guide line" d="M0.000000 430.027658 h636.000000" /><text class="" x="-5" y="433.527657724">0.02</text><title>0.02</title></g><g class="guides"><path class="guide line" d="M0.000000 397.113371 h636.000000" /><text class="" x="-5" y="400.613370598">0.04</text><title>0.04</title></g><g class="guides"><path class="guide line" d="M0.000000 364.199083 h636.000000" /><text class="" x="-5" y="367.699083472">0.06</text><title>0.06</title></g><g class="guides"><path class="guide line" d="M0.000000 331.284796 h636.000000" /><text class="" x="-5" y="334.784796346">0.08</text><title>0.08</title></g><g class="guides"><path class="guide line" d="M0.000000 298.370509 h636.000000" /><text class="" x="-5" y="301.87050922">0.1</text><title>0.1</title></g><g class="guides"><path class="guide line" d="M0.000000 265.456222 h636.000000" /><text class="" x="-5" y="268.956222094">0.12</text><title>0.12</title></g><g class="guides"><path class="guide line" d="M0.000000 232.541935 h636.000000" /><text class="" x="-5" y="236.041934968">0.14</text><title>0.14</title></g><g class="guides"><path class="guide line" d="M0.000000 199.627648 h636.000000" /><text class="" x="-5" y="203.127647841">0.16</text><title>0.16</title></g><g class="guides"><path class="guide line" d="M0.000000 166.713361 h636.000000" /><text class="" x="-5" y="170.213360715">0.18</text><title>0.18</title></g><g class="guides"><path class="guide line" d="M0.000000 133.799074 h636.000000" /><text class="" x="-5" y="137.299073589">0.2</text><title>0.2</title></g><g class="guides"><path class="guide line" d="M0.000000 100.884786 h636.000000" /><text class="" x="-5" y="104.384786463">0.22</text><title>0.22</title></g><g class="guides"><path class="guide line" d="M0.000000 67.970499 h636.000000" /><text class="" x="-5" y="71.4704993371">0.24</text><title>0.24</title></g><g class="guides"><path class="guide line" d="M0.000000 35.056212 h636.000000" /><text class="" x="-5" y="38.5562122111">0.26</text><title>0.26</title></g></g><g class="axis x"><g class="guides"><path class="major line" d="M12.230769 0.000000 v472.019238" /><text class="major" transform="rotate(60 12.230769 487.019238)" x="12.230769230769232" y="487.01923788646684">-8.96</text></g><g class="guides"><path class="major guide line" d="M32.960887 0.000000 v472.019238" /><text class="major" transform="rotate(60 32.960887 487.019238)" x="32.96088657105606" y="487.01923788646684">-8.56</text></g><g class="guides"><path class="major guide line" d="M53.691004 0.000000 v472.019238" /><text class="major" transform="rotate(60 53.691004 487.019238)" x="53.6910039113429" y="487.01923788646684">-8.16</text></g><g class="guides"><path class="major guide line" d="M74.421121 0.000000 v472.019238" /><text class="major" transform="rotate(60 74.421121 487.019238)" x="74.42112125162973" y="487.01923788646684">-7.76</text></g><g class="guides"><path class="major guide line" d="M95.151239 0.000000 v472.019238" /><text class="major" transform="rotate(60 95.151239 487.019238)" x="95.15123859191655" y="487.01923788646684">-7.36</text></g><g class="guides"><path class="major guide line" d="M115.881356 0.000000 v472.019238" /><text class="major" transform="rotate(60 115.881356 487.019238)" x="115.88135593220338" y="487.01923788646684">-6.96</text></g><g class="guides"><path class="major guide line" d="M136.611473 0.000000 v472.019238" /><text class="major" transform="rotate(60 136.611473 487.019238)" x="136.61147327249023" y="487.01923788646684">-6.56</text></g><g class="guides"><path class="major guide line" d="M157.341591 0.000000 v472.019238" /><text class="major" transform="rotate(60 157.341591 487.019238)" x="157.34159061277705" y="487.01923788646684">-6.16</text></g><g class="guides"><path class="major guide line" d="M178.071708 0.000000 v472.019238" /><text class="major" transform="rotate(60 178.071708 487.019238)" x="178.0717079530639" y="487.01923788646684">-5.76</text></g><g class="guides"><path class="major guide line" d="M198.801825 0.000000 v472.019238" /><text class="major" transform="rotate(60 198.801825 487.019238)" x="198.80182529335073" y="487.01923788646684">-5.36</text></g><g class="guides"><path class="major guide line" d="M219.531943 0.000000 v472.019238" /><text class="major" transform="rotate(60 219.531943 487.019238)" x="219.53194263363756" y="487.01923788646684">-4.96</text></g><g class="guides"><path class="major guide line" d="M240.262060 0.000000 v472.019238" /><text class="major" transform="rotate(60 240.262060 487.019238)" x="240.2620599739244" y="487.01923788646684">-4.56</text></g><g class="guides"><path class="major guide line" d="M260.992177 0.000000 v472.019238" /><text class="major" transform="rotate(60 260.992177 487.019238)" x="260.99217731421123" y="487.01923788646684">-4.16</text></g><g class="guides"><path class="major guide line" d="M281.722295 0.000000 v472.019238" /><text class="major" transform="rotate(60 281.722295 487.019238)" x="281.722294654498" y="487.01923788646684">-3.76</text></g><g class="guides"><path class="major guide line" d="M302.452412 0.000000 v472.019238" /><text class="major" transform="rotate(60 302.452412 487.019238)" x="302.4524119947849" y="487.01923788646684">-3.36</text></g><g class="guides"><path class="major guide line" d="M323.182529 0.000000 v472.019238" /><text class="major" transform="rotate(60 323.182529 487.019238)" x="323.1825293350717" y="487.01923788646684">-2.96</text></g><g class="guides"><path class="major guide line" d="M343.912647 0.000000 v472.019238" /><text class="major" transform="rotate(60 343.912647 487.019238)" x="343.91264667535853" y="487.01923788646684">-2.56</text></g><g class="guides"><path class="major guide line" d="M364.642764 0.000000 v472.019238" /><text class="major" transform="rotate(60 364.642764 487.019238)" x="364.64276401564535" y="487.01923788646684">-2.16</text></g><g class="guides"><path class="major guide line" d="M385.372881 0.000000 v472.019238" /><text class="major" transform="rotate(60 385.372881 487.019238)" x="385.37288135593224" y="487.01923788646684">-1.76</text></g><g class="guides"><path class="major guide line" d="M406.102999 0.000000 v472.019238" /><text class="major" transform="rotate(60 406.102999 487.019238)" x="406.102998696219" y="487.01923788646684">-1.36</text></g><g class="guides"><path class="major guide line" d="M426.833116 0.000000 v472.019238" /><text class="major" transform="rotate(60 426.833116 487.019238)" x="426.8331160365058" y="487.01923788646684">-0.96</text></g><g class="guides"><path class="major guide line" d="M447.563233 0.000000 v472.019238" /><text class="major" transform="rotate(60 447.563233 487.019238)" x="447.56323337679265" y="487.01923788646684">-0.56</text></g><g class="guides"><path class="major guide line" d="M468.293351 0.000000 v472.019238" /><text class="major" transform="rotate(60 468.293351 487.019238)" x="468.29335071707953" y="487.01923788646684">-0.16</text></g><g class="guides"><path class="major guide line" d="M489.023468 0.000000 v472.019238" /><text class="major" transform="rotate(60 489.023468 487.019238)" x="489.02346805736636" y="487.01923788646684">0.24</text></g><g class="guides"><path class="major guide line" d="M509.753585 0.000000 v472.019238" /><text class="major" transform="rotate(60 509.753585 487.019238)" x="509.75358539765324" y="487.01923788646684">0.64</text></g><g class="guides"><path class="major guide line" d="M530.483703 0.000000 v472.019238" /><text class="major" transform="rotate(60 530.483703 487.019238)" x="530.48370273794" y="487.01923788646684">1.04</text></g><g class="guides"><path class="major guide line" d="M551.213820 0.000000 v472.019238" /><text class="major" transform="rotate(60 551.213820 487.019238)" x="551.213820078227" y="487.01923788646684">1.43</text></g><g class="guides"><path class="major guide line" d="M571.943937 0.000000 v472.019238" /><text class="major" transform="rotate(60 571.943937 487.019238)" x="571.9439374185138" y="487.01923788646684">1.83</text></g><g class="guides"><path class="major guide line" d="M592.674055 0.000000 v472.019238" /><text class="major" transform="rotate(60 592.674055 487.019238)" x="592.6740547588006" y="487.01923788646684">2.23</text></g><g class="guides"><path class="major guide line" d="M613.404172 0.000000 v472.019238" /><text class="major" transform="rotate(60 613.404172 487.019238)" x="613.4041720990874" y="487.01923788646684">2.63</text></g></g><g class="series serie-0 color-0"><path class="line reactive" d="M12.230769 462.941945 L12.230769 462.019456 22.595828 462.941945 32.960887 461.096967 43.325945 462.019456 53.691004 459.251988 64.056063 462.019456 74.421121 458.329499 84.786180 462.019456 95.151239 458.329499 105.516297 462.019456 115.881356 448.182119 126.246415 460.174477 136.611473 457.407010 146.976532 457.407010 157.341591 451.872075 167.706649 448.182119 178.071708 454.639543 188.436767 445.414651 198.801825 442.647184 209.166884 436.189760 219.531943 437.112249 229.897001 392.832771 240.262060 396.522728 250.627119 376.227967 260.992177 355.933206 271.357236 351.320760 281.722295 325.491065 292.087353 277.521630 302.452412 283.056565 312.817471 202.800010 323.182529 188.040184 333.547588 169.590402 343.912647 123.465945 354.277705 95.791271 364.642764 67.194108 375.007823 82.876423 385.372881 60.736684 395.737940 80.108956 406.102999 29.372054 416.468057 9.077293 426.833116 70.884065 437.198175 69.039086 447.563233 41.364413 457.928292 40.441923 468.293351 91.178826 478.658409 140.993239 489.023468 214.792369 499.388527 259.071847 509.753585 321.801108 520.118644 364.235608 530.483703 408.515086 540.848761 430.654825 551.213820 448.182119 561.578879 455.562032 571.943937 458.329499 582.308996 458.329499 592.674055 462.019456 603.039113 462.941945 613.404172 462.019456 623.769231 462.941945" /></g><g class="series serie-1 color-1"><path class="line reactive nofill" d="M12.230769 462.860939 L22.595828 462.812163 32.960887 462.737617 43.325945 462.625826 53.691004 462.461343 64.056063 462.223929 74.421121 461.887808 84.786180 461.421131 95.151239 460.785803 105.516297 459.937866 115.881356 458.828570 126.246415 457.406201 136.611473 455.618559 146.976532 453.415682 157.341591 450.752001 167.706649 447.586601 178.071708 443.879750 188.436767 439.583654 198.801825 434.625662 209.166884 428.883537 219.531943 422.154950 229.897001 414.127042 240.262060 404.355866 250.627119 392.268030 260.992177 377.196012 271.357236 358.453034 281.722295 335.444393 292.087353 307.804438 302.452412 275.549335 312.817471 239.247575 323.182529 200.217980 333.547588 160.731280 343.912647 124.084588 354.277705 94.280940 364.642764 75.040855 375.007823 68.188247 385.372881 72.059678 395.737940 81.068089 406.102999 87.329024 416.468057 84.150287 426.833116 69.797470 437.198175 49.335435 447.563233 33.159159 457.928292 32.683329 468.293351 55.353717 478.658409 101.535770 489.023468 164.691561 499.388527 234.386670 509.753585 300.297761 520.118644 355.265953 530.483703 396.383745 540.848761 424.307500 551.213820 441.704626 561.578879 451.755926 571.943937 457.210297 582.308996 460.035270 592.674055 461.459644 603.039113 462.174192 613.404172 462.537656 623.769231 462.726980" /></g><g class="series serie-2 color-2"><path class="line reactive nofill" d="M12.230769 462.941945 L22.595828 462.941945 32.960887 462.941945 43.325945 462.941945 53.691004 462.941945 64.056063 462.941945 74.421121 462.941945 84.786180 462.941945 95.151239 462.941945 105.516297 462.941945 115.881356 462.941945 126.246415 462.941945 136.611473 462.941945 146.976532 462.941945 157.341591 462.941945 167.706649 462.941945 178.071708 462.941944 188.436767 462.941942 198.801825 462.941936 209.166884 462.941921 219.531943 462.941882 229.897001 462.941784 240.262060 462.941542 250.627119 462.940959 260.992177 462.939574 271.357236 462.936292 281.722295 462.928435 292.087353 462.909307 302.452412 462.861958 312.817471 462.743943 323.182529 462.452668 333.547588 461.754001 343.912647 460.152815 354.277705 456.694920 364.642764 449.733238 375.007823 436.777227 385.372881 414.647705 395.737940 380.193433 406.102999 331.669347 416.468057 270.475358 426.833116 202.459569 437.198175 137.772871 447.563233 88.687835 457.928292 65.841585 468.293351 74.447008 478.658409 112.327596 489.023468 170.797785 499.388527 237.906315 509.753585 302.386140 520.118644 356.542810 530.483703 397.182867 540.848761 424.814332 551.213820 442.027234 561.578879 451.960445 571.943937 457.338746 582.308996 460.114923 592.674055 461.508311 603.039113 462.203455 613.404172 462.554960 623.769231 462.737039" /></g><g class="series serie-3 color-3"><path class="line reactive nofill" d="M12.230769 462.860939 L22.595828 462.812163 32.960887 462.737617 43.325945 462.625826 53.691004 462.461343 64.056063 462.223929 74.421121 461.887808 84.786180 461.421131 95.151239 460.785803 105.516297 459.937866 115.881356 458.828570 126.246415 457.406201 136.611473 455.618559 146.976532 453.415682 157.341591 450.752002 167.706649 447.586601 178.071708 443.879751 188.436767 439.583657 198.801825 434.625670 209.166884 428.883561 219.531943 422.155013 229.897001 414.127203 240.262060 404.356269 250.627119 392.269016 260.992177 377.198382 271.357236 358.458687 281.722295 335.457903 292.087353 307.837076 302.452412 275.629322 312.817471 239.445577 323.182529 200.707257 333.547588 161.919225 343.912647 126.873718 354.277705 100.527965 364.642764 88.249563 375.007823 94.352965 385.372881 120.353917 395.737940 163.816601 406.102999 218.601622 416.468057 276.616874 426.833116 330.279846 437.198175 374.504509 447.563233 407.413269 457.928292 429.783689 468.293351 443.848654 478.658409 452.150119 489.023468 456.835721 499.388527 459.422300 509.753585 460.853566 520.118644 461.665088 530.483703 462.142823 540.848761 462.435113 551.213820 462.619337 561.578879 462.737427 571.943937 462.813495 582.308996 462.862292 592.674055 462.893278 603.039113 462.912682 613.404172 462.924641 623.769231 462.931886" /></g><g class="series serie-4 color-4"><path class="line reactive nofill" d="M12.230769 462.941945 L22.595828 462.941945 32.960887 462.941945 43.325945 462.941945 53.691004 462.941945 64.056063 462.941945 74.421121 462.941945 84.786180 462.941945 95.151239 462.941945 105.516297 462.941945 115.881356 462.941945 126.246415 462.941945 136.611473 462.941945 146.976532 462.941945 157.341591 462.941945 167.706649 462.941945 178.071708 462.941945 188.436767 462.941945 198.801825 462.941945 209.166884 462.941945 219.531943 462.941945 229.897001 462.941945 240.262060 462.941944 250.627119 462.941941 260.992177 462.941924 271.357236 462.941839 281.722295 462.941447 292.087353 462.939801 302.452412 462.933494 312.817471 462.911436 323.182529 462.841073 333.547588 462.636501 343.912647 462.094876 354.277705 460.790495 364.642764 457.937353 375.007823 452.280129 385.372881 442.139297 395.737940 425.768648 406.102999 402.104840 416.468057 371.755352 426.833116 337.766704 437.198175 305.568707 447.563233 281.737720 457.928292 271.855116 468.293351 278.390188 478.658409 299.700432 489.023468 330.700364 499.388527 364.828064 509.753585 396.273877 520.118644 421.453202 530.483703 439.295400 540.848761 450.598679 551.213820 457.041055 561.578879 460.358317 571.943937 461.905927 582.308996 462.561467 592.674055 462.813972 603.039113 462.902524 613.404172 462.930823 623.769231 462.939071" /></g><g class="series serie-5 color-5"><path class="line reactive nofill" d="M12.230769 462.941945 L22.595828 462.941945 32.960887 462.941945 43.325945 462.941945 53.691004 462.941945 64.056063 462.941945 74.421121 462.941945 84.786180 462.941945 95.151239 462.941945 105.516297 462.941945 115.881356 462.941945 126.246415 462.941945 136.611473 462.941945 146.976532 462.941945 157.341591 462.941945 167.706649 462.941945 178.071708 462.941945 188.436767 462.941945 198.801825 462.941945 209.166884 462.941945 219.531943 462.941945 229.897001 462.941945 240.262060 462.941944 250.627119 462.941939 260.992177 462.941917 271.357236 462.941815 281.722295 462.941385 292.087353 462.939726 302.452412 462.933846 312.817471 462.914714 323.182529 462.857597 333.547588 462.701260 343.912647 462.309260 354.277705 461.409832 364.642764 459.524052 375.007823 455.917842 385.372881 449.643902 395.737940 439.749361 406.102999 425.679179 416.468057 407.789399 426.833116 387.741473 437.198175 368.483651 447.563233 353.640940 457.928292 346.429385 468.293351 348.526181 478.658409 359.436425 489.023468 376.682693 499.388527 396.718405 509.753585 416.105532 520.118644 432.426523 530.483703 444.626407 540.848761 452.814859 551.213820 457.783559 561.578879 460.521430 571.943937 461.895621 582.308996 462.525278 592.674055 462.789091 603.039113 462.890288 613.404172 462.925863 623.769231 462.937332" /></g><g class="series serie-6 color-6"><path class="line reactive nofill" d="M12.230769 462.941945 L22.595828 462.941945 32.960887 462.941945 43.325945 462.941945 53.691004 462.941945 64.056063 462.941945 74.421121 462.941945 84.786180 462.941945 95.151239 462.941945 105.516297 462.941945 115.881356 462.941945 126.246415 462.941945 136.611473 462.941945 146.976532 462.941945 157.341591 462.941945 167.706649 462.941945 178.071708 462.941945 188.436767 462.941945 198.801825 462.941945 209.166884 462.941945 219.531943 462.941945 229.897001 462.941944 240.262060 462.941941 250.627119 462.941928 260.992177 462.941875 271.357236 462.941670 281.722295 462.940937 292.087353 462.938510 302.452412 462.931057 312.817471 462.909851 323.182529 462.853971 333.547588 462.717703 343.912647 462.410432 354.277705 461.770432 364.642764 460.540813 375.007823 458.365579 385.372881 454.831192 395.737940 449.574843 406.102999 442.456327 416.468057 433.747747 426.833116 424.253636 437.198175 415.266073 447.563233 408.309173 457.928292 404.725787 468.293351 405.256063 478.658409 409.788522 489.023468 417.398211 499.388527 426.654053 509.753585 436.055676 520.118644 444.417933 530.483703 451.074007 540.848761 455.871428 551.213820 459.024862 561.578879 460.923996 571.943937 461.975242 582.308996 462.511307 592.674055 462.763557 603.039113 462.873229 613.404172 462.917331 623.769231 462.933746" /></g><g class="series serie-7 color-7"><path class="line reactive nofill" d="M12.230769 462.941945 L22.595828 462.941945 32.960887 462.941945 43.325945 462.941945 53.691004 462.941945 64.056063 462.941945 74.421121 462.941945 84.786180 462.941945 95.151239 462.941945 105.516297 462.941945 115.881356 462.941945 126.246415 462.941945 136.611473 462.941945 146.976532 462.941945 157.341591 462.941945 167.706649 462.941945 178.071708 462.941945 188.436767 462.941945 198.801825 462.941945 209.166884 462.941944 219.531943 462.941943 229.897001 462.941939 240.262060 462.941922 250.627119 462.941866 260.992177 462.941685 271.357236 462.941137 281.722295 462.939572 292.087353 462.935382 302.452412 462.924836 312.817471 462.899918 323.182529 462.844664 333.547588 462.729758 343.912647 462.505831 354.277705 462.097301 364.642764 461.400459 375.007823 460.291021 385.372881 458.646117 395.737940 456.382180 406.102999 453.503040 416.468057 450.143807 426.833116 446.590210 437.198175 443.255253 447.563233 440.607585 457.928292 439.065692 468.293351 438.889973 478.658409 440.110833 489.023468 442.520083 499.388527 445.728989 509.753585 449.270720 520.118644 452.710163 530.483703 455.726103 540.848761 458.146658 551.213820 459.939092 561.578879 461.170020 571.943937 461.956690 582.308996 462.425714 592.674055 462.687068 603.039113 462.823365 613.404172 462.889960 623.769231 462.920469" /></g><g class="series serie-8 color-8"><path class="line reactive nofill" d="M12.230769 462.941945 L22.595828 462.941945 32.960887 462.941945 43.325945 462.941945 53.691004 462.941945 64.056063 462.941945 74.421121 462.941945 84.786180 462.941945 95.151239 462.941945 105.516297 462.941945 115.881356 462.941945 126.246415 462.941945 136.611473 462.941945 146.976532 462.941945 157.341591 462.941945 167.706649 462.941945 178.071708 462.941944 188.436767 462.941942 198.801825 462.941936 209.166884 462.941922 219.531943 462.941884 229.897001 462.941791 240.262060 462.941569 250.627119 462.941063 260.992177 462.939952 271.357236 462.937611 281.722295 462.932873 292.087353 462.923668 302.452412 462.906505 312.817471 462.875805 323.182529 462.823142 333.547588 462.736557 343.912647 462.600195 354.277705 462.394639 364.642764 462.098341 375.007823 461.690435 385.372881 461.154977 395.737940 460.486181 406.102999 459.693740 416.468057 458.806832 426.833116 457.875324 437.198175 456.966965 447.563233 456.160198 457.928292 455.533385 468.293351 455.152382 478.658409 455.059164 489.023468 455.264214 499.388527 455.744582 509.753585 456.448114 520.118644 457.302769 530.483703 458.228729 540.848761 459.150487 551.213820 460.006445 561.578879 460.754460 571.943937 461.373046 582.308996 461.858936 592.674055 462.222403 603.039113 462.481829 613.404172 462.658763 623.769231 462.774199" /></g><g class="series serie-9 color-9"><path class="line reactive nofill" d="M12.230769 462.941945 L22.595828 462.941945 32.960887 462.941945 43.325945 462.941945 53.691004 462.941945 64.056063 462.941945 74.421121 462.941945 84.786180 462.941945 95.151239 462.941945 105.516297 462.941945 115.881356 462.941945 126.246415 462.941945 136.611473 462.941945 146.976532 462.941945 157.341591 462.941945 167.706649 462.941945 178.071708 462.941945 188.436767 462.941945 198.801825 462.941943 209.166884 462.941930 219.531943 462.941860 229.897001 462.941503 240.262060 462.939873 250.627119 462.933215 260.992177 462.908848 271.357236 462.829066 281.722295 462.595604 292.087353 461.985961 302.452412 460.568086 312.817471 457.639007 323.182529 452.284933 333.547588 443.675054 343.912647 431.605837 354.277705 417.092328 364.642764 402.591066 375.007823 391.477713 385.372881 386.812774 395.737940 389.984316 406.102999 400.042392 416.468057 414.157469 426.833116 428.903245 437.198175 441.576028 447.563233 450.876945 457.928292 456.812934 468.293351 460.140961 478.658409 461.790381 489.023468 462.516030 499.388527 462.800230 509.753585 462.899525 520.118644 462.930522 530.483703 462.939178 540.848761 462.941342 551.213820 462.941827 561.578879 462.941924 571.943937 462.941942 582.308996 462.941944 592.674055 462.941945 603.039113 462.941945 613.404172 462.941945 623.769231 462.941945" /></g><g class="series serie-10 color-10"><path class="line reactive nofill" d="M12.230769 462.941945 L22.595828 462.941945 32.960887 462.941945 43.325945 462.941945 53.691004 462.941945 64.056063 462.941945 74.421121 462.941945 84.786180 462.941945 95.151239 462.941945 105.516297 462.941945 115.881356 462.941945 126.246415 462.941945 136.611473 462.941945 146.976532 462.941944 157.341591 462.941943 167.706649 462.941934 178.071708 462.941893 188.436767 462.941721 198.801825 462.941047 209.166884 462.938617 219.531943 462.930553 229.897001 462.905915 240.262060 462.836667 250.627119 462.657742 260.992177 462.233122 271.357236 461.308660 281.722295 459.464963 292.087353 456.103475 302.452412 450.515942 312.817471 442.081669 323.182529 430.588191 333.547588 416.581740 343.912647 401.568279 354.277705 387.877406 364.642764 378.120899 375.007823 374.391965 385.372881 377.535753 395.737940 386.838154 406.102999 400.289321 416.468057 415.289160 426.833116 429.456710 437.198175 441.203201 447.563233 449.903326 457.928292 455.716829 468.293351 459.243033 478.658409 461.192423 489.023468 462.177439 499.388527 462.633301 509.753585 462.826825 520.118644 462.902275 530.483703 462.929315 540.848761 462.938230 551.213820 462.940935 561.578879 462.941691 571.943937 462.941886 582.308996 462.941932 592.674055 462.941942 603.039113 462.941944 613.404172 462.941945 623.769231 462.941945" /></g><g class="series serie-11 color-11"><path class="line reactive nofill" d="M12.230769 462.941945 L22.595828 462.941945 32.960887 462.941945 43.325945 462.941945 53.691004 462.941945 64.056063 462.941945 74.421121 462.941945 84.786180 462.941945 95.151239 462.941944 105.516297 462.941943 115.881356 462.941936 126.246415 462.941910 136.611473 462.941819 146.976532 462.941516 157.341591 462.940562 167.706649 462.937744 178.071708 462.929906 188.436767 462.909396 198.801825 462.858927 209.166884 462.742196 219.531943 462.488554 229.897001 461.971122 240.262060 460.980914 250.627119 459.205087 260.992177 456.224467 271.357236 451.550378 281.722295 444.718175 292.087353 435.439548 302.452412 423.787559 312.817471 410.356223 323.182529 396.317620 333.547588 383.312194 343.912647 373.158668 354.277705 367.444203 364.642764 367.119266 375.007823 372.239066 385.372881 381.948217 395.737940 394.714476 406.102999 408.723795 416.468057 422.296893 426.833116 434.197878 437.198175 443.765579 447.563233 450.873204 457.928292 455.776632 468.293351 458.928790 478.658409 460.821562 489.023468 461.885078 499.388527 462.445005 509.753585 462.721518 520.118644 462.849708 530.483703 462.905535 540.848761 462.928386 551.213820 462.937182 561.578879 462.940366 571.943937 462.941451 582.308996 462.941799 592.674055 462.941904 603.039113 462.941934 613.404172 462.941942 623.769231 462.941944" /></g><g class="series serie-12 color-12"><path class="line reactive nofill" d="M12.230769 462.941945 L22.595828 462.941945 32.960887 462.941945 43.325945 462.941944 53.691004 462.941944 64.056063 462.941940 74.421121 462.941928 84.786180 462.941890 95.151239 462.941774 105.516297 462.941432 115.881356 462.940482 126.246415 462.937961 136.611473 462.931593 146.976532 462.916285 157.341591 462.881262 167.706649 462.805036 178.071708 462.647256 188.436767 462.336797 198.801825 461.756386 209.166884 460.726048 219.531943 458.990638 229.897001 456.219973 240.262060 452.032133 250.627119 446.049111 260.992177 437.987238 271.357236 427.772370 281.722295 415.654434 292.087353 402.283611 302.452412 388.708571 312.817471 376.271185 323.182529 366.401187 333.547588 360.349946 343.912647 358.930538 354.277705 362.338433 364.642764 370.107316 375.007823 381.213816 385.372881 394.298701 395.737940 407.938646 406.102999 420.894040 416.468057 432.275412 426.833116 441.604143 437.198175 448.777506 447.563233 453.971504 457.928292 457.522025 468.293351 459.817761 478.658409 461.223858 489.023468 462.040543 499.388527 462.490758 509.753585 462.726489 520.118644 462.843787 530.483703 462.899281 540.848761 462.924254 551.213820 462.934946 561.578879 462.939303 571.943937 462.940994 582.308996 462.941618 592.674055 462.941838 603.039113 462.941911 613.404172 462.941935 623.769231 462.941942" /></g><g class="series serie-13 color-13"><path class="line reactive nofill" d="M12.230769 462.860939 L22.595828 462.812163 32.960887 462.737618 43.325945 462.625827 53.691004 462.461344 64.056063 462.223933 74.421121 461.887825 84.786180 461.421186 95.151239 460.785975 105.516297 459.938381 115.881356 458.830042 126.246415 457.410220 136.611473 455.629037 146.976532 453.441772 157.341591 450.814069 167.706649 447.727721 178.071708 444.186531 188.436767 440.221578 198.801825 435.895147 209.166884 431.302549 219.531943 426.571188 229.897001 421.856470 240.262060 417.334461 250.627119 413.191642 260.992177 409.612486 271.357236 406.765993 281.722295 404.792506 292.087353 403.792260 302.452412 403.816942 312.817471 404.865272 323.182529 406.883105 333.547588 409.768071 343.912647 413.378176 354.277705 417.543375 364.642764 422.078795 375.007823 426.798185 385.372881 431.526252 395.737940 436.108788 406.102999 440.419853 416.468057 444.365718 426.833116 447.885650 437.198175 450.949975 447.563233 453.556070 457.928292 455.723048 468.293351 457.485890 478.658409 458.889674 489.023468 459.984409 499.388527 460.820785 509.753585 461.446988 520.118644 461.906575 530.483703 462.237293 540.848761 462.470680 551.213820 462.632226 561.578879 462.741921 571.943937 462.815002 582.308996 462.862778 592.674055 462.893428 603.039113 462.912726 613.404172 462.924653 623.769231 462.931889" /></g></g><g class="titles"><text class="title plot_title" x="400.0" y="26">Iteration #14</text><text class="title" x="462.0" y="580.0">Observation</text><text class="title" transform="rotate(-90 64.000000 282.009619)" x="64.0" y="308.0096189432334">Density</text></g><g class="plot overlay" transform="translate(144, 46)"><g class="series serie-0 color-0" /><g class="series serie-1 color-1" /><g class="series serie-2 color-2" /><g class="series serie-3 color-3" /><g class="series serie-4 color-4" /><g class="series serie-5 color-5" /><g class="series serie-6 color-6" /><g class="series serie-7 color-7" /><g class="series serie-8 color-8" /><g class="series serie-9 color-9" /><g class="series serie-10 color-10" /><g class="series serie-11 color-11" /><g class="series serie-12 color-12" /><g class="series serie-13 color-13" /></g><g class="plot text-overlay" transform="translate(144, 46)"><g class="series serie-0 color-0" /><g class="series serie-1 color-1" /><g class="series serie-2 color-2" /><g class="series serie-3 color-3" /><g class="series serie-4 color-4" /><g class="series serie-5 color-5" /><g class="series serie-6 color-6" /><g class="series serie-7 color-7" /><g class="series serie-8 color-8" /><g class="series serie-9 color-9" /><g class="series serie-10 color-10" /><g class="series serie-11 color-11" /><g class="series serie-12 color-12" /><g class="series serie-13 color-13" /></g><g class="plot tooltip-overlay" transform="translate(144, 46)"><g class="tooltip" style="opacity: 0" transform="translate(0 0)"><rect class="tooltip-box" height="0" rx="0" ry="0" width="0" /><g class="text" /></g></g><g class="legends" transform="translate(10, 56)"><g class="legend reactive activate-serie" id="activate-serie-0"><rect class="color-0 reactive" height="12" width="12" x="0.0" y="0.0" /><text x="17.0" y="9.0">Data</text></g><g class="legend reactive activate-serie" id="activate-serie-1"><rect class="color-1 reactive" height="12" width="12" x="0.0" y="18.0" /><text x="17.0" y="27.0">GMM</text></g><g class="legend reactive activate-serie" id="activate-serie-2"><rect class="color-2 reactive" height="12" width="12" x="0.0" y="36.0" /><text x="17.0" y="45.0">i=0</text></g><g class="legend reactive activate-serie" id="activate-serie-3"><rect class="color-3 reactive" height="12" width="12" x="0.0" y="54.0" /><text x="17.0" y="63.0">i=1</text></g><g class="legend reactive activate-serie" id="activate-serie-4"><rect class="color-4 reactive" height="12" width="12" x="0.0" y="72.0" /><text x="17.0" y="81.0">i=0 k=0</text></g><g class="legend reactive activate-serie" id="activate-serie-5"><rect class="color-5 reactive" height="12" width="12" x="0.0" y="90.0" /><text x="17.0" y="99.0">i=0 k=1</text></g><g class="legend reactive activate-serie" id="activate-serie-6"><rect class="color-6 reactive" height="12" width="12" x="0.0" y="108.0" /><text x="17.0" y="117.0">i=0 k=2</text></g><g class="legend reactive activate-serie" id="activate-serie-7"><rect class="color-7 reactive" height="12" width="12" x="0.0" y="126.0" /><text x="17.0" y="135.0">i=0 k=3</text></g><g class="legend reactive activate-serie" id="activate-serie-8"><rect class="color-8 reactive" height="12" width="12" x="0.0" y="144.0" /><text x="17.0" y="153.0">i=0 k=4</text></g><g class="legend reactive activate-serie" id="activate-serie-9"><rect class="color-9 reactive" height="12" width="12" x="0.0" y="162.0" /><text x="17.0" y="171.0">i=1 k=0</text></g><g class="legend reactive activate-serie" id="activate-serie-10"><rect class="color-10 reactive" height="12" width="12" x="0.0" y="180.0" /><text x="17.0" y="189.0">i=1 k=1</text></g><g class="legend reactive activate-serie" id="activate-serie-11"><rect class="color-11 reactive" height="12" width="12" x="0.0" y="198.0" /><text x="17.0" y="207.0">i=1 k=2</text></g><g class="legend reactive activate-serie" id="activate-serie-12"><rect class="color-12 reactive" height="12" width="12" x="0.0" y="216.0" /><text x="17.0" y="225.0">i=1 k=3</text></g><g class="legend reactive activate-serie" id="activate-serie-13"><rect class="color-13 reactive" height="12" width="12" x="0.0" y="234.0" /><text x="17.0" y="243.0">i=1 k=4</text></g></g><g class="legends" transform="translate(790, 56)" /></g></svg>