<?xml version='1.0' encoding='utf-8'?>
<svg xmlns:xlink="http://www.w3.org/1999/xlink" class="pygal-chart" id="chart-de4dd304-91ab-41ad-b0e9-88b35f0a6910" viewBox="0 0 800 600" xmlns="http://www.w3.org/2000/svg"><!--Generated with pygal 2.4.0 (etree) ©Kozea 2012-2016 on 2018-01-18--><!--http://pygal.org--><!--http://github.com/Kozea/pygal--><defs><style type="text/css">#chart-de4dd304-91ab-41ad-b0e9-88b35f0a6910{-webkit-user-select:none;-webkit-font-smoothing:antialiased;font-family:Consolas,"Liberation Mono",Menlo,Courier,monospace}#chart-de4dd304-91ab-41ad-b0e9-88b35f0a6910 .title{font-family:Consolas,"Liberation Mono",Menlo,Courier,monospace;font-size:16px}#chart-de4dd304-91ab-41ad-b0e9-88b35f0a6910 .legends .legend text{font-family:Consolas,"Liberation Mono",Menlo,Courier,monospace;font-size:10px}#chart-de4dd304-91ab-41ad-b0e9-88b35f0a6910 .axis text{font-family:Consolas,"Liberation Mono",Menlo,Courier,monospace;font-size:10px}#chart-de4dd304-91ab-41ad-b0e9-88b35f0a6910 .axis text.major{font-family:Consolas,"Liberation Mono",Menlo,Courier,monospace;font-size:10px}#chart-de4dd304-91ab-41ad-b0e9-88b35f0a6910 .text-overlay text.value{font-family:Consolas,"Liberation Mono",Menlo,Courier,monospace;font-size:16px}#chart-de4dd304-91ab-41ad-b0e9-88b35f0a6910 .text-overlay text.label{font-family:Consolas,"Liberation Mono",Menlo,Courier,monospace;font-size:10px}#chart-de4dd304-91ab-41ad-b0e9-88b35f0a6910 .tooltip{font-family:Consolas,"Liberation Mono",Menlo,Courier,monospace;font-size:14px}#chart-de4dd304-91ab-41ad-b0e9-88b35f0a6910 text.no_data{font-family:Consolas,"Liberation Mono",Menlo,Courier,monospace;font-size:64px}
#chart-de4dd304-91ab-41ad-b0e9-88b35f0a6910{background-color:rgba(249,249,249,1)}#chart-de4dd304-91ab-41ad-b0e9-88b35f0a6910 path,#chart-de4dd304-91ab-41ad-b0e9-88b35f0a6910 line,#chart-de4dd304-91ab-41ad-b0e9-88b35f0a6910 rect,#chart-de4dd304-91ab-41ad-b0e9-88b35f0a6910 circle{-webkit-transition:150ms;-moz-transition:150ms;transition:150ms}#chart-de4dd304-91ab-41ad-b0e9-88b35f0a6910 .graph &gt; .background{fill:rgba(249,249,249,1)}#chart-de4dd304-91ab-41ad-b0e9-88b35f0a6910 .plot &gt; .background{fill:rgba(255,255,255,1)}#chart-de4dd304-91ab-41ad-b0e9-88b35f0a6910 .graph{fill:rgba(0,0,0,.87)}#chart-de4dd304-91ab-41ad-b0e9-88b35f0a6910 text.no_data{fill:rgba(0,0,0,1)}#chart-de4dd304-91ab-41ad-b0e9-88b35f0a6910 .title{fill:rgba(0,0,0,1)}#chart-de4dd304-91ab-41ad-b0e9-88b35f0a6910 .legends .legend text{fill:rgba(0,0,0,.87)}#chart-de4dd304-91ab-41ad-b0e9-88b35f0a6910 .legends .legend:hover text{fill:rgba(0,0,0,1)}#chart-de4dd304-91ab-41ad-b0e9-88b35f0a6910 .axis .line{stroke:rgba(0,0,0,1)}#chart-de4dd304-91ab-41ad-b0e9-88b35f0a6910 .axis .guide.line{stroke:rgba(0,0,0,.54)}#chart-de4dd304-91ab-41ad-b0e9-88b35f0a6910 .axis .major.line{stroke:rgba(0,0,0,.87)}#chart-de4dd304-91ab-41ad-b0e9-88b35f0a6910 .axis text.major{fill:rgba(0,0,0,1)}#chart-de4dd304-91ab-41ad-b0e9-88b35f0a6910 .axis.y .guides:hover .guide.line,#chart-de4dd304-91ab-41ad-b0e9-88b35f0a6910 .line-graph .axis.x .guides:hover .guide.line,#chart-de4dd304-91ab-41ad-b0e9-88b35f0a6910 .stackedline-graph .axis.x .guides:hover .guide.line,#chart-de4dd304-91ab-41ad-b0e9-88b35f0a6910 .xy-graph .axis.x .guides:hover .guide.line{stroke:rgba(0,0,0,1)}#chart-de4dd304-91ab-41ad-b0e9-88b35f0a6910 .axis .guides:hover text{fill:rgba(0,0,0,1)}#chart-de4dd304-91ab-41ad-b0e9-88b35f0a6910 .reactive{fill-opacity:.7;stroke-opacity:.8}#chart-de4dd304-91ab-41ad-b0e9-88b35f0a6910 .ci{stroke:rgba(0,0,0,.87)}#chart-de4dd304-91ab-41ad-b0e9-88b35f0a6910 .reactive.active,#chart-de4dd304-91ab-41ad-b0e9-88b35f0a6910 .active .reactive{fill-opacity:.8;stroke-opacity:.9;stroke-width:4}#chart-de4dd304-91ab-41ad-b0e9-88b35f0a6910 .ci .reactive.active{stroke-width:1.5}#chart-de4dd304-91ab-41ad-b0e9-88b35f0a6910 .series text{fill:rgba(0,0,0,1)}#chart-de4dd304-91ab-41ad-b0e9-88b35f0a6910 .tooltip rect{fill:rgba(255,255,255,1);stroke:rgba(0,0,0,1);-webkit-transition:opacity 150ms;-moz-transition:opacity 150ms;transition:opacity 150ms}#chart-de4dd304-91ab-41ad-b0e9-88b35f0a6910 .tooltip .label{fill:rgba(0,0,0,.87)}#chart-de4dd304-91ab-41ad-b0e9-88b35f0a6910 .tooltip .label{fill:rgba(0,0,0,.87)}#chart-de4dd304-91ab-41ad-b0e9-88b35f0a6910 .tooltip .legend{font-size:.8em;fill:rgba(0,0,0,.54)}#chart-de4dd304-91ab-41ad-b0e9-88b35f0a6910 .tooltip .x_label{font-size:.6em;fill:rgba(0,0,0,1)}#chart-de4dd304-91ab-41ad-b0e9-88b35f0a6910 .tooltip .xlink{font-size:.5em;text-decoration:underline}#chart-de4dd304-91ab-41ad-b0e9-88b35f0a6910 .tooltip .value{font-size:1.5em}#chart-de4dd304-91ab-41ad-b0e9-88b35f0a6910 .bound{font-size:.5em}#chart-de4dd304-91ab-41ad-b0e9-88b35f0a6910 .max-value{font-size:.75em;fill:rgba(0,0,0,.54)}#chart-de4dd304-91ab-41ad-b0e9-88b35f0a6910 .map-element{fill:rgba(255,255,255,1);stroke:rgba(0,0,0,.54) !important}#chart-de4dd304-91ab-41ad-b0e9-88b35f0a6910 .map-element .reactive{fill-opacity:inherit;stroke-opacity:inherit}#chart-de4dd304-91ab-41ad-b0e9-88b35f0a6910 .color-0,#chart-de4dd304-91ab-41ad-b0e9-88b35f0a6910 .color-0 a:visited{stroke:#909090;fill:#909090}#chart-de4dd304-91ab-41ad-b0e9-88b35f0a6910 .color-1,#chart-de4dd304-91ab-41ad-b0e9-88b35f0a6910 .color-1 a:visited{stroke:#000000;fill:#000000}#chart-de4dd304-91ab-41ad-b0e9-88b35f0a6910 .color-2,#chart-de4dd304-91ab-41ad-b0e9-88b35f0a6910 .color-2 a:visited{stroke:#ff0500;fill:#ff0500}#chart-de4dd304-91ab-41ad-b0e9-88b35f0a6910 .color-3,#chart-de4dd304-91ab-41ad-b0e9-88b35f0a6910 .color-3 a:visited{stroke:#323299;fill:#323299}#chart-de4dd304-91ab-41ad-b0e9-88b35f0a6910 .color-4,#chart-de4dd304-91ab-41ad-b0e9-88b35f0a6910 .color-4 a:visited{stroke:#a3413f;fill:#a3413f}#chart-de4dd304-91ab-41ad-b0e9-88b35f0a6910 .color-5,#chart-de4dd304-91ab-41ad-b0e9-88b35f0a6910 .color-5 a:visited{stroke:#a3413f;fill:#a3413f}#chart-de4dd304-91ab-41ad-b0e9-88b35f0a6910 .color-6,#chart-de4dd304-91ab-41ad-b0e9-88b35f0a6910 .color-6 a:visited{stroke:#a3413f;fill:#a3413f}#chart-de4dd304-91ab-41ad-b0e9-88b35f0a6910 .color-7,#chart-de4dd304-91ab-41ad-b0e9-88b35f0a6910 .color-7 a:visited{stroke:#a3413f;fill:#a3413f}#chart-de4dd304-91ab-41ad-b0e9-88b35f0a6910 .color-8,#chart-de4dd304-91ab-41ad-b0e9-88b35f0a6910 .color-8 a:visited{stroke:#a3413f;fill:#a3413f}#chart-de4dd304-91ab-41ad-b0e9-88b35f0a6910 .color-9,#chart-de4dd304-91ab-41ad-b0e9-88b35f0a6910 .color-9 a:visited{stroke:#657fff;fill:#657fff}#chart-de4dd304-91ab-41ad-b0e9-88b35f0a6910 .color-10,#chart-de4dd304-91ab-41ad-b0e9-88b35f0a6910 .color-10 a:visited{stroke:#657fff;fill:#657fff}#chart-de4dd304-91ab-41ad-b0e9-88b35f0a6910 .color-11,#chart-de4dd304-91ab-41ad-b0e9-88b35f0a6910 .color-11 a:visited{stroke:#657fff;fill:#657fff}#chart-de4dd304-91ab-41ad-b0e9-88b35f0a6910 .color-12,#chart-de4dd304-91ab-41ad-b0e9-88b35f0a6910 .color-12 a:visited{stroke:#657fff;fill:#657fff}#chart-de4dd304-91ab-41ad-b0e9-88b35f0a6910 .color-13,#chart-de4dd304-91ab-41ad-b0e9-88b35f0a6910 .color-13 a:visited{stroke:#657fff;fill:#657fff}#chart-de4dd304-91ab-41ad-b0e9-88b35f0a6910 .text-overlay .color-0 text{fill:black}#chart-de4dd304-91ab-41ad-b0e9-88b35f0a6910 .text-overlay .color-1 text{fill:white}#chart-de4dd304-91ab-41ad-b0e9-88b35f0a6910 .text-overlay .color-2 text{fill:black}#chart-de4dd304-91ab-41ad-b0e9-88b35f0a6910 .text-overlay .color-3 text{fill:black}#chart-de4dd304-91ab-41ad-b0e9-88b35f0a6910 .text-overlay .color-4 text{fill:black}#chart-de4dd304-91ab-41ad-b0e9-88b35f0a6910 .text-overlay .color-5 text{fill:black}#chart-de4dd304-91ab-41ad-b0e9-88b35f0a6910 .text-overlay .color-6 text{fill:black}#chart-de4dd304-91ab-41ad-b0e9-88b35f0a6910 .text-overlay .color-7 text{fill:black}#chart-de4dd304-91ab-41ad-b0e9-88b35f0a6910 .text-overlay .color-8 text{fill:black}#chart-de4dd304-91ab-41ad-b0e9-88b35f0a6910 .text-overlay .color-9 text{fill:black}#chart-de4dd304-91ab-41ad-b0e9-88b35f0a6910 .text-overlay .color-10 text{fill:black}#chart-de4dd304-91ab-41ad-b0e9-88b35f0a6910 .text-overlay .color-11 text{fill:black}#chart-de4dd304-91ab-41ad-b0e9-88b35f0a6910 .text-overlay .color-12 text{fill:black}#chart-de4dd304-91ab-41ad-b0e9-88b35f0a6910 .text-overlay .color-13 text{fill:black}#chart-de4dd304-91ab-41ad-b0e9-88b35f0a6910 .series.serie-1{stroke-width:5}#chart-de4dd304-91ab-41ad-b0e9-88b35f0a6910 .series.serie-2{stroke-width:3}#chart-de4dd304-91ab-41ad-b0e9-88b35f0a6910 .series.serie-3{stroke-width:3}#chart-de4dd304-91ab-41ad-b0e9-88b35f0a6910 .series.serie-4{stroke-width:2;stroke-dasharray:2,2}#chart-de4dd304-91ab-41ad-b0e9-88b35f0a6910 .series.serie-5{stroke-width:2;stroke-dasharray:2,2}#chart-de4dd304-91ab-41ad-b0e9-88b35f0a6910 .series.serie-6{stroke-width:2;stroke-dasharray:2,2}#chart-de4dd304-91ab-41ad-b0e9-88b35f0a6910 .series.serie-7{stroke-width:2;stroke-dasharray:2,2}#chart-de4dd304-91ab-41ad-b0e9-88b35f0a6910 .series.serie-8{stroke-width:2;stroke-dasharray:2,2}#chart-de4dd304-91ab-41ad-b0e9-88b35f0a6910 .series.serie-9{stroke-width:2;stroke-dasharray:2,2}#chart-de4dd304-91ab-41ad-b0e9-88b35f0a6910 .series.serie-10{stroke-width:2;stroke-dasharray:2,2}#chart-de4dd304-91ab-41ad-b0e9-88b35f0a6910 .series.serie-11{stroke-width:2;stroke-dasharray:2,2}#chart-de4dd304-91ab-41ad-b0e9-88b35f0a6910 .series.serie-12{stroke-width:2;stroke-dasharray:2,2}#chart-de4dd304-91ab-41ad-b0e9-88b35f0a6910 .series.serie-13{stroke-width:2;stroke-dasharray:2,2}
#chart-de4dd304-91ab-41ad-b0e9-88b35f0a6910 text.no_data{text-anchor:middle}#chart-de4dd304-91ab-41ad-b0e9-88b35f0a6910 .guide.line{fill:none}#chart-de4dd304-91ab-41ad-b0e9-88b35f0a6910 .centered{text-anchor:middle}#chart-de4dd304-91ab-41ad-b0e9-88b35f0a6910 .title{text-anchor:middle}#chart-de4dd304-91ab-41ad-b0e9-88b35f0a6910 .legends .legend text{fill-opacity:1}#chart-de4dd304-91ab-41ad-b0e9-88b35f0a6910 .axis.x text{text-anchor:middle}#chart-de4dd304-91ab-41ad-b0e9-88b35f0a6910 .axis.x:not(.web) text[transform]{text-anchor:start}#chart-de4dd304-91ab-41ad-b0e9-88b35f0a6910 .axis.x:not(.web) text[transform].backwards{text-anchor:end}#chart-de4dd304-91ab-41ad-b0e9-88b35f0a6910 .axis.y text{text-anchor:end}#chart-de4dd304-91ab-41ad-b0e9-88b35f0a6910 .axis.y text[transform].backwards{text-anchor:start}#chart-de4dd304-91ab-41ad-b0e9-88b35f0a6910 .axis.y2 text{text-anchor:start}#chart-de4dd304-91ab-41ad-b0e9-88b35f0a6910 .axis.y2 text[transform].backwards{text-anchor:end}#chart-de4dd304-91ab-41ad-b0e9-88b35f0a6910 .axis .guide.line{stroke-dasharray:4,4}#chart-de4dd304-91ab-41ad-b0e9-88b35f0a6910 .axis .major.guide.line{stroke-dasharray:6,6}#chart-de4dd304-91ab-41ad-b0e9-88b35f0a6910 .horizontal .axis.y .guide.line,#chart-de4dd304-91ab-41ad-b0e9-88b35f0a6910 .horizontal .axis.y2 .guide.line,#chart-de4dd304-91ab-41ad-b0e9-88b35f0a6910 .vertical .axis.x .guide.line{opacity:0}#chart-de4dd304-91ab-41ad-b0e9-88b35f0a6910 .horizontal .axis.always_show .guide.line,#chart-de4dd304-91ab-41ad-b0e9-88b35f0a6910 .vertical .axis.always_show .guide.line{opacity:1 !important}#chart-de4dd304-91ab-41ad-b0e9-88b35f0a6910 .axis.y .guides:hover .guide.line,#chart-de4dd304-91ab-41ad-b0e9-88b35f0a6910 .axis.y2 .guides:hover .guide.line,#chart-de4dd304-91ab-41ad-b0e9-88b35f0a6910 .axis.x .guides:hover .guide.line{opacity:1}#chart-de4dd304-91ab-41ad-b0e9-88b35f0a6910 .axis .guides:hover text{opacity:1}#chart-de4dd304-91ab-41ad-b0e9-88b35f0a6910 .nofill{fill:none}#chart-de4dd304-91ab-41ad-b0e9-88b35f0a6910 .subtle-fill{fill-opacity:.2}#chart-de4dd304-91ab-41ad-b0e9-88b35f0a6910 .dot{stroke-width:1px;fill-opacity:1}#chart-de4dd304-91ab-41ad-b0e9-88b35f0a6910 .dot.active{stroke-width:5px}#chart-de4dd304-91ab-41ad-b0e9-88b35f0a6910 .dot.negative{fill:transparent}#chart-de4dd304-91ab-41ad-b0e9-88b35f0a6910 text,#chart-de4dd304-91ab-41ad-b0e9-88b35f0a6910 tspan{stroke:none !important}#chart-de4dd304-91ab-41ad-b0e9-88b35f0a6910 .series text.active{opacity:1}#chart-de4dd304-91ab-41ad-b0e9-88b35f0a6910 .tooltip rect{fill-opacity:.95;stroke-width:.5}#chart-de4dd304-91ab-41ad-b0e9-88b35f0a6910 .tooltip text{fill-opacity:1}#chart-de4dd304-91ab-41ad-b0e9-88b35f0a6910 .showable{visibility:hidden}#chart-de4dd304-91ab-41ad-b0e9-88b35f0a6910 .showable.shown{visibility:visible}#chart-de4dd304-91ab-41ad-b0e9-88b35f0a6910 .gauge-background{fill:rgba(229,229,229,1);stroke:none}#chart-de4dd304-91ab-41ad-b0e9-88b35f0a6910 .bg-lines{stroke:rgba(249,249,249,1);stroke-width:2px}</style><script type="text/javascript">window.pygal = window.pygal || {};window.pygal.config = window.pygal.config || {};window.pygal.config['de4dd304-91ab-41ad-b0e9-88b35f0a6910'] = {"allow_interruptions": false, "x_label_rotation": 60, "y_title": "Density", "stack_from_top": false, "stroke": true, "include_x_axis": false, "defs": [], "truncate_label": null, "legend_at_bottom_columns": null, "show_minor_y_labels": true, "show_x_labels": true, "tooltip_fancy_mode": true, "show_legend": true, "print_labels": false, "disable_xml_declaration": false, "secondary_range": null, "x_labels": ["-8.96", "-8.76", "-8.56", "-8.36", "-8.16", "-7.96", "-7.76", "-7.56", "-7.36", "-7.16", "-6.96", "-6.76", "-6.56", "-6.36", "-6.16", "-5.96", "-5.76", "-5.56", "-5.36", "-5.16", "-4.96", "-4.76", "-4.56", "-4.36", "-4.16", "-3.96", "-3.76", "-3.56", "-3.36", "-3.16", "-2.96", "-2.76", "-2.56", "-2.36", "-2.16", "-1.96", "-1.76", "-1.56", "-1.36", "-1.16", "-0.96", "-0.76", "-0.56", "-0.36", "-0.16", "0.04", "0.24", "0.44", "0.64", "0.84", "1.04", "1.24", "1.43", "1.63", "1.83", "2.03", "2.23", "2.43", "2.63", "2.83"], "interpolation_precision": 250, "force_uri_protocol": "https", "classes": ["pygal-chart"], "css": ["file://style.css", "file://graph.css"], "margin": 20, "style": {"opacity_hover": ".8", "foreground": "rgba(0, 0, 0, .87)", "foreground_subtle": "rgba(0, 0, 0, .54)", "value_colors": [], "legend_font_family": "Consolas, \"Liberation Mono\", Menlo, Courier, monospace", "tooltip_font_family": "Consolas, \"Liberation Mono\", Menlo, Courier, monospace", "stroke_opacity_hover": ".9", "no_data_font_size": 64, "guide_stroke_dasharray": "4,4", "title_font_family": "Consolas, \"Liberation Mono\", Menlo, Courier, monospace", "label_font_family": "Consolas, \"Liberation Mono\", Menlo, Courier, monospace", "ci_colors": [], "background": "rgba(249, 249, 249, 1)", "colors": ["#909090", "#000000", "#ff0500", "#323299", "#a3413f", "#a3413f", "#a3413f", "#a3413f", "#a3413f", "#657fff", "#657fff", "#657fff", "#657fff", "#657fff"], "value_font_family": "Consolas, \"Liberation Mono\", Menlo, Courier, monospace", "font_family": "Consolas, \"Liberation Mono\", Menlo, Courier, monospace", "value_background": "rgba(229, 229, 229, 1)", "stroke_opacity": ".8", "title_font_size": 16, "no_data_font_family": "Consolas, \"Liberation Mono\", Menlo, Courier, monospace", "label_font_size": 10, "major_guide_stroke_dasharray": "6,6", "major_label_font_size": 10, "transition": "150ms", "opacity": ".7", "legend_font_size": 10, "value_label_font_family": "Consolas, \"Liberation Mono\", Menlo, Courier, monospace", "major_label_font_family": "Consolas, \"Liberation Mono\", Menlo, Courier, monospace", "plot_background": "rgba(255, 255, 255, 1)", "value_label_font_size": 10, "foreground_strong": "rgba(0, 0, 0, 1)", "tooltip_font_size": 14, "value_font_size": 16}, "order_min": null, "interpolation_parameters": {}, "show_dots": false, "y_labels_major": null, "box_mode": "extremes", "fill": false, "show_minor_x_labels": false, "js": ["//kozea.github.io/pygal.js/2.0.x/pygal-tooltips.min.js"], "explicit_size": false, "formatter": null, "x_labels_major": null, "legends": ["Data", "GMM", "i=0", "i=1", "i=0 k=0", "i=0 k=1", "i=0 k=2", "i=0 k=3", "i=0 k=4", "i=1 k=0", "i=1 k=1", "i=1 k=2", "i=1 k=3", "i=1 k=4"], "zero": 0, "strict": false, "print_values": false, "margin_bottom": null, "dynamic_print_values": false, "print_zeroes": true, "logarithmic": false, "x_labels_major_count": null, "margin_left": null, "legend_box_size": 12, "max_scale": 16, "dots_size": 2.5, "show_y_guides": true, "truncate_legend": null, "interpolate": null, "y_labels_major_every": null, "legend_at_bottom": false, "inner_radius": 0, "tooltip_border_radius": 0, "show_x_guides": false, "x_labels_major_every": 2, "show_y_labels": true, "pretty_print": false, "rounded_bars": null, "missing_value_fill_truncation": "x", "y_label_rotation": 0, "height": 600, "show_only_major_dots": false, "spacing": 10, "inverse_y_axis": false, "xrange": null, "margin_right": null, "no_prefix": false, "range": [0, 0.27578580090479526], "margin_top": null, "no_data_text": "No data", "y_labels_major_count": null, "half_pie": false, "width": 800, "title": "Iteration #0", "stroke_style": null, "y_labels": null, "print_values_position": "center", "x_title": "Observation", "min_scale": 4}</script><script type="text/javascript" xlink:href="https://kozea.github.io/pygal.js/2.0.x/pygal-tooltips.min.js" /></defs><title>Iteration #0</title><g class="graph line-graph vertical"><rect class="background" height="600" width="800" x="0" y="0" /><g class="plot" transform="translate(144, 46)"><rect class="background" height="472.01923788646684" width="636.0" x="0" y="0" /><g class="axis y always_show"><g class="guides"><path class="axis major line" d="M0.000000 462.941945 h636.000000" /><text class="major" x="-5" y="466.44194485">0</text><title>0</title></g><g class="guides"><path class="guide line" d="M0.000000 430.027658 h636.000000" /><text class="" x="-5" y="433.527657724">0.02</text><title>0.02</title></g><g class="guides"><path class="guide line" d="M0.000000 397.113371 h636.000000" /><text class="" x="-5" y="400.613370598">0.04</text><title>0.04</title></g><g class="guides"><path class="guide line" d="M0.000000 364.199083 h636.000000" /><text class="" x="-5" y="367.699083472">0.06</text><title>0.06</title></g><g class="guides"><path class="guide line" d="M0.000000 331.284796 h636.000000" /><text class="" x="-5" y="334.784796346">0.08</text><title>0.08</title></g><g class="guides"><path class="guide line" d="M0.000000 298.370509 h636.000000" /><text class="" x="-5" y="301.87050922">0.1</text><title>0.1</title></g><g class="guides"><path class="guide line" d="M0.000000 265.456222 h636.000000" /><text class="" x="-5" y="268.956222094">0.12</text><title>0.12</title></g><g class="guides"><path class="guide line" d="M0.000000 232.541935 h636.000000" /><text class="" x="-5" y="236.041934968">0.14</text><title>0.14</title></g><g class="guides"><path class="guide line" d="M0.000000 199.627648 h636.000000" /><text class="" x="-5" y="203.127647841">0.16</text><title>0.16</title></g><g class="guides"><path class="guide line" d="M0.000000 166.713361 h636.000000" /><text class="" x="-5" y="170.213360715">0.18</text><title>0.18</title></g><g class="guides"><path class="guide line" d="M0.000000 133.799074 h636.000000" /><text class="" x="-5" y="137.299073589">0.2</text><title>0.2</title></g><g class="guides"><path class="guide line" d="M0.000000 100.884786 h636.000000" /><text class="" x="-5" y="104.384786463">0.22</text><title>0.22</title></g><g class="guides"><path class="guide line" d="M0.000000 67.970499 h636.000000" /><text class="" x="-5" y="71.4704993371">0.24</text><title>0.24</title></g><g class="guides"><path class="guide line" d="M0.000000 35.056212 h636.000000" /><text class="" x="-5" y="38.5562122111">0.26</text><title>0.26</title></g></g><g class="axis x"><g class="guides"><path class="major line" d="M12.230769 0.000000 v472.019238" /><text class="major" transform="rotate(60 12.230769 487.019238)" x="12.230769230769232" y="487.01923788646684">-8.96</text></g><g class="guides"><path class="major guide line" d="M32.960887 0.000000 v472.019238" /><text class="major" transform="rotate(60 32.960887 487.019238)" x="32.96088657105606" y="487.01923788646684">-8.56</text></g><g class="guides"><path class="major guide line" d="M53.691004 0.000000 v472.019238" /><text class="major" transform="rotate(60 53.691004 487.019238)" x="53.6910039113429" y="487.01923788646684">-8.16</text></g><g class="guides"><path class="major guide line" d="M74.421121 0.000000 v472.019238" /><text class="major" transform="rotate(60 74.421121 487.019238)" x="74.42112125162973" y="487.01923788646684">-7.76</text></g><g class="guides"><path class="major guide line" d="M95.151239 0.000000 v472.019238" /><text class="major" transform="rotate(60 95.151239 487.019238)" x="95.15123859191655" y="487.01923788646684">-7.36</text></g><g class="guides"><path class="major guide line" d="M115.881356 0.000000 v472.019238" /><text class="major" transform="rotate(60 115.881356 487.019238)" x="115.88135593220338" y="487.01923788646684">-6.96</text></g><g class="guides"><path class="major guide line" d="M136.611473 0.000000 v472.019238" /><text class="major" transform="rotate(60 136.611473 487.019238)" x="136.61147327249023" y="487.01923788646684">-6.56</text></g><g class="guides"><path class="major guide line" d="M157.341591 0.000000 v472.019238" /><text class="major" transform="rotate(60 157.341591 487.019238)" x="157.34159061277705" y="487.01923788646684">-6.16</text></g><g class="guides"><path class="major guide line" d="M178.071708 0.000000 v472.019238" /><text class="major" transform="rotate(60 178.071708 487.019238)" x="178.0717079530639" y="487.01923788646684">-5.76</text></g><g class="guides"><path class="major guide line" d="M198.801825 0.000000 v472.019238" /><text class="major" transform="rotate(60 198.801825 487.019238)" x="198.80182529335073" y="487.01923788646684">-5.36</text></g><g class="guides"><path class="major guide line" d="M219.531943 0.000000 v472.019238" /><text class="major" transform="rotate(60 219.531943 487.019238)" x="219.53194263363756" y="487.01923788646684">-4.96</text></g><g class="guides"><path class="major guide line" d="M240.262060 0.000000 v472.019238" /><text class="major" transform="rotate(60 240.262060 487.019238)" x="240.2620599739244" y="487.01923788646684">-4.56</text></g><g class="guides"><path class="major guide line" d="M260.992177 0.000000 v472.019238" /><text class="major" transform="rotate(60 260.992177 487.019238)" x="260.99217731421123" y="487.01923788646684">-4.16</text></g><g class="guides"><path class="major guide line" d="M281.722295 0.000000 v472.019238" /><text class="major" transform="rotate(60 281.722295 487.019238)" x="281.722294654498" y="487.01923788646684">-3.76</text></g><g class="guides"><path class="major guide line" d="M302.452412 0.000000 v472.019238" /><text class="major" transform="rotate(60 302.452412 487.019238)" x="302.4524119947849" y="487.01923788646684">-3.36</text></g><g class="guides"><path class="major guide line" d="M323.182529 0.000000 v472.019238" /><text class="major" transform="rotate(60 323.182529 487.019238)" x="323.1825293350717" y="487.01923788646684">-2.96</text></g><g class="guides"><path class="major guide line" d="M343.912647 0.000000 v472.019238" /><text class="major" transform="rotate(60 343.912647 487.019238)" x="343.91264667535853" y="487.01923788646684">-2.56</text></g><g class="guides"><path class="major guide line" d="M364.642764 0.000000 v472.019238" /><text class="major" transform="rotate(60 364.642764 487.019238)" x="364.64276401564535" y="487.01923788646684">-2.16</text></g><g class="guides"><path class="major guide line" d="M385.372881 0.000000 v472.019238" /><text class="major" transform="rotate(60 385.372881 487.019238)" x="385.37288135593224" y="487.01923788646684">-1.76</text></g><g class="guides"><path class="major guide line" d="M406.102999 0.000000 v472.019238" /><text class="major" transform="rotate(60 406.102999 487.019238)" x="406.102998696219" y="487.01923788646684">-1.36</text></g><g class="guides"><path class="major guide line" d="M426.833116 0.000000 v472.019238" /><text class="major" transform="rotate(60 426.833116 487.019238)" x="426.8331160365058" y="487.01923788646684">-0.96</text></g><g class="guides"><path class="major guide line" d="M447.563233 0.000000 v472.019238" /><text class="major" transform="rotate(60 447.563233 487.019238)" x="447.56323337679265" y="487.01923788646684">-0.56</text></g><g class="guides"><path class="major guide line" d="M468.293351 0.000000 v472.019238" /><text class="major" transform="rotate(60 468.293351 487.019238)" x="468.29335071707953" y="487.01923788646684">-0.16</text></g><g class="guides"><path class="major guide line" d="M489.023468 0.000000 v472.019238" /><text class="major" transform="rotate(60 489.023468 487.019238)" x="489.02346805736636" y="487.01923788646684">0.24</text></g><g class="guides"><path class="major guide line" d="M509.753585 0.000000 v472.019238" /><text class="major" transform="rotate(60 509.753585 487.019238)" x="509.75358539765324" y="487.01923788646684">0.64</text></g><g class="guides"><path class="major guide line" d="M530.483703 0.000000 v472.019238" /><text class="major" transform="rotate(60 530.483703 487.019238)" x="530.48370273794" y="487.01923788646684">1.04</text></g><g class="guides"><path class="major guide line" d="M551.213820 0.000000 v472.019238" /><text class="major" transform="rotate(60 551.213820 487.019238)" x="551.213820078227" y="487.01923788646684">1.43</text></g><g class="guides"><path class="major guide line" d="M571.943937 0.000000 v472.019238" /><text class="major" transform="rotate(60 571.943937 487.019238)" x="571.9439374185138" y="487.01923788646684">1.83</text></g><g class="guides"><path class="major guide line" d="M592.674055 0.000000 v472.019238" /><text class="major" transform="rotate(60 592.674055 487.019238)" x="592.6740547588006" y="487.01923788646684">2.23</text></g><g class="guides"><path class="major guide line" d="M613.404172 0.000000 v472.019238" /><text class="major" transform="rotate(60 613.404172 487.019238)" x="613.4041720990874" y="487.01923788646684">2.63</text></g></g><g class="series serie-0 color-0"><path class="line reactive" d="M12.230769 462.941945 L12.230769 462.019456 22.595828 462.941945 32.960887 461.096967 43.325945 462.019456 53.691004 459.251988 64.056063 462.019456 74.421121 458.329499 84.786180 462.019456 95.151239 458.329499 105.516297 462.019456 115.881356 448.182119 126.246415 460.174477 136.611473 457.407010 146.976532 457.407010 157.341591 451.872075 167.706649 448.182119 178.071708 454.639543 188.436767 445.414651 198.801825 442.647184 209.166884 436.189760 219.531943 437.112249 229.897001 392.832771 240.262060 396.522728 250.627119 376.227967 260.992177 355.933206 271.357236 351.320760 281.722295 325.491065 292.087353 277.521630 302.452412 283.056565 312.817471 202.800010 323.182529 188.040184 333.547588 169.590402 343.912647 123.465945 354.277705 95.791271 364.642764 67.194108 375.007823 82.876423 385.372881 60.736684 395.737940 80.108956 406.102999 29.372054 416.468057 9.077293 426.833116 70.884065 437.198175 69.039086 447.563233 41.364413 457.928292 40.441923 468.293351 91.178826 478.658409 140.993239 489.023468 214.792369 499.388527 259.071847 509.753585 321.801108 520.118644 364.235608 530.483703 408.515086 540.848761 430.654825 551.213820 448.182119 561.578879 455.562032 571.943937 458.329499 582.308996 458.329499 592.674055 462.019456 603.039113 462.941945 613.404172 462.019456 623.769231 462.941945" /></g><g class="series serie-1 color-1"><path class="line reactive nofill" d="M12.230769 462.941945 L22.595828 462.941945 32.960887 462.941945 43.325945 462.941945 53.691004 462.941945 64.056063 462.941945 74.421121 462.941945 84.786180 462.941945 95.151239 462.941945 105.516297 462.941945 115.881356 462.941945 126.246415 462.941944 136.611473 462.941938 146.976532 462.941912 157.341591 462.941799 167.706649 462.941337 178.071708 462.939604 188.436767 462.933618 198.801825 462.914558 209.166884 462.858627 219.531943 462.707403 229.897001 462.330708 240.262060 461.466311 250.627119 459.639314 260.992177 456.082866 271.357236 449.707531 281.722295 439.184170 292.087353 423.191144 302.452412 400.814580 312.817471 371.994031 323.182529 337.827464 333.547588 300.555568 343.912647 263.163950 354.277705 228.724331 364.642764 199.735026 375.007823 177.723100 385.372881 163.226829 395.737940 156.072838 406.102999 155.718141 416.468057 161.423467 426.833116 172.159227 437.198175 186.344452 447.563233 201.669370 457.928292 215.255037 468.293351 224.231408 478.658409 226.551311 489.023468 221.667257 499.388527 210.723202 509.753585 196.158757 520.118644 180.935678 530.483703 167.772669 540.848761 158.711980 551.213820 155.103659 561.578879 157.846353 571.943937 167.611274 582.308996 184.840340 592.674055 209.490852 603.039113 240.686790 613.404172 276.526954 623.769231 314.241026" /></g><g class="series serie-2 color-2"><path class="line reactive nofill" d="M12.230769 462.941945 L22.595828 462.941945 32.960887 462.941945 43.325945 462.941945 53.691004 462.941945 64.056063 462.941945 74.421121 462.941945 84.786180 462.941945 95.151239 462.941945 105.516297 462.941945 115.881356 462.941945 126.246415 462.941945 136.611473 462.941945 146.976532 462.941945 157.341591 462.941945 167.706649 462.941945 178.071708 462.941945 188.436767 462.941945 198.801825 462.941945 209.166884 462.941945 219.531943 462.941945 229.897001 462.941945 240.262060 462.941945 250.627119 462.941945 260.992177 462.941945 271.357236 462.941945 281.722295 462.941944 292.087353 462.941938 302.452412 462.941913 312.817471 462.941802 323.182529 462.941348 333.547588 462.939645 343.912647 462.933756 354.277705 462.914981 364.642764 462.859828 375.007823 462.710541 385.372881 462.338258 395.737940 461.483038 406.102999 459.673429 416.468057 456.146906 426.833116 449.818168 437.198175 439.360065 447.563233 423.448461 457.928292 401.160938 468.293351 372.423004 478.658409 338.316466 489.023468 301.069310 499.388527 263.664025 509.753585 229.184470 520.118644 200.163364 530.483703 178.198954 540.848761 163.969030 551.213820 157.565068 561.578879 158.915371 571.943937 168.041567 582.308996 185.000744 592.674055 209.546197 603.039113 240.704457 613.404172 276.532170 623.769231 314.242449" /></g><g class="series serie-3 color-3"><path class="line reactive nofill" d="M12.230769 462.941945 L22.595828 462.941945 32.960887 462.941945 43.325945 462.941945 53.691004 462.941945 64.056063 462.941945 74.421121 462.941945 84.786180 462.941945 95.151239 462.941945 105.516297 462.941945 115.881356 462.941945 126.246415 462.941944 136.611473 462.941938 146.976532 462.941912 157.341591 462.941799 167.706649 462.941337 178.071708 462.939604 188.436767 462.933618 198.801825 462.914558 209.166884 462.858627 219.531943 462.707403 229.897001 462.330708 240.262060 461.466311 250.627119 459.639314 260.992177 456.082866 271.357236 449.707531 281.722295 439.184172 292.087353 423.191150 302.452412 400.814612 312.817471 371.994174 323.182529 337.828061 333.547588 300.557868 343.912647 263.172139 354.277705 228.751295 364.642764 199.817144 375.007823 177.954504 385.372881 163.830516 395.737940 157.531745 406.102999 158.986658 416.468057 168.218506 426.833116 185.283003 437.198175 209.926332 447.563233 241.162854 457.928292 277.036044 468.293351 314.750348 478.658409 351.176789 489.023468 383.539892 499.388527 410.001122 509.753585 429.916232 520.118644 443.714258 530.483703 452.515660 540.848761 457.684895 551.213820 460.480536 561.578879 461.872928 571.943937 462.511652 582.308996 462.781541 592.674055 462.886599 603.039113 462.924277 613.404172 462.936729 623.769231 462.940521" /></g><g class="series serie-4 color-4"><path class="line reactive nofill" d="M12.230769 462.941945 L22.595828 462.941945 32.960887 462.941945 43.325945 462.941945 53.691004 462.941945 64.056063 462.941945 74.421121 462.941945 84.786180 462.941945 95.151239 462.941945 105.516297 462.941945 115.881356 462.941945 126.246415 462.941945 136.611473 462.941945 146.976532 462.941945 157.341591 462.941945 167.706649 462.941945 178.071708 462.941945 188.436767 462.941945 198.801825 462.941945 209.166884 462.941945 219.531943 462.941945 229.897001 462.941945 240.262060 462.941945 250.627119 462.941945 260.992177 462.941945 271.357236 462.941945 281.722295 462.941944 292.087353 462.941938 302.452412 462.941914 312.817471 462.941804 323.182529 462.941362 333.547588 462.939713 343.912647 462.934050 354.277705 462.916160 364.642764 462.864197 375.007823 462.725506 385.372881 462.385654 395.737940 461.621903 406.102999 460.049980 416.468057 457.092467 426.833116 452.018486 437.198175 444.108829 447.563233 432.963913 457.928292 418.886154 468.293351 403.166637 478.658409 388.063022 489.023468 376.342264 499.388527 370.473844 509.753585 371.785678 520.118644 379.975962 530.483703 393.225934 540.848761 408.856059 551.213820 424.202419 561.578879 437.324041 571.943937 447.301402 582.308996 454.125794 592.674055 458.353927 603.039113 460.737546 613.404172 461.964090 623.769231 462.541468" /></g><g class="series serie-5 color-5"><path class="line reactive nofill" d="M12.230769 462.941945 L22.595828 462.941945 32.960887 462.941945 43.325945 462.941945 53.691004 462.941945 64.056063 462.941945 74.421121 462.941945 84.786180 462.941945 95.151239 462.941945 105.516297 462.941945 115.881356 462.941945 126.246415 462.941945 136.611473 462.941945 146.976532 462.941945 157.341591 462.941945 167.706649 462.941945 178.071708 462.941945 188.436767 462.941945 198.801825 462.941945 209.166884 462.941945 219.531943 462.941945 229.897001 462.941945 240.262060 462.941945 250.627119 462.941945 260.992177 462.941945 271.357236 462.941945 281.722295 462.941945 292.087353 462.941945 302.452412 462.941944 312.817471 462.941942 323.182529 462.941931 333.547588 462.941878 343.912647 462.941657 354.277705 462.940797 364.642764 462.937717 375.007823 462.927572 385.372881 462.896834 395.737940 462.811224 406.102999 462.592217 416.468057 462.078102 426.833116 460.971980 437.198175 458.794303 447.563233 454.879571 457.928292 448.472777 468.293351 438.967800 478.658409 426.267662 489.023468 411.145605 499.388527 395.402816 509.753585 381.634413 520.118644 372.571786 530.483703 370.208103 540.848761 375.086152 551.213820 386.095905 561.578879 400.884838 571.943937 416.673969 582.308996 431.093487 592.674055 442.701723 603.039113 451.066194 613.404172 456.508763 623.769231 459.724512" /></g><g class="series serie-6 color-6"><path class="line reactive nofill" d="M12.230769 462.941945 L22.595828 462.941945 32.960887 462.941945 43.325945 462.941945 53.691004 462.941945 64.056063 462.941945 74.421121 462.941945 84.786180 462.941945 95.151239 462.941945 105.516297 462.941945 115.881356 462.941945 126.246415 462.941945 136.611473 462.941945 146.976532 462.941945 157.341591 462.941945 167.706649 462.941945 178.071708 462.941945 188.436767 462.941945 198.801825 462.941945 209.166884 462.941945 219.531943 462.941945 229.897001 462.941945 240.262060 462.941945 250.627119 462.941945 260.992177 462.941945 271.357236 462.941945 281.722295 462.941945 292.087353 462.941945 302.452412 462.941945 312.817471 462.941945 323.182529 462.941945 333.547588 462.941944 343.912647 462.941938 354.277705 462.941914 364.642764 462.941805 375.007823 462.941366 385.372881 462.939726 395.737940 462.934093 406.102999 462.916293 416.468057 462.864569 426.833116 462.726464 437.198175 462.387915 447.563233 461.626794 457.928292 460.059660 468.293351 457.109949 478.658409 452.047216 489.023468 444.151606 499.388527 433.021247 509.753585 418.954596 520.118644 403.238033 530.483703 388.125558 540.848761 376.383466 551.213820 370.484594 561.578879 371.763493 571.943937 379.925922 582.308996 393.158794 592.674055 408.784500 603.039113 424.137212 613.404172 437.271690 623.769231 447.263803" /></g><g class="series serie-7 color-7"><path class="line reactive nofill" d="M12.230769 462.941945 L22.595828 462.941945 32.960887 462.941945 43.325945 462.941945 53.691004 462.941945 64.056063 462.941945 74.421121 462.941945 84.786180 462.941945 95.151239 462.941945 105.516297 462.941945 115.881356 462.941945 126.246415 462.941945 136.611473 462.941945 146.976532 462.941945 157.341591 462.941945 167.706649 462.941945 178.071708 462.941945 188.436767 462.941945 198.801825 462.941945 209.166884 462.941945 219.531943 462.941945 229.897001 462.941945 240.262060 462.941945 250.627119 462.941945 260.992177 462.941945 271.357236 462.941945 281.722295 462.941945 292.087353 462.941945 302.452412 462.941945 312.817471 462.941945 323.182529 462.941945 333.547588 462.941945 343.912647 462.941945 354.277705 462.941944 364.642764 462.941942 375.007823 462.941931 385.372881 462.941879 395.737940 462.941659 406.102999 462.940804 416.468057 462.937741 426.833116 462.927649 437.198175 462.897058 447.563233 462.811826 457.928292 462.593701 468.293351 462.081458 478.658409 460.978928 489.023468 458.807446 499.388527 454.902228 509.753585 448.508249 520.118644 439.017973 530.483703 426.331250 540.848761 411.216815 551.213820 395.471410 561.578879 381.687775 571.943937 372.598613 582.308996 370.202286 592.674055 375.049039 603.039113 386.035791 613.404172 400.813955 623.769231 416.604460" /></g><g class="series serie-8 color-8"><path class="line reactive nofill" d="M12.230769 462.941945 L22.595828 462.941945 32.960887 462.941945 43.325945 462.941945 53.691004 462.941945 64.056063 462.941945 74.421121 462.941945 84.786180 462.941945 95.151239 462.941945 105.516297 462.941945 115.881356 462.941945 126.246415 462.941945 136.611473 462.941945 146.976532 462.941945 157.341591 462.941945 167.706649 462.941945 178.071708 462.941945 188.436767 462.941945 198.801825 462.941945 209.166884 462.941945 219.531943 462.941945 229.897001 462.941945 240.262060 462.941945 250.627119 462.941945 260.992177 462.941945 271.357236 462.941945 281.722295 462.941945 292.087353 462.941945 302.452412 462.941945 312.817471 462.941945 323.182529 462.941945 333.547588 462.941945 343.912647 462.941945 354.277705 462.941945 364.642764 462.941945 375.007823 462.941945 385.372881 462.941944 395.737940 462.941939 406.102999 462.941914 416.468057 462.941806 426.833116 462.941370 437.198175 462.939739 447.563233 462.934137 457.928292 462.916425 468.293351 462.864939 478.658409 462.727417 489.023468 462.390167 499.388527 461.631670 509.753585 460.069312 520.118644 457.127389 530.483703 452.075888 540.848761 444.194317 551.213820 433.078519 561.578879 419.023003 571.943937 403.309441 582.308996 388.188163 592.674055 376.424788 603.039113 370.495494 613.404172 371.741451 623.769231 379.875986" /></g><g class="series serie-9 color-9"><path class="line reactive nofill" d="M12.230769 462.941945 L22.595828 462.941945 32.960887 462.941945 43.325945 462.941945 53.691004 462.941945 64.056063 462.941945 74.421121 462.941945 84.786180 462.941945 95.151239 462.941945 105.516297 462.941945 115.881356 462.941945 126.246415 462.941945 136.611473 462.941945 146.976532 462.941945 157.341591 462.941945 167.706649 462.941945 178.071708 462.941945 188.436767 462.941945 198.801825 462.941945 209.166884 462.941945 219.531943 462.941945 229.897001 462.941944 240.262060 462.941938 250.627119 462.941913 260.992177 462.941804 271.357236 462.941359 281.722295 462.939700 292.087353 462.934006 302.452412 462.916027 312.817471 462.863824 323.182529 462.724545 333.547588 462.383385 343.912647 461.616995 354.277705 460.040272 364.642764 457.074941 375.007823 451.989698 385.372881 444.065985 395.737940 432.906518 406.102999 418.817677 416.468057 403.095252 426.833116 388.000556 437.198175 376.301182 447.563233 370.463241 457.928292 371.808006 468.293351 380.026107 478.658409 393.293121 489.023468 408.927612 499.388527 424.267580 509.753585 437.376326 520.118644 447.338935 530.483703 454.150113 540.848761 458.368228 551.213820 460.745207 561.578879 461.967839 571.943937 462.543147 582.308996 462.791208 592.674055 462.889343 603.039113 462.924997 613.404172 462.936904 623.769231 462.940560" /></g><g class="series serie-10 color-10"><path class="line reactive nofill" d="M12.230769 462.941945 L22.595828 462.941945 32.960887 462.941945 43.325945 462.941945 53.691004 462.941945 64.056063 462.941945 74.421121 462.941945 84.786180 462.941945 95.151239 462.941945 105.516297 462.941945 115.881356 462.941945 126.246415 462.941945 136.611473 462.941945 146.976532 462.941945 157.341591 462.941945 167.706649 462.941945 178.071708 462.941945 188.436767 462.941945 198.801825 462.941944 209.166884 462.941942 219.531943 462.941930 229.897001 462.941877 240.262060 462.941653 250.627119 462.940783 260.992177 462.937669 271.357236 462.927418 281.722295 462.896384 292.087353 462.810013 302.452412 462.589232 312.817471 462.071354 323.182529 460.958019 333.547588 458.767912 343.912647 454.834104 354.277705 448.401641 364.642764 438.867256 375.007823 426.140334 385.372881 411.003145 395.737940 395.265749 406.102999 381.527981 416.468057 372.518550 426.833116 370.220187 437.198175 375.160758 447.563233 386.216365 457.928292 401.026663 468.293351 416.812899 478.658409 431.211948 489.023468 442.791505 499.388527 451.127374 509.753585 456.546506 520.118644 459.745688 530.483703 461.467149 540.848761 462.313682 551.213820 462.694847 561.578879 462.852219 571.943937 462.911865 582.308996 462.932634 592.674055 462.939284 603.039113 462.941243 613.404172 462.941774 623.769231 462.941906" /></g><g class="series serie-11 color-11"><path class="line reactive nofill" d="M12.230769 462.941945 L22.595828 462.941945 32.960887 462.941945 43.325945 462.941945 53.691004 462.941945 64.056063 462.941945 74.421121 462.941945 84.786180 462.941945 95.151239 462.941945 105.516297 462.941945 115.881356 462.941945 126.246415 462.941945 136.611473 462.941945 146.976532 462.941945 157.341591 462.941945 167.706649 462.941945 178.071708 462.941944 188.436767 462.941938 198.801825 462.941913 209.166884 462.941803 219.531943 462.941355 229.897001 462.939687 240.262060 462.933963 250.627119 462.915894 260.992177 462.863449 271.357236 462.723581 281.722295 462.381108 292.087353 461.612071 302.452412 460.030537 312.817471 457.057373 323.182529 451.960852 333.547588 444.023074 343.912647 432.849062 354.277705 418.749165 364.642764 403.023879 375.007823 387.938158 385.372881 376.260222 395.737940 370.452787 406.102999 371.830475 416.468057 380.076355 426.833116 393.360357 437.198175 408.999157 447.563233 424.332693 457.928292 437.428546 468.293351 447.376404 478.658409 454.174379 489.023468 458.382491 499.388527 460.752845 509.753585 461.971575 520.118644 462.544819 530.483703 462.791894 540.848761 462.889601 551.213820 462.925087 561.578879 462.936932 571.943937 462.940569 582.308996 462.941596 592.674055 462.941863 603.039113 462.941927 613.404172 462.941941 623.769231 462.941944" /></g><g class="series serie-12 color-12"><path class="line reactive nofill" d="M12.230769 462.941945 L22.595828 462.941945 32.960887 462.941945 43.325945 462.941945 53.691004 462.941945 64.056063 462.941945 74.421121 462.941945 84.786180 462.941945 95.151239 462.941945 105.516297 462.941945 115.881356 462.941945 126.246415 462.941945 136.611473 462.941945 146.976532 462.941944 157.341591 462.941942 167.706649 462.941930 178.071708 462.941877 188.436767 462.941651 198.801825 462.940776 209.166884 462.937644 219.531943 462.927341 229.897001 462.896157 240.262060 462.809404 250.627119 462.587730 260.992177 462.067962 271.357236 460.951006 281.722295 458.754663 292.087353 454.811294 302.452412 448.365977 312.817471 438.816884 323.182529 426.076594 333.547588 410.931894 343.912647 395.197276 354.277705 381.474910 364.642764 372.492139 375.007823 370.226453 385.372881 375.198250 395.737940 386.276710 406.102999 401.097604 416.468057 416.882320 426.833116 431.271091 437.198175 442.836296 447.563233 451.157874 457.928292 456.565310 468.293351 459.756232 478.658409 461.472542 489.023468 462.316205 499.388527 462.695927 509.753585 462.852644 520.118644 462.912018 530.483703 462.932685 540.848761 462.939300 551.213820 462.941247 561.578879 462.941775 571.943937 462.941907 582.308996 462.941937 592.674055 462.941943 603.039113 462.941945 613.404172 462.941945 623.769231 462.941945" /></g><g class="series serie-13 color-13"><path class="line reactive nofill" d="M12.230769 462.941945 L22.595828 462.941945 32.960887 462.941945 43.325945 462.941945 53.691004 462.941945 64.056063 462.941945 74.421121 462.941945 84.786180 462.941945 95.151239 462.941945 105.516297 462.941945 115.881356 462.941945 126.246415 462.941944 136.611473 462.941938 146.976532 462.941913 157.341591 462.941802 167.706649 462.941351 178.071708 462.939673 188.436767 462.933918 198.801825 462.915759 209.166884 462.863073 219.531943 462.722612 229.897001 462.378822 240.262060 461.607132 250.627119 460.020773 260.992177 457.039761 271.357236 451.931947 281.722295 443.980096 292.087353 432.791545 302.452412 418.680618 312.817471 402.952519 323.182529 387.875831 333.547588 376.219382 343.912647 370.442482 354.277705 371.853086 364.642764 380.126707 375.007823 393.427640 385.372881 409.070694 395.737940 424.397759 406.102999 437.480700 416.468057 447.413809 426.833116 454.198593 437.198175 458.396718 447.563233 460.760461 457.928292 461.975299 468.293351 462.546485 478.658409 462.792578 489.023468 462.889858 499.388527 462.925175 509.753585 462.936960 520.118644 462.940577 530.483703 462.941598 540.848761 462.941864 551.213820 462.941927 561.578879 462.941941 571.943937 462.941944 582.308996 462.941945 592.674055 462.941945 603.039113 462.941945 613.404172 462.941945 623.769231 462.941945" /></g></g><g class="titles"><text class="title plot_title" x="400.0" y="26">Iteration #0</text><text class="title" x="462.0" y="580.0">Observation</text><text class="title" transform="rotate(-90 64.000000 282.009619)" x="64.0" y="308.0096189432334">Density</text></g><g class="plot overlay" transform="translate(144, 46)"><g class="series serie-0 color-0" /><g class="series serie-1 color-1" /><g class="series serie-2 color-2" /><g class="series serie-3 color-3" /><g class="series serie-4 color-4" /><g class="series serie-5 color-5" /><g class="series serie-6 color-6" /><g class="series serie-7 color-7" /><g class="series serie-8 color-8" /><g class="series serie-9 color-9" /><g class="series serie-10 color-10" /><g class="series serie-11 color-11" /><g class="series serie-12 color-12" /><g class="series serie-13 color-13" /></g><g class="plot text-overlay" transform="translate(144, 46)"><g class="series serie-0 color-0" /><g class="series serie-1 color-1" /><g class="series serie-2 color-2" /><g class="series serie-3 color-3" /><g class="series serie-4 color-4" /><g class="series serie-5 color-5" /><g class="series serie-6 color-6" /><g class="series serie-7 color-7" /><g class="series serie-8 color-8" /><g class="series serie-9 color-9" /><g class="series serie-10 color-10" /><g class="series serie-11 color-11" /><g class="series serie-12 color-12" /><g class="series serie-13 color-13" /></g><g class="plot tooltip-overlay" transform="translate(144, 46)"><g class="tooltip" style="opacity: 0" transform="translate(0 0)"><rect class="tooltip-box" height="0" rx="0" ry="0" width="0" /><g class="text" /></g></g><g class="legends" transform="translate(10, 56)"><g class="legend reactive activate-serie" id="activate-serie-0"><rect class="color-0 reactive" height="12" width="12" x="0.0" y="0.0" /><text x="17.0" y="9.0">Data</text></g><g class="legend reactive activate-serie" id="activate-serie-1"><rect class="color-1 reactive" height="12" width="12" x="0.0" y="18.0" /><text x="17.0" y="27.0">GMM</text></g><g class="legend reactive activate-serie" id="activate-serie-2"><rect class="color-2 reactive" height="12" width="12" x="0.0" y="36.0" /><text x="17.0" y="45.0">i=0</text></g><g class="legend reactive activate-serie" id="activate-serie-3"><rect class="color-3 reactive" height="12" width="12" x="0.0" y="54.0" /><text x="17.0" y="63.0">i=1</text></g><g class="legend reactive activate-serie" id="activate-serie-4"><rect class="color-4 reactive" height="12" width="12" x="0.0" y="72.0" /><text x="17.0" y="81.0">i=0 k=0</text></g><g class="legend reactive activate-serie" id="activate-serie-5"><rect class="color-5 reactive" height="12" width="12" x="0.0" y="90.0" /><text x="17.0" y="99.0">i=0 k=1</text></g><g class="legend reactive activate-serie" id="activate-serie-6"><rect class="color-6 reactive" height="12" width="12" x="0.0" y="108.0" /><text x="17.0" y="117.0">i=0 k=2</text></g><g class="legend reactive activate-serie" id="activate-serie-7"><rect class="color-7 reactive" height="12" width="12" x="0.0" y="126.0" /><text x="17.0" y="135.0">i=0 k=3</text></g><g class="legend reactive activate-serie" id="activate-serie-8"><rect class="color-8 reactive" height="12" width="12" x="0.0" y="144.0" /><text x="17.0" y="153.0">i=0 k=4</text></g><g class="legend reactive activate-serie" id="activate-serie-9"><rect class="color-9 reactive" height="12" width="12" x="0.0" y="162.0" /><text x="17.0" y="171.0">i=1 k=0</text></g><g class="legend reactive activate-serie" id="activate-serie-10"><rect class="color-10 reactive" height="12" width="12" x="0.0" y="180.0" /><text x="17.0" y="189.0">i=1 k=1</text></g><g class="legend reactive activate-serie" id="activate-serie-11"><rect class="color-11 reactive" height="12" width="12" x="0.0" y="198.0" /><text x="17.0" y="207.0">i=1 k=2</text></g><g class="legend reactive activate-serie" id="activate-serie-12"><rect class="color-12 reactive" height="12" width="12" x="0.0" y="216.0" /><text x="17.0" y="225.0">i=1 k=3</text></g><g class="legend reactive activate-serie" id="activate-serie-13"><rect class="color-13 reactive" height="12" width="12" x="0.0" y="234.0" /><text x="17.0" y="243.0">i=1 k=4</text></g></g><g class="legends" transform="translate(790, 56)" /></g></svg>