<?xml version='1.0' encoding='utf-8'?>
<svg xmlns:xlink="http://www.w3.org/1999/xlink" class="pygal-chart" id="chart-999aa2a0-8248-471b-ad53-e43a641eb2a1" viewBox="0 0 800 600" xmlns="http://www.w3.org/2000/svg"><!--Generated with pygal 2.4.0 (etree) ©Kozea 2012-2016 on 2018-04-14--><!--http://pygal.org--><!--http://github.com/Kozea/pygal--><defs><style type="text/css">#chart-999aa2a0-8248-471b-ad53-e43a641eb2a1{-webkit-user-select:none;-webkit-font-smoothing:antialiased;font-family:Consolas,"Liberation Mono",Menlo,Courier,monospace}#chart-999aa2a0-8248-471b-ad53-e43a641eb2a1 .title{font-family:Consolas,"Liberation Mono",Menlo,Courier,monospace;font-size:16px}#chart-999aa2a0-8248-471b-ad53-e43a641eb2a1 .legends .legend text{font-family:Consolas,"Liberation Mono",Menlo,Courier,monospace;font-size:10px}#chart-999aa2a0-8248-471b-ad53-e43a641eb2a1 .axis text{font-family:Consolas,"Liberation Mono",Menlo,Courier,monospace;font-size:10px}#chart-999aa2a0-8248-471b-ad53-e43a641eb2a1 .axis text.major{font-family:Consolas,"Liberation Mono",Menlo,Courier,monospace;font-size:10px}#chart-999aa2a0-8248-471b-ad53-e43a641eb2a1 .text-overlay text.value{font-family:Consolas,"Liberation Mono",Menlo,Courier,monospace;font-size:16px}#chart-999aa2a0-8248-471b-ad53-e43a641eb2a1 .text-overlay text.label{font-family:Consolas,"Liberation Mono",Menlo,Courier,monospace;font-size:10px}#chart-999aa2a0-8248-471b-ad53-e43a641eb2a1 .tooltip{font-family:Consolas,"Liberation Mono",Menlo,Courier,monospace;font-size:14px}#chart-999aa2a0-8248-471b-ad53-e43a641eb2a1 text.no_data{font-family:Consolas,"Liberation Mono",Menlo,Courier,monospace;font-size:64px}
#chart-999aa2a0-8248-471b-ad53-e43a641eb2a1{background-color:rgba(249,249,249,1)}#chart-999aa2a0-8248-471b-ad53-e43a641eb2a1 path,#chart-999aa2a0-8248-471b-ad53-e43a641eb2a1 line,#chart-999aa2a0-8248-471b-ad53-e43a641eb2a1 rect,#chart-999aa2a0-8248-471b-ad53-e43a641eb2a1 circle{-webkit-transition:150ms;-moz-transition:150ms;transition:150ms}#chart-999aa2a0-8248-471b-ad53-e43a641eb2a1 .graph &gt; .background{fill:rgba(249,249,249,1)}#chart-999aa2a0-8248-471b-ad53-e43a641eb2a1 .plot &gt; .background{fill:rgba(255,255,255,1)}#chart-999aa2a0-8248-471b-ad53-e43a641eb2a1 .graph{fill:rgba(0,0,0,.87)}#chart-999aa2a0-8248-471b-ad53-e43a641eb2a1 text.no_data{fill:rgba(0,0,0,1)}#chart-999aa2a0-8248-471b-ad53-e43a641eb2a1 .title{fill:rgba(0,0,0,1)}#chart-999aa2a0-8248-471b-ad53-e43a641eb2a1 .legends .legend text{fill:rgba(0,0,0,.87)}#chart-999aa2a0-8248-471b-ad53-e43a641eb2a1 .legends .legend:hover text{fill:rgba(0,0,0,1)}#chart-999aa2a0-8248-471b-ad53-e43a641eb2a1 .axis .line{stroke:rgba(0,0,0,1)}#chart-999aa2a0-8248-471b-ad53-e43a641eb2a1 .axis .guide.line{stroke:rgba(0,0,0,.54)}#chart-999aa2a0-8248-471b-ad53-e43a641eb2a1 .axis .major.line{stroke:rgba(0,0,0,.87)}#chart-999aa2a0-8248-471b-ad53-e43a641eb2a1 .axis text.major{fill:rgba(0,0,0,1)}#chart-999aa2a0-8248-471b-ad53-e43a641eb2a1 .axis.y .guides:hover .guide.line,#chart-999aa2a0-8248-471b-ad53-e43a641eb2a1 .line-graph .axis.x .guides:hover .guide.line,#chart-999aa2a0-8248-471b-ad53-e43a641eb2a1 .stackedline-graph .axis.x .guides:hover .guide.line,#chart-999aa2a0-8248-471b-ad53-e43a641eb2a1 .xy-graph .axis.x .guides:hover .guide.line{stroke:rgba(0,0,0,1)}#chart-999aa2a0-8248-471b-ad53-e43a641eb2a1 .axis .guides:hover text{fill:rgba(0,0,0,1)}#chart-999aa2a0-8248-471b-ad53-e43a641eb2a1 .reactive{fill-opacity:.7;stroke-opacity:.8}#chart-999aa2a0-8248-471b-ad53-e43a641eb2a1 .ci{stroke:rgba(0,0,0,.87)}#chart-999aa2a0-8248-471b-ad53-e43a641eb2a1 .reactive.active,#chart-999aa2a0-8248-471b-ad53-e43a641eb2a1 .active .reactive{fill-opacity:.8;stroke-opacity:.9;stroke-width:4}#chart-999aa2a0-8248-471b-ad53-e43a641eb2a1 .ci .reactive.active{stroke-width:1.5}#chart-999aa2a0-8248-471b-ad53-e43a641eb2a1 .series text{fill:rgba(0,0,0,1)}#chart-999aa2a0-8248-471b-ad53-e43a641eb2a1 .tooltip rect{fill:rgba(255,255,255,1);stroke:rgba(0,0,0,1);-webkit-transition:opacity 150ms;-moz-transition:opacity 150ms;transition:opacity 150ms}#chart-999aa2a0-8248-471b-ad53-e43a641eb2a1 .tooltip .label{fill:rgba(0,0,0,.87)}#chart-999aa2a0-8248-471b-ad53-e43a641eb2a1 .tooltip .label{fill:rgba(0,0,0,.87)}#chart-999aa2a0-8248-471b-ad53-e43a641eb2a1 .tooltip .legend{font-size:.8em;fill:rgba(0,0,0,.54)}#chart-999aa2a0-8248-471b-ad53-e43a641eb2a1 .tooltip .x_label{font-size:.6em;fill:rgba(0,0,0,1)}#chart-999aa2a0-8248-471b-ad53-e43a641eb2a1 .tooltip .xlink{font-size:.5em;text-decoration:underline}#chart-999aa2a0-8248-471b-ad53-e43a641eb2a1 .tooltip .value{font-size:1.5em}#chart-999aa2a0-8248-471b-ad53-e43a641eb2a1 .bound{font-size:.5em}#chart-999aa2a0-8248-471b-ad53-e43a641eb2a1 .max-value{font-size:.75em;fill:rgba(0,0,0,.54)}#chart-999aa2a0-8248-471b-ad53-e43a641eb2a1 .map-element{fill:rgba(255,255,255,1);stroke:rgba(0,0,0,.54) !important}#chart-999aa2a0-8248-471b-ad53-e43a641eb2a1 .map-element .reactive{fill-opacity:inherit;stroke-opacity:inherit}#chart-999aa2a0-8248-471b-ad53-e43a641eb2a1 .color-0,#chart-999aa2a0-8248-471b-ad53-e43a641eb2a1 .color-0 a:visited{stroke:#909090;fill:#909090}#chart-999aa2a0-8248-471b-ad53-e43a641eb2a1 .color-1,#chart-999aa2a0-8248-471b-ad53-e43a641eb2a1 .color-1 a:visited{stroke:#000000;fill:#000000}#chart-999aa2a0-8248-471b-ad53-e43a641eb2a1 .color-2,#chart-999aa2a0-8248-471b-ad53-e43a641eb2a1 .color-2 a:visited{stroke:#ff0500;fill:#ff0500}#chart-999aa2a0-8248-471b-ad53-e43a641eb2a1 .color-3,#chart-999aa2a0-8248-471b-ad53-e43a641eb2a1 .color-3 a:visited{stroke:#323299;fill:#323299}#chart-999aa2a0-8248-471b-ad53-e43a641eb2a1 .color-4,#chart-999aa2a0-8248-471b-ad53-e43a641eb2a1 .color-4 a:visited{stroke:#a3413f;fill:#a3413f}#chart-999aa2a0-8248-471b-ad53-e43a641eb2a1 .color-5,#chart-999aa2a0-8248-471b-ad53-e43a641eb2a1 .color-5 a:visited{stroke:#a3413f;fill:#a3413f}#chart-999aa2a0-8248-471b-ad53-e43a641eb2a1 .color-6,#chart-999aa2a0-8248-471b-ad53-e43a641eb2a1 .color-6 a:visited{stroke:#657fff;fill:#657fff}#chart-999aa2a0-8248-471b-ad53-e43a641eb2a1 .color-7,#chart-999aa2a0-8248-471b-ad53-e43a641eb2a1 .color-7 a:visited{stroke:#657fff;fill:#657fff}#chart-999aa2a0-8248-471b-ad53-e43a641eb2a1 .text-overlay .color-0 text{fill:black}#chart-999aa2a0-8248-471b-ad53-e43a641eb2a1 .text-overlay .color-1 text{fill:white}#chart-999aa2a0-8248-471b-ad53-e43a641eb2a1 .text-overlay .color-2 text{fill:black}#chart-999aa2a0-8248-471b-ad53-e43a641eb2a1 .text-overlay .color-3 text{fill:black}#chart-999aa2a0-8248-471b-ad53-e43a641eb2a1 .text-overlay .color-4 text{fill:black}#chart-999aa2a0-8248-471b-ad53-e43a641eb2a1 .text-overlay .color-5 text{fill:black}#chart-999aa2a0-8248-471b-ad53-e43a641eb2a1 .text-overlay .color-6 text{fill:black}#chart-999aa2a0-8248-471b-ad53-e43a641eb2a1 .text-overlay .color-7 text{fill:black}#chart-999aa2a0-8248-471b-ad53-e43a641eb2a1 .series.serie-1{stroke-width:5}#chart-999aa2a0-8248-471b-ad53-e43a641eb2a1 .series.serie-2{stroke-width:3}#chart-999aa2a0-8248-471b-ad53-e43a641eb2a1 .series.serie-3{stroke-width:3}#chart-999aa2a0-8248-471b-ad53-e43a641eb2a1 .series.serie-4{stroke-width:2;stroke-dasharray:2,2}#chart-999aa2a0-8248-471b-ad53-e43a641eb2a1 .series.serie-5{stroke-width:2;stroke-dasharray:2,2}#chart-999aa2a0-8248-471b-ad53-e43a641eb2a1 .series.serie-6{stroke-width:2;stroke-dasharray:2,2}#chart-999aa2a0-8248-471b-ad53-e43a641eb2a1 .series.serie-7{stroke-width:2;stroke-dasharray:2,2}
#chart-999aa2a0-8248-471b-ad53-e43a641eb2a1 text.no_data{text-anchor:middle}#chart-999aa2a0-8248-471b-ad53-e43a641eb2a1 .guide.line{fill:none}#chart-999aa2a0-8248-471b-ad53-e43a641eb2a1 .centered{text-anchor:middle}#chart-999aa2a0-8248-471b-ad53-e43a641eb2a1 .title{text-anchor:middle}#chart-999aa2a0-8248-471b-ad53-e43a641eb2a1 .legends .legend text{fill-opacity:1}#chart-999aa2a0-8248-471b-ad53-e43a641eb2a1 .axis.x text{text-anchor:middle}#chart-999aa2a0-8248-471b-ad53-e43a641eb2a1 .axis.x:not(.web) text[transform]{text-anchor:start}#chart-999aa2a0-8248-471b-ad53-e43a641eb2a1 .axis.x:not(.web) text[transform].backwards{text-anchor:end}#chart-999aa2a0-8248-471b-ad53-e43a641eb2a1 .axis.y text{text-anchor:end}#chart-999aa2a0-8248-471b-ad53-e43a641eb2a1 .axis.y text[transform].backwards{text-anchor:start}#chart-999aa2a0-8248-471b-ad53-e43a641eb2a1 .axis.y2 text{text-anchor:start}#chart-999aa2a0-8248-471b-ad53-e43a641eb2a1 .axis.y2 text[transform].backwards{text-anchor:end}#chart-999aa2a0-8248-471b-ad53-e43a641eb2a1 .axis .guide.line{stroke-dasharray:4,4}#chart-999aa2a0-8248-471b-ad53-e43a641eb2a1 .axis .major.guide.line{stroke-dasharray:6,6}#chart-999aa2a0-8248-471b-ad53-e43a641eb2a1 .horizontal .axis.y .guide.line,#chart-999aa2a0-8248-471b-ad53-e43a641eb2a1 .horizontal .axis.y2 .guide.line,#chart-999aa2a0-8248-471b-ad53-e43a641eb2a1 .vertical .axis.x .guide.line{opacity:0}#chart-999aa2a0-8248-471b-ad53-e43a641eb2a1 .horizontal .axis.always_show .guide.line,#chart-999aa2a0-8248-471b-ad53-e43a641eb2a1 .vertical .axis.always_show .guide.line{opacity:1 !important}#chart-999aa2a0-8248-471b-ad53-e43a641eb2a1 .axis.y .guides:hover .guide.line,#chart-999aa2a0-8248-471b-ad53-e43a641eb2a1 .axis.y2 .guides:hover .guide.line,#chart-999aa2a0-8248-471b-ad53-e43a641eb2a1 .axis.x .guides:hover .guide.line{opacity:1}#chart-999aa2a0-8248-471b-ad53-e43a641eb2a1 .axis .guides:hover text{opacity:1}#chart-999aa2a0-8248-471b-ad53-e43a641eb2a1 .nofill{fill:none}#chart-999aa2a0-8248-471b-ad53-e43a641eb2a1 .subtle-fill{fill-opacity:.2}#chart-999aa2a0-8248-471b-ad53-e43a641eb2a1 .dot{stroke-width:1px;fill-opacity:1}#chart-999aa2a0-8248-471b-ad53-e43a641eb2a1 .dot.active{stroke-width:5px}#chart-999aa2a0-8248-471b-ad53-e43a641eb2a1 .dot.negative{fill:transparent}#chart-999aa2a0-8248-471b-ad53-e43a641eb2a1 text,#chart-999aa2a0-8248-471b-ad53-e43a641eb2a1 tspan{stroke:none !important}#chart-999aa2a0-8248-471b-ad53-e43a641eb2a1 .series text.active{opacity:1}#chart-999aa2a0-8248-471b-ad53-e43a641eb2a1 .tooltip rect{fill-opacity:.95;stroke-width:.5}#chart-999aa2a0-8248-471b-ad53-e43a641eb2a1 .tooltip text{fill-opacity:1}#chart-999aa2a0-8248-471b-ad53-e43a641eb2a1 .showable{visibility:hidden}#chart-999aa2a0-8248-471b-ad53-e43a641eb2a1 .showable.shown{visibility:visible}#chart-999aa2a0-8248-471b-ad53-e43a641eb2a1 .gauge-background{fill:rgba(229,229,229,1);stroke:none}#chart-999aa2a0-8248-471b-ad53-e43a641eb2a1 .bg-lines{stroke:rgba(249,249,249,1);stroke-width:2px}</style><script type="text/javascript">window.pygal = window.pygal || {};window.pygal.config = window.pygal.config || {};window.pygal.config['999aa2a0-8248-471b-ad53-e43a641eb2a1'] = {"height": 600, "stack_from_top": false, "strict": false, "y_labels_major_every": null, "secondary_range": null, "show_dots": false, "force_uri_protocol": "https", "margin_right": null, "print_labels": false, "spacing": 10, "title": "Iteration #6", "interpolation_precision": 250, "dynamic_print_values": false, "show_y_guides": true, "x_labels_major_count": null, "stroke_style": null, "include_x_axis": false, "width": 800, "css": ["file://style.css", "file://graph.css"], "truncate_label": null, "print_zeroes": true, "no_data_text": "No data", "x_title": "Observation", "tooltip_fancy_mode": true, "xrange": null, "show_legend": true, "show_minor_x_labels": false, "range": [0, 0.27578580090479526], "show_y_labels": true, "legends": ["Data", "GMM", "i=0", "i=1", "i=0 k=0", "i=0 k=1", "i=1 k=0", "i=1 k=1"], "truncate_legend": null, "half_pie": false, "x_labels": ["-8.96", "-8.76", "-8.56", "-8.36", "-8.16", "-7.96", "-7.76", "-7.56", "-7.36", "-7.16", "-6.96", "-6.76", "-6.56", "-6.36", "-6.16", "-5.96", "-5.76", "-5.56", "-5.36", "-5.16", "-4.96", "-4.76", "-4.56", "-4.36", "-4.16", "-3.96", "-3.76", "-3.56", "-3.36", "-3.16", "-2.96", "-2.76", "-2.56", "-2.36", "-2.16", "-1.96", "-1.76", "-1.56", "-1.36", "-1.16", "-0.96", "-0.76", "-0.56", "-0.36", "-0.16", "0.04", "0.24", "0.44", "0.64", "0.84", "1.04", "1.24", "1.43", "1.63", "1.83", "2.03", "2.23", "2.43", "2.63", "2.83"], "classes": ["pygal-chart"], "legend_box_size": 12, "rounded_bars": null, "print_values_position": "center", "x_label_rotation": 60, "y_labels_major": null, "fill": false, "legend_at_bottom_columns": null, "margin": 20, "js": ["//kozea.github.io/pygal.js/2.0.x/pygal-tooltips.min.js"], "explicit_size": false, "tooltip_border_radius": 0, "margin_top": null, "interpolate": null, "stroke": true, "defs": [], "show_minor_y_labels": true, "y_labels": null, "y_label_rotation": 0, "margin_left": null, "show_only_major_dots": false, "x_labels_major_every": 2, "y_title": "Density", "legend_at_bottom": false, "style": {"opacity_hover": ".8", "foreground": "rgba(0, 0, 0, .87)", "value_label_font_size": 10, "foreground_strong": "rgba(0, 0, 0, 1)", "background": "rgba(249, 249, 249, 1)", "no_data_font_size": 64, "tooltip_font_size": 14, "foreground_subtle": "rgba(0, 0, 0, .54)", "value_colors": [], "title_font_size": 16, "major_label_font_family": "Consolas, \"Liberation Mono\", Menlo, Courier, monospace", "opacity": ".7", "value_font_family": "Consolas, \"Liberation Mono\", Menlo, Courier, monospace", "label_font_family": "Consolas, \"Liberation Mono\", Menlo, Courier, monospace", "colors": ["#909090", "#000000", "#ff0500", "#323299", "#a3413f", "#a3413f", "#657fff", "#657fff"], "value_font_size": 16, "plot_background": "rgba(255, 255, 255, 1)", "guide_stroke_dasharray": "4,4", "no_data_font_family": "Consolas, \"Liberation Mono\", Menlo, Courier, monospace", "major_label_font_size": 10, "stroke_opacity_hover": ".9", "value_background": "rgba(229, 229, 229, 1)", "stroke_opacity": ".8", "value_label_font_family": "Consolas, \"Liberation Mono\", Menlo, Courier, monospace", "title_font_family": "Consolas, \"Liberation Mono\", Menlo, Courier, monospace", "legend_font_family": "Consolas, \"Liberation Mono\", Menlo, Courier, monospace", "legend_font_size": 10, "label_font_size": 10, "transition": "150ms", "major_guide_stroke_dasharray": "6,6", "font_family": "Consolas, \"Liberation Mono\", Menlo, Courier, monospace", "ci_colors": [], "tooltip_font_family": "Consolas, \"Liberation Mono\", Menlo, Courier, monospace"}, "max_scale": 16, "missing_value_fill_truncation": "x", "interpolation_parameters": {}, "pretty_print": false, "box_mode": "extremes", "margin_bottom": null, "y_labels_major_count": null, "formatter": null, "disable_xml_declaration": false, "dots_size": 2.5, "inner_radius": 0, "min_scale": 4, "no_prefix": false, "logarithmic": false, "show_x_labels": true, "order_min": null, "inverse_y_axis": false, "zero": 0, "show_x_guides": false, "print_values": false, "x_labels_major": null, "allow_interruptions": false}</script><script type="text/javascript" xlink:href="https://kozea.github.io/pygal.js/2.0.x/pygal-tooltips.min.js" /></defs><title>Iteration #6</title><g class="graph line-graph vertical"><rect class="background" height="600" width="800" x="0" y="0" /><g class="plot" transform="translate(144, 46)"><rect class="background" height="472.01923788646684" width="636.0" x="0" y="0" /><g class="axis y always_show"><g class="guides"><path class="axis major line" d="M0.000000 462.941945 h636.000000" /><text class="major" x="-5" y="466.44194485018863">0</text><title>0</title></g><g class="guides"><path class="guide line" d="M0.000000 430.027658 h636.000000" /><text class="" x="-5" y="433.52765772410197">0.02</text><title>0.02</title></g><g class="guides"><path class="guide line" d="M0.000000 397.113371 h636.000000" /><text class="" x="-5" y="400.61337059801525">0.04</text><title>0.04</title></g><g class="guides"><path class="guide line" d="M0.000000 364.199083 h636.000000" /><text class="" x="-5" y="367.6990834719286">0.06</text><title>0.06</title></g><g class="guides"><path class="guide line" d="M0.000000 331.284796 h636.000000" /><text class="" x="-5" y="334.78479634584187">0.08</text><title>0.08</title></g><g class="guides"><path class="guide line" d="M0.000000 298.370509 h636.000000" /><text class="" x="-5" y="301.8705092197552">0.1</text><title>0.1</title></g><g class="guides"><path class="guide line" d="M0.000000 265.456222 h636.000000" /><text class="" x="-5" y="268.95622209366854">0.12</text><title>0.12</title></g><g class="guides"><path class="guide line" d="M0.000000 232.541935 h636.000000" /><text class="" x="-5" y="236.04193496758182">0.14</text><title>0.14</title></g><g class="guides"><path class="guide line" d="M0.000000 199.627648 h636.000000" /><text class="" x="-5" y="203.12764784149516">0.16</text><title>0.16</title></g><g class="guides"><path class="guide line" d="M0.000000 166.713361 h636.000000" /><text class="" x="-5" y="170.2133607154085">0.18</text><title>0.18</title></g><g class="guides"><path class="guide line" d="M0.000000 133.799074 h636.000000" /><text class="" x="-5" y="137.29907358932178">0.2</text><title>0.2</title></g><g class="guides"><path class="guide line" d="M0.000000 100.884786 h636.000000" /><text class="" x="-5" y="104.38478646323512">0.22</text><title>0.22</title></g><g class="guides"><path class="guide line" d="M0.000000 67.970499 h636.000000" /><text class="" x="-5" y="71.4704993371484">0.24</text><title>0.24</title></g><g class="guides"><path class="guide line" d="M0.000000 35.056212 h636.000000" /><text class="" x="-5" y="38.556212211061734">0.26</text><title>0.26</title></g></g><g class="axis x"><g class="guides"><path class="major line" d="M12.230769 0.000000 v472.019238" /><text class="major" transform="rotate(60 12.230769 487.019238)" x="12.230769230769232" y="487.01923788646684">-8.96</text></g><g class="guides"><path class="major guide line" d="M32.960887 0.000000 v472.019238" /><text class="major" transform="rotate(60 32.960887 487.019238)" x="32.96088657105606" y="487.01923788646684">-8.56</text></g><g class="guides"><path class="major guide line" d="M53.691004 0.000000 v472.019238" /><text class="major" transform="rotate(60 53.691004 487.019238)" x="53.6910039113429" y="487.01923788646684">-8.16</text></g><g class="guides"><path class="major guide line" d="M74.421121 0.000000 v472.019238" /><text class="major" transform="rotate(60 74.421121 487.019238)" x="74.42112125162973" y="487.01923788646684">-7.76</text></g><g class="guides"><path class="major guide line" d="M95.151239 0.000000 v472.019238" /><text class="major" transform="rotate(60 95.151239 487.019238)" x="95.15123859191655" y="487.01923788646684">-7.36</text></g><g class="guides"><path class="major guide line" d="M115.881356 0.000000 v472.019238" /><text class="major" transform="rotate(60 115.881356 487.019238)" x="115.88135593220338" y="487.01923788646684">-6.96</text></g><g class="guides"><path class="major guide line" d="M136.611473 0.000000 v472.019238" /><text class="major" transform="rotate(60 136.611473 487.019238)" x="136.61147327249023" y="487.01923788646684">-6.56</text></g><g class="guides"><path class="major guide line" d="M157.341591 0.000000 v472.019238" /><text class="major" transform="rotate(60 157.341591 487.019238)" x="157.34159061277705" y="487.01923788646684">-6.16</text></g><g class="guides"><path class="major guide line" d="M178.071708 0.000000 v472.019238" /><text class="major" transform="rotate(60 178.071708 487.019238)" x="178.0717079530639" y="487.01923788646684">-5.76</text></g><g class="guides"><path class="major guide line" d="M198.801825 0.000000 v472.019238" /><text class="major" transform="rotate(60 198.801825 487.019238)" x="198.80182529335073" y="487.01923788646684">-5.36</text></g><g class="guides"><path class="major guide line" d="M219.531943 0.000000 v472.019238" /><text class="major" transform="rotate(60 219.531943 487.019238)" x="219.53194263363756" y="487.01923788646684">-4.96</text></g><g class="guides"><path class="major guide line" d="M240.262060 0.000000 v472.019238" /><text class="major" transform="rotate(60 240.262060 487.019238)" x="240.2620599739244" y="487.01923788646684">-4.56</text></g><g class="guides"><path class="major guide line" d="M260.992177 0.000000 v472.019238" /><text class="major" transform="rotate(60 260.992177 487.019238)" x="260.99217731421123" y="487.01923788646684">-4.16</text></g><g class="guides"><path class="major guide line" d="M281.722295 0.000000 v472.019238" /><text class="major" transform="rotate(60 281.722295 487.019238)" x="281.722294654498" y="487.01923788646684">-3.76</text></g><g class="guides"><path class="major guide line" d="M302.452412 0.000000 v472.019238" /><text class="major" transform="rotate(60 302.452412 487.019238)" x="302.4524119947849" y="487.01923788646684">-3.36</text></g><g class="guides"><path class="major guide line" d="M323.182529 0.000000 v472.019238" /><text class="major" transform="rotate(60 323.182529 487.019238)" x="323.1825293350717" y="487.01923788646684">-2.96</text></g><g class="guides"><path class="major guide line" d="M343.912647 0.000000 v472.019238" /><text class="major" transform="rotate(60 343.912647 487.019238)" x="343.91264667535853" y="487.01923788646684">-2.56</text></g><g class="guides"><path class="major guide line" d="M364.642764 0.000000 v472.019238" /><text class="major" transform="rotate(60 364.642764 487.019238)" x="364.64276401564535" y="487.01923788646684">-2.16</text></g><g class="guides"><path class="major guide line" d="M385.372881 0.000000 v472.019238" /><text class="major" transform="rotate(60 385.372881 487.019238)" x="385.37288135593224" y="487.01923788646684">-1.76</text></g><g class="guides"><path class="major guide line" d="M406.102999 0.000000 v472.019238" /><text class="major" transform="rotate(60 406.102999 487.019238)" x="406.102998696219" y="487.01923788646684">-1.36</text></g><g class="guides"><path class="major guide line" d="M426.833116 0.000000 v472.019238" /><text class="major" transform="rotate(60 426.833116 487.019238)" x="426.8331160365058" y="487.01923788646684">-0.96</text></g><g class="guides"><path class="major guide line" d="M447.563233 0.000000 v472.019238" /><text class="major" transform="rotate(60 447.563233 487.019238)" x="447.56323337679265" y="487.01923788646684">-0.56</text></g><g class="guides"><path class="major guide line" d="M468.293351 0.000000 v472.019238" /><text class="major" transform="rotate(60 468.293351 487.019238)" x="468.29335071707953" y="487.01923788646684">-0.16</text></g><g class="guides"><path class="major guide line" d="M489.023468 0.000000 v472.019238" /><text class="major" transform="rotate(60 489.023468 487.019238)" x="489.02346805736636" y="487.01923788646684">0.24</text></g><g class="guides"><path class="major guide line" d="M509.753585 0.000000 v472.019238" /><text class="major" transform="rotate(60 509.753585 487.019238)" x="509.75358539765324" y="487.01923788646684">0.64</text></g><g class="guides"><path class="major guide line" d="M530.483703 0.000000 v472.019238" /><text class="major" transform="rotate(60 530.483703 487.019238)" x="530.48370273794" y="487.01923788646684">1.04</text></g><g class="guides"><path class="major guide line" d="M551.213820 0.000000 v472.019238" /><text class="major" transform="rotate(60 551.213820 487.019238)" x="551.213820078227" y="487.01923788646684">1.43</text></g><g class="guides"><path class="major guide line" d="M571.943937 0.000000 v472.019238" /><text class="major" transform="rotate(60 571.943937 487.019238)" x="571.9439374185138" y="487.01923788646684">1.83</text></g><g class="guides"><path class="major guide line" d="M592.674055 0.000000 v472.019238" /><text class="major" transform="rotate(60 592.674055 487.019238)" x="592.6740547588006" y="487.01923788646684">2.23</text></g><g class="guides"><path class="major guide line" d="M613.404172 0.000000 v472.019238" /><text class="major" transform="rotate(60 613.404172 487.019238)" x="613.4041720990874" y="487.01923788646684">2.63</text></g></g><g class="series serie-0 color-0"><path class="line reactive" d="M12.230769 462.941945 L12.230769 462.019456 22.595828 462.941945 32.960887 461.096967 43.325945 462.019456 53.691004 459.251988 64.056063 462.019456 74.421121 458.329499 84.786180 462.019456 95.151239 458.329499 105.516297 462.019456 115.881356 448.182119 126.246415 460.174477 136.611473 457.407010 146.976532 457.407010 157.341591 451.872075 167.706649 448.182119 178.071708 454.639543 188.436767 445.414651 198.801825 442.647184 209.166884 436.189760 219.531943 437.112249 229.897001 392.832771 240.262060 396.522728 250.627119 376.227967 260.992177 355.933206 271.357236 351.320760 281.722295 325.491065 292.087353 277.521630 302.452412 283.056565 312.817471 202.800010 323.182529 188.040184 333.547588 169.590402 343.912647 123.465945 354.277705 95.791271 364.642764 67.194108 375.007823 82.876423 385.372881 60.736684 395.737940 80.108956 406.102999 29.372054 416.468057 9.077293 426.833116 70.884065 437.198175 69.039086 447.563233 41.364413 457.928292 40.441923 468.293351 91.178826 478.658409 140.993239 489.023468 214.792369 499.388527 259.071847 509.753585 321.801108 520.118644 364.235608 530.483703 408.515086 540.848761 430.654825 551.213820 448.182119 561.578879 455.562032 571.943937 458.329499 582.308996 458.329499 592.674055 462.019456 603.039113 462.941945 613.404172 462.019456 623.769231 462.941945" /></g><g class="series serie-1 color-1"><path class="line reactive nofill" d="M12.230769 462.926288 L22.595828 462.913659 32.960887 462.891866 43.325945 462.855060 53.691004 462.794221 64.056063 462.695811 74.421121 462.540055 84.786180 462.298873 95.151239 461.933559 105.516297 461.392382 115.881356 460.608450 126.246415 459.498286 136.611473 457.961714 146.976532 455.883710 157.341591 453.138837 167.706649 449.598685 178.071708 445.142232 188.436767 439.668110 198.801825 433.106279 209.166884 425.424290 219.531943 416.620535 229.897001 406.694613 240.262060 395.585980 250.627119 383.080764 260.992177 368.706989 271.357236 351.669408 281.722295 330.903884 292.087353 305.331767 302.452412 274.337654 312.817471 238.371406 323.182529 199.427811 333.547588 161.075742 343.912647 127.791874 354.277705 103.631943 364.642764 90.649388 375.007823 87.746636 385.372881 90.621437 395.737940 93.088336 406.102999 89.448462 416.468057 77.026510 426.833116 57.776894 437.198175 38.135448 447.563233 26.995075 457.928292 32.527387 468.293351 59.148609 478.658409 105.906705 489.023468 166.913590 499.388527 233.494228 509.753585 296.994861 520.118644 351.061458 530.483703 392.658622 540.848761 421.800037 551.213820 440.488572 561.578879 451.504310 571.943937 457.492916 582.308996 460.505837 592.674055 461.914150 603.039113 462.528936 613.404172 462.781525 623.769231 462.880386" /></g><g class="series serie-2 color-2"><path class="line reactive nofill" d="M12.230769 462.941945 L22.595828 462.941945 32.960887 462.941945 43.325945 462.941945 53.691004 462.941945 64.056063 462.941945 74.421121 462.941945 84.786180 462.941945 95.151239 462.941945 105.516297 462.941945 115.881356 462.941945 126.246415 462.941945 136.611473 462.941945 146.976532 462.941945 157.341591 462.941945 167.706649 462.941945 178.071708 462.941945 188.436767 462.941945 198.801825 462.941944 209.166884 462.941939 219.531943 462.941921 229.897001 462.941850 240.262060 462.941585 250.627119 462.940664 260.992177 462.937656 271.357236 462.928449 281.722295 462.902012 292.087353 462.830775 302.452412 462.650579 312.817471 462.222597 323.182529 461.268125 333.547588 459.269868 343.912647 455.345174 354.277705 448.122284 364.642764 435.689709 375.007823 415.728447 385.372881 385.945872 395.737940 344.866503 406.102999 292.872101 416.468057 233.154607 426.833116 172.068884 437.198175 118.414756 447.563233 81.538815 457.928292 68.729469 468.293351 82.874947 478.658409 121.411823 489.023468 177.084251 499.388527 240.205061 509.753585 301.439344 520.118644 354.001795 530.483703 394.591119 540.848761 423.055779 551.213820 441.292458 561.578879 452.010115 571.943937 457.805277 582.308996 460.695017 592.674055 462.026471 603.039113 462.594298 613.404172 462.818802 623.769231 462.901220" /></g><g class="series serie-3 color-3"><path class="line reactive nofill" d="M12.230769 462.926288 L22.595828 462.913659 32.960887 462.891866 43.325945 462.855060 53.691004 462.794221 64.056063 462.695811 74.421121 462.540055 84.786180 462.298873 95.151239 461.933559 105.516297 461.392382 115.881356 460.608450 126.246415 459.498286 136.611473 457.961714 146.976532 455.883710 157.341591 453.138837 167.706649 449.598685 178.071708 445.142232 188.436767 439.668110 198.801825 433.106280 209.166884 425.424295 219.531943 416.620558 229.897001 406.694707 240.262060 395.586340 250.627119 383.082045 260.992177 368.711278 271.357236 351.682905 281.722295 330.943817 292.087353 305.442938 302.452412 274.629020 312.817471 239.090754 323.182529 201.101631 333.547588 164.747819 343.912647 135.388645 354.277705 118.451604 364.642764 117.901624 375.007823 134.960134 385.372881 167.617510 395.737940 211.163778 406.102999 259.518306 416.468057 306.813848 426.833116 348.649956 437.198175 382.662637 447.563233 408.398205 457.928292 426.739863 468.293351 439.215606 478.658409 447.436827 489.023468 452.771283 499.388527 456.231112 509.753585 458.497462 520.118644 460.001607 530.483703 461.009447 540.848761 461.686203 551.213820 462.138058 561.578879 462.436139 571.943937 462.629584 582.308996 462.752765 592.674055 462.829624 603.039113 462.876582 613.404172 462.904668 623.769231 462.921111" /></g><g class="series serie-4 color-4"><path class="line reactive nofill" d="M12.230769 462.941945 L22.595828 462.941945 32.960887 462.941945 43.325945 462.941945 53.691004 462.941945 64.056063 462.941945 74.421121 462.941945 84.786180 462.941945 95.151239 462.941945 105.516297 462.941945 115.881356 462.941945 126.246415 462.941945 136.611473 462.941945 146.976532 462.941945 157.341591 462.941945 167.706649 462.941945 178.071708 462.941945 188.436767 462.941945 198.801825 462.941944 209.166884 462.941939 219.531943 462.941922 229.897001 462.941851 240.262060 462.941590 250.627119 462.940686 260.992177 462.937757 271.357236 462.928887 281.722295 462.903762 292.087353 462.837251 302.452412 462.672757 312.817471 462.292919 323.182529 461.474563 333.547588 459.830959 343.912647 456.757128 354.277705 451.411935 364.642764 442.785849 375.007823 429.900647 385.372881 412.151534 395.737940 389.730280 406.102999 363.983520 416.468057 337.512586 426.833116 313.861881 437.198175 296.786769 447.563233 289.289015 457.928292 292.755764 468.293351 306.540628 478.658409 328.160392 489.023468 354.025252 499.388527 380.408045 509.753585 404.295157 520.118644 423.864152 530.483703 438.525088 540.848761 448.635773 551.213820 455.081791 561.578879 458.892341 571.943937 460.985498 582.308996 462.055611 592.674055 462.565414 603.039113 462.791949 613.404172 462.885914 623.769231 462.922318" /></g><g class="series serie-5 color-5"><path class="line reactive nofill" d="M12.230769 462.941945 L22.595828 462.941945 32.960887 462.941945 43.325945 462.941945 53.691004 462.941945 64.056063 462.941945 74.421121 462.941945 84.786180 462.941945 95.151239 462.941945 105.516297 462.941945 115.881356 462.941945 126.246415 462.941945 136.611473 462.941945 146.976532 462.941945 157.341591 462.941945 167.706649 462.941945 178.071708 462.941945 188.436767 462.941945 198.801825 462.941945 209.166884 462.941945 219.531943 462.941945 229.897001 462.941944 240.262060 462.941941 250.627119 462.941923 260.992177 462.941843 271.357236 462.941507 281.722295 462.940194 292.087353 462.935469 302.452412 462.919766 312.817471 462.871623 323.182529 462.735507 333.547588 462.380853 343.912647 461.529991 354.277705 459.652293 364.642764 455.845805 375.007823 448.769746 385.372881 436.736283 395.737940 418.078167 406.102999 391.830526 416.468057 358.583966 426.833116 321.148948 437.198175 284.569932 447.563233 255.191744 457.928292 238.915649 468.293351 239.276264 478.658409 256.193376 489.023468 286.000944 499.388527 322.738961 509.753585 360.086132 520.118644 393.079588 530.483703 419.007977 540.848761 437.361951 551.213820 449.152612 561.578879 456.059720 571.943937 459.761724 582.308996 461.581351 592.674055 462.403002 603.039113 462.744294 613.404172 462.874833 623.769231 462.920847" /></g><g class="series serie-6 color-6"><path class="line reactive nofill" d="M12.230769 462.926288 L22.595828 462.913659 32.960887 462.891866 43.325945 462.855060 53.691004 462.794221 64.056063 462.695811 74.421121 462.540055 84.786180 462.298873 95.151239 461.933559 105.516297 461.392383 115.881356 460.608451 126.246415 459.498290 136.611473 457.961732 146.976532 455.883788 157.341591 453.139148 167.706649 449.599852 178.071708 445.146323 188.436767 439.681522 198.801825 433.147362 209.166884 425.541888 219.531943 416.935099 229.897001 407.480917 240.262060 397.422741 250.627119 387.090377 260.992177 376.887013 271.357236 367.266119 281.722295 358.699660 292.087353 351.640481 302.452412 346.482938 312.817471 343.526490 323.182529 342.946920 333.547588 344.779030 343.912647 348.913184 354.277705 355.106171 364.642764 363.004885 375.007823 372.179638 385.372881 382.162710 395.737940 392.487371 406.102999 402.722895 416.468057 412.502086 426.833116 421.539206 437.198175 429.637704 447.563233 436.688564 457.928292 442.661092 468.293351 447.588621 478.658409 451.551678 489.023468 454.660987 499.388527 457.042073 509.753585 458.822679 520.118644 460.123482 530.483703 461.052127 540.848761 461.700170 551.213820 462.142329 561.578879 462.437360 571.943937 462.629910 582.308996 462.752847 592.674055 462.829643 603.039113 462.876587 613.404172 462.904669 623.769231 462.921111" /></g><g class="series serie-7 color-7"><path class="line reactive nofill" d="M12.230769 462.941945 L22.595828 462.941945 32.960887 462.941945 43.325945 462.941945 53.691004 462.941945 64.056063 462.941945 74.421121 462.941945 84.786180 462.941945 95.151239 462.941945 105.516297 462.941945 115.881356 462.941944 126.246415 462.941941 136.611473 462.941927 146.976532 462.941867 157.341591 462.941634 167.706649 462.940778 178.071708 462.937853 188.436767 462.928533 198.801825 462.900863 209.166884 462.824352 219.531943 462.627404 229.897001 462.155735 240.262060 461.105544 250.627119 458.933613 260.992177 454.766210 271.357236 447.358730 281.722295 435.186102 292.087353 416.744401 302.452412 391.088027 312.817471 358.506208 323.182529 321.096656 333.547588 282.910734 343.912647 249.417405 354.277705 226.287378 364.642764 217.838684 375.007823 225.722441 385.372881 248.396745 395.737940 281.618352 406.102999 319.737356 416.468057 357.253707 426.833116 390.052695 437.198175 415.966877 447.563233 434.651586 457.928292 447.020716 468.293351 454.568931 478.658409 458.827093 489.023468 461.052241 499.388527 462.130983 509.753585 462.616727 520.118644 462.820070 530.483703 462.899265 540.848761 462.927978 551.213820 462.937674 561.578879 462.940724 571.943937 462.941619 582.308996 462.941864 592.674055 462.941926 603.039113 462.941941 613.404172 462.941944 623.769231 462.941945" /></g></g><g class="titles"><text class="title plot_title" x="400.0" y="26">Iteration #6</text><text class="title" x="462.0" y="580.0">Observation</text><text class="title" transform="rotate(-90 64.000000 282.009619)" x="64.0" y="308.0096189432334">Density</text></g><g class="plot overlay" transform="translate(144, 46)"><g class="series serie-0 color-0" /><g class="series serie-1 color-1" /><g class="series serie-2 color-2" /><g class="series serie-3 color-3" /><g class="series serie-4 color-4" /><g class="series serie-5 color-5" /><g class="series serie-6 color-6" /><g class="series serie-7 color-7" /></g><g class="plot text-overlay" transform="translate(144, 46)"><g class="series serie-0 color-0" /><g class="series serie-1 color-1" /><g class="series serie-2 color-2" /><g class="series serie-3 color-3" /><g class="series serie-4 color-4" /><g class="series serie-5 color-5" /><g class="series serie-6 color-6" /><g class="series serie-7 color-7" /></g><g class="plot tooltip-overlay" transform="translate(144, 46)"><g class="tooltip" style="opacity: 0" transform="translate(0 0)"><rect class="tooltip-box" height="0" rx="0" ry="0" width="0" /><g class="text" /></g></g><g class="legends" transform="translate(10, 56)"><g class="legend reactive activate-serie" id="activate-serie-0"><rect class="color-0 reactive" height="12" width="12" x="0.0" y="0.0" /><text x="17.0" y="9.0">Data</text></g><g class="legend reactive activate-serie" id="activate-serie-1"><rect class="color-1 reactive" height="12" width="12" x="0.0" y="18.0" /><text x="17.0" y="27.0">GMM</text></g><g class="legend reactive activate-serie" id="activate-serie-2"><rect class="color-2 reactive" height="12" width="12" x="0.0" y="36.0" /><text x="17.0" y="45.0">i=0</text></g><g class="legend reactive activate-serie" id="activate-serie-3"><rect class="color-3 reactive" height="12" width="12" x="0.0" y="54.0" /><text x="17.0" y="63.0">i=1</text></g><g class="legend reactive activate-serie" id="activate-serie-4"><rect class="color-4 reactive" height="12" width="12" x="0.0" y="72.0" /><text x="17.0" y="81.0">i=0 k=0</text></g><g class="legend reactive activate-serie" id="activate-serie-5"><rect class="color-5 reactive" height="12" width="12" x="0.0" y="90.0" /><text x="17.0" y="99.0">i=0 k=1</text></g><g class="legend reactive activate-serie" id="activate-serie-6"><rect class="color-6 reactive" height="12" width="12" x="0.0" y="108.0" /><text x="17.0" y="117.0">i=1 k=0</text></g><g class="legend reactive activate-serie" id="activate-serie-7"><rect class="color-7 reactive" height="12" width="12" x="0.0" y="126.0" /><text x="17.0" y="135.0">i=1 k=1</text></g></g><g class="legends" transform="translate(790, 56)" /></g></svg>