<?xml version='1.0' encoding='utf-8'?>
<svg xmlns:xlink="http://www.w3.org/1999/xlink" class="pygal-chart" id="chart-1a15de0c-4373-4ba6-8d94-c0e36839b601" viewBox="0 0 800 600" xmlns="http://www.w3.org/2000/svg"><!--Generated with pygal 2.4.0 (etree) ©Kozea 2012-2016 on 2018-02-07--><!--http://pygal.org--><!--http://github.com/Kozea/pygal--><defs><style type="text/css">#chart-1a15de0c-4373-4ba6-8d94-c0e36839b601{-webkit-user-select:none;-webkit-font-smoothing:antialiased;font-family:Consolas,"Liberation Mono",Menlo,Courier,monospace}#chart-1a15de0c-4373-4ba6-8d94-c0e36839b601 .title{font-family:Consolas,"Liberation Mono",Menlo,Courier,monospace;font-size:16px}#chart-1a15de0c-4373-4ba6-8d94-c0e36839b601 .legends .legend text{font-family:Consolas,"Liberation Mono",Menlo,Courier,monospace;font-size:10px}#chart-1a15de0c-4373-4ba6-8d94-c0e36839b601 .axis text{font-family:Consolas,"Liberation Mono",Menlo,Courier,monospace;font-size:10px}#chart-1a15de0c-4373-4ba6-8d94-c0e36839b601 .axis text.major{font-family:Consolas,"Liberation Mono",Menlo,Courier,monospace;font-size:10px}#chart-1a15de0c-4373-4ba6-8d94-c0e36839b601 .text-overlay text.value{font-family:Consolas,"Liberation Mono",Menlo,Courier,monospace;font-size:16px}#chart-1a15de0c-4373-4ba6-8d94-c0e36839b601 .text-overlay text.label{font-family:Consolas,"Liberation Mono",Menlo,Courier,monospace;font-size:10px}#chart-1a15de0c-4373-4ba6-8d94-c0e36839b601 .tooltip{font-family:Consolas,"Liberation Mono",Menlo,Courier,monospace;font-size:14px}#chart-1a15de0c-4373-4ba6-8d94-c0e36839b601 text.no_data{font-family:Consolas,"Liberation Mono",Menlo,Courier,monospace;font-size:64px}
#chart-1a15de0c-4373-4ba6-8d94-c0e36839b601{background-color:rgba(249,249,249,1)}#chart-1a15de0c-4373-4ba6-8d94-c0e36839b601 path,#chart-1a15de0c-4373-4ba6-8d94-c0e36839b601 line,#chart-1a15de0c-4373-4ba6-8d94-c0e36839b601 rect,#chart-1a15de0c-4373-4ba6-8d94-c0e36839b601 circle{-webkit-transition:150ms;-moz-transition:150ms;transition:150ms}#chart-1a15de0c-4373-4ba6-8d94-c0e36839b601 .graph &gt; .background{fill:rgba(249,249,249,1)}#chart-1a15de0c-4373-4ba6-8d94-c0e36839b601 .plot &gt; .background{fill:rgba(255,255,255,1)}#chart-1a15de0c-4373-4ba6-8d94-c0e36839b601 .graph{fill:rgba(0,0,0,.87)}#chart-1a15de0c-4373-4ba6-8d94-c0e36839b601 text.no_data{fill:rgba(0,0,0,1)}#chart-1a15de0c-4373-4ba6-8d94-c0e36839b601 .title{fill:rgba(0,0,0,1)}#chart-1a15de0c-4373-4ba6-8d94-c0e36839b601 .legends .legend text{fill:rgba(0,0,0,.87)}#chart-1a15de0c-4373-4ba6-8d94-c0e36839b601 .legends .legend:hover text{fill:rgba(0,0,0,1)}#chart-1a15de0c-4373-4ba6-8d94-c0e36839b601 .axis .line{stroke:rgba(0,0,0,1)}#chart-1a15de0c-4373-4ba6-8d94-c0e36839b601 .axis .guide.line{stroke:rgba(0,0,0,.54)}#chart-1a15de0c-4373-4ba6-8d94-c0e36839b601 .axis .major.line{stroke:rgba(0,0,0,.87)}#chart-1a15de0c-4373-4ba6-8d94-c0e36839b601 .axis text.major{fill:rgba(0,0,0,1)}#chart-1a15de0c-4373-4ba6-8d94-c0e36839b601 .axis.y .guides:hover .guide.line,#chart-1a15de0c-4373-4ba6-8d94-c0e36839b601 .line-graph .axis.x .guides:hover .guide.line,#chart-1a15de0c-4373-4ba6-8d94-c0e36839b601 .stackedline-graph .axis.x .guides:hover .guide.line,#chart-1a15de0c-4373-4ba6-8d94-c0e36839b601 .xy-graph .axis.x .guides:hover .guide.line{stroke:rgba(0,0,0,1)}#chart-1a15de0c-4373-4ba6-8d94-c0e36839b601 .axis .guides:hover text{fill:rgba(0,0,0,1)}#chart-1a15de0c-4373-4ba6-8d94-c0e36839b601 .reactive{fill-opacity:.7;stroke-opacity:.8}#chart-1a15de0c-4373-4ba6-8d94-c0e36839b601 .ci{stroke:rgba(0,0,0,.87)}#chart-1a15de0c-4373-4ba6-8d94-c0e36839b601 .reactive.active,#chart-1a15de0c-4373-4ba6-8d94-c0e36839b601 .active .reactive{fill-opacity:.8;stroke-opacity:.9;stroke-width:4}#chart-1a15de0c-4373-4ba6-8d94-c0e36839b601 .ci .reactive.active{stroke-width:1.5}#chart-1a15de0c-4373-4ba6-8d94-c0e36839b601 .series text{fill:rgba(0,0,0,1)}#chart-1a15de0c-4373-4ba6-8d94-c0e36839b601 .tooltip rect{fill:rgba(255,255,255,1);stroke:rgba(0,0,0,1);-webkit-transition:opacity 150ms;-moz-transition:opacity 150ms;transition:opacity 150ms}#chart-1a15de0c-4373-4ba6-8d94-c0e36839b601 .tooltip .label{fill:rgba(0,0,0,.87)}#chart-1a15de0c-4373-4ba6-8d94-c0e36839b601 .tooltip .label{fill:rgba(0,0,0,.87)}#chart-1a15de0c-4373-4ba6-8d94-c0e36839b601 .tooltip .legend{font-size:.8em;fill:rgba(0,0,0,.54)}#chart-1a15de0c-4373-4ba6-8d94-c0e36839b601 .tooltip .x_label{font-size:.6em;fill:rgba(0,0,0,1)}#chart-1a15de0c-4373-4ba6-8d94-c0e36839b601 .tooltip .xlink{font-size:.5em;text-decoration:underline}#chart-1a15de0c-4373-4ba6-8d94-c0e36839b601 .tooltip .value{font-size:1.5em}#chart-1a15de0c-4373-4ba6-8d94-c0e36839b601 .bound{font-size:.5em}#chart-1a15de0c-4373-4ba6-8d94-c0e36839b601 .max-value{font-size:.75em;fill:rgba(0,0,0,.54)}#chart-1a15de0c-4373-4ba6-8d94-c0e36839b601 .map-element{fill:rgba(255,255,255,1);stroke:rgba(0,0,0,.54) !important}#chart-1a15de0c-4373-4ba6-8d94-c0e36839b601 .map-element .reactive{fill-opacity:inherit;stroke-opacity:inherit}#chart-1a15de0c-4373-4ba6-8d94-c0e36839b601 .color-0,#chart-1a15de0c-4373-4ba6-8d94-c0e36839b601 .color-0 a:visited{stroke:#909090;fill:#909090}#chart-1a15de0c-4373-4ba6-8d94-c0e36839b601 .color-1,#chart-1a15de0c-4373-4ba6-8d94-c0e36839b601 .color-1 a:visited{stroke:#000000;fill:#000000}#chart-1a15de0c-4373-4ba6-8d94-c0e36839b601 .color-2,#chart-1a15de0c-4373-4ba6-8d94-c0e36839b601 .color-2 a:visited{stroke:#ff0500;fill:#ff0500}#chart-1a15de0c-4373-4ba6-8d94-c0e36839b601 .color-3,#chart-1a15de0c-4373-4ba6-8d94-c0e36839b601 .color-3 a:visited{stroke:#323299;fill:#323299}#chart-1a15de0c-4373-4ba6-8d94-c0e36839b601 .color-4,#chart-1a15de0c-4373-4ba6-8d94-c0e36839b601 .color-4 a:visited{stroke:#a3413f;fill:#a3413f}#chart-1a15de0c-4373-4ba6-8d94-c0e36839b601 .color-5,#chart-1a15de0c-4373-4ba6-8d94-c0e36839b601 .color-5 a:visited{stroke:#a3413f;fill:#a3413f}#chart-1a15de0c-4373-4ba6-8d94-c0e36839b601 .color-6,#chart-1a15de0c-4373-4ba6-8d94-c0e36839b601 .color-6 a:visited{stroke:#657fff;fill:#657fff}#chart-1a15de0c-4373-4ba6-8d94-c0e36839b601 .color-7,#chart-1a15de0c-4373-4ba6-8d94-c0e36839b601 .color-7 a:visited{stroke:#657fff;fill:#657fff}#chart-1a15de0c-4373-4ba6-8d94-c0e36839b601 .text-overlay .color-0 text{fill:black}#chart-1a15de0c-4373-4ba6-8d94-c0e36839b601 .text-overlay .color-1 text{fill:white}#chart-1a15de0c-4373-4ba6-8d94-c0e36839b601 .text-overlay .color-2 text{fill:black}#chart-1a15de0c-4373-4ba6-8d94-c0e36839b601 .text-overlay .color-3 text{fill:black}#chart-1a15de0c-4373-4ba6-8d94-c0e36839b601 .text-overlay .color-4 text{fill:black}#chart-1a15de0c-4373-4ba6-8d94-c0e36839b601 .text-overlay .color-5 text{fill:black}#chart-1a15de0c-4373-4ba6-8d94-c0e36839b601 .text-overlay .color-6 text{fill:black}#chart-1a15de0c-4373-4ba6-8d94-c0e36839b601 .text-overlay .color-7 text{fill:black}#chart-1a15de0c-4373-4ba6-8d94-c0e36839b601 .series.serie-1{stroke-width:5}#chart-1a15de0c-4373-4ba6-8d94-c0e36839b601 .series.serie-2{stroke-width:3}#chart-1a15de0c-4373-4ba6-8d94-c0e36839b601 .series.serie-3{stroke-width:3}#chart-1a15de0c-4373-4ba6-8d94-c0e36839b601 .series.serie-4{stroke-width:2;stroke-dasharray:2,2}#chart-1a15de0c-4373-4ba6-8d94-c0e36839b601 .series.serie-5{stroke-width:2;stroke-dasharray:2,2}#chart-1a15de0c-4373-4ba6-8d94-c0e36839b601 .series.serie-6{stroke-width:2;stroke-dasharray:2,2}#chart-1a15de0c-4373-4ba6-8d94-c0e36839b601 .series.serie-7{stroke-width:2;stroke-dasharray:2,2}
#chart-1a15de0c-4373-4ba6-8d94-c0e36839b601 text.no_data{text-anchor:middle}#chart-1a15de0c-4373-4ba6-8d94-c0e36839b601 .guide.line{fill:none}#chart-1a15de0c-4373-4ba6-8d94-c0e36839b601 .centered{text-anchor:middle}#chart-1a15de0c-4373-4ba6-8d94-c0e36839b601 .title{text-anchor:middle}#chart-1a15de0c-4373-4ba6-8d94-c0e36839b601 .legends .legend text{fill-opacity:1}#chart-1a15de0c-4373-4ba6-8d94-c0e36839b601 .axis.x text{text-anchor:middle}#chart-1a15de0c-4373-4ba6-8d94-c0e36839b601 .axis.x:not(.web) text[transform]{text-anchor:start}#chart-1a15de0c-4373-4ba6-8d94-c0e36839b601 .axis.x:not(.web) text[transform].backwards{text-anchor:end}#chart-1a15de0c-4373-4ba6-8d94-c0e36839b601 .axis.y text{text-anchor:end}#chart-1a15de0c-4373-4ba6-8d94-c0e36839b601 .axis.y text[transform].backwards{text-anchor:start}#chart-1a15de0c-4373-4ba6-8d94-c0e36839b601 .axis.y2 text{text-anchor:start}#chart-1a15de0c-4373-4ba6-8d94-c0e36839b601 .axis.y2 text[transform].backwards{text-anchor:end}#chart-1a15de0c-4373-4ba6-8d94-c0e36839b601 .axis .guide.line{stroke-dasharray:4,4}#chart-1a15de0c-4373-4ba6-8d94-c0e36839b601 .axis .major.guide.line{stroke-dasharray:6,6}#chart-1a15de0c-4373-4ba6-8d94-c0e36839b601 .horizontal .axis.y .guide.line,#chart-1a15de0c-4373-4ba6-8d94-c0e36839b601 .horizontal .axis.y2 .guide.line,#chart-1a15de0c-4373-4ba6-8d94-c0e36839b601 .vertical .axis.x .guide.line{opacity:0}#chart-1a15de0c-4373-4ba6-8d94-c0e36839b601 .horizontal .axis.always_show .guide.line,#chart-1a15de0c-4373-4ba6-8d94-c0e36839b601 .vertical .axis.always_show .guide.line{opacity:1 !important}#chart-1a15de0c-4373-4ba6-8d94-c0e36839b601 .axis.y .guides:hover .guide.line,#chart-1a15de0c-4373-4ba6-8d94-c0e36839b601 .axis.y2 .guides:hover .guide.line,#chart-1a15de0c-4373-4ba6-8d94-c0e36839b601 .axis.x .guides:hover .guide.line{opacity:1}#chart-1a15de0c-4373-4ba6-8d94-c0e36839b601 .axis .guides:hover text{opacity:1}#chart-1a15de0c-4373-4ba6-8d94-c0e36839b601 .nofill{fill:none}#chart-1a15de0c-4373-4ba6-8d94-c0e36839b601 .subtle-fill{fill-opacity:.2}#chart-1a15de0c-4373-4ba6-8d94-c0e36839b601 .dot{stroke-width:1px;fill-opacity:1}#chart-1a15de0c-4373-4ba6-8d94-c0e36839b601 .dot.active{stroke-width:5px}#chart-1a15de0c-4373-4ba6-8d94-c0e36839b601 .dot.negative{fill:transparent}#chart-1a15de0c-4373-4ba6-8d94-c0e36839b601 text,#chart-1a15de0c-4373-4ba6-8d94-c0e36839b601 tspan{stroke:none !important}#chart-1a15de0c-4373-4ba6-8d94-c0e36839b601 .series text.active{opacity:1}#chart-1a15de0c-4373-4ba6-8d94-c0e36839b601 .tooltip rect{fill-opacity:.95;stroke-width:.5}#chart-1a15de0c-4373-4ba6-8d94-c0e36839b601 .tooltip text{fill-opacity:1}#chart-1a15de0c-4373-4ba6-8d94-c0e36839b601 .showable{visibility:hidden}#chart-1a15de0c-4373-4ba6-8d94-c0e36839b601 .showable.shown{visibility:visible}#chart-1a15de0c-4373-4ba6-8d94-c0e36839b601 .gauge-background{fill:rgba(229,229,229,1);stroke:none}#chart-1a15de0c-4373-4ba6-8d94-c0e36839b601 .bg-lines{stroke:rgba(249,249,249,1);stroke-width:2px}</style><script type="text/javascript">window.pygal = window.pygal || {};window.pygal.config = window.pygal.config || {};window.pygal.config['1a15de0c-4373-4ba6-8d94-c0e36839b601'] = {"y_labels": null, "no_prefix": false, "margin": 20, "css": ["file://style.css", "file://graph.css"], "show_minor_x_labels": false, "no_data_text": "No data", "inner_radius": 0, "truncate_label": null, "margin_right": null, "dynamic_print_values": false, "defs": [], "range": [0, 0.27578580090479526], "margin_top": null, "height": 600, "print_values_position": "center", "allow_interruptions": false, "show_legend": true, "interpolation_parameters": {}, "min_scale": 4, "x_title": "Observation", "y_label_rotation": 0, "dots_size": 2.5, "style": {"value_background": "rgba(229, 229, 229, 1)", "legend_font_size": 10, "foreground": "rgba(0, 0, 0, .87)", "background": "rgba(249, 249, 249, 1)", "value_colors": [], "stroke_opacity_hover": ".9", "label_font_family": "Consolas, \"Liberation Mono\", Menlo, Courier, monospace", "major_guide_stroke_dasharray": "6,6", "font_family": "Consolas, \"Liberation Mono\", Menlo, Courier, monospace", "label_font_size": 10, "foreground_subtle": "rgba(0, 0, 0, .54)", "opacity": ".7", "value_label_font_size": 10, "guide_stroke_dasharray": "4,4", "title_font_size": 16, "major_label_font_family": "Consolas, \"Liberation Mono\", Menlo, Courier, monospace", "stroke_opacity": ".8", "colors": ["#909090", "#000000", "#ff0500", "#323299", "#a3413f", "#a3413f", "#657fff", "#657fff"], "opacity_hover": ".8", "value_font_family": "Consolas, \"Liberation Mono\", Menlo, Courier, monospace", "foreground_strong": "rgba(0, 0, 0, 1)", "tooltip_font_size": 14, "no_data_font_size": 64, "legend_font_family": "Consolas, \"Liberation Mono\", Menlo, Courier, monospace", "tooltip_font_family": "Consolas, \"Liberation Mono\", Menlo, Courier, monospace", "value_label_font_family": "Consolas, \"Liberation Mono\", Menlo, Courier, monospace", "title_font_family": "Consolas, \"Liberation Mono\", Menlo, Courier, monospace", "ci_colors": [], "major_label_font_size": 10, "plot_background": "rgba(255, 255, 255, 1)", "no_data_font_family": "Consolas, \"Liberation Mono\", Menlo, Courier, monospace", "value_font_size": 16, "transition": "150ms"}, "x_labels_major_count": null, "tooltip_fancy_mode": true, "zero": 0, "stack_from_top": false, "explicit_size": false, "print_labels": false, "show_x_guides": false, "x_label_rotation": 60, "legend_at_bottom_columns": null, "width": 800, "x_labels": ["-8.96", "-8.76", "-8.56", "-8.36", "-8.16", "-7.96", "-7.76", "-7.56", "-7.36", "-7.16", "-6.96", "-6.76", "-6.56", "-6.36", "-6.16", "-5.96", "-5.76", "-5.56", "-5.36", "-5.16", "-4.96", "-4.76", "-4.56", "-4.36", "-4.16", "-3.96", "-3.76", "-3.56", "-3.36", "-3.16", "-2.96", "-2.76", "-2.56", "-2.36", "-2.16", "-1.96", "-1.76", "-1.56", "-1.36", "-1.16", "-0.96", "-0.76", "-0.56", "-0.36", "-0.16", "0.04", "0.24", "0.44", "0.64", "0.84", "1.04", "1.24", "1.43", "1.63", "1.83", "2.03", "2.23", "2.43", "2.63", "2.83"], "force_uri_protocol": "https", "rounded_bars": null, "missing_value_fill_truncation": "x", "stroke": true, "box_mode": "extremes", "xrange": null, "js": ["//kozea.github.io/pygal.js/2.0.x/pygal-tooltips.min.js"], "order_min": null, "margin_bottom": null, "fill": false, "logarithmic": false, "strict": false, "truncate_legend": null, "disable_xml_declaration": false, "max_scale": 16, "show_x_labels": true, "tooltip_border_radius": 0, "x_labels_major": null, "secondary_range": null, "classes": ["pygal-chart"], "y_labels_major": null, "print_values": false, "show_minor_y_labels": true, "y_labels_major_count": null, "y_title": "Density", "interpolate": null, "show_y_labels": true, "x_labels_major_every": 2, "print_zeroes": true, "pretty_print": false, "legend_box_size": 12, "show_only_major_dots": false, "interpolation_precision": 250, "spacing": 10, "show_y_guides": true, "margin_left": null, "inverse_y_axis": false, "show_dots": false, "legend_at_bottom": false, "formatter": null, "title": "Iteration #12", "y_labels_major_every": null, "include_x_axis": false, "legends": ["Data", "GMM", "i=0", "i=1", "i=0 k=0", "i=0 k=1", "i=1 k=0", "i=1 k=1"], "stroke_style": null, "half_pie": false}</script><script type="text/javascript" xlink:href="https://kozea.github.io/pygal.js/2.0.x/pygal-tooltips.min.js" /></defs><title>Iteration #12</title><g class="graph line-graph vertical"><rect class="background" height="600" width="800" x="0" y="0" /><g class="plot" transform="translate(144, 46)"><rect class="background" height="472.01923788646684" width="636.0" x="0" y="0" /><g class="axis y always_show"><g class="guides"><path class="axis major line" d="M0.000000 462.941945 h636.000000" /><text class="major" x="-5" y="466.44194485">0</text><title>0</title></g><g class="guides"><path class="guide line" d="M0.000000 430.027658 h636.000000" /><text class="" x="-5" y="433.527657724">0.02</text><title>0.02</title></g><g class="guides"><path class="guide line" d="M0.000000 397.113371 h636.000000" /><text class="" x="-5" y="400.613370598">0.04</text><title>0.04</title></g><g class="guides"><path class="guide line" d="M0.000000 364.199083 h636.000000" /><text class="" x="-5" y="367.699083472">0.06</text><title>0.06</title></g><g class="guides"><path class="guide line" d="M0.000000 331.284796 h636.000000" /><text class="" x="-5" y="334.784796346">0.08</text><title>0.08</title></g><g class="guides"><path class="guide line" d="M0.000000 298.370509 h636.000000" /><text class="" x="-5" y="301.87050922">0.1</text><title>0.1</title></g><g class="guides"><path class="guide line" d="M0.000000 265.456222 h636.000000" /><text class="" x="-5" y="268.956222094">0.12</text><title>0.12</title></g><g class="guides"><path class="guide line" d="M0.000000 232.541935 h636.000000" /><text class="" x="-5" y="236.041934968">0.14</text><title>0.14</title></g><g class="guides"><path class="guide line" d="M0.000000 199.627648 h636.000000" /><text class="" x="-5" y="203.127647841">0.16</text><title>0.16</title></g><g class="guides"><path class="guide line" d="M0.000000 166.713361 h636.000000" /><text class="" x="-5" y="170.213360715">0.18</text><title>0.18</title></g><g class="guides"><path class="guide line" d="M0.000000 133.799074 h636.000000" /><text class="" x="-5" y="137.299073589">0.2</text><title>0.2</title></g><g class="guides"><path class="guide line" d="M0.000000 100.884786 h636.000000" /><text class="" x="-5" y="104.384786463">0.22</text><title>0.22</title></g><g class="guides"><path class="guide line" d="M0.000000 67.970499 h636.000000" /><text class="" x="-5" y="71.4704993371">0.24</text><title>0.24</title></g><g class="guides"><path class="guide line" d="M0.000000 35.056212 h636.000000" /><text class="" x="-5" y="38.5562122111">0.26</text><title>0.26</title></g></g><g class="axis x"><g class="guides"><path class="major line" d="M12.230769 0.000000 v472.019238" /><text class="major" transform="rotate(60 12.230769 487.019238)" x="12.230769230769232" y="487.01923788646684">-8.96</text></g><g class="guides"><path class="major guide line" d="M32.960887 0.000000 v472.019238" /><text class="major" transform="rotate(60 32.960887 487.019238)" x="32.96088657105606" y="487.01923788646684">-8.56</text></g><g class="guides"><path class="major guide line" d="M53.691004 0.000000 v472.019238" /><text class="major" transform="rotate(60 53.691004 487.019238)" x="53.6910039113429" y="487.01923788646684">-8.16</text></g><g class="guides"><path class="major guide line" d="M74.421121 0.000000 v472.019238" /><text class="major" transform="rotate(60 74.421121 487.019238)" x="74.42112125162973" y="487.01923788646684">-7.76</text></g><g class="guides"><path class="major guide line" d="M95.151239 0.000000 v472.019238" /><text class="major" transform="rotate(60 95.151239 487.019238)" x="95.15123859191655" y="487.01923788646684">-7.36</text></g><g class="guides"><path class="major guide line" d="M115.881356 0.000000 v472.019238" /><text class="major" transform="rotate(60 115.881356 487.019238)" x="115.88135593220338" y="487.01923788646684">-6.96</text></g><g class="guides"><path class="major guide line" d="M136.611473 0.000000 v472.019238" /><text class="major" transform="rotate(60 136.611473 487.019238)" x="136.61147327249023" y="487.01923788646684">-6.56</text></g><g class="guides"><path class="major guide line" d="M157.341591 0.000000 v472.019238" /><text class="major" transform="rotate(60 157.341591 487.019238)" x="157.34159061277705" y="487.01923788646684">-6.16</text></g><g class="guides"><path class="major guide line" d="M178.071708 0.000000 v472.019238" /><text class="major" transform="rotate(60 178.071708 487.019238)" x="178.0717079530639" y="487.01923788646684">-5.76</text></g><g class="guides"><path class="major guide line" d="M198.801825 0.000000 v472.019238" /><text class="major" transform="rotate(60 198.801825 487.019238)" x="198.80182529335073" y="487.01923788646684">-5.36</text></g><g class="guides"><path class="major guide line" d="M219.531943 0.000000 v472.019238" /><text class="major" transform="rotate(60 219.531943 487.019238)" x="219.53194263363756" y="487.01923788646684">-4.96</text></g><g class="guides"><path class="major guide line" d="M240.262060 0.000000 v472.019238" /><text class="major" transform="rotate(60 240.262060 487.019238)" x="240.2620599739244" y="487.01923788646684">-4.56</text></g><g class="guides"><path class="major guide line" d="M260.992177 0.000000 v472.019238" /><text class="major" transform="rotate(60 260.992177 487.019238)" x="260.99217731421123" y="487.01923788646684">-4.16</text></g><g class="guides"><path class="major guide line" d="M281.722295 0.000000 v472.019238" /><text class="major" transform="rotate(60 281.722295 487.019238)" x="281.722294654498" y="487.01923788646684">-3.76</text></g><g class="guides"><path class="major guide line" d="M302.452412 0.000000 v472.019238" /><text class="major" transform="rotate(60 302.452412 487.019238)" x="302.4524119947849" y="487.01923788646684">-3.36</text></g><g class="guides"><path class="major guide line" d="M323.182529 0.000000 v472.019238" /><text class="major" transform="rotate(60 323.182529 487.019238)" x="323.1825293350717" y="487.01923788646684">-2.96</text></g><g class="guides"><path class="major guide line" d="M343.912647 0.000000 v472.019238" /><text class="major" transform="rotate(60 343.912647 487.019238)" x="343.91264667535853" y="487.01923788646684">-2.56</text></g><g class="guides"><path class="major guide line" d="M364.642764 0.000000 v472.019238" /><text class="major" transform="rotate(60 364.642764 487.019238)" x="364.64276401564535" y="487.01923788646684">-2.16</text></g><g class="guides"><path class="major guide line" d="M385.372881 0.000000 v472.019238" /><text class="major" transform="rotate(60 385.372881 487.019238)" x="385.37288135593224" y="487.01923788646684">-1.76</text></g><g class="guides"><path class="major guide line" d="M406.102999 0.000000 v472.019238" /><text class="major" transform="rotate(60 406.102999 487.019238)" x="406.102998696219" y="487.01923788646684">-1.36</text></g><g class="guides"><path class="major guide line" d="M426.833116 0.000000 v472.019238" /><text class="major" transform="rotate(60 426.833116 487.019238)" x="426.8331160365058" y="487.01923788646684">-0.96</text></g><g class="guides"><path class="major guide line" d="M447.563233 0.000000 v472.019238" /><text class="major" transform="rotate(60 447.563233 487.019238)" x="447.56323337679265" y="487.01923788646684">-0.56</text></g><g class="guides"><path class="major guide line" d="M468.293351 0.000000 v472.019238" /><text class="major" transform="rotate(60 468.293351 487.019238)" x="468.29335071707953" y="487.01923788646684">-0.16</text></g><g class="guides"><path class="major guide line" d="M489.023468 0.000000 v472.019238" /><text class="major" transform="rotate(60 489.023468 487.019238)" x="489.02346805736636" y="487.01923788646684">0.24</text></g><g class="guides"><path class="major guide line" d="M509.753585 0.000000 v472.019238" /><text class="major" transform="rotate(60 509.753585 487.019238)" x="509.75358539765324" y="487.01923788646684">0.64</text></g><g class="guides"><path class="major guide line" d="M530.483703 0.000000 v472.019238" /><text class="major" transform="rotate(60 530.483703 487.019238)" x="530.48370273794" y="487.01923788646684">1.04</text></g><g class="guides"><path class="major guide line" d="M551.213820 0.000000 v472.019238" /><text class="major" transform="rotate(60 551.213820 487.019238)" x="551.213820078227" y="487.01923788646684">1.43</text></g><g class="guides"><path class="major guide line" d="M571.943937 0.000000 v472.019238" /><text class="major" transform="rotate(60 571.943937 487.019238)" x="571.9439374185138" y="487.01923788646684">1.83</text></g><g class="guides"><path class="major guide line" d="M592.674055 0.000000 v472.019238" /><text class="major" transform="rotate(60 592.674055 487.019238)" x="592.6740547588006" y="487.01923788646684">2.23</text></g><g class="guides"><path class="major guide line" d="M613.404172 0.000000 v472.019238" /><text class="major" transform="rotate(60 613.404172 487.019238)" x="613.4041720990874" y="487.01923788646684">2.63</text></g></g><g class="series serie-0 color-0"><path class="line reactive" d="M12.230769 462.941945 L12.230769 462.019456 22.595828 462.941945 32.960887 461.096967 43.325945 462.019456 53.691004 459.251988 64.056063 462.019456 74.421121 458.329499 84.786180 462.019456 95.151239 458.329499 105.516297 462.019456 115.881356 448.182119 126.246415 460.174477 136.611473 457.407010 146.976532 457.407010 157.341591 451.872075 167.706649 448.182119 178.071708 454.639543 188.436767 445.414651 198.801825 442.647184 209.166884 436.189760 219.531943 437.112249 229.897001 392.832771 240.262060 396.522728 250.627119 376.227967 260.992177 355.933206 271.357236 351.320760 281.722295 325.491065 292.087353 277.521630 302.452412 283.056565 312.817471 202.800010 323.182529 188.040184 333.547588 169.590402 343.912647 123.465945 354.277705 95.791271 364.642764 67.194108 375.007823 82.876423 385.372881 60.736684 395.737940 80.108956 406.102999 29.372054 416.468057 9.077293 426.833116 70.884065 437.198175 69.039086 447.563233 41.364413 457.928292 40.441923 468.293351 91.178826 478.658409 140.993239 489.023468 214.792369 499.388527 259.071847 509.753585 321.801108 520.118644 364.235608 530.483703 408.515086 540.848761 430.654825 551.213820 448.182119 561.578879 455.562032 571.943937 458.329499 582.308996 458.329499 592.674055 462.019456 603.039113 462.941945 613.404172 462.019456 623.769231 462.941945" /></g><g class="series serie-1 color-1"><path class="line reactive nofill" d="M12.230769 462.920714 L22.595828 462.904180 32.960887 462.876106 43.325945 462.829440 53.691004 462.753519 64.056063 462.632634 74.421121 462.444283 84.786180 462.157146 95.151239 461.728926 105.516297 461.104303 115.881356 460.213349 126.246415 458.970924 136.611473 457.277596 146.976532 455.022714 157.341591 452.090134 167.706649 448.366868 178.071708 443.754479 188.436767 438.182227 198.801825 431.619742 209.166884 424.084881 219.531943 415.639301 229.897001 406.360372 240.262060 396.275469 250.627119 385.248574 260.992177 372.827443 271.357236 358.098443 281.722295 339.648968 292.087353 315.773517 302.452412 285.026664 312.817471 247.080348 323.182529 203.603772 333.547588 158.672533 343.912647 118.215639 354.277705 88.349682 364.642764 73.048598 375.007823 72.143355 385.372881 80.757137 395.737940 90.773091 406.102999 93.985132 416.468057 85.675869 426.833116 67.005098 437.198175 45.020027 447.563233 30.150881 457.928292 32.229620 468.293351 56.766006 478.658409 103.058761 489.023468 164.792162 499.388527 232.587713 509.753585 297.190497 520.118644 351.937218 530.483703 393.764862 540.848761 422.821104 551.213820 441.277519 561.578879 452.041386 571.943937 457.823920 582.308996 460.693906 592.674055 462.014099 603.039113 462.579291 613.404172 462.805909 623.769231 462.891901" /></g><g class="series serie-2 color-2"><path class="line reactive nofill" d="M12.230769 462.941945 L22.595828 462.941945 32.960887 462.941945 43.325945 462.941945 53.691004 462.941945 64.056063 462.941945 74.421121 462.941945 84.786180 462.941945 95.151239 462.941945 105.516297 462.941945 115.881356 462.941945 126.246415 462.941945 136.611473 462.941945 146.976532 462.941945 157.341591 462.941945 167.706649 462.941945 178.071708 462.941945 188.436767 462.941945 198.801825 462.941945 209.166884 462.941945 219.531943 462.941944 229.897001 462.941940 240.262060 462.941919 250.627119 462.941824 260.992177 462.941423 271.357236 462.939850 281.722295 462.934151 292.087353 462.915060 302.452412 462.855952 312.817471 462.686869 323.182529 462.240231 333.547588 461.151463 343.912647 458.704191 354.277705 453.637348 364.642764 443.988108 375.007823 427.117649 385.372881 400.109494 395.737940 360.668637 406.102999 308.430790 416.468057 246.259029 426.833116 180.840499 437.198175 121.945114 447.563233 80.198301 457.928292 63.985359 468.293351 76.708947 478.658409 115.627023 489.023468 172.813881 499.388527 237.783980 509.753585 300.592102 520.118644 354.170388 530.483703 395.223732 540.848761 423.763648 551.213820 441.877302 561.578879 452.416396 571.943937 458.054001 582.308996 460.832334 592.674055 462.095747 603.039113 462.626495 613.404172 462.832658 623.769231 462.906759" /></g><g class="series serie-3 color-3"><path class="line reactive nofill" d="M12.230769 462.920714 L22.595828 462.904180 32.960887 462.876106 43.325945 462.829440 53.691004 462.753519 64.056063 462.632634 74.421121 462.444283 84.786180 462.157146 95.151239 461.728926 105.516297 461.104303 115.881356 460.213349 126.246415 458.970924 136.611473 457.277596 146.976532 455.022714 157.341591 452.090134 167.706649 448.366868 178.071708 443.754479 188.436767 438.182227 198.801825 431.619742 209.166884 424.084881 219.531943 415.639302 229.897001 406.360377 240.262060 396.275495 250.627119 385.248695 260.992177 372.827965 271.357236 358.100538 281.722295 339.656762 292.087353 315.800401 302.452412 285.112656 312.817471 247.335423 323.182529 204.305486 333.547588 160.463014 343.912647 122.453393 354.277705 97.654280 364.642764 92.002435 375.007823 107.967651 385.372881 143.589588 395.737940 193.046398 406.102999 248.496287 416.468057 302.358785 426.833116 349.106543 437.198175 386.016858 447.563233 412.894525 457.928292 431.186207 468.293351 442.999004 478.658409 450.373683 489.023468 454.920226 499.388527 457.745677 509.753585 459.540340 520.118644 460.708775 530.483703 461.483074 540.848761 461.999402 551.213820 462.342161 561.578879 462.566934 571.943937 462.711864 582.308996 462.803517 592.674055 462.860297 603.039113 462.894740 613.404172 462.915195 623.769231 462.927087" /></g><g class="series serie-4 color-4"><path class="line reactive nofill" d="M12.230769 462.941945 L22.595828 462.941945 32.960887 462.941945 43.325945 462.941945 53.691004 462.941945 64.056063 462.941945 74.421121 462.941945 84.786180 462.941945 95.151239 462.941945 105.516297 462.941945 115.881356 462.941945 126.246415 462.941945 136.611473 462.941945 146.976532 462.941945 157.341591 462.941945 167.706649 462.941945 178.071708 462.941945 188.436767 462.941945 198.801825 462.941945 209.166884 462.941945 219.531943 462.941944 229.897001 462.941941 240.262060 462.941925 250.627119 462.941855 260.992177 462.941561 271.357236 462.940423 281.722295 462.936358 292.087353 462.922947 302.452412 462.882107 312.817471 462.767369 323.182529 462.470170 333.547588 461.761005 343.912647 460.203762 354.277705 457.061119 364.642764 451.242760 375.007823 441.383655 385.372881 426.144775 395.737940 404.764330 406.102999 377.742099 416.468057 347.367157 426.833116 317.721154 437.198175 293.922805 447.563233 280.726840 457.928292 280.982644 468.293351 294.633641 478.658409 318.737640 489.023468 348.498136 499.388527 378.812547 509.753585 405.656452 520.118644 426.810700 530.483703 441.833191 540.848761 451.518853 551.213820 457.216014 561.578879 460.283363 571.943937 461.798553 582.308996 462.486452 592.674055 462.773867 603.039113 462.884496 613.404172 462.923757 623.769231 462.936611" /></g><g class="series serie-5 color-5"><path class="line reactive nofill" d="M12.230769 462.941945 L22.595828 462.941945 32.960887 462.941945 43.325945 462.941945 53.691004 462.941945 64.056063 462.941945 74.421121 462.941945 84.786180 462.941945 95.151239 462.941945 105.516297 462.941945 115.881356 462.941945 126.246415 462.941945 136.611473 462.941945 146.976532 462.941945 157.341591 462.941945 167.706649 462.941945 178.071708 462.941945 188.436767 462.941945 198.801825 462.941945 209.166884 462.941945 219.531943 462.941945 229.897001 462.941944 240.262060 462.941938 250.627119 462.941914 260.992177 462.941807 271.357236 462.941372 281.722295 462.939738 292.087353 462.934058 302.452412 462.915790 312.817471 462.861444 323.182529 462.712005 333.547588 462.332403 343.912647 461.442374 354.277705 459.518173 364.642764 455.687293 375.007823 448.675939 385.372881 436.906664 395.737940 418.846252 406.102999 393.630636 416.468057 361.833817 426.833116 326.061290 437.198175 290.964253 447.563233 262.413406 457.928292 245.944660 468.293351 245.017250 478.658409 259.831327 489.023468 287.257689 499.388527 321.913378 509.753585 357.877594 520.118644 390.301633 530.483703 416.332486 540.848761 435.186739 551.213820 447.603233 561.578879 455.074978 571.943937 459.197393 582.308996 461.287827 592.674055 462.263824 603.039113 462.683944 613.404172 462.850847 623.769231 462.912093" /></g><g class="series serie-6 color-6"><path class="line reactive nofill" d="M12.230769 462.920714 L22.595828 462.904180 32.960887 462.876106 43.325945 462.829440 53.691004 462.753519 64.056063 462.632634 74.421121 462.444283 84.786180 462.157146 95.151239 461.728926 105.516297 461.104303 115.881356 460.213350 126.246415 458.970925 136.611473 457.277600 146.976532 455.022731 157.341591 452.090211 167.706649 448.367201 178.071708 443.755812 188.436767 438.187188 198.801825 431.636881 209.166884 424.139844 219.531943 415.802919 229.897001 406.812509 240.262060 397.435283 250.627119 388.010351 260.992177 378.932292 271.357236 370.625702 281.722295 363.513243 292.087353 357.980420 302.452412 354.341099 312.817471 352.808050 323.182529 353.472352 333.547588 356.294435 343.912647 361.107980 354.277705 367.636151 364.642764 375.517947 375.007823 384.341186 385.372881 393.677951 395.737940 403.118277 406.102999 412.298498 416.468057 420.921738 426.833116 428.769360 437.198175 435.703507 447.563233 441.661962 457.928292 446.647294 468.293351 450.712589 478.658409 453.946000 489.023468 456.455978 499.388527 458.358549 509.753585 459.767376 520.118644 460.786848 530.483703 461.507996 540.848761 462.006787 551.213820 462.344192 561.578879 462.567453 571.943937 462.711987 582.308996 462.803544 592.674055 462.860303 603.039113 462.894741 613.404172 462.915195 623.769231 462.927087" /></g><g class="series serie-7 color-7"><path class="line reactive nofill" d="M12.230769 462.941945 L22.595828 462.941945 32.960887 462.941945 43.325945 462.941945 53.691004 462.941945 64.056063 462.941945 74.421121 462.941945 84.786180 462.941945 95.151239 462.941945 105.516297 462.941945 115.881356 462.941945 126.246415 462.941944 136.611473 462.941942 146.976532 462.941928 157.341591 462.941868 167.706649 462.941612 178.071708 462.940612 188.436767 462.936984 198.801825 462.924806 209.166884 462.886982 219.531943 462.778327 229.897001 462.489813 240.262060 461.782156 250.627119 460.180288 260.992177 456.837618 271.357236 450.416782 281.722295 439.085464 292.087353 420.761926 302.452412 393.713502 312.817471 357.469318 323.182529 313.775079 333.547588 267.110525 343.912647 224.287358 354.277705 192.960073 364.642764 179.426432 375.007823 186.568410 385.372881 212.853582 395.737940 252.870066 406.102999 299.139733 416.468057 344.378992 426.833116 383.279128 437.198175 413.255295 447.563233 434.174508 457.928292 447.480857 468.293351 455.228359 478.658409 459.369628 489.023468 461.406193 499.388527 462.329073 509.753585 462.714908 520.118644 462.863872 530.483703 462.917023 540.848761 462.934560 551.213820 462.939914 561.578879 462.941426 571.943937 462.941822 582.308996 462.941918 592.674055 462.941939 603.039113 462.941944 613.404172 462.941945 623.769231 462.941945" /></g></g><g class="titles"><text class="title plot_title" x="400.0" y="26">Iteration #12</text><text class="title" x="462.0" y="580.0">Observation</text><text class="title" transform="rotate(-90 64.000000 282.009619)" x="64.0" y="308.0096189432334">Density</text></g><g class="plot overlay" transform="translate(144, 46)"><g class="series serie-0 color-0" /><g class="series serie-1 color-1" /><g class="series serie-2 color-2" /><g class="series serie-3 color-3" /><g class="series serie-4 color-4" /><g class="series serie-5 color-5" /><g class="series serie-6 color-6" /><g class="series serie-7 color-7" /></g><g class="plot text-overlay" transform="translate(144, 46)"><g class="series serie-0 color-0" /><g class="series serie-1 color-1" /><g class="series serie-2 color-2" /><g class="series serie-3 color-3" /><g class="series serie-4 color-4" /><g class="series serie-5 color-5" /><g class="series serie-6 color-6" /><g class="series serie-7 color-7" /></g><g class="plot tooltip-overlay" transform="translate(144, 46)"><g class="tooltip" style="opacity: 0" transform="translate(0 0)"><rect class="tooltip-box" height="0" rx="0" ry="0" width="0" /><g class="text" /></g></g><g class="legends" transform="translate(10, 56)"><g class="legend reactive activate-serie" id="activate-serie-0"><rect class="color-0 reactive" height="12" width="12" x="0.0" y="0.0" /><text x="17.0" y="9.0">Data</text></g><g class="legend reactive activate-serie" id="activate-serie-1"><rect class="color-1 reactive" height="12" width="12" x="0.0" y="18.0" /><text x="17.0" y="27.0">GMM</text></g><g class="legend reactive activate-serie" id="activate-serie-2"><rect class="color-2 reactive" height="12" width="12" x="0.0" y="36.0" /><text x="17.0" y="45.0">i=0</text></g><g class="legend reactive activate-serie" id="activate-serie-3"><rect class="color-3 reactive" height="12" width="12" x="0.0" y="54.0" /><text x="17.0" y="63.0">i=1</text></g><g class="legend reactive activate-serie" id="activate-serie-4"><rect class="color-4 reactive" height="12" width="12" x="0.0" y="72.0" /><text x="17.0" y="81.0">i=0 k=0</text></g><g class="legend reactive activate-serie" id="activate-serie-5"><rect class="color-5 reactive" height="12" width="12" x="0.0" y="90.0" /><text x="17.0" y="99.0">i=0 k=1</text></g><g class="legend reactive activate-serie" id="activate-serie-6"><rect class="color-6 reactive" height="12" width="12" x="0.0" y="108.0" /><text x="17.0" y="117.0">i=1 k=0</text></g><g class="legend reactive activate-serie" id="activate-serie-7"><rect class="color-7 reactive" height="12" width="12" x="0.0" y="126.0" /><text x="17.0" y="135.0">i=1 k=1</text></g></g><g class="legends" transform="translate(790, 56)" /></g></svg>