<?xml version='1.0' encoding='utf-8'?>
<svg xmlns:xlink="http://www.w3.org/1999/xlink" class="pygal-chart" id="chart-92b48ea2-6c9b-4768-8b2a-a07083a242a0" viewBox="0 0 800 600" xmlns="http://www.w3.org/2000/svg"><!--Generated with pygal 2.4.0 (etree) ©Kozea 2012-2016 on 2017-12-18--><!--http://pygal.org--><!--http://github.com/Kozea/pygal--><defs><style type="text/css">#chart-92b48ea2-6c9b-4768-8b2a-a07083a242a0{-webkit-user-select:none;-webkit-font-smoothing:antialiased;font-family:Consolas,"Liberation Mono",Menlo,Courier,monospace}#chart-92b48ea2-6c9b-4768-8b2a-a07083a242a0 .title{font-family:Consolas,"Liberation Mono",Menlo,Courier,monospace;font-size:16px}#chart-92b48ea2-6c9b-4768-8b2a-a07083a242a0 .legends .legend text{font-family:Consolas,"Liberation Mono",Menlo,Courier,monospace;font-size:10px}#chart-92b48ea2-6c9b-4768-8b2a-a07083a242a0 .axis text{font-family:Consolas,"Liberation Mono",Menlo,Courier,monospace;font-size:10px}#chart-92b48ea2-6c9b-4768-8b2a-a07083a242a0 .axis text.major{font-family:Consolas,"Liberation Mono",Menlo,Courier,monospace;font-size:10px}#chart-92b48ea2-6c9b-4768-8b2a-a07083a242a0 .text-overlay text.value{font-family:Consolas,"Liberation Mono",Menlo,Courier,monospace;font-size:16px}#chart-92b48ea2-6c9b-4768-8b2a-a07083a242a0 .text-overlay text.label{font-family:Consolas,"Liberation Mono",Menlo,Courier,monospace;font-size:10px}#chart-92b48ea2-6c9b-4768-8b2a-a07083a242a0 .tooltip{font-family:Consolas,"Liberation Mono",Menlo,Courier,monospace;font-size:14px}#chart-92b48ea2-6c9b-4768-8b2a-a07083a242a0 text.no_data{font-family:Consolas,"Liberation Mono",Menlo,Courier,monospace;font-size:64px}
#chart-92b48ea2-6c9b-4768-8b2a-a07083a242a0{background-color:rgba(249,249,249,1)}#chart-92b48ea2-6c9b-4768-8b2a-a07083a242a0 path,#chart-92b48ea2-6c9b-4768-8b2a-a07083a242a0 line,#chart-92b48ea2-6c9b-4768-8b2a-a07083a242a0 rect,#chart-92b48ea2-6c9b-4768-8b2a-a07083a242a0 circle{-webkit-transition:150ms;-moz-transition:150ms;transition:150ms}#chart-92b48ea2-6c9b-4768-8b2a-a07083a242a0 .graph &gt; .background{fill:rgba(249,249,249,1)}#chart-92b48ea2-6c9b-4768-8b2a-a07083a242a0 .plot &gt; .background{fill:rgba(255,255,255,1)}#chart-92b48ea2-6c9b-4768-8b2a-a07083a242a0 .graph{fill:rgba(0,0,0,.87)}#chart-92b48ea2-6c9b-4768-8b2a-a07083a242a0 text.no_data{fill:rgba(0,0,0,1)}#chart-92b48ea2-6c9b-4768-8b2a-a07083a242a0 .title{fill:rgba(0,0,0,1)}#chart-92b48ea2-6c9b-4768-8b2a-a07083a242a0 .legends .legend text{fill:rgba(0,0,0,.87)}#chart-92b48ea2-6c9b-4768-8b2a-a07083a242a0 .legends .legend:hover text{fill:rgba(0,0,0,1)}#chart-92b48ea2-6c9b-4768-8b2a-a07083a242a0 .axis .line{stroke:rgba(0,0,0,1)}#chart-92b48ea2-6c9b-4768-8b2a-a07083a242a0 .axis .guide.line{stroke:rgba(0,0,0,.54)}#chart-92b48ea2-6c9b-4768-8b2a-a07083a242a0 .axis .major.line{stroke:rgba(0,0,0,.87)}#chart-92b48ea2-6c9b-4768-8b2a-a07083a242a0 .axis text.major{fill:rgba(0,0,0,1)}#chart-92b48ea2-6c9b-4768-8b2a-a07083a242a0 .axis.y .guides:hover .guide.line,#chart-92b48ea2-6c9b-4768-8b2a-a07083a242a0 .line-graph .axis.x .guides:hover .guide.line,#chart-92b48ea2-6c9b-4768-8b2a-a07083a242a0 .stackedline-graph .axis.x .guides:hover .guide.line,#chart-92b48ea2-6c9b-4768-8b2a-a07083a242a0 .xy-graph .axis.x .guides:hover .guide.line{stroke:rgba(0,0,0,1)}#chart-92b48ea2-6c9b-4768-8b2a-a07083a242a0 .axis .guides:hover text{fill:rgba(0,0,0,1)}#chart-92b48ea2-6c9b-4768-8b2a-a07083a242a0 .reactive{fill-opacity:.7;stroke-opacity:.8}#chart-92b48ea2-6c9b-4768-8b2a-a07083a242a0 .ci{stroke:rgba(0,0,0,.87)}#chart-92b48ea2-6c9b-4768-8b2a-a07083a242a0 .reactive.active,#chart-92b48ea2-6c9b-4768-8b2a-a07083a242a0 .active .reactive{fill-opacity:.8;stroke-opacity:.9;stroke-width:4}#chart-92b48ea2-6c9b-4768-8b2a-a07083a242a0 .ci .reactive.active{stroke-width:1.5}#chart-92b48ea2-6c9b-4768-8b2a-a07083a242a0 .series text{fill:rgba(0,0,0,1)}#chart-92b48ea2-6c9b-4768-8b2a-a07083a242a0 .tooltip rect{fill:rgba(255,255,255,1);stroke:rgba(0,0,0,1);-webkit-transition:opacity 150ms;-moz-transition:opacity 150ms;transition:opacity 150ms}#chart-92b48ea2-6c9b-4768-8b2a-a07083a242a0 .tooltip .label{fill:rgba(0,0,0,.87)}#chart-92b48ea2-6c9b-4768-8b2a-a07083a242a0 .tooltip .label{fill:rgba(0,0,0,.87)}#chart-92b48ea2-6c9b-4768-8b2a-a07083a242a0 .tooltip .legend{font-size:.8em;fill:rgba(0,0,0,.54)}#chart-92b48ea2-6c9b-4768-8b2a-a07083a242a0 .tooltip .x_label{font-size:.6em;fill:rgba(0,0,0,1)}#chart-92b48ea2-6c9b-4768-8b2a-a07083a242a0 .tooltip .xlink{font-size:.5em;text-decoration:underline}#chart-92b48ea2-6c9b-4768-8b2a-a07083a242a0 .tooltip .value{font-size:1.5em}#chart-92b48ea2-6c9b-4768-8b2a-a07083a242a0 .bound{font-size:.5em}#chart-92b48ea2-6c9b-4768-8b2a-a07083a242a0 .max-value{font-size:.75em;fill:rgba(0,0,0,.54)}#chart-92b48ea2-6c9b-4768-8b2a-a07083a242a0 .map-element{fill:rgba(255,255,255,1);stroke:rgba(0,0,0,.54) !important}#chart-92b48ea2-6c9b-4768-8b2a-a07083a242a0 .map-element .reactive{fill-opacity:inherit;stroke-opacity:inherit}#chart-92b48ea2-6c9b-4768-8b2a-a07083a242a0 .color-0,#chart-92b48ea2-6c9b-4768-8b2a-a07083a242a0 .color-0 a:visited{stroke:#909090;fill:#909090}#chart-92b48ea2-6c9b-4768-8b2a-a07083a242a0 .color-1,#chart-92b48ea2-6c9b-4768-8b2a-a07083a242a0 .color-1 a:visited{stroke:#000000;fill:#000000}#chart-92b48ea2-6c9b-4768-8b2a-a07083a242a0 .color-2,#chart-92b48ea2-6c9b-4768-8b2a-a07083a242a0 .color-2 a:visited{stroke:#ff0500;fill:#ff0500}#chart-92b48ea2-6c9b-4768-8b2a-a07083a242a0 .color-3,#chart-92b48ea2-6c9b-4768-8b2a-a07083a242a0 .color-3 a:visited{stroke:#323299;fill:#323299}#chart-92b48ea2-6c9b-4768-8b2a-a07083a242a0 .color-4,#chart-92b48ea2-6c9b-4768-8b2a-a07083a242a0 .color-4 a:visited{stroke:#a3413f;fill:#a3413f}#chart-92b48ea2-6c9b-4768-8b2a-a07083a242a0 .color-5,#chart-92b48ea2-6c9b-4768-8b2a-a07083a242a0 .color-5 a:visited{stroke:#a3413f;fill:#a3413f}#chart-92b48ea2-6c9b-4768-8b2a-a07083a242a0 .color-6,#chart-92b48ea2-6c9b-4768-8b2a-a07083a242a0 .color-6 a:visited{stroke:#a3413f;fill:#a3413f}#chart-92b48ea2-6c9b-4768-8b2a-a07083a242a0 .color-7,#chart-92b48ea2-6c9b-4768-8b2a-a07083a242a0 .color-7 a:visited{stroke:#a3413f;fill:#a3413f}#chart-92b48ea2-6c9b-4768-8b2a-a07083a242a0 .color-8,#chart-92b48ea2-6c9b-4768-8b2a-a07083a242a0 .color-8 a:visited{stroke:#a3413f;fill:#a3413f}#chart-92b48ea2-6c9b-4768-8b2a-a07083a242a0 .color-9,#chart-92b48ea2-6c9b-4768-8b2a-a07083a242a0 .color-9 a:visited{stroke:#657fff;fill:#657fff}#chart-92b48ea2-6c9b-4768-8b2a-a07083a242a0 .color-10,#chart-92b48ea2-6c9b-4768-8b2a-a07083a242a0 .color-10 a:visited{stroke:#657fff;fill:#657fff}#chart-92b48ea2-6c9b-4768-8b2a-a07083a242a0 .color-11,#chart-92b48ea2-6c9b-4768-8b2a-a07083a242a0 .color-11 a:visited{stroke:#657fff;fill:#657fff}#chart-92b48ea2-6c9b-4768-8b2a-a07083a242a0 .color-12,#chart-92b48ea2-6c9b-4768-8b2a-a07083a242a0 .color-12 a:visited{stroke:#657fff;fill:#657fff}#chart-92b48ea2-6c9b-4768-8b2a-a07083a242a0 .color-13,#chart-92b48ea2-6c9b-4768-8b2a-a07083a242a0 .color-13 a:visited{stroke:#657fff;fill:#657fff}#chart-92b48ea2-6c9b-4768-8b2a-a07083a242a0 .text-overlay .color-0 text{fill:black}#chart-92b48ea2-6c9b-4768-8b2a-a07083a242a0 .text-overlay .color-1 text{fill:white}#chart-92b48ea2-6c9b-4768-8b2a-a07083a242a0 .text-overlay .color-2 text{fill:black}#chart-92b48ea2-6c9b-4768-8b2a-a07083a242a0 .text-overlay .color-3 text{fill:black}#chart-92b48ea2-6c9b-4768-8b2a-a07083a242a0 .text-overlay .color-4 text{fill:black}#chart-92b48ea2-6c9b-4768-8b2a-a07083a242a0 .text-overlay .color-5 text{fill:black}#chart-92b48ea2-6c9b-4768-8b2a-a07083a242a0 .text-overlay .color-6 text{fill:black}#chart-92b48ea2-6c9b-4768-8b2a-a07083a242a0 .text-overlay .color-7 text{fill:black}#chart-92b48ea2-6c9b-4768-8b2a-a07083a242a0 .text-overlay .color-8 text{fill:black}#chart-92b48ea2-6c9b-4768-8b2a-a07083a242a0 .text-overlay .color-9 text{fill:black}#chart-92b48ea2-6c9b-4768-8b2a-a07083a242a0 .text-overlay .color-10 text{fill:black}#chart-92b48ea2-6c9b-4768-8b2a-a07083a242a0 .text-overlay .color-11 text{fill:black}#chart-92b48ea2-6c9b-4768-8b2a-a07083a242a0 .text-overlay .color-12 text{fill:black}#chart-92b48ea2-6c9b-4768-8b2a-a07083a242a0 .text-overlay .color-13 text{fill:black}#chart-92b48ea2-6c9b-4768-8b2a-a07083a242a0 .series.serie-1{stroke-width:5}#chart-92b48ea2-6c9b-4768-8b2a-a07083a242a0 .series.serie-2{stroke-width:3}#chart-92b48ea2-6c9b-4768-8b2a-a07083a242a0 .series.serie-3{stroke-width:3}#chart-92b48ea2-6c9b-4768-8b2a-a07083a242a0 .series.serie-4{stroke-width:2;stroke-dasharray:2,2}#chart-92b48ea2-6c9b-4768-8b2a-a07083a242a0 .series.serie-5{stroke-width:2;stroke-dasharray:2,2}#chart-92b48ea2-6c9b-4768-8b2a-a07083a242a0 .series.serie-6{stroke-width:2;stroke-dasharray:2,2}#chart-92b48ea2-6c9b-4768-8b2a-a07083a242a0 .series.serie-7{stroke-width:2;stroke-dasharray:2,2}#chart-92b48ea2-6c9b-4768-8b2a-a07083a242a0 .series.serie-8{stroke-width:2;stroke-dasharray:2,2}#chart-92b48ea2-6c9b-4768-8b2a-a07083a242a0 .series.serie-9{stroke-width:2;stroke-dasharray:2,2}#chart-92b48ea2-6c9b-4768-8b2a-a07083a242a0 .series.serie-10{stroke-width:2;stroke-dasharray:2,2}#chart-92b48ea2-6c9b-4768-8b2a-a07083a242a0 .series.serie-11{stroke-width:2;stroke-dasharray:2,2}#chart-92b48ea2-6c9b-4768-8b2a-a07083a242a0 .series.serie-12{stroke-width:2;stroke-dasharray:2,2}#chart-92b48ea2-6c9b-4768-8b2a-a07083a242a0 .series.serie-13{stroke-width:2;stroke-dasharray:2,2}
#chart-92b48ea2-6c9b-4768-8b2a-a07083a242a0 text.no_data{text-anchor:middle}#chart-92b48ea2-6c9b-4768-8b2a-a07083a242a0 .guide.line{fill:none}#chart-92b48ea2-6c9b-4768-8b2a-a07083a242a0 .centered{text-anchor:middle}#chart-92b48ea2-6c9b-4768-8b2a-a07083a242a0 .title{text-anchor:middle}#chart-92b48ea2-6c9b-4768-8b2a-a07083a242a0 .legends .legend text{fill-opacity:1}#chart-92b48ea2-6c9b-4768-8b2a-a07083a242a0 .axis.x text{text-anchor:middle}#chart-92b48ea2-6c9b-4768-8b2a-a07083a242a0 .axis.x:not(.web) text[transform]{text-anchor:start}#chart-92b48ea2-6c9b-4768-8b2a-a07083a242a0 .axis.x:not(.web) text[transform].backwards{text-anchor:end}#chart-92b48ea2-6c9b-4768-8b2a-a07083a242a0 .axis.y text{text-anchor:end}#chart-92b48ea2-6c9b-4768-8b2a-a07083a242a0 .axis.y text[transform].backwards{text-anchor:start}#chart-92b48ea2-6c9b-4768-8b2a-a07083a242a0 .axis.y2 text{text-anchor:start}#chart-92b48ea2-6c9b-4768-8b2a-a07083a242a0 .axis.y2 text[transform].backwards{text-anchor:end}#chart-92b48ea2-6c9b-4768-8b2a-a07083a242a0 .axis .guide.line{stroke-dasharray:4,4}#chart-92b48ea2-6c9b-4768-8b2a-a07083a242a0 .axis .major.guide.line{stroke-dasharray:6,6}#chart-92b48ea2-6c9b-4768-8b2a-a07083a242a0 .horizontal .axis.y .guide.line,#chart-92b48ea2-6c9b-4768-8b2a-a07083a242a0 .horizontal .axis.y2 .guide.line,#chart-92b48ea2-6c9b-4768-8b2a-a07083a242a0 .vertical .axis.x .guide.line{opacity:0}#chart-92b48ea2-6c9b-4768-8b2a-a07083a242a0 .horizontal .axis.always_show .guide.line,#chart-92b48ea2-6c9b-4768-8b2a-a07083a242a0 .vertical .axis.always_show .guide.line{opacity:1 !important}#chart-92b48ea2-6c9b-4768-8b2a-a07083a242a0 .axis.y .guides:hover .guide.line,#chart-92b48ea2-6c9b-4768-8b2a-a07083a242a0 .axis.y2 .guides:hover .guide.line,#chart-92b48ea2-6c9b-4768-8b2a-a07083a242a0 .axis.x .guides:hover .guide.line{opacity:1}#chart-92b48ea2-6c9b-4768-8b2a-a07083a242a0 .axis .guides:hover text{opacity:1}#chart-92b48ea2-6c9b-4768-8b2a-a07083a242a0 .nofill{fill:none}#chart-92b48ea2-6c9b-4768-8b2a-a07083a242a0 .subtle-fill{fill-opacity:.2}#chart-92b48ea2-6c9b-4768-8b2a-a07083a242a0 .dot{stroke-width:1px;fill-opacity:1}#chart-92b48ea2-6c9b-4768-8b2a-a07083a242a0 .dot.active{stroke-width:5px}#chart-92b48ea2-6c9b-4768-8b2a-a07083a242a0 .dot.negative{fill:transparent}#chart-92b48ea2-6c9b-4768-8b2a-a07083a242a0 text,#chart-92b48ea2-6c9b-4768-8b2a-a07083a242a0 tspan{stroke:none !important}#chart-92b48ea2-6c9b-4768-8b2a-a07083a242a0 .series text.active{opacity:1}#chart-92b48ea2-6c9b-4768-8b2a-a07083a242a0 .tooltip rect{fill-opacity:.95;stroke-width:.5}#chart-92b48ea2-6c9b-4768-8b2a-a07083a242a0 .tooltip text{fill-opacity:1}#chart-92b48ea2-6c9b-4768-8b2a-a07083a242a0 .showable{visibility:hidden}#chart-92b48ea2-6c9b-4768-8b2a-a07083a242a0 .showable.shown{visibility:visible}#chart-92b48ea2-6c9b-4768-8b2a-a07083a242a0 .gauge-background{fill:rgba(229,229,229,1);stroke:none}#chart-92b48ea2-6c9b-4768-8b2a-a07083a242a0 .bg-lines{stroke:rgba(249,249,249,1);stroke-width:2px}</style><script type="text/javascript">window.pygal = window.pygal || {};window.pygal.config = window.pygal.config || {};window.pygal.config['92b48ea2-6c9b-4768-8b2a-a07083a242a0'] = {"interpolate": null, "pretty_print": false, "x_labels_major": null, "no_data_text": "No data", "inverse_y_axis": false, "truncate_legend": null, "css": ["file://style.css", "file://graph.css"], "secondary_range": null, "formatter": null, "interpolation_precision": 250, "zero": 0, "allow_interruptions": false, "defs": [], "width": 800, "xrange": null, "margin_top": null, "y_title": "Density", "show_only_major_dots": false, "rounded_bars": null, "legends": ["Data", "GMM", "i=0", "i=1", "i=0 k=0", "i=0 k=1", "i=0 k=2", "i=0 k=3", "i=0 k=4", "i=1 k=0", "i=1 k=1", "i=1 k=2", "i=1 k=3", "i=1 k=4"], "print_values": false, "show_x_labels": true, "x_labels_major_count": null, "truncate_label": null, "x_labels": ["-8.96", "-8.76", "-8.56", "-8.36", "-8.16", "-7.96", "-7.76", "-7.56", "-7.36", "-7.16", "-6.96", "-6.76", "-6.56", "-6.36", "-6.16", "-5.96", "-5.76", "-5.56", "-5.36", "-5.16", "-4.96", "-4.76", "-4.56", "-4.36", "-4.16", "-3.96", "-3.76", "-3.56", "-3.36", "-3.16", "-2.96", "-2.76", "-2.56", "-2.36", "-2.16", "-1.96", "-1.76", "-1.56", "-1.36", "-1.16", "-0.96", "-0.76", "-0.56", "-0.36", "-0.16", "0.04", "0.24", "0.44", "0.64", "0.84", "1.04", "1.24", "1.43", "1.63", "1.83", "2.03", "2.23", "2.43", "2.63", "2.83"], "title": "Iteration #5", "show_y_guides": true, "show_x_guides": false, "fill": false, "print_zeroes": true, "show_y_labels": true, "js": ["//kozea.github.io/pygal.js/2.0.x/pygal-tooltips.min.js"], "order_min": null, "print_labels": false, "margin": 20, "inner_radius": 0, "legend_at_bottom": false, "dots_size": 2.5, "explicit_size": false, "show_minor_y_labels": true, "y_labels": null, "margin_right": null, "show_legend": true, "no_prefix": false, "style": {"foreground_strong": "rgba(0, 0, 0, 1)", "ci_colors": [], "stroke_opacity_hover": ".9", "foreground_subtle": "rgba(0, 0, 0, .54)", "opacity_hover": ".8", "label_font_family": "Consolas, \"Liberation Mono\", Menlo, Courier, monospace", "opacity": ".7", "tooltip_font_family": "Consolas, \"Liberation Mono\", Menlo, Courier, monospace", "stroke_opacity": ".8", "colors": ["#909090", "#000000", "#ff0500", "#323299", "#a3413f", "#a3413f", "#a3413f", "#a3413f", "#a3413f", "#657fff", "#657fff", "#657fff", "#657fff", "#657fff"], "transition": "150ms", "value_label_font_size": 10, "no_data_font_size": 64, "guide_stroke_dasharray": "4,4", "tooltip_font_size": 14, "major_label_font_family": "Consolas, \"Liberation Mono\", Menlo, Courier, monospace", "label_font_size": 10, "value_colors": [], "font_family": "Consolas, \"Liberation Mono\", Menlo, Courier, monospace", "major_label_font_size": 10, "legend_font_family": "Consolas, \"Liberation Mono\", Menlo, Courier, monospace", "value_font_size": 16, "legend_font_size": 10, "major_guide_stroke_dasharray": "6,6", "title_font_family": "Consolas, \"Liberation Mono\", Menlo, Courier, monospace", "plot_background": "rgba(255, 255, 255, 1)", "value_font_family": "Consolas, \"Liberation Mono\", Menlo, Courier, monospace", "background": "rgba(249, 249, 249, 1)", "foreground": "rgba(0, 0, 0, .87)", "title_font_size": 16, "value_background": "rgba(229, 229, 229, 1)", "value_label_font_family": "Consolas, \"Liberation Mono\", Menlo, Courier, monospace", "no_data_font_family": "Consolas, \"Liberation Mono\", Menlo, Courier, monospace"}, "margin_bottom": null, "tooltip_fancy_mode": true, "logarithmic": false, "missing_value_fill_truncation": "x", "spacing": 10, "max_scale": 16, "y_labels_major_count": null, "x_title": "Observation", "stroke": true, "y_label_rotation": 0, "show_dots": false, "half_pie": false, "legend_box_size": 12, "dynamic_print_values": false, "legend_at_bottom_columns": null, "disable_xml_declaration": false, "classes": ["pygal-chart"], "margin_left": null, "force_uri_protocol": "https", "x_label_rotation": 60, "print_values_position": "center", "x_labels_major_every": 2, "strict": false, "height": 600, "stack_from_top": false, "include_x_axis": false, "y_labels_major_every": null, "box_mode": "extremes", "interpolation_parameters": {}, "min_scale": 4, "show_minor_x_labels": false, "stroke_style": null, "range": [0, 0.27578580090479526], "tooltip_border_radius": 0, "y_labels_major": null}</script><script type="text/javascript" xlink:href="https://kozea.github.io/pygal.js/2.0.x/pygal-tooltips.min.js" /></defs><title>Iteration #5</title><g class="graph line-graph vertical"><rect class="background" height="600" width="800" x="0" y="0" /><g class="plot" transform="translate(144, 46)"><rect class="background" height="472.01923788646684" width="636.0" x="0" y="0" /><g class="axis y always_show"><g class="guides"><path class="axis major line" d="M0.000000 462.941945 h636.000000" /><text class="major" x="-5" y="466.44194485">0</text><title>0</title></g><g class="guides"><path class="guide line" d="M0.000000 430.027658 h636.000000" /><text class="" x="-5" y="433.527657724">0.02</text><title>0.02</title></g><g class="guides"><path class="guide line" d="M0.000000 397.113371 h636.000000" /><text class="" x="-5" y="400.613370598">0.04</text><title>0.04</title></g><g class="guides"><path class="guide line" d="M0.000000 364.199083 h636.000000" /><text class="" x="-5" y="367.699083472">0.06</text><title>0.06</title></g><g class="guides"><path class="guide line" d="M0.000000 331.284796 h636.000000" /><text class="" x="-5" y="334.784796346">0.08</text><title>0.08</title></g><g class="guides"><path class="guide line" d="M0.000000 298.370509 h636.000000" /><text class="" x="-5" y="301.87050922">0.1</text><title>0.1</title></g><g class="guides"><path class="guide line" d="M0.000000 265.456222 h636.000000" /><text class="" x="-5" y="268.956222094">0.12</text><title>0.12</title></g><g class="guides"><path class="guide line" d="M0.000000 232.541935 h636.000000" /><text class="" x="-5" y="236.041934968">0.14</text><title>0.14</title></g><g class="guides"><path class="guide line" d="M0.000000 199.627648 h636.000000" /><text class="" x="-5" y="203.127647841">0.16</text><title>0.16</title></g><g class="guides"><path class="guide line" d="M0.000000 166.713361 h636.000000" /><text class="" x="-5" y="170.213360715">0.18</text><title>0.18</title></g><g class="guides"><path class="guide line" d="M0.000000 133.799074 h636.000000" /><text class="" x="-5" y="137.299073589">0.2</text><title>0.2</title></g><g class="guides"><path class="guide line" d="M0.000000 100.884786 h636.000000" /><text class="" x="-5" y="104.384786463">0.22</text><title>0.22</title></g><g class="guides"><path class="guide line" d="M0.000000 67.970499 h636.000000" /><text class="" x="-5" y="71.4704993371">0.24</text><title>0.24</title></g><g class="guides"><path class="guide line" d="M0.000000 35.056212 h636.000000" /><text class="" x="-5" y="38.5562122111">0.26</text><title>0.26</title></g></g><g class="axis x"><g class="guides"><path class="major line" d="M12.230769 0.000000 v472.019238" /><text class="major" transform="rotate(60 12.230769 487.019238)" x="12.230769230769232" y="487.01923788646684">-8.96</text></g><g class="guides"><path class="major guide line" d="M32.960887 0.000000 v472.019238" /><text class="major" transform="rotate(60 32.960887 487.019238)" x="32.96088657105606" y="487.01923788646684">-8.56</text></g><g class="guides"><path class="major guide line" d="M53.691004 0.000000 v472.019238" /><text class="major" transform="rotate(60 53.691004 487.019238)" x="53.6910039113429" y="487.01923788646684">-8.16</text></g><g class="guides"><path class="major guide line" d="M74.421121 0.000000 v472.019238" /><text class="major" transform="rotate(60 74.421121 487.019238)" x="74.42112125162973" y="487.01923788646684">-7.76</text></g><g class="guides"><path class="major guide line" d="M95.151239 0.000000 v472.019238" /><text class="major" transform="rotate(60 95.151239 487.019238)" x="95.15123859191655" y="487.01923788646684">-7.36</text></g><g class="guides"><path class="major guide line" d="M115.881356 0.000000 v472.019238" /><text class="major" transform="rotate(60 115.881356 487.019238)" x="115.88135593220338" y="487.01923788646684">-6.96</text></g><g class="guides"><path class="major guide line" d="M136.611473 0.000000 v472.019238" /><text class="major" transform="rotate(60 136.611473 487.019238)" x="136.61147327249023" y="487.01923788646684">-6.56</text></g><g class="guides"><path class="major guide line" d="M157.341591 0.000000 v472.019238" /><text class="major" transform="rotate(60 157.341591 487.019238)" x="157.34159061277705" y="487.01923788646684">-6.16</text></g><g class="guides"><path class="major guide line" d="M178.071708 0.000000 v472.019238" /><text class="major" transform="rotate(60 178.071708 487.019238)" x="178.0717079530639" y="487.01923788646684">-5.76</text></g><g class="guides"><path class="major guide line" d="M198.801825 0.000000 v472.019238" /><text class="major" transform="rotate(60 198.801825 487.019238)" x="198.80182529335073" y="487.01923788646684">-5.36</text></g><g class="guides"><path class="major guide line" d="M219.531943 0.000000 v472.019238" /><text class="major" transform="rotate(60 219.531943 487.019238)" x="219.53194263363756" y="487.01923788646684">-4.96</text></g><g class="guides"><path class="major guide line" d="M240.262060 0.000000 v472.019238" /><text class="major" transform="rotate(60 240.262060 487.019238)" x="240.2620599739244" y="487.01923788646684">-4.56</text></g><g class="guides"><path class="major guide line" d="M260.992177 0.000000 v472.019238" /><text class="major" transform="rotate(60 260.992177 487.019238)" x="260.99217731421123" y="487.01923788646684">-4.16</text></g><g class="guides"><path class="major guide line" d="M281.722295 0.000000 v472.019238" /><text class="major" transform="rotate(60 281.722295 487.019238)" x="281.722294654498" y="487.01923788646684">-3.76</text></g><g class="guides"><path class="major guide line" d="M302.452412 0.000000 v472.019238" /><text class="major" transform="rotate(60 302.452412 487.019238)" x="302.4524119947849" y="487.01923788646684">-3.36</text></g><g class="guides"><path class="major guide line" d="M323.182529 0.000000 v472.019238" /><text class="major" transform="rotate(60 323.182529 487.019238)" x="323.1825293350717" y="487.01923788646684">-2.96</text></g><g class="guides"><path class="major guide line" d="M343.912647 0.000000 v472.019238" /><text class="major" transform="rotate(60 343.912647 487.019238)" x="343.91264667535853" y="487.01923788646684">-2.56</text></g><g class="guides"><path class="major guide line" d="M364.642764 0.000000 v472.019238" /><text class="major" transform="rotate(60 364.642764 487.019238)" x="364.64276401564535" y="487.01923788646684">-2.16</text></g><g class="guides"><path class="major guide line" d="M385.372881 0.000000 v472.019238" /><text class="major" transform="rotate(60 385.372881 487.019238)" x="385.37288135593224" y="487.01923788646684">-1.76</text></g><g class="guides"><path class="major guide line" d="M406.102999 0.000000 v472.019238" /><text class="major" transform="rotate(60 406.102999 487.019238)" x="406.102998696219" y="487.01923788646684">-1.36</text></g><g class="guides"><path class="major guide line" d="M426.833116 0.000000 v472.019238" /><text class="major" transform="rotate(60 426.833116 487.019238)" x="426.8331160365058" y="487.01923788646684">-0.96</text></g><g class="guides"><path class="major guide line" d="M447.563233 0.000000 v472.019238" /><text class="major" transform="rotate(60 447.563233 487.019238)" x="447.56323337679265" y="487.01923788646684">-0.56</text></g><g class="guides"><path class="major guide line" d="M468.293351 0.000000 v472.019238" /><text class="major" transform="rotate(60 468.293351 487.019238)" x="468.29335071707953" y="487.01923788646684">-0.16</text></g><g class="guides"><path class="major guide line" d="M489.023468 0.000000 v472.019238" /><text class="major" transform="rotate(60 489.023468 487.019238)" x="489.02346805736636" y="487.01923788646684">0.24</text></g><g class="guides"><path class="major guide line" d="M509.753585 0.000000 v472.019238" /><text class="major" transform="rotate(60 509.753585 487.019238)" x="509.75358539765324" y="487.01923788646684">0.64</text></g><g class="guides"><path class="major guide line" d="M530.483703 0.000000 v472.019238" /><text class="major" transform="rotate(60 530.483703 487.019238)" x="530.48370273794" y="487.01923788646684">1.04</text></g><g class="guides"><path class="major guide line" d="M551.213820 0.000000 v472.019238" /><text class="major" transform="rotate(60 551.213820 487.019238)" x="551.213820078227" y="487.01923788646684">1.43</text></g><g class="guides"><path class="major guide line" d="M571.943937 0.000000 v472.019238" /><text class="major" transform="rotate(60 571.943937 487.019238)" x="571.9439374185138" y="487.01923788646684">1.83</text></g><g class="guides"><path class="major guide line" d="M592.674055 0.000000 v472.019238" /><text class="major" transform="rotate(60 592.674055 487.019238)" x="592.6740547588006" y="487.01923788646684">2.23</text></g><g class="guides"><path class="major guide line" d="M613.404172 0.000000 v472.019238" /><text class="major" transform="rotate(60 613.404172 487.019238)" x="613.4041720990874" y="487.01923788646684">2.63</text></g></g><g class="series serie-0 color-0"><path class="line reactive" d="M12.230769 462.941945 L12.230769 462.019456 22.595828 462.941945 32.960887 461.096967 43.325945 462.019456 53.691004 459.251988 64.056063 462.019456 74.421121 458.329499 84.786180 462.019456 95.151239 458.329499 105.516297 462.019456 115.881356 448.182119 126.246415 460.174477 136.611473 457.407010 146.976532 457.407010 157.341591 451.872075 167.706649 448.182119 178.071708 454.639543 188.436767 445.414651 198.801825 442.647184 209.166884 436.189760 219.531943 437.112249 229.897001 392.832771 240.262060 396.522728 250.627119 376.227967 260.992177 355.933206 271.357236 351.320760 281.722295 325.491065 292.087353 277.521630 302.452412 283.056565 312.817471 202.800010 323.182529 188.040184 333.547588 169.590402 343.912647 123.465945 354.277705 95.791271 364.642764 67.194108 375.007823 82.876423 385.372881 60.736684 395.737940 80.108956 406.102999 29.372054 416.468057 9.077293 426.833116 70.884065 437.198175 69.039086 447.563233 41.364413 457.928292 40.441923 468.293351 91.178826 478.658409 140.993239 489.023468 214.792369 499.388527 259.071847 509.753585 321.801108 520.118644 364.235608 530.483703 408.515086 540.848761 430.654825 551.213820 448.182119 561.578879 455.562032 571.943937 458.329499 582.308996 458.329499 592.674055 462.019456 603.039113 462.941945 613.404172 462.019456 623.769231 462.941945" /></g><g class="series serie-1 color-1"><path class="line reactive nofill" d="M12.230769 462.892220 L22.595828 462.860437 32.960887 462.810645 43.325945 462.734089 53.691004 462.618576 64.056063 462.447547 74.421121 462.199085 84.786180 461.844950 95.151239 461.349755 105.516297 460.670419 115.881356 459.756025 126.246415 458.548138 136.611473 456.981540 146.976532 454.985096 157.341591 452.482210 167.706649 449.390036 178.071708 445.616353 188.436767 441.053048 198.801825 435.565519 209.166884 428.978334 219.531943 421.059095 229.897001 411.504663 240.262060 399.936300 250.627119 385.912098 260.992177 368.965555 271.357236 348.677074 281.722295 324.779781 292.087353 297.291829 302.452412 266.654658 312.817471 233.842292 323.182529 200.393857 333.547588 168.315971 343.912647 139.811573 354.277705 116.827200 364.642764 100.479472 375.007823 90.519005 385.372881 85.083981 395.737940 81.017978 406.102999 74.894331 416.468057 64.570619 426.833116 50.693951 437.198175 37.340848 447.563233 31.171806 457.928292 39.156410 468.293351 65.757868 478.658409 110.908865 489.023468 169.792601 499.388527 234.506108 509.753585 296.721944 520.118644 350.080256 530.483703 391.397686 540.848761 420.531139 551.213820 439.365549 561.578879 450.599515 571.943937 456.821499 582.308996 460.044644 592.674055 461.619761 603.039113 462.353475 613.404172 462.683272 623.769231 462.828291" /></g><g class="series serie-2 color-2"><path class="line reactive nofill" d="M12.230769 462.941945 L22.595828 462.941945 32.960887 462.941945 43.325945 462.941945 53.691004 462.941945 64.056063 462.941945 74.421121 462.941945 84.786180 462.941945 95.151239 462.941945 105.516297 462.941945 115.881356 462.941945 126.246415 462.941945 136.611473 462.941945 146.976532 462.941945 157.341591 462.941945 167.706649 462.941944 178.071708 462.941944 188.436767 462.941941 198.801825 462.941932 209.166884 462.941908 219.531943 462.941844 229.897001 462.941672 240.262060 462.941237 250.627119 462.940164 260.992177 462.937587 271.357236 462.931544 281.722295 462.917617 292.087353 462.885915 302.452412 462.814368 312.817471 462.654231 323.182529 462.300176 333.547588 461.533276 343.912647 459.923622 354.277705 456.688277 364.642764 450.530434 375.007823 439.542558 385.372881 421.322990 395.737940 393.478563 406.102999 354.589080 416.468057 305.454192 426.833116 250.111022 437.198175 195.925833 447.563233 152.272193 457.928292 127.953662 468.293351 128.302481 478.658409 153.264074 489.023468 197.412808 499.388527 251.891856 509.753585 307.322015 520.118644 356.369845 530.483703 395.051697 540.848761 422.624769 551.213820 440.557906 561.578879 451.279412 571.943937 457.211733 582.308996 460.270616 592.674055 461.751654 603.039113 462.430804 613.404172 462.728603 623.769231 462.854737" /></g><g class="series serie-3 color-3"><path class="line reactive nofill" d="M12.230769 462.892220 L22.595828 462.860437 32.960887 462.810645 43.325945 462.734089 53.691004 462.618576 64.056063 462.447547 74.421121 462.199085 84.786180 461.844950 95.151239 461.349755 105.516297 460.670419 115.881356 459.756025 126.246415 458.548138 136.611473 456.981540 146.976532 454.985096 157.341591 452.482210 167.706649 449.390036 178.071708 445.616354 188.436767 441.053052 198.801825 435.565531 209.166884 428.978371 219.531943 421.059196 229.897001 411.504935 240.262060 399.937007 250.627119 385.913880 260.992177 368.969913 271.357236 348.687474 281.722295 324.804109 292.087353 297.347859 302.452412 266.782234 312.817471 234.130006 323.182529 201.035626 333.547588 169.724640 343.912647 142.829896 354.277705 123.080868 364.642764 112.890983 375.007823 113.918392 385.372881 126.702936 395.737940 150.481361 406.102999 183.247196 416.468057 222.058372 426.833116 263.524874 437.198175 304.356959 447.563233 341.841558 457.928292 374.144693 468.293351 400.397332 478.658409 420.586735 489.023468 435.321738 499.388527 445.556197 509.753585 452.341874 520.118644 456.652355 530.483703 459.287933 540.848761 460.848315 551.213820 461.749588 561.578879 462.262048 571.943937 462.551711 582.308996 462.715974 592.674055 462.810052 603.039113 462.864616 613.404172 462.896614 623.769231 462.915500" /></g><g class="series serie-4 color-4"><path class="line reactive nofill" d="M12.230769 462.941945 L22.595828 462.941945 32.960887 462.941945 43.325945 462.941945 53.691004 462.941945 64.056063 462.941945 74.421121 462.941945 84.786180 462.941945 95.151239 462.941945 105.516297 462.941945 115.881356 462.941945 126.246415 462.941945 136.611473 462.941945 146.976532 462.941945 157.341591 462.941945 167.706649 462.941945 178.071708 462.941945 188.436767 462.941945 198.801825 462.941945 209.166884 462.941945 219.531943 462.941945 229.897001 462.941945 240.262060 462.941944 250.627119 462.941940 260.992177 462.941920 271.357236 462.941826 281.722295 462.941419 292.087353 462.939799 302.452412 462.933886 312.817471 462.914091 323.182529 462.853331 333.547588 462.682468 343.912647 462.242615 354.277705 461.207136 364.642764 458.980925 375.007823 454.617628 385.372881 446.840079 395.737940 434.274441 406.102999 415.964475 416.468057 392.086142 426.833116 364.575428 437.198175 337.250644 447.563233 315.116493 457.928292 302.920100 468.293351 303.502639 478.658409 316.725043 489.023468 339.521864 499.388527 367.054855 509.753585 394.374098 520.118644 417.811777 530.483703 435.601886 540.848761 447.697275 551.213820 455.118056 561.578879 459.246103 571.943937 461.335040 582.308996 462.298883 592.674055 462.705079 603.039113 462.861641 613.404172 462.916886 623.769231 462.934748" /></g><g class="series serie-5 color-5"><path class="line reactive nofill" d="M12.230769 462.941945 L22.595828 462.941945 32.960887 462.941945 43.325945 462.941945 53.691004 462.941945 64.056063 462.941945 74.421121 462.941945 84.786180 462.941945 95.151239 462.941945 105.516297 462.941945 115.881356 462.941945 126.246415 462.941945 136.611473 462.941945 146.976532 462.941945 157.341591 462.941945 167.706649 462.941945 178.071708 462.941945 188.436767 462.941945 198.801825 462.941945 209.166884 462.941945 219.531943 462.941945 229.897001 462.941945 240.262060 462.941944 250.627119 462.941938 260.992177 462.941913 271.357236 462.941802 281.722295 462.941359 292.087353 462.939729 302.452412 462.934187 312.817471 462.916819 323.182529 462.866664 333.547588 462.733306 343.912647 462.407050 354.277705 461.673413 364.642764 460.159067 375.007823 457.294572 385.372881 452.340658 395.737940 444.532935 406.102999 433.371217 416.468057 419.002624 426.833116 402.546469 437.198175 386.150079 447.563233 372.621562 457.928292 364.673053 468.293351 364.039714 478.658409 370.863950 489.023468 383.643373 499.388527 399.768492 509.753585 416.387237 520.118644 431.205934 530.483703 442.929470 540.848761 451.268232 551.213820 456.642867 561.578879 459.797785 571.943937 461.490194 582.308996 462.321877 592.674055 462.696956 603.039113 462.852406 613.404172 462.911673 623.769231 462.932478" /></g><g class="series serie-6 color-6"><path class="line reactive nofill" d="M12.230769 462.941945 L22.595828 462.941945 32.960887 462.941945 43.325945 462.941945 53.691004 462.941945 64.056063 462.941945 74.421121 462.941945 84.786180 462.941945 95.151239 462.941945 105.516297 462.941945 115.881356 462.941945 126.246415 462.941945 136.611473 462.941945 146.976532 462.941945 157.341591 462.941945 167.706649 462.941945 178.071708 462.941945 188.436767 462.941945 198.801825 462.941945 209.166884 462.941945 219.531943 462.941944 229.897001 462.941943 240.262060 462.941935 250.627119 462.941907 260.992177 462.941799 271.357236 462.941423 281.722295 462.940205 292.087353 462.936513 302.452412 462.926091 312.817471 462.898664 323.182529 462.831441 333.547588 462.678078 343.912647 462.352672 354.277705 461.711182 364.642764 460.537818 375.007823 458.549908 385.372881 455.437821 395.737940 450.950831 406.102999 445.021675 416.468057 437.894986 426.833116 430.201020 437.198175 422.915009 447.563233 417.176338 457.928292 414.003342 468.293351 413.999080 478.658409 417.164382 489.023468 422.897579 499.388527 430.181059 509.753585 437.875351 520.118644 445.004504 530.483703 450.937250 540.848761 455.428014 551.213820 458.543402 561.578879 460.533838 571.943937 461.708930 582.308996 462.351491 592.674055 462.677503 603.039113 462.831181 613.404172 462.898555 623.769231 462.926048" /></g><g class="series serie-7 color-7"><path class="line reactive nofill" d="M12.230769 462.941945 L22.595828 462.941945 32.960887 462.941945 43.325945 462.941945 53.691004 462.941945 64.056063 462.941945 74.421121 462.941945 84.786180 462.941945 95.151239 462.941945 105.516297 462.941945 115.881356 462.941945 126.246415 462.941945 136.611473 462.941945 146.976532 462.941945 157.341591 462.941945 167.706649 462.941945 178.071708 462.941945 188.436767 462.941945 198.801825 462.941944 209.166884 462.941943 219.531943 462.941937 229.897001 462.941918 240.262060 462.941856 250.627119 462.941668 260.992177 462.941132 271.357236 462.939681 281.722295 462.935974 292.087353 462.927037 302.452412 462.906694 312.817471 462.863017 323.182529 462.774600 333.547588 462.605970 343.912647 462.303210 354.277705 461.792066 364.642764 460.981743 375.007823 459.777724 385.372881 458.105231 395.737940 455.941084 406.102999 453.346392 416.468057 450.488025 426.833116 447.636020 437.198175 445.129210 447.563233 443.311999 457.928292 442.457458 468.293351 442.700172 478.658409 444.001529 489.023468 446.159782 499.388527 448.861257 509.753585 451.754851 520.118644 454.525510 530.483703 456.946015 540.848761 458.897095 551.213820 460.358104 561.578879 461.378989 571.943937 462.046694 582.308996 462.456365 592.674055 462.692546 603.039113 462.820649 613.404172 462.886083 623.769231 462.917584" /></g><g class="series serie-8 color-8"><path class="line reactive nofill" d="M12.230769 462.941945 L22.595828 462.941945 32.960887 462.941945 43.325945 462.941945 53.691004 462.941945 64.056063 462.941945 74.421121 462.941945 84.786180 462.941945 95.151239 462.941945 105.516297 462.941945 115.881356 462.941945 126.246415 462.941945 136.611473 462.941945 146.976532 462.941945 157.341591 462.941945 167.706649 462.941944 178.071708 462.941944 188.436767 462.941941 198.801825 462.941933 209.166884 462.941911 219.531943 462.941852 229.897001 462.941702 240.262060 462.941338 250.627119 462.940490 260.992177 462.938603 271.357236 462.934592 281.722295 462.926439 292.087353 462.910616 302.452412 462.881290 312.817471 462.829420 323.182529 462.741918 333.547588 462.601234 343.912647 462.385855 354.277705 462.072259 364.642764 461.638660 375.007823 461.070506 385.372881 460.366980 395.737940 459.547051 406.102999 458.653100 416.468057 457.750195 426.833116 456.919865 437.198175 456.248671 447.563233 455.813580 457.928292 455.667488 468.293351 455.828654 478.658409 456.276950 489.023468 456.957989 499.388527 457.793972 509.753585 458.698257 520.118644 459.589899 530.483703 460.404856 540.848761 461.101932 551.213820 461.663255 561.578879 462.090476 571.943937 462.398655 582.308996 462.609780 592.674055 462.747348 603.039113 462.832706 613.404172 462.883186 623.769231 462.911659" /></g><g class="series serie-9 color-9"><path class="line reactive nofill" d="M12.230769 462.941945 L22.595828 462.941945 32.960887 462.941945 43.325945 462.941945 53.691004 462.941945 64.056063 462.941945 74.421121 462.941945 84.786180 462.941945 95.151239 462.941945 105.516297 462.941945 115.881356 462.941945 126.246415 462.941944 136.611473 462.941941 146.976532 462.941930 157.341591 462.941894 167.706649 462.941780 178.071708 462.941436 188.436767 462.940454 198.801825 462.937795 209.166884 462.930982 219.531943 462.914446 229.897001 462.876465 240.262060 462.793916 250.627119 462.624246 260.992177 462.294626 271.357236 461.689802 281.722295 460.642504 292.087353 458.933057 302.452412 456.306675 312.817471 452.515740 323.182529 447.388484 333.547588 440.914664 343.912647 433.325850 354.277705 425.138814 364.642764 417.131890 375.007823 410.239967 385.372881 405.381243 395.737940 403.257891 406.102999 404.189815 416.468057 408.035671 426.833116 414.227988 437.198175 421.910397 447.563233 430.131248 457.928292 438.033531 468.293351 444.990072 478.658409 450.658886 489.023468 454.963168 499.388527 458.021558 509.753585 460.061264 520.118644 461.340824 530.483703 462.097082 540.848761 462.518710 551.213820 462.740661 561.578879 462.851064 571.943937 462.902990 582.308996 462.926093 592.674055 462.935821 603.039113 462.939699 613.404172 462.941163 623.769231 462.941686" /></g><g class="series serie-10 color-10"><path class="line reactive nofill" d="M12.230769 462.941945 L22.595828 462.941945 32.960887 462.941945 43.325945 462.941945 53.691004 462.941945 64.056063 462.941945 74.421121 462.941945 84.786180 462.941945 95.151239 462.941944 105.516297 462.941942 115.881356 462.941936 126.246415 462.941915 136.611473 462.941849 146.976532 462.941653 157.341591 462.941096 167.706649 462.939595 178.071708 462.935741 188.436767 462.926330 198.801825 462.904473 209.166884 462.856211 219.531943 462.754923 229.897001 462.552964 240.262060 462.170582 250.627119 461.483518 260.992177 460.312854 271.357236 458.423165 281.722295 455.536832 292.087353 451.371847 302.452412 445.705917 312.817471 438.460773 323.182529 429.789006 333.547588 420.135741 343.912647 410.244903 354.277705 401.088970 364.642764 393.722233 375.007823 389.084578 385.372881 387.805144 395.737940 390.062273 406.102999 395.542711 416.468057 403.512954 426.833116 412.980317 437.198175 422.894976 447.563233 432.336580 457.928292 440.641152 468.293351 447.448860 478.658409 452.679512 489.023468 456.460713 499.388527 459.039294 509.753585 460.701385 520.118644 461.715499 530.483703 462.301864 540.848761 462.623440 551.213820 462.790835 561.578879 462.873591 571.943937 462.912465 582.308996 462.929822 592.674055 462.937192 603.039113 462.940168 613.404172 462.941312 623.769231 462.941730" /></g><g class="series serie-11 color-11"><path class="line reactive nofill" d="M12.230769 462.941945 L22.595828 462.941945 32.960887 462.941945 43.325945 462.941945 53.691004 462.941945 64.056063 462.941944 74.421121 462.941942 84.786180 462.941936 95.151239 462.941915 105.516297 462.941855 115.881356 462.941684 126.246415 462.941217 136.611473 462.939999 146.976532 462.936963 157.341591 462.929729 167.706649 462.913254 178.071708 462.877404 188.436767 462.802889 198.801825 462.654991 209.166884 462.374787 219.531943 461.868292 229.897001 460.995280 240.262060 459.561402 250.627119 457.319182 260.992177 453.984565 271.357236 449.274727 281.722295 442.968765 292.087353 434.985480 302.452412 425.463185 312.817471 414.818566 323.182529 403.759221 333.547588 393.230880 343.912647 384.295983 354.277705 377.961486 364.642764 374.993199 375.007823 375.763691 385.372881 380.175440 395.737940 387.681115 406.102999 397.395170 416.468057 408.265334 426.833116 419.258208 437.198175 429.514290 447.563233 438.442289 457.928292 445.743785 468.293351 451.378908 478.658409 455.495829 489.023468 458.349377 499.388527 460.228948 509.753585 461.406935 520.118644 462.110103 530.483703 462.510189 540.848761 462.727308 551.213820 462.839748 561.578879 462.895339 571.943937 462.921588 582.308996 462.933429 592.674055 462.938533 603.039113 462.940635 613.404172 462.941463 623.769231 462.941775" /></g><g class="series serie-12 color-12"><path class="line reactive nofill" d="M12.230769 462.941945 L22.595828 462.941944 32.960887 462.941942 43.325945 462.941937 53.691004 462.941922 64.056063 462.941880 74.421121 462.941767 84.786180 462.941473 95.151239 462.940738 105.516297 462.938974 115.881356 462.934900 126.246415 462.925852 136.611473 462.906540 146.976532 462.866921 157.341591 462.788822 167.706649 462.640930 178.071708 462.371993 188.436767 461.902520 198.801825 461.116149 209.166884 459.852962 219.531943 457.908293 229.897001 455.041437 240.262060 450.998459 250.627119 445.551472 260.992177 438.552838 271.357236 429.997316 281.722295 420.079438 292.087353 409.229523 302.452412 398.111931 312.817471 387.574860 323.182529 378.551837 333.547588 371.928494 343.912647 368.400150 354.277705 368.351706 364.642764 371.788514 375.007823 378.335404 385.372881 387.304113 395.737940 397.812342 406.102999 408.925997 416.468057 419.793038 426.833116 429.743189 437.198175 438.339513 447.563233 445.381379 457.928292 450.869279 468.293351 454.947799 478.658409 457.843413 489.023468 459.809940 499.388527 461.088823 509.753585 461.885882 520.118644 462.362276 530.483703 462.635485 540.848761 462.785892 551.213820 462.865407 561.578879 462.905789 571.943937 462.925494 582.308996 462.934735 592.674055 462.938902 603.039113 462.940708 613.404172 462.941460 623.769231 462.941762" /></g><g class="series serie-13 color-13"><path class="line reactive nofill" d="M12.230769 462.892221 L22.595828 462.860437 32.960887 462.810647 43.325945 462.734096 53.691004 462.618599 64.056063 462.447612 74.421121 462.199266 84.786180 461.845431 95.151239 461.350991 105.516297 460.673482 115.881356 459.763340 126.246415 458.564990 136.611473 457.018991 146.976532 455.065408 157.341591 452.648449 167.706649 449.722257 178.071708 446.257560 188.436767 442.248639 198.801825 437.719902 209.166884 432.731209 219.531943 427.381020 229.897001 421.806569 240.262060 416.180428 250.627119 410.703241 260.992177 405.592809 271.357236 401.070244 281.722295 397.344350 292.087353 394.595731 302.452412 392.962306 312.817471 392.527847 323.182529 393.314857 333.547588 395.282641 343.912647 398.330789 354.277705 402.307671 364.642764 407.022926 375.007823 412.262531 385.372881 417.804776 395.737940 423.435520 406.102999 428.961283 416.468057 434.219154 426.833116 439.082952 437.198175 443.465563 447.563233 447.317841 457.928292 450.624726 468.293351 453.399473 478.658409 455.676875 489.023468 457.506321 499.388527 458.945354 509.753585 460.054188 520.118644 460.891433 530.483703 461.511093 540.848761 461.960744 551.213820 462.280717 561.578879 462.504044 571.943937 462.656954 582.308996 462.759674 592.674055 462.827385 603.039113 462.871186 613.404172 462.898995 623.769231 462.916326" /></g></g><g class="titles"><text class="title plot_title" x="400.0" y="26">Iteration #5</text><text class="title" x="462.0" y="580.0">Observation</text><text class="title" transform="rotate(-90 64.000000 282.009619)" x="64.0" y="308.0096189432334">Density</text></g><g class="plot overlay" transform="translate(144, 46)"><g class="series serie-0 color-0" /><g class="series serie-1 color-1" /><g class="series serie-2 color-2" /><g class="series serie-3 color-3" /><g class="series serie-4 color-4" /><g class="series serie-5 color-5" /><g class="series serie-6 color-6" /><g class="series serie-7 color-7" /><g class="series serie-8 color-8" /><g class="series serie-9 color-9" /><g class="series serie-10 color-10" /><g class="series serie-11 color-11" /><g class="series serie-12 color-12" /><g class="series serie-13 color-13" /></g><g class="plot text-overlay" transform="translate(144, 46)"><g class="series serie-0 color-0" /><g class="series serie-1 color-1" /><g class="series serie-2 color-2" /><g class="series serie-3 color-3" /><g class="series serie-4 color-4" /><g class="series serie-5 color-5" /><g class="series serie-6 color-6" /><g class="series serie-7 color-7" /><g class="series serie-8 color-8" /><g class="series serie-9 color-9" /><g class="series serie-10 color-10" /><g class="series serie-11 color-11" /><g class="series serie-12 color-12" /><g class="series serie-13 color-13" /></g><g class="plot tooltip-overlay" transform="translate(144, 46)"><g class="tooltip" style="opacity: 0" transform="translate(0 0)"><rect class="tooltip-box" height="0" rx="0" ry="0" width="0" /><g class="text" /></g></g><g class="legends" transform="translate(10, 56)"><g class="legend reactive activate-serie" id="activate-serie-0"><rect class="color-0 reactive" height="12" width="12" x="0.0" y="0.0" /><text x="17.0" y="9.0">Data</text></g><g class="legend reactive activate-serie" id="activate-serie-1"><rect class="color-1 reactive" height="12" width="12" x="0.0" y="18.0" /><text x="17.0" y="27.0">GMM</text></g><g class="legend reactive activate-serie" id="activate-serie-2"><rect class="color-2 reactive" height="12" width="12" x="0.0" y="36.0" /><text x="17.0" y="45.0">i=0</text></g><g class="legend reactive activate-serie" id="activate-serie-3"><rect class="color-3 reactive" height="12" width="12" x="0.0" y="54.0" /><text x="17.0" y="63.0">i=1</text></g><g class="legend reactive activate-serie" id="activate-serie-4"><rect class="color-4 reactive" height="12" width="12" x="0.0" y="72.0" /><text x="17.0" y="81.0">i=0 k=0</text></g><g class="legend reactive activate-serie" id="activate-serie-5"><rect class="color-5 reactive" height="12" width="12" x="0.0" y="90.0" /><text x="17.0" y="99.0">i=0 k=1</text></g><g class="legend reactive activate-serie" id="activate-serie-6"><rect class="color-6 reactive" height="12" width="12" x="0.0" y="108.0" /><text x="17.0" y="117.0">i=0 k=2</text></g><g class="legend reactive activate-serie" id="activate-serie-7"><rect class="color-7 reactive" height="12" width="12" x="0.0" y="126.0" /><text x="17.0" y="135.0">i=0 k=3</text></g><g class="legend reactive activate-serie" id="activate-serie-8"><rect class="color-8 reactive" height="12" width="12" x="0.0" y="144.0" /><text x="17.0" y="153.0">i=0 k=4</text></g><g class="legend reactive activate-serie" id="activate-serie-9"><rect class="color-9 reactive" height="12" width="12" x="0.0" y="162.0" /><text x="17.0" y="171.0">i=1 k=0</text></g><g class="legend reactive activate-serie" id="activate-serie-10"><rect class="color-10 reactive" height="12" width="12" x="0.0" y="180.0" /><text x="17.0" y="189.0">i=1 k=1</text></g><g class="legend reactive activate-serie" id="activate-serie-11"><rect class="color-11 reactive" height="12" width="12" x="0.0" y="198.0" /><text x="17.0" y="207.0">i=1 k=2</text></g><g class="legend reactive activate-serie" id="activate-serie-12"><rect class="color-12 reactive" height="12" width="12" x="0.0" y="216.0" /><text x="17.0" y="225.0">i=1 k=3</text></g><g class="legend reactive activate-serie" id="activate-serie-13"><rect class="color-13 reactive" height="12" width="12" x="0.0" y="234.0" /><text x="17.0" y="243.0">i=1 k=4</text></g></g><g class="legends" transform="translate(790, 56)" /></g></svg>