<?xml version='1.0' encoding='utf-8'?>
<svg xmlns:xlink="http://www.w3.org/1999/xlink" class="pygal-chart" id="chart-8218cbcc-4469-4e7b-a762-c555244b2290" viewBox="0 0 800 600" xmlns="http://www.w3.org/2000/svg"><!--Generated with pygal 2.4.0 (etree) ©Kozea 2012-2016 on 2018-01-18--><!--http://pygal.org--><!--http://github.com/Kozea/pygal--><defs><style type="text/css">#chart-8218cbcc-4469-4e7b-a762-c555244b2290{-webkit-user-select:none;-webkit-font-smoothing:antialiased;font-family:Consolas,"Liberation Mono",Menlo,Courier,monospace}#chart-8218cbcc-4469-4e7b-a762-c555244b2290 .title{font-family:Consolas,"Liberation Mono",Menlo,Courier,monospace;font-size:16px}#chart-8218cbcc-4469-4e7b-a762-c555244b2290 .legends .legend text{font-family:Consolas,"Liberation Mono",Menlo,Courier,monospace;font-size:10px}#chart-8218cbcc-4469-4e7b-a762-c555244b2290 .axis text{font-family:Consolas,"Liberation Mono",Menlo,Courier,monospace;font-size:10px}#chart-8218cbcc-4469-4e7b-a762-c555244b2290 .axis text.major{font-family:Consolas,"Liberation Mono",Menlo,Courier,monospace;font-size:10px}#chart-8218cbcc-4469-4e7b-a762-c555244b2290 .text-overlay text.value{font-family:Consolas,"Liberation Mono",Menlo,Courier,monospace;font-size:16px}#chart-8218cbcc-4469-4e7b-a762-c555244b2290 .text-overlay text.label{font-family:Consolas,"Liberation Mono",Menlo,Courier,monospace;font-size:10px}#chart-8218cbcc-4469-4e7b-a762-c555244b2290 .tooltip{font-family:Consolas,"Liberation Mono",Menlo,Courier,monospace;font-size:14px}#chart-8218cbcc-4469-4e7b-a762-c555244b2290 text.no_data{font-family:Consolas,"Liberation Mono",Menlo,Courier,monospace;font-size:64px}
#chart-8218cbcc-4469-4e7b-a762-c555244b2290{background-color:rgba(249,249,249,1)}#chart-8218cbcc-4469-4e7b-a762-c555244b2290 path,#chart-8218cbcc-4469-4e7b-a762-c555244b2290 line,#chart-8218cbcc-4469-4e7b-a762-c555244b2290 rect,#chart-8218cbcc-4469-4e7b-a762-c555244b2290 circle{-webkit-transition:150ms;-moz-transition:150ms;transition:150ms}#chart-8218cbcc-4469-4e7b-a762-c555244b2290 .graph &gt; .background{fill:rgba(249,249,249,1)}#chart-8218cbcc-4469-4e7b-a762-c555244b2290 .plot &gt; .background{fill:rgba(255,255,255,1)}#chart-8218cbcc-4469-4e7b-a762-c555244b2290 .graph{fill:rgba(0,0,0,.87)}#chart-8218cbcc-4469-4e7b-a762-c555244b2290 text.no_data{fill:rgba(0,0,0,1)}#chart-8218cbcc-4469-4e7b-a762-c555244b2290 .title{fill:rgba(0,0,0,1)}#chart-8218cbcc-4469-4e7b-a762-c555244b2290 .legends .legend text{fill:rgba(0,0,0,.87)}#chart-8218cbcc-4469-4e7b-a762-c555244b2290 .legends .legend:hover text{fill:rgba(0,0,0,1)}#chart-8218cbcc-4469-4e7b-a762-c555244b2290 .axis .line{stroke:rgba(0,0,0,1)}#chart-8218cbcc-4469-4e7b-a762-c555244b2290 .axis .guide.line{stroke:rgba(0,0,0,.54)}#chart-8218cbcc-4469-4e7b-a762-c555244b2290 .axis .major.line{stroke:rgba(0,0,0,.87)}#chart-8218cbcc-4469-4e7b-a762-c555244b2290 .axis text.major{fill:rgba(0,0,0,1)}#chart-8218cbcc-4469-4e7b-a762-c555244b2290 .axis.y .guides:hover .guide.line,#chart-8218cbcc-4469-4e7b-a762-c555244b2290 .line-graph .axis.x .guides:hover .guide.line,#chart-8218cbcc-4469-4e7b-a762-c555244b2290 .stackedline-graph .axis.x .guides:hover .guide.line,#chart-8218cbcc-4469-4e7b-a762-c555244b2290 .xy-graph .axis.x .guides:hover .guide.line{stroke:rgba(0,0,0,1)}#chart-8218cbcc-4469-4e7b-a762-c555244b2290 .axis .guides:hover text{fill:rgba(0,0,0,1)}#chart-8218cbcc-4469-4e7b-a762-c555244b2290 .reactive{fill-opacity:.7;stroke-opacity:.8}#chart-8218cbcc-4469-4e7b-a762-c555244b2290 .ci{stroke:rgba(0,0,0,.87)}#chart-8218cbcc-4469-4e7b-a762-c555244b2290 .reactive.active,#chart-8218cbcc-4469-4e7b-a762-c555244b2290 .active .reactive{fill-opacity:.8;stroke-opacity:.9;stroke-width:4}#chart-8218cbcc-4469-4e7b-a762-c555244b2290 .ci .reactive.active{stroke-width:1.5}#chart-8218cbcc-4469-4e7b-a762-c555244b2290 .series text{fill:rgba(0,0,0,1)}#chart-8218cbcc-4469-4e7b-a762-c555244b2290 .tooltip rect{fill:rgba(255,255,255,1);stroke:rgba(0,0,0,1);-webkit-transition:opacity 150ms;-moz-transition:opacity 150ms;transition:opacity 150ms}#chart-8218cbcc-4469-4e7b-a762-c555244b2290 .tooltip .label{fill:rgba(0,0,0,.87)}#chart-8218cbcc-4469-4e7b-a762-c555244b2290 .tooltip .label{fill:rgba(0,0,0,.87)}#chart-8218cbcc-4469-4e7b-a762-c555244b2290 .tooltip .legend{font-size:.8em;fill:rgba(0,0,0,.54)}#chart-8218cbcc-4469-4e7b-a762-c555244b2290 .tooltip .x_label{font-size:.6em;fill:rgba(0,0,0,1)}#chart-8218cbcc-4469-4e7b-a762-c555244b2290 .tooltip .xlink{font-size:.5em;text-decoration:underline}#chart-8218cbcc-4469-4e7b-a762-c555244b2290 .tooltip .value{font-size:1.5em}#chart-8218cbcc-4469-4e7b-a762-c555244b2290 .bound{font-size:.5em}#chart-8218cbcc-4469-4e7b-a762-c555244b2290 .max-value{font-size:.75em;fill:rgba(0,0,0,.54)}#chart-8218cbcc-4469-4e7b-a762-c555244b2290 .map-element{fill:rgba(255,255,255,1);stroke:rgba(0,0,0,.54) !important}#chart-8218cbcc-4469-4e7b-a762-c555244b2290 .map-element .reactive{fill-opacity:inherit;stroke-opacity:inherit}#chart-8218cbcc-4469-4e7b-a762-c555244b2290 .color-0,#chart-8218cbcc-4469-4e7b-a762-c555244b2290 .color-0 a:visited{stroke:#909090;fill:#909090}#chart-8218cbcc-4469-4e7b-a762-c555244b2290 .color-1,#chart-8218cbcc-4469-4e7b-a762-c555244b2290 .color-1 a:visited{stroke:#000000;fill:#000000}#chart-8218cbcc-4469-4e7b-a762-c555244b2290 .color-2,#chart-8218cbcc-4469-4e7b-a762-c555244b2290 .color-2 a:visited{stroke:#ff0500;fill:#ff0500}#chart-8218cbcc-4469-4e7b-a762-c555244b2290 .color-3,#chart-8218cbcc-4469-4e7b-a762-c555244b2290 .color-3 a:visited{stroke:#323299;fill:#323299}#chart-8218cbcc-4469-4e7b-a762-c555244b2290 .color-4,#chart-8218cbcc-4469-4e7b-a762-c555244b2290 .color-4 a:visited{stroke:#a3413f;fill:#a3413f}#chart-8218cbcc-4469-4e7b-a762-c555244b2290 .color-5,#chart-8218cbcc-4469-4e7b-a762-c555244b2290 .color-5 a:visited{stroke:#a3413f;fill:#a3413f}#chart-8218cbcc-4469-4e7b-a762-c555244b2290 .color-6,#chart-8218cbcc-4469-4e7b-a762-c555244b2290 .color-6 a:visited{stroke:#a3413f;fill:#a3413f}#chart-8218cbcc-4469-4e7b-a762-c555244b2290 .color-7,#chart-8218cbcc-4469-4e7b-a762-c555244b2290 .color-7 a:visited{stroke:#a3413f;fill:#a3413f}#chart-8218cbcc-4469-4e7b-a762-c555244b2290 .color-8,#chart-8218cbcc-4469-4e7b-a762-c555244b2290 .color-8 a:visited{stroke:#a3413f;fill:#a3413f}#chart-8218cbcc-4469-4e7b-a762-c555244b2290 .color-9,#chart-8218cbcc-4469-4e7b-a762-c555244b2290 .color-9 a:visited{stroke:#657fff;fill:#657fff}#chart-8218cbcc-4469-4e7b-a762-c555244b2290 .color-10,#chart-8218cbcc-4469-4e7b-a762-c555244b2290 .color-10 a:visited{stroke:#657fff;fill:#657fff}#chart-8218cbcc-4469-4e7b-a762-c555244b2290 .color-11,#chart-8218cbcc-4469-4e7b-a762-c555244b2290 .color-11 a:visited{stroke:#657fff;fill:#657fff}#chart-8218cbcc-4469-4e7b-a762-c555244b2290 .color-12,#chart-8218cbcc-4469-4e7b-a762-c555244b2290 .color-12 a:visited{stroke:#657fff;fill:#657fff}#chart-8218cbcc-4469-4e7b-a762-c555244b2290 .color-13,#chart-8218cbcc-4469-4e7b-a762-c555244b2290 .color-13 a:visited{stroke:#657fff;fill:#657fff}#chart-8218cbcc-4469-4e7b-a762-c555244b2290 .text-overlay .color-0 text{fill:black}#chart-8218cbcc-4469-4e7b-a762-c555244b2290 .text-overlay .color-1 text{fill:white}#chart-8218cbcc-4469-4e7b-a762-c555244b2290 .text-overlay .color-2 text{fill:black}#chart-8218cbcc-4469-4e7b-a762-c555244b2290 .text-overlay .color-3 text{fill:black}#chart-8218cbcc-4469-4e7b-a762-c555244b2290 .text-overlay .color-4 text{fill:black}#chart-8218cbcc-4469-4e7b-a762-c555244b2290 .text-overlay .color-5 text{fill:black}#chart-8218cbcc-4469-4e7b-a762-c555244b2290 .text-overlay .color-6 text{fill:black}#chart-8218cbcc-4469-4e7b-a762-c555244b2290 .text-overlay .color-7 text{fill:black}#chart-8218cbcc-4469-4e7b-a762-c555244b2290 .text-overlay .color-8 text{fill:black}#chart-8218cbcc-4469-4e7b-a762-c555244b2290 .text-overlay .color-9 text{fill:black}#chart-8218cbcc-4469-4e7b-a762-c555244b2290 .text-overlay .color-10 text{fill:black}#chart-8218cbcc-4469-4e7b-a762-c555244b2290 .text-overlay .color-11 text{fill:black}#chart-8218cbcc-4469-4e7b-a762-c555244b2290 .text-overlay .color-12 text{fill:black}#chart-8218cbcc-4469-4e7b-a762-c555244b2290 .text-overlay .color-13 text{fill:black}#chart-8218cbcc-4469-4e7b-a762-c555244b2290 .series.serie-1{stroke-width:5}#chart-8218cbcc-4469-4e7b-a762-c555244b2290 .series.serie-2{stroke-width:3}#chart-8218cbcc-4469-4e7b-a762-c555244b2290 .series.serie-3{stroke-width:3}#chart-8218cbcc-4469-4e7b-a762-c555244b2290 .series.serie-4{stroke-width:2;stroke-dasharray:2,2}#chart-8218cbcc-4469-4e7b-a762-c555244b2290 .series.serie-5{stroke-width:2;stroke-dasharray:2,2}#chart-8218cbcc-4469-4e7b-a762-c555244b2290 .series.serie-6{stroke-width:2;stroke-dasharray:2,2}#chart-8218cbcc-4469-4e7b-a762-c555244b2290 .series.serie-7{stroke-width:2;stroke-dasharray:2,2}#chart-8218cbcc-4469-4e7b-a762-c555244b2290 .series.serie-8{stroke-width:2;stroke-dasharray:2,2}#chart-8218cbcc-4469-4e7b-a762-c555244b2290 .series.serie-9{stroke-width:2;stroke-dasharray:2,2}#chart-8218cbcc-4469-4e7b-a762-c555244b2290 .series.serie-10{stroke-width:2;stroke-dasharray:2,2}#chart-8218cbcc-4469-4e7b-a762-c555244b2290 .series.serie-11{stroke-width:2;stroke-dasharray:2,2}#chart-8218cbcc-4469-4e7b-a762-c555244b2290 .series.serie-12{stroke-width:2;stroke-dasharray:2,2}#chart-8218cbcc-4469-4e7b-a762-c555244b2290 .series.serie-13{stroke-width:2;stroke-dasharray:2,2}
#chart-8218cbcc-4469-4e7b-a762-c555244b2290 text.no_data{text-anchor:middle}#chart-8218cbcc-4469-4e7b-a762-c555244b2290 .guide.line{fill:none}#chart-8218cbcc-4469-4e7b-a762-c555244b2290 .centered{text-anchor:middle}#chart-8218cbcc-4469-4e7b-a762-c555244b2290 .title{text-anchor:middle}#chart-8218cbcc-4469-4e7b-a762-c555244b2290 .legends .legend text{fill-opacity:1}#chart-8218cbcc-4469-4e7b-a762-c555244b2290 .axis.x text{text-anchor:middle}#chart-8218cbcc-4469-4e7b-a762-c555244b2290 .axis.x:not(.web) text[transform]{text-anchor:start}#chart-8218cbcc-4469-4e7b-a762-c555244b2290 .axis.x:not(.web) text[transform].backwards{text-anchor:end}#chart-8218cbcc-4469-4e7b-a762-c555244b2290 .axis.y text{text-anchor:end}#chart-8218cbcc-4469-4e7b-a762-c555244b2290 .axis.y text[transform].backwards{text-anchor:start}#chart-8218cbcc-4469-4e7b-a762-c555244b2290 .axis.y2 text{text-anchor:start}#chart-8218cbcc-4469-4e7b-a762-c555244b2290 .axis.y2 text[transform].backwards{text-anchor:end}#chart-8218cbcc-4469-4e7b-a762-c555244b2290 .axis .guide.line{stroke-dasharray:4,4}#chart-8218cbcc-4469-4e7b-a762-c555244b2290 .axis .major.guide.line{stroke-dasharray:6,6}#chart-8218cbcc-4469-4e7b-a762-c555244b2290 .horizontal .axis.y .guide.line,#chart-8218cbcc-4469-4e7b-a762-c555244b2290 .horizontal .axis.y2 .guide.line,#chart-8218cbcc-4469-4e7b-a762-c555244b2290 .vertical .axis.x .guide.line{opacity:0}#chart-8218cbcc-4469-4e7b-a762-c555244b2290 .horizontal .axis.always_show .guide.line,#chart-8218cbcc-4469-4e7b-a762-c555244b2290 .vertical .axis.always_show .guide.line{opacity:1 !important}#chart-8218cbcc-4469-4e7b-a762-c555244b2290 .axis.y .guides:hover .guide.line,#chart-8218cbcc-4469-4e7b-a762-c555244b2290 .axis.y2 .guides:hover .guide.line,#chart-8218cbcc-4469-4e7b-a762-c555244b2290 .axis.x .guides:hover .guide.line{opacity:1}#chart-8218cbcc-4469-4e7b-a762-c555244b2290 .axis .guides:hover text{opacity:1}#chart-8218cbcc-4469-4e7b-a762-c555244b2290 .nofill{fill:none}#chart-8218cbcc-4469-4e7b-a762-c555244b2290 .subtle-fill{fill-opacity:.2}#chart-8218cbcc-4469-4e7b-a762-c555244b2290 .dot{stroke-width:1px;fill-opacity:1}#chart-8218cbcc-4469-4e7b-a762-c555244b2290 .dot.active{stroke-width:5px}#chart-8218cbcc-4469-4e7b-a762-c555244b2290 .dot.negative{fill:transparent}#chart-8218cbcc-4469-4e7b-a762-c555244b2290 text,#chart-8218cbcc-4469-4e7b-a762-c555244b2290 tspan{stroke:none !important}#chart-8218cbcc-4469-4e7b-a762-c555244b2290 .series text.active{opacity:1}#chart-8218cbcc-4469-4e7b-a762-c555244b2290 .tooltip rect{fill-opacity:.95;stroke-width:.5}#chart-8218cbcc-4469-4e7b-a762-c555244b2290 .tooltip text{fill-opacity:1}#chart-8218cbcc-4469-4e7b-a762-c555244b2290 .showable{visibility:hidden}#chart-8218cbcc-4469-4e7b-a762-c555244b2290 .showable.shown{visibility:visible}#chart-8218cbcc-4469-4e7b-a762-c555244b2290 .gauge-background{fill:rgba(229,229,229,1);stroke:none}#chart-8218cbcc-4469-4e7b-a762-c555244b2290 .bg-lines{stroke:rgba(249,249,249,1);stroke-width:2px}</style><script type="text/javascript">window.pygal = window.pygal || {};window.pygal.config = window.pygal.config || {};window.pygal.config['8218cbcc-4469-4e7b-a762-c555244b2290'] = {"allow_interruptions": false, "x_label_rotation": 60, "y_title": "Density", "stack_from_top": false, "stroke": true, "include_x_axis": false, "defs": [], "truncate_label": null, "legend_at_bottom_columns": null, "show_minor_y_labels": true, "show_x_labels": true, "tooltip_fancy_mode": true, "show_legend": true, "print_labels": false, "disable_xml_declaration": false, "secondary_range": null, "x_labels": ["-8.96", "-8.76", "-8.56", "-8.36", "-8.16", "-7.96", "-7.76", "-7.56", "-7.36", "-7.16", "-6.96", "-6.76", "-6.56", "-6.36", "-6.16", "-5.96", "-5.76", "-5.56", "-5.36", "-5.16", "-4.96", "-4.76", "-4.56", "-4.36", "-4.16", "-3.96", "-3.76", "-3.56", "-3.36", "-3.16", "-2.96", "-2.76", "-2.56", "-2.36", "-2.16", "-1.96", "-1.76", "-1.56", "-1.36", "-1.16", "-0.96", "-0.76", "-0.56", "-0.36", "-0.16", "0.04", "0.24", "0.44", "0.64", "0.84", "1.04", "1.24", "1.43", "1.63", "1.83", "2.03", "2.23", "2.43", "2.63", "2.83"], "interpolation_precision": 250, "force_uri_protocol": "https", "classes": ["pygal-chart"], "css": ["file://style.css", "file://graph.css"], "margin": 20, "style": {"opacity_hover": ".8", "foreground": "rgba(0, 0, 0, .87)", "foreground_subtle": "rgba(0, 0, 0, .54)", "value_colors": [], "legend_font_family": "Consolas, \"Liberation Mono\", Menlo, Courier, monospace", "tooltip_font_family": "Consolas, \"Liberation Mono\", Menlo, Courier, monospace", "stroke_opacity_hover": ".9", "no_data_font_size": 64, "guide_stroke_dasharray": "4,4", "title_font_family": "Consolas, \"Liberation Mono\", Menlo, Courier, monospace", "label_font_family": "Consolas, \"Liberation Mono\", Menlo, Courier, monospace", "ci_colors": [], "background": "rgba(249, 249, 249, 1)", "colors": ["#909090", "#000000", "#ff0500", "#323299", "#a3413f", "#a3413f", "#a3413f", "#a3413f", "#a3413f", "#657fff", "#657fff", "#657fff", "#657fff", "#657fff"], "value_font_family": "Consolas, \"Liberation Mono\", Menlo, Courier, monospace", "font_family": "Consolas, \"Liberation Mono\", Menlo, Courier, monospace", "value_background": "rgba(229, 229, 229, 1)", "stroke_opacity": ".8", "title_font_size": 16, "no_data_font_family": "Consolas, \"Liberation Mono\", Menlo, Courier, monospace", "label_font_size": 10, "major_guide_stroke_dasharray": "6,6", "major_label_font_size": 10, "transition": "150ms", "opacity": ".7", "legend_font_size": 10, "value_label_font_family": "Consolas, \"Liberation Mono\", Menlo, Courier, monospace", "major_label_font_family": "Consolas, \"Liberation Mono\", Menlo, Courier, monospace", "plot_background": "rgba(255, 255, 255, 1)", "value_label_font_size": 10, "foreground_strong": "rgba(0, 0, 0, 1)", "tooltip_font_size": 14, "value_font_size": 16}, "order_min": null, "interpolation_parameters": {}, "show_dots": false, "y_labels_major": null, "box_mode": "extremes", "fill": false, "show_minor_x_labels": false, "js": ["//kozea.github.io/pygal.js/2.0.x/pygal-tooltips.min.js"], "explicit_size": false, "formatter": null, "x_labels_major": null, "legends": ["Data", "GMM", "i=0", "i=1", "i=0 k=0", "i=0 k=1", "i=0 k=2", "i=0 k=3", "i=0 k=4", "i=1 k=0", "i=1 k=1", "i=1 k=2", "i=1 k=3", "i=1 k=4"], "zero": 0, "strict": false, "print_values": false, "margin_bottom": null, "dynamic_print_values": false, "print_zeroes": true, "logarithmic": false, "x_labels_major_count": null, "margin_left": null, "legend_box_size": 12, "max_scale": 16, "dots_size": 2.5, "show_y_guides": true, "truncate_legend": null, "interpolate": null, "y_labels_major_every": null, "legend_at_bottom": false, "inner_radius": 0, "tooltip_border_radius": 0, "show_x_guides": false, "x_labels_major_every": 2, "show_y_labels": true, "pretty_print": false, "rounded_bars": null, "missing_value_fill_truncation": "x", "y_label_rotation": 0, "height": 600, "show_only_major_dots": false, "spacing": 10, "inverse_y_axis": false, "xrange": null, "margin_right": null, "no_prefix": false, "range": [0, 0.27578580090479526], "margin_top": null, "no_data_text": "No data", "y_labels_major_count": null, "half_pie": false, "width": 800, "title": "Iteration #16", "stroke_style": null, "y_labels": null, "print_values_position": "center", "x_title": "Observation", "min_scale": 4}</script><script type="text/javascript" xlink:href="https://kozea.github.io/pygal.js/2.0.x/pygal-tooltips.min.js" /></defs><title>Iteration #16</title><g class="graph line-graph vertical"><rect class="background" height="600" width="800" x="0" y="0" /><g class="plot" transform="translate(144, 46)"><rect class="background" height="472.01923788646684" width="636.0" x="0" y="0" /><g class="axis y always_show"><g class="guides"><path class="axis major line" d="M0.000000 462.941945 h636.000000" /><text class="major" x="-5" y="466.44194485">0</text><title>0</title></g><g class="guides"><path class="guide line" d="M0.000000 430.027658 h636.000000" /><text class="" x="-5" y="433.527657724">0.02</text><title>0.02</title></g><g class="guides"><path class="guide line" d="M0.000000 397.113371 h636.000000" /><text class="" x="-5" y="400.613370598">0.04</text><title>0.04</title></g><g class="guides"><path class="guide line" d="M0.000000 364.199083 h636.000000" /><text class="" x="-5" y="367.699083472">0.06</text><title>0.06</title></g><g class="guides"><path class="guide line" d="M0.000000 331.284796 h636.000000" /><text class="" x="-5" y="334.784796346">0.08</text><title>0.08</title></g><g class="guides"><path class="guide line" d="M0.000000 298.370509 h636.000000" /><text class="" x="-5" y="301.87050922">0.1</text><title>0.1</title></g><g class="guides"><path class="guide line" d="M0.000000 265.456222 h636.000000" /><text class="" x="-5" y="268.956222094">0.12</text><title>0.12</title></g><g class="guides"><path class="guide line" d="M0.000000 232.541935 h636.000000" /><text class="" x="-5" y="236.041934968">0.14</text><title>0.14</title></g><g class="guides"><path class="guide line" d="M0.000000 199.627648 h636.000000" /><text class="" x="-5" y="203.127647841">0.16</text><title>0.16</title></g><g class="guides"><path class="guide line" d="M0.000000 166.713361 h636.000000" /><text class="" x="-5" y="170.213360715">0.18</text><title>0.18</title></g><g class="guides"><path class="guide line" d="M0.000000 133.799074 h636.000000" /><text class="" x="-5" y="137.299073589">0.2</text><title>0.2</title></g><g class="guides"><path class="guide line" d="M0.000000 100.884786 h636.000000" /><text class="" x="-5" y="104.384786463">0.22</text><title>0.22</title></g><g class="guides"><path class="guide line" d="M0.000000 67.970499 h636.000000" /><text class="" x="-5" y="71.4704993371">0.24</text><title>0.24</title></g><g class="guides"><path class="guide line" d="M0.000000 35.056212 h636.000000" /><text class="" x="-5" y="38.5562122111">0.26</text><title>0.26</title></g></g><g class="axis x"><g class="guides"><path class="major line" d="M12.230769 0.000000 v472.019238" /><text class="major" transform="rotate(60 12.230769 487.019238)" x="12.230769230769232" y="487.01923788646684">-8.96</text></g><g class="guides"><path class="major guide line" d="M32.960887 0.000000 v472.019238" /><text class="major" transform="rotate(60 32.960887 487.019238)" x="32.96088657105606" y="487.01923788646684">-8.56</text></g><g class="guides"><path class="major guide line" d="M53.691004 0.000000 v472.019238" /><text class="major" transform="rotate(60 53.691004 487.019238)" x="53.6910039113429" y="487.01923788646684">-8.16</text></g><g class="guides"><path class="major guide line" d="M74.421121 0.000000 v472.019238" /><text class="major" transform="rotate(60 74.421121 487.019238)" x="74.42112125162973" y="487.01923788646684">-7.76</text></g><g class="guides"><path class="major guide line" d="M95.151239 0.000000 v472.019238" /><text class="major" transform="rotate(60 95.151239 487.019238)" x="95.15123859191655" y="487.01923788646684">-7.36</text></g><g class="guides"><path class="major guide line" d="M115.881356 0.000000 v472.019238" /><text class="major" transform="rotate(60 115.881356 487.019238)" x="115.88135593220338" y="487.01923788646684">-6.96</text></g><g class="guides"><path class="major guide line" d="M136.611473 0.000000 v472.019238" /><text class="major" transform="rotate(60 136.611473 487.019238)" x="136.61147327249023" y="487.01923788646684">-6.56</text></g><g class="guides"><path class="major guide line" d="M157.341591 0.000000 v472.019238" /><text class="major" transform="rotate(60 157.341591 487.019238)" x="157.34159061277705" y="487.01923788646684">-6.16</text></g><g class="guides"><path class="major guide line" d="M178.071708 0.000000 v472.019238" /><text class="major" transform="rotate(60 178.071708 487.019238)" x="178.0717079530639" y="487.01923788646684">-5.76</text></g><g class="guides"><path class="major guide line" d="M198.801825 0.000000 v472.019238" /><text class="major" transform="rotate(60 198.801825 487.019238)" x="198.80182529335073" y="487.01923788646684">-5.36</text></g><g class="guides"><path class="major guide line" d="M219.531943 0.000000 v472.019238" /><text class="major" transform="rotate(60 219.531943 487.019238)" x="219.53194263363756" y="487.01923788646684">-4.96</text></g><g class="guides"><path class="major guide line" d="M240.262060 0.000000 v472.019238" /><text class="major" transform="rotate(60 240.262060 487.019238)" x="240.2620599739244" y="487.01923788646684">-4.56</text></g><g class="guides"><path class="major guide line" d="M260.992177 0.000000 v472.019238" /><text class="major" transform="rotate(60 260.992177 487.019238)" x="260.99217731421123" y="487.01923788646684">-4.16</text></g><g class="guides"><path class="major guide line" d="M281.722295 0.000000 v472.019238" /><text class="major" transform="rotate(60 281.722295 487.019238)" x="281.722294654498" y="487.01923788646684">-3.76</text></g><g class="guides"><path class="major guide line" d="M302.452412 0.000000 v472.019238" /><text class="major" transform="rotate(60 302.452412 487.019238)" x="302.4524119947849" y="487.01923788646684">-3.36</text></g><g class="guides"><path class="major guide line" d="M323.182529 0.000000 v472.019238" /><text class="major" transform="rotate(60 323.182529 487.019238)" x="323.1825293350717" y="487.01923788646684">-2.96</text></g><g class="guides"><path class="major guide line" d="M343.912647 0.000000 v472.019238" /><text class="major" transform="rotate(60 343.912647 487.019238)" x="343.91264667535853" y="487.01923788646684">-2.56</text></g><g class="guides"><path class="major guide line" d="M364.642764 0.000000 v472.019238" /><text class="major" transform="rotate(60 364.642764 487.019238)" x="364.64276401564535" y="487.01923788646684">-2.16</text></g><g class="guides"><path class="major guide line" d="M385.372881 0.000000 v472.019238" /><text class="major" transform="rotate(60 385.372881 487.019238)" x="385.37288135593224" y="487.01923788646684">-1.76</text></g><g class="guides"><path class="major guide line" d="M406.102999 0.000000 v472.019238" /><text class="major" transform="rotate(60 406.102999 487.019238)" x="406.102998696219" y="487.01923788646684">-1.36</text></g><g class="guides"><path class="major guide line" d="M426.833116 0.000000 v472.019238" /><text class="major" transform="rotate(60 426.833116 487.019238)" x="426.8331160365058" y="487.01923788646684">-0.96</text></g><g class="guides"><path class="major guide line" d="M447.563233 0.000000 v472.019238" /><text class="major" transform="rotate(60 447.563233 487.019238)" x="447.56323337679265" y="487.01923788646684">-0.56</text></g><g class="guides"><path class="major guide line" d="M468.293351 0.000000 v472.019238" /><text class="major" transform="rotate(60 468.293351 487.019238)" x="468.29335071707953" y="487.01923788646684">-0.16</text></g><g class="guides"><path class="major guide line" d="M489.023468 0.000000 v472.019238" /><text class="major" transform="rotate(60 489.023468 487.019238)" x="489.02346805736636" y="487.01923788646684">0.24</text></g><g class="guides"><path class="major guide line" d="M509.753585 0.000000 v472.019238" /><text class="major" transform="rotate(60 509.753585 487.019238)" x="509.75358539765324" y="487.01923788646684">0.64</text></g><g class="guides"><path class="major guide line" d="M530.483703 0.000000 v472.019238" /><text class="major" transform="rotate(60 530.483703 487.019238)" x="530.48370273794" y="487.01923788646684">1.04</text></g><g class="guides"><path class="major guide line" d="M551.213820 0.000000 v472.019238" /><text class="major" transform="rotate(60 551.213820 487.019238)" x="551.213820078227" y="487.01923788646684">1.43</text></g><g class="guides"><path class="major guide line" d="M571.943937 0.000000 v472.019238" /><text class="major" transform="rotate(60 571.943937 487.019238)" x="571.9439374185138" y="487.01923788646684">1.83</text></g><g class="guides"><path class="major guide line" d="M592.674055 0.000000 v472.019238" /><text class="major" transform="rotate(60 592.674055 487.019238)" x="592.6740547588006" y="487.01923788646684">2.23</text></g><g class="guides"><path class="major guide line" d="M613.404172 0.000000 v472.019238" /><text class="major" transform="rotate(60 613.404172 487.019238)" x="613.4041720990874" y="487.01923788646684">2.63</text></g></g><g class="series serie-0 color-0"><path class="line reactive" d="M12.230769 462.941945 L12.230769 462.019456 22.595828 462.941945 32.960887 461.096967 43.325945 462.019456 53.691004 459.251988 64.056063 462.019456 74.421121 458.329499 84.786180 462.019456 95.151239 458.329499 105.516297 462.019456 115.881356 448.182119 126.246415 460.174477 136.611473 457.407010 146.976532 457.407010 157.341591 451.872075 167.706649 448.182119 178.071708 454.639543 188.436767 445.414651 198.801825 442.647184 209.166884 436.189760 219.531943 437.112249 229.897001 392.832771 240.262060 396.522728 250.627119 376.227967 260.992177 355.933206 271.357236 351.320760 281.722295 325.491065 292.087353 277.521630 302.452412 283.056565 312.817471 202.800010 323.182529 188.040184 333.547588 169.590402 343.912647 123.465945 354.277705 95.791271 364.642764 67.194108 375.007823 82.876423 385.372881 60.736684 395.737940 80.108956 406.102999 29.372054 416.468057 9.077293 426.833116 70.884065 437.198175 69.039086 447.563233 41.364413 457.928292 40.441923 468.293351 91.178826 478.658409 140.993239 489.023468 214.792369 499.388527 259.071847 509.753585 321.801108 520.118644 364.235608 530.483703 408.515086 540.848761 430.654825 551.213820 448.182119 561.578879 455.562032 571.943937 458.329499 582.308996 458.329499 592.674055 462.019456 603.039113 462.941945 613.404172 462.019456 623.769231 462.941945" /></g><g class="series serie-1 color-1"><path class="line reactive nofill" d="M12.230769 462.902512 L22.595828 462.874793 32.960887 462.829762 43.325945 462.758098 53.691004 462.646381 64.056063 462.475811 74.421121 462.220782 84.786180 461.847433 95.151239 461.312379 105.516297 460.561888 115.881356 459.531843 126.246415 458.148890 136.611473 456.333121 146.976532 454.002562 157.341591 451.079473 167.706649 447.497979 178.071708 443.211722 188.436767 438.198800 198.801825 432.459233 209.166884 425.997896 219.531943 418.784763 229.897001 410.687437 240.262060 401.382024 250.627119 390.268825 260.992177 376.443344 271.357236 358.785485 281.722295 336.211863 292.087353 308.079591 302.452412 274.647868 312.817471 237.423440 323.182529 199.168748 333.547588 163.388421 343.912647 133.309121 354.277705 110.705215 364.642764 95.133102 375.007823 84.079600 385.372881 74.492179 395.737940 65.495589 406.102999 59.529031 416.468057 58.536831 426.833116 58.923512 437.198175 54.333313 447.563233 45.201803 457.928292 42.320688 468.293351 59.047816 478.658409 101.117874 489.023468 163.451748 499.388527 234.246575 509.753585 301.335038 520.118644 356.624806 530.483703 397.280845 540.848761 424.478735 551.213820 441.321379 561.578879 451.140809 571.943937 456.620434 582.308996 459.592232 592.674055 461.178163 603.039113 462.017976 613.404172 462.461027 623.769231 462.693951" /></g><g class="series serie-2 color-2"><path class="line reactive nofill" d="M12.230769 462.941945 L22.595828 462.941945 32.960887 462.941945 43.325945 462.941945 53.691004 462.941945 64.056063 462.941945 74.421121 462.941945 84.786180 462.941945 95.151239 462.941945 105.516297 462.941945 115.881356 462.941945 126.246415 462.941945 136.611473 462.941945 146.976532 462.941945 157.341591 462.941945 167.706649 462.941945 178.071708 462.941945 188.436767 462.941945 198.801825 462.941944 209.166884 462.941941 219.531943 462.941934 229.897001 462.941913 240.262060 462.941854 250.627119 462.941689 260.992177 462.941241 271.357236 462.940046 281.722295 462.936908 292.087353 462.928760 302.452412 462.907797 312.817471 462.854281 323.182529 462.719005 333.547588 462.382699 343.912647 461.569422 354.277705 459.682743 364.642764 455.545325 375.007823 447.087036 385.372881 431.167447 395.737940 403.890267 406.102999 361.799359 416.468057 304.001759 426.833116 234.494317 437.198175 163.205812 447.563233 104.312509 457.928292 71.719285 468.293351 73.592118 478.658409 108.918824 489.023468 168.118797 499.388527 237.257244 509.753585 303.337965 520.118644 357.961543 530.483703 398.164220 540.848761 425.053573 551.213820 441.688872 561.578879 451.371409 571.943937 456.762411 582.308996 459.677990 592.674055 461.228979 603.039113 462.047515 613.404172 462.477872 623.769231 462.703374" /></g><g class="series serie-3 color-3"><path class="line reactive nofill" d="M12.230769 462.902512 L22.595828 462.874793 32.960887 462.829762 43.325945 462.758098 53.691004 462.646381 64.056063 462.475811 74.421121 462.220782 84.786180 461.847433 95.151239 461.312379 105.516297 460.561888 115.881356 459.531843 126.246415 458.148890 136.611473 456.333121 146.976532 454.002562 157.341591 451.079473 167.706649 447.497979 178.071708 443.211722 188.436767 438.198800 198.801825 432.459234 209.166884 425.997900 219.531943 418.784773 229.897001 410.687468 240.262060 401.382114 250.627119 390.269081 260.992177 376.444047 271.357236 358.787384 281.722295 336.216900 292.087353 308.092776 302.452412 274.682016 312.817471 237.511104 323.182529 199.391687 333.547588 163.947667 343.912647 134.681644 354.277705 113.964416 364.642764 102.529721 375.007823 99.934509 385.372881 106.266677 395.737940 124.547266 406.102999 160.671616 416.468057 217.477017 426.833116 287.371140 437.198175 354.069446 447.563233 403.831239 457.928292 433.543347 468.293351 448.397643 478.658409 455.140995 489.023468 458.274896 499.388527 459.931277 509.753585 460.939018 520.118644 461.605209 530.483703 462.058570 540.848761 462.367107 551.213820 462.574451 561.578879 462.711345 571.943937 462.799968 582.308996 462.856187 592.674055 462.891129 603.039113 462.912406 613.404172 462.925101 623.769231 462.932522" /></g><g class="series serie-4 color-4"><path class="line reactive nofill" d="M12.230769 462.941945 L22.595828 462.941945 32.960887 462.941945 43.325945 462.941945 53.691004 462.941945 64.056063 462.941945 74.421121 462.941945 84.786180 462.941945 95.151239 462.941945 105.516297 462.941945 115.881356 462.941945 126.246415 462.941945 136.611473 462.941945 146.976532 462.941945 157.341591 462.941945 167.706649 462.941945 178.071708 462.941945 188.436767 462.941945 198.801825 462.941945 209.166884 462.941945 219.531943 462.941945 229.897001 462.941945 240.262060 462.941945 250.627119 462.941945 260.992177 462.941944 271.357236 462.941937 281.722295 462.941893 292.087353 462.941653 302.452412 462.940456 312.817471 462.935091 323.182529 462.913488 333.547588 462.835422 343.912647 462.582411 354.277705 461.847793 364.642764 459.939642 375.007823 455.513964 385.372881 446.371795 395.737940 429.613006 406.102999 402.497565 416.468057 364.102620 426.833116 317.213947 437.198175 269.212507 447.563233 230.728356 457.928292 211.973550 468.293351 218.379467 478.658409 248.059959 489.023468 292.706659 499.388527 341.340552 509.753585 384.622986 520.118644 417.460458 530.483703 439.127427 540.848761 451.698787 551.213820 458.155928 561.578879 461.104985 571.943937 462.306227 582.308996 462.743578 592.674055 462.886135 603.039113 462.927787 613.404172 462.938707 623.769231 462.941277" /></g><g class="series serie-5 color-5"><path class="line reactive nofill" d="M12.230769 462.941945 L22.595828 462.941945 32.960887 462.941945 43.325945 462.941945 53.691004 462.941945 64.056063 462.941945 74.421121 462.941945 84.786180 462.941945 95.151239 462.941945 105.516297 462.941945 115.881356 462.941945 126.246415 462.941945 136.611473 462.941945 146.976532 462.941945 157.341591 462.941945 167.706649 462.941945 178.071708 462.941945 188.436767 462.941945 198.801825 462.941945 209.166884 462.941945 219.531943 462.941945 229.897001 462.941945 240.262060 462.941944 250.627119 462.941941 260.992177 462.941924 271.357236 462.941850 281.722295 462.941544 292.087353 462.940384 302.452412 462.936323 312.817471 462.923232 323.182529 462.884360 333.547588 462.778137 343.912647 462.511199 354.277705 461.894885 364.642764 460.589154 375.007823 458.054773 385.372881 453.557817 395.737940 446.285113 406.102999 435.611101 416.468057 421.487051 426.833116 404.817244 437.198175 387.605036 447.563233 372.677438 457.928292 362.967645 468.293351 360.583926 478.658409 366.065650 489.023468 378.184996 499.388527 394.393871 509.753585 411.693895 520.118644 427.524146 530.483703 440.314894 540.848761 449.579176 551.213820 455.646914 561.578879 459.260486 571.943937 461.224531 582.308996 462.201331 592.674055 462.646708 603.039113 462.833149 613.404172 462.904884 623.769231 462.930275" /></g><g class="series serie-6 color-6"><path class="line reactive nofill" d="M12.230769 462.941945 L22.595828 462.941945 32.960887 462.941945 43.325945 462.941945 53.691004 462.941945 64.056063 462.941945 74.421121 462.941945 84.786180 462.941945 95.151239 462.941945 105.516297 462.941945 115.881356 462.941945 126.246415 462.941945 136.611473 462.941945 146.976532 462.941945 157.341591 462.941945 167.706649 462.941945 178.071708 462.941945 188.436767 462.941945 198.801825 462.941945 209.166884 462.941945 219.531943 462.941944 229.897001 462.941942 240.262060 462.941933 250.627119 462.941900 260.992177 462.941789 271.357236 462.941438 281.722295 462.940389 292.087353 462.937449 302.452412 462.929706 312.817471 462.910557 323.182529 462.866121 333.547588 462.769411 343.912647 462.572137 354.277705 462.195309 364.642764 461.521993 375.007823 460.398223 385.372881 458.649577 395.737940 456.119255 406.102999 452.726770 416.468057 448.535152 426.833116 443.802901 437.198175 438.991998 447.563233 434.711334 457.928292 431.597010 468.293351 430.159158 478.658409 430.645423 489.023468 432.971235 499.388527 436.743851 509.753585 441.370772 520.118644 446.211433 530.483703 450.718994 540.848761 454.530428 551.213820 457.489341 561.578879 459.612553 571.943937 461.026995 582.308996 461.904461 592.674055 462.412481 603.039113 462.687424 613.404172 462.826695 623.769231 462.892787" /></g><g class="series serie-7 color-7"><path class="line reactive nofill" d="M12.230769 462.941945 L22.595828 462.941945 32.960887 462.941945 43.325945 462.941945 53.691004 462.941945 64.056063 462.941945 74.421121 462.941945 84.786180 462.941945 95.151239 462.941945 105.516297 462.941945 115.881356 462.941945 126.246415 462.941945 136.611473 462.941945 146.976532 462.941945 157.341591 462.941945 167.706649 462.941945 178.071708 462.941945 188.436767 462.941945 198.801825 462.941944 209.166884 462.941943 219.531943 462.941939 229.897001 462.941928 240.262060 462.941896 250.627119 462.941810 260.992177 462.941589 271.357236 462.941043 281.722295 462.939762 292.087353 462.936892 302.452412 462.930768 312.817471 462.918309 323.182529 462.894166 333.547588 462.849619 343.912647 462.771402 354.277705 462.640806 364.642764 462.433643 375.007823 462.121786 385.372881 461.676927 395.737940 461.076781 406.102999 460.313135 416.468057 459.400152 426.833116 458.380431 437.198175 457.326078 447.563233 456.332783 457.928292 455.506657 468.293351 454.945976 478.658409 454.722050 489.023468 454.864328 499.388527 455.354036 509.753585 456.128248 520.118644 457.093163 530.483703 458.142734 540.848761 459.177542 551.213820 460.119378 561.578879 460.918859 571.943937 461.555808 582.308996 462.034083 592.674055 462.373543 603.039113 462.601762 613.404172 462.747323 623.769231 462.835508" /></g><g class="series serie-8 color-8"><path class="line reactive nofill" d="M12.230769 462.941945 L22.595828 462.941945 32.960887 462.941945 43.325945 462.941945 53.691004 462.941945 64.056063 462.941945 74.421121 462.941945 84.786180 462.941945 95.151239 462.941945 105.516297 462.941945 115.881356 462.941945 126.246415 462.941945 136.611473 462.941945 146.976532 462.941945 157.341591 462.941945 167.706649 462.941945 178.071708 462.941945 188.436767 462.941945 198.801825 462.941944 209.166884 462.941943 219.531943 462.941941 229.897001 462.941933 240.262060 462.941916 250.627119 462.941873 260.992177 462.941775 271.357236 462.941558 281.722295 462.941098 292.087353 462.940160 302.452412 462.938324 312.817471 462.934872 323.182529 462.928649 333.547588 462.917889 343.912647 462.900053 354.277705 462.871730 364.642764 462.828673 375.007823 462.766069 385.372881 462.679110 395.737940 462.563892 406.102999 462.418567 416.468057 462.244564 426.833116 462.047574 437.198175 461.837973 447.563233 461.630376 457.928292 461.442202 468.293351 461.291370 478.658409 461.193522 489.023468 461.159359 499.388527 461.192714 509.753585 461.289844 520.118644 461.440122 530.483703 461.627950 540.848761 461.835420 551.213820 462.045091 561.578879 462.242305 571.943937 462.416629 582.308996 462.562316 592.674055 462.677892 603.039113 462.765173 613.404172 462.828043 623.769231 462.871307" /></g><g class="series serie-9 color-9"><path class="line reactive nofill" d="M12.230769 462.941945 L22.595828 462.941945 32.960887 462.941945 43.325945 462.941945 53.691004 462.941945 64.056063 462.941945 74.421121 462.941945 84.786180 462.941945 95.151239 462.941945 105.516297 462.941945 115.881356 462.941945 126.246415 462.941945 136.611473 462.941945 146.976532 462.941945 157.341591 462.941945 167.706649 462.941945 178.071708 462.941945 188.436767 462.941945 198.801825 462.941945 209.166884 462.941945 219.531943 462.941945 229.897001 462.941945 240.262060 462.941945 250.627119 462.941945 260.992177 462.941945 271.357236 462.941945 281.722295 462.941945 292.087353 462.941944 302.452412 462.941926 312.817471 462.941672 323.182529 462.938884 333.547588 462.915476 343.912647 462.765727 354.277705 462.038630 364.642764 459.376602 375.007823 452.106737 385.372881 437.587933 395.737940 417.261569 406.102999 399.571584 416.468057 395.253238 426.833116 407.272130 437.198175 427.688881 447.563233 445.753069 457.928292 456.488797 468.293351 461.076556 478.658409 462.526761 489.023468 462.870793 499.388527 462.932556 509.753585 462.940991 520.118644 462.941870 530.483703 462.941940 540.848761 462.941945 551.213820 462.941945 561.578879 462.941945 571.943937 462.941945 582.308996 462.941945 592.674055 462.941945 603.039113 462.941945 613.404172 462.941945 623.769231 462.941945" /></g><g class="series serie-10 color-10"><path class="line reactive nofill" d="M12.230769 462.941945 L22.595828 462.941945 32.960887 462.941945 43.325945 462.941945 53.691004 462.941945 64.056063 462.941945 74.421121 462.941945 84.786180 462.941945 95.151239 462.941945 105.516297 462.941945 115.881356 462.941945 126.246415 462.941945 136.611473 462.941945 146.976532 462.941945 157.341591 462.941945 167.706649 462.941945 178.071708 462.941945 188.436767 462.941945 198.801825 462.941945 209.166884 462.941945 219.531943 462.941945 229.897001 462.941945 240.262060 462.941944 250.627119 462.941939 260.992177 462.941890 271.357236 462.941499 281.722295 462.938891 292.087353 462.924187 302.452412 462.854329 312.817471 462.575114 323.182529 461.638651 333.547588 459.012648 343.912647 452.889237 354.277705 441.117303 364.642764 422.734454 375.007823 400.083647 385.372881 379.551929 395.737940 369.064494 406.102999 373.260144 416.468057 390.240483 426.833116 412.929537 437.198175 433.746965 447.563233 448.479744 457.928292 456.862605 468.293351 460.773371 478.658409 462.285516 489.023468 462.773329 499.388527 462.905191 509.753585 462.935147 520.118644 462.940878 530.483703 462.941803 540.848761 462.941929 551.213820 462.941943 561.578879 462.941945 571.943937 462.941945 582.308996 462.941945 592.674055 462.941945 603.039113 462.941945 613.404172 462.941945 623.769231 462.941945" /></g><g class="series serie-11 color-11"><path class="line reactive nofill" d="M12.230769 462.941945 L22.595828 462.941945 32.960887 462.941945 43.325945 462.941945 53.691004 462.941945 64.056063 462.941945 74.421121 462.941945 84.786180 462.941945 95.151239 462.941945 105.516297 462.941945 115.881356 462.941945 126.246415 462.941945 136.611473 462.941945 146.976532 462.941945 157.341591 462.941945 167.706649 462.941944 178.071708 462.941940 188.436767 462.941917 198.801825 462.941799 209.166884 462.941243 219.531943 462.938884 229.897001 462.929817 240.262060 462.898302 250.627119 462.799316 260.992177 462.518622 271.357236 461.800886 281.722295 460.148657 292.087353 456.731891 302.452412 450.403407 312.817471 439.950289 323.182529 424.653700 333.547588 405.034750 343.912647 383.404531 354.277705 363.725820 364.642764 350.542307 375.007823 347.298924 385.372881 354.886712 395.737940 371.247285 406.102999 392.275354 416.468057 413.481719 426.833116 431.502859 437.198175 444.792824 447.563233 453.426850 457.928292 458.411482 468.293351 460.982903 478.658409 462.172607 489.023468 462.667559 499.388527 462.853070 509.753585 462.915801 520.118644 462.934960 530.483703 462.940250 540.848761 462.941571 551.213820 462.941870 561.578879 462.941931 571.943937 462.941943 582.308996 462.941945 592.674055 462.941945 603.039113 462.941945 613.404172 462.941945 623.769231 462.941945" /></g><g class="series serie-12 color-12"><path class="line reactive nofill" d="M12.230769 462.941945 L22.595828 462.941945 32.960887 462.941945 43.325945 462.941945 53.691004 462.941945 64.056063 462.941945 74.421121 462.941945 84.786180 462.941945 95.151239 462.941945 105.516297 462.941944 115.881356 462.941941 126.246415 462.941926 136.611473 462.941861 146.976532 462.941602 157.341591 462.940633 167.706649 462.937281 178.071708 462.926525 188.436767 462.894518 198.801825 462.806269 209.166884 462.580930 219.531943 462.048449 229.897001 460.885091 240.262060 458.537827 250.627119 454.170752 260.992177 446.693845 271.357236 434.946281 281.722295 418.075339 292.087353 396.061385 302.452412 370.211822 312.817471 343.354380 323.182529 319.493628 333.547588 302.894353 343.912647 296.850570 354.277705 302.621368 364.642764 319.003866 375.007823 342.741413 385.372881 369.577542 395.737940 395.489063 406.102999 417.614217 416.468057 434.610310 426.833116 446.470808 437.198175 454.035185 447.563233 458.462129 457.928292 460.846169 468.293351 462.029989 478.658409 462.572842 489.023468 462.802993 499.388527 462.893290 509.753585 462.926098 520.118644 462.937144 530.483703 462.940592 540.848761 462.941590 551.213820 462.941858 561.578879 462.941925 571.943937 462.941941 582.308996 462.941944 592.674055 462.941945 603.039113 462.941945 613.404172 462.941945 623.769231 462.941945" /></g><g class="series serie-13 color-13"><path class="line reactive nofill" d="M12.230769 462.902512 L22.595828 462.874793 32.960887 462.829762 43.325945 462.758098 53.691004 462.646381 64.056063 462.475811 74.421121 462.220782 84.786180 461.847433 95.151239 461.312380 105.516297 460.561889 115.881356 459.531847 126.246415 458.148909 136.611473 456.333205 146.976532 454.002906 157.341591 451.080785 167.706649 447.502643 178.071708 443.227147 188.436767 438.246255 198.801825 432.595056 209.166884 426.359616 219.531943 419.681330 229.897001 412.756451 240.262060 405.829876 250.627119 399.182908 260.992177 393.115526 271.357236 387.924553 281.722295 383.879848 292.087353 381.201149 302.452412 380.038311 312.817471 380.457427 323.182529 382.434604 333.547588 385.858219 343.912647 390.539359 354.277705 396.229074 364.642764 402.640273 375.007823 409.471568 385.372881 416.430342 395.737940 423.252635 406.102999 429.718096 416.468057 435.659046 426.833116 440.963586 437.198175 445.573371 447.563233 449.477227 457.928292 452.702073 468.293351 455.302603 478.658409 457.351048 489.023468 458.928001 499.388527 460.114949 509.753585 460.988760 520.118644 461.618135 530.483703 462.061764 540.848761 462.367851 551.213820 462.574614 561.578879 462.711378 571.943937 462.799974 582.308996 462.856188 592.674055 462.891129 603.039113 462.912406 613.404172 462.925101 623.769231 462.932522" /></g></g><g class="titles"><text class="title plot_title" x="400.0" y="26">Iteration #16</text><text class="title" x="462.0" y="580.0">Observation</text><text class="title" transform="rotate(-90 64.000000 282.009619)" x="64.0" y="308.0096189432334">Density</text></g><g class="plot overlay" transform="translate(144, 46)"><g class="series serie-0 color-0" /><g class="series serie-1 color-1" /><g class="series serie-2 color-2" /><g class="series serie-3 color-3" /><g class="series serie-4 color-4" /><g class="series serie-5 color-5" /><g class="series serie-6 color-6" /><g class="series serie-7 color-7" /><g class="series serie-8 color-8" /><g class="series serie-9 color-9" /><g class="series serie-10 color-10" /><g class="series serie-11 color-11" /><g class="series serie-12 color-12" /><g class="series serie-13 color-13" /></g><g class="plot text-overlay" transform="translate(144, 46)"><g class="series serie-0 color-0" /><g class="series serie-1 color-1" /><g class="series serie-2 color-2" /><g class="series serie-3 color-3" /><g class="series serie-4 color-4" /><g class="series serie-5 color-5" /><g class="series serie-6 color-6" /><g class="series serie-7 color-7" /><g class="series serie-8 color-8" /><g class="series serie-9 color-9" /><g class="series serie-10 color-10" /><g class="series serie-11 color-11" /><g class="series serie-12 color-12" /><g class="series serie-13 color-13" /></g><g class="plot tooltip-overlay" transform="translate(144, 46)"><g class="tooltip" style="opacity: 0" transform="translate(0 0)"><rect class="tooltip-box" height="0" rx="0" ry="0" width="0" /><g class="text" /></g></g><g class="legends" transform="translate(10, 56)"><g class="legend reactive activate-serie" id="activate-serie-0"><rect class="color-0 reactive" height="12" width="12" x="0.0" y="0.0" /><text x="17.0" y="9.0">Data</text></g><g class="legend reactive activate-serie" id="activate-serie-1"><rect class="color-1 reactive" height="12" width="12" x="0.0" y="18.0" /><text x="17.0" y="27.0">GMM</text></g><g class="legend reactive activate-serie" id="activate-serie-2"><rect class="color-2 reactive" height="12" width="12" x="0.0" y="36.0" /><text x="17.0" y="45.0">i=0</text></g><g class="legend reactive activate-serie" id="activate-serie-3"><rect class="color-3 reactive" height="12" width="12" x="0.0" y="54.0" /><text x="17.0" y="63.0">i=1</text></g><g class="legend reactive activate-serie" id="activate-serie-4"><rect class="color-4 reactive" height="12" width="12" x="0.0" y="72.0" /><text x="17.0" y="81.0">i=0 k=0</text></g><g class="legend reactive activate-serie" id="activate-serie-5"><rect class="color-5 reactive" height="12" width="12" x="0.0" y="90.0" /><text x="17.0" y="99.0">i=0 k=1</text></g><g class="legend reactive activate-serie" id="activate-serie-6"><rect class="color-6 reactive" height="12" width="12" x="0.0" y="108.0" /><text x="17.0" y="117.0">i=0 k=2</text></g><g class="legend reactive activate-serie" id="activate-serie-7"><rect class="color-7 reactive" height="12" width="12" x="0.0" y="126.0" /><text x="17.0" y="135.0">i=0 k=3</text></g><g class="legend reactive activate-serie" id="activate-serie-8"><rect class="color-8 reactive" height="12" width="12" x="0.0" y="144.0" /><text x="17.0" y="153.0">i=0 k=4</text></g><g class="legend reactive activate-serie" id="activate-serie-9"><rect class="color-9 reactive" height="12" width="12" x="0.0" y="162.0" /><text x="17.0" y="171.0">i=1 k=0</text></g><g class="legend reactive activate-serie" id="activate-serie-10"><rect class="color-10 reactive" height="12" width="12" x="0.0" y="180.0" /><text x="17.0" y="189.0">i=1 k=1</text></g><g class="legend reactive activate-serie" id="activate-serie-11"><rect class="color-11 reactive" height="12" width="12" x="0.0" y="198.0" /><text x="17.0" y="207.0">i=1 k=2</text></g><g class="legend reactive activate-serie" id="activate-serie-12"><rect class="color-12 reactive" height="12" width="12" x="0.0" y="216.0" /><text x="17.0" y="225.0">i=1 k=3</text></g><g class="legend reactive activate-serie" id="activate-serie-13"><rect class="color-13 reactive" height="12" width="12" x="0.0" y="234.0" /><text x="17.0" y="243.0">i=1 k=4</text></g></g><g class="legends" transform="translate(790, 56)" /></g></svg>