<?xml version='1.0' encoding='utf-8'?>
<svg xmlns:xlink="http://www.w3.org/1999/xlink" class="pygal-chart" id="chart-fbecf1e7-df81-4573-88aa-2c0c5bc77701" viewBox="0 0 800 600" xmlns="http://www.w3.org/2000/svg"><!--Generated with pygal 2.4.0 (etree) ©Kozea 2012-2016 on 2018-01-17--><!--http://pygal.org--><!--http://github.com/Kozea/pygal--><defs><style type="text/css">#chart-fbecf1e7-df81-4573-88aa-2c0c5bc77701{-webkit-user-select:none;-webkit-font-smoothing:antialiased;font-family:Consolas,"Liberation Mono",Menlo,Courier,monospace}#chart-fbecf1e7-df81-4573-88aa-2c0c5bc77701 .title{font-family:Consolas,"Liberation Mono",Menlo,Courier,monospace;font-size:16px}#chart-fbecf1e7-df81-4573-88aa-2c0c5bc77701 .legends .legend text{font-family:Consolas,"Liberation Mono",Menlo,Courier,monospace;font-size:10px}#chart-fbecf1e7-df81-4573-88aa-2c0c5bc77701 .axis text{font-family:Consolas,"Liberation Mono",Menlo,Courier,monospace;font-size:10px}#chart-fbecf1e7-df81-4573-88aa-2c0c5bc77701 .axis text.major{font-family:Consolas,"Liberation Mono",Menlo,Courier,monospace;font-size:10px}#chart-fbecf1e7-df81-4573-88aa-2c0c5bc77701 .text-overlay text.value{font-family:Consolas,"Liberation Mono",Menlo,Courier,monospace;font-size:16px}#chart-fbecf1e7-df81-4573-88aa-2c0c5bc77701 .text-overlay text.label{font-family:Consolas,"Liberation Mono",Menlo,Courier,monospace;font-size:10px}#chart-fbecf1e7-df81-4573-88aa-2c0c5bc77701 .tooltip{font-family:Consolas,"Liberation Mono",Menlo,Courier,monospace;font-size:14px}#chart-fbecf1e7-df81-4573-88aa-2c0c5bc77701 text.no_data{font-family:Consolas,"Liberation Mono",Menlo,Courier,monospace;font-size:64px}
#chart-fbecf1e7-df81-4573-88aa-2c0c5bc77701{background-color:rgba(249,249,249,1)}#chart-fbecf1e7-df81-4573-88aa-2c0c5bc77701 path,#chart-fbecf1e7-df81-4573-88aa-2c0c5bc77701 line,#chart-fbecf1e7-df81-4573-88aa-2c0c5bc77701 rect,#chart-fbecf1e7-df81-4573-88aa-2c0c5bc77701 circle{-webkit-transition:150ms;-moz-transition:150ms;transition:150ms}#chart-fbecf1e7-df81-4573-88aa-2c0c5bc77701 .graph &gt; .background{fill:rgba(249,249,249,1)}#chart-fbecf1e7-df81-4573-88aa-2c0c5bc77701 .plot &gt; .background{fill:rgba(255,255,255,1)}#chart-fbecf1e7-df81-4573-88aa-2c0c5bc77701 .graph{fill:rgba(0,0,0,.87)}#chart-fbecf1e7-df81-4573-88aa-2c0c5bc77701 text.no_data{fill:rgba(0,0,0,1)}#chart-fbecf1e7-df81-4573-88aa-2c0c5bc77701 .title{fill:rgba(0,0,0,1)}#chart-fbecf1e7-df81-4573-88aa-2c0c5bc77701 .legends .legend text{fill:rgba(0,0,0,.87)}#chart-fbecf1e7-df81-4573-88aa-2c0c5bc77701 .legends .legend:hover text{fill:rgba(0,0,0,1)}#chart-fbecf1e7-df81-4573-88aa-2c0c5bc77701 .axis .line{stroke:rgba(0,0,0,1)}#chart-fbecf1e7-df81-4573-88aa-2c0c5bc77701 .axis .guide.line{stroke:rgba(0,0,0,.54)}#chart-fbecf1e7-df81-4573-88aa-2c0c5bc77701 .axis .major.line{stroke:rgba(0,0,0,.87)}#chart-fbecf1e7-df81-4573-88aa-2c0c5bc77701 .axis text.major{fill:rgba(0,0,0,1)}#chart-fbecf1e7-df81-4573-88aa-2c0c5bc77701 .axis.y .guides:hover .guide.line,#chart-fbecf1e7-df81-4573-88aa-2c0c5bc77701 .line-graph .axis.x .guides:hover .guide.line,#chart-fbecf1e7-df81-4573-88aa-2c0c5bc77701 .stackedline-graph .axis.x .guides:hover .guide.line,#chart-fbecf1e7-df81-4573-88aa-2c0c5bc77701 .xy-graph .axis.x .guides:hover .guide.line{stroke:rgba(0,0,0,1)}#chart-fbecf1e7-df81-4573-88aa-2c0c5bc77701 .axis .guides:hover text{fill:rgba(0,0,0,1)}#chart-fbecf1e7-df81-4573-88aa-2c0c5bc77701 .reactive{fill-opacity:.7;stroke-opacity:.8}#chart-fbecf1e7-df81-4573-88aa-2c0c5bc77701 .ci{stroke:rgba(0,0,0,.87)}#chart-fbecf1e7-df81-4573-88aa-2c0c5bc77701 .reactive.active,#chart-fbecf1e7-df81-4573-88aa-2c0c5bc77701 .active .reactive{fill-opacity:.8;stroke-opacity:.9;stroke-width:4}#chart-fbecf1e7-df81-4573-88aa-2c0c5bc77701 .ci .reactive.active{stroke-width:1.5}#chart-fbecf1e7-df81-4573-88aa-2c0c5bc77701 .series text{fill:rgba(0,0,0,1)}#chart-fbecf1e7-df81-4573-88aa-2c0c5bc77701 .tooltip rect{fill:rgba(255,255,255,1);stroke:rgba(0,0,0,1);-webkit-transition:opacity 150ms;-moz-transition:opacity 150ms;transition:opacity 150ms}#chart-fbecf1e7-df81-4573-88aa-2c0c5bc77701 .tooltip .label{fill:rgba(0,0,0,.87)}#chart-fbecf1e7-df81-4573-88aa-2c0c5bc77701 .tooltip .label{fill:rgba(0,0,0,.87)}#chart-fbecf1e7-df81-4573-88aa-2c0c5bc77701 .tooltip .legend{font-size:.8em;fill:rgba(0,0,0,.54)}#chart-fbecf1e7-df81-4573-88aa-2c0c5bc77701 .tooltip .x_label{font-size:.6em;fill:rgba(0,0,0,1)}#chart-fbecf1e7-df81-4573-88aa-2c0c5bc77701 .tooltip .xlink{font-size:.5em;text-decoration:underline}#chart-fbecf1e7-df81-4573-88aa-2c0c5bc77701 .tooltip .value{font-size:1.5em}#chart-fbecf1e7-df81-4573-88aa-2c0c5bc77701 .bound{font-size:.5em}#chart-fbecf1e7-df81-4573-88aa-2c0c5bc77701 .max-value{font-size:.75em;fill:rgba(0,0,0,.54)}#chart-fbecf1e7-df81-4573-88aa-2c0c5bc77701 .map-element{fill:rgba(255,255,255,1);stroke:rgba(0,0,0,.54) !important}#chart-fbecf1e7-df81-4573-88aa-2c0c5bc77701 .map-element .reactive{fill-opacity:inherit;stroke-opacity:inherit}#chart-fbecf1e7-df81-4573-88aa-2c0c5bc77701 .color-0,#chart-fbecf1e7-df81-4573-88aa-2c0c5bc77701 .color-0 a:visited{stroke:#909090;fill:#909090}#chart-fbecf1e7-df81-4573-88aa-2c0c5bc77701 .color-1,#chart-fbecf1e7-df81-4573-88aa-2c0c5bc77701 .color-1 a:visited{stroke:#000000;fill:#000000}#chart-fbecf1e7-df81-4573-88aa-2c0c5bc77701 .color-2,#chart-fbecf1e7-df81-4573-88aa-2c0c5bc77701 .color-2 a:visited{stroke:#ff0500;fill:#ff0500}#chart-fbecf1e7-df81-4573-88aa-2c0c5bc77701 .color-3,#chart-fbecf1e7-df81-4573-88aa-2c0c5bc77701 .color-3 a:visited{stroke:#323299;fill:#323299}#chart-fbecf1e7-df81-4573-88aa-2c0c5bc77701 .color-4,#chart-fbecf1e7-df81-4573-88aa-2c0c5bc77701 .color-4 a:visited{stroke:#a3413f;fill:#a3413f}#chart-fbecf1e7-df81-4573-88aa-2c0c5bc77701 .color-5,#chart-fbecf1e7-df81-4573-88aa-2c0c5bc77701 .color-5 a:visited{stroke:#a3413f;fill:#a3413f}#chart-fbecf1e7-df81-4573-88aa-2c0c5bc77701 .color-6,#chart-fbecf1e7-df81-4573-88aa-2c0c5bc77701 .color-6 a:visited{stroke:#a3413f;fill:#a3413f}#chart-fbecf1e7-df81-4573-88aa-2c0c5bc77701 .color-7,#chart-fbecf1e7-df81-4573-88aa-2c0c5bc77701 .color-7 a:visited{stroke:#a3413f;fill:#a3413f}#chart-fbecf1e7-df81-4573-88aa-2c0c5bc77701 .color-8,#chart-fbecf1e7-df81-4573-88aa-2c0c5bc77701 .color-8 a:visited{stroke:#a3413f;fill:#a3413f}#chart-fbecf1e7-df81-4573-88aa-2c0c5bc77701 .color-9,#chart-fbecf1e7-df81-4573-88aa-2c0c5bc77701 .color-9 a:visited{stroke:#657fff;fill:#657fff}#chart-fbecf1e7-df81-4573-88aa-2c0c5bc77701 .color-10,#chart-fbecf1e7-df81-4573-88aa-2c0c5bc77701 .color-10 a:visited{stroke:#657fff;fill:#657fff}#chart-fbecf1e7-df81-4573-88aa-2c0c5bc77701 .color-11,#chart-fbecf1e7-df81-4573-88aa-2c0c5bc77701 .color-11 a:visited{stroke:#657fff;fill:#657fff}#chart-fbecf1e7-df81-4573-88aa-2c0c5bc77701 .color-12,#chart-fbecf1e7-df81-4573-88aa-2c0c5bc77701 .color-12 a:visited{stroke:#657fff;fill:#657fff}#chart-fbecf1e7-df81-4573-88aa-2c0c5bc77701 .color-13,#chart-fbecf1e7-df81-4573-88aa-2c0c5bc77701 .color-13 a:visited{stroke:#657fff;fill:#657fff}#chart-fbecf1e7-df81-4573-88aa-2c0c5bc77701 .text-overlay .color-0 text{fill:black}#chart-fbecf1e7-df81-4573-88aa-2c0c5bc77701 .text-overlay .color-1 text{fill:white}#chart-fbecf1e7-df81-4573-88aa-2c0c5bc77701 .text-overlay .color-2 text{fill:black}#chart-fbecf1e7-df81-4573-88aa-2c0c5bc77701 .text-overlay .color-3 text{fill:black}#chart-fbecf1e7-df81-4573-88aa-2c0c5bc77701 .text-overlay .color-4 text{fill:black}#chart-fbecf1e7-df81-4573-88aa-2c0c5bc77701 .text-overlay .color-5 text{fill:black}#chart-fbecf1e7-df81-4573-88aa-2c0c5bc77701 .text-overlay .color-6 text{fill:black}#chart-fbecf1e7-df81-4573-88aa-2c0c5bc77701 .text-overlay .color-7 text{fill:black}#chart-fbecf1e7-df81-4573-88aa-2c0c5bc77701 .text-overlay .color-8 text{fill:black}#chart-fbecf1e7-df81-4573-88aa-2c0c5bc77701 .text-overlay .color-9 text{fill:black}#chart-fbecf1e7-df81-4573-88aa-2c0c5bc77701 .text-overlay .color-10 text{fill:black}#chart-fbecf1e7-df81-4573-88aa-2c0c5bc77701 .text-overlay .color-11 text{fill:black}#chart-fbecf1e7-df81-4573-88aa-2c0c5bc77701 .text-overlay .color-12 text{fill:black}#chart-fbecf1e7-df81-4573-88aa-2c0c5bc77701 .text-overlay .color-13 text{fill:black}#chart-fbecf1e7-df81-4573-88aa-2c0c5bc77701 .series.serie-1{stroke-width:5}#chart-fbecf1e7-df81-4573-88aa-2c0c5bc77701 .series.serie-2{stroke-width:3}#chart-fbecf1e7-df81-4573-88aa-2c0c5bc77701 .series.serie-3{stroke-width:3}#chart-fbecf1e7-df81-4573-88aa-2c0c5bc77701 .series.serie-4{stroke-width:2;stroke-dasharray:2,2}#chart-fbecf1e7-df81-4573-88aa-2c0c5bc77701 .series.serie-5{stroke-width:2;stroke-dasharray:2,2}#chart-fbecf1e7-df81-4573-88aa-2c0c5bc77701 .series.serie-6{stroke-width:2;stroke-dasharray:2,2}#chart-fbecf1e7-df81-4573-88aa-2c0c5bc77701 .series.serie-7{stroke-width:2;stroke-dasharray:2,2}#chart-fbecf1e7-df81-4573-88aa-2c0c5bc77701 .series.serie-8{stroke-width:2;stroke-dasharray:2,2}#chart-fbecf1e7-df81-4573-88aa-2c0c5bc77701 .series.serie-9{stroke-width:2;stroke-dasharray:2,2}#chart-fbecf1e7-df81-4573-88aa-2c0c5bc77701 .series.serie-10{stroke-width:2;stroke-dasharray:2,2}#chart-fbecf1e7-df81-4573-88aa-2c0c5bc77701 .series.serie-11{stroke-width:2;stroke-dasharray:2,2}#chart-fbecf1e7-df81-4573-88aa-2c0c5bc77701 .series.serie-12{stroke-width:2;stroke-dasharray:2,2}#chart-fbecf1e7-df81-4573-88aa-2c0c5bc77701 .series.serie-13{stroke-width:2;stroke-dasharray:2,2}
#chart-fbecf1e7-df81-4573-88aa-2c0c5bc77701 text.no_data{text-anchor:middle}#chart-fbecf1e7-df81-4573-88aa-2c0c5bc77701 .guide.line{fill:none}#chart-fbecf1e7-df81-4573-88aa-2c0c5bc77701 .centered{text-anchor:middle}#chart-fbecf1e7-df81-4573-88aa-2c0c5bc77701 .title{text-anchor:middle}#chart-fbecf1e7-df81-4573-88aa-2c0c5bc77701 .legends .legend text{fill-opacity:1}#chart-fbecf1e7-df81-4573-88aa-2c0c5bc77701 .axis.x text{text-anchor:middle}#chart-fbecf1e7-df81-4573-88aa-2c0c5bc77701 .axis.x:not(.web) text[transform]{text-anchor:start}#chart-fbecf1e7-df81-4573-88aa-2c0c5bc77701 .axis.x:not(.web) text[transform].backwards{text-anchor:end}#chart-fbecf1e7-df81-4573-88aa-2c0c5bc77701 .axis.y text{text-anchor:end}#chart-fbecf1e7-df81-4573-88aa-2c0c5bc77701 .axis.y text[transform].backwards{text-anchor:start}#chart-fbecf1e7-df81-4573-88aa-2c0c5bc77701 .axis.y2 text{text-anchor:start}#chart-fbecf1e7-df81-4573-88aa-2c0c5bc77701 .axis.y2 text[transform].backwards{text-anchor:end}#chart-fbecf1e7-df81-4573-88aa-2c0c5bc77701 .axis .guide.line{stroke-dasharray:4,4}#chart-fbecf1e7-df81-4573-88aa-2c0c5bc77701 .axis .major.guide.line{stroke-dasharray:6,6}#chart-fbecf1e7-df81-4573-88aa-2c0c5bc77701 .horizontal .axis.y .guide.line,#chart-fbecf1e7-df81-4573-88aa-2c0c5bc77701 .horizontal .axis.y2 .guide.line,#chart-fbecf1e7-df81-4573-88aa-2c0c5bc77701 .vertical .axis.x .guide.line{opacity:0}#chart-fbecf1e7-df81-4573-88aa-2c0c5bc77701 .horizontal .axis.always_show .guide.line,#chart-fbecf1e7-df81-4573-88aa-2c0c5bc77701 .vertical .axis.always_show .guide.line{opacity:1 !important}#chart-fbecf1e7-df81-4573-88aa-2c0c5bc77701 .axis.y .guides:hover .guide.line,#chart-fbecf1e7-df81-4573-88aa-2c0c5bc77701 .axis.y2 .guides:hover .guide.line,#chart-fbecf1e7-df81-4573-88aa-2c0c5bc77701 .axis.x .guides:hover .guide.line{opacity:1}#chart-fbecf1e7-df81-4573-88aa-2c0c5bc77701 .axis .guides:hover text{opacity:1}#chart-fbecf1e7-df81-4573-88aa-2c0c5bc77701 .nofill{fill:none}#chart-fbecf1e7-df81-4573-88aa-2c0c5bc77701 .subtle-fill{fill-opacity:.2}#chart-fbecf1e7-df81-4573-88aa-2c0c5bc77701 .dot{stroke-width:1px;fill-opacity:1}#chart-fbecf1e7-df81-4573-88aa-2c0c5bc77701 .dot.active{stroke-width:5px}#chart-fbecf1e7-df81-4573-88aa-2c0c5bc77701 .dot.negative{fill:transparent}#chart-fbecf1e7-df81-4573-88aa-2c0c5bc77701 text,#chart-fbecf1e7-df81-4573-88aa-2c0c5bc77701 tspan{stroke:none !important}#chart-fbecf1e7-df81-4573-88aa-2c0c5bc77701 .series text.active{opacity:1}#chart-fbecf1e7-df81-4573-88aa-2c0c5bc77701 .tooltip rect{fill-opacity:.95;stroke-width:.5}#chart-fbecf1e7-df81-4573-88aa-2c0c5bc77701 .tooltip text{fill-opacity:1}#chart-fbecf1e7-df81-4573-88aa-2c0c5bc77701 .showable{visibility:hidden}#chart-fbecf1e7-df81-4573-88aa-2c0c5bc77701 .showable.shown{visibility:visible}#chart-fbecf1e7-df81-4573-88aa-2c0c5bc77701 .gauge-background{fill:rgba(229,229,229,1);stroke:none}#chart-fbecf1e7-df81-4573-88aa-2c0c5bc77701 .bg-lines{stroke:rgba(249,249,249,1);stroke-width:2px}</style><script type="text/javascript">window.pygal = window.pygal || {};window.pygal.config = window.pygal.config || {};window.pygal.config['fbecf1e7-df81-4573-88aa-2c0c5bc77701'] = {"disable_xml_declaration": false, "css": ["file://style.css", "file://graph.css"], "show_y_labels": true, "show_y_guides": true, "stroke": true, "force_uri_protocol": "https", "legend_at_bottom": false, "truncate_legend": null, "tooltip_border_radius": 0, "explicit_size": false, "show_dots": false, "inverse_y_axis": false, "x_label_rotation": 60, "margin_left": null, "box_mode": "extremes", "zero": 0, "no_data_text": "No data", "show_legend": true, "legend_at_bottom_columns": null, "logarithmic": false, "order_min": null, "height": 600, "y_title": "Density", "range": [0, 0.27578580090479526], "stroke_style": null, "rounded_bars": null, "print_values_position": "center", "xrange": null, "y_label_rotation": 0, "defs": [], "y_labels_major_count": null, "no_prefix": false, "pretty_print": false, "dots_size": 2.5, "half_pie": false, "secondary_range": null, "x_labels_major_count": null, "interpolation_precision": 250, "interpolate": null, "truncate_label": null, "margin_right": null, "x_labels_major_every": 2, "x_labels": ["-8.96", "-8.76", "-8.56", "-8.36", "-8.16", "-7.96", "-7.76", "-7.56", "-7.36", "-7.16", "-6.96", "-6.76", "-6.56", "-6.36", "-6.16", "-5.96", "-5.76", "-5.56", "-5.36", "-5.16", "-4.96", "-4.76", "-4.56", "-4.36", "-4.16", "-3.96", "-3.76", "-3.56", "-3.36", "-3.16", "-2.96", "-2.76", "-2.56", "-2.36", "-2.16", "-1.96", "-1.76", "-1.56", "-1.36", "-1.16", "-0.96", "-0.76", "-0.56", "-0.36", "-0.16", "0.04", "0.24", "0.44", "0.64", "0.84", "1.04", "1.24", "1.43", "1.63", "1.83", "2.03", "2.23", "2.43", "2.63", "2.83"], "include_x_axis": false, "width": 800, "show_x_guides": false, "formatter": null, "show_minor_x_labels": false, "spacing": 10, "stack_from_top": false, "legend_box_size": 12, "strict": false, "classes": ["pygal-chart"], "js": ["//kozea.github.io/pygal.js/2.0.x/pygal-tooltips.min.js"], "show_x_labels": true, "x_title": "Observation", "print_values": false, "title": "Iteration #10", "dynamic_print_values": false, "max_scale": 16, "margin": 20, "legends": ["Data", "GMM", "i=0", "i=1", "i=0 k=0", "i=0 k=1", "i=0 k=2", "i=0 k=3", "i=0 k=4", "i=1 k=0", "i=1 k=1", "i=1 k=2", "i=1 k=3", "i=1 k=4"], "interpolation_parameters": {}, "allow_interruptions": false, "min_scale": 4, "style": {"transition": "150ms", "label_font_size": 10, "major_label_font_size": 10, "value_colors": [], "title_font_family": "Consolas, \"Liberation Mono\", Menlo, Courier, monospace", "value_font_family": "Consolas, \"Liberation Mono\", Menlo, Courier, monospace", "no_data_font_size": 64, "guide_stroke_dasharray": "4,4", "tooltip_font_size": 14, "tooltip_font_family": "Consolas, \"Liberation Mono\", Menlo, Courier, monospace", "background": "rgba(249, 249, 249, 1)", "value_label_font_family": "Consolas, \"Liberation Mono\", Menlo, Courier, monospace", "stroke_opacity_hover": ".9", "ci_colors": [], "value_font_size": 16, "plot_background": "rgba(255, 255, 255, 1)", "label_font_family": "Consolas, \"Liberation Mono\", Menlo, Courier, monospace", "foreground": "rgba(0, 0, 0, .87)", "major_label_font_family": "Consolas, \"Liberation Mono\", Menlo, Courier, monospace", "stroke_opacity": ".8", "colors": ["#909090", "#000000", "#ff0500", "#323299", "#a3413f", "#a3413f", "#a3413f", "#a3413f", "#a3413f", "#657fff", "#657fff", "#657fff", "#657fff", "#657fff"], "value_label_font_size": 10, "value_background": "rgba(229, 229, 229, 1)", "no_data_font_family": "Consolas, \"Liberation Mono\", Menlo, Courier, monospace", "legend_font_size": 10, "foreground_strong": "rgba(0, 0, 0, 1)", "legend_font_family": "Consolas, \"Liberation Mono\", Menlo, Courier, monospace", "title_font_size": 16, "foreground_subtle": "rgba(0, 0, 0, .54)", "major_guide_stroke_dasharray": "6,6", "font_family": "Consolas, \"Liberation Mono\", Menlo, Courier, monospace", "opacity_hover": ".8", "opacity": ".7"}, "margin_top": null, "x_labels_major": null, "print_zeroes": true, "y_labels": null, "fill": false, "y_labels_major_every": null, "inner_radius": 0, "margin_bottom": null, "show_only_major_dots": false, "missing_value_fill_truncation": "x", "y_labels_major": null, "tooltip_fancy_mode": true, "show_minor_y_labels": true, "print_labels": false}</script><script type="text/javascript" xlink:href="https://kozea.github.io/pygal.js/2.0.x/pygal-tooltips.min.js" /></defs><title>Iteration #10</title><g class="graph line-graph vertical"><rect class="background" height="600" width="800" x="0" y="0" /><g class="plot" transform="translate(144, 46)"><rect class="background" height="472.01923788646684" width="636.0" x="0" y="0" /><g class="axis y always_show"><g class="guides"><path class="axis major line" d="M0.000000 462.941945 h636.000000" /><text class="major" x="-5" y="466.44194485">0</text><title>0</title></g><g class="guides"><path class="guide line" d="M0.000000 430.027658 h636.000000" /><text class="" x="-5" y="433.527657724">0.02</text><title>0.02</title></g><g class="guides"><path class="guide line" d="M0.000000 397.113371 h636.000000" /><text class="" x="-5" y="400.613370598">0.04</text><title>0.04</title></g><g class="guides"><path class="guide line" d="M0.000000 364.199083 h636.000000" /><text class="" x="-5" y="367.699083472">0.06</text><title>0.06</title></g><g class="guides"><path class="guide line" d="M0.000000 331.284796 h636.000000" /><text class="" x="-5" y="334.784796346">0.08</text><title>0.08</title></g><g class="guides"><path class="guide line" d="M0.000000 298.370509 h636.000000" /><text class="" x="-5" y="301.87050922">0.1</text><title>0.1</title></g><g class="guides"><path class="guide line" d="M0.000000 265.456222 h636.000000" /><text class="" x="-5" y="268.956222094">0.12</text><title>0.12</title></g><g class="guides"><path class="guide line" d="M0.000000 232.541935 h636.000000" /><text class="" x="-5" y="236.041934968">0.14</text><title>0.14</title></g><g class="guides"><path class="guide line" d="M0.000000 199.627648 h636.000000" /><text class="" x="-5" y="203.127647841">0.16</text><title>0.16</title></g><g class="guides"><path class="guide line" d="M0.000000 166.713361 h636.000000" /><text class="" x="-5" y="170.213360715">0.18</text><title>0.18</title></g><g class="guides"><path class="guide line" d="M0.000000 133.799074 h636.000000" /><text class="" x="-5" y="137.299073589">0.2</text><title>0.2</title></g><g class="guides"><path class="guide line" d="M0.000000 100.884786 h636.000000" /><text class="" x="-5" y="104.384786463">0.22</text><title>0.22</title></g><g class="guides"><path class="guide line" d="M0.000000 67.970499 h636.000000" /><text class="" x="-5" y="71.4704993371">0.24</text><title>0.24</title></g><g class="guides"><path class="guide line" d="M0.000000 35.056212 h636.000000" /><text class="" x="-5" y="38.5562122111">0.26</text><title>0.26</title></g></g><g class="axis x"><g class="guides"><path class="major line" d="M12.230769 0.000000 v472.019238" /><text class="major" transform="rotate(60 12.230769 487.019238)" x="12.230769230769232" y="487.01923788646684">-8.96</text></g><g class="guides"><path class="major guide line" d="M32.960887 0.000000 v472.019238" /><text class="major" transform="rotate(60 32.960887 487.019238)" x="32.96088657105606" y="487.01923788646684">-8.56</text></g><g class="guides"><path class="major guide line" d="M53.691004 0.000000 v472.019238" /><text class="major" transform="rotate(60 53.691004 487.019238)" x="53.6910039113429" y="487.01923788646684">-8.16</text></g><g class="guides"><path class="major guide line" d="M74.421121 0.000000 v472.019238" /><text class="major" transform="rotate(60 74.421121 487.019238)" x="74.42112125162973" y="487.01923788646684">-7.76</text></g><g class="guides"><path class="major guide line" d="M95.151239 0.000000 v472.019238" /><text class="major" transform="rotate(60 95.151239 487.019238)" x="95.15123859191655" y="487.01923788646684">-7.36</text></g><g class="guides"><path class="major guide line" d="M115.881356 0.000000 v472.019238" /><text class="major" transform="rotate(60 115.881356 487.019238)" x="115.88135593220338" y="487.01923788646684">-6.96</text></g><g class="guides"><path class="major guide line" d="M136.611473 0.000000 v472.019238" /><text class="major" transform="rotate(60 136.611473 487.019238)" x="136.61147327249023" y="487.01923788646684">-6.56</text></g><g class="guides"><path class="major guide line" d="M157.341591 0.000000 v472.019238" /><text class="major" transform="rotate(60 157.341591 487.019238)" x="157.34159061277705" y="487.01923788646684">-6.16</text></g><g class="guides"><path class="major guide line" d="M178.071708 0.000000 v472.019238" /><text class="major" transform="rotate(60 178.071708 487.019238)" x="178.0717079530639" y="487.01923788646684">-5.76</text></g><g class="guides"><path class="major guide line" d="M198.801825 0.000000 v472.019238" /><text class="major" transform="rotate(60 198.801825 487.019238)" x="198.80182529335073" y="487.01923788646684">-5.36</text></g><g class="guides"><path class="major guide line" d="M219.531943 0.000000 v472.019238" /><text class="major" transform="rotate(60 219.531943 487.019238)" x="219.53194263363756" y="487.01923788646684">-4.96</text></g><g class="guides"><path class="major guide line" d="M240.262060 0.000000 v472.019238" /><text class="major" transform="rotate(60 240.262060 487.019238)" x="240.2620599739244" y="487.01923788646684">-4.56</text></g><g class="guides"><path class="major guide line" d="M260.992177 0.000000 v472.019238" /><text class="major" transform="rotate(60 260.992177 487.019238)" x="260.99217731421123" y="487.01923788646684">-4.16</text></g><g class="guides"><path class="major guide line" d="M281.722295 0.000000 v472.019238" /><text class="major" transform="rotate(60 281.722295 487.019238)" x="281.722294654498" y="487.01923788646684">-3.76</text></g><g class="guides"><path class="major guide line" d="M302.452412 0.000000 v472.019238" /><text class="major" transform="rotate(60 302.452412 487.019238)" x="302.4524119947849" y="487.01923788646684">-3.36</text></g><g class="guides"><path class="major guide line" d="M323.182529 0.000000 v472.019238" /><text class="major" transform="rotate(60 323.182529 487.019238)" x="323.1825293350717" y="487.01923788646684">-2.96</text></g><g class="guides"><path class="major guide line" d="M343.912647 0.000000 v472.019238" /><text class="major" transform="rotate(60 343.912647 487.019238)" x="343.91264667535853" y="487.01923788646684">-2.56</text></g><g class="guides"><path class="major guide line" d="M364.642764 0.000000 v472.019238" /><text class="major" transform="rotate(60 364.642764 487.019238)" x="364.64276401564535" y="487.01923788646684">-2.16</text></g><g class="guides"><path class="major guide line" d="M385.372881 0.000000 v472.019238" /><text class="major" transform="rotate(60 385.372881 487.019238)" x="385.37288135593224" y="487.01923788646684">-1.76</text></g><g class="guides"><path class="major guide line" d="M406.102999 0.000000 v472.019238" /><text class="major" transform="rotate(60 406.102999 487.019238)" x="406.102998696219" y="487.01923788646684">-1.36</text></g><g class="guides"><path class="major guide line" d="M426.833116 0.000000 v472.019238" /><text class="major" transform="rotate(60 426.833116 487.019238)" x="426.8331160365058" y="487.01923788646684">-0.96</text></g><g class="guides"><path class="major guide line" d="M447.563233 0.000000 v472.019238" /><text class="major" transform="rotate(60 447.563233 487.019238)" x="447.56323337679265" y="487.01923788646684">-0.56</text></g><g class="guides"><path class="major guide line" d="M468.293351 0.000000 v472.019238" /><text class="major" transform="rotate(60 468.293351 487.019238)" x="468.29335071707953" y="487.01923788646684">-0.16</text></g><g class="guides"><path class="major guide line" d="M489.023468 0.000000 v472.019238" /><text class="major" transform="rotate(60 489.023468 487.019238)" x="489.02346805736636" y="487.01923788646684">0.24</text></g><g class="guides"><path class="major guide line" d="M509.753585 0.000000 v472.019238" /><text class="major" transform="rotate(60 509.753585 487.019238)" x="509.75358539765324" y="487.01923788646684">0.64</text></g><g class="guides"><path class="major guide line" d="M530.483703 0.000000 v472.019238" /><text class="major" transform="rotate(60 530.483703 487.019238)" x="530.48370273794" y="487.01923788646684">1.04</text></g><g class="guides"><path class="major guide line" d="M551.213820 0.000000 v472.019238" /><text class="major" transform="rotate(60 551.213820 487.019238)" x="551.213820078227" y="487.01923788646684">1.43</text></g><g class="guides"><path class="major guide line" d="M571.943937 0.000000 v472.019238" /><text class="major" transform="rotate(60 571.943937 487.019238)" x="571.9439374185138" y="487.01923788646684">1.83</text></g><g class="guides"><path class="major guide line" d="M592.674055 0.000000 v472.019238" /><text class="major" transform="rotate(60 592.674055 487.019238)" x="592.6740547588006" y="487.01923788646684">2.23</text></g><g class="guides"><path class="major guide line" d="M613.404172 0.000000 v472.019238" /><text class="major" transform="rotate(60 613.404172 487.019238)" x="613.4041720990874" y="487.01923788646684">2.63</text></g></g><g class="series serie-0 color-0"><path class="line reactive" d="M12.230769 462.941945 L12.230769 462.019456 22.595828 462.941945 32.960887 461.096967 43.325945 462.019456 53.691004 459.251988 64.056063 462.019456 74.421121 458.329499 84.786180 462.019456 95.151239 458.329499 105.516297 462.019456 115.881356 448.182119 126.246415 460.174477 136.611473 457.407010 146.976532 457.407010 157.341591 451.872075 167.706649 448.182119 178.071708 454.639543 188.436767 445.414651 198.801825 442.647184 209.166884 436.189760 219.531943 437.112249 229.897001 392.832771 240.262060 396.522728 250.627119 376.227967 260.992177 355.933206 271.357236 351.320760 281.722295 325.491065 292.087353 277.521630 302.452412 283.056565 312.817471 202.800010 323.182529 188.040184 333.547588 169.590402 343.912647 123.465945 354.277705 95.791271 364.642764 67.194108 375.007823 82.876423 385.372881 60.736684 395.737940 80.108956 406.102999 29.372054 416.468057 9.077293 426.833116 70.884065 437.198175 69.039086 447.563233 41.364413 457.928292 40.441923 468.293351 91.178826 478.658409 140.993239 489.023468 214.792369 499.388527 259.071847 509.753585 321.801108 520.118644 364.235608 530.483703 408.515086 540.848761 430.654825 551.213820 448.182119 561.578879 455.562032 571.943937 458.329499 582.308996 458.329499 592.674055 462.019456 603.039113 462.941945 613.404172 462.019456 623.769231 462.941945" /></g><g class="series serie-1 color-1"><path class="line reactive nofill" d="M12.230769 462.913767 L22.595828 462.892737 32.960887 462.857702 43.325945 462.800558 53.691004 462.709315 64.056063 462.566712 74.421121 462.348590 84.786180 462.022114 95.151239 461.544032 105.516297 460.859224 115.881356 459.899931 126.246415 458.586116 136.611473 456.827441 146.976532 454.527302 157.341591 451.589137 167.706649 447.924850 178.071708 443.464386 188.436767 438.164300 198.801825 432.011296 209.166884 425.014452 219.531943 417.178100 229.897001 408.448369 240.262060 398.633455 250.627119 387.313577 260.992177 373.779284 271.357236 357.056655 281.722295 336.077402 292.087353 310.014205 302.452412 278.723740 312.817471 243.144034 323.182529 205.429061 333.547588 168.637498 343.912647 135.963985 354.277705 109.757924 364.642764 90.768337 375.007823 78.058819 385.372881 69.798670 395.737940 64.532448 406.102999 61.731651 416.468057 60.687279 426.833116 59.063460 437.198175 54.156613 447.563233 47.176129 457.928292 45.914656 468.293351 61.379948 478.658409 100.329795 489.023468 160.232395 499.388527 230.602671 509.753585 298.798950 520.118644 355.566460 530.483703 397.270750 540.848761 424.913716 551.213820 441.790466 561.578879 451.478964 571.943937 456.815363 582.308996 459.686387 592.674055 461.215589 603.039113 462.028294 613.404172 462.460395 623.769231 462.689993" /></g><g class="series serie-2 color-2"><path class="line reactive nofill" d="M12.230769 462.941945 L22.595828 462.941945 32.960887 462.941945 43.325945 462.941945 53.691004 462.941945 64.056063 462.941945 74.421121 462.941945 84.786180 462.941945 95.151239 462.941945 105.516297 462.941945 115.881356 462.941945 126.246415 462.941945 136.611473 462.941945 146.976532 462.941945 157.341591 462.941945 167.706649 462.941945 178.071708 462.941945 188.436767 462.941944 198.801825 462.941942 209.166884 462.941937 219.531943 462.941923 229.897001 462.941887 240.262060 462.941793 250.627119 462.941557 260.992177 462.940977 271.357236 462.939577 281.722295 462.936270 292.087353 462.928573 302.452412 462.910883 312.817471 462.870522 323.182529 462.778661 333.547588 462.569311 343.912647 462.091800 354.277705 461.009784 364.642764 458.609591 375.007823 453.497651 385.372881 443.256602 395.737940 424.322303 406.102999 392.557316 416.468057 344.959832 426.833116 282.339709 437.198175 211.689549 447.563233 146.212472 457.928292 101.686824 468.293351 90.206203 478.658409 114.684520 489.023468 167.590340 499.388527 234.687890 509.753585 301.262259 520.118644 357.127121 530.483703 398.275200 540.848761 425.557380 551.213820 442.197345 561.578879 451.731710 571.943937 456.969416 582.308996 459.778470 592.674055 461.269554 603.039113 462.059300 613.404172 462.477859 623.769231 462.699637" /></g><g class="series serie-3 color-3"><path class="line reactive nofill" d="M12.230769 462.913767 L22.595828 462.892737 32.960887 462.857702 43.325945 462.800558 53.691004 462.709315 64.056063 462.566712 74.421121 462.348590 84.786180 462.022114 95.151239 461.544032 105.516297 460.859224 115.881356 459.899931 126.246415 458.586116 136.611473 456.827441 146.976532 454.527302 157.341591 451.589137 167.706649 447.924850 178.071708 443.464386 188.436767 438.164301 198.801825 432.011299 209.166884 425.014459 219.531943 417.178122 229.897001 408.448427 240.262060 398.633607 250.627119 387.313964 260.992177 373.780252 271.357236 357.059022 281.722295 336.083077 292.087353 310.027576 302.452412 278.754803 312.817471 243.215457 323.182529 205.592344 333.547588 169.010132 343.912647 136.814129 354.277705 111.690085 364.642764 95.100691 375.007823 87.503113 385.372881 89.484012 395.737940 103.152090 406.102999 132.116280 416.468057 178.669391 426.833116 239.665696 437.198175 305.409009 447.563233 363.905602 457.928292 407.169778 468.293351 434.115690 478.658409 448.587220 489.023468 455.583999 499.388527 458.856725 509.753585 460.478636 520.118644 461.381284 530.483703 461.937495 540.848761 462.298281 551.213820 462.535067 561.578879 462.689199 571.943937 462.787891 582.308996 462.849862 592.674055 462.887980 603.039113 462.910939 613.404172 462.924480 623.769231 462.932301" /></g><g class="series serie-4 color-4"><path class="line reactive nofill" d="M12.230769 462.941945 L22.595828 462.941945 32.960887 462.941945 43.325945 462.941945 53.691004 462.941945 64.056063 462.941945 74.421121 462.941945 84.786180 462.941945 95.151239 462.941945 105.516297 462.941945 115.881356 462.941945 126.246415 462.941945 136.611473 462.941945 146.976532 462.941945 157.341591 462.941945 167.706649 462.941945 178.071708 462.941945 188.436767 462.941945 198.801825 462.941945 209.166884 462.941945 219.531943 462.941945 229.897001 462.941945 240.262060 462.941945 250.627119 462.941945 260.992177 462.941945 271.357236 462.941944 281.722295 462.941940 292.087353 462.941913 302.452412 462.941743 312.817471 462.940808 323.182529 462.936227 333.547588 462.916287 343.912647 462.839221 354.277705 462.575013 364.642764 461.772564 375.007823 459.617016 385.372881 454.507339 395.737940 443.852061 406.102999 424.394305 416.468057 393.495772 426.833116 351.318641 437.198175 302.869177 447.563233 258.139063 457.928292 229.160144 468.293351 224.851831 478.658409 246.606315 489.023468 287.565699 499.388527 336.098067 509.753585 381.090890 520.118644 415.818712 530.483703 438.737122 540.848761 451.849564 551.213820 458.406670 561.578879 461.287552 571.943937 462.403515 582.308996 462.785603 592.674055 462.901443 603.039113 462.932584 613.404172 462.940014 623.769231 462.941590" /></g><g class="series serie-5 color-5"><path class="line reactive nofill" d="M12.230769 462.941945 L22.595828 462.941945 32.960887 462.941945 43.325945 462.941945 53.691004 462.941945 64.056063 462.941945 74.421121 462.941945 84.786180 462.941945 95.151239 462.941945 105.516297 462.941945 115.881356 462.941945 126.246415 462.941945 136.611473 462.941945 146.976532 462.941945 157.341591 462.941945 167.706649 462.941945 178.071708 462.941945 188.436767 462.941945 198.801825 462.941945 209.166884 462.941945 219.531943 462.941945 229.897001 462.941945 240.262060 462.941945 250.627119 462.941944 260.992177 462.941940 271.357236 462.941922 281.722295 462.941836 292.087353 462.941473 302.452412 462.940060 312.817471 462.935014 323.182529 462.918498 333.547588 462.868958 343.912647 462.732905 354.277705 462.391078 364.642764 461.606288 375.007823 459.962232 385.372881 456.825692 395.737940 451.390727 406.102999 442.869447 416.468057 430.849231 426.833116 415.730988 437.198175 399.040526 447.563233 383.360916 457.928292 371.753472 468.293351 366.802484 478.658409 369.682084 489.023468 379.704413 499.388527 394.586209 509.753585 411.292925 520.118644 427.034827 530.483703 439.973565 540.848761 449.423974 551.213820 455.621727 561.578879 459.294675 571.943937 461.269919 582.308996 462.236684 592.674055 462.668237 603.039113 462.844208 613.404172 462.909834 623.769231 462.932238" /></g><g class="series serie-6 color-6"><path class="line reactive nofill" d="M12.230769 462.941945 L22.595828 462.941945 32.960887 462.941945 43.325945 462.941945 53.691004 462.941945 64.056063 462.941945 74.421121 462.941945 84.786180 462.941945 95.151239 462.941945 105.516297 462.941945 115.881356 462.941945 126.246415 462.941945 136.611473 462.941945 146.976532 462.941945 157.341591 462.941945 167.706649 462.941945 178.071708 462.941945 188.436767 462.941945 198.801825 462.941945 209.166884 462.941945 219.531943 462.941944 229.897001 462.941942 240.262060 462.941935 250.627119 462.941910 260.992177 462.941825 271.357236 462.941552 281.722295 462.940733 292.087353 462.938424 302.452412 462.932306 312.817471 462.917076 323.182529 462.881485 333.547588 462.803435 343.912647 462.642931 354.277705 462.333672 364.642764 461.775932 375.007823 460.835717 385.372881 459.356814 395.737940 457.191491 406.102999 454.250406 416.468057 450.562856 426.833116 446.327794 437.198175 441.930058 447.563233 437.901075 457.928292 434.820916 468.293351 433.183484 478.658409 433.267187 489.023468 435.057543 499.388527 438.251271 509.753585 442.340295 520.118644 446.743679 530.483703 450.940529 540.848761 454.562912 551.213820 457.429392 561.578879 459.524441 571.943937 460.945475 582.308996 461.842903 592.674055 462.371830 603.039113 462.663263 613.404172 462.813578 623.769231 462.886227" /></g><g class="series serie-7 color-7"><path class="line reactive nofill" d="M12.230769 462.941945 L22.595828 462.941945 32.960887 462.941945 43.325945 462.941945 53.691004 462.941945 64.056063 462.941945 74.421121 462.941945 84.786180 462.941945 95.151239 462.941945 105.516297 462.941945 115.881356 462.941945 126.246415 462.941945 136.611473 462.941945 146.976532 462.941945 157.341591 462.941945 167.706649 462.941945 178.071708 462.941945 188.436767 462.941945 198.801825 462.941944 209.166884 462.941942 219.531943 462.941936 229.897001 462.941919 240.262060 462.941872 250.627119 462.941751 260.992177 462.941451 271.357236 462.940739 281.722295 462.939127 292.087353 462.935638 302.452412 462.928430 312.817471 462.914214 323.182529 462.887464 333.547588 462.839462 343.912647 462.757367 354.277705 462.623645 364.642764 462.416388 375.007823 462.111082 385.372881 461.684279 395.737940 461.119193 406.102999 460.412552 416.468057 459.581231 426.833116 458.666580 437.198175 457.734302 447.563233 456.868492 457.928292 456.159964 468.293351 455.690845 478.658409 455.518977 489.023468 455.666195 499.388527 456.113775 509.753585 456.806342 520.118644 457.663127 530.483703 458.593415 540.848761 459.512098 551.213820 460.351745 561.578879 461.069028 571.943937 461.645274 582.308996 462.082401 592.674055 462.396398 603.039113 462.610415 613.404172 462.749041 623.769231 462.834476" /></g><g class="series serie-8 color-8"><path class="line reactive nofill" d="M12.230769 462.941945 L22.595828 462.941945 32.960887 462.941945 43.325945 462.941945 53.691004 462.941945 64.056063 462.941945 74.421121 462.941945 84.786180 462.941945 95.151239 462.941945 105.516297 462.941945 115.881356 462.941945 126.246415 462.941945 136.611473 462.941945 146.976532 462.941945 157.341591 462.941945 167.706649 462.941945 178.071708 462.941945 188.436767 462.941944 198.801825 462.941943 209.166884 462.941940 219.531943 462.941933 229.897001 462.941916 240.262060 462.941876 250.627119 462.941786 260.992177 462.941595 271.357236 462.941199 281.722295 462.940412 292.087353 462.938904 302.452412 462.936123 312.817471 462.931189 323.182529 462.922767 333.547588 462.908948 343.912647 462.887156 354.277705 462.854155 364.642764 462.806197 375.007823 462.739384 385.372881 462.650258 395.737940 462.536610 406.102999 462.398385 416.468057 462.238522 426.833116 462.063484 437.198175 461.883266 447.563233 461.710706 457.928292 461.560108 468.293351 461.445338 478.658409 461.377737 489.023468 461.364269 499.388527 461.406348 509.753585 461.499587 520.118644 461.634556 530.483703 461.798347 540.848761 461.976611 551.213820 462.155590 561.578879 462.323793 571.943937 462.473014 582.308996 462.598657 592.674055 462.699427 603.039113 462.776609 613.404172 462.833171 623.769231 462.872886" /></g><g class="series serie-9 color-9"><path class="line reactive nofill" d="M12.230769 462.941945 L22.595828 462.941945 32.960887 462.941945 43.325945 462.941945 53.691004 462.941945 64.056063 462.941945 74.421121 462.941945 84.786180 462.941945 95.151239 462.941945 105.516297 462.941945 115.881356 462.941945 126.246415 462.941945 136.611473 462.941945 146.976532 462.941945 157.341591 462.941945 167.706649 462.941945 178.071708 462.941945 188.436767 462.941945 198.801825 462.941945 209.166884 462.941945 219.531943 462.941945 229.897001 462.941945 240.262060 462.941945 250.627119 462.941945 260.992177 462.941945 271.357236 462.941945 281.722295 462.941942 292.087353 462.941909 302.452412 462.941595 312.817471 462.939160 323.182529 462.923656 333.547588 462.842884 343.912647 462.499447 354.277705 461.311849 364.642764 457.989617 375.007823 450.534003 385.372881 437.303938 395.737940 419.253867 406.102999 401.546551 416.468057 391.787372 426.833116 394.933316 437.198175 409.335205 447.563233 428.094660 457.928292 444.260405 468.293351 454.682505 478.658409 459.930446 489.023468 462.036402 499.388527 462.717386 509.753585 462.896020 520.118644 462.934199 530.483703 462.940868 540.848761 462.941821 551.213820 462.941933 561.578879 462.941944 571.943937 462.941945 582.308996 462.941945 592.674055 462.941945 603.039113 462.941945 613.404172 462.941945 623.769231 462.941945" /></g><g class="series serie-10 color-10"><path class="line reactive nofill" d="M12.230769 462.941945 L22.595828 462.941945 32.960887 462.941945 43.325945 462.941945 53.691004 462.941945 64.056063 462.941945 74.421121 462.941945 84.786180 462.941945 95.151239 462.941945 105.516297 462.941945 115.881356 462.941945 126.246415 462.941945 136.611473 462.941945 146.976532 462.941945 157.341591 462.941945 167.706649 462.941945 178.071708 462.941945 188.436767 462.941945 198.801825 462.941945 209.166884 462.941945 219.531943 462.941945 229.897001 462.941944 240.262060 462.941938 250.627119 462.941894 260.992177 462.941600 271.357236 462.939916 281.722295 462.931519 292.087353 462.895126 302.452412 462.758214 312.817471 462.311894 323.182529 461.053946 333.547588 457.998152 343.912647 451.629635 354.277705 440.322875 364.642764 423.420698 375.007823 402.600044 385.372881 382.433810 395.737940 369.079255 406.102999 367.315355 416.468057 377.809171 426.833116 396.713075 437.198175 417.919368 447.563233 436.196748 457.928292 449.058614 468.293351 456.644360 478.658409 460.445702 489.023468 462.077311 499.388527 462.680241 509.753585 462.872727 520.118644 462.925947 530.483703 462.938714 540.848761 462.941375 551.213820 462.941857 561.578879 462.941933 571.943937 462.941943 582.308996 462.941945 592.674055 462.941945 603.039113 462.941945 613.404172 462.941945 623.769231 462.941945" /></g><g class="series serie-11 color-11"><path class="line reactive nofill" d="M12.230769 462.941945 L22.595828 462.941945 32.960887 462.941945 43.325945 462.941945 53.691004 462.941945 64.056063 462.941945 74.421121 462.941945 84.786180 462.941945 95.151239 462.941945 105.516297 462.941945 115.881356 462.941945 126.246415 462.941945 136.611473 462.941945 146.976532 462.941945 157.341591 462.941944 167.706649 462.941942 178.071708 462.941932 188.436767 462.941878 198.801825 462.941636 209.166884 462.940632 219.531943 462.936822 229.897001 462.923618 240.262060 462.881822 250.627119 462.761089 260.992177 462.443081 271.357236 461.680168 281.722295 460.015534 292.087353 456.718361 302.452412 450.805315 312.817471 441.239533 323.182529 427.356676 333.547588 409.438118 343.912647 389.176703 354.277705 369.687178 364.642764 354.837725 375.007823 348.029625 385.372881 350.935535 395.737940 362.833319 406.102999 380.896880 416.468057 401.284465 426.833116 420.453444 437.198175 436.094102 447.563233 447.385881 457.928292 454.676954 468.293351 458.915355 478.658409 461.143137 489.023468 462.205086 499.388527 462.665164 509.753585 462.846612 520.118644 462.911836 530.483703 462.933225 540.848761 462.939629 551.213820 462.941381 561.578879 462.941819 571.943937 462.941919 582.308996 462.941940 592.674055 462.941944 603.039113 462.941945 613.404172 462.941945 623.769231 462.941945" /></g><g class="series serie-12 color-12"><path class="line reactive nofill" d="M12.230769 462.941945 L22.595828 462.941945 32.960887 462.941945 43.325945 462.941945 53.691004 462.941945 64.056063 462.941945 74.421121 462.941945 84.786180 462.941945 95.151239 462.941945 105.516297 462.941944 115.881356 462.941942 126.246415 462.941932 136.611473 462.941888 146.976532 462.941712 157.341591 462.941051 167.706649 462.938746 178.071708 462.931284 188.436767 462.908856 198.801825 462.846282 209.166884 462.684342 219.531943 462.295837 229.897001 461.432526 240.262060 459.657491 250.627119 456.285138 260.992177 450.375341 271.357236 440.845671 281.722295 426.753546 292.087353 407.738157 302.452412 384.505558 312.817471 359.137616 323.182529 334.985389 333.547588 316.029424 343.912647 305.831786 354.277705 306.447504 364.642764 317.749924 375.007823 337.473136 385.372881 361.952034 395.737940 387.229130 406.102999 410.071862 416.468057 428.554511 426.833116 442.109572 437.198175 451.186829 447.563233 456.763712 457.928292 459.917464 468.293351 461.562874 478.658409 462.356250 489.023468 462.710256 499.388527 462.856578 509.753585 462.912648 520.118644 462.932580 530.483703 462.939157 540.848761 462.941172 551.213820 462.941745 561.578879 462.941897 571.943937 462.941934 582.308996 462.941943 592.674055 462.941944 603.039113 462.941945 613.404172 462.941945 623.769231 462.941945" /></g><g class="series serie-13 color-13"><path class="line reactive nofill" d="M12.230769 462.913767 L22.595828 462.892737 32.960887 462.857702 43.325945 462.800558 53.691004 462.709315 64.056063 462.566712 74.421121 462.348590 84.786180 462.022114 95.151239 461.544032 105.516297 460.859224 115.881356 459.899934 126.246415 458.586128 136.611473 456.827498 146.976532 454.527534 157.341591 451.590031 167.706649 447.928051 178.071708 443.475060 188.436767 438.197457 198.801825 432.107271 209.166884 425.273375 219.531943 417.829353 229.897001 409.976173 240.262060 401.978190 250.627119 394.151679 260.992177 386.846064 271.357236 380.419101 281.722295 375.208315 292.087353 371.501803 302.452412 369.511899 312.817471 369.355034 323.182529 371.040458 333.547588 374.469334 343.912647 379.444338 354.277705 385.688458 364.642764 392.870507 375.007823 400.634083 385.372881 408.626475 395.737940 416.524298 406.102999 424.053411 416.468057 431.001652 426.833116 437.224068 437.198175 442.641283 447.563233 447.232380 457.928292 451.024120 468.293351 454.078374 478.658409 456.479463 489.023468 458.322723 499.388527 459.705135 509.753585 460.718408 520.118644 461.444501 530.483703 461.953311 540.848761 462.302064 551.213820 462.535930 561.578879 462.689385 571.943937 462.787929 582.308996 462.849869 592.674055 462.887981 603.039113 462.910939 613.404172 462.924480 623.769231 462.932301" /></g></g><g class="titles"><text class="title plot_title" x="400.0" y="26">Iteration #10</text><text class="title" x="462.0" y="580.0">Observation</text><text class="title" transform="rotate(-90 64.000000 282.009619)" x="64.0" y="308.0096189432334">Density</text></g><g class="plot overlay" transform="translate(144, 46)"><g class="series serie-0 color-0" /><g class="series serie-1 color-1" /><g class="series serie-2 color-2" /><g class="series serie-3 color-3" /><g class="series serie-4 color-4" /><g class="series serie-5 color-5" /><g class="series serie-6 color-6" /><g class="series serie-7 color-7" /><g class="series serie-8 color-8" /><g class="series serie-9 color-9" /><g class="series serie-10 color-10" /><g class="series serie-11 color-11" /><g class="series serie-12 color-12" /><g class="series serie-13 color-13" /></g><g class="plot text-overlay" transform="translate(144, 46)"><g class="series serie-0 color-0" /><g class="series serie-1 color-1" /><g class="series serie-2 color-2" /><g class="series serie-3 color-3" /><g class="series serie-4 color-4" /><g class="series serie-5 color-5" /><g class="series serie-6 color-6" /><g class="series serie-7 color-7" /><g class="series serie-8 color-8" /><g class="series serie-9 color-9" /><g class="series serie-10 color-10" /><g class="series serie-11 color-11" /><g class="series serie-12 color-12" /><g class="series serie-13 color-13" /></g><g class="plot tooltip-overlay" transform="translate(144, 46)"><g class="tooltip" style="opacity: 0" transform="translate(0 0)"><rect class="tooltip-box" height="0" rx="0" ry="0" width="0" /><g class="text" /></g></g><g class="legends" transform="translate(10, 56)"><g class="legend reactive activate-serie" id="activate-serie-0"><rect class="color-0 reactive" height="12" width="12" x="0.0" y="0.0" /><text x="17.0" y="9.0">Data</text></g><g class="legend reactive activate-serie" id="activate-serie-1"><rect class="color-1 reactive" height="12" width="12" x="0.0" y="18.0" /><text x="17.0" y="27.0">GMM</text></g><g class="legend reactive activate-serie" id="activate-serie-2"><rect class="color-2 reactive" height="12" width="12" x="0.0" y="36.0" /><text x="17.0" y="45.0">i=0</text></g><g class="legend reactive activate-serie" id="activate-serie-3"><rect class="color-3 reactive" height="12" width="12" x="0.0" y="54.0" /><text x="17.0" y="63.0">i=1</text></g><g class="legend reactive activate-serie" id="activate-serie-4"><rect class="color-4 reactive" height="12" width="12" x="0.0" y="72.0" /><text x="17.0" y="81.0">i=0 k=0</text></g><g class="legend reactive activate-serie" id="activate-serie-5"><rect class="color-5 reactive" height="12" width="12" x="0.0" y="90.0" /><text x="17.0" y="99.0">i=0 k=1</text></g><g class="legend reactive activate-serie" id="activate-serie-6"><rect class="color-6 reactive" height="12" width="12" x="0.0" y="108.0" /><text x="17.0" y="117.0">i=0 k=2</text></g><g class="legend reactive activate-serie" id="activate-serie-7"><rect class="color-7 reactive" height="12" width="12" x="0.0" y="126.0" /><text x="17.0" y="135.0">i=0 k=3</text></g><g class="legend reactive activate-serie" id="activate-serie-8"><rect class="color-8 reactive" height="12" width="12" x="0.0" y="144.0" /><text x="17.0" y="153.0">i=0 k=4</text></g><g class="legend reactive activate-serie" id="activate-serie-9"><rect class="color-9 reactive" height="12" width="12" x="0.0" y="162.0" /><text x="17.0" y="171.0">i=1 k=0</text></g><g class="legend reactive activate-serie" id="activate-serie-10"><rect class="color-10 reactive" height="12" width="12" x="0.0" y="180.0" /><text x="17.0" y="189.0">i=1 k=1</text></g><g class="legend reactive activate-serie" id="activate-serie-11"><rect class="color-11 reactive" height="12" width="12" x="0.0" y="198.0" /><text x="17.0" y="207.0">i=1 k=2</text></g><g class="legend reactive activate-serie" id="activate-serie-12"><rect class="color-12 reactive" height="12" width="12" x="0.0" y="216.0" /><text x="17.0" y="225.0">i=1 k=3</text></g><g class="legend reactive activate-serie" id="activate-serie-13"><rect class="color-13 reactive" height="12" width="12" x="0.0" y="234.0" /><text x="17.0" y="243.0">i=1 k=4</text></g></g><g class="legends" transform="translate(790, 56)" /></g></svg>