<?xml version='1.0' encoding='utf-8'?>
<svg xmlns:xlink="http://www.w3.org/1999/xlink" class="pygal-chart" id="chart-67664d37-ddcd-4f02-badd-a13dafcf6120" viewBox="0 0 800 600" xmlns="http://www.w3.org/2000/svg"><!--Generated with pygal 2.4.0 (etree) ©Kozea 2012-2016 on 2018-02-13--><!--http://pygal.org--><!--http://github.com/Kozea/pygal--><defs><style type="text/css">#chart-67664d37-ddcd-4f02-badd-a13dafcf6120{-webkit-user-select:none;-webkit-font-smoothing:antialiased;font-family:Consolas,"Liberation Mono",Menlo,Courier,monospace}#chart-67664d37-ddcd-4f02-badd-a13dafcf6120 .title{font-family:Consolas,"Liberation Mono",Menlo,Courier,monospace;font-size:16px}#chart-67664d37-ddcd-4f02-badd-a13dafcf6120 .legends .legend text{font-family:Consolas,"Liberation Mono",Menlo,Courier,monospace;font-size:10px}#chart-67664d37-ddcd-4f02-badd-a13dafcf6120 .axis text{font-family:Consolas,"Liberation Mono",Menlo,Courier,monospace;font-size:10px}#chart-67664d37-ddcd-4f02-badd-a13dafcf6120 .axis text.major{font-family:Consolas,"Liberation Mono",Menlo,Courier,monospace;font-size:10px}#chart-67664d37-ddcd-4f02-badd-a13dafcf6120 .text-overlay text.value{font-family:Consolas,"Liberation Mono",Menlo,Courier,monospace;font-size:16px}#chart-67664d37-ddcd-4f02-badd-a13dafcf6120 .text-overlay text.label{font-family:Consolas,"Liberation Mono",Menlo,Courier,monospace;font-size:10px}#chart-67664d37-ddcd-4f02-badd-a13dafcf6120 .tooltip{font-family:Consolas,"Liberation Mono",Menlo,Courier,monospace;font-size:14px}#chart-67664d37-ddcd-4f02-badd-a13dafcf6120 text.no_data{font-family:Consolas,"Liberation Mono",Menlo,Courier,monospace;font-size:64px}
#chart-67664d37-ddcd-4f02-badd-a13dafcf6120{background-color:rgba(249,249,249,1)}#chart-67664d37-ddcd-4f02-badd-a13dafcf6120 path,#chart-67664d37-ddcd-4f02-badd-a13dafcf6120 line,#chart-67664d37-ddcd-4f02-badd-a13dafcf6120 rect,#chart-67664d37-ddcd-4f02-badd-a13dafcf6120 circle{-webkit-transition:150ms;-moz-transition:150ms;transition:150ms}#chart-67664d37-ddcd-4f02-badd-a13dafcf6120 .graph &gt; .background{fill:rgba(249,249,249,1)}#chart-67664d37-ddcd-4f02-badd-a13dafcf6120 .plot &gt; .background{fill:rgba(255,255,255,1)}#chart-67664d37-ddcd-4f02-badd-a13dafcf6120 .graph{fill:rgba(0,0,0,.87)}#chart-67664d37-ddcd-4f02-badd-a13dafcf6120 text.no_data{fill:rgba(0,0,0,1)}#chart-67664d37-ddcd-4f02-badd-a13dafcf6120 .title{fill:rgba(0,0,0,1)}#chart-67664d37-ddcd-4f02-badd-a13dafcf6120 .legends .legend text{fill:rgba(0,0,0,.87)}#chart-67664d37-ddcd-4f02-badd-a13dafcf6120 .legends .legend:hover text{fill:rgba(0,0,0,1)}#chart-67664d37-ddcd-4f02-badd-a13dafcf6120 .axis .line{stroke:rgba(0,0,0,1)}#chart-67664d37-ddcd-4f02-badd-a13dafcf6120 .axis .guide.line{stroke:rgba(0,0,0,.54)}#chart-67664d37-ddcd-4f02-badd-a13dafcf6120 .axis .major.line{stroke:rgba(0,0,0,.87)}#chart-67664d37-ddcd-4f02-badd-a13dafcf6120 .axis text.major{fill:rgba(0,0,0,1)}#chart-67664d37-ddcd-4f02-badd-a13dafcf6120 .axis.y .guides:hover .guide.line,#chart-67664d37-ddcd-4f02-badd-a13dafcf6120 .line-graph .axis.x .guides:hover .guide.line,#chart-67664d37-ddcd-4f02-badd-a13dafcf6120 .stackedline-graph .axis.x .guides:hover .guide.line,#chart-67664d37-ddcd-4f02-badd-a13dafcf6120 .xy-graph .axis.x .guides:hover .guide.line{stroke:rgba(0,0,0,1)}#chart-67664d37-ddcd-4f02-badd-a13dafcf6120 .axis .guides:hover text{fill:rgba(0,0,0,1)}#chart-67664d37-ddcd-4f02-badd-a13dafcf6120 .reactive{fill-opacity:.7;stroke-opacity:.8}#chart-67664d37-ddcd-4f02-badd-a13dafcf6120 .ci{stroke:rgba(0,0,0,.87)}#chart-67664d37-ddcd-4f02-badd-a13dafcf6120 .reactive.active,#chart-67664d37-ddcd-4f02-badd-a13dafcf6120 .active .reactive{fill-opacity:.8;stroke-opacity:.9;stroke-width:4}#chart-67664d37-ddcd-4f02-badd-a13dafcf6120 .ci .reactive.active{stroke-width:1.5}#chart-67664d37-ddcd-4f02-badd-a13dafcf6120 .series text{fill:rgba(0,0,0,1)}#chart-67664d37-ddcd-4f02-badd-a13dafcf6120 .tooltip rect{fill:rgba(255,255,255,1);stroke:rgba(0,0,0,1);-webkit-transition:opacity 150ms;-moz-transition:opacity 150ms;transition:opacity 150ms}#chart-67664d37-ddcd-4f02-badd-a13dafcf6120 .tooltip .label{fill:rgba(0,0,0,.87)}#chart-67664d37-ddcd-4f02-badd-a13dafcf6120 .tooltip .label{fill:rgba(0,0,0,.87)}#chart-67664d37-ddcd-4f02-badd-a13dafcf6120 .tooltip .legend{font-size:.8em;fill:rgba(0,0,0,.54)}#chart-67664d37-ddcd-4f02-badd-a13dafcf6120 .tooltip .x_label{font-size:.6em;fill:rgba(0,0,0,1)}#chart-67664d37-ddcd-4f02-badd-a13dafcf6120 .tooltip .xlink{font-size:.5em;text-decoration:underline}#chart-67664d37-ddcd-4f02-badd-a13dafcf6120 .tooltip .value{font-size:1.5em}#chart-67664d37-ddcd-4f02-badd-a13dafcf6120 .bound{font-size:.5em}#chart-67664d37-ddcd-4f02-badd-a13dafcf6120 .max-value{font-size:.75em;fill:rgba(0,0,0,.54)}#chart-67664d37-ddcd-4f02-badd-a13dafcf6120 .map-element{fill:rgba(255,255,255,1);stroke:rgba(0,0,0,.54) !important}#chart-67664d37-ddcd-4f02-badd-a13dafcf6120 .map-element .reactive{fill-opacity:inherit;stroke-opacity:inherit}#chart-67664d37-ddcd-4f02-badd-a13dafcf6120 .color-0,#chart-67664d37-ddcd-4f02-badd-a13dafcf6120 .color-0 a:visited{stroke:#909090;fill:#909090}#chart-67664d37-ddcd-4f02-badd-a13dafcf6120 .color-1,#chart-67664d37-ddcd-4f02-badd-a13dafcf6120 .color-1 a:visited{stroke:#000000;fill:#000000}#chart-67664d37-ddcd-4f02-badd-a13dafcf6120 .color-2,#chart-67664d37-ddcd-4f02-badd-a13dafcf6120 .color-2 a:visited{stroke:#ff0500;fill:#ff0500}#chart-67664d37-ddcd-4f02-badd-a13dafcf6120 .color-3,#chart-67664d37-ddcd-4f02-badd-a13dafcf6120 .color-3 a:visited{stroke:#323299;fill:#323299}#chart-67664d37-ddcd-4f02-badd-a13dafcf6120 .color-4,#chart-67664d37-ddcd-4f02-badd-a13dafcf6120 .color-4 a:visited{stroke:#a3413f;fill:#a3413f}#chart-67664d37-ddcd-4f02-badd-a13dafcf6120 .color-5,#chart-67664d37-ddcd-4f02-badd-a13dafcf6120 .color-5 a:visited{stroke:#a3413f;fill:#a3413f}#chart-67664d37-ddcd-4f02-badd-a13dafcf6120 .color-6,#chart-67664d37-ddcd-4f02-badd-a13dafcf6120 .color-6 a:visited{stroke:#657fff;fill:#657fff}#chart-67664d37-ddcd-4f02-badd-a13dafcf6120 .color-7,#chart-67664d37-ddcd-4f02-badd-a13dafcf6120 .color-7 a:visited{stroke:#657fff;fill:#657fff}#chart-67664d37-ddcd-4f02-badd-a13dafcf6120 .text-overlay .color-0 text{fill:black}#chart-67664d37-ddcd-4f02-badd-a13dafcf6120 .text-overlay .color-1 text{fill:white}#chart-67664d37-ddcd-4f02-badd-a13dafcf6120 .text-overlay .color-2 text{fill:black}#chart-67664d37-ddcd-4f02-badd-a13dafcf6120 .text-overlay .color-3 text{fill:black}#chart-67664d37-ddcd-4f02-badd-a13dafcf6120 .text-overlay .color-4 text{fill:black}#chart-67664d37-ddcd-4f02-badd-a13dafcf6120 .text-overlay .color-5 text{fill:black}#chart-67664d37-ddcd-4f02-badd-a13dafcf6120 .text-overlay .color-6 text{fill:black}#chart-67664d37-ddcd-4f02-badd-a13dafcf6120 .text-overlay .color-7 text{fill:black}#chart-67664d37-ddcd-4f02-badd-a13dafcf6120 .series.serie-1{stroke-width:5}#chart-67664d37-ddcd-4f02-badd-a13dafcf6120 .series.serie-2{stroke-width:3}#chart-67664d37-ddcd-4f02-badd-a13dafcf6120 .series.serie-3{stroke-width:3}#chart-67664d37-ddcd-4f02-badd-a13dafcf6120 .series.serie-4{stroke-width:2;stroke-dasharray:2,2}#chart-67664d37-ddcd-4f02-badd-a13dafcf6120 .series.serie-5{stroke-width:2;stroke-dasharray:2,2}#chart-67664d37-ddcd-4f02-badd-a13dafcf6120 .series.serie-6{stroke-width:2;stroke-dasharray:2,2}#chart-67664d37-ddcd-4f02-badd-a13dafcf6120 .series.serie-7{stroke-width:2;stroke-dasharray:2,2}
#chart-67664d37-ddcd-4f02-badd-a13dafcf6120 text.no_data{text-anchor:middle}#chart-67664d37-ddcd-4f02-badd-a13dafcf6120 .guide.line{fill:none}#chart-67664d37-ddcd-4f02-badd-a13dafcf6120 .centered{text-anchor:middle}#chart-67664d37-ddcd-4f02-badd-a13dafcf6120 .title{text-anchor:middle}#chart-67664d37-ddcd-4f02-badd-a13dafcf6120 .legends .legend text{fill-opacity:1}#chart-67664d37-ddcd-4f02-badd-a13dafcf6120 .axis.x text{text-anchor:middle}#chart-67664d37-ddcd-4f02-badd-a13dafcf6120 .axis.x:not(.web) text[transform]{text-anchor:start}#chart-67664d37-ddcd-4f02-badd-a13dafcf6120 .axis.x:not(.web) text[transform].backwards{text-anchor:end}#chart-67664d37-ddcd-4f02-badd-a13dafcf6120 .axis.y text{text-anchor:end}#chart-67664d37-ddcd-4f02-badd-a13dafcf6120 .axis.y text[transform].backwards{text-anchor:start}#chart-67664d37-ddcd-4f02-badd-a13dafcf6120 .axis.y2 text{text-anchor:start}#chart-67664d37-ddcd-4f02-badd-a13dafcf6120 .axis.y2 text[transform].backwards{text-anchor:end}#chart-67664d37-ddcd-4f02-badd-a13dafcf6120 .axis .guide.line{stroke-dasharray:4,4}#chart-67664d37-ddcd-4f02-badd-a13dafcf6120 .axis .major.guide.line{stroke-dasharray:6,6}#chart-67664d37-ddcd-4f02-badd-a13dafcf6120 .horizontal .axis.y .guide.line,#chart-67664d37-ddcd-4f02-badd-a13dafcf6120 .horizontal .axis.y2 .guide.line,#chart-67664d37-ddcd-4f02-badd-a13dafcf6120 .vertical .axis.x .guide.line{opacity:0}#chart-67664d37-ddcd-4f02-badd-a13dafcf6120 .horizontal .axis.always_show .guide.line,#chart-67664d37-ddcd-4f02-badd-a13dafcf6120 .vertical .axis.always_show .guide.line{opacity:1 !important}#chart-67664d37-ddcd-4f02-badd-a13dafcf6120 .axis.y .guides:hover .guide.line,#chart-67664d37-ddcd-4f02-badd-a13dafcf6120 .axis.y2 .guides:hover .guide.line,#chart-67664d37-ddcd-4f02-badd-a13dafcf6120 .axis.x .guides:hover .guide.line{opacity:1}#chart-67664d37-ddcd-4f02-badd-a13dafcf6120 .axis .guides:hover text{opacity:1}#chart-67664d37-ddcd-4f02-badd-a13dafcf6120 .nofill{fill:none}#chart-67664d37-ddcd-4f02-badd-a13dafcf6120 .subtle-fill{fill-opacity:.2}#chart-67664d37-ddcd-4f02-badd-a13dafcf6120 .dot{stroke-width:1px;fill-opacity:1}#chart-67664d37-ddcd-4f02-badd-a13dafcf6120 .dot.active{stroke-width:5px}#chart-67664d37-ddcd-4f02-badd-a13dafcf6120 .dot.negative{fill:transparent}#chart-67664d37-ddcd-4f02-badd-a13dafcf6120 text,#chart-67664d37-ddcd-4f02-badd-a13dafcf6120 tspan{stroke:none !important}#chart-67664d37-ddcd-4f02-badd-a13dafcf6120 .series text.active{opacity:1}#chart-67664d37-ddcd-4f02-badd-a13dafcf6120 .tooltip rect{fill-opacity:.95;stroke-width:.5}#chart-67664d37-ddcd-4f02-badd-a13dafcf6120 .tooltip text{fill-opacity:1}#chart-67664d37-ddcd-4f02-badd-a13dafcf6120 .showable{visibility:hidden}#chart-67664d37-ddcd-4f02-badd-a13dafcf6120 .showable.shown{visibility:visible}#chart-67664d37-ddcd-4f02-badd-a13dafcf6120 .gauge-background{fill:rgba(229,229,229,1);stroke:none}#chart-67664d37-ddcd-4f02-badd-a13dafcf6120 .bg-lines{stroke:rgba(249,249,249,1);stroke-width:2px}</style><script type="text/javascript">window.pygal = window.pygal || {};window.pygal.config = window.pygal.config || {};window.pygal.config['67664d37-ddcd-4f02-badd-a13dafcf6120'] = {"no_prefix": false, "xrange": null, "legends": ["Data", "GMM", "i=0", "i=1", "i=0 k=0", "i=0 k=1", "i=1 k=0", "i=1 k=1"], "inverse_y_axis": false, "rounded_bars": null, "explicit_size": false, "title": "Iteration #3", "stroke": true, "tooltip_fancy_mode": true, "show_minor_x_labels": false, "y_labels_major": null, "pretty_print": false, "print_values": false, "interpolation_precision": 250, "spacing": 10, "max_scale": 16, "show_x_labels": true, "style": {"font_family": "Consolas, \"Liberation Mono\", Menlo, Courier, monospace", "value_background": "rgba(229, 229, 229, 1)", "colors": ["#909090", "#000000", "#ff0500", "#323299", "#a3413f", "#a3413f", "#657fff", "#657fff"], "value_font_family": "Consolas, \"Liberation Mono\", Menlo, Courier, monospace", "major_label_font_family": "Consolas, \"Liberation Mono\", Menlo, Courier, monospace", "ci_colors": [], "plot_background": "rgba(255, 255, 255, 1)", "value_colors": [], "background": "rgba(249, 249, 249, 1)", "major_guide_stroke_dasharray": "6,6", "tooltip_font_size": 14, "foreground": "rgba(0, 0, 0, .87)", "opacity_hover": ".8", "no_data_font_family": "Consolas, \"Liberation Mono\", Menlo, Courier, monospace", "stroke_opacity": ".8", "tooltip_font_family": "Consolas, \"Liberation Mono\", Menlo, Courier, monospace", "transition": "150ms", "legend_font_family": "Consolas, \"Liberation Mono\", Menlo, Courier, monospace", "title_font_family": "Consolas, \"Liberation Mono\", Menlo, Courier, monospace", "foreground_subtle": "rgba(0, 0, 0, .54)", "major_label_font_size": 10, "value_label_font_family": "Consolas, \"Liberation Mono\", Menlo, Courier, monospace", "stroke_opacity_hover": ".9", "title_font_size": 16, "legend_font_size": 10, "label_font_family": "Consolas, \"Liberation Mono\", Menlo, Courier, monospace", "value_font_size": 16, "value_label_font_size": 10, "no_data_font_size": 64, "opacity": ".7", "label_font_size": 10, "guide_stroke_dasharray": "4,4", "foreground_strong": "rgba(0, 0, 0, 1)"}, "force_uri_protocol": "https", "dots_size": 2.5, "stroke_style": null, "min_scale": 4, "box_mode": "extremes", "logarithmic": false, "margin_left": null, "js": ["//kozea.github.io/pygal.js/2.0.x/pygal-tooltips.min.js"], "defs": [], "tooltip_border_radius": 0, "margin_bottom": null, "print_zeroes": true, "show_y_guides": true, "x_labels": ["-8.96", "-8.76", "-8.56", "-8.36", "-8.16", "-7.96", "-7.76", "-7.56", "-7.36", "-7.16", "-6.96", "-6.76", "-6.56", "-6.36", "-6.16", "-5.96", "-5.76", "-5.56", "-5.36", "-5.16", "-4.96", "-4.76", "-4.56", "-4.36", "-4.16", "-3.96", "-3.76", "-3.56", "-3.36", "-3.16", "-2.96", "-2.76", "-2.56", "-2.36", "-2.16", "-1.96", "-1.76", "-1.56", "-1.36", "-1.16", "-0.96", "-0.76", "-0.56", "-0.36", "-0.16", "0.04", "0.24", "0.44", "0.64", "0.84", "1.04", "1.24", "1.43", "1.63", "1.83", "2.03", "2.23", "2.43", "2.63", "2.83"], "show_dots": false, "show_legend": true, "print_values_position": "center", "x_label_rotation": 60, "show_x_guides": false, "margin": 20, "dynamic_print_values": false, "margin_right": null, "legend_box_size": 12, "legend_at_bottom": false, "legend_at_bottom_columns": null, "x_title": "Observation", "half_pie": false, "show_only_major_dots": false, "x_labels_major_every": 2, "x_labels_major_count": null, "truncate_label": null, "truncate_legend": null, "order_min": null, "missing_value_fill_truncation": "x", "no_data_text": "No data", "x_labels_major": null, "formatter": null, "inner_radius": 0, "interpolate": null, "y_title": "Density", "strict": false, "interpolation_parameters": {}, "y_labels_major_count": null, "margin_top": null, "classes": ["pygal-chart"], "fill": false, "y_label_rotation": 0, "width": 800, "print_labels": false, "y_labels": null, "secondary_range": null, "zero": 0, "include_x_axis": false, "disable_xml_declaration": false, "show_y_labels": true, "stack_from_top": false, "css": ["file://style.css", "file://graph.css"], "show_minor_y_labels": true, "allow_interruptions": false, "y_labels_major_every": null, "height": 600, "range": [0, 0.27578580090479526]}</script><script type="text/javascript" xlink:href="https://kozea.github.io/pygal.js/2.0.x/pygal-tooltips.min.js" /></defs><title>Iteration #3</title><g class="graph line-graph vertical"><rect class="background" height="600" width="800" x="0" y="0" /><g class="plot" transform="translate(144, 46)"><rect class="background" height="472.01923788646684" width="636.0" x="0" y="0" /><g class="axis y always_show"><g class="guides"><path class="axis major line" d="M0.000000 462.941945 h636.000000" /><text class="major" x="-5" y="466.44194485">0</text><title>0</title></g><g class="guides"><path class="guide line" d="M0.000000 430.027658 h636.000000" /><text class="" x="-5" y="433.527657724">0.02</text><title>0.02</title></g><g class="guides"><path class="guide line" d="M0.000000 397.113371 h636.000000" /><text class="" x="-5" y="400.613370598">0.04</text><title>0.04</title></g><g class="guides"><path class="guide line" d="M0.000000 364.199083 h636.000000" /><text class="" x="-5" y="367.699083472">0.06</text><title>0.06</title></g><g class="guides"><path class="guide line" d="M0.000000 331.284796 h636.000000" /><text class="" x="-5" y="334.784796346">0.08</text><title>0.08</title></g><g class="guides"><path class="guide line" d="M0.000000 298.370509 h636.000000" /><text class="" x="-5" y="301.87050922">0.1</text><title>0.1</title></g><g class="guides"><path class="guide line" d="M0.000000 265.456222 h636.000000" /><text class="" x="-5" y="268.956222094">0.12</text><title>0.12</title></g><g class="guides"><path class="guide line" d="M0.000000 232.541935 h636.000000" /><text class="" x="-5" y="236.041934968">0.14</text><title>0.14</title></g><g class="guides"><path class="guide line" d="M0.000000 199.627648 h636.000000" /><text class="" x="-5" y="203.127647841">0.16</text><title>0.16</title></g><g class="guides"><path class="guide line" d="M0.000000 166.713361 h636.000000" /><text class="" x="-5" y="170.213360715">0.18</text><title>0.18</title></g><g class="guides"><path class="guide line" d="M0.000000 133.799074 h636.000000" /><text class="" x="-5" y="137.299073589">0.2</text><title>0.2</title></g><g class="guides"><path class="guide line" d="M0.000000 100.884786 h636.000000" /><text class="" x="-5" y="104.384786463">0.22</text><title>0.22</title></g><g class="guides"><path class="guide line" d="M0.000000 67.970499 h636.000000" /><text class="" x="-5" y="71.4704993371">0.24</text><title>0.24</title></g><g class="guides"><path class="guide line" d="M0.000000 35.056212 h636.000000" /><text class="" x="-5" y="38.5562122111">0.26</text><title>0.26</title></g></g><g class="axis x"><g class="guides"><path class="major line" d="M12.230769 0.000000 v472.019238" /><text class="major" transform="rotate(60 12.230769 487.019238)" x="12.230769230769232" y="487.01923788646684">-8.96</text></g><g class="guides"><path class="major guide line" d="M32.960887 0.000000 v472.019238" /><text class="major" transform="rotate(60 32.960887 487.019238)" x="32.96088657105606" y="487.01923788646684">-8.56</text></g><g class="guides"><path class="major guide line" d="M53.691004 0.000000 v472.019238" /><text class="major" transform="rotate(60 53.691004 487.019238)" x="53.6910039113429" y="487.01923788646684">-8.16</text></g><g class="guides"><path class="major guide line" d="M74.421121 0.000000 v472.019238" /><text class="major" transform="rotate(60 74.421121 487.019238)" x="74.42112125162973" y="487.01923788646684">-7.76</text></g><g class="guides"><path class="major guide line" d="M95.151239 0.000000 v472.019238" /><text class="major" transform="rotate(60 95.151239 487.019238)" x="95.15123859191655" y="487.01923788646684">-7.36</text></g><g class="guides"><path class="major guide line" d="M115.881356 0.000000 v472.019238" /><text class="major" transform="rotate(60 115.881356 487.019238)" x="115.88135593220338" y="487.01923788646684">-6.96</text></g><g class="guides"><path class="major guide line" d="M136.611473 0.000000 v472.019238" /><text class="major" transform="rotate(60 136.611473 487.019238)" x="136.61147327249023" y="487.01923788646684">-6.56</text></g><g class="guides"><path class="major guide line" d="M157.341591 0.000000 v472.019238" /><text class="major" transform="rotate(60 157.341591 487.019238)" x="157.34159061277705" y="487.01923788646684">-6.16</text></g><g class="guides"><path class="major guide line" d="M178.071708 0.000000 v472.019238" /><text class="major" transform="rotate(60 178.071708 487.019238)" x="178.0717079530639" y="487.01923788646684">-5.76</text></g><g class="guides"><path class="major guide line" d="M198.801825 0.000000 v472.019238" /><text class="major" transform="rotate(60 198.801825 487.019238)" x="198.80182529335073" y="487.01923788646684">-5.36</text></g><g class="guides"><path class="major guide line" d="M219.531943 0.000000 v472.019238" /><text class="major" transform="rotate(60 219.531943 487.019238)" x="219.53194263363756" y="487.01923788646684">-4.96</text></g><g class="guides"><path class="major guide line" d="M240.262060 0.000000 v472.019238" /><text class="major" transform="rotate(60 240.262060 487.019238)" x="240.2620599739244" y="487.01923788646684">-4.56</text></g><g class="guides"><path class="major guide line" d="M260.992177 0.000000 v472.019238" /><text class="major" transform="rotate(60 260.992177 487.019238)" x="260.99217731421123" y="487.01923788646684">-4.16</text></g><g class="guides"><path class="major guide line" d="M281.722295 0.000000 v472.019238" /><text class="major" transform="rotate(60 281.722295 487.019238)" x="281.722294654498" y="487.01923788646684">-3.76</text></g><g class="guides"><path class="major guide line" d="M302.452412 0.000000 v472.019238" /><text class="major" transform="rotate(60 302.452412 487.019238)" x="302.4524119947849" y="487.01923788646684">-3.36</text></g><g class="guides"><path class="major guide line" d="M323.182529 0.000000 v472.019238" /><text class="major" transform="rotate(60 323.182529 487.019238)" x="323.1825293350717" y="487.01923788646684">-2.96</text></g><g class="guides"><path class="major guide line" d="M343.912647 0.000000 v472.019238" /><text class="major" transform="rotate(60 343.912647 487.019238)" x="343.91264667535853" y="487.01923788646684">-2.56</text></g><g class="guides"><path class="major guide line" d="M364.642764 0.000000 v472.019238" /><text class="major" transform="rotate(60 364.642764 487.019238)" x="364.64276401564535" y="487.01923788646684">-2.16</text></g><g class="guides"><path class="major guide line" d="M385.372881 0.000000 v472.019238" /><text class="major" transform="rotate(60 385.372881 487.019238)" x="385.37288135593224" y="487.01923788646684">-1.76</text></g><g class="guides"><path class="major guide line" d="M406.102999 0.000000 v472.019238" /><text class="major" transform="rotate(60 406.102999 487.019238)" x="406.102998696219" y="487.01923788646684">-1.36</text></g><g class="guides"><path class="major guide line" d="M426.833116 0.000000 v472.019238" /><text class="major" transform="rotate(60 426.833116 487.019238)" x="426.8331160365058" y="487.01923788646684">-0.96</text></g><g class="guides"><path class="major guide line" d="M447.563233 0.000000 v472.019238" /><text class="major" transform="rotate(60 447.563233 487.019238)" x="447.56323337679265" y="487.01923788646684">-0.56</text></g><g class="guides"><path class="major guide line" d="M468.293351 0.000000 v472.019238" /><text class="major" transform="rotate(60 468.293351 487.019238)" x="468.29335071707953" y="487.01923788646684">-0.16</text></g><g class="guides"><path class="major guide line" d="M489.023468 0.000000 v472.019238" /><text class="major" transform="rotate(60 489.023468 487.019238)" x="489.02346805736636" y="487.01923788646684">0.24</text></g><g class="guides"><path class="major guide line" d="M509.753585 0.000000 v472.019238" /><text class="major" transform="rotate(60 509.753585 487.019238)" x="509.75358539765324" y="487.01923788646684">0.64</text></g><g class="guides"><path class="major guide line" d="M530.483703 0.000000 v472.019238" /><text class="major" transform="rotate(60 530.483703 487.019238)" x="530.48370273794" y="487.01923788646684">1.04</text></g><g class="guides"><path class="major guide line" d="M551.213820 0.000000 v472.019238" /><text class="major" transform="rotate(60 551.213820 487.019238)" x="551.213820078227" y="487.01923788646684">1.43</text></g><g class="guides"><path class="major guide line" d="M571.943937 0.000000 v472.019238" /><text class="major" transform="rotate(60 571.943937 487.019238)" x="571.9439374185138" y="487.01923788646684">1.83</text></g><g class="guides"><path class="major guide line" d="M592.674055 0.000000 v472.019238" /><text class="major" transform="rotate(60 592.674055 487.019238)" x="592.6740547588006" y="487.01923788646684">2.23</text></g><g class="guides"><path class="major guide line" d="M613.404172 0.000000 v472.019238" /><text class="major" transform="rotate(60 613.404172 487.019238)" x="613.4041720990874" y="487.01923788646684">2.63</text></g></g><g class="series serie-0 color-0"><path class="line reactive" d="M12.230769 462.941945 L12.230769 462.019456 22.595828 462.941945 32.960887 461.096967 43.325945 462.019456 53.691004 459.251988 64.056063 462.019456 74.421121 458.329499 84.786180 462.019456 95.151239 458.329499 105.516297 462.019456 115.881356 448.182119 126.246415 460.174477 136.611473 457.407010 146.976532 457.407010 157.341591 451.872075 167.706649 448.182119 178.071708 454.639543 188.436767 445.414651 198.801825 442.647184 209.166884 436.189760 219.531943 437.112249 229.897001 392.832771 240.262060 396.522728 250.627119 376.227967 260.992177 355.933206 271.357236 351.320760 281.722295 325.491065 292.087353 277.521630 302.452412 283.056565 312.817471 202.800010 323.182529 188.040184 333.547588 169.590402 343.912647 123.465945 354.277705 95.791271 364.642764 67.194108 375.007823 82.876423 385.372881 60.736684 395.737940 80.108956 406.102999 29.372054 416.468057 9.077293 426.833116 70.884065 437.198175 69.039086 447.563233 41.364413 457.928292 40.441923 468.293351 91.178826 478.658409 140.993239 489.023468 214.792369 499.388527 259.071847 509.753585 321.801108 520.118644 364.235608 530.483703 408.515086 540.848761 430.654825 551.213820 448.182119 561.578879 455.562032 571.943937 458.329499 582.308996 458.329499 592.674055 462.019456 603.039113 462.941945 613.404172 462.019456 623.769231 462.941945" /></g><g class="series serie-1 color-1"><path class="line reactive nofill" d="M12.230769 462.934518 L22.595828 462.927845 32.960887 462.915752 43.325945 462.894333 53.691004 462.857261 64.056063 462.794566 74.421121 462.690973 84.786180 462.523758 95.151239 462.260123 105.516297 461.854194 115.881356 461.243892 126.246415 460.348095 136.611473 459.064665 146.976532 457.270052 157.341591 454.821142 167.706649 451.559751 178.071708 447.319565 188.436767 441.934362 198.801825 435.245213 209.166884 427.103426 219.531943 417.366081 229.897001 405.882940 240.262060 392.478001 250.627119 376.935533 260.992177 359.006935 271.357236 338.457013 281.722295 315.161332 292.087353 289.247241 302.452412 261.242444 312.817471 232.166863 323.182529 203.492221 333.547588 176.915251 343.912647 153.950304 354.277705 135.433602 364.642764 121.113267 375.007823 109.534758 385.372881 98.383635 395.737940 85.304012 406.102999 69.000980 416.468057 50.236281 426.833116 32.247183 437.198175 20.249036 447.563233 20.024830 457.928292 36.033071 468.293351 69.758304 478.658409 118.995738 489.023468 178.379337 499.388527 240.917854 509.753585 299.888268 520.118644 350.362218 530.483703 389.908412 540.848761 418.432931 551.213820 437.453427 561.578879 449.217507 571.943937 455.985726 582.308996 459.617734 592.674055 461.440708 603.039113 462.299149 613.404172 462.679796 623.769231 462.839460" /></g><g class="series serie-2 color-2"><path class="line reactive nofill" d="M12.230769 462.941945 L22.595828 462.941945 32.960887 462.941945 43.325945 462.941945 53.691004 462.941945 64.056063 462.941945 74.421121 462.941945 84.786180 462.941945 95.151239 462.941945 105.516297 462.941945 115.881356 462.941945 126.246415 462.941945 136.611473 462.941945 146.976532 462.941945 157.341591 462.941945 167.706649 462.941944 178.071708 462.941941 188.436767 462.941932 198.801825 462.941896 209.166884 462.941776 219.531943 462.941386 229.897001 462.940194 240.262060 462.936748 250.627119 462.927316 260.992177 462.902877 271.357236 462.842911 281.722295 462.703529 292.087353 462.396466 302.452412 461.754945 312.817471 460.483162 323.182529 458.089638 333.547588 453.812200 343.912647 446.555258 354.277705 434.877394 364.642764 417.084707 375.007823 391.491398 385.372881 356.886092 395.737940 313.173283 406.102999 262.045145 416.468057 207.418281 426.833116 155.320797 437.198175 113.019370 447.563233 87.453189 457.928292 83.395178 468.293351 101.999205 478.658409 140.338850 489.023468 192.172731 499.388527 249.656258 509.753585 305.336575 520.118644 353.716674 530.483703 391.952685 540.848761 419.667431 551.213820 438.192034 561.578879 449.654833 571.943937 456.241524 582.308996 459.765245 592.674055 461.524415 603.039113 462.345817 613.404172 462.705324 623.769231 462.853148" /></g><g class="series serie-3 color-3"><path class="line reactive nofill" d="M12.230769 462.934518 L22.595828 462.927845 32.960887 462.915752 43.325945 462.894333 53.691004 462.857261 64.056063 462.794566 74.421121 462.690973 84.786180 462.523758 95.151239 462.260123 105.516297 461.854194 115.881356 461.243892 126.246415 460.348095 136.611473 459.064665 146.976532 457.270052 157.341591 454.821142 167.706649 451.559752 178.071708 447.319568 188.436767 441.934375 198.801825 435.245261 209.166884 427.103595 219.531943 417.366640 229.897001 405.884691 240.262060 392.483198 250.627119 376.950161 260.992177 359.046003 271.357236 338.556047 281.722295 315.399748 292.087353 289.792719 302.452412 262.429445 312.817471 234.625645 323.182529 208.344528 333.547588 186.044996 343.912647 170.336991 354.277705 163.498153 364.642764 166.970504 375.007823 180.985304 385.372881 204.439488 395.737940 235.072673 406.102999 269.897780 416.468057 305.759945 426.833116 339.868330 437.198175 370.171611 447.563233 395.513586 457.928292 415.579838 468.293351 430.701043 478.658409 441.598833 489.023468 449.148552 499.388527 454.203541 509.753585 457.493638 520.118644 459.587489 530.483703 460.897672 540.848761 461.707446 551.213820 462.203338 561.578879 462.504619 571.943937 462.686147 582.308996 462.794434 592.674055 462.858237 603.039113 462.895278 613.404172 462.916417 623.769231 462.928257" /></g><g class="series serie-4 color-4"><path class="line reactive nofill" d="M12.230769 462.941945 L22.595828 462.941945 32.960887 462.941945 43.325945 462.941945 53.691004 462.941945 64.056063 462.941945 74.421121 462.941945 84.786180 462.941945 95.151239 462.941945 105.516297 462.941945 115.881356 462.941945 126.246415 462.941945 136.611473 462.941945 146.976532 462.941945 157.341591 462.941945 167.706649 462.941944 178.071708 462.941941 188.436767 462.941932 198.801825 462.941896 209.166884 462.941776 219.531943 462.941387 229.897001 462.940200 240.262060 462.936776 250.627119 462.927437 260.992177 462.903358 271.357236 462.844704 281.722295 462.709758 292.087353 462.416649 302.452412 461.815919 312.817471 460.654916 323.182529 458.540720 333.547588 454.916776 343.912647 449.077149 354.277705 440.245833 364.642764 427.739882 375.007823 411.209446 385.372881 390.907953 395.737940 367.905499 406.102999 344.140540 416.468057 322.229780 426.833116 305.028031 437.198175 295.027587 447.563233 293.767816 457.928292 301.447069 468.293351 316.871542 478.658409 337.759223 489.023468 361.292447 499.388527 384.735100 509.753585 405.930379 520.118644 423.563382 530.483703 437.170698 540.848761 446.961470 551.213820 453.552874 561.578879 457.715165 571.943937 460.185022 582.308996 461.564122 592.674055 462.289504 603.039113 462.649215 613.404172 462.817501 623.769231 462.891820" /></g><g class="series serie-5 color-5"><path class="line reactive nofill" d="M12.230769 462.941945 L22.595828 462.941945 32.960887 462.941945 43.325945 462.941945 53.691004 462.941945 64.056063 462.941945 74.421121 462.941945 84.786180 462.941945 95.151239 462.941945 105.516297 462.941945 115.881356 462.941945 126.246415 462.941945 136.611473 462.941945 146.976532 462.941945 157.341591 462.941945 167.706649 462.941945 178.071708 462.941945 188.436767 462.941945 198.801825 462.941945 209.166884 462.941945 219.531943 462.941944 229.897001 462.941939 240.262060 462.941917 250.627119 462.941825 260.992177 462.941464 271.357236 462.940153 281.722295 462.935716 292.087353 462.921762 302.452412 462.880970 312.817471 462.770191 323.182529 462.490863 333.547588 461.837369 343.912647 460.420054 354.277705 457.573505 364.642764 452.286770 375.007823 443.223897 385.372881 428.920084 395.737940 408.209729 406.102999 380.846549 416.468057 348.130446 426.833116 313.234711 437.198175 280.933728 447.563233 256.627318 457.928292 244.890054 468.293351 248.069609 478.658409 265.521572 489.023468 293.822228 499.388527 327.863102 509.753585 362.348141 520.118644 393.095237 530.483703 417.723932 540.848761 435.647906 551.213820 447.581105 561.578879 454.881613 571.943937 458.998446 582.308996 461.143069 592.674055 462.176856 603.039113 462.638547 613.404172 462.829768 623.769231 462.903274" /></g><g class="series serie-6 color-6"><path class="line reactive nofill" d="M12.230769 462.934518 L22.595828 462.927845 32.960887 462.915752 43.325945 462.894333 53.691004 462.857261 64.056063 462.794566 74.421121 462.690974 84.786180 462.523761 95.151239 462.260135 105.516297 461.854234 115.881356 461.244025 126.246415 460.348516 136.611473 459.065934 146.976532 457.273691 157.341591 454.831082 167.706649 451.585604 178.071708 447.383603 188.436767 442.085429 198.801825 435.584613 209.166884 427.829645 219.531943 418.846030 229.897001 408.755460 240.262060 397.788535 250.627119 386.287584 260.992177 374.696940 271.357236 363.539529 281.722295 353.380615 292.087353 344.781751 302.452412 338.249930 312.817471 334.188270 323.182529 332.854862 333.547588 334.335641 343.912647 338.535211 354.277705 345.187024 364.642764 353.881369 375.007823 364.107107 385.372881 375.301239 395.737940 386.899648 406.102999 398.382746 416.468057 409.311106 426.833116 419.348159 437.198175 428.269208 447.563233 435.958014 457.928292 442.393647 468.293351 447.631069 478.658409 451.779026 489.023468 454.978352 499.388527 457.382981 509.753585 459.145018 520.118644 460.404339 530.483703 461.282474 540.848761 461.880082 551.213820 462.277099 561.578879 462.534633 571.943937 462.697778 582.308996 462.798726 592.674055 462.859746 603.039113 462.895783 613.404172 462.916578 623.769231 462.928306" /></g><g class="series serie-7 color-7"><path class="line reactive nofill" d="M12.230769 462.941945 L22.595828 462.941945 32.960887 462.941945 43.325945 462.941945 53.691004 462.941945 64.056063 462.941945 74.421121 462.941944 84.786180 462.941942 95.151239 462.941933 105.516297 462.941905 115.881356 462.941812 126.246415 462.941523 136.611473 462.940676 146.976532 462.938305 157.341591 462.932005 167.706649 462.916093 178.071708 462.877910 188.436767 462.790891 198.801825 462.602593 209.166884 462.215895 219.531943 461.462555 229.897001 460.071176 240.262060 457.636608 250.627119 453.604522 260.992177 447.291008 271.357236 437.958463 281.722295 424.961078 292.087353 407.952913 302.452412 387.121459 312.817471 363.379320 323.182529 338.431610 333.547588 314.651300 343.912647 294.743725 354.277705 281.253074 364.642764 276.031080 375.007823 279.820142 385.372881 292.080194 395.737940 311.114971 406.102999 334.456980 416.468057 359.390783 426.833116 383.462115 437.198175 404.844348 447.563233 422.497517 457.928292 436.128136 468.293351 446.011919 478.658409 452.761752 489.023468 457.112144 499.388527 459.762505 509.753585 461.290565 520.118644 462.125095 530.483703 462.557143 540.848761 462.769309 551.213820 462.868184 561.578879 462.911931 571.943937 462.930314 582.308996 462.937652 592.674055 462.940436 603.039113 462.941440 613.404172 462.941784 623.769231 462.941896" /></g></g><g class="titles"><text class="title plot_title" x="400.0" y="26">Iteration #3</text><text class="title" x="462.0" y="580.0">Observation</text><text class="title" transform="rotate(-90 64.000000 282.009619)" x="64.0" y="308.0096189432334">Density</text></g><g class="plot overlay" transform="translate(144, 46)"><g class="series serie-0 color-0" /><g class="series serie-1 color-1" /><g class="series serie-2 color-2" /><g class="series serie-3 color-3" /><g class="series serie-4 color-4" /><g class="series serie-5 color-5" /><g class="series serie-6 color-6" /><g class="series serie-7 color-7" /></g><g class="plot text-overlay" transform="translate(144, 46)"><g class="series serie-0 color-0" /><g class="series serie-1 color-1" /><g class="series serie-2 color-2" /><g class="series serie-3 color-3" /><g class="series serie-4 color-4" /><g class="series serie-5 color-5" /><g class="series serie-6 color-6" /><g class="series serie-7 color-7" /></g><g class="plot tooltip-overlay" transform="translate(144, 46)"><g class="tooltip" style="opacity: 0" transform="translate(0 0)"><rect class="tooltip-box" height="0" rx="0" ry="0" width="0" /><g class="text" /></g></g><g class="legends" transform="translate(10, 56)"><g class="legend reactive activate-serie" id="activate-serie-0"><rect class="color-0 reactive" height="12" width="12" x="0.0" y="0.0" /><text x="17.0" y="9.0">Data</text></g><g class="legend reactive activate-serie" id="activate-serie-1"><rect class="color-1 reactive" height="12" width="12" x="0.0" y="18.0" /><text x="17.0" y="27.0">GMM</text></g><g class="legend reactive activate-serie" id="activate-serie-2"><rect class="color-2 reactive" height="12" width="12" x="0.0" y="36.0" /><text x="17.0" y="45.0">i=0</text></g><g class="legend reactive activate-serie" id="activate-serie-3"><rect class="color-3 reactive" height="12" width="12" x="0.0" y="54.0" /><text x="17.0" y="63.0">i=1</text></g><g class="legend reactive activate-serie" id="activate-serie-4"><rect class="color-4 reactive" height="12" width="12" x="0.0" y="72.0" /><text x="17.0" y="81.0">i=0 k=0</text></g><g class="legend reactive activate-serie" id="activate-serie-5"><rect class="color-5 reactive" height="12" width="12" x="0.0" y="90.0" /><text x="17.0" y="99.0">i=0 k=1</text></g><g class="legend reactive activate-serie" id="activate-serie-6"><rect class="color-6 reactive" height="12" width="12" x="0.0" y="108.0" /><text x="17.0" y="117.0">i=1 k=0</text></g><g class="legend reactive activate-serie" id="activate-serie-7"><rect class="color-7 reactive" height="12" width="12" x="0.0" y="126.0" /><text x="17.0" y="135.0">i=1 k=1</text></g></g><g class="legends" transform="translate(790, 56)" /></g></svg>