<?xml version='1.0' encoding='utf-8'?>
<svg xmlns:xlink="http://www.w3.org/1999/xlink" class="pygal-chart" id="chart-7a05e18f-41ce-406f-b56c-4174a70738fc" viewBox="0 0 800 600" xmlns="http://www.w3.org/2000/svg"><!--Generated with pygal 2.4.0 (etree) ©Kozea 2012-2016 on 2018-02-06--><!--http://pygal.org--><!--http://github.com/Kozea/pygal--><defs><style type="text/css">#chart-7a05e18f-41ce-406f-b56c-4174a70738fc{-webkit-user-select:none;-webkit-font-smoothing:antialiased;font-family:Consolas,"Liberation Mono",Menlo,Courier,monospace}#chart-7a05e18f-41ce-406f-b56c-4174a70738fc .title{font-family:Consolas,"Liberation Mono",Menlo,Courier,monospace;font-size:16px}#chart-7a05e18f-41ce-406f-b56c-4174a70738fc .legends .legend text{font-family:Consolas,"Liberation Mono",Menlo,Courier,monospace;font-size:10px}#chart-7a05e18f-41ce-406f-b56c-4174a70738fc .axis text{font-family:Consolas,"Liberation Mono",Menlo,Courier,monospace;font-size:10px}#chart-7a05e18f-41ce-406f-b56c-4174a70738fc .axis text.major{font-family:Consolas,"Liberation Mono",Menlo,Courier,monospace;font-size:10px}#chart-7a05e18f-41ce-406f-b56c-4174a70738fc .text-overlay text.value{font-family:Consolas,"Liberation Mono",Menlo,Courier,monospace;font-size:16px}#chart-7a05e18f-41ce-406f-b56c-4174a70738fc .text-overlay text.label{font-family:Consolas,"Liberation Mono",Menlo,Courier,monospace;font-size:10px}#chart-7a05e18f-41ce-406f-b56c-4174a70738fc .tooltip{font-family:Consolas,"Liberation Mono",Menlo,Courier,monospace;font-size:14px}#chart-7a05e18f-41ce-406f-b56c-4174a70738fc text.no_data{font-family:Consolas,"Liberation Mono",Menlo,Courier,monospace;font-size:64px}
#chart-7a05e18f-41ce-406f-b56c-4174a70738fc{background-color:rgba(249,249,249,1)}#chart-7a05e18f-41ce-406f-b56c-4174a70738fc path,#chart-7a05e18f-41ce-406f-b56c-4174a70738fc line,#chart-7a05e18f-41ce-406f-b56c-4174a70738fc rect,#chart-7a05e18f-41ce-406f-b56c-4174a70738fc circle{-webkit-transition:150ms;-moz-transition:150ms;transition:150ms}#chart-7a05e18f-41ce-406f-b56c-4174a70738fc .graph &gt; .background{fill:rgba(249,249,249,1)}#chart-7a05e18f-41ce-406f-b56c-4174a70738fc .plot &gt; .background{fill:rgba(255,255,255,1)}#chart-7a05e18f-41ce-406f-b56c-4174a70738fc .graph{fill:rgba(0,0,0,.87)}#chart-7a05e18f-41ce-406f-b56c-4174a70738fc text.no_data{fill:rgba(0,0,0,1)}#chart-7a05e18f-41ce-406f-b56c-4174a70738fc .title{fill:rgba(0,0,0,1)}#chart-7a05e18f-41ce-406f-b56c-4174a70738fc .legends .legend text{fill:rgba(0,0,0,.87)}#chart-7a05e18f-41ce-406f-b56c-4174a70738fc .legends .legend:hover text{fill:rgba(0,0,0,1)}#chart-7a05e18f-41ce-406f-b56c-4174a70738fc .axis .line{stroke:rgba(0,0,0,1)}#chart-7a05e18f-41ce-406f-b56c-4174a70738fc .axis .guide.line{stroke:rgba(0,0,0,.54)}#chart-7a05e18f-41ce-406f-b56c-4174a70738fc .axis .major.line{stroke:rgba(0,0,0,.87)}#chart-7a05e18f-41ce-406f-b56c-4174a70738fc .axis text.major{fill:rgba(0,0,0,1)}#chart-7a05e18f-41ce-406f-b56c-4174a70738fc .axis.y .guides:hover .guide.line,#chart-7a05e18f-41ce-406f-b56c-4174a70738fc .line-graph .axis.x .guides:hover .guide.line,#chart-7a05e18f-41ce-406f-b56c-4174a70738fc .stackedline-graph .axis.x .guides:hover .guide.line,#chart-7a05e18f-41ce-406f-b56c-4174a70738fc .xy-graph .axis.x .guides:hover .guide.line{stroke:rgba(0,0,0,1)}#chart-7a05e18f-41ce-406f-b56c-4174a70738fc .axis .guides:hover text{fill:rgba(0,0,0,1)}#chart-7a05e18f-41ce-406f-b56c-4174a70738fc .reactive{fill-opacity:.7;stroke-opacity:.8}#chart-7a05e18f-41ce-406f-b56c-4174a70738fc .ci{stroke:rgba(0,0,0,.87)}#chart-7a05e18f-41ce-406f-b56c-4174a70738fc .reactive.active,#chart-7a05e18f-41ce-406f-b56c-4174a70738fc .active .reactive{fill-opacity:.8;stroke-opacity:.9;stroke-width:4}#chart-7a05e18f-41ce-406f-b56c-4174a70738fc .ci .reactive.active{stroke-width:1.5}#chart-7a05e18f-41ce-406f-b56c-4174a70738fc .series text{fill:rgba(0,0,0,1)}#chart-7a05e18f-41ce-406f-b56c-4174a70738fc .tooltip rect{fill:rgba(255,255,255,1);stroke:rgba(0,0,0,1);-webkit-transition:opacity 150ms;-moz-transition:opacity 150ms;transition:opacity 150ms}#chart-7a05e18f-41ce-406f-b56c-4174a70738fc .tooltip .label{fill:rgba(0,0,0,.87)}#chart-7a05e18f-41ce-406f-b56c-4174a70738fc .tooltip .label{fill:rgba(0,0,0,.87)}#chart-7a05e18f-41ce-406f-b56c-4174a70738fc .tooltip .legend{font-size:.8em;fill:rgba(0,0,0,.54)}#chart-7a05e18f-41ce-406f-b56c-4174a70738fc .tooltip .x_label{font-size:.6em;fill:rgba(0,0,0,1)}#chart-7a05e18f-41ce-406f-b56c-4174a70738fc .tooltip .xlink{font-size:.5em;text-decoration:underline}#chart-7a05e18f-41ce-406f-b56c-4174a70738fc .tooltip .value{font-size:1.5em}#chart-7a05e18f-41ce-406f-b56c-4174a70738fc .bound{font-size:.5em}#chart-7a05e18f-41ce-406f-b56c-4174a70738fc .max-value{font-size:.75em;fill:rgba(0,0,0,.54)}#chart-7a05e18f-41ce-406f-b56c-4174a70738fc .map-element{fill:rgba(255,255,255,1);stroke:rgba(0,0,0,.54) !important}#chart-7a05e18f-41ce-406f-b56c-4174a70738fc .map-element .reactive{fill-opacity:inherit;stroke-opacity:inherit}#chart-7a05e18f-41ce-406f-b56c-4174a70738fc .color-0,#chart-7a05e18f-41ce-406f-b56c-4174a70738fc .color-0 a:visited{stroke:#909090;fill:#909090}#chart-7a05e18f-41ce-406f-b56c-4174a70738fc .color-1,#chart-7a05e18f-41ce-406f-b56c-4174a70738fc .color-1 a:visited{stroke:#000000;fill:#000000}#chart-7a05e18f-41ce-406f-b56c-4174a70738fc .color-2,#chart-7a05e18f-41ce-406f-b56c-4174a70738fc .color-2 a:visited{stroke:#ff0500;fill:#ff0500}#chart-7a05e18f-41ce-406f-b56c-4174a70738fc .color-3,#chart-7a05e18f-41ce-406f-b56c-4174a70738fc .color-3 a:visited{stroke:#323299;fill:#323299}#chart-7a05e18f-41ce-406f-b56c-4174a70738fc .color-4,#chart-7a05e18f-41ce-406f-b56c-4174a70738fc .color-4 a:visited{stroke:#a3413f;fill:#a3413f}#chart-7a05e18f-41ce-406f-b56c-4174a70738fc .color-5,#chart-7a05e18f-41ce-406f-b56c-4174a70738fc .color-5 a:visited{stroke:#a3413f;fill:#a3413f}#chart-7a05e18f-41ce-406f-b56c-4174a70738fc .color-6,#chart-7a05e18f-41ce-406f-b56c-4174a70738fc .color-6 a:visited{stroke:#657fff;fill:#657fff}#chart-7a05e18f-41ce-406f-b56c-4174a70738fc .color-7,#chart-7a05e18f-41ce-406f-b56c-4174a70738fc .color-7 a:visited{stroke:#657fff;fill:#657fff}#chart-7a05e18f-41ce-406f-b56c-4174a70738fc .text-overlay .color-0 text{fill:black}#chart-7a05e18f-41ce-406f-b56c-4174a70738fc .text-overlay .color-1 text{fill:white}#chart-7a05e18f-41ce-406f-b56c-4174a70738fc .text-overlay .color-2 text{fill:black}#chart-7a05e18f-41ce-406f-b56c-4174a70738fc .text-overlay .color-3 text{fill:black}#chart-7a05e18f-41ce-406f-b56c-4174a70738fc .text-overlay .color-4 text{fill:black}#chart-7a05e18f-41ce-406f-b56c-4174a70738fc .text-overlay .color-5 text{fill:black}#chart-7a05e18f-41ce-406f-b56c-4174a70738fc .text-overlay .color-6 text{fill:black}#chart-7a05e18f-41ce-406f-b56c-4174a70738fc .text-overlay .color-7 text{fill:black}#chart-7a05e18f-41ce-406f-b56c-4174a70738fc .series.serie-1{stroke-width:5}#chart-7a05e18f-41ce-406f-b56c-4174a70738fc .series.serie-2{stroke-width:3}#chart-7a05e18f-41ce-406f-b56c-4174a70738fc .series.serie-3{stroke-width:3}#chart-7a05e18f-41ce-406f-b56c-4174a70738fc .series.serie-4{stroke-width:2;stroke-dasharray:2,2}#chart-7a05e18f-41ce-406f-b56c-4174a70738fc .series.serie-5{stroke-width:2;stroke-dasharray:2,2}#chart-7a05e18f-41ce-406f-b56c-4174a70738fc .series.serie-6{stroke-width:2;stroke-dasharray:2,2}#chart-7a05e18f-41ce-406f-b56c-4174a70738fc .series.serie-7{stroke-width:2;stroke-dasharray:2,2}
#chart-7a05e18f-41ce-406f-b56c-4174a70738fc text.no_data{text-anchor:middle}#chart-7a05e18f-41ce-406f-b56c-4174a70738fc .guide.line{fill:none}#chart-7a05e18f-41ce-406f-b56c-4174a70738fc .centered{text-anchor:middle}#chart-7a05e18f-41ce-406f-b56c-4174a70738fc .title{text-anchor:middle}#chart-7a05e18f-41ce-406f-b56c-4174a70738fc .legends .legend text{fill-opacity:1}#chart-7a05e18f-41ce-406f-b56c-4174a70738fc .axis.x text{text-anchor:middle}#chart-7a05e18f-41ce-406f-b56c-4174a70738fc .axis.x:not(.web) text[transform]{text-anchor:start}#chart-7a05e18f-41ce-406f-b56c-4174a70738fc .axis.x:not(.web) text[transform].backwards{text-anchor:end}#chart-7a05e18f-41ce-406f-b56c-4174a70738fc .axis.y text{text-anchor:end}#chart-7a05e18f-41ce-406f-b56c-4174a70738fc .axis.y text[transform].backwards{text-anchor:start}#chart-7a05e18f-41ce-406f-b56c-4174a70738fc .axis.y2 text{text-anchor:start}#chart-7a05e18f-41ce-406f-b56c-4174a70738fc .axis.y2 text[transform].backwards{text-anchor:end}#chart-7a05e18f-41ce-406f-b56c-4174a70738fc .axis .guide.line{stroke-dasharray:4,4}#chart-7a05e18f-41ce-406f-b56c-4174a70738fc .axis .major.guide.line{stroke-dasharray:6,6}#chart-7a05e18f-41ce-406f-b56c-4174a70738fc .horizontal .axis.y .guide.line,#chart-7a05e18f-41ce-406f-b56c-4174a70738fc .horizontal .axis.y2 .guide.line,#chart-7a05e18f-41ce-406f-b56c-4174a70738fc .vertical .axis.x .guide.line{opacity:0}#chart-7a05e18f-41ce-406f-b56c-4174a70738fc .horizontal .axis.always_show .guide.line,#chart-7a05e18f-41ce-406f-b56c-4174a70738fc .vertical .axis.always_show .guide.line{opacity:1 !important}#chart-7a05e18f-41ce-406f-b56c-4174a70738fc .axis.y .guides:hover .guide.line,#chart-7a05e18f-41ce-406f-b56c-4174a70738fc .axis.y2 .guides:hover .guide.line,#chart-7a05e18f-41ce-406f-b56c-4174a70738fc .axis.x .guides:hover .guide.line{opacity:1}#chart-7a05e18f-41ce-406f-b56c-4174a70738fc .axis .guides:hover text{opacity:1}#chart-7a05e18f-41ce-406f-b56c-4174a70738fc .nofill{fill:none}#chart-7a05e18f-41ce-406f-b56c-4174a70738fc .subtle-fill{fill-opacity:.2}#chart-7a05e18f-41ce-406f-b56c-4174a70738fc .dot{stroke-width:1px;fill-opacity:1}#chart-7a05e18f-41ce-406f-b56c-4174a70738fc .dot.active{stroke-width:5px}#chart-7a05e18f-41ce-406f-b56c-4174a70738fc .dot.negative{fill:transparent}#chart-7a05e18f-41ce-406f-b56c-4174a70738fc text,#chart-7a05e18f-41ce-406f-b56c-4174a70738fc tspan{stroke:none !important}#chart-7a05e18f-41ce-406f-b56c-4174a70738fc .series text.active{opacity:1}#chart-7a05e18f-41ce-406f-b56c-4174a70738fc .tooltip rect{fill-opacity:.95;stroke-width:.5}#chart-7a05e18f-41ce-406f-b56c-4174a70738fc .tooltip text{fill-opacity:1}#chart-7a05e18f-41ce-406f-b56c-4174a70738fc .showable{visibility:hidden}#chart-7a05e18f-41ce-406f-b56c-4174a70738fc .showable.shown{visibility:visible}#chart-7a05e18f-41ce-406f-b56c-4174a70738fc .gauge-background{fill:rgba(229,229,229,1);stroke:none}#chart-7a05e18f-41ce-406f-b56c-4174a70738fc .bg-lines{stroke:rgba(249,249,249,1);stroke-width:2px}</style><script type="text/javascript">window.pygal = window.pygal || {};window.pygal.config = window.pygal.config || {};window.pygal.config['7a05e18f-41ce-406f-b56c-4174a70738fc'] = {"height": 600, "margin": 20, "no_data_text": "No data", "min_scale": 4, "tooltip_border_radius": 0, "print_zeroes": true, "margin_left": null, "tooltip_fancy_mode": true, "stack_from_top": false, "title": "Iteration #13", "y_labels_major_count": null, "fill": false, "stroke_style": null, "print_values": false, "y_labels_major_every": null, "dots_size": 2.5, "x_labels_major_count": null, "legend_box_size": 12, "legends": ["Data", "GMM", "i=0", "i=1", "i=0 k=0", "i=0 k=1", "i=1 k=0", "i=1 k=1"], "pretty_print": false, "print_labels": false, "range": [0, 0.27578580090479526], "y_label_rotation": 0, "margin_bottom": null, "x_labels_major_every": 2, "include_x_axis": false, "legend_at_bottom": false, "zero": 0, "show_legend": true, "y_labels": null, "strict": false, "box_mode": "extremes", "show_minor_y_labels": true, "show_minor_x_labels": false, "secondary_range": null, "show_dots": false, "order_min": null, "margin_top": null, "truncate_legend": null, "spacing": 10, "classes": ["pygal-chart"], "margin_right": null, "allow_interruptions": false, "interpolation_parameters": {}, "max_scale": 16, "js": ["//kozea.github.io/pygal.js/2.0.x/pygal-tooltips.min.js"], "css": ["file://style.css", "file://graph.css"], "truncate_label": null, "show_y_labels": true, "show_only_major_dots": false, "x_title": "Observation", "x_label_rotation": 60, "formatter": null, "disable_xml_declaration": false, "legend_at_bottom_columns": null, "stroke": true, "print_values_position": "center", "y_title": "Density", "y_labels_major": null, "inner_radius": 0, "defs": [], "dynamic_print_values": false, "half_pie": false, "interpolation_precision": 250, "logarithmic": false, "rounded_bars": null, "x_labels_major": null, "show_x_guides": false, "missing_value_fill_truncation": "x", "x_labels": ["-8.96", "-8.76", "-8.56", "-8.36", "-8.16", "-7.96", "-7.76", "-7.56", "-7.36", "-7.16", "-6.96", "-6.76", "-6.56", "-6.36", "-6.16", "-5.96", "-5.76", "-5.56", "-5.36", "-5.16", "-4.96", "-4.76", "-4.56", "-4.36", "-4.16", "-3.96", "-3.76", "-3.56", "-3.36", "-3.16", "-2.96", "-2.76", "-2.56", "-2.36", "-2.16", "-1.96", "-1.76", "-1.56", "-1.36", "-1.16", "-0.96", "-0.76", "-0.56", "-0.36", "-0.16", "0.04", "0.24", "0.44", "0.64", "0.84", "1.04", "1.24", "1.43", "1.63", "1.83", "2.03", "2.23", "2.43", "2.63", "2.83"], "no_prefix": false, "width": 800, "force_uri_protocol": "https", "inverse_y_axis": false, "show_y_guides": true, "xrange": null, "show_x_labels": true, "interpolate": null, "style": {"major_label_font_size": 10, "guide_stroke_dasharray": "4,4", "major_label_font_family": "Consolas, \"Liberation Mono\", Menlo, Courier, monospace", "transition": "150ms", "background": "rgba(249, 249, 249, 1)", "foreground_strong": "rgba(0, 0, 0, 1)", "plot_background": "rgba(255, 255, 255, 1)", "value_font_family": "Consolas, \"Liberation Mono\", Menlo, Courier, monospace", "stroke_opacity": ".8", "ci_colors": [], "foreground_subtle": "rgba(0, 0, 0, .54)", "value_font_size": 16, "title_font_family": "Consolas, \"Liberation Mono\", Menlo, Courier, monospace", "title_font_size": 16, "tooltip_font_size": 14, "colors": ["#909090", "#000000", "#ff0500", "#323299", "#a3413f", "#a3413f", "#657fff", "#657fff"], "opacity": ".7", "label_font_family": "Consolas, \"Liberation Mono\", Menlo, Courier, monospace", "value_label_font_family": "Consolas, \"Liberation Mono\", Menlo, Courier, monospace", "foreground": "rgba(0, 0, 0, .87)", "stroke_opacity_hover": ".9", "value_label_font_size": 10, "font_family": "Consolas, \"Liberation Mono\", Menlo, Courier, monospace", "legend_font_size": 10, "tooltip_font_family": "Consolas, \"Liberation Mono\", Menlo, Courier, monospace", "no_data_font_size": 64, "major_guide_stroke_dasharray": "6,6", "opacity_hover": ".8", "legend_font_family": "Consolas, \"Liberation Mono\", Menlo, Courier, monospace", "value_colors": [], "label_font_size": 10, "no_data_font_family": "Consolas, \"Liberation Mono\", Menlo, Courier, monospace", "value_background": "rgba(229, 229, 229, 1)"}, "explicit_size": false}</script><script type="text/javascript" xlink:href="https://kozea.github.io/pygal.js/2.0.x/pygal-tooltips.min.js" /></defs><title>Iteration #13</title><g class="graph line-graph vertical"><rect class="background" height="600" width="800" x="0" y="0" /><g class="plot" transform="translate(144, 46)"><rect class="background" height="472.01923788646684" width="636.0" x="0" y="0" /><g class="axis y always_show"><g class="guides"><path class="axis major line" d="M0.000000 462.941945 h636.000000" /><text class="major" x="-5" y="466.44194485">0</text><title>0</title></g><g class="guides"><path class="guide line" d="M0.000000 430.027658 h636.000000" /><text class="" x="-5" y="433.527657724">0.02</text><title>0.02</title></g><g class="guides"><path class="guide line" d="M0.000000 397.113371 h636.000000" /><text class="" x="-5" y="400.613370598">0.04</text><title>0.04</title></g><g class="guides"><path class="guide line" d="M0.000000 364.199083 h636.000000" /><text class="" x="-5" y="367.699083472">0.06</text><title>0.06</title></g><g class="guides"><path class="guide line" d="M0.000000 331.284796 h636.000000" /><text class="" x="-5" y="334.784796346">0.08</text><title>0.08</title></g><g class="guides"><path class="guide line" d="M0.000000 298.370509 h636.000000" /><text class="" x="-5" y="301.87050922">0.1</text><title>0.1</title></g><g class="guides"><path class="guide line" d="M0.000000 265.456222 h636.000000" /><text class="" x="-5" y="268.956222094">0.12</text><title>0.12</title></g><g class="guides"><path class="guide line" d="M0.000000 232.541935 h636.000000" /><text class="" x="-5" y="236.041934968">0.14</text><title>0.14</title></g><g class="guides"><path class="guide line" d="M0.000000 199.627648 h636.000000" /><text class="" x="-5" y="203.127647841">0.16</text><title>0.16</title></g><g class="guides"><path class="guide line" d="M0.000000 166.713361 h636.000000" /><text class="" x="-5" y="170.213360715">0.18</text><title>0.18</title></g><g class="guides"><path class="guide line" d="M0.000000 133.799074 h636.000000" /><text class="" x="-5" y="137.299073589">0.2</text><title>0.2</title></g><g class="guides"><path class="guide line" d="M0.000000 100.884786 h636.000000" /><text class="" x="-5" y="104.384786463">0.22</text><title>0.22</title></g><g class="guides"><path class="guide line" d="M0.000000 67.970499 h636.000000" /><text class="" x="-5" y="71.4704993371">0.24</text><title>0.24</title></g><g class="guides"><path class="guide line" d="M0.000000 35.056212 h636.000000" /><text class="" x="-5" y="38.5562122111">0.26</text><title>0.26</title></g></g><g class="axis x"><g class="guides"><path class="major line" d="M12.230769 0.000000 v472.019238" /><text class="major" transform="rotate(60 12.230769 487.019238)" x="12.230769230769232" y="487.01923788646684">-8.96</text></g><g class="guides"><path class="major guide line" d="M32.960887 0.000000 v472.019238" /><text class="major" transform="rotate(60 32.960887 487.019238)" x="32.96088657105606" y="487.01923788646684">-8.56</text></g><g class="guides"><path class="major guide line" d="M53.691004 0.000000 v472.019238" /><text class="major" transform="rotate(60 53.691004 487.019238)" x="53.6910039113429" y="487.01923788646684">-8.16</text></g><g class="guides"><path class="major guide line" d="M74.421121 0.000000 v472.019238" /><text class="major" transform="rotate(60 74.421121 487.019238)" x="74.42112125162973" y="487.01923788646684">-7.76</text></g><g class="guides"><path class="major guide line" d="M95.151239 0.000000 v472.019238" /><text class="major" transform="rotate(60 95.151239 487.019238)" x="95.15123859191655" y="487.01923788646684">-7.36</text></g><g class="guides"><path class="major guide line" d="M115.881356 0.000000 v472.019238" /><text class="major" transform="rotate(60 115.881356 487.019238)" x="115.88135593220338" y="487.01923788646684">-6.96</text></g><g class="guides"><path class="major guide line" d="M136.611473 0.000000 v472.019238" /><text class="major" transform="rotate(60 136.611473 487.019238)" x="136.61147327249023" y="487.01923788646684">-6.56</text></g><g class="guides"><path class="major guide line" d="M157.341591 0.000000 v472.019238" /><text class="major" transform="rotate(60 157.341591 487.019238)" x="157.34159061277705" y="487.01923788646684">-6.16</text></g><g class="guides"><path class="major guide line" d="M178.071708 0.000000 v472.019238" /><text class="major" transform="rotate(60 178.071708 487.019238)" x="178.0717079530639" y="487.01923788646684">-5.76</text></g><g class="guides"><path class="major guide line" d="M198.801825 0.000000 v472.019238" /><text class="major" transform="rotate(60 198.801825 487.019238)" x="198.80182529335073" y="487.01923788646684">-5.36</text></g><g class="guides"><path class="major guide line" d="M219.531943 0.000000 v472.019238" /><text class="major" transform="rotate(60 219.531943 487.019238)" x="219.53194263363756" y="487.01923788646684">-4.96</text></g><g class="guides"><path class="major guide line" d="M240.262060 0.000000 v472.019238" /><text class="major" transform="rotate(60 240.262060 487.019238)" x="240.2620599739244" y="487.01923788646684">-4.56</text></g><g class="guides"><path class="major guide line" d="M260.992177 0.000000 v472.019238" /><text class="major" transform="rotate(60 260.992177 487.019238)" x="260.99217731421123" y="487.01923788646684">-4.16</text></g><g class="guides"><path class="major guide line" d="M281.722295 0.000000 v472.019238" /><text class="major" transform="rotate(60 281.722295 487.019238)" x="281.722294654498" y="487.01923788646684">-3.76</text></g><g class="guides"><path class="major guide line" d="M302.452412 0.000000 v472.019238" /><text class="major" transform="rotate(60 302.452412 487.019238)" x="302.4524119947849" y="487.01923788646684">-3.36</text></g><g class="guides"><path class="major guide line" d="M323.182529 0.000000 v472.019238" /><text class="major" transform="rotate(60 323.182529 487.019238)" x="323.1825293350717" y="487.01923788646684">-2.96</text></g><g class="guides"><path class="major guide line" d="M343.912647 0.000000 v472.019238" /><text class="major" transform="rotate(60 343.912647 487.019238)" x="343.91264667535853" y="487.01923788646684">-2.56</text></g><g class="guides"><path class="major guide line" d="M364.642764 0.000000 v472.019238" /><text class="major" transform="rotate(60 364.642764 487.019238)" x="364.64276401564535" y="487.01923788646684">-2.16</text></g><g class="guides"><path class="major guide line" d="M385.372881 0.000000 v472.019238" /><text class="major" transform="rotate(60 385.372881 487.019238)" x="385.37288135593224" y="487.01923788646684">-1.76</text></g><g class="guides"><path class="major guide line" d="M406.102999 0.000000 v472.019238" /><text class="major" transform="rotate(60 406.102999 487.019238)" x="406.102998696219" y="487.01923788646684">-1.36</text></g><g class="guides"><path class="major guide line" d="M426.833116 0.000000 v472.019238" /><text class="major" transform="rotate(60 426.833116 487.019238)" x="426.8331160365058" y="487.01923788646684">-0.96</text></g><g class="guides"><path class="major guide line" d="M447.563233 0.000000 v472.019238" /><text class="major" transform="rotate(60 447.563233 487.019238)" x="447.56323337679265" y="487.01923788646684">-0.56</text></g><g class="guides"><path class="major guide line" d="M468.293351 0.000000 v472.019238" /><text class="major" transform="rotate(60 468.293351 487.019238)" x="468.29335071707953" y="487.01923788646684">-0.16</text></g><g class="guides"><path class="major guide line" d="M489.023468 0.000000 v472.019238" /><text class="major" transform="rotate(60 489.023468 487.019238)" x="489.02346805736636" y="487.01923788646684">0.24</text></g><g class="guides"><path class="major guide line" d="M509.753585 0.000000 v472.019238" /><text class="major" transform="rotate(60 509.753585 487.019238)" x="509.75358539765324" y="487.01923788646684">0.64</text></g><g class="guides"><path class="major guide line" d="M530.483703 0.000000 v472.019238" /><text class="major" transform="rotate(60 530.483703 487.019238)" x="530.48370273794" y="487.01923788646684">1.04</text></g><g class="guides"><path class="major guide line" d="M551.213820 0.000000 v472.019238" /><text class="major" transform="rotate(60 551.213820 487.019238)" x="551.213820078227" y="487.01923788646684">1.43</text></g><g class="guides"><path class="major guide line" d="M571.943937 0.000000 v472.019238" /><text class="major" transform="rotate(60 571.943937 487.019238)" x="571.9439374185138" y="487.01923788646684">1.83</text></g><g class="guides"><path class="major guide line" d="M592.674055 0.000000 v472.019238" /><text class="major" transform="rotate(60 592.674055 487.019238)" x="592.6740547588006" y="487.01923788646684">2.23</text></g><g class="guides"><path class="major guide line" d="M613.404172 0.000000 v472.019238" /><text class="major" transform="rotate(60 613.404172 487.019238)" x="613.4041720990874" y="487.01923788646684">2.63</text></g></g><g class="series serie-0 color-0"><path class="line reactive" d="M12.230769 462.941945 L12.230769 462.019456 22.595828 462.941945 32.960887 461.096967 43.325945 462.019456 53.691004 459.251988 64.056063 462.019456 74.421121 458.329499 84.786180 462.019456 95.151239 458.329499 105.516297 462.019456 115.881356 448.182119 126.246415 460.174477 136.611473 457.407010 146.976532 457.407010 157.341591 451.872075 167.706649 448.182119 178.071708 454.639543 188.436767 445.414651 198.801825 442.647184 209.166884 436.189760 219.531943 437.112249 229.897001 392.832771 240.262060 396.522728 250.627119 376.227967 260.992177 355.933206 271.357236 351.320760 281.722295 325.491065 292.087353 277.521630 302.452412 283.056565 312.817471 202.800010 323.182529 188.040184 333.547588 169.590402 343.912647 123.465945 354.277705 95.791271 364.642764 67.194108 375.007823 82.876423 385.372881 60.736684 395.737940 80.108956 406.102999 29.372054 416.468057 9.077293 426.833116 70.884065 437.198175 69.039086 447.563233 41.364413 457.928292 40.441923 468.293351 91.178826 478.658409 140.993239 489.023468 214.792369 499.388527 259.071847 509.753585 321.801108 520.118644 364.235608 530.483703 408.515086 540.848761 430.654825 551.213820 448.182119 561.578879 455.562032 571.943937 458.329499 582.308996 458.329499 592.674055 462.019456 603.039113 462.941945 613.404172 462.019456 623.769231 462.941945" /></g><g class="series serie-1 color-1"><path class="line reactive nofill" d="M12.230769 462.920513 L22.595828 462.903819 32.960887 462.875474 43.325945 462.828363 53.691004 462.751730 64.056063 462.629737 74.421121 462.439713 84.786180 462.150125 95.151239 461.718429 105.516297 461.089034 115.881356 460.191765 126.246415 458.941306 136.611473 457.238211 146.976532 454.972075 157.341591 452.027384 167.706649 448.292283 178.071708 443.670068 188.436767 438.092377 198.801825 431.531820 209.166884 424.009652 219.531943 415.590996 229.897001 406.356175 240.262060 396.334183 250.627119 385.388196 260.992177 373.061461 271.357236 358.430858 281.722295 340.068475 292.087353 316.248066 302.452412 285.500668 312.817471 247.477781 323.182529 203.840336 333.547588 158.677748 343.912647 117.960564 354.277705 87.869430 364.642764 72.445077 375.007823 71.558041 385.372881 80.318025 395.737940 90.538611 406.102999 93.917646 416.468057 85.666542 426.833116 66.941683 437.198175 44.858076 447.563233 29.941962 457.928292 32.086971 468.293351 56.791066 478.658409 103.278302 489.023468 165.145158 499.388527 232.963805 509.753585 297.488558 520.118644 352.106509 530.483703 393.811092 540.848761 422.785130 551.213820 441.206879 561.578879 451.970975 571.943937 457.770507 582.308996 460.660244 592.674055 461.995939 603.039113 462.570860 613.404172 462.802606 623.769231 462.890893" /></g><g class="series serie-2 color-2"><path class="line reactive nofill" d="M12.230769 462.941945 L22.595828 462.941945 32.960887 462.941945 43.325945 462.941945 53.691004 462.941945 64.056063 462.941945 74.421121 462.941945 84.786180 462.941945 95.151239 462.941945 105.516297 462.941945 115.881356 462.941945 126.246415 462.941945 136.611473 462.941945 146.976532 462.941945 157.341591 462.941945 167.706649 462.941945 178.071708 462.941945 188.436767 462.941945 198.801825 462.941945 209.166884 462.941945 219.531943 462.941944 229.897001 462.941941 240.262060 462.941924 250.627119 462.941845 260.992177 462.941504 271.357236 462.940142 281.722295 462.935113 292.087353 462.917965 302.452412 462.863996 312.817471 462.707257 323.182529 462.287456 333.547588 461.251213 343.912647 458.895772 354.277705 453.970681 364.642764 444.510837 375.007823 427.851101 385.372881 401.020130 395.737940 361.650911 406.102999 309.320158 416.468057 246.882603 426.833116 181.089154 437.198175 121.829492 447.563233 79.851508 457.928292 63.603662 468.293351 76.461372 478.658409 115.585668 489.023468 172.941933 499.388527 237.979476 509.753585 300.752580 520.118644 354.239029 530.483703 395.198711 540.848761 423.678620 551.213820 441.773722 561.578879 452.324369 571.943937 457.986713 582.308996 460.789957 592.674055 462.072227 603.039113 462.614838 613.404172 462.827454 623.769231 462.904653" /></g><g class="series serie-3 color-3"><path class="line reactive nofill" d="M12.230769 462.920513 L22.595828 462.903819 32.960887 462.875474 43.325945 462.828363 53.691004 462.751730 64.056063 462.629737 74.421121 462.439713 84.786180 462.150125 95.151239 461.718429 105.516297 461.089034 115.881356 460.191765 126.246415 458.941306 136.611473 457.238211 146.976532 454.972075 157.341591 452.027384 167.706649 448.292283 178.071708 443.670068 188.436767 438.092377 198.801825 431.531820 209.166884 424.009652 219.531943 415.590997 229.897001 406.356179 240.262060 396.334204 250.627119 385.388295 260.992177 373.061901 271.357236 358.432661 281.722295 340.075308 292.087353 316.272046 302.452412 285.578618 312.817471 247.712470 323.182529 204.494825 333.547588 160.368480 343.912647 122.006737 354.277705 96.840693 364.642764 90.876184 375.007823 106.648885 385.372881 142.239840 395.737940 191.829645 406.102999 247.539433 416.468057 301.725884 426.833116 348.794474 437.198175 385.970529 447.563233 413.032399 457.928292 431.425253 468.293351 443.271638 478.658409 450.634579 489.023468 455.145170 499.388527 457.926274 509.753585 459.677924 520.118644 460.809425 530.483703 461.554327 540.848761 462.048455 551.213820 462.375102 561.578879 462.588551 571.943937 462.725739 582.308996 462.812232 592.674055 462.865656 603.039113 462.897967 613.404172 462.917097 623.769231 462.928185" /></g><g class="series serie-4 color-4"><path class="line reactive nofill" d="M12.230769 462.941945 L22.595828 462.941945 32.960887 462.941945 43.325945 462.941945 53.691004 462.941945 64.056063 462.941945 74.421121 462.941945 84.786180 462.941945 95.151239 462.941945 105.516297 462.941945 115.881356 462.941945 126.246415 462.941945 136.611473 462.941945 146.976532 462.941945 157.341591 462.941945 167.706649 462.941945 178.071708 462.941945 188.436767 462.941945 198.801825 462.941945 209.166884 462.941945 219.531943 462.941944 229.897001 462.941942 240.262060 462.941931 250.627119 462.941881 260.992177 462.941662 271.357236 462.940785 281.722295 462.937557 292.087353 462.926590 302.452412 462.892258 312.817471 462.793280 323.182529 462.530640 333.547588 461.889734 343.912647 460.452924 354.277705 457.497672 364.642764 451.930683 375.007823 442.348916 385.372881 427.330530 395.737940 405.998451 406.102999 378.747225 416.468057 347.832362 426.833116 317.421512 437.198175 292.834880 447.563233 279.073757 457.928292 279.171056 468.293351 293.104788 478.658409 317.806135 489.023468 348.258079 499.388527 379.147362 509.753585 406.329041 520.118644 427.574735 530.483703 442.511772 540.848761 452.029322 551.213820 457.552151 561.578879 460.480438 571.943937 461.902466 582.308996 462.536047 592.674055 462.795389 603.039113 462.893015 613.404172 462.926839 623.769231 462.937633" /></g><g class="series serie-5 color-5"><path class="line reactive nofill" d="M12.230769 462.941945 L22.595828 462.941945 32.960887 462.941945 43.325945 462.941945 53.691004 462.941945 64.056063 462.941945 74.421121 462.941945 84.786180 462.941945 95.151239 462.941945 105.516297 462.941945 115.881356 462.941945 126.246415 462.941945 136.611473 462.941945 146.976532 462.941945 157.341591 462.941945 167.706649 462.941945 178.071708 462.941945 188.436767 462.941945 198.801825 462.941945 209.166884 462.941945 219.531943 462.941945 229.897001 462.941943 240.262060 462.941937 250.627119 462.941909 260.992177 462.941788 271.357236 462.941301 281.722295 462.939501 292.087353 462.933321 302.452412 462.913682 312.817471 462.855922 323.182529 462.698760 333.547588 462.303424 343.912647 461.384793 354.277705 459.414954 364.642764 455.522100 375.007823 448.444130 385.372881 436.631545 395.737940 418.594404 406.102999 393.514878 416.468057 361.992186 426.833116 326.609587 437.198175 291.936556 447.563233 263.719696 457.928292 247.374551 468.293351 246.298529 478.658409 260.721478 489.023468 287.625799 499.388527 321.774058 509.753585 357.365484 520.118644 389.606238 530.483703 415.628883 540.848761 434.591243 551.213820 447.163516 561.578879 454.785876 571.943937 459.026192 582.308996 461.195854 592.674055 462.218783 603.039113 462.663768 613.404172 462.842559 623.769231 462.908965" /></g><g class="series serie-6 color-6"><path class="line reactive nofill" d="M12.230769 462.920513 L22.595828 462.903819 32.960887 462.875474 43.325945 462.828363 53.691004 462.751730 64.056063 462.629737 74.421121 462.439713 84.786180 462.150125 95.151239 461.718429 105.516297 461.089034 115.881356 460.191765 126.246415 458.941306 136.611473 457.238214 146.976532 454.972092 157.341591 452.027462 167.706649 448.292620 178.071708 443.671416 188.436767 438.097389 198.801825 431.549119 209.166884 424.065088 219.531943 415.755911 229.897001 406.811645 240.262060 397.502013 250.627119 388.168071 260.992177 379.204732 271.357236 371.034922 281.722295 364.077423 292.087353 358.711686 302.452412 355.243672 312.817471 353.876987 323.182529 354.693091 333.547588 357.643258 343.912647 362.553396 354.277705 369.141052 364.642764 377.042304 375.007823 385.844978 385.372881 395.123970 395.737940 404.474527 406.102999 413.539938 416.468057 422.031252 426.833116 429.737925 437.198175 436.529655 447.563233 442.350680 457.928292 447.208581 468.293351 451.159872 478.658409 454.294588 489.023468 456.721711 499.388527 458.556723 509.753585 459.911977 520.118644 460.890093 530.483703 461.580138 540.848761 462.056122 551.213820 462.377217 561.578879 462.589092 571.943937 462.725867 582.308996 462.812261 592.674055 462.865662 603.039113 462.897968 613.404172 462.917097 623.769231 462.928185" /></g><g class="series serie-7 color-7"><path class="line reactive nofill" d="M12.230769 462.941945 L22.595828 462.941945 32.960887 462.941945 43.325945 462.941945 53.691004 462.941945 64.056063 462.941945 74.421121 462.941945 84.786180 462.941945 95.151239 462.941945 105.516297 462.941945 115.881356 462.941945 126.246415 462.941944 136.611473 462.941941 146.976532 462.941928 157.341591 462.941867 167.706649 462.941608 178.071708 462.940597 188.436767 462.936933 198.801825 462.924645 209.166884 462.886510 219.531943 462.777030 229.897001 462.486479 240.262060 461.774135 250.627119 460.162169 260.992177 456.799114 271.357236 450.339684 281.722295 438.939829 292.087353 420.502305 302.452412 393.276890 312.817471 356.777427 323.182529 312.743679 333.547588 265.667166 343.912647 222.395286 354.277705 190.641586 364.642764 176.775825 375.007823 183.745852 385.372881 210.057815 395.737940 250.297063 406.102999 296.941439 416.468057 342.636577 426.833116 381.998493 437.198175 412.382819 447.563233 433.623664 457.928292 447.158617 468.293351 455.053711 478.658409 459.281937 489.023468 461.365403 499.388527 462.311496 509.753585 462.707891 520.118644 462.861277 530.483703 462.916134 540.848761 462.934278 551.213820 462.939830 561.578879 462.941404 571.943937 462.941816 582.308996 462.941916 592.674055 462.941939 603.039113 462.941944 613.404172 462.941945 623.769231 462.941945" /></g></g><g class="titles"><text class="title plot_title" x="400.0" y="26">Iteration #13</text><text class="title" x="462.0" y="580.0">Observation</text><text class="title" transform="rotate(-90 64.000000 282.009619)" x="64.0" y="308.0096189432334">Density</text></g><g class="plot overlay" transform="translate(144, 46)"><g class="series serie-0 color-0" /><g class="series serie-1 color-1" /><g class="series serie-2 color-2" /><g class="series serie-3 color-3" /><g class="series serie-4 color-4" /><g class="series serie-5 color-5" /><g class="series serie-6 color-6" /><g class="series serie-7 color-7" /></g><g class="plot text-overlay" transform="translate(144, 46)"><g class="series serie-0 color-0" /><g class="series serie-1 color-1" /><g class="series serie-2 color-2" /><g class="series serie-3 color-3" /><g class="series serie-4 color-4" /><g class="series serie-5 color-5" /><g class="series serie-6 color-6" /><g class="series serie-7 color-7" /></g><g class="plot tooltip-overlay" transform="translate(144, 46)"><g class="tooltip" style="opacity: 0" transform="translate(0 0)"><rect class="tooltip-box" height="0" rx="0" ry="0" width="0" /><g class="text" /></g></g><g class="legends" transform="translate(10, 56)"><g class="legend reactive activate-serie" id="activate-serie-0"><rect class="color-0 reactive" height="12" width="12" x="0.0" y="0.0" /><text x="17.0" y="9.0">Data</text></g><g class="legend reactive activate-serie" id="activate-serie-1"><rect class="color-1 reactive" height="12" width="12" x="0.0" y="18.0" /><text x="17.0" y="27.0">GMM</text></g><g class="legend reactive activate-serie" id="activate-serie-2"><rect class="color-2 reactive" height="12" width="12" x="0.0" y="36.0" /><text x="17.0" y="45.0">i=0</text></g><g class="legend reactive activate-serie" id="activate-serie-3"><rect class="color-3 reactive" height="12" width="12" x="0.0" y="54.0" /><text x="17.0" y="63.0">i=1</text></g><g class="legend reactive activate-serie" id="activate-serie-4"><rect class="color-4 reactive" height="12" width="12" x="0.0" y="72.0" /><text x="17.0" y="81.0">i=0 k=0</text></g><g class="legend reactive activate-serie" id="activate-serie-5"><rect class="color-5 reactive" height="12" width="12" x="0.0" y="90.0" /><text x="17.0" y="99.0">i=0 k=1</text></g><g class="legend reactive activate-serie" id="activate-serie-6"><rect class="color-6 reactive" height="12" width="12" x="0.0" y="108.0" /><text x="17.0" y="117.0">i=1 k=0</text></g><g class="legend reactive activate-serie" id="activate-serie-7"><rect class="color-7 reactive" height="12" width="12" x="0.0" y="126.0" /><text x="17.0" y="135.0">i=1 k=1</text></g></g><g class="legends" transform="translate(790, 56)" /></g></svg>