<?xml version='1.0' encoding='utf-8'?>
<svg xmlns:xlink="http://www.w3.org/1999/xlink" class="pygal-chart" id="chart-3b47f8b6-ff6a-4d48-86bd-20fe938a8fee" viewBox="0 0 800 600" xmlns="http://www.w3.org/2000/svg"><!--Generated with pygal 2.4.0 (etree) ©Kozea 2012-2016 on 2017-12-19--><!--http://pygal.org--><!--http://github.com/Kozea/pygal--><defs><style type="text/css">#chart-3b47f8b6-ff6a-4d48-86bd-20fe938a8fee{-webkit-user-select:none;-webkit-font-smoothing:antialiased;font-family:Consolas,"Liberation Mono",Menlo,Courier,monospace}#chart-3b47f8b6-ff6a-4d48-86bd-20fe938a8fee .title{font-family:Consolas,"Liberation Mono",Menlo,Courier,monospace;font-size:16px}#chart-3b47f8b6-ff6a-4d48-86bd-20fe938a8fee .legends .legend text{font-family:Consolas,"Liberation Mono",Menlo,Courier,monospace;font-size:10px}#chart-3b47f8b6-ff6a-4d48-86bd-20fe938a8fee .axis text{font-family:Consolas,"Liberation Mono",Menlo,Courier,monospace;font-size:10px}#chart-3b47f8b6-ff6a-4d48-86bd-20fe938a8fee .axis text.major{font-family:Consolas,"Liberation Mono",Menlo,Courier,monospace;font-size:10px}#chart-3b47f8b6-ff6a-4d48-86bd-20fe938a8fee .text-overlay text.value{font-family:Consolas,"Liberation Mono",Menlo,Courier,monospace;font-size:16px}#chart-3b47f8b6-ff6a-4d48-86bd-20fe938a8fee .text-overlay text.label{font-family:Consolas,"Liberation Mono",Menlo,Courier,monospace;font-size:10px}#chart-3b47f8b6-ff6a-4d48-86bd-20fe938a8fee .tooltip{font-family:Consolas,"Liberation Mono",Menlo,Courier,monospace;font-size:14px}#chart-3b47f8b6-ff6a-4d48-86bd-20fe938a8fee text.no_data{font-family:Consolas,"Liberation Mono",Menlo,Courier,monospace;font-size:64px}
#chart-3b47f8b6-ff6a-4d48-86bd-20fe938a8fee{background-color:rgba(249,249,249,1)}#chart-3b47f8b6-ff6a-4d48-86bd-20fe938a8fee path,#chart-3b47f8b6-ff6a-4d48-86bd-20fe938a8fee line,#chart-3b47f8b6-ff6a-4d48-86bd-20fe938a8fee rect,#chart-3b47f8b6-ff6a-4d48-86bd-20fe938a8fee circle{-webkit-transition:150ms;-moz-transition:150ms;transition:150ms}#chart-3b47f8b6-ff6a-4d48-86bd-20fe938a8fee .graph &gt; .background{fill:rgba(249,249,249,1)}#chart-3b47f8b6-ff6a-4d48-86bd-20fe938a8fee .plot &gt; .background{fill:rgba(255,255,255,1)}#chart-3b47f8b6-ff6a-4d48-86bd-20fe938a8fee .graph{fill:rgba(0,0,0,.87)}#chart-3b47f8b6-ff6a-4d48-86bd-20fe938a8fee text.no_data{fill:rgba(0,0,0,1)}#chart-3b47f8b6-ff6a-4d48-86bd-20fe938a8fee .title{fill:rgba(0,0,0,1)}#chart-3b47f8b6-ff6a-4d48-86bd-20fe938a8fee .legends .legend text{fill:rgba(0,0,0,.87)}#chart-3b47f8b6-ff6a-4d48-86bd-20fe938a8fee .legends .legend:hover text{fill:rgba(0,0,0,1)}#chart-3b47f8b6-ff6a-4d48-86bd-20fe938a8fee .axis .line{stroke:rgba(0,0,0,1)}#chart-3b47f8b6-ff6a-4d48-86bd-20fe938a8fee .axis .guide.line{stroke:rgba(0,0,0,.54)}#chart-3b47f8b6-ff6a-4d48-86bd-20fe938a8fee .axis .major.line{stroke:rgba(0,0,0,.87)}#chart-3b47f8b6-ff6a-4d48-86bd-20fe938a8fee .axis text.major{fill:rgba(0,0,0,1)}#chart-3b47f8b6-ff6a-4d48-86bd-20fe938a8fee .axis.y .guides:hover .guide.line,#chart-3b47f8b6-ff6a-4d48-86bd-20fe938a8fee .line-graph .axis.x .guides:hover .guide.line,#chart-3b47f8b6-ff6a-4d48-86bd-20fe938a8fee .stackedline-graph .axis.x .guides:hover .guide.line,#chart-3b47f8b6-ff6a-4d48-86bd-20fe938a8fee .xy-graph .axis.x .guides:hover .guide.line{stroke:rgba(0,0,0,1)}#chart-3b47f8b6-ff6a-4d48-86bd-20fe938a8fee .axis .guides:hover text{fill:rgba(0,0,0,1)}#chart-3b47f8b6-ff6a-4d48-86bd-20fe938a8fee .reactive{fill-opacity:.7;stroke-opacity:.8}#chart-3b47f8b6-ff6a-4d48-86bd-20fe938a8fee .ci{stroke:rgba(0,0,0,.87)}#chart-3b47f8b6-ff6a-4d48-86bd-20fe938a8fee .reactive.active,#chart-3b47f8b6-ff6a-4d48-86bd-20fe938a8fee .active .reactive{fill-opacity:.8;stroke-opacity:.9;stroke-width:4}#chart-3b47f8b6-ff6a-4d48-86bd-20fe938a8fee .ci .reactive.active{stroke-width:1.5}#chart-3b47f8b6-ff6a-4d48-86bd-20fe938a8fee .series text{fill:rgba(0,0,0,1)}#chart-3b47f8b6-ff6a-4d48-86bd-20fe938a8fee .tooltip rect{fill:rgba(255,255,255,1);stroke:rgba(0,0,0,1);-webkit-transition:opacity 150ms;-moz-transition:opacity 150ms;transition:opacity 150ms}#chart-3b47f8b6-ff6a-4d48-86bd-20fe938a8fee .tooltip .label{fill:rgba(0,0,0,.87)}#chart-3b47f8b6-ff6a-4d48-86bd-20fe938a8fee .tooltip .label{fill:rgba(0,0,0,.87)}#chart-3b47f8b6-ff6a-4d48-86bd-20fe938a8fee .tooltip .legend{font-size:.8em;fill:rgba(0,0,0,.54)}#chart-3b47f8b6-ff6a-4d48-86bd-20fe938a8fee .tooltip .x_label{font-size:.6em;fill:rgba(0,0,0,1)}#chart-3b47f8b6-ff6a-4d48-86bd-20fe938a8fee .tooltip .xlink{font-size:.5em;text-decoration:underline}#chart-3b47f8b6-ff6a-4d48-86bd-20fe938a8fee .tooltip .value{font-size:1.5em}#chart-3b47f8b6-ff6a-4d48-86bd-20fe938a8fee .bound{font-size:.5em}#chart-3b47f8b6-ff6a-4d48-86bd-20fe938a8fee .max-value{font-size:.75em;fill:rgba(0,0,0,.54)}#chart-3b47f8b6-ff6a-4d48-86bd-20fe938a8fee .map-element{fill:rgba(255,255,255,1);stroke:rgba(0,0,0,.54) !important}#chart-3b47f8b6-ff6a-4d48-86bd-20fe938a8fee .map-element .reactive{fill-opacity:inherit;stroke-opacity:inherit}#chart-3b47f8b6-ff6a-4d48-86bd-20fe938a8fee .color-0,#chart-3b47f8b6-ff6a-4d48-86bd-20fe938a8fee .color-0 a:visited{stroke:#909090;fill:#909090}#chart-3b47f8b6-ff6a-4d48-86bd-20fe938a8fee .color-1,#chart-3b47f8b6-ff6a-4d48-86bd-20fe938a8fee .color-1 a:visited{stroke:#000000;fill:#000000}#chart-3b47f8b6-ff6a-4d48-86bd-20fe938a8fee .color-2,#chart-3b47f8b6-ff6a-4d48-86bd-20fe938a8fee .color-2 a:visited{stroke:#ff0500;fill:#ff0500}#chart-3b47f8b6-ff6a-4d48-86bd-20fe938a8fee .color-3,#chart-3b47f8b6-ff6a-4d48-86bd-20fe938a8fee .color-3 a:visited{stroke:#323299;fill:#323299}#chart-3b47f8b6-ff6a-4d48-86bd-20fe938a8fee .color-4,#chart-3b47f8b6-ff6a-4d48-86bd-20fe938a8fee .color-4 a:visited{stroke:#a3413f;fill:#a3413f}#chart-3b47f8b6-ff6a-4d48-86bd-20fe938a8fee .color-5,#chart-3b47f8b6-ff6a-4d48-86bd-20fe938a8fee .color-5 a:visited{stroke:#a3413f;fill:#a3413f}#chart-3b47f8b6-ff6a-4d48-86bd-20fe938a8fee .color-6,#chart-3b47f8b6-ff6a-4d48-86bd-20fe938a8fee .color-6 a:visited{stroke:#a3413f;fill:#a3413f}#chart-3b47f8b6-ff6a-4d48-86bd-20fe938a8fee .color-7,#chart-3b47f8b6-ff6a-4d48-86bd-20fe938a8fee .color-7 a:visited{stroke:#a3413f;fill:#a3413f}#chart-3b47f8b6-ff6a-4d48-86bd-20fe938a8fee .color-8,#chart-3b47f8b6-ff6a-4d48-86bd-20fe938a8fee .color-8 a:visited{stroke:#a3413f;fill:#a3413f}#chart-3b47f8b6-ff6a-4d48-86bd-20fe938a8fee .color-9,#chart-3b47f8b6-ff6a-4d48-86bd-20fe938a8fee .color-9 a:visited{stroke:#657fff;fill:#657fff}#chart-3b47f8b6-ff6a-4d48-86bd-20fe938a8fee .color-10,#chart-3b47f8b6-ff6a-4d48-86bd-20fe938a8fee .color-10 a:visited{stroke:#657fff;fill:#657fff}#chart-3b47f8b6-ff6a-4d48-86bd-20fe938a8fee .color-11,#chart-3b47f8b6-ff6a-4d48-86bd-20fe938a8fee .color-11 a:visited{stroke:#657fff;fill:#657fff}#chart-3b47f8b6-ff6a-4d48-86bd-20fe938a8fee .color-12,#chart-3b47f8b6-ff6a-4d48-86bd-20fe938a8fee .color-12 a:visited{stroke:#657fff;fill:#657fff}#chart-3b47f8b6-ff6a-4d48-86bd-20fe938a8fee .color-13,#chart-3b47f8b6-ff6a-4d48-86bd-20fe938a8fee .color-13 a:visited{stroke:#657fff;fill:#657fff}#chart-3b47f8b6-ff6a-4d48-86bd-20fe938a8fee .text-overlay .color-0 text{fill:black}#chart-3b47f8b6-ff6a-4d48-86bd-20fe938a8fee .text-overlay .color-1 text{fill:white}#chart-3b47f8b6-ff6a-4d48-86bd-20fe938a8fee .text-overlay .color-2 text{fill:black}#chart-3b47f8b6-ff6a-4d48-86bd-20fe938a8fee .text-overlay .color-3 text{fill:black}#chart-3b47f8b6-ff6a-4d48-86bd-20fe938a8fee .text-overlay .color-4 text{fill:black}#chart-3b47f8b6-ff6a-4d48-86bd-20fe938a8fee .text-overlay .color-5 text{fill:black}#chart-3b47f8b6-ff6a-4d48-86bd-20fe938a8fee .text-overlay .color-6 text{fill:black}#chart-3b47f8b6-ff6a-4d48-86bd-20fe938a8fee .text-overlay .color-7 text{fill:black}#chart-3b47f8b6-ff6a-4d48-86bd-20fe938a8fee .text-overlay .color-8 text{fill:black}#chart-3b47f8b6-ff6a-4d48-86bd-20fe938a8fee .text-overlay .color-9 text{fill:black}#chart-3b47f8b6-ff6a-4d48-86bd-20fe938a8fee .text-overlay .color-10 text{fill:black}#chart-3b47f8b6-ff6a-4d48-86bd-20fe938a8fee .text-overlay .color-11 text{fill:black}#chart-3b47f8b6-ff6a-4d48-86bd-20fe938a8fee .text-overlay .color-12 text{fill:black}#chart-3b47f8b6-ff6a-4d48-86bd-20fe938a8fee .text-overlay .color-13 text{fill:black}#chart-3b47f8b6-ff6a-4d48-86bd-20fe938a8fee .series.serie-1{stroke-width:5}#chart-3b47f8b6-ff6a-4d48-86bd-20fe938a8fee .series.serie-2{stroke-width:3}#chart-3b47f8b6-ff6a-4d48-86bd-20fe938a8fee .series.serie-3{stroke-width:3}#chart-3b47f8b6-ff6a-4d48-86bd-20fe938a8fee .series.serie-4{stroke-width:2;stroke-dasharray:2,2}#chart-3b47f8b6-ff6a-4d48-86bd-20fe938a8fee .series.serie-5{stroke-width:2;stroke-dasharray:2,2}#chart-3b47f8b6-ff6a-4d48-86bd-20fe938a8fee .series.serie-6{stroke-width:2;stroke-dasharray:2,2}#chart-3b47f8b6-ff6a-4d48-86bd-20fe938a8fee .series.serie-7{stroke-width:2;stroke-dasharray:2,2}#chart-3b47f8b6-ff6a-4d48-86bd-20fe938a8fee .series.serie-8{stroke-width:2;stroke-dasharray:2,2}#chart-3b47f8b6-ff6a-4d48-86bd-20fe938a8fee .series.serie-9{stroke-width:2;stroke-dasharray:2,2}#chart-3b47f8b6-ff6a-4d48-86bd-20fe938a8fee .series.serie-10{stroke-width:2;stroke-dasharray:2,2}#chart-3b47f8b6-ff6a-4d48-86bd-20fe938a8fee .series.serie-11{stroke-width:2;stroke-dasharray:2,2}#chart-3b47f8b6-ff6a-4d48-86bd-20fe938a8fee .series.serie-12{stroke-width:2;stroke-dasharray:2,2}#chart-3b47f8b6-ff6a-4d48-86bd-20fe938a8fee .series.serie-13{stroke-width:2;stroke-dasharray:2,2}
#chart-3b47f8b6-ff6a-4d48-86bd-20fe938a8fee text.no_data{text-anchor:middle}#chart-3b47f8b6-ff6a-4d48-86bd-20fe938a8fee .guide.line{fill:none}#chart-3b47f8b6-ff6a-4d48-86bd-20fe938a8fee .centered{text-anchor:middle}#chart-3b47f8b6-ff6a-4d48-86bd-20fe938a8fee .title{text-anchor:middle}#chart-3b47f8b6-ff6a-4d48-86bd-20fe938a8fee .legends .legend text{fill-opacity:1}#chart-3b47f8b6-ff6a-4d48-86bd-20fe938a8fee .axis.x text{text-anchor:middle}#chart-3b47f8b6-ff6a-4d48-86bd-20fe938a8fee .axis.x:not(.web) text[transform]{text-anchor:start}#chart-3b47f8b6-ff6a-4d48-86bd-20fe938a8fee .axis.x:not(.web) text[transform].backwards{text-anchor:end}#chart-3b47f8b6-ff6a-4d48-86bd-20fe938a8fee .axis.y text{text-anchor:end}#chart-3b47f8b6-ff6a-4d48-86bd-20fe938a8fee .axis.y text[transform].backwards{text-anchor:start}#chart-3b47f8b6-ff6a-4d48-86bd-20fe938a8fee .axis.y2 text{text-anchor:start}#chart-3b47f8b6-ff6a-4d48-86bd-20fe938a8fee .axis.y2 text[transform].backwards{text-anchor:end}#chart-3b47f8b6-ff6a-4d48-86bd-20fe938a8fee .axis .guide.line{stroke-dasharray:4,4}#chart-3b47f8b6-ff6a-4d48-86bd-20fe938a8fee .axis .major.guide.line{stroke-dasharray:6,6}#chart-3b47f8b6-ff6a-4d48-86bd-20fe938a8fee .horizontal .axis.y .guide.line,#chart-3b47f8b6-ff6a-4d48-86bd-20fe938a8fee .horizontal .axis.y2 .guide.line,#chart-3b47f8b6-ff6a-4d48-86bd-20fe938a8fee .vertical .axis.x .guide.line{opacity:0}#chart-3b47f8b6-ff6a-4d48-86bd-20fe938a8fee .horizontal .axis.always_show .guide.line,#chart-3b47f8b6-ff6a-4d48-86bd-20fe938a8fee .vertical .axis.always_show .guide.line{opacity:1 !important}#chart-3b47f8b6-ff6a-4d48-86bd-20fe938a8fee .axis.y .guides:hover .guide.line,#chart-3b47f8b6-ff6a-4d48-86bd-20fe938a8fee .axis.y2 .guides:hover .guide.line,#chart-3b47f8b6-ff6a-4d48-86bd-20fe938a8fee .axis.x .guides:hover .guide.line{opacity:1}#chart-3b47f8b6-ff6a-4d48-86bd-20fe938a8fee .axis .guides:hover text{opacity:1}#chart-3b47f8b6-ff6a-4d48-86bd-20fe938a8fee .nofill{fill:none}#chart-3b47f8b6-ff6a-4d48-86bd-20fe938a8fee .subtle-fill{fill-opacity:.2}#chart-3b47f8b6-ff6a-4d48-86bd-20fe938a8fee .dot{stroke-width:1px;fill-opacity:1}#chart-3b47f8b6-ff6a-4d48-86bd-20fe938a8fee .dot.active{stroke-width:5px}#chart-3b47f8b6-ff6a-4d48-86bd-20fe938a8fee .dot.negative{fill:transparent}#chart-3b47f8b6-ff6a-4d48-86bd-20fe938a8fee text,#chart-3b47f8b6-ff6a-4d48-86bd-20fe938a8fee tspan{stroke:none !important}#chart-3b47f8b6-ff6a-4d48-86bd-20fe938a8fee .series text.active{opacity:1}#chart-3b47f8b6-ff6a-4d48-86bd-20fe938a8fee .tooltip rect{fill-opacity:.95;stroke-width:.5}#chart-3b47f8b6-ff6a-4d48-86bd-20fe938a8fee .tooltip text{fill-opacity:1}#chart-3b47f8b6-ff6a-4d48-86bd-20fe938a8fee .showable{visibility:hidden}#chart-3b47f8b6-ff6a-4d48-86bd-20fe938a8fee .showable.shown{visibility:visible}#chart-3b47f8b6-ff6a-4d48-86bd-20fe938a8fee .gauge-background{fill:rgba(229,229,229,1);stroke:none}#chart-3b47f8b6-ff6a-4d48-86bd-20fe938a8fee .bg-lines{stroke:rgba(249,249,249,1);stroke-width:2px}</style><script type="text/javascript">window.pygal = window.pygal || {};window.pygal.config = window.pygal.config || {};window.pygal.config['3b47f8b6-ff6a-4d48-86bd-20fe938a8fee'] = {"css": ["file://style.css", "file://graph.css"], "include_x_axis": false, "min_scale": 4, "print_zeroes": true, "show_x_labels": true, "stroke": true, "show_minor_y_labels": true, "inner_radius": 0, "fill": false, "pretty_print": false, "js": ["//kozea.github.io/pygal.js/2.0.x/pygal-tooltips.min.js"], "x_labels": ["-8.96", "-8.76", "-8.56", "-8.36", "-8.16", "-7.96", "-7.76", "-7.56", "-7.36", "-7.16", "-6.96", "-6.76", "-6.56", "-6.36", "-6.16", "-5.96", "-5.76", "-5.56", "-5.36", "-5.16", "-4.96", "-4.76", "-4.56", "-4.36", "-4.16", "-3.96", "-3.76", "-3.56", "-3.36", "-3.16", "-2.96", "-2.76", "-2.56", "-2.36", "-2.16", "-1.96", "-1.76", "-1.56", "-1.36", "-1.16", "-0.96", "-0.76", "-0.56", "-0.36", "-0.16", "0.04", "0.24", "0.44", "0.64", "0.84", "1.04", "1.24", "1.43", "1.63", "1.83", "2.03", "2.23", "2.43", "2.63", "2.83"], "logarithmic": false, "show_minor_x_labels": false, "formatter": null, "tooltip_fancy_mode": true, "defs": [], "stroke_style": null, "spacing": 10, "show_only_major_dots": false, "half_pie": false, "show_legend": true, "dynamic_print_values": false, "max_scale": 16, "explicit_size": false, "y_label_rotation": 0, "y_labels": null, "x_labels_major": null, "margin_top": null, "interpolation_precision": 250, "xrange": null, "order_min": null, "y_title": "Density", "title": "Iteration #3", "x_label_rotation": 60, "interpolation_parameters": {}, "stack_from_top": false, "truncate_legend": null, "x_title": "Observation", "show_y_guides": true, "no_prefix": false, "print_values_position": "center", "show_y_labels": true, "classes": ["pygal-chart"], "force_uri_protocol": "https", "x_labels_major_count": null, "allow_interruptions": false, "width": 800, "height": 600, "secondary_range": null, "box_mode": "extremes", "margin_left": null, "y_labels_major": null, "margin_right": null, "zero": 0, "dots_size": 2.5, "no_data_text": "No data", "show_dots": false, "range": [0, 0.27578580090479526], "truncate_label": null, "margin_bottom": null, "y_labels_major_every": null, "show_x_guides": false, "disable_xml_declaration": false, "print_values": false, "x_labels_major_every": 2, "print_labels": false, "y_labels_major_count": null, "interpolate": null, "legend_at_bottom": false, "style": {"value_font_size": 16, "tooltip_font_family": "Consolas, \"Liberation Mono\", Menlo, Courier, monospace", "major_label_font_family": "Consolas, \"Liberation Mono\", Menlo, Courier, monospace", "value_colors": [], "value_background": "rgba(229, 229, 229, 1)", "foreground_strong": "rgba(0, 0, 0, 1)", "opacity": ".7", "font_family": "Consolas, \"Liberation Mono\", Menlo, Courier, monospace", "label_font_size": 10, "transition": "150ms", "title_font_family": "Consolas, \"Liberation Mono\", Menlo, Courier, monospace", "background": "rgba(249, 249, 249, 1)", "stroke_opacity": ".8", "no_data_font_size": 64, "value_label_font_family": "Consolas, \"Liberation Mono\", Menlo, Courier, monospace", "value_label_font_size": 10, "value_font_family": "Consolas, \"Liberation Mono\", Menlo, Courier, monospace", "plot_background": "rgba(255, 255, 255, 1)", "colors": ["#909090", "#000000", "#ff0500", "#323299", "#a3413f", "#a3413f", "#a3413f", "#a3413f", "#a3413f", "#657fff", "#657fff", "#657fff", "#657fff", "#657fff"], "legend_font_size": 10, "guide_stroke_dasharray": "4,4", "major_label_font_size": 10, "stroke_opacity_hover": ".9", "major_guide_stroke_dasharray": "6,6", "opacity_hover": ".8", "no_data_font_family": "Consolas, \"Liberation Mono\", Menlo, Courier, monospace", "title_font_size": 16, "ci_colors": [], "foreground": "rgba(0, 0, 0, .87)", "foreground_subtle": "rgba(0, 0, 0, .54)", "legend_font_family": "Consolas, \"Liberation Mono\", Menlo, Courier, monospace", "label_font_family": "Consolas, \"Liberation Mono\", Menlo, Courier, monospace", "tooltip_font_size": 14}, "strict": false, "legend_box_size": 12, "tooltip_border_radius": 0, "margin": 20, "legends": ["Data", "GMM", "i=0", "i=1", "i=0 k=0", "i=0 k=1", "i=0 k=2", "i=0 k=3", "i=0 k=4", "i=1 k=0", "i=1 k=1", "i=1 k=2", "i=1 k=3", "i=1 k=4"], "inverse_y_axis": false, "legend_at_bottom_columns": null, "rounded_bars": null, "missing_value_fill_truncation": "x"}</script><script type="text/javascript" xlink:href="https://kozea.github.io/pygal.js/2.0.x/pygal-tooltips.min.js" /></defs><title>Iteration #3</title><g class="graph line-graph vertical"><rect class="background" height="600" width="800" x="0" y="0" /><g class="plot" transform="translate(144, 46)"><rect class="background" height="472.01923788646684" width="636.0" x="0" y="0" /><g class="axis y always_show"><g class="guides"><path class="axis major line" d="M0.000000 462.941945 h636.000000" /><text class="major" x="-5" y="466.44194485">0</text><title>0</title></g><g class="guides"><path class="guide line" d="M0.000000 430.027658 h636.000000" /><text class="" x="-5" y="433.527657724">0.02</text><title>0.02</title></g><g class="guides"><path class="guide line" d="M0.000000 397.113371 h636.000000" /><text class="" x="-5" y="400.613370598">0.04</text><title>0.04</title></g><g class="guides"><path class="guide line" d="M0.000000 364.199083 h636.000000" /><text class="" x="-5" y="367.699083472">0.06</text><title>0.06</title></g><g class="guides"><path class="guide line" d="M0.000000 331.284796 h636.000000" /><text class="" x="-5" y="334.784796346">0.08</text><title>0.08</title></g><g class="guides"><path class="guide line" d="M0.000000 298.370509 h636.000000" /><text class="" x="-5" y="301.87050922">0.1</text><title>0.1</title></g><g class="guides"><path class="guide line" d="M0.000000 265.456222 h636.000000" /><text class="" x="-5" y="268.956222094">0.12</text><title>0.12</title></g><g class="guides"><path class="guide line" d="M0.000000 232.541935 h636.000000" /><text class="" x="-5" y="236.041934968">0.14</text><title>0.14</title></g><g class="guides"><path class="guide line" d="M0.000000 199.627648 h636.000000" /><text class="" x="-5" y="203.127647841">0.16</text><title>0.16</title></g><g class="guides"><path class="guide line" d="M0.000000 166.713361 h636.000000" /><text class="" x="-5" y="170.213360715">0.18</text><title>0.18</title></g><g class="guides"><path class="guide line" d="M0.000000 133.799074 h636.000000" /><text class="" x="-5" y="137.299073589">0.2</text><title>0.2</title></g><g class="guides"><path class="guide line" d="M0.000000 100.884786 h636.000000" /><text class="" x="-5" y="104.384786463">0.22</text><title>0.22</title></g><g class="guides"><path class="guide line" d="M0.000000 67.970499 h636.000000" /><text class="" x="-5" y="71.4704993371">0.24</text><title>0.24</title></g><g class="guides"><path class="guide line" d="M0.000000 35.056212 h636.000000" /><text class="" x="-5" y="38.5562122111">0.26</text><title>0.26</title></g></g><g class="axis x"><g class="guides"><path class="major line" d="M12.230769 0.000000 v472.019238" /><text class="major" transform="rotate(60 12.230769 487.019238)" x="12.230769230769232" y="487.01923788646684">-8.96</text></g><g class="guides"><path class="major guide line" d="M32.960887 0.000000 v472.019238" /><text class="major" transform="rotate(60 32.960887 487.019238)" x="32.96088657105606" y="487.01923788646684">-8.56</text></g><g class="guides"><path class="major guide line" d="M53.691004 0.000000 v472.019238" /><text class="major" transform="rotate(60 53.691004 487.019238)" x="53.6910039113429" y="487.01923788646684">-8.16</text></g><g class="guides"><path class="major guide line" d="M74.421121 0.000000 v472.019238" /><text class="major" transform="rotate(60 74.421121 487.019238)" x="74.42112125162973" y="487.01923788646684">-7.76</text></g><g class="guides"><path class="major guide line" d="M95.151239 0.000000 v472.019238" /><text class="major" transform="rotate(60 95.151239 487.019238)" x="95.15123859191655" y="487.01923788646684">-7.36</text></g><g class="guides"><path class="major guide line" d="M115.881356 0.000000 v472.019238" /><text class="major" transform="rotate(60 115.881356 487.019238)" x="115.88135593220338" y="487.01923788646684">-6.96</text></g><g class="guides"><path class="major guide line" d="M136.611473 0.000000 v472.019238" /><text class="major" transform="rotate(60 136.611473 487.019238)" x="136.61147327249023" y="487.01923788646684">-6.56</text></g><g class="guides"><path class="major guide line" d="M157.341591 0.000000 v472.019238" /><text class="major" transform="rotate(60 157.341591 487.019238)" x="157.34159061277705" y="487.01923788646684">-6.16</text></g><g class="guides"><path class="major guide line" d="M178.071708 0.000000 v472.019238" /><text class="major" transform="rotate(60 178.071708 487.019238)" x="178.0717079530639" y="487.01923788646684">-5.76</text></g><g class="guides"><path class="major guide line" d="M198.801825 0.000000 v472.019238" /><text class="major" transform="rotate(60 198.801825 487.019238)" x="198.80182529335073" y="487.01923788646684">-5.36</text></g><g class="guides"><path class="major guide line" d="M219.531943 0.000000 v472.019238" /><text class="major" transform="rotate(60 219.531943 487.019238)" x="219.53194263363756" y="487.01923788646684">-4.96</text></g><g class="guides"><path class="major guide line" d="M240.262060 0.000000 v472.019238" /><text class="major" transform="rotate(60 240.262060 487.019238)" x="240.2620599739244" y="487.01923788646684">-4.56</text></g><g class="guides"><path class="major guide line" d="M260.992177 0.000000 v472.019238" /><text class="major" transform="rotate(60 260.992177 487.019238)" x="260.99217731421123" y="487.01923788646684">-4.16</text></g><g class="guides"><path class="major guide line" d="M281.722295 0.000000 v472.019238" /><text class="major" transform="rotate(60 281.722295 487.019238)" x="281.722294654498" y="487.01923788646684">-3.76</text></g><g class="guides"><path class="major guide line" d="M302.452412 0.000000 v472.019238" /><text class="major" transform="rotate(60 302.452412 487.019238)" x="302.4524119947849" y="487.01923788646684">-3.36</text></g><g class="guides"><path class="major guide line" d="M323.182529 0.000000 v472.019238" /><text class="major" transform="rotate(60 323.182529 487.019238)" x="323.1825293350717" y="487.01923788646684">-2.96</text></g><g class="guides"><path class="major guide line" d="M343.912647 0.000000 v472.019238" /><text class="major" transform="rotate(60 343.912647 487.019238)" x="343.91264667535853" y="487.01923788646684">-2.56</text></g><g class="guides"><path class="major guide line" d="M364.642764 0.000000 v472.019238" /><text class="major" transform="rotate(60 364.642764 487.019238)" x="364.64276401564535" y="487.01923788646684">-2.16</text></g><g class="guides"><path class="major guide line" d="M385.372881 0.000000 v472.019238" /><text class="major" transform="rotate(60 385.372881 487.019238)" x="385.37288135593224" y="487.01923788646684">-1.76</text></g><g class="guides"><path class="major guide line" d="M406.102999 0.000000 v472.019238" /><text class="major" transform="rotate(60 406.102999 487.019238)" x="406.102998696219" y="487.01923788646684">-1.36</text></g><g class="guides"><path class="major guide line" d="M426.833116 0.000000 v472.019238" /><text class="major" transform="rotate(60 426.833116 487.019238)" x="426.8331160365058" y="487.01923788646684">-0.96</text></g><g class="guides"><path class="major guide line" d="M447.563233 0.000000 v472.019238" /><text class="major" transform="rotate(60 447.563233 487.019238)" x="447.56323337679265" y="487.01923788646684">-0.56</text></g><g class="guides"><path class="major guide line" d="M468.293351 0.000000 v472.019238" /><text class="major" transform="rotate(60 468.293351 487.019238)" x="468.29335071707953" y="487.01923788646684">-0.16</text></g><g class="guides"><path class="major guide line" d="M489.023468 0.000000 v472.019238" /><text class="major" transform="rotate(60 489.023468 487.019238)" x="489.02346805736636" y="487.01923788646684">0.24</text></g><g class="guides"><path class="major guide line" d="M509.753585 0.000000 v472.019238" /><text class="major" transform="rotate(60 509.753585 487.019238)" x="509.75358539765324" y="487.01923788646684">0.64</text></g><g class="guides"><path class="major guide line" d="M530.483703 0.000000 v472.019238" /><text class="major" transform="rotate(60 530.483703 487.019238)" x="530.48370273794" y="487.01923788646684">1.04</text></g><g class="guides"><path class="major guide line" d="M551.213820 0.000000 v472.019238" /><text class="major" transform="rotate(60 551.213820 487.019238)" x="551.213820078227" y="487.01923788646684">1.43</text></g><g class="guides"><path class="major guide line" d="M571.943937 0.000000 v472.019238" /><text class="major" transform="rotate(60 571.943937 487.019238)" x="571.9439374185138" y="487.01923788646684">1.83</text></g><g class="guides"><path class="major guide line" d="M592.674055 0.000000 v472.019238" /><text class="major" transform="rotate(60 592.674055 487.019238)" x="592.6740547588006" y="487.01923788646684">2.23</text></g><g class="guides"><path class="major guide line" d="M613.404172 0.000000 v472.019238" /><text class="major" transform="rotate(60 613.404172 487.019238)" x="613.4041720990874" y="487.01923788646684">2.63</text></g></g><g class="series serie-0 color-0"><path class="line reactive" d="M12.230769 462.941945 L12.230769 462.019456 22.595828 462.941945 32.960887 461.096967 43.325945 462.019456 53.691004 459.251988 64.056063 462.019456 74.421121 458.329499 84.786180 462.019456 95.151239 458.329499 105.516297 462.019456 115.881356 448.182119 126.246415 460.174477 136.611473 457.407010 146.976532 457.407010 157.341591 451.872075 167.706649 448.182119 178.071708 454.639543 188.436767 445.414651 198.801825 442.647184 209.166884 436.189760 219.531943 437.112249 229.897001 392.832771 240.262060 396.522728 250.627119 376.227967 260.992177 355.933206 271.357236 351.320760 281.722295 325.491065 292.087353 277.521630 302.452412 283.056565 312.817471 202.800010 323.182529 188.040184 333.547588 169.590402 343.912647 123.465945 354.277705 95.791271 364.642764 67.194108 375.007823 82.876423 385.372881 60.736684 395.737940 80.108956 406.102999 29.372054 416.468057 9.077293 426.833116 70.884065 437.198175 69.039086 447.563233 41.364413 457.928292 40.441923 468.293351 91.178826 478.658409 140.993239 489.023468 214.792369 499.388527 259.071847 509.753585 321.801108 520.118644 364.235608 530.483703 408.515086 540.848761 430.654825 551.213820 448.182119 561.578879 455.562032 571.943937 458.329499 582.308996 458.329499 592.674055 462.019456 603.039113 462.941945 613.404172 462.019456 623.769231 462.941945" /></g><g class="series serie-1 color-1"><path class="line reactive nofill" d="M12.230769 462.879317 L22.595828 462.842196 32.960887 462.785556 43.325945 462.700579 53.691004 462.575215 64.056063 462.393355 74.421121 462.133912 84.786180 461.769887 95.151239 461.267435 105.516297 460.585021 115.881356 459.672676 126.246415 458.471396 136.611473 456.912620 146.976532 454.917711 157.341591 452.397281 167.706649 449.250179 178.071708 445.361988 188.436767 440.602976 198.801825 434.825676 209.166884 427.862545 219.531943 419.524565 229.897001 409.602005 240.262060 397.868902 250.627119 384.092949 260.992177 368.052291 271.357236 349.560170 281.722295 328.497171 292.087353 304.848948 302.452412 278.744756 312.817471 250.489234 323.182529 220.577768 333.547588 189.686171 343.912647 158.630309 354.277705 128.301722 364.642764 99.598900 375.007823 73.384437 385.372881 50.496569 395.737940 31.822602 406.102999 18.403808 416.468057 11.502399 426.833116 12.546557 437.198175 22.900069 447.563233 43.478117 457.928292 74.320141 468.293351 114.286249 478.658409 161.026534 489.023468 211.280288 499.388527 261.434523 509.753585 308.170208 520.118644 348.998437 530.483703 382.544535 540.848761 408.542029 551.213820 427.598192 561.578879 440.848369 571.943937 449.616296 582.308996 455.158457 592.674055 458.519397 603.039113 460.484820 613.404172 461.599650 623.769231 462.217005" /></g><g class="series serie-2 color-2"><path class="line reactive nofill" d="M12.230769 462.941945 L22.595828 462.941945 32.960887 462.941945 43.325945 462.941945 53.691004 462.941945 64.056063 462.941945 74.421121 462.941944 84.786180 462.941943 95.151239 462.941941 105.516297 462.941937 115.881356 462.941927 126.246415 462.941906 136.611473 462.941862 146.976532 462.941774 157.341591 462.941598 167.706649 462.941256 178.071708 462.940605 188.436767 462.939391 198.801825 462.937171 209.166884 462.933180 219.531943 462.926122 229.897001 462.913804 240.262060 462.892541 250.627119 462.856109 260.992177 462.793917 271.357236 462.687760 281.722295 462.506090 292.087353 462.194190 302.452412 461.658119 312.817471 460.740384 323.182529 459.186861 333.547588 456.608666 343.912647 452.450201 354.277705 445.984444 364.642764 436.364666 375.007823 422.760936 385.372881 404.592109 395.737940 381.826307 406.102999 355.273417 416.468057 326.753483 426.833116 299.023468 437.198175 275.400871 447.563233 259.128498 457.928292 252.640574 468.293351 256.959219 478.658409 271.428996 489.023468 293.884938 499.388527 321.193669 509.753585 349.979114 520.118644 377.299953 530.483703 401.096218 540.848761 420.332184 551.213820 434.875282 561.578879 445.220431 571.943937 452.180655 582.308996 456.632172 592.674055 459.352806 603.039113 460.950822 613.404172 461.858547 623.769231 462.360558" /></g><g class="series serie-3 color-3"><path class="line reactive nofill" d="M12.230769 462.879317 L22.595828 462.842196 32.960887 462.785556 43.325945 462.700579 53.691004 462.575216 64.056063 462.393355 74.421121 462.133913 84.786180 461.769888 95.151239 461.267439 105.516297 460.585029 115.881356 459.672694 126.246415 458.471435 136.611473 456.912702 146.976532 454.917882 157.341591 452.397628 167.706649 449.250869 178.071708 445.363328 188.436767 440.605529 198.801825 434.830450 209.166884 427.871310 219.531943 419.540389 229.897001 409.630145 240.262060 397.918306 250.627119 384.178785 260.992177 368.200319 271.357236 349.814355 281.722295 328.933026 292.087353 305.596703 302.452412 280.028582 312.817471 252.690794 323.182529 224.332852 333.547588 196.019450 343.912647 169.122053 354.277705 145.259223 364.642764 126.176179 375.007823 113.565446 385.372881 108.846404 395.737940 112.938239 406.102999 126.072335 416.468057 147.690860 426.833116 176.465034 437.198175 210.441143 447.563233 247.291564 457.928292 284.621512 468.293351 320.268975 478.658409 352.539483 489.023468 380.337295 499.388527 403.182798 509.753585 421.133038 520.118644 434.640428 530.483703 444.390262 540.848761 451.151790 551.213820 455.664855 561.578879 458.569883 571.943937 460.377586 582.308996 461.468229 592.674055 462.108536 603.039113 462.475943 613.404172 462.683048 623.769231 462.798392" /></g><g class="series serie-4 color-4"><path class="line reactive nofill" d="M12.230769 462.941945 L22.595828 462.941945 32.960887 462.941945 43.325945 462.941945 53.691004 462.941945 64.056063 462.941945 74.421121 462.941945 84.786180 462.941945 95.151239 462.941945 105.516297 462.941945 115.881356 462.941945 126.246415 462.941945 136.611473 462.941945 146.976532 462.941945 157.341591 462.941945 167.706649 462.941945 178.071708 462.941945 188.436767 462.941945 198.801825 462.941944 209.166884 462.941940 219.531943 462.941926 229.897001 462.941875 240.262060 462.941699 250.627119 462.941130 260.992177 462.939401 271.357236 462.934450 281.722295 462.921110 292.087353 462.887303 302.452412 462.806738 312.817471 462.626299 323.182529 462.246718 333.547588 461.497235 343.912647 460.109496 354.277705 457.702678 364.642764 453.798577 375.007823 447.887351 385.372881 439.555774 395.737940 428.667029 406.102999 415.548218 416.468057 401.112901 426.833116 386.840765 437.198175 374.569381 447.563233 366.120689 457.928292 362.861053 468.293351 365.339921 478.658409 373.138360 489.023468 384.984836 499.388527 399.094287 509.753585 413.606231 520.118644 426.974875 530.483703 438.203301 540.848761 446.888290 551.213820 453.113175 561.578879 457.264517 571.943937 459.847867 582.308996 461.351063 592.674055 462.170203 603.039113 462.588735 613.404172 462.789427 623.769231 462.879810" /></g><g class="series serie-5 color-5"><path class="line reactive nofill" d="M12.230769 462.941945 L22.595828 462.941945 32.960887 462.941945 43.325945 462.941945 53.691004 462.941945 64.056063 462.941945 74.421121 462.941945 84.786180 462.941945 95.151239 462.941945 105.516297 462.941945 115.881356 462.941945 126.246415 462.941945 136.611473 462.941945 146.976532 462.941945 157.341591 462.941945 167.706649 462.941945 178.071708 462.941945 188.436767 462.941944 198.801825 462.941942 209.166884 462.941934 219.531943 462.941907 229.897001 462.941820 240.262060 462.941550 250.627119 462.940760 260.992177 462.938572 271.357236 462.932843 281.722295 462.918648 292.087353 462.885387 302.452412 462.811724 312.817471 462.657584 323.182529 462.353020 333.547588 461.785163 343.912647 460.786958 354.277705 459.134452 364.642764 456.561735 375.007823 452.802083 385.372881 447.658175 395.737940 441.093011 406.102999 433.318788 416.468057 424.849947 426.833116 416.486408 437.198175 409.208765 447.563233 403.996681 457.928292 401.614253 468.293351 402.426582 478.658409 406.308107 489.023468 412.674402 499.388527 420.626330 509.753585 429.157641 520.118644 437.360174 530.483703 444.570320 540.848761 450.428818 551.213820 454.858705 561.578879 457.989651 571.943937 460.064357 582.308996 461.356131 592.674055 462.113093 603.039113 462.531076 613.404172 462.748779 623.769231 462.855814" /></g><g class="series serie-6 color-6"><path class="line reactive nofill" d="M12.230769 462.941945 L22.595828 462.941945 32.960887 462.941945 43.325945 462.941945 53.691004 462.941945 64.056063 462.941945 74.421121 462.941945 84.786180 462.941945 95.151239 462.941945 105.516297 462.941945 115.881356 462.941945 126.246415 462.941945 136.611473 462.941945 146.976532 462.941945 157.341591 462.941945 167.706649 462.941944 178.071708 462.941941 188.436767 462.941933 198.801825 462.941909 209.166884 462.941842 219.531943 462.941658 229.897001 462.941181 240.262060 462.939993 250.627119 462.937173 260.992177 462.930771 271.357236 462.916892 281.722295 462.888159 292.087353 462.831376 302.452412 462.724292 312.817471 462.531688 323.182529 462.201474 333.547588 461.662204 343.912647 460.824086 354.277705 459.585857 364.642764 457.849447 375.007823 455.542662 385.372881 452.647342 395.737940 449.227103 406.102999 445.446167 416.468057 441.570349 426.833116 437.944141 437.198175 434.943880 447.563233 432.914707 457.928292 432.105522 468.293351 432.618828 478.658409 434.389395 489.023468 437.197875 499.388527 440.715462 509.753585 444.567023 520.118644 448.396015 530.483703 451.915926 540.848761 454.938864 551.213820 457.379613 561.578879 459.240104 571.943937 460.582880 582.308996 461.502406 592.674055 462.100806 603.039113 462.471321 613.404172 462.689805 623.769231 462.812594" /></g><g class="series serie-7 color-7"><path class="line reactive nofill" d="M12.230769 462.941945 L22.595828 462.941945 32.960887 462.941945 43.325945 462.941945 53.691004 462.941945 64.056063 462.941945 74.421121 462.941945 84.786180 462.941945 95.151239 462.941945 105.516297 462.941945 115.881356 462.941945 126.246415 462.941944 136.611473 462.941943 146.976532 462.941940 157.341591 462.941931 167.706649 462.941909 178.071708 462.941855 188.436767 462.941730 198.801825 462.941447 209.166884 462.940829 219.531943 462.939525 229.897001 462.936866 240.262060 462.931639 250.627119 462.921716 260.992177 462.903542 271.357236 462.871433 281.722295 462.816725 292.087353 462.726871 302.452412 462.584661 312.817471 462.367898 323.182529 462.049892 333.547588 461.601211 343.912647 460.992981 354.277705 460.201799 364.642764 459.215861 375.007823 458.041444 385.372881 456.708367 395.737940 455.272866 406.102999 453.816417 416.468057 452.439710 426.833116 451.251947 437.198175 450.356861 447.563233 449.837858 457.928292 449.745214 468.293351 450.088045 478.658409 450.832829 489.023468 451.908810 499.388527 453.219077 509.753585 454.654917 520.118644 456.110506 530.483703 457.495231 540.848761 458.741785 551.213820 459.809337 561.578879 460.682221 571.943937 461.365374 582.308996 461.878094 592.674055 462.247629 603.039113 462.503675 613.404172 462.674376 623.769231 462.783951" /></g><g class="series serie-8 color-8"><path class="line reactive nofill" d="M12.230769 462.941945 L22.595828 462.941945 32.960887 462.941945 43.325945 462.941945 53.691004 462.941945 64.056063 462.941945 74.421121 462.941944 84.786180 462.941943 95.151239 462.941941 105.516297 462.941937 115.881356 462.941927 126.246415 462.941907 136.611473 462.941864 146.976532 462.941779 157.341591 462.941612 167.706649 462.941293 178.071708 462.940698 188.436767 462.939618 198.801825 462.937708 209.166884 462.934414 219.531943 462.928885 229.897001 462.919842 240.262060 462.905440 250.627119 462.883110 260.992177 462.849411 271.357236 462.799922 281.722295 462.729227 292.087353 462.631034 302.452412 462.498484 312.817471 462.324694 323.182529 462.103537 333.547588 461.830633 343.912647 461.504459 354.277705 461.127438 364.642764 460.706825 375.007823 460.255176 385.372881 459.790231 395.737940 459.334078 406.102999 458.911607 416.468057 458.548355 426.833116 458.267988 437.198175 458.089762 447.563233 458.026342 457.928292 458.082311 468.293351 458.253622 478.658409 458.528084 489.023468 458.886795 499.388527 459.306292 509.753585 459.761081 520.118644 460.226163 530.483703 460.679219 540.848761 461.102206 551.213820 461.482232 561.578879 461.811717 571.943937 462.087957 582.308996 462.312258 592.674055 462.488855 603.039113 462.623795 613.404172 462.723940 623.769231 462.796168" /></g><g class="series serie-9 color-9"><path class="line reactive nofill" d="M12.230769 462.941945 L22.595828 462.941945 32.960887 462.941945 43.325945 462.941945 53.691004 462.941945 64.056063 462.941945 74.421121 462.941945 84.786180 462.941945 95.151239 462.941945 105.516297 462.941945 115.881356 462.941944 126.246415 462.941941 136.611473 462.941933 146.976532 462.941907 157.341591 462.941832 167.706649 462.941624 178.071708 462.941072 188.436767 462.939668 198.801825 462.936253 209.166884 462.928302 219.531943 462.910601 229.897001 462.872922 240.262060 462.796253 250.627119 462.647178 260.992177 462.370304 271.357236 461.879348 281.722295 461.048662 292.087353 459.708512 302.452412 457.648802 312.817471 454.636461 323.182529 450.450356 333.547588 444.933679 343.912647 438.057521 354.277705 429.982133 364.642764 421.096968 375.007823 412.020185 385.372881 403.544886 395.737940 396.532792 406.102999 391.772693 416.468057 389.835051 426.833116 390.959645 437.198175 395.006789 447.563233 401.485859 457.928292 409.653054 468.293351 418.651512 478.658409 427.657391 489.023468 435.998023 499.388527 443.220513 509.753585 449.105722 520.118644 453.637336 530.483703 456.944308 540.848761 459.236301 551.213820 460.747379 561.578879 461.696183 571.943937 462.264112 582.308996 462.588426 592.674055 462.765218 603.039113 462.857262 613.404172 462.903050 623.769231 462.924822" /></g><g class="series serie-10 color-10"><path class="line reactive nofill" d="M12.230769 462.941945 L22.595828 462.941945 32.960887 462.941945 43.325945 462.941945 53.691004 462.941945 64.056063 462.941945 74.421121 462.941944 84.786180 462.941942 95.151239 462.941937 105.516297 462.941923 115.881356 462.941882 126.246415 462.941774 136.611473 462.941496 146.976532 462.940809 157.341591 462.939174 167.706649 462.935434 178.071708 462.927200 188.436767 462.909768 198.801825 462.874281 209.166884 462.804831 219.531943 462.674208 229.897001 462.438161 240.262060 462.028490 250.627119 461.345933 260.992177 460.254793 271.357236 458.582260 281.722295 456.126023 292.087353 452.673589 302.452412 448.035160 312.817471 442.088691 323.182529 434.831324 333.547588 426.426735 343.912647 417.234817 354.277705 407.810317 364.642764 398.861655 375.007823 391.169972 385.372881 385.479346 395.737940 382.378875 406.102999 382.202323 416.468057 384.968957 426.833116 390.380085 437.198175 397.872156 447.563233 406.713360 457.928292 416.120839 468.293351 425.372658 478.658409 433.892958 489.023468 441.298031 499.388527 447.402076 509.753585 452.190528 520.118644 455.774064 530.483703 458.337019 540.848761 460.091181 551.213820 461.241327 561.578879 461.964350 571.943937 462.400421 582.308996 462.652888 592.674055 462.793264 603.039113 462.868250 613.404172 462.906747 623.769231 462.925745" /></g><g class="series serie-11 color-11"><path class="line reactive nofill" d="M12.230769 462.941945 L22.595828 462.941944 32.960887 462.941944 43.325945 462.941942 53.691004 462.941936 64.056063 462.941921 74.421121 462.941881 84.786180 462.941783 95.151239 462.941545 105.516297 462.940988 115.881356 462.939727 126.246415 462.936970 136.611473 462.931136 146.976532 462.919207 157.341591 462.895626 167.706649 462.850575 178.071708 462.767414 188.436767 462.619114 198.801825 462.363707 209.166884 461.939018 219.531943 461.257480 229.897001 460.202360 240.262060 458.627370 250.627119 456.362013 260.992177 453.224881 271.357236 449.046291 281.722295 443.699815 292.087353 437.139697 302.452412 429.438290 312.817471 420.815281 323.182529 411.649642 333.547588 402.466709 343.912647 393.896794 354.277705 386.607766 364.642764 381.220669 375.007823 378.222816 385.372881 377.895127 395.737940 380.268717 406.102999 385.120020 416.468057 392.005522 426.833116 400.328610 437.198175 409.424590 447.563233 418.647151 457.928292 427.440914 468.293351 435.389541 478.658409 442.235370 489.023468 447.872846 499.388527 452.322629 509.753585 455.695316 520.118644 458.153375 530.483703 459.877825 540.848761 461.043334 551.213820 461.802754 561.578879 462.280053 571.943937 462.569546 582.308996 462.739055 592.674055 462.834906 603.039113 462.887262 613.404172 462.914893 623.769231 462.928986" /></g><g class="series serie-12 color-12"><path class="line reactive nofill" d="M12.230769 462.941922 L22.595828 462.941889 32.960887 462.941813 43.325945 462.941639 53.691004 462.941255 64.056063 462.940432 74.421121 462.938713 84.786180 462.935230 95.151239 462.928366 105.516297 462.915225 115.881356 462.890778 126.246415 462.846596 136.611473 462.769038 146.976532 462.636817 157.341591 462.417955 167.706649 462.066284 178.071708 461.517910 188.436767 460.688345 198.801825 459.471345 209.166884 457.740742 219.531943 455.356612 229.897001 452.176870 240.262060 448.074681 250.627119 442.960973 260.992177 436.809880 271.357236 429.683464 281.722295 421.750913 292.087353 413.297061 302.452412 404.715819 312.817471 396.486149 323.182529 389.131232 333.547588 383.164981 343.912647 379.033209 354.277705 377.058704 364.642764 377.399583 375.007823 380.028374 385.372881 384.735675 395.737940 391.157707 406.102999 398.822732 416.468057 407.208120 426.833116 415.798526 437.198175 424.136303 447.563233 431.857706 457.928292 438.711735 468.293351 444.561937 478.658409 449.374260 489.023468 453.195698 499.388527 456.128910 509.753585 458.307311 520.118644 459.873900 530.483703 460.965523 540.848761 461.702951 551.213820 462.186104 561.578879 462.493238 571.943937 462.682726 582.308996 462.796217 592.674055 462.862221 603.039113 462.899502 613.404172 462.919956 623.769231 462.930859" /></g><g class="series serie-13 color-13"><path class="line reactive nofill" d="M12.230769 462.879340 L22.595828 462.842252 32.960887 462.785689 43.325945 462.700888 53.691004 462.575914 64.056063 462.394893 74.421121 462.137209 84.786180 461.776768 95.151239 461.281425 105.516297 460.612728 115.881356 459.726142 126.246415 458.571933 136.611473 457.096879 146.976532 455.246922 157.341591 452.970821 167.706649 450.224731 178.071708 446.977511 188.436767 443.216413 198.801825 438.952644 209.166884 434.226196 219.531943 429.109267 229.897001 423.707613 240.262060 418.159291 250.627119 412.630468 260.992177 407.308241 271.357236 402.390772 281.722295 398.075392 292.087353 394.545623 302.452412 391.958291 312.817471 390.431992 323.182529 390.038077 333.547588 390.795126 343.912647 392.667491 354.277705 395.568083 364.642764 399.365085 375.007823 403.891879 385.372881 408.959150 395.737940 414.367928 406.102999 419.922347 416.468057 425.440988 426.833116 430.765948 437.198175 435.769084 447.563233 440.355266 457.928292 444.462749 468.293351 448.061106 478.658409 451.147284 489.023468 453.740476 499.388527 455.876451 509.753585 457.601941 520.118644 458.969533 530.483703 460.033367 540.848761 460.845802 551.213820 461.455070 561.578879 461.903838 571.943937 462.228561 582.308996 462.459422 592.674055 462.620707 603.039113 462.731447 613.404172 462.806181 623.769231 462.855759" /></g></g><g class="titles"><text class="title plot_title" x="400.0" y="26">Iteration #3</text><text class="title" x="462.0" y="580.0">Observation</text><text class="title" transform="rotate(-90 64.000000 282.009619)" x="64.0" y="308.0096189432334">Density</text></g><g class="plot overlay" transform="translate(144, 46)"><g class="series serie-0 color-0" /><g class="series serie-1 color-1" /><g class="series serie-2 color-2" /><g class="series serie-3 color-3" /><g class="series serie-4 color-4" /><g class="series serie-5 color-5" /><g class="series serie-6 color-6" /><g class="series serie-7 color-7" /><g class="series serie-8 color-8" /><g class="series serie-9 color-9" /><g class="series serie-10 color-10" /><g class="series serie-11 color-11" /><g class="series serie-12 color-12" /><g class="series serie-13 color-13" /></g><g class="plot text-overlay" transform="translate(144, 46)"><g class="series serie-0 color-0" /><g class="series serie-1 color-1" /><g class="series serie-2 color-2" /><g class="series serie-3 color-3" /><g class="series serie-4 color-4" /><g class="series serie-5 color-5" /><g class="series serie-6 color-6" /><g class="series serie-7 color-7" /><g class="series serie-8 color-8" /><g class="series serie-9 color-9" /><g class="series serie-10 color-10" /><g class="series serie-11 color-11" /><g class="series serie-12 color-12" /><g class="series serie-13 color-13" /></g><g class="plot tooltip-overlay" transform="translate(144, 46)"><g class="tooltip" style="opacity: 0" transform="translate(0 0)"><rect class="tooltip-box" height="0" rx="0" ry="0" width="0" /><g class="text" /></g></g><g class="legends" transform="translate(10, 56)"><g class="legend reactive activate-serie" id="activate-serie-0"><rect class="color-0 reactive" height="12" width="12" x="0.0" y="0.0" /><text x="17.0" y="9.0">Data</text></g><g class="legend reactive activate-serie" id="activate-serie-1"><rect class="color-1 reactive" height="12" width="12" x="0.0" y="18.0" /><text x="17.0" y="27.0">GMM</text></g><g class="legend reactive activate-serie" id="activate-serie-2"><rect class="color-2 reactive" height="12" width="12" x="0.0" y="36.0" /><text x="17.0" y="45.0">i=0</text></g><g class="legend reactive activate-serie" id="activate-serie-3"><rect class="color-3 reactive" height="12" width="12" x="0.0" y="54.0" /><text x="17.0" y="63.0">i=1</text></g><g class="legend reactive activate-serie" id="activate-serie-4"><rect class="color-4 reactive" height="12" width="12" x="0.0" y="72.0" /><text x="17.0" y="81.0">i=0 k=0</text></g><g class="legend reactive activate-serie" id="activate-serie-5"><rect class="color-5 reactive" height="12" width="12" x="0.0" y="90.0" /><text x="17.0" y="99.0">i=0 k=1</text></g><g class="legend reactive activate-serie" id="activate-serie-6"><rect class="color-6 reactive" height="12" width="12" x="0.0" y="108.0" /><text x="17.0" y="117.0">i=0 k=2</text></g><g class="legend reactive activate-serie" id="activate-serie-7"><rect class="color-7 reactive" height="12" width="12" x="0.0" y="126.0" /><text x="17.0" y="135.0">i=0 k=3</text></g><g class="legend reactive activate-serie" id="activate-serie-8"><rect class="color-8 reactive" height="12" width="12" x="0.0" y="144.0" /><text x="17.0" y="153.0">i=0 k=4</text></g><g class="legend reactive activate-serie" id="activate-serie-9"><rect class="color-9 reactive" height="12" width="12" x="0.0" y="162.0" /><text x="17.0" y="171.0">i=1 k=0</text></g><g class="legend reactive activate-serie" id="activate-serie-10"><rect class="color-10 reactive" height="12" width="12" x="0.0" y="180.0" /><text x="17.0" y="189.0">i=1 k=1</text></g><g class="legend reactive activate-serie" id="activate-serie-11"><rect class="color-11 reactive" height="12" width="12" x="0.0" y="198.0" /><text x="17.0" y="207.0">i=1 k=2</text></g><g class="legend reactive activate-serie" id="activate-serie-12"><rect class="color-12 reactive" height="12" width="12" x="0.0" y="216.0" /><text x="17.0" y="225.0">i=1 k=3</text></g><g class="legend reactive activate-serie" id="activate-serie-13"><rect class="color-13 reactive" height="12" width="12" x="0.0" y="234.0" /><text x="17.0" y="243.0">i=1 k=4</text></g></g><g class="legends" transform="translate(790, 56)" /></g></svg>