<?xml version='1.0' encoding='utf-8'?>
<svg xmlns:xlink="http://www.w3.org/1999/xlink" class="pygal-chart" id="chart-270e3908-7ef9-4315-b9ae-84759407c6b5" viewBox="0 0 800 600" xmlns="http://www.w3.org/2000/svg"><!--Generated with pygal 2.4.0 (etree) ©Kozea 2012-2016 on 2017-12-18--><!--http://pygal.org--><!--http://github.com/Kozea/pygal--><defs><style type="text/css">#chart-270e3908-7ef9-4315-b9ae-84759407c6b5{-webkit-user-select:none;-webkit-font-smoothing:antialiased;font-family:Consolas,"Liberation Mono",Menlo,Courier,monospace}#chart-270e3908-7ef9-4315-b9ae-84759407c6b5 .title{font-family:Consolas,"Liberation Mono",Menlo,Courier,monospace;font-size:16px}#chart-270e3908-7ef9-4315-b9ae-84759407c6b5 .legends .legend text{font-family:Consolas,"Liberation Mono",Menlo,Courier,monospace;font-size:10px}#chart-270e3908-7ef9-4315-b9ae-84759407c6b5 .axis text{font-family:Consolas,"Liberation Mono",Menlo,Courier,monospace;font-size:10px}#chart-270e3908-7ef9-4315-b9ae-84759407c6b5 .axis text.major{font-family:Consolas,"Liberation Mono",Menlo,Courier,monospace;font-size:10px}#chart-270e3908-7ef9-4315-b9ae-84759407c6b5 .text-overlay text.value{font-family:Consolas,"Liberation Mono",Menlo,Courier,monospace;font-size:16px}#chart-270e3908-7ef9-4315-b9ae-84759407c6b5 .text-overlay text.label{font-family:Consolas,"Liberation Mono",Menlo,Courier,monospace;font-size:10px}#chart-270e3908-7ef9-4315-b9ae-84759407c6b5 .tooltip{font-family:Consolas,"Liberation Mono",Menlo,Courier,monospace;font-size:14px}#chart-270e3908-7ef9-4315-b9ae-84759407c6b5 text.no_data{font-family:Consolas,"Liberation Mono",Menlo,Courier,monospace;font-size:64px}
#chart-270e3908-7ef9-4315-b9ae-84759407c6b5{background-color:rgba(249,249,249,1)}#chart-270e3908-7ef9-4315-b9ae-84759407c6b5 path,#chart-270e3908-7ef9-4315-b9ae-84759407c6b5 line,#chart-270e3908-7ef9-4315-b9ae-84759407c6b5 rect,#chart-270e3908-7ef9-4315-b9ae-84759407c6b5 circle{-webkit-transition:150ms;-moz-transition:150ms;transition:150ms}#chart-270e3908-7ef9-4315-b9ae-84759407c6b5 .graph &gt; .background{fill:rgba(249,249,249,1)}#chart-270e3908-7ef9-4315-b9ae-84759407c6b5 .plot &gt; .background{fill:rgba(255,255,255,1)}#chart-270e3908-7ef9-4315-b9ae-84759407c6b5 .graph{fill:rgba(0,0,0,.87)}#chart-270e3908-7ef9-4315-b9ae-84759407c6b5 text.no_data{fill:rgba(0,0,0,1)}#chart-270e3908-7ef9-4315-b9ae-84759407c6b5 .title{fill:rgba(0,0,0,1)}#chart-270e3908-7ef9-4315-b9ae-84759407c6b5 .legends .legend text{fill:rgba(0,0,0,.87)}#chart-270e3908-7ef9-4315-b9ae-84759407c6b5 .legends .legend:hover text{fill:rgba(0,0,0,1)}#chart-270e3908-7ef9-4315-b9ae-84759407c6b5 .axis .line{stroke:rgba(0,0,0,1)}#chart-270e3908-7ef9-4315-b9ae-84759407c6b5 .axis .guide.line{stroke:rgba(0,0,0,.54)}#chart-270e3908-7ef9-4315-b9ae-84759407c6b5 .axis .major.line{stroke:rgba(0,0,0,.87)}#chart-270e3908-7ef9-4315-b9ae-84759407c6b5 .axis text.major{fill:rgba(0,0,0,1)}#chart-270e3908-7ef9-4315-b9ae-84759407c6b5 .axis.y .guides:hover .guide.line,#chart-270e3908-7ef9-4315-b9ae-84759407c6b5 .line-graph .axis.x .guides:hover .guide.line,#chart-270e3908-7ef9-4315-b9ae-84759407c6b5 .stackedline-graph .axis.x .guides:hover .guide.line,#chart-270e3908-7ef9-4315-b9ae-84759407c6b5 .xy-graph .axis.x .guides:hover .guide.line{stroke:rgba(0,0,0,1)}#chart-270e3908-7ef9-4315-b9ae-84759407c6b5 .axis .guides:hover text{fill:rgba(0,0,0,1)}#chart-270e3908-7ef9-4315-b9ae-84759407c6b5 .reactive{fill-opacity:.7;stroke-opacity:.8}#chart-270e3908-7ef9-4315-b9ae-84759407c6b5 .ci{stroke:rgba(0,0,0,.87)}#chart-270e3908-7ef9-4315-b9ae-84759407c6b5 .reactive.active,#chart-270e3908-7ef9-4315-b9ae-84759407c6b5 .active .reactive{fill-opacity:.8;stroke-opacity:.9;stroke-width:4}#chart-270e3908-7ef9-4315-b9ae-84759407c6b5 .ci .reactive.active{stroke-width:1.5}#chart-270e3908-7ef9-4315-b9ae-84759407c6b5 .series text{fill:rgba(0,0,0,1)}#chart-270e3908-7ef9-4315-b9ae-84759407c6b5 .tooltip rect{fill:rgba(255,255,255,1);stroke:rgba(0,0,0,1);-webkit-transition:opacity 150ms;-moz-transition:opacity 150ms;transition:opacity 150ms}#chart-270e3908-7ef9-4315-b9ae-84759407c6b5 .tooltip .label{fill:rgba(0,0,0,.87)}#chart-270e3908-7ef9-4315-b9ae-84759407c6b5 .tooltip .label{fill:rgba(0,0,0,.87)}#chart-270e3908-7ef9-4315-b9ae-84759407c6b5 .tooltip .legend{font-size:.8em;fill:rgba(0,0,0,.54)}#chart-270e3908-7ef9-4315-b9ae-84759407c6b5 .tooltip .x_label{font-size:.6em;fill:rgba(0,0,0,1)}#chart-270e3908-7ef9-4315-b9ae-84759407c6b5 .tooltip .xlink{font-size:.5em;text-decoration:underline}#chart-270e3908-7ef9-4315-b9ae-84759407c6b5 .tooltip .value{font-size:1.5em}#chart-270e3908-7ef9-4315-b9ae-84759407c6b5 .bound{font-size:.5em}#chart-270e3908-7ef9-4315-b9ae-84759407c6b5 .max-value{font-size:.75em;fill:rgba(0,0,0,.54)}#chart-270e3908-7ef9-4315-b9ae-84759407c6b5 .map-element{fill:rgba(255,255,255,1);stroke:rgba(0,0,0,.54) !important}#chart-270e3908-7ef9-4315-b9ae-84759407c6b5 .map-element .reactive{fill-opacity:inherit;stroke-opacity:inherit}#chart-270e3908-7ef9-4315-b9ae-84759407c6b5 .color-0,#chart-270e3908-7ef9-4315-b9ae-84759407c6b5 .color-0 a:visited{stroke:#909090;fill:#909090}#chart-270e3908-7ef9-4315-b9ae-84759407c6b5 .color-1,#chart-270e3908-7ef9-4315-b9ae-84759407c6b5 .color-1 a:visited{stroke:#000000;fill:#000000}#chart-270e3908-7ef9-4315-b9ae-84759407c6b5 .color-2,#chart-270e3908-7ef9-4315-b9ae-84759407c6b5 .color-2 a:visited{stroke:#ff0500;fill:#ff0500}#chart-270e3908-7ef9-4315-b9ae-84759407c6b5 .color-3,#chart-270e3908-7ef9-4315-b9ae-84759407c6b5 .color-3 a:visited{stroke:#323299;fill:#323299}#chart-270e3908-7ef9-4315-b9ae-84759407c6b5 .color-4,#chart-270e3908-7ef9-4315-b9ae-84759407c6b5 .color-4 a:visited{stroke:#a3413f;fill:#a3413f}#chart-270e3908-7ef9-4315-b9ae-84759407c6b5 .color-5,#chart-270e3908-7ef9-4315-b9ae-84759407c6b5 .color-5 a:visited{stroke:#a3413f;fill:#a3413f}#chart-270e3908-7ef9-4315-b9ae-84759407c6b5 .color-6,#chart-270e3908-7ef9-4315-b9ae-84759407c6b5 .color-6 a:visited{stroke:#a3413f;fill:#a3413f}#chart-270e3908-7ef9-4315-b9ae-84759407c6b5 .color-7,#chart-270e3908-7ef9-4315-b9ae-84759407c6b5 .color-7 a:visited{stroke:#a3413f;fill:#a3413f}#chart-270e3908-7ef9-4315-b9ae-84759407c6b5 .color-8,#chart-270e3908-7ef9-4315-b9ae-84759407c6b5 .color-8 a:visited{stroke:#a3413f;fill:#a3413f}#chart-270e3908-7ef9-4315-b9ae-84759407c6b5 .color-9,#chart-270e3908-7ef9-4315-b9ae-84759407c6b5 .color-9 a:visited{stroke:#657fff;fill:#657fff}#chart-270e3908-7ef9-4315-b9ae-84759407c6b5 .color-10,#chart-270e3908-7ef9-4315-b9ae-84759407c6b5 .color-10 a:visited{stroke:#657fff;fill:#657fff}#chart-270e3908-7ef9-4315-b9ae-84759407c6b5 .color-11,#chart-270e3908-7ef9-4315-b9ae-84759407c6b5 .color-11 a:visited{stroke:#657fff;fill:#657fff}#chart-270e3908-7ef9-4315-b9ae-84759407c6b5 .color-12,#chart-270e3908-7ef9-4315-b9ae-84759407c6b5 .color-12 a:visited{stroke:#657fff;fill:#657fff}#chart-270e3908-7ef9-4315-b9ae-84759407c6b5 .color-13,#chart-270e3908-7ef9-4315-b9ae-84759407c6b5 .color-13 a:visited{stroke:#657fff;fill:#657fff}#chart-270e3908-7ef9-4315-b9ae-84759407c6b5 .text-overlay .color-0 text{fill:black}#chart-270e3908-7ef9-4315-b9ae-84759407c6b5 .text-overlay .color-1 text{fill:white}#chart-270e3908-7ef9-4315-b9ae-84759407c6b5 .text-overlay .color-2 text{fill:black}#chart-270e3908-7ef9-4315-b9ae-84759407c6b5 .text-overlay .color-3 text{fill:black}#chart-270e3908-7ef9-4315-b9ae-84759407c6b5 .text-overlay .color-4 text{fill:black}#chart-270e3908-7ef9-4315-b9ae-84759407c6b5 .text-overlay .color-5 text{fill:black}#chart-270e3908-7ef9-4315-b9ae-84759407c6b5 .text-overlay .color-6 text{fill:black}#chart-270e3908-7ef9-4315-b9ae-84759407c6b5 .text-overlay .color-7 text{fill:black}#chart-270e3908-7ef9-4315-b9ae-84759407c6b5 .text-overlay .color-8 text{fill:black}#chart-270e3908-7ef9-4315-b9ae-84759407c6b5 .text-overlay .color-9 text{fill:black}#chart-270e3908-7ef9-4315-b9ae-84759407c6b5 .text-overlay .color-10 text{fill:black}#chart-270e3908-7ef9-4315-b9ae-84759407c6b5 .text-overlay .color-11 text{fill:black}#chart-270e3908-7ef9-4315-b9ae-84759407c6b5 .text-overlay .color-12 text{fill:black}#chart-270e3908-7ef9-4315-b9ae-84759407c6b5 .text-overlay .color-13 text{fill:black}#chart-270e3908-7ef9-4315-b9ae-84759407c6b5 .series.serie-1{stroke-width:5}#chart-270e3908-7ef9-4315-b9ae-84759407c6b5 .series.serie-2{stroke-width:3}#chart-270e3908-7ef9-4315-b9ae-84759407c6b5 .series.serie-3{stroke-width:3}#chart-270e3908-7ef9-4315-b9ae-84759407c6b5 .series.serie-4{stroke-width:2;stroke-dasharray:2,2}#chart-270e3908-7ef9-4315-b9ae-84759407c6b5 .series.serie-5{stroke-width:2;stroke-dasharray:2,2}#chart-270e3908-7ef9-4315-b9ae-84759407c6b5 .series.serie-6{stroke-width:2;stroke-dasharray:2,2}#chart-270e3908-7ef9-4315-b9ae-84759407c6b5 .series.serie-7{stroke-width:2;stroke-dasharray:2,2}#chart-270e3908-7ef9-4315-b9ae-84759407c6b5 .series.serie-8{stroke-width:2;stroke-dasharray:2,2}#chart-270e3908-7ef9-4315-b9ae-84759407c6b5 .series.serie-9{stroke-width:2;stroke-dasharray:2,2}#chart-270e3908-7ef9-4315-b9ae-84759407c6b5 .series.serie-10{stroke-width:2;stroke-dasharray:2,2}#chart-270e3908-7ef9-4315-b9ae-84759407c6b5 .series.serie-11{stroke-width:2;stroke-dasharray:2,2}#chart-270e3908-7ef9-4315-b9ae-84759407c6b5 .series.serie-12{stroke-width:2;stroke-dasharray:2,2}#chart-270e3908-7ef9-4315-b9ae-84759407c6b5 .series.serie-13{stroke-width:2;stroke-dasharray:2,2}
#chart-270e3908-7ef9-4315-b9ae-84759407c6b5 text.no_data{text-anchor:middle}#chart-270e3908-7ef9-4315-b9ae-84759407c6b5 .guide.line{fill:none}#chart-270e3908-7ef9-4315-b9ae-84759407c6b5 .centered{text-anchor:middle}#chart-270e3908-7ef9-4315-b9ae-84759407c6b5 .title{text-anchor:middle}#chart-270e3908-7ef9-4315-b9ae-84759407c6b5 .legends .legend text{fill-opacity:1}#chart-270e3908-7ef9-4315-b9ae-84759407c6b5 .axis.x text{text-anchor:middle}#chart-270e3908-7ef9-4315-b9ae-84759407c6b5 .axis.x:not(.web) text[transform]{text-anchor:start}#chart-270e3908-7ef9-4315-b9ae-84759407c6b5 .axis.x:not(.web) text[transform].backwards{text-anchor:end}#chart-270e3908-7ef9-4315-b9ae-84759407c6b5 .axis.y text{text-anchor:end}#chart-270e3908-7ef9-4315-b9ae-84759407c6b5 .axis.y text[transform].backwards{text-anchor:start}#chart-270e3908-7ef9-4315-b9ae-84759407c6b5 .axis.y2 text{text-anchor:start}#chart-270e3908-7ef9-4315-b9ae-84759407c6b5 .axis.y2 text[transform].backwards{text-anchor:end}#chart-270e3908-7ef9-4315-b9ae-84759407c6b5 .axis .guide.line{stroke-dasharray:4,4}#chart-270e3908-7ef9-4315-b9ae-84759407c6b5 .axis .major.guide.line{stroke-dasharray:6,6}#chart-270e3908-7ef9-4315-b9ae-84759407c6b5 .horizontal .axis.y .guide.line,#chart-270e3908-7ef9-4315-b9ae-84759407c6b5 .horizontal .axis.y2 .guide.line,#chart-270e3908-7ef9-4315-b9ae-84759407c6b5 .vertical .axis.x .guide.line{opacity:0}#chart-270e3908-7ef9-4315-b9ae-84759407c6b5 .horizontal .axis.always_show .guide.line,#chart-270e3908-7ef9-4315-b9ae-84759407c6b5 .vertical .axis.always_show .guide.line{opacity:1 !important}#chart-270e3908-7ef9-4315-b9ae-84759407c6b5 .axis.y .guides:hover .guide.line,#chart-270e3908-7ef9-4315-b9ae-84759407c6b5 .axis.y2 .guides:hover .guide.line,#chart-270e3908-7ef9-4315-b9ae-84759407c6b5 .axis.x .guides:hover .guide.line{opacity:1}#chart-270e3908-7ef9-4315-b9ae-84759407c6b5 .axis .guides:hover text{opacity:1}#chart-270e3908-7ef9-4315-b9ae-84759407c6b5 .nofill{fill:none}#chart-270e3908-7ef9-4315-b9ae-84759407c6b5 .subtle-fill{fill-opacity:.2}#chart-270e3908-7ef9-4315-b9ae-84759407c6b5 .dot{stroke-width:1px;fill-opacity:1}#chart-270e3908-7ef9-4315-b9ae-84759407c6b5 .dot.active{stroke-width:5px}#chart-270e3908-7ef9-4315-b9ae-84759407c6b5 .dot.negative{fill:transparent}#chart-270e3908-7ef9-4315-b9ae-84759407c6b5 text,#chart-270e3908-7ef9-4315-b9ae-84759407c6b5 tspan{stroke:none !important}#chart-270e3908-7ef9-4315-b9ae-84759407c6b5 .series text.active{opacity:1}#chart-270e3908-7ef9-4315-b9ae-84759407c6b5 .tooltip rect{fill-opacity:.95;stroke-width:.5}#chart-270e3908-7ef9-4315-b9ae-84759407c6b5 .tooltip text{fill-opacity:1}#chart-270e3908-7ef9-4315-b9ae-84759407c6b5 .showable{visibility:hidden}#chart-270e3908-7ef9-4315-b9ae-84759407c6b5 .showable.shown{visibility:visible}#chart-270e3908-7ef9-4315-b9ae-84759407c6b5 .gauge-background{fill:rgba(229,229,229,1);stroke:none}#chart-270e3908-7ef9-4315-b9ae-84759407c6b5 .bg-lines{stroke:rgba(249,249,249,1);stroke-width:2px}</style><script type="text/javascript">window.pygal = window.pygal || {};window.pygal.config = window.pygal.config || {};window.pygal.config['270e3908-7ef9-4315-b9ae-84759407c6b5'] = {"interpolate": null, "pretty_print": false, "x_labels_major": null, "no_data_text": "No data", "inverse_y_axis": false, "truncate_legend": null, "css": ["file://style.css", "file://graph.css"], "secondary_range": null, "formatter": null, "interpolation_precision": 250, "zero": 0, "allow_interruptions": false, "defs": [], "width": 800, "xrange": null, "margin_top": null, "y_title": "Density", "show_only_major_dots": false, "rounded_bars": null, "legends": ["Data", "GMM", "i=0", "i=1", "i=0 k=0", "i=0 k=1", "i=0 k=2", "i=0 k=3", "i=0 k=4", "i=1 k=0", "i=1 k=1", "i=1 k=2", "i=1 k=3", "i=1 k=4"], "print_values": false, "show_x_labels": true, "x_labels_major_count": null, "truncate_label": null, "x_labels": ["-8.96", "-8.76", "-8.56", "-8.36", "-8.16", "-7.96", "-7.76", "-7.56", "-7.36", "-7.16", "-6.96", "-6.76", "-6.56", "-6.36", "-6.16", "-5.96", "-5.76", "-5.56", "-5.36", "-5.16", "-4.96", "-4.76", "-4.56", "-4.36", "-4.16", "-3.96", "-3.76", "-3.56", "-3.36", "-3.16", "-2.96", "-2.76", "-2.56", "-2.36", "-2.16", "-1.96", "-1.76", "-1.56", "-1.36", "-1.16", "-0.96", "-0.76", "-0.56", "-0.36", "-0.16", "0.04", "0.24", "0.44", "0.64", "0.84", "1.04", "1.24", "1.43", "1.63", "1.83", "2.03", "2.23", "2.43", "2.63", "2.83"], "title": "Iteration #16", "show_y_guides": true, "show_x_guides": false, "fill": false, "print_zeroes": true, "show_y_labels": true, "js": ["//kozea.github.io/pygal.js/2.0.x/pygal-tooltips.min.js"], "order_min": null, "print_labels": false, "margin": 20, "inner_radius": 0, "legend_at_bottom": false, "dots_size": 2.5, "explicit_size": false, "show_minor_y_labels": true, "y_labels": null, "margin_right": null, "show_legend": true, "no_prefix": false, "style": {"foreground_strong": "rgba(0, 0, 0, 1)", "ci_colors": [], "stroke_opacity_hover": ".9", "foreground_subtle": "rgba(0, 0, 0, .54)", "opacity_hover": ".8", "label_font_family": "Consolas, \"Liberation Mono\", Menlo, Courier, monospace", "opacity": ".7", "tooltip_font_family": "Consolas, \"Liberation Mono\", Menlo, Courier, monospace", "stroke_opacity": ".8", "colors": ["#909090", "#000000", "#ff0500", "#323299", "#a3413f", "#a3413f", "#a3413f", "#a3413f", "#a3413f", "#657fff", "#657fff", "#657fff", "#657fff", "#657fff"], "transition": "150ms", "value_label_font_size": 10, "no_data_font_size": 64, "guide_stroke_dasharray": "4,4", "tooltip_font_size": 14, "major_label_font_family": "Consolas, \"Liberation Mono\", Menlo, Courier, monospace", "label_font_size": 10, "value_colors": [], "font_family": "Consolas, \"Liberation Mono\", Menlo, Courier, monospace", "major_label_font_size": 10, "legend_font_family": "Consolas, \"Liberation Mono\", Menlo, Courier, monospace", "value_font_size": 16, "legend_font_size": 10, "major_guide_stroke_dasharray": "6,6", "title_font_family": "Consolas, \"Liberation Mono\", Menlo, Courier, monospace", "plot_background": "rgba(255, 255, 255, 1)", "value_font_family": "Consolas, \"Liberation Mono\", Menlo, Courier, monospace", "background": "rgba(249, 249, 249, 1)", "foreground": "rgba(0, 0, 0, .87)", "title_font_size": 16, "value_background": "rgba(229, 229, 229, 1)", "value_label_font_family": "Consolas, \"Liberation Mono\", Menlo, Courier, monospace", "no_data_font_family": "Consolas, \"Liberation Mono\", Menlo, Courier, monospace"}, "margin_bottom": null, "tooltip_fancy_mode": true, "logarithmic": false, "missing_value_fill_truncation": "x", "spacing": 10, "max_scale": 16, "y_labels_major_count": null, "x_title": "Observation", "stroke": true, "y_label_rotation": 0, "show_dots": false, "half_pie": false, "legend_box_size": 12, "dynamic_print_values": false, "legend_at_bottom_columns": null, "disable_xml_declaration": false, "classes": ["pygal-chart"], "margin_left": null, "force_uri_protocol": "https", "x_label_rotation": 60, "print_values_position": "center", "x_labels_major_every": 2, "strict": false, "height": 600, "stack_from_top": false, "include_x_axis": false, "y_labels_major_every": null, "box_mode": "extremes", "interpolation_parameters": {}, "min_scale": 4, "show_minor_x_labels": false, "stroke_style": null, "range": [0, 0.27578580090479526], "tooltip_border_radius": 0, "y_labels_major": null}</script><script type="text/javascript" xlink:href="https://kozea.github.io/pygal.js/2.0.x/pygal-tooltips.min.js" /></defs><title>Iteration #16</title><g class="graph line-graph vertical"><rect class="background" height="600" width="800" x="0" y="0" /><g class="plot" transform="translate(144, 46)"><rect class="background" height="472.01923788646684" width="636.0" x="0" y="0" /><g class="axis y always_show"><g class="guides"><path class="axis major line" d="M0.000000 462.941945 h636.000000" /><text class="major" x="-5" y="466.44194485">0</text><title>0</title></g><g class="guides"><path class="guide line" d="M0.000000 430.027658 h636.000000" /><text class="" x="-5" y="433.527657724">0.02</text><title>0.02</title></g><g class="guides"><path class="guide line" d="M0.000000 397.113371 h636.000000" /><text class="" x="-5" y="400.613370598">0.04</text><title>0.04</title></g><g class="guides"><path class="guide line" d="M0.000000 364.199083 h636.000000" /><text class="" x="-5" y="367.699083472">0.06</text><title>0.06</title></g><g class="guides"><path class="guide line" d="M0.000000 331.284796 h636.000000" /><text class="" x="-5" y="334.784796346">0.08</text><title>0.08</title></g><g class="guides"><path class="guide line" d="M0.000000 298.370509 h636.000000" /><text class="" x="-5" y="301.87050922">0.1</text><title>0.1</title></g><g class="guides"><path class="guide line" d="M0.000000 265.456222 h636.000000" /><text class="" x="-5" y="268.956222094">0.12</text><title>0.12</title></g><g class="guides"><path class="guide line" d="M0.000000 232.541935 h636.000000" /><text class="" x="-5" y="236.041934968">0.14</text><title>0.14</title></g><g class="guides"><path class="guide line" d="M0.000000 199.627648 h636.000000" /><text class="" x="-5" y="203.127647841">0.16</text><title>0.16</title></g><g class="guides"><path class="guide line" d="M0.000000 166.713361 h636.000000" /><text class="" x="-5" y="170.213360715">0.18</text><title>0.18</title></g><g class="guides"><path class="guide line" d="M0.000000 133.799074 h636.000000" /><text class="" x="-5" y="137.299073589">0.2</text><title>0.2</title></g><g class="guides"><path class="guide line" d="M0.000000 100.884786 h636.000000" /><text class="" x="-5" y="104.384786463">0.22</text><title>0.22</title></g><g class="guides"><path class="guide line" d="M0.000000 67.970499 h636.000000" /><text class="" x="-5" y="71.4704993371">0.24</text><title>0.24</title></g><g class="guides"><path class="guide line" d="M0.000000 35.056212 h636.000000" /><text class="" x="-5" y="38.5562122111">0.26</text><title>0.26</title></g></g><g class="axis x"><g class="guides"><path class="major line" d="M12.230769 0.000000 v472.019238" /><text class="major" transform="rotate(60 12.230769 487.019238)" x="12.230769230769232" y="487.01923788646684">-8.96</text></g><g class="guides"><path class="major guide line" d="M32.960887 0.000000 v472.019238" /><text class="major" transform="rotate(60 32.960887 487.019238)" x="32.96088657105606" y="487.01923788646684">-8.56</text></g><g class="guides"><path class="major guide line" d="M53.691004 0.000000 v472.019238" /><text class="major" transform="rotate(60 53.691004 487.019238)" x="53.6910039113429" y="487.01923788646684">-8.16</text></g><g class="guides"><path class="major guide line" d="M74.421121 0.000000 v472.019238" /><text class="major" transform="rotate(60 74.421121 487.019238)" x="74.42112125162973" y="487.01923788646684">-7.76</text></g><g class="guides"><path class="major guide line" d="M95.151239 0.000000 v472.019238" /><text class="major" transform="rotate(60 95.151239 487.019238)" x="95.15123859191655" y="487.01923788646684">-7.36</text></g><g class="guides"><path class="major guide line" d="M115.881356 0.000000 v472.019238" /><text class="major" transform="rotate(60 115.881356 487.019238)" x="115.88135593220338" y="487.01923788646684">-6.96</text></g><g class="guides"><path class="major guide line" d="M136.611473 0.000000 v472.019238" /><text class="major" transform="rotate(60 136.611473 487.019238)" x="136.61147327249023" y="487.01923788646684">-6.56</text></g><g class="guides"><path class="major guide line" d="M157.341591 0.000000 v472.019238" /><text class="major" transform="rotate(60 157.341591 487.019238)" x="157.34159061277705" y="487.01923788646684">-6.16</text></g><g class="guides"><path class="major guide line" d="M178.071708 0.000000 v472.019238" /><text class="major" transform="rotate(60 178.071708 487.019238)" x="178.0717079530639" y="487.01923788646684">-5.76</text></g><g class="guides"><path class="major guide line" d="M198.801825 0.000000 v472.019238" /><text class="major" transform="rotate(60 198.801825 487.019238)" x="198.80182529335073" y="487.01923788646684">-5.36</text></g><g class="guides"><path class="major guide line" d="M219.531943 0.000000 v472.019238" /><text class="major" transform="rotate(60 219.531943 487.019238)" x="219.53194263363756" y="487.01923788646684">-4.96</text></g><g class="guides"><path class="major guide line" d="M240.262060 0.000000 v472.019238" /><text class="major" transform="rotate(60 240.262060 487.019238)" x="240.2620599739244" y="487.01923788646684">-4.56</text></g><g class="guides"><path class="major guide line" d="M260.992177 0.000000 v472.019238" /><text class="major" transform="rotate(60 260.992177 487.019238)" x="260.99217731421123" y="487.01923788646684">-4.16</text></g><g class="guides"><path class="major guide line" d="M281.722295 0.000000 v472.019238" /><text class="major" transform="rotate(60 281.722295 487.019238)" x="281.722294654498" y="487.01923788646684">-3.76</text></g><g class="guides"><path class="major guide line" d="M302.452412 0.000000 v472.019238" /><text class="major" transform="rotate(60 302.452412 487.019238)" x="302.4524119947849" y="487.01923788646684">-3.36</text></g><g class="guides"><path class="major guide line" d="M323.182529 0.000000 v472.019238" /><text class="major" transform="rotate(60 323.182529 487.019238)" x="323.1825293350717" y="487.01923788646684">-2.96</text></g><g class="guides"><path class="major guide line" d="M343.912647 0.000000 v472.019238" /><text class="major" transform="rotate(60 343.912647 487.019238)" x="343.91264667535853" y="487.01923788646684">-2.56</text></g><g class="guides"><path class="major guide line" d="M364.642764 0.000000 v472.019238" /><text class="major" transform="rotate(60 364.642764 487.019238)" x="364.64276401564535" y="487.01923788646684">-2.16</text></g><g class="guides"><path class="major guide line" d="M385.372881 0.000000 v472.019238" /><text class="major" transform="rotate(60 385.372881 487.019238)" x="385.37288135593224" y="487.01923788646684">-1.76</text></g><g class="guides"><path class="major guide line" d="M406.102999 0.000000 v472.019238" /><text class="major" transform="rotate(60 406.102999 487.019238)" x="406.102998696219" y="487.01923788646684">-1.36</text></g><g class="guides"><path class="major guide line" d="M426.833116 0.000000 v472.019238" /><text class="major" transform="rotate(60 426.833116 487.019238)" x="426.8331160365058" y="487.01923788646684">-0.96</text></g><g class="guides"><path class="major guide line" d="M447.563233 0.000000 v472.019238" /><text class="major" transform="rotate(60 447.563233 487.019238)" x="447.56323337679265" y="487.01923788646684">-0.56</text></g><g class="guides"><path class="major guide line" d="M468.293351 0.000000 v472.019238" /><text class="major" transform="rotate(60 468.293351 487.019238)" x="468.29335071707953" y="487.01923788646684">-0.16</text></g><g class="guides"><path class="major guide line" d="M489.023468 0.000000 v472.019238" /><text class="major" transform="rotate(60 489.023468 487.019238)" x="489.02346805736636" y="487.01923788646684">0.24</text></g><g class="guides"><path class="major guide line" d="M509.753585 0.000000 v472.019238" /><text class="major" transform="rotate(60 509.753585 487.019238)" x="509.75358539765324" y="487.01923788646684">0.64</text></g><g class="guides"><path class="major guide line" d="M530.483703 0.000000 v472.019238" /><text class="major" transform="rotate(60 530.483703 487.019238)" x="530.48370273794" y="487.01923788646684">1.04</text></g><g class="guides"><path class="major guide line" d="M551.213820 0.000000 v472.019238" /><text class="major" transform="rotate(60 551.213820 487.019238)" x="551.213820078227" y="487.01923788646684">1.43</text></g><g class="guides"><path class="major guide line" d="M571.943937 0.000000 v472.019238" /><text class="major" transform="rotate(60 571.943937 487.019238)" x="571.9439374185138" y="487.01923788646684">1.83</text></g><g class="guides"><path class="major guide line" d="M592.674055 0.000000 v472.019238" /><text class="major" transform="rotate(60 592.674055 487.019238)" x="592.6740547588006" y="487.01923788646684">2.23</text></g><g class="guides"><path class="major guide line" d="M613.404172 0.000000 v472.019238" /><text class="major" transform="rotate(60 613.404172 487.019238)" x="613.4041720990874" y="487.01923788646684">2.63</text></g></g><g class="series serie-0 color-0"><path class="line reactive" d="M12.230769 462.941945 L12.230769 462.019456 22.595828 462.941945 32.960887 461.096967 43.325945 462.019456 53.691004 459.251988 64.056063 462.019456 74.421121 458.329499 84.786180 462.019456 95.151239 458.329499 105.516297 462.019456 115.881356 448.182119 126.246415 460.174477 136.611473 457.407010 146.976532 457.407010 157.341591 451.872075 167.706649 448.182119 178.071708 454.639543 188.436767 445.414651 198.801825 442.647184 209.166884 436.189760 219.531943 437.112249 229.897001 392.832771 240.262060 396.522728 250.627119 376.227967 260.992177 355.933206 271.357236 351.320760 281.722295 325.491065 292.087353 277.521630 302.452412 283.056565 312.817471 202.800010 323.182529 188.040184 333.547588 169.590402 343.912647 123.465945 354.277705 95.791271 364.642764 67.194108 375.007823 82.876423 385.372881 60.736684 395.737940 80.108956 406.102999 29.372054 416.468057 9.077293 426.833116 70.884065 437.198175 69.039086 447.563233 41.364413 457.928292 40.441923 468.293351 91.178826 478.658409 140.993239 489.023468 214.792369 499.388527 259.071847 509.753585 321.801108 520.118644 364.235608 530.483703 408.515086 540.848761 430.654825 551.213820 448.182119 561.578879 455.562032 571.943937 458.329499 582.308996 458.329499 592.674055 462.019456 603.039113 462.941945 613.404172 462.019456 623.769231 462.941945" /></g><g class="series serie-1 color-1"><path class="line reactive nofill" d="M12.230769 462.857902 L22.595828 462.807665 32.960887 462.731108 43.325945 462.616632 53.691004 462.448681 64.056063 462.206958 74.421121 461.865719 84.786180 461.393292 95.151239 460.751980 105.516297 459.898510 115.881356 458.785170 126.246415 457.361668 136.611473 455.577590 146.976532 453.384982 157.341591 450.740200 167.706649 447.603631 178.071708 443.935391 188.436767 439.684966 198.801825 434.773175 209.166884 429.066451 219.531943 422.346287 229.897001 414.280701 240.262060 404.408573 250.627119 392.149773 260.992177 376.851776 271.357236 357.875560 281.722295 334.711313 292.087353 307.103646 302.452412 275.166528 312.817471 239.488662 323.182529 201.261816 333.547588 162.463782 343.912647 126.028267 354.277705 95.734759 364.642764 75.424959 375.007823 67.398253 385.372881 70.553113 395.737940 79.570833 406.102999 86.362581 416.468057 83.746238 426.833116 69.603104 437.198175 48.977449 447.563233 32.545195 457.928292 32.030239 468.293351 54.985667 478.658409 101.650867 489.023468 165.259904 499.388527 235.204831 509.753585 301.118818 520.118644 355.909304 530.483703 396.777402 540.848761 424.470471 551.213820 441.703120 561.578879 451.663414 571.943937 457.084755 582.308996 459.912759 592.674055 461.357430 603.039113 462.097032 613.404172 462.483576 623.769231 462.691310" /></g><g class="series serie-2 color-2"><path class="line reactive nofill" d="M12.230769 462.941945 L22.595828 462.941945 32.960887 462.941945 43.325945 462.941945 53.691004 462.941945 64.056063 462.941945 74.421121 462.941945 84.786180 462.941945 95.151239 462.941945 105.516297 462.941945 115.881356 462.941945 126.246415 462.941945 136.611473 462.941945 146.976532 462.941945 157.341591 462.941945 167.706649 462.941945 178.071708 462.941944 188.436767 462.941943 198.801825 462.941939 209.166884 462.941927 219.531943 462.941898 229.897001 462.941823 240.262060 462.941635 250.627119 462.941175 260.992177 462.940057 271.357236 462.937331 281.722295 462.930583 292.087353 462.913522 302.452412 462.869677 312.817471 462.756747 323.182529 462.470725 333.547588 461.771810 343.912647 460.150275 354.277705 456.622440 364.642764 449.492816 375.007823 436.207798 385.372881 413.530101 395.737940 378.291767 406.102999 328.813815 416.468057 266.665450 426.833116 197.939131 437.198175 133.022340 447.563233 84.310395 457.928292 62.378301 468.293351 72.203864 478.658409 111.297527 489.023468 170.708983 499.388527 238.359588 509.753585 303.005159 520.118644 357.071812 530.483703 397.509520 540.848761 424.936687 551.213820 442.000506 561.578879 451.852083 571.943937 457.203231 582.308996 459.986174 592.674055 461.402239 603.039113 462.123942 613.404172 462.499467 623.769231 462.700535" /></g><g class="series serie-3 color-3"><path class="line reactive nofill" d="M12.230769 462.857902 L22.595828 462.807665 32.960887 462.731108 43.325945 462.616632 53.691004 462.448681 64.056063 462.206958 74.421121 461.865719 84.786180 461.393292 95.151239 460.751980 105.516297 459.898510 115.881356 458.785170 126.246415 457.361668 136.611473 455.577590 146.976532 453.384982 157.341591 450.740200 167.706649 447.603631 178.071708 443.935392 188.436767 439.684968 198.801825 434.773181 209.166884 429.066469 219.531943 422.346334 229.897001 414.280823 240.262060 404.408883 250.627119 392.150543 260.992177 376.853664 271.357236 357.880173 281.722295 334.722674 292.087353 307.132069 302.452412 275.238796 312.817471 239.673860 323.182529 201.733036 333.547588 163.633917 343.912647 128.819937 354.277705 102.054264 364.642764 88.874087 375.007823 94.132399 385.372881 119.964956 395.737940 164.221010 406.102999 220.490711 416.468057 280.022733 426.833116 334.605917 437.198175 378.897054 447.563233 411.176745 457.928292 432.593883 468.293351 445.723748 478.658409 453.295285 489.023468 457.492866 499.388527 459.787188 509.753585 461.055605 520.118644 461.779436 530.483703 462.209828 540.848761 462.475729 551.213820 462.644558 561.578879 462.753276 571.943937 462.823469 582.308996 462.868530 592.674055 462.897136 603.039113 462.915035 613.404172 462.926053 623.769231 462.932719" /></g><g class="series serie-4 color-4"><path class="line reactive nofill" d="M12.230769 462.941945 L22.595828 462.941945 32.960887 462.941945 43.325945 462.941945 53.691004 462.941945 64.056063 462.941945 74.421121 462.941945 84.786180 462.941945 95.151239 462.941945 105.516297 462.941945 115.881356 462.941945 126.246415 462.941945 136.611473 462.941945 146.976532 462.941945 157.341591 462.941945 167.706649 462.941945 178.071708 462.941945 188.436767 462.941945 198.801825 462.941945 209.166884 462.941945 219.531943 462.941945 229.897001 462.941945 240.262060 462.941944 250.627119 462.941941 260.992177 462.941921 271.357236 462.941826 281.722295 462.941389 292.087353 462.939571 302.452412 462.932650 312.817471 462.908616 323.182529 462.832474 333.547588 462.612591 343.912647 462.034316 354.277705 460.650887 364.642764 457.644754 375.007823 451.723379 385.372881 441.179326 395.737940 424.272579 406.102999 400.005089 416.468057 369.115531 426.833116 334.818892 437.198175 302.686967 447.563233 279.339751 457.928292 270.266536 468.293351 277.735198 478.658409 299.873698 489.023468 331.430336 499.388527 365.792379 509.753585 397.206482 520.118644 422.200101 530.483703 439.812579 540.848761 450.914626 551.213820 457.213245 561.578879 460.442605 571.943937 461.943149 582.308996 462.576341 592.674055 462.819363 603.039113 462.904298 613.404172 462.931355 623.769231 462.939216" /></g><g class="series serie-5 color-5"><path class="line reactive nofill" d="M12.230769 462.941945 L22.595828 462.941945 32.960887 462.941945 43.325945 462.941945 53.691004 462.941945 64.056063 462.941945 74.421121 462.941945 84.786180 462.941945 95.151239 462.941945 105.516297 462.941945 115.881356 462.941945 126.246415 462.941945 136.611473 462.941945 146.976532 462.941945 157.341591 462.941945 167.706649 462.941945 178.071708 462.941945 188.436767 462.941945 198.801825 462.941945 209.166884 462.941945 219.531943 462.941945 229.897001 462.941945 240.262060 462.941944 250.627119 462.941939 260.992177 462.941914 271.357236 462.941803 281.722295 462.941339 292.087353 462.939557 302.452412 462.933270 312.817471 462.912913 323.182529 462.852427 333.547588 462.687642 343.912647 462.276376 354.277705 461.337086 364.642764 459.376755 375.007823 455.645176 385.372881 449.183147 395.737940 439.040043 406.102999 424.687098 416.468057 406.533710 426.833116 386.311632 437.198175 367.032641 447.563233 352.350147 457.928292 345.455667 468.293351 347.953707 478.658409 359.255560 489.023468 376.804478 499.388527 397.014765 509.753585 416.454150 520.118644 432.741354 530.483703 444.866292 540.848761 452.974713 551.213820 457.878370 561.578879 460.571980 571.943937 461.919997 582.308996 462.535953 592.674055 462.793348 603.039113 462.891838 613.404172 462.926378 623.769231 462.937489" /></g><g class="series serie-6 color-6"><path class="line reactive nofill" d="M12.230769 462.941945 L22.595828 462.941945 32.960887 462.941945 43.325945 462.941945 53.691004 462.941945 64.056063 462.941945 74.421121 462.941945 84.786180 462.941945 95.151239 462.941945 105.516297 462.941945 115.881356 462.941945 126.246415 462.941945 136.611473 462.941945 146.976532 462.941945 157.341591 462.941945 167.706649 462.941945 178.071708 462.941945 188.436767 462.941945 198.801825 462.941945 209.166884 462.941945 219.531943 462.941945 229.897001 462.941944 240.262060 462.941942 250.627119 462.941930 260.992177 462.941880 271.357236 462.941688 281.722295 462.940994 292.087353 462.938676 302.452412 462.931499 312.817471 462.910920 323.182529 462.856308 333.547588 462.722258 343.912647 462.418186 354.277705 461.781436 364.642764 460.552192 375.007823 458.368477 385.372881 454.807531 395.737940 449.495886 406.102999 442.285682 416.468057 433.450467 426.833116 423.810188 437.198175 414.686070 447.563233 407.637623 457.928292 404.036426 468.293351 404.632228 478.658409 409.298840 489.023468 417.077629 499.388527 426.498118 509.753585 436.029011 520.118644 444.471126 530.483703 451.160480 540.848761 455.958005 551.213820 459.094347 561.578879 460.971942 571.943937 462.004529 582.308996 462.527387 592.674055 462.771562 603.039113 462.876864 613.404172 462.918842 623.769231 462.934323" /></g><g class="series serie-7 color-7"><path class="line reactive nofill" d="M12.230769 462.941945 L22.595828 462.941945 32.960887 462.941945 43.325945 462.941945 53.691004 462.941945 64.056063 462.941945 74.421121 462.941945 84.786180 462.941945 95.151239 462.941945 105.516297 462.941945 115.881356 462.941945 126.246415 462.941945 136.611473 462.941945 146.976532 462.941945 157.341591 462.941945 167.706649 462.941945 178.071708 462.941945 188.436767 462.941945 198.801825 462.941945 209.166884 462.941945 219.531943 462.941944 229.897001 462.941940 240.262060 462.941928 250.627119 462.941884 260.992177 462.941738 271.357236 462.941288 281.722295 462.939978 292.087353 462.936397 302.452412 462.927216 312.817471 462.905132 323.182529 462.855326 333.547588 462.750073 343.912647 462.541817 354.277705 462.156393 364.642764 461.490041 375.007823 460.415625 385.372881 458.803604 395.737940 456.560021 406.102999 453.676540 416.468057 450.278128 426.833116 446.647023 437.198175 443.202845 447.563233 440.431200 457.928292 438.773996 468.293351 438.514551 478.658409 439.698423 489.023468 442.120343 499.388527 445.382379 509.753585 449.000723 520.118644 452.521762 530.483703 455.609695 540.848761 458.084738 551.213820 459.912777 561.578879 461.163471 571.943937 461.958932 582.308996 462.430430 592.674055 462.691366 603.039113 462.826382 613.404172 462.891771 623.769231 462.921437" /></g><g class="series serie-8 color-8"><path class="line reactive nofill" d="M12.230769 462.941945 L22.595828 462.941945 32.960887 462.941945 43.325945 462.941945 53.691004 462.941945 64.056063 462.941945 74.421121 462.941945 84.786180 462.941945 95.151239 462.941945 105.516297 462.941945 115.881356 462.941945 126.246415 462.941945 136.611473 462.941945 146.976532 462.941945 157.341591 462.941945 167.706649 462.941945 178.071708 462.941944 188.436767 462.941943 198.801825 462.941939 209.166884 462.941928 219.531943 462.941899 229.897001 462.941828 240.262060 462.941657 250.627119 462.941261 260.992177 462.940382 271.357236 462.938506 281.722295 462.934662 292.087353 462.927100 302.452412 462.912821 312.817471 462.886945 323.182529 462.841970 333.547588 462.767025 343.912647 462.647361 354.277705 462.464416 364.642764 462.196854 375.007823 461.822920 385.372881 461.324273 395.737940 460.691018 406.102999 459.927185 416.468057 459.055393 426.833116 458.119176 437.198175 457.181596 447.563233 456.319453 457.928292 455.613456 468.293351 455.135959 478.658409 454.938786 489.023468 455.043976 499.388527 455.439726 509.753585 456.082573 520.118644 456.905249 530.483703 457.828252 540.848761 458.772385 551.213820 459.669546 561.578879 460.469865 571.943937 461.144403 582.308996 461.683842 592.674055 462.094379 603.039113 462.392340 613.404172 462.598902 623.769231 462.735850" /></g><g class="series serie-9 color-9"><path class="line reactive nofill" d="M12.230769 462.941945 L22.595828 462.941945 32.960887 462.941945 43.325945 462.941945 53.691004 462.941945 64.056063 462.941945 74.421121 462.941945 84.786180 462.941945 95.151239 462.941945 105.516297 462.941945 115.881356 462.941945 126.246415 462.941945 136.611473 462.941945 146.976532 462.941945 157.341591 462.941945 167.706649 462.941945 178.071708 462.941945 188.436767 462.941945 198.801825 462.941944 209.166884 462.941941 219.531943 462.941919 229.897001 462.941791 240.262060 462.941118 250.627119 462.937985 260.992177 462.925041 271.357236 462.877616 281.722295 462.723698 292.087353 462.281821 302.452412 461.161874 312.817471 458.662540 323.182529 453.769956 333.547588 445.416149 343.912647 433.086327 354.277705 417.599133 364.642764 401.548087 375.007823 388.832174 385.372881 383.186546 395.737940 386.421270 406.102999 397.488642 416.468057 413.028399 426.833116 429.007609 437.198175 442.373836 447.563233 451.827611 457.928292 457.587597 468.293351 460.642284 478.658409 462.061393 489.023468 462.641351 499.388527 462.850462 509.753585 462.917123 520.118644 462.935941 530.483703 462.940650 540.848761 462.941696 551.213820 462.941902 561.578879 462.941938 571.943937 462.941944 582.308996 462.941945 592.674055 462.941945 603.039113 462.941945 613.404172 462.941945 623.769231 462.941945" /></g><g class="series serie-10 color-10"><path class="line reactive nofill" d="M12.230769 462.941945 L22.595828 462.941945 32.960887 462.941945 43.325945 462.941945 53.691004 462.941945 64.056063 462.941945 74.421121 462.941945 84.786180 462.941945 95.151239 462.941945 105.516297 462.941945 115.881356 462.941945 126.246415 462.941945 136.611473 462.941945 146.976532 462.941945 157.341591 462.941944 167.706649 462.941939 178.071708 462.941916 188.436767 462.941813 198.801825 462.941386 209.166884 462.939755 219.531943 462.934048 229.897001 462.915721 240.262060 462.861757 250.627119 462.716164 260.992177 462.356570 271.357236 461.544456 281.722295 459.869882 292.087353 456.723533 302.452412 451.351595 312.817471 443.049819 323.182529 431.505495 333.547588 417.195916 343.912647 401.644705 354.277705 387.311603 364.642764 377.017087 375.007823 373.052396 385.372881 376.352054 395.737940 386.136359 406.102999 400.210392 416.468057 415.763145 426.833116 430.269973 437.198175 442.108004 447.563233 450.708884 457.928292 456.327910 468.293351 459.649145 478.658409 461.432449 489.023468 462.304759 499.388527 462.694278 509.753585 462.853303 520.118644 462.912732 530.483703 462.933080 540.848761 462.939468 551.213820 462.941307 561.578879 462.941794 571.943937 462.941912 582.308996 462.941938 592.674055 462.941944 603.039113 462.941945 613.404172 462.941945 623.769231 462.941945" /></g><g class="series serie-11 color-11"><path class="line reactive nofill" d="M12.230769 462.941945 L22.595828 462.941945 32.960887 462.941945 43.325945 462.941945 53.691004 462.941945 64.056063 462.941945 74.421121 462.941945 84.786180 462.941945 95.151239 462.941944 105.516297 462.941943 115.881356 462.941936 126.246415 462.941909 136.611473 462.941816 146.976532 462.941502 157.341591 462.940516 167.706649 462.937597 178.071708 462.929467 188.436767 462.908174 198.801825 462.855756 209.166884 462.734515 219.531943 462.471181 229.897001 461.934441 240.262060 460.908643 250.627119 459.072317 260.992177 455.997322 271.357236 451.189175 281.722295 444.185788 292.087353 434.715279 302.452412 422.884116 312.817471 409.334228 323.182529 395.290153 333.547588 382.433138 343.912647 372.593733 354.277705 367.330953 364.642764 367.528807 375.007823 373.153465 385.372881 383.262711 395.737940 396.264067 406.102999 410.324412 416.468057 423.786580 426.833116 435.465270 437.198175 444.759631 447.563233 451.595855 457.928292 456.265345 468.293351 459.237044 478.658409 461.003248 489.023468 461.985290 499.388527 462.496788 509.753585 462.746609 520.118644 462.861116 530.483703 462.910405 540.848761 462.930339 551.213820 462.937918 561.578879 462.940627 571.943937 462.941538 582.308996 462.941827 592.674055 462.941912 603.039113 462.941936 613.404172 462.941943 623.769231 462.941944" /></g><g class="series serie-12 color-12"><path class="line reactive nofill" d="M12.230769 462.941945 L22.595828 462.941945 32.960887 462.941945 43.325945 462.941944 53.691004 462.941943 64.056063 462.941940 74.421121 462.941927 84.786180 462.941886 95.151239 462.941761 105.516297 462.941393 115.881356 462.940367 126.246415 462.937643 136.611473 462.930756 146.976532 462.914197 157.341591 462.876318 167.706649 462.793928 178.071708 462.623577 188.436767 462.288918 198.801825 461.664572 209.166884 460.559137 219.531943 458.703126 229.897001 455.751007 240.262060 451.308434 250.627119 444.993751 260.992177 436.535169 271.357236 425.891393 281.722295 413.367410 292.087353 399.685135 302.452412 385.968559 312.817471 373.619919 323.182529 364.095465 333.547588 358.626523 343.912647 357.958576 354.277705 362.184498 364.642764 370.723355 375.007823 382.451474 385.372881 395.944980 395.737940 409.761684 406.102999 422.685960 416.468057 433.881977 426.833116 442.936672 437.198175 449.808505 447.563233 454.719572 457.928292 458.032860 468.293351 460.146902 478.658409 461.424331 489.023468 462.156133 499.388527 462.553919 509.753585 462.759224 520.118644 462.859891 530.483703 462.906805 540.848761 462.927594 551.213820 462.936356 561.578879 462.939869 571.943937 462.941210 582.308996 462.941697 592.674055 462.941865 603.039113 462.941920 613.404172 462.941938 623.769231 462.941943" /></g><g class="series serie-13 color-13"><path class="line reactive nofill" d="M12.230769 462.857902 L22.595828 462.807665 32.960887 462.731109 43.325945 462.616632 53.691004 462.448683 64.056063 462.206963 74.421121 461.865737 84.786180 461.393350 95.151239 460.752164 105.516297 459.899064 115.881356 458.786756 126.246415 457.366006 136.611473 455.588908 146.976532 453.413172 157.341591 450.807256 167.706649 447.756001 178.071708 444.266266 188.436767 440.371898 198.801825 436.137303 209.166884 431.658900 219.531943 427.063840 229.897001 422.505642 240.262060 418.156711 250.627119 414.198107 260.992177 410.807342 271.357236 408.145312 281.722295 406.343676 292.087353 405.494080 302.452412 405.640430 312.817471 406.775133 323.182529 408.839746 333.547588 411.729970 343.912647 415.304375 354.277705 419.395857 364.642764 423.824530 375.007823 428.410669 385.372881 432.986445 395.737940 437.405410 406.102999 441.549085 416.468057 445.330411 426.833116 448.694172 437.198175 451.614857 447.563233 454.092602 457.928292 456.147950 468.293351 457.816154 478.658409 459.141644 489.023468 460.173113 499.388527 460.959520 509.753585 461.547125 520.118644 461.977536 530.483703 462.286667 540.848761 462.504411 551.213820 462.654854 561.578879 462.756827 571.943937 462.824645 582.308996 462.868903 592.674055 462.897249 603.039113 462.915068 613.404172 462.926063 623.769231 462.932722" /></g></g><g class="titles"><text class="title plot_title" x="400.0" y="26">Iteration #16</text><text class="title" x="462.0" y="580.0">Observation</text><text class="title" transform="rotate(-90 64.000000 282.009619)" x="64.0" y="308.0096189432334">Density</text></g><g class="plot overlay" transform="translate(144, 46)"><g class="series serie-0 color-0" /><g class="series serie-1 color-1" /><g class="series serie-2 color-2" /><g class="series serie-3 color-3" /><g class="series serie-4 color-4" /><g class="series serie-5 color-5" /><g class="series serie-6 color-6" /><g class="series serie-7 color-7" /><g class="series serie-8 color-8" /><g class="series serie-9 color-9" /><g class="series serie-10 color-10" /><g class="series serie-11 color-11" /><g class="series serie-12 color-12" /><g class="series serie-13 color-13" /></g><g class="plot text-overlay" transform="translate(144, 46)"><g class="series serie-0 color-0" /><g class="series serie-1 color-1" /><g class="series serie-2 color-2" /><g class="series serie-3 color-3" /><g class="series serie-4 color-4" /><g class="series serie-5 color-5" /><g class="series serie-6 color-6" /><g class="series serie-7 color-7" /><g class="series serie-8 color-8" /><g class="series serie-9 color-9" /><g class="series serie-10 color-10" /><g class="series serie-11 color-11" /><g class="series serie-12 color-12" /><g class="series serie-13 color-13" /></g><g class="plot tooltip-overlay" transform="translate(144, 46)"><g class="tooltip" style="opacity: 0" transform="translate(0 0)"><rect class="tooltip-box" height="0" rx="0" ry="0" width="0" /><g class="text" /></g></g><g class="legends" transform="translate(10, 56)"><g class="legend reactive activate-serie" id="activate-serie-0"><rect class="color-0 reactive" height="12" width="12" x="0.0" y="0.0" /><text x="17.0" y="9.0">Data</text></g><g class="legend reactive activate-serie" id="activate-serie-1"><rect class="color-1 reactive" height="12" width="12" x="0.0" y="18.0" /><text x="17.0" y="27.0">GMM</text></g><g class="legend reactive activate-serie" id="activate-serie-2"><rect class="color-2 reactive" height="12" width="12" x="0.0" y="36.0" /><text x="17.0" y="45.0">i=0</text></g><g class="legend reactive activate-serie" id="activate-serie-3"><rect class="color-3 reactive" height="12" width="12" x="0.0" y="54.0" /><text x="17.0" y="63.0">i=1</text></g><g class="legend reactive activate-serie" id="activate-serie-4"><rect class="color-4 reactive" height="12" width="12" x="0.0" y="72.0" /><text x="17.0" y="81.0">i=0 k=0</text></g><g class="legend reactive activate-serie" id="activate-serie-5"><rect class="color-5 reactive" height="12" width="12" x="0.0" y="90.0" /><text x="17.0" y="99.0">i=0 k=1</text></g><g class="legend reactive activate-serie" id="activate-serie-6"><rect class="color-6 reactive" height="12" width="12" x="0.0" y="108.0" /><text x="17.0" y="117.0">i=0 k=2</text></g><g class="legend reactive activate-serie" id="activate-serie-7"><rect class="color-7 reactive" height="12" width="12" x="0.0" y="126.0" /><text x="17.0" y="135.0">i=0 k=3</text></g><g class="legend reactive activate-serie" id="activate-serie-8"><rect class="color-8 reactive" height="12" width="12" x="0.0" y="144.0" /><text x="17.0" y="153.0">i=0 k=4</text></g><g class="legend reactive activate-serie" id="activate-serie-9"><rect class="color-9 reactive" height="12" width="12" x="0.0" y="162.0" /><text x="17.0" y="171.0">i=1 k=0</text></g><g class="legend reactive activate-serie" id="activate-serie-10"><rect class="color-10 reactive" height="12" width="12" x="0.0" y="180.0" /><text x="17.0" y="189.0">i=1 k=1</text></g><g class="legend reactive activate-serie" id="activate-serie-11"><rect class="color-11 reactive" height="12" width="12" x="0.0" y="198.0" /><text x="17.0" y="207.0">i=1 k=2</text></g><g class="legend reactive activate-serie" id="activate-serie-12"><rect class="color-12 reactive" height="12" width="12" x="0.0" y="216.0" /><text x="17.0" y="225.0">i=1 k=3</text></g><g class="legend reactive activate-serie" id="activate-serie-13"><rect class="color-13 reactive" height="12" width="12" x="0.0" y="234.0" /><text x="17.0" y="243.0">i=1 k=4</text></g></g><g class="legends" transform="translate(790, 56)" /></g></svg>