<?xml version='1.0' encoding='utf-8'?>
<svg xmlns:xlink="http://www.w3.org/1999/xlink" class="pygal-chart" id="chart-a73d5f81-b2cb-4c91-8cfe-0273aa631cb1" viewBox="0 0 800 600" xmlns="http://www.w3.org/2000/svg"><!--Generated with pygal 2.4.0 (etree) ©Kozea 2012-2016 on 2018-01-18--><!--http://pygal.org--><!--http://github.com/Kozea/pygal--><defs><style type="text/css">#chart-a73d5f81-b2cb-4c91-8cfe-0273aa631cb1{-webkit-user-select:none;-webkit-font-smoothing:antialiased;font-family:Consolas,"Liberation Mono",Menlo,Courier,monospace}#chart-a73d5f81-b2cb-4c91-8cfe-0273aa631cb1 .title{font-family:Consolas,"Liberation Mono",Menlo,Courier,monospace;font-size:16px}#chart-a73d5f81-b2cb-4c91-8cfe-0273aa631cb1 .legends .legend text{font-family:Consolas,"Liberation Mono",Menlo,Courier,monospace;font-size:10px}#chart-a73d5f81-b2cb-4c91-8cfe-0273aa631cb1 .axis text{font-family:Consolas,"Liberation Mono",Menlo,Courier,monospace;font-size:10px}#chart-a73d5f81-b2cb-4c91-8cfe-0273aa631cb1 .axis text.major{font-family:Consolas,"Liberation Mono",Menlo,Courier,monospace;font-size:10px}#chart-a73d5f81-b2cb-4c91-8cfe-0273aa631cb1 .text-overlay text.value{font-family:Consolas,"Liberation Mono",Menlo,Courier,monospace;font-size:16px}#chart-a73d5f81-b2cb-4c91-8cfe-0273aa631cb1 .text-overlay text.label{font-family:Consolas,"Liberation Mono",Menlo,Courier,monospace;font-size:10px}#chart-a73d5f81-b2cb-4c91-8cfe-0273aa631cb1 .tooltip{font-family:Consolas,"Liberation Mono",Menlo,Courier,monospace;font-size:14px}#chart-a73d5f81-b2cb-4c91-8cfe-0273aa631cb1 text.no_data{font-family:Consolas,"Liberation Mono",Menlo,Courier,monospace;font-size:64px}
#chart-a73d5f81-b2cb-4c91-8cfe-0273aa631cb1{background-color:rgba(249,249,249,1)}#chart-a73d5f81-b2cb-4c91-8cfe-0273aa631cb1 path,#chart-a73d5f81-b2cb-4c91-8cfe-0273aa631cb1 line,#chart-a73d5f81-b2cb-4c91-8cfe-0273aa631cb1 rect,#chart-a73d5f81-b2cb-4c91-8cfe-0273aa631cb1 circle{-webkit-transition:150ms;-moz-transition:150ms;transition:150ms}#chart-a73d5f81-b2cb-4c91-8cfe-0273aa631cb1 .graph &gt; .background{fill:rgba(249,249,249,1)}#chart-a73d5f81-b2cb-4c91-8cfe-0273aa631cb1 .plot &gt; .background{fill:rgba(255,255,255,1)}#chart-a73d5f81-b2cb-4c91-8cfe-0273aa631cb1 .graph{fill:rgba(0,0,0,.87)}#chart-a73d5f81-b2cb-4c91-8cfe-0273aa631cb1 text.no_data{fill:rgba(0,0,0,1)}#chart-a73d5f81-b2cb-4c91-8cfe-0273aa631cb1 .title{fill:rgba(0,0,0,1)}#chart-a73d5f81-b2cb-4c91-8cfe-0273aa631cb1 .legends .legend text{fill:rgba(0,0,0,.87)}#chart-a73d5f81-b2cb-4c91-8cfe-0273aa631cb1 .legends .legend:hover text{fill:rgba(0,0,0,1)}#chart-a73d5f81-b2cb-4c91-8cfe-0273aa631cb1 .axis .line{stroke:rgba(0,0,0,1)}#chart-a73d5f81-b2cb-4c91-8cfe-0273aa631cb1 .axis .guide.line{stroke:rgba(0,0,0,.54)}#chart-a73d5f81-b2cb-4c91-8cfe-0273aa631cb1 .axis .major.line{stroke:rgba(0,0,0,.87)}#chart-a73d5f81-b2cb-4c91-8cfe-0273aa631cb1 .axis text.major{fill:rgba(0,0,0,1)}#chart-a73d5f81-b2cb-4c91-8cfe-0273aa631cb1 .axis.y .guides:hover .guide.line,#chart-a73d5f81-b2cb-4c91-8cfe-0273aa631cb1 .line-graph .axis.x .guides:hover .guide.line,#chart-a73d5f81-b2cb-4c91-8cfe-0273aa631cb1 .stackedline-graph .axis.x .guides:hover .guide.line,#chart-a73d5f81-b2cb-4c91-8cfe-0273aa631cb1 .xy-graph .axis.x .guides:hover .guide.line{stroke:rgba(0,0,0,1)}#chart-a73d5f81-b2cb-4c91-8cfe-0273aa631cb1 .axis .guides:hover text{fill:rgba(0,0,0,1)}#chart-a73d5f81-b2cb-4c91-8cfe-0273aa631cb1 .reactive{fill-opacity:.7;stroke-opacity:.8}#chart-a73d5f81-b2cb-4c91-8cfe-0273aa631cb1 .ci{stroke:rgba(0,0,0,.87)}#chart-a73d5f81-b2cb-4c91-8cfe-0273aa631cb1 .reactive.active,#chart-a73d5f81-b2cb-4c91-8cfe-0273aa631cb1 .active .reactive{fill-opacity:.8;stroke-opacity:.9;stroke-width:4}#chart-a73d5f81-b2cb-4c91-8cfe-0273aa631cb1 .ci .reactive.active{stroke-width:1.5}#chart-a73d5f81-b2cb-4c91-8cfe-0273aa631cb1 .series text{fill:rgba(0,0,0,1)}#chart-a73d5f81-b2cb-4c91-8cfe-0273aa631cb1 .tooltip rect{fill:rgba(255,255,255,1);stroke:rgba(0,0,0,1);-webkit-transition:opacity 150ms;-moz-transition:opacity 150ms;transition:opacity 150ms}#chart-a73d5f81-b2cb-4c91-8cfe-0273aa631cb1 .tooltip .label{fill:rgba(0,0,0,.87)}#chart-a73d5f81-b2cb-4c91-8cfe-0273aa631cb1 .tooltip .label{fill:rgba(0,0,0,.87)}#chart-a73d5f81-b2cb-4c91-8cfe-0273aa631cb1 .tooltip .legend{font-size:.8em;fill:rgba(0,0,0,.54)}#chart-a73d5f81-b2cb-4c91-8cfe-0273aa631cb1 .tooltip .x_label{font-size:.6em;fill:rgba(0,0,0,1)}#chart-a73d5f81-b2cb-4c91-8cfe-0273aa631cb1 .tooltip .xlink{font-size:.5em;text-decoration:underline}#chart-a73d5f81-b2cb-4c91-8cfe-0273aa631cb1 .tooltip .value{font-size:1.5em}#chart-a73d5f81-b2cb-4c91-8cfe-0273aa631cb1 .bound{font-size:.5em}#chart-a73d5f81-b2cb-4c91-8cfe-0273aa631cb1 .max-value{font-size:.75em;fill:rgba(0,0,0,.54)}#chart-a73d5f81-b2cb-4c91-8cfe-0273aa631cb1 .map-element{fill:rgba(255,255,255,1);stroke:rgba(0,0,0,.54) !important}#chart-a73d5f81-b2cb-4c91-8cfe-0273aa631cb1 .map-element .reactive{fill-opacity:inherit;stroke-opacity:inherit}#chart-a73d5f81-b2cb-4c91-8cfe-0273aa631cb1 .color-0,#chart-a73d5f81-b2cb-4c91-8cfe-0273aa631cb1 .color-0 a:visited{stroke:#909090;fill:#909090}#chart-a73d5f81-b2cb-4c91-8cfe-0273aa631cb1 .color-1,#chart-a73d5f81-b2cb-4c91-8cfe-0273aa631cb1 .color-1 a:visited{stroke:#000000;fill:#000000}#chart-a73d5f81-b2cb-4c91-8cfe-0273aa631cb1 .color-2,#chart-a73d5f81-b2cb-4c91-8cfe-0273aa631cb1 .color-2 a:visited{stroke:#ff0500;fill:#ff0500}#chart-a73d5f81-b2cb-4c91-8cfe-0273aa631cb1 .color-3,#chart-a73d5f81-b2cb-4c91-8cfe-0273aa631cb1 .color-3 a:visited{stroke:#323299;fill:#323299}#chart-a73d5f81-b2cb-4c91-8cfe-0273aa631cb1 .color-4,#chart-a73d5f81-b2cb-4c91-8cfe-0273aa631cb1 .color-4 a:visited{stroke:#a3413f;fill:#a3413f}#chart-a73d5f81-b2cb-4c91-8cfe-0273aa631cb1 .color-5,#chart-a73d5f81-b2cb-4c91-8cfe-0273aa631cb1 .color-5 a:visited{stroke:#a3413f;fill:#a3413f}#chart-a73d5f81-b2cb-4c91-8cfe-0273aa631cb1 .color-6,#chart-a73d5f81-b2cb-4c91-8cfe-0273aa631cb1 .color-6 a:visited{stroke:#a3413f;fill:#a3413f}#chart-a73d5f81-b2cb-4c91-8cfe-0273aa631cb1 .color-7,#chart-a73d5f81-b2cb-4c91-8cfe-0273aa631cb1 .color-7 a:visited{stroke:#a3413f;fill:#a3413f}#chart-a73d5f81-b2cb-4c91-8cfe-0273aa631cb1 .color-8,#chart-a73d5f81-b2cb-4c91-8cfe-0273aa631cb1 .color-8 a:visited{stroke:#a3413f;fill:#a3413f}#chart-a73d5f81-b2cb-4c91-8cfe-0273aa631cb1 .color-9,#chart-a73d5f81-b2cb-4c91-8cfe-0273aa631cb1 .color-9 a:visited{stroke:#657fff;fill:#657fff}#chart-a73d5f81-b2cb-4c91-8cfe-0273aa631cb1 .color-10,#chart-a73d5f81-b2cb-4c91-8cfe-0273aa631cb1 .color-10 a:visited{stroke:#657fff;fill:#657fff}#chart-a73d5f81-b2cb-4c91-8cfe-0273aa631cb1 .color-11,#chart-a73d5f81-b2cb-4c91-8cfe-0273aa631cb1 .color-11 a:visited{stroke:#657fff;fill:#657fff}#chart-a73d5f81-b2cb-4c91-8cfe-0273aa631cb1 .color-12,#chart-a73d5f81-b2cb-4c91-8cfe-0273aa631cb1 .color-12 a:visited{stroke:#657fff;fill:#657fff}#chart-a73d5f81-b2cb-4c91-8cfe-0273aa631cb1 .color-13,#chart-a73d5f81-b2cb-4c91-8cfe-0273aa631cb1 .color-13 a:visited{stroke:#657fff;fill:#657fff}#chart-a73d5f81-b2cb-4c91-8cfe-0273aa631cb1 .text-overlay .color-0 text{fill:black}#chart-a73d5f81-b2cb-4c91-8cfe-0273aa631cb1 .text-overlay .color-1 text{fill:white}#chart-a73d5f81-b2cb-4c91-8cfe-0273aa631cb1 .text-overlay .color-2 text{fill:black}#chart-a73d5f81-b2cb-4c91-8cfe-0273aa631cb1 .text-overlay .color-3 text{fill:black}#chart-a73d5f81-b2cb-4c91-8cfe-0273aa631cb1 .text-overlay .color-4 text{fill:black}#chart-a73d5f81-b2cb-4c91-8cfe-0273aa631cb1 .text-overlay .color-5 text{fill:black}#chart-a73d5f81-b2cb-4c91-8cfe-0273aa631cb1 .text-overlay .color-6 text{fill:black}#chart-a73d5f81-b2cb-4c91-8cfe-0273aa631cb1 .text-overlay .color-7 text{fill:black}#chart-a73d5f81-b2cb-4c91-8cfe-0273aa631cb1 .text-overlay .color-8 text{fill:black}#chart-a73d5f81-b2cb-4c91-8cfe-0273aa631cb1 .text-overlay .color-9 text{fill:black}#chart-a73d5f81-b2cb-4c91-8cfe-0273aa631cb1 .text-overlay .color-10 text{fill:black}#chart-a73d5f81-b2cb-4c91-8cfe-0273aa631cb1 .text-overlay .color-11 text{fill:black}#chart-a73d5f81-b2cb-4c91-8cfe-0273aa631cb1 .text-overlay .color-12 text{fill:black}#chart-a73d5f81-b2cb-4c91-8cfe-0273aa631cb1 .text-overlay .color-13 text{fill:black}#chart-a73d5f81-b2cb-4c91-8cfe-0273aa631cb1 .series.serie-1{stroke-width:5}#chart-a73d5f81-b2cb-4c91-8cfe-0273aa631cb1 .series.serie-2{stroke-width:3}#chart-a73d5f81-b2cb-4c91-8cfe-0273aa631cb1 .series.serie-3{stroke-width:3}#chart-a73d5f81-b2cb-4c91-8cfe-0273aa631cb1 .series.serie-4{stroke-width:2;stroke-dasharray:2,2}#chart-a73d5f81-b2cb-4c91-8cfe-0273aa631cb1 .series.serie-5{stroke-width:2;stroke-dasharray:2,2}#chart-a73d5f81-b2cb-4c91-8cfe-0273aa631cb1 .series.serie-6{stroke-width:2;stroke-dasharray:2,2}#chart-a73d5f81-b2cb-4c91-8cfe-0273aa631cb1 .series.serie-7{stroke-width:2;stroke-dasharray:2,2}#chart-a73d5f81-b2cb-4c91-8cfe-0273aa631cb1 .series.serie-8{stroke-width:2;stroke-dasharray:2,2}#chart-a73d5f81-b2cb-4c91-8cfe-0273aa631cb1 .series.serie-9{stroke-width:2;stroke-dasharray:2,2}#chart-a73d5f81-b2cb-4c91-8cfe-0273aa631cb1 .series.serie-10{stroke-width:2;stroke-dasharray:2,2}#chart-a73d5f81-b2cb-4c91-8cfe-0273aa631cb1 .series.serie-11{stroke-width:2;stroke-dasharray:2,2}#chart-a73d5f81-b2cb-4c91-8cfe-0273aa631cb1 .series.serie-12{stroke-width:2;stroke-dasharray:2,2}#chart-a73d5f81-b2cb-4c91-8cfe-0273aa631cb1 .series.serie-13{stroke-width:2;stroke-dasharray:2,2}
#chart-a73d5f81-b2cb-4c91-8cfe-0273aa631cb1 text.no_data{text-anchor:middle}#chart-a73d5f81-b2cb-4c91-8cfe-0273aa631cb1 .guide.line{fill:none}#chart-a73d5f81-b2cb-4c91-8cfe-0273aa631cb1 .centered{text-anchor:middle}#chart-a73d5f81-b2cb-4c91-8cfe-0273aa631cb1 .title{text-anchor:middle}#chart-a73d5f81-b2cb-4c91-8cfe-0273aa631cb1 .legends .legend text{fill-opacity:1}#chart-a73d5f81-b2cb-4c91-8cfe-0273aa631cb1 .axis.x text{text-anchor:middle}#chart-a73d5f81-b2cb-4c91-8cfe-0273aa631cb1 .axis.x:not(.web) text[transform]{text-anchor:start}#chart-a73d5f81-b2cb-4c91-8cfe-0273aa631cb1 .axis.x:not(.web) text[transform].backwards{text-anchor:end}#chart-a73d5f81-b2cb-4c91-8cfe-0273aa631cb1 .axis.y text{text-anchor:end}#chart-a73d5f81-b2cb-4c91-8cfe-0273aa631cb1 .axis.y text[transform].backwards{text-anchor:start}#chart-a73d5f81-b2cb-4c91-8cfe-0273aa631cb1 .axis.y2 text{text-anchor:start}#chart-a73d5f81-b2cb-4c91-8cfe-0273aa631cb1 .axis.y2 text[transform].backwards{text-anchor:end}#chart-a73d5f81-b2cb-4c91-8cfe-0273aa631cb1 .axis .guide.line{stroke-dasharray:4,4}#chart-a73d5f81-b2cb-4c91-8cfe-0273aa631cb1 .axis .major.guide.line{stroke-dasharray:6,6}#chart-a73d5f81-b2cb-4c91-8cfe-0273aa631cb1 .horizontal .axis.y .guide.line,#chart-a73d5f81-b2cb-4c91-8cfe-0273aa631cb1 .horizontal .axis.y2 .guide.line,#chart-a73d5f81-b2cb-4c91-8cfe-0273aa631cb1 .vertical .axis.x .guide.line{opacity:0}#chart-a73d5f81-b2cb-4c91-8cfe-0273aa631cb1 .horizontal .axis.always_show .guide.line,#chart-a73d5f81-b2cb-4c91-8cfe-0273aa631cb1 .vertical .axis.always_show .guide.line{opacity:1 !important}#chart-a73d5f81-b2cb-4c91-8cfe-0273aa631cb1 .axis.y .guides:hover .guide.line,#chart-a73d5f81-b2cb-4c91-8cfe-0273aa631cb1 .axis.y2 .guides:hover .guide.line,#chart-a73d5f81-b2cb-4c91-8cfe-0273aa631cb1 .axis.x .guides:hover .guide.line{opacity:1}#chart-a73d5f81-b2cb-4c91-8cfe-0273aa631cb1 .axis .guides:hover text{opacity:1}#chart-a73d5f81-b2cb-4c91-8cfe-0273aa631cb1 .nofill{fill:none}#chart-a73d5f81-b2cb-4c91-8cfe-0273aa631cb1 .subtle-fill{fill-opacity:.2}#chart-a73d5f81-b2cb-4c91-8cfe-0273aa631cb1 .dot{stroke-width:1px;fill-opacity:1}#chart-a73d5f81-b2cb-4c91-8cfe-0273aa631cb1 .dot.active{stroke-width:5px}#chart-a73d5f81-b2cb-4c91-8cfe-0273aa631cb1 .dot.negative{fill:transparent}#chart-a73d5f81-b2cb-4c91-8cfe-0273aa631cb1 text,#chart-a73d5f81-b2cb-4c91-8cfe-0273aa631cb1 tspan{stroke:none !important}#chart-a73d5f81-b2cb-4c91-8cfe-0273aa631cb1 .series text.active{opacity:1}#chart-a73d5f81-b2cb-4c91-8cfe-0273aa631cb1 .tooltip rect{fill-opacity:.95;stroke-width:.5}#chart-a73d5f81-b2cb-4c91-8cfe-0273aa631cb1 .tooltip text{fill-opacity:1}#chart-a73d5f81-b2cb-4c91-8cfe-0273aa631cb1 .showable{visibility:hidden}#chart-a73d5f81-b2cb-4c91-8cfe-0273aa631cb1 .showable.shown{visibility:visible}#chart-a73d5f81-b2cb-4c91-8cfe-0273aa631cb1 .gauge-background{fill:rgba(229,229,229,1);stroke:none}#chart-a73d5f81-b2cb-4c91-8cfe-0273aa631cb1 .bg-lines{stroke:rgba(249,249,249,1);stroke-width:2px}</style><script type="text/javascript">window.pygal = window.pygal || {};window.pygal.config = window.pygal.config || {};window.pygal.config['a73d5f81-b2cb-4c91-8cfe-0273aa631cb1'] = {"allow_interruptions": false, "x_label_rotation": 60, "y_title": "Density", "stack_from_top": false, "stroke": true, "include_x_axis": false, "defs": [], "truncate_label": null, "legend_at_bottom_columns": null, "show_minor_y_labels": true, "show_x_labels": true, "tooltip_fancy_mode": true, "show_legend": true, "print_labels": false, "disable_xml_declaration": false, "secondary_range": null, "x_labels": ["-8.96", "-8.76", "-8.56", "-8.36", "-8.16", "-7.96", "-7.76", "-7.56", "-7.36", "-7.16", "-6.96", "-6.76", "-6.56", "-6.36", "-6.16", "-5.96", "-5.76", "-5.56", "-5.36", "-5.16", "-4.96", "-4.76", "-4.56", "-4.36", "-4.16", "-3.96", "-3.76", "-3.56", "-3.36", "-3.16", "-2.96", "-2.76", "-2.56", "-2.36", "-2.16", "-1.96", "-1.76", "-1.56", "-1.36", "-1.16", "-0.96", "-0.76", "-0.56", "-0.36", "-0.16", "0.04", "0.24", "0.44", "0.64", "0.84", "1.04", "1.24", "1.43", "1.63", "1.83", "2.03", "2.23", "2.43", "2.63", "2.83"], "interpolation_precision": 250, "force_uri_protocol": "https", "classes": ["pygal-chart"], "css": ["file://style.css", "file://graph.css"], "margin": 20, "style": {"opacity_hover": ".8", "foreground": "rgba(0, 0, 0, .87)", "foreground_subtle": "rgba(0, 0, 0, .54)", "value_colors": [], "legend_font_family": "Consolas, \"Liberation Mono\", Menlo, Courier, monospace", "tooltip_font_family": "Consolas, \"Liberation Mono\", Menlo, Courier, monospace", "stroke_opacity_hover": ".9", "no_data_font_size": 64, "guide_stroke_dasharray": "4,4", "title_font_family": "Consolas, \"Liberation Mono\", Menlo, Courier, monospace", "label_font_family": "Consolas, \"Liberation Mono\", Menlo, Courier, monospace", "ci_colors": [], "background": "rgba(249, 249, 249, 1)", "colors": ["#909090", "#000000", "#ff0500", "#323299", "#a3413f", "#a3413f", "#a3413f", "#a3413f", "#a3413f", "#657fff", "#657fff", "#657fff", "#657fff", "#657fff"], "value_font_family": "Consolas, \"Liberation Mono\", Menlo, Courier, monospace", "font_family": "Consolas, \"Liberation Mono\", Menlo, Courier, monospace", "value_background": "rgba(229, 229, 229, 1)", "stroke_opacity": ".8", "title_font_size": 16, "no_data_font_family": "Consolas, \"Liberation Mono\", Menlo, Courier, monospace", "label_font_size": 10, "major_guide_stroke_dasharray": "6,6", "major_label_font_size": 10, "transition": "150ms", "opacity": ".7", "legend_font_size": 10, "value_label_font_family": "Consolas, \"Liberation Mono\", Menlo, Courier, monospace", "major_label_font_family": "Consolas, \"Liberation Mono\", Menlo, Courier, monospace", "plot_background": "rgba(255, 255, 255, 1)", "value_label_font_size": 10, "foreground_strong": "rgba(0, 0, 0, 1)", "tooltip_font_size": 14, "value_font_size": 16}, "order_min": null, "interpolation_parameters": {}, "show_dots": false, "y_labels_major": null, "box_mode": "extremes", "fill": false, "show_minor_x_labels": false, "js": ["//kozea.github.io/pygal.js/2.0.x/pygal-tooltips.min.js"], "explicit_size": false, "formatter": null, "x_labels_major": null, "legends": ["Data", "GMM", "i=0", "i=1", "i=0 k=0", "i=0 k=1", "i=0 k=2", "i=0 k=3", "i=0 k=4", "i=1 k=0", "i=1 k=1", "i=1 k=2", "i=1 k=3", "i=1 k=4"], "zero": 0, "strict": false, "print_values": false, "margin_bottom": null, "dynamic_print_values": false, "print_zeroes": true, "logarithmic": false, "x_labels_major_count": null, "margin_left": null, "legend_box_size": 12, "max_scale": 16, "dots_size": 2.5, "show_y_guides": true, "truncate_legend": null, "interpolate": null, "y_labels_major_every": null, "legend_at_bottom": false, "inner_radius": 0, "tooltip_border_radius": 0, "show_x_guides": false, "x_labels_major_every": 2, "show_y_labels": true, "pretty_print": false, "rounded_bars": null, "missing_value_fill_truncation": "x", "y_label_rotation": 0, "height": 600, "show_only_major_dots": false, "spacing": 10, "inverse_y_axis": false, "xrange": null, "margin_right": null, "no_prefix": false, "range": [0, 0.27578580090479526], "margin_top": null, "no_data_text": "No data", "y_labels_major_count": null, "half_pie": false, "width": 800, "title": "Iteration #19", "stroke_style": null, "y_labels": null, "print_values_position": "center", "x_title": "Observation", "min_scale": 4}</script><script type="text/javascript" xlink:href="https://kozea.github.io/pygal.js/2.0.x/pygal-tooltips.min.js" /></defs><title>Iteration #19</title><g class="graph line-graph vertical"><rect class="background" height="600" width="800" x="0" y="0" /><g class="plot" transform="translate(144, 46)"><rect class="background" height="472.01923788646684" width="636.0" x="0" y="0" /><g class="axis y always_show"><g class="guides"><path class="axis major line" d="M0.000000 462.941945 h636.000000" /><text class="major" x="-5" y="466.44194485">0</text><title>0</title></g><g class="guides"><path class="guide line" d="M0.000000 430.027658 h636.000000" /><text class="" x="-5" y="433.527657724">0.02</text><title>0.02</title></g><g class="guides"><path class="guide line" d="M0.000000 397.113371 h636.000000" /><text class="" x="-5" y="400.613370598">0.04</text><title>0.04</title></g><g class="guides"><path class="guide line" d="M0.000000 364.199083 h636.000000" /><text class="" x="-5" y="367.699083472">0.06</text><title>0.06</title></g><g class="guides"><path class="guide line" d="M0.000000 331.284796 h636.000000" /><text class="" x="-5" y="334.784796346">0.08</text><title>0.08</title></g><g class="guides"><path class="guide line" d="M0.000000 298.370509 h636.000000" /><text class="" x="-5" y="301.87050922">0.1</text><title>0.1</title></g><g class="guides"><path class="guide line" d="M0.000000 265.456222 h636.000000" /><text class="" x="-5" y="268.956222094">0.12</text><title>0.12</title></g><g class="guides"><path class="guide line" d="M0.000000 232.541935 h636.000000" /><text class="" x="-5" y="236.041934968">0.14</text><title>0.14</title></g><g class="guides"><path class="guide line" d="M0.000000 199.627648 h636.000000" /><text class="" x="-5" y="203.127647841">0.16</text><title>0.16</title></g><g class="guides"><path class="guide line" d="M0.000000 166.713361 h636.000000" /><text class="" x="-5" y="170.213360715">0.18</text><title>0.18</title></g><g class="guides"><path class="guide line" d="M0.000000 133.799074 h636.000000" /><text class="" x="-5" y="137.299073589">0.2</text><title>0.2</title></g><g class="guides"><path class="guide line" d="M0.000000 100.884786 h636.000000" /><text class="" x="-5" y="104.384786463">0.22</text><title>0.22</title></g><g class="guides"><path class="guide line" d="M0.000000 67.970499 h636.000000" /><text class="" x="-5" y="71.4704993371">0.24</text><title>0.24</title></g><g class="guides"><path class="guide line" d="M0.000000 35.056212 h636.000000" /><text class="" x="-5" y="38.5562122111">0.26</text><title>0.26</title></g></g><g class="axis x"><g class="guides"><path class="major line" d="M12.230769 0.000000 v472.019238" /><text class="major" transform="rotate(60 12.230769 487.019238)" x="12.230769230769232" y="487.01923788646684">-8.96</text></g><g class="guides"><path class="major guide line" d="M32.960887 0.000000 v472.019238" /><text class="major" transform="rotate(60 32.960887 487.019238)" x="32.96088657105606" y="487.01923788646684">-8.56</text></g><g class="guides"><path class="major guide line" d="M53.691004 0.000000 v472.019238" /><text class="major" transform="rotate(60 53.691004 487.019238)" x="53.6910039113429" y="487.01923788646684">-8.16</text></g><g class="guides"><path class="major guide line" d="M74.421121 0.000000 v472.019238" /><text class="major" transform="rotate(60 74.421121 487.019238)" x="74.42112125162973" y="487.01923788646684">-7.76</text></g><g class="guides"><path class="major guide line" d="M95.151239 0.000000 v472.019238" /><text class="major" transform="rotate(60 95.151239 487.019238)" x="95.15123859191655" y="487.01923788646684">-7.36</text></g><g class="guides"><path class="major guide line" d="M115.881356 0.000000 v472.019238" /><text class="major" transform="rotate(60 115.881356 487.019238)" x="115.88135593220338" y="487.01923788646684">-6.96</text></g><g class="guides"><path class="major guide line" d="M136.611473 0.000000 v472.019238" /><text class="major" transform="rotate(60 136.611473 487.019238)" x="136.61147327249023" y="487.01923788646684">-6.56</text></g><g class="guides"><path class="major guide line" d="M157.341591 0.000000 v472.019238" /><text class="major" transform="rotate(60 157.341591 487.019238)" x="157.34159061277705" y="487.01923788646684">-6.16</text></g><g class="guides"><path class="major guide line" d="M178.071708 0.000000 v472.019238" /><text class="major" transform="rotate(60 178.071708 487.019238)" x="178.0717079530639" y="487.01923788646684">-5.76</text></g><g class="guides"><path class="major guide line" d="M198.801825 0.000000 v472.019238" /><text class="major" transform="rotate(60 198.801825 487.019238)" x="198.80182529335073" y="487.01923788646684">-5.36</text></g><g class="guides"><path class="major guide line" d="M219.531943 0.000000 v472.019238" /><text class="major" transform="rotate(60 219.531943 487.019238)" x="219.53194263363756" y="487.01923788646684">-4.96</text></g><g class="guides"><path class="major guide line" d="M240.262060 0.000000 v472.019238" /><text class="major" transform="rotate(60 240.262060 487.019238)" x="240.2620599739244" y="487.01923788646684">-4.56</text></g><g class="guides"><path class="major guide line" d="M260.992177 0.000000 v472.019238" /><text class="major" transform="rotate(60 260.992177 487.019238)" x="260.99217731421123" y="487.01923788646684">-4.16</text></g><g class="guides"><path class="major guide line" d="M281.722295 0.000000 v472.019238" /><text class="major" transform="rotate(60 281.722295 487.019238)" x="281.722294654498" y="487.01923788646684">-3.76</text></g><g class="guides"><path class="major guide line" d="M302.452412 0.000000 v472.019238" /><text class="major" transform="rotate(60 302.452412 487.019238)" x="302.4524119947849" y="487.01923788646684">-3.36</text></g><g class="guides"><path class="major guide line" d="M323.182529 0.000000 v472.019238" /><text class="major" transform="rotate(60 323.182529 487.019238)" x="323.1825293350717" y="487.01923788646684">-2.96</text></g><g class="guides"><path class="major guide line" d="M343.912647 0.000000 v472.019238" /><text class="major" transform="rotate(60 343.912647 487.019238)" x="343.91264667535853" y="487.01923788646684">-2.56</text></g><g class="guides"><path class="major guide line" d="M364.642764 0.000000 v472.019238" /><text class="major" transform="rotate(60 364.642764 487.019238)" x="364.64276401564535" y="487.01923788646684">-2.16</text></g><g class="guides"><path class="major guide line" d="M385.372881 0.000000 v472.019238" /><text class="major" transform="rotate(60 385.372881 487.019238)" x="385.37288135593224" y="487.01923788646684">-1.76</text></g><g class="guides"><path class="major guide line" d="M406.102999 0.000000 v472.019238" /><text class="major" transform="rotate(60 406.102999 487.019238)" x="406.102998696219" y="487.01923788646684">-1.36</text></g><g class="guides"><path class="major guide line" d="M426.833116 0.000000 v472.019238" /><text class="major" transform="rotate(60 426.833116 487.019238)" x="426.8331160365058" y="487.01923788646684">-0.96</text></g><g class="guides"><path class="major guide line" d="M447.563233 0.000000 v472.019238" /><text class="major" transform="rotate(60 447.563233 487.019238)" x="447.56323337679265" y="487.01923788646684">-0.56</text></g><g class="guides"><path class="major guide line" d="M468.293351 0.000000 v472.019238" /><text class="major" transform="rotate(60 468.293351 487.019238)" x="468.29335071707953" y="487.01923788646684">-0.16</text></g><g class="guides"><path class="major guide line" d="M489.023468 0.000000 v472.019238" /><text class="major" transform="rotate(60 489.023468 487.019238)" x="489.02346805736636" y="487.01923788646684">0.24</text></g><g class="guides"><path class="major guide line" d="M509.753585 0.000000 v472.019238" /><text class="major" transform="rotate(60 509.753585 487.019238)" x="509.75358539765324" y="487.01923788646684">0.64</text></g><g class="guides"><path class="major guide line" d="M530.483703 0.000000 v472.019238" /><text class="major" transform="rotate(60 530.483703 487.019238)" x="530.48370273794" y="487.01923788646684">1.04</text></g><g class="guides"><path class="major guide line" d="M551.213820 0.000000 v472.019238" /><text class="major" transform="rotate(60 551.213820 487.019238)" x="551.213820078227" y="487.01923788646684">1.43</text></g><g class="guides"><path class="major guide line" d="M571.943937 0.000000 v472.019238" /><text class="major" transform="rotate(60 571.943937 487.019238)" x="571.9439374185138" y="487.01923788646684">1.83</text></g><g class="guides"><path class="major guide line" d="M592.674055 0.000000 v472.019238" /><text class="major" transform="rotate(60 592.674055 487.019238)" x="592.6740547588006" y="487.01923788646684">2.23</text></g><g class="guides"><path class="major guide line" d="M613.404172 0.000000 v472.019238" /><text class="major" transform="rotate(60 613.404172 487.019238)" x="613.4041720990874" y="487.01923788646684">2.63</text></g></g><g class="series serie-0 color-0"><path class="line reactive" d="M12.230769 462.941945 L12.230769 462.019456 22.595828 462.941945 32.960887 461.096967 43.325945 462.019456 53.691004 459.251988 64.056063 462.019456 74.421121 458.329499 84.786180 462.019456 95.151239 458.329499 105.516297 462.019456 115.881356 448.182119 126.246415 460.174477 136.611473 457.407010 146.976532 457.407010 157.341591 451.872075 167.706649 448.182119 178.071708 454.639543 188.436767 445.414651 198.801825 442.647184 209.166884 436.189760 219.531943 437.112249 229.897001 392.832771 240.262060 396.522728 250.627119 376.227967 260.992177 355.933206 271.357236 351.320760 281.722295 325.491065 292.087353 277.521630 302.452412 283.056565 312.817471 202.800010 323.182529 188.040184 333.547588 169.590402 343.912647 123.465945 354.277705 95.791271 364.642764 67.194108 375.007823 82.876423 385.372881 60.736684 395.737940 80.108956 406.102999 29.372054 416.468057 9.077293 426.833116 70.884065 437.198175 69.039086 447.563233 41.364413 457.928292 40.441923 468.293351 91.178826 478.658409 140.993239 489.023468 214.792369 499.388527 259.071847 509.753585 321.801108 520.118644 364.235608 530.483703 408.515086 540.848761 430.654825 551.213820 448.182119 561.578879 455.562032 571.943937 458.329499 582.308996 458.329499 592.674055 462.019456 603.039113 462.941945 613.404172 462.019456 623.769231 462.941945" /></g><g class="series serie-1 color-1"><path class="line reactive nofill" d="M12.230769 462.896596 L22.595828 462.865555 32.960887 462.815679 43.325945 462.737143 53.691004 462.615980 64.056063 462.432850 74.421121 462.161723 84.786180 461.768591 95.151239 461.210410 105.516297 460.434538 115.881356 459.378991 126.246415 457.973871 136.611473 456.144265 146.976532 453.814802 157.341591 450.915775 167.706649 447.390191 178.071708 443.200223 188.436767 438.330028 198.801825 432.779833 209.166884 426.544079 219.531943 419.566108 229.897001 411.666560 240.262060 402.455829 250.627119 391.262372 260.992177 377.130064 271.357236 358.941917 281.722295 335.697950 292.087353 306.913158 302.452412 273.031687 312.817471 235.702135 323.182529 197.732389 333.547588 162.563832 343.912647 133.272209 354.277705 111.441020 364.642764 96.443823 375.007823 85.530459 385.372881 75.309202 395.737940 64.996516 406.102999 58.185712 416.468057 57.878110 426.833116 59.526618 437.198175 54.944318 447.563233 44.642881 457.928292 41.058031 468.293351 58.307771 478.658409 101.430667 489.023468 164.437203 499.388527 235.254036 509.753585 301.969354 520.118644 356.842397 530.483703 397.232585 540.848761 424.334970 551.213820 441.186786 561.578879 451.051159 571.943937 456.572529 582.308996 459.571160 592.674055 461.170882 603.039113 462.016576 613.404172 462.461651 623.769231 462.695012" /></g><g class="series serie-2 color-2"><path class="line reactive nofill" d="M12.230769 462.941945 L22.595828 462.941945 32.960887 462.941945 43.325945 462.941945 53.691004 462.941945 64.056063 462.941945 74.421121 462.941945 84.786180 462.941945 95.151239 462.941945 105.516297 462.941945 115.881356 462.941945 126.246415 462.941945 136.611473 462.941945 146.976532 462.941945 157.341591 462.941945 167.706649 462.941945 178.071708 462.941945 188.436767 462.941945 198.801825 462.941944 209.166884 462.941943 219.531943 462.941938 229.897001 462.941923 240.262060 462.941879 250.627119 462.941751 260.992177 462.941387 271.357236 462.940372 281.722295 462.937566 292.087353 462.929891 302.452412 462.909078 312.817471 462.853268 323.182529 462.706201 333.547588 462.329216 343.912647 461.400997 354.277705 459.234833 364.642764 454.504153 375.007823 444.945339 385.372881 427.253893 395.737940 397.538582 406.102999 352.667340 416.468057 292.426695 426.833116 221.656173 437.198175 150.893096 447.563233 94.305806 457.928292 65.095412 468.293351 70.358935 478.658409 108.187323 489.023468 168.656529 499.388527 238.048069 509.753585 303.853651 520.118644 358.109549 530.483703 398.074344 540.848761 424.885145 551.213820 441.540017 561.578879 451.273785 571.943937 456.710234 582.308996 459.654746 592.674055 461.220668 603.039113 462.045676 613.404172 462.478341 623.769231 462.704406" /></g><g class="series serie-3 color-3"><path class="line reactive nofill" d="M12.230769 462.896596 L22.595828 462.865555 32.960887 462.815679 43.325945 462.737143 53.691004 462.615980 64.056063 462.432850 74.421121 462.161723 84.786180 461.768591 95.151239 461.210410 105.516297 460.434538 115.881356 459.378991 126.246415 457.973871 136.611473 456.144265 146.976532 453.814802 157.341591 450.915775 167.706649 447.390191 178.071708 443.200223 188.436767 438.330028 198.801825 432.779834 209.166884 426.544081 219.531943 419.566115 229.897001 411.666582 240.262060 402.455896 250.627119 391.262566 260.992177 377.130621 271.357236 358.943490 281.722295 335.702329 292.087353 306.925212 302.452412 273.064553 312.817471 235.790812 323.182529 197.968133 333.547588 163.176561 343.912647 134.813158 354.277705 115.148132 364.642764 104.881616 375.007823 103.527065 385.372881 110.997254 395.737940 130.399879 406.102999 168.460317 416.468057 228.393359 426.833116 300.812390 437.198175 366.993166 447.563233 413.279020 457.928292 438.904564 468.293351 450.890781 478.658409 456.185288 489.023468 458.722618 499.388527 460.147912 509.753585 461.057648 520.118644 461.674793 530.483703 462.100186 540.848761 462.391770 551.213820 462.588714 561.578879 462.719318 571.943937 462.804240 582.308996 462.858359 592.674055 462.892158 603.039113 462.912845 613.404172 462.925255 623.769231 462.932552" /></g><g class="series serie-4 color-4"><path class="line reactive nofill" d="M12.230769 462.941945 L22.595828 462.941945 32.960887 462.941945 43.325945 462.941945 53.691004 462.941945 64.056063 462.941945 74.421121 462.941945 84.786180 462.941945 95.151239 462.941945 105.516297 462.941945 115.881356 462.941945 126.246415 462.941945 136.611473 462.941945 146.976532 462.941945 157.341591 462.941945 167.706649 462.941945 178.071708 462.941945 188.436767 462.941945 198.801825 462.941945 209.166884 462.941945 219.531943 462.941945 229.897001 462.941945 240.262060 462.941945 250.627119 462.941944 260.992177 462.941942 271.357236 462.941928 281.722295 462.941847 292.087353 462.941421 302.452412 462.939419 312.817471 462.930928 323.182529 462.898504 333.547588 462.787050 343.912647 462.442543 354.277705 461.486012 364.642764 459.103899 375.007823 453.793307 385.372881 443.223149 395.737940 424.510915 406.102999 395.215027 416.468057 355.017889 426.833116 307.433900 437.198175 260.329964 447.563233 224.240505 457.928292 208.655849 468.293351 217.997358 478.658409 249.592884 489.023468 294.910222 499.388527 343.276300 509.753585 385.882594 520.118644 418.071656 530.483703 439.317042 540.848761 451.694371 551.213820 458.099938 561.578879 461.057126 571.943937 462.278521 582.308996 462.730795 592.674055 462.881178 603.039113 462.926132 613.404172 462.938224 623.769231 462.941153" /></g><g class="series serie-5 color-5"><path class="line reactive nofill" d="M12.230769 462.941945 L22.595828 462.941945 32.960887 462.941945 43.325945 462.941945 53.691004 462.941945 64.056063 462.941945 74.421121 462.941945 84.786180 462.941945 95.151239 462.941945 105.516297 462.941945 115.881356 462.941945 126.246415 462.941945 136.611473 462.941945 146.976532 462.941945 157.341591 462.941945 167.706649 462.941945 178.071708 462.941945 188.436767 462.941945 198.801825 462.941945 209.166884 462.941945 219.531943 462.941945 229.897001 462.941945 240.262060 462.941944 250.627119 462.941939 260.992177 462.941917 271.357236 462.941822 281.722295 462.941436 292.087353 462.940001 302.452412 462.935070 312.817471 462.919448 323.182529 462.873846 333.547588 462.751245 343.912647 462.447919 354.277705 461.757988 364.642764 460.317060 375.007823 457.558348 385.372881 452.727312 395.737940 445.012745 406.102999 433.828945 416.468057 419.209785 426.833116 402.170046 437.198175 384.816480 447.563233 370.030260 457.928292 360.721920 468.293351 358.904532 478.658409 364.985949 489.023468 377.620063 499.388527 394.191147 509.753585 411.693229 520.118644 427.601164 530.483703 440.396583 540.848761 449.636598 551.213820 455.677823 561.578879 459.273112 571.943937 461.227748 582.308996 462.201008 592.674055 462.645673 603.039113 462.832351 613.404172 462.904441 623.769231 462.930072" /></g><g class="series serie-6 color-6"><path class="line reactive nofill" d="M12.230769 462.941945 L22.595828 462.941945 32.960887 462.941945 43.325945 462.941945 53.691004 462.941945 64.056063 462.941945 74.421121 462.941945 84.786180 462.941945 95.151239 462.941945 105.516297 462.941945 115.881356 462.941945 126.246415 462.941945 136.611473 462.941945 146.976532 462.941945 157.341591 462.941945 167.706649 462.941945 178.071708 462.941945 188.436767 462.941945 198.801825 462.941945 209.166884 462.941945 219.531943 462.941944 229.897001 462.941942 240.262060 462.941935 250.627119 462.941907 260.992177 462.941811 271.357236 462.941499 281.722295 462.940555 292.087353 462.937864 302.452412 462.930669 312.817471 462.912622 323.182529 462.870182 333.547588 462.776670 343.912647 462.583734 354.277705 462.211320 364.642764 461.539537 375.007823 460.408696 385.372881 458.635638 395.737940 456.052950 406.102999 452.570713 416.468057 448.248334 426.833116 443.351225 437.198175 438.361151 447.563233 433.917422 457.928292 430.689849 468.293351 429.215198 478.658409 429.751380 489.023468 432.203740 499.388527 436.152358 509.753585 440.969559 520.118644 445.982483 530.483703 450.623083 540.848761 454.521156 551.213820 457.524947 561.578879 459.662592 571.943937 461.073667 582.308996 461.940290 592.674055 462.436564 603.039113 462.701983 613.404172 462.834721 623.769231 462.896857" /></g><g class="series serie-7 color-7"><path class="line reactive nofill" d="M12.230769 462.941945 L22.595828 462.941945 32.960887 462.941945 43.325945 462.941945 53.691004 462.941945 64.056063 462.941945 74.421121 462.941945 84.786180 462.941945 95.151239 462.941945 105.516297 462.941945 115.881356 462.941945 126.246415 462.941945 136.611473 462.941945 146.976532 462.941945 157.341591 462.941945 167.706649 462.941945 178.071708 462.941945 188.436767 462.941945 198.801825 462.941945 209.166884 462.941944 219.531943 462.941941 229.897001 462.941933 240.262060 462.941910 250.627119 462.941844 260.992177 462.941672 271.357236 462.941238 281.722295 462.940196 292.087353 462.937809 302.452412 462.932606 312.817471 462.921804 323.182529 462.900461 333.547588 462.860344 343.912647 462.788648 354.277705 462.666907 364.642764 462.470669 375.007823 462.170722 385.372881 461.736615 395.737940 461.142851 406.102999 460.377322 416.468057 459.450420 426.833116 458.402232 437.198175 457.304744 447.563233 456.256652 457.928292 455.370144 468.293351 454.751646 478.658409 454.480937 489.023468 454.594256 499.388527 455.076338 509.753585 455.863791 520.118644 456.858780 530.483703 457.948952 540.848761 459.028005 551.213820 460.011799 561.578879 460.846935 571.943937 461.511390 582.308996 462.009023 592.674055 462.360903 603.039113 462.596331 613.404172 462.745610 623.769231 462.835426" /></g><g class="series serie-8 color-8"><path class="line reactive nofill" d="M12.230769 462.941945 L22.595828 462.941945 32.960887 462.941945 43.325945 462.941945 53.691004 462.941945 64.056063 462.941945 74.421121 462.941945 84.786180 462.941945 95.151239 462.941945 105.516297 462.941945 115.881356 462.941945 126.246415 462.941945 136.611473 462.941945 146.976532 462.941945 157.341591 462.941945 167.706649 462.941945 178.071708 462.941945 188.436767 462.941945 198.801825 462.941945 209.166884 462.941944 219.531943 462.941942 229.897001 462.941937 240.262060 462.941925 250.627119 462.941895 260.992177 462.941824 271.357236 462.941663 281.722295 462.941311 292.087353 462.940574 302.452412 462.939095 312.817471 462.936246 323.182529 462.930987 333.547588 462.921686 343.912647 462.905931 354.277705 462.880386 364.642764 462.840767 375.007823 462.782045 385.372881 462.698959 395.737940 462.586900 406.102999 462.443113 416.468057 462.268046 426.833116 462.066550 437.198175 461.848536 447.563233 461.628747 457.928292 461.425429 468.293351 461.257981 478.658409 461.143952 489.023468 461.096028 499.388527 461.119705 509.753585 461.212256 520.118644 461.363245 530.483703 461.556465 540.848761 461.772795 551.213820 461.993288 561.578879 462.201799 571.943937 462.386688 582.308996 462.541410 592.674055 462.664130 603.039113 462.756660 613.404172 462.823124 623.769231 462.868676" /></g><g class="series serie-9 color-9"><path class="line reactive nofill" d="M12.230769 462.941945 L22.595828 462.941945 32.960887 462.941945 43.325945 462.941945 53.691004 462.941945 64.056063 462.941945 74.421121 462.941945 84.786180 462.941945 95.151239 462.941945 105.516297 462.941945 115.881356 462.941945 126.246415 462.941945 136.611473 462.941945 146.976532 462.941945 157.341591 462.941945 167.706649 462.941945 178.071708 462.941945 188.436767 462.941945 198.801825 462.941945 209.166884 462.941945 219.531943 462.941945 229.897001 462.941945 240.262060 462.941945 250.627119 462.941945 260.992177 462.941945 271.357236 462.941945 281.722295 462.941945 292.087353 462.941945 302.452412 462.941940 312.817471 462.941851 323.182529 462.940609 333.547588 462.927715 343.912647 462.828599 354.277705 462.266855 364.642764 459.935396 375.007823 452.929860 385.372881 438.011482 395.737940 416.524005 406.102999 398.318361 416.468057 395.668155 426.833116 410.575823 437.198175 432.462672 447.563233 449.676908 457.928292 458.625144 468.293351 461.891520 478.658409 462.750820 489.023468 462.915942 499.388527 462.939300 509.753585 462.941744 520.118644 462.941933 530.483703 462.941944 540.848761 462.941945 551.213820 462.941945 561.578879 462.941945 571.943937 462.941945 582.308996 462.941945 592.674055 462.941945 603.039113 462.941945 613.404172 462.941945 623.769231 462.941945" /></g><g class="series serie-10 color-10"><path class="line reactive nofill" d="M12.230769 462.941945 L22.595828 462.941945 32.960887 462.941945 43.325945 462.941945 53.691004 462.941945 64.056063 462.941945 74.421121 462.941945 84.786180 462.941945 95.151239 462.941945 105.516297 462.941945 115.881356 462.941945 126.246415 462.941945 136.611473 462.941945 146.976532 462.941945 157.341591 462.941945 167.706649 462.941945 178.071708 462.941945 188.436767 462.941945 198.801825 462.941945 209.166884 462.941945 219.531943 462.941945 229.897001 462.941945 240.262060 462.941945 250.627119 462.941942 260.992177 462.941914 271.357236 462.941665 281.722295 462.939841 292.087353 462.928661 302.452412 462.871444 312.817471 462.627500 323.182529 461.763313 333.547588 459.229186 343.912647 453.113142 354.277705 441.074908 364.642764 422.056886 375.007823 398.699112 385.372881 378.107909 395.737940 368.796146 406.102999 375.137370 416.468057 394.121302 426.833116 417.609861 437.198175 437.847475 447.563233 451.267514 457.928292 458.377596 468.293351 461.442235 478.658409 462.527830 489.023468 462.845846 499.388527 462.923203 509.753585 462.938873 520.118644 462.941522 530.483703 462.941896 540.848761 462.941940 551.213820 462.941944 561.578879 462.941945 571.943937 462.941945 582.308996 462.941945 592.674055 462.941945 603.039113 462.941945 613.404172 462.941945 623.769231 462.941945" /></g><g class="series serie-11 color-11"><path class="line reactive nofill" d="M12.230769 462.941945 L22.595828 462.941945 32.960887 462.941945 43.325945 462.941945 53.691004 462.941945 64.056063 462.941945 74.421121 462.941945 84.786180 462.941945 95.151239 462.941945 105.516297 462.941945 115.881356 462.941945 126.246415 462.941945 136.611473 462.941945 146.976532 462.941945 157.341591 462.941945 167.706649 462.941944 178.071708 462.941942 188.436767 462.941928 198.801825 462.941849 209.166884 462.941456 219.531943 462.939688 229.897001 462.932524 240.262060 462.906387 250.627119 462.820597 260.992177 462.567511 271.357236 461.897308 281.722295 460.306817 292.087353 456.931811 302.452412 450.547913 312.817471 439.832622 323.182529 423.982929 333.547588 403.557207 343.912647 381.097756 354.277705 360.954438 364.642764 348.033424 375.007823 345.883266 385.372881 355.121497 395.737940 373.148472 406.102999 395.328270 416.468057 416.908822 426.833116 434.605037 437.198175 447.170169 447.563233 455.004972 457.928292 459.330547 468.293351 461.456208 478.658409 462.389289 489.023468 462.756073 499.388527 462.885423 509.753585 462.926404 520.118644 462.938081 530.483703 462.941076 540.848761 462.941768 551.213820 462.941912 561.578879 462.941939 571.943937 462.941944 582.308996 462.941945 592.674055 462.941945 603.039113 462.941945 613.404172 462.941945 623.769231 462.941945" /></g><g class="series serie-12 color-12"><path class="line reactive nofill" d="M12.230769 462.941945 L22.595828 462.941945 32.960887 462.941945 43.325945 462.941945 53.691004 462.941945 64.056063 462.941945 74.421121 462.941945 84.786180 462.941945 95.151239 462.941945 105.516297 462.941944 115.881356 462.941939 126.246415 462.941917 136.611473 462.941824 146.976532 462.941458 157.341591 462.940129 167.706649 462.935634 178.071708 462.921534 188.436767 462.880508 198.801825 462.769824 209.166884 462.493130 219.531943 461.852693 229.897001 460.481477 240.262060 457.769033 250.627119 452.819614 260.992177 444.506488 271.357236 431.691564 281.722295 413.637653 292.087353 390.541350 302.452412 363.989268 312.817471 337.066516 323.182529 313.908967 333.547588 298.712208 343.912647 294.500400 354.277705 302.146168 364.642764 320.076216 375.007823 344.798538 385.372881 372.009490 395.737940 397.800656 406.102999 419.508750 416.468057 435.988442 426.833116 447.373808 437.198175 454.572703 447.563233 458.754361 457.928292 460.991791 468.293351 462.096661 478.658409 462.600937 489.023468 462.813903 499.388527 462.897197 509.753585 462.927390 520.118644 462.937538 530.483703 462.940703 540.848761 462.941619 551.213820 462.941865 561.578879 462.941927 571.943937 462.941941 582.308996 462.941944 592.674055 462.941945 603.039113 462.941945 613.404172 462.941945 623.769231 462.941945" /></g><g class="series serie-13 color-13"><path class="line reactive nofill" d="M12.230769 462.896596 L22.595828 462.865555 32.960887 462.815679 43.325945 462.737143 53.691004 462.615980 64.056063 462.432850 74.421121 462.161723 84.786180 461.768591 95.151239 461.210411 105.516297 460.434539 115.881356 459.378997 126.246415 457.973900 136.611473 456.144386 146.976532 453.815288 157.341591 450.917591 167.706649 447.396503 178.071708 443.220636 188.436767 438.391482 198.801825 432.952050 209.166884 426.993385 219.531943 420.657623 229.897001 414.136471 240.262060 407.664366 250.627119 401.506247 260.992177 395.940544 271.357236 391.238788 281.722295 387.643853 292.087353 385.349225 302.452412 384.481768 312.817471 385.090103 323.182529 387.140094 333.547588 390.518024 343.912647 395.041040 354.277705 400.473543 364.642764 406.547473 375.007823 412.984068 385.372881 419.514656 395.737940 425.898380 406.102999 431.935346 416.468057 437.474417 426.833116 442.415641 437.198175 446.707926 447.563233 450.343045 457.928292 453.347265 468.293351 455.771936 478.658409 457.684192 489.023468 459.158634 499.388527 460.270568 509.753585 461.091017 520.118644 461.683497 530.483703 462.102345 540.848761 462.392277 551.213820 462.588827 561.578879 462.719342 571.943937 462.804245 582.308996 462.858360 592.674055 462.892158 603.039113 462.912845 613.404172 462.925255 623.769231 462.932552" /></g></g><g class="titles"><text class="title plot_title" x="400.0" y="26">Iteration #19</text><text class="title" x="462.0" y="580.0">Observation</text><text class="title" transform="rotate(-90 64.000000 282.009619)" x="64.0" y="308.0096189432334">Density</text></g><g class="plot overlay" transform="translate(144, 46)"><g class="series serie-0 color-0" /><g class="series serie-1 color-1" /><g class="series serie-2 color-2" /><g class="series serie-3 color-3" /><g class="series serie-4 color-4" /><g class="series serie-5 color-5" /><g class="series serie-6 color-6" /><g class="series serie-7 color-7" /><g class="series serie-8 color-8" /><g class="series serie-9 color-9" /><g class="series serie-10 color-10" /><g class="series serie-11 color-11" /><g class="series serie-12 color-12" /><g class="series serie-13 color-13" /></g><g class="plot text-overlay" transform="translate(144, 46)"><g class="series serie-0 color-0" /><g class="series serie-1 color-1" /><g class="series serie-2 color-2" /><g class="series serie-3 color-3" /><g class="series serie-4 color-4" /><g class="series serie-5 color-5" /><g class="series serie-6 color-6" /><g class="series serie-7 color-7" /><g class="series serie-8 color-8" /><g class="series serie-9 color-9" /><g class="series serie-10 color-10" /><g class="series serie-11 color-11" /><g class="series serie-12 color-12" /><g class="series serie-13 color-13" /></g><g class="plot tooltip-overlay" transform="translate(144, 46)"><g class="tooltip" style="opacity: 0" transform="translate(0 0)"><rect class="tooltip-box" height="0" rx="0" ry="0" width="0" /><g class="text" /></g></g><g class="legends" transform="translate(10, 56)"><g class="legend reactive activate-serie" id="activate-serie-0"><rect class="color-0 reactive" height="12" width="12" x="0.0" y="0.0" /><text x="17.0" y="9.0">Data</text></g><g class="legend reactive activate-serie" id="activate-serie-1"><rect class="color-1 reactive" height="12" width="12" x="0.0" y="18.0" /><text x="17.0" y="27.0">GMM</text></g><g class="legend reactive activate-serie" id="activate-serie-2"><rect class="color-2 reactive" height="12" width="12" x="0.0" y="36.0" /><text x="17.0" y="45.0">i=0</text></g><g class="legend reactive activate-serie" id="activate-serie-3"><rect class="color-3 reactive" height="12" width="12" x="0.0" y="54.0" /><text x="17.0" y="63.0">i=1</text></g><g class="legend reactive activate-serie" id="activate-serie-4"><rect class="color-4 reactive" height="12" width="12" x="0.0" y="72.0" /><text x="17.0" y="81.0">i=0 k=0</text></g><g class="legend reactive activate-serie" id="activate-serie-5"><rect class="color-5 reactive" height="12" width="12" x="0.0" y="90.0" /><text x="17.0" y="99.0">i=0 k=1</text></g><g class="legend reactive activate-serie" id="activate-serie-6"><rect class="color-6 reactive" height="12" width="12" x="0.0" y="108.0" /><text x="17.0" y="117.0">i=0 k=2</text></g><g class="legend reactive activate-serie" id="activate-serie-7"><rect class="color-7 reactive" height="12" width="12" x="0.0" y="126.0" /><text x="17.0" y="135.0">i=0 k=3</text></g><g class="legend reactive activate-serie" id="activate-serie-8"><rect class="color-8 reactive" height="12" width="12" x="0.0" y="144.0" /><text x="17.0" y="153.0">i=0 k=4</text></g><g class="legend reactive activate-serie" id="activate-serie-9"><rect class="color-9 reactive" height="12" width="12" x="0.0" y="162.0" /><text x="17.0" y="171.0">i=1 k=0</text></g><g class="legend reactive activate-serie" id="activate-serie-10"><rect class="color-10 reactive" height="12" width="12" x="0.0" y="180.0" /><text x="17.0" y="189.0">i=1 k=1</text></g><g class="legend reactive activate-serie" id="activate-serie-11"><rect class="color-11 reactive" height="12" width="12" x="0.0" y="198.0" /><text x="17.0" y="207.0">i=1 k=2</text></g><g class="legend reactive activate-serie" id="activate-serie-12"><rect class="color-12 reactive" height="12" width="12" x="0.0" y="216.0" /><text x="17.0" y="225.0">i=1 k=3</text></g><g class="legend reactive activate-serie" id="activate-serie-13"><rect class="color-13 reactive" height="12" width="12" x="0.0" y="234.0" /><text x="17.0" y="243.0">i=1 k=4</text></g></g><g class="legends" transform="translate(790, 56)" /></g></svg>